<?xml version="1.0" encoding="UTF-8"?><svg id="Layer_1" xmlns="http://www.w3.org/2000/svg" xmlns:xlink="http://www.w3.org/1999/xlink" viewBox="0 0 112 121.35"><defs><clipPath id="clippath"><rect width="112" height="121.35" fill="none" stroke-width="0"/></clipPath></defs><rect x="92.18" y="69.22" width="10.03" height="6.33" rx="2.81" ry="2.81" transform="translate(169.58 -24.82) rotate(90)" fill="#c4603d" stroke-width="0"/><rect x="37.81" y="74.34" width="43.05" height="50.98" rx="2.81" ry="2.81" transform="translate(159.16 40.5) rotate(90)" fill="#3504ad" stroke-width="0"/><rect x="57.89" y="76.33" width="43.46" height="24.25" rx="2.81" ry="2.81" transform="translate(168.08 8.84) rotate(90)" fill="#c4603d" stroke-width="0"/><rect x="47.81" y="22.86" width="18.73" height="18.73" rx="2.81" ry="2.81" transform="translate(89.4 -24.95) rotate(90)" fill="#f4a187" stroke-width="0"/><rect x="84.33" y="98.39" width="19.95" height="12.13" rx="2.81" ry="2.81" transform="translate(198.75 10.15) rotate(90)" fill="#f4a187" stroke-width="0"/><rect x="29.43" y="77.11" width="25.27" height="25.84" rx="2.81" ry="2.81" transform="translate(132.1 47.97) rotate(90)" fill="#3504ad" stroke-width="0"/><g clip-path="url(#clippath)"><path d="m91.78,55.59h.3c.1.2.1.4.2.6s.4.1.6.2c.2-.2.4-.3.6-.1.4.3.4.9.5,1.4.16.58.23,1.19.2,1.8-.2.4-.2,1.1-.7,1.3-.02.57-.08,1.14-.2,1.7-.1.3-.4.2-.7.3,0,.5-.1.9-.1,1.4.09.48.22.95.4,1.4.2,0,.4,0,.5.2.2.6.3,1.3.6,2,.1.3.2.5.3.8.2.1.5.1.6.3-.07.5-.36.95-.8,1.2h-.2c-.2-.1-.3-.2-.5-.3,0-.1-.1-.2-.1-.3-.32-.07-.6-.24-.8-.5-.61-.78-.99-1.72-1.1-2.7-.07-.87-.04-1.74.1-2.6,0-.2.2-.2.4-.3-.02-.51-.08-1.01-.2-1.5-.15-1.2-.15-2.4,0-3.6v-1.9c0-.16.08-.3.2-.4-.07-.12-.1-.26-.1-.4h0Z" fill="#3b53b5" stroke-width="0"/><path d="m92.28,66.29c-.18-.51-.22-1.07-.1-1.6.18.49.31.99.4,1.5-.11-.01-.22.02-.3.1Z" fill="#fff" stroke-width="0"/><path d="m61.38,8.59c.93-.15,1.87-.15,2.8,0,1.07.15,2.09.53,3,1.1.3.2.5.4.8.6.63-.34,1.3-.57,2-.7.76-.08,1.53-.12,2.3-.1,1.03,0,2.05.21,3,.6,1.82.61,3.49,1.6,4.9,2.9.96.86,1.77,1.88,2.4,3,1.08,1.83,1.73,3.88,1.9,6,.3,1.5.3,3,.6,4.4.36,1.1.86,2.14,1.5,3.1,1,1.5,2.4,2.7,3.3,4.2,1.14,1.7,1.96,3.6,2.4,5.6.55,1.95.65,4,.3,6-.3,1.18-.3,2.42,0,3.6.38.89.92,1.71,1.6,2.4.82.94,1.46,2.03,1.9,3.2.48,1.59.52,3.29.1,4.9-.16.86-.43,1.7-.8,2.5-.1.2-.5.1-.5-.1-.01-.34.02-.67.1-1l-.3.3v-.7c-.5,1.16-.91,2.37-1.2,3.6.1,0,.2-.1.3-.1-.1.3-.1.5-.2.8.1.1.2.1.4.2,0,.3-.1.5-.1.8.1.1.2.2.2.3-.1-.3.2-.8.6-.5.13.6.37,1.18.7,1.7.2.5.7.8.9,1.2.1,0,.2-.1.3-.1.01.14-.02.28-.1.4-.2.07-.43.03-.6-.1-.1.2,0,.4-.3.5h-.3c.1.2.1.6-.2.5-.82-.43-1.4-1.2-1.6-2.1-.5-1.41-.6-2.93-.3-4.4.56-1.43.84-2.96.8-4.5-.02-.79-.35-1.54-.9-2.1.08-.12.11-.26.1-.4-.24.02-.48-.01-.7-.1.1,1.26.1,2.54,0,3.8-.09.83-.33,1.65-.7,2.4-.21.35-.38.72-.5,1.1-.12.63-.08,1.28.1,1.9.16.83.43,1.64.8,2.4.31.45.64.89,1,1.3.3.6.9.9,1.3,1.5.46.54.9,1.11,1.3,1.7.34.63.57,1.3.7,2,.45,1.33.75,2.7.9,4.1.2,1.7.2,3.4.5,5.1.5,3.2,1,6.5,1.3,9.7.27,1.42.34,2.86.2,4.3-.88,4.98-4.02,9.26-8.5,11.6-.67.32-1.37.56-2.1.7-.64.09-1.28.22-1.9.4-.6.13-1.18.37-1.7.7.19-2.11,1.11-4.09,2.6-5.6.9-1,2.2-1.8,2.8-3.1.35-.94.35-1.96,0-2.9-.34-.96-.82-1.87-1.4-2.7-.6-.94-.98-2-1.1-3.1-.1-1.4-.1-2.8,0-4.2.21-.92.28-1.86.2-2.8-.1-.5-.1-1-.2-1.5-.49-1.11-1.34-2.02-2.4-2.6-.91-.5-1.89-.87-2.9-1.1-.86-.21-1.7-.51-2.5-.9-.83-.75-1.42-1.72-1.7-2.8-.6-1.6,0-3.5-.7-5.1-.28-.92-.8-1.75-1.5-2.4-.54-.37-1.11-.7-1.7-1,0-.3.1-.6-.2-.7s-.5.1-.7.2c-1.1-.64-2.28-1.15-3.5-1.5-.36-.11-.73-.18-1.1-.2-2.26.11-4.52-.12-6.7-.7-.85-.22-1.68-.49-2.5-.8-.9-.4-1.8-.7-2.6-1.1s-1.3-.7-2-1c-1.2-.4-2.4-.9-3.6-1.3-1.18-.49-2.38-.93-3.6-1.3-.9-.2-2-.1-2.7-.9.67-.13,1.29-.45,1.8-.9.6-.5,1.3-.8,1.9-1.3.2.1.3.2.5.2s.3-.5.5-.8c.26-.46.64-.84,1.1-1.1.26-.2.43-.48.5-.8.2-.3.5-.5.6-.8.37-1.24.64-2.51.8-3.8.43-1.18.57-2.45.4-3.7-.09-.57-.3-1.11-.6-1.6-.3-1.1-.7-2.2-1-3.4s-.5-2.2-.8-3.3c-.05-.73-.05-1.47,0-2.2.2-1.2.2-2.4.4-3.7s.5-2.5.8-3.7c.16-.96.43-1.9.8-2.8.44-.92.97-1.79,1.6-2.6.2-.2.2-.5.3-.7-.05-.05-.12-.09-.2-.1-.55.52-1.05,1.09-1.5,1.7-.57.79-1.01,1.67-1.3,2.6-.72,1.95-1.29,3.96-1.7,6-.2,1.1-.5,2.2-.6,3.3-.43.76-.64,1.63-.6,2.5-.12,1.47-.08,2.94.1,4.4.37,2.34.23,4.72-.4,7-.33,1.11-.76,2.18-1.3,3.2-1.03,1.63-2.58,2.87-4.4,3.5-2.11.52-4.18,1.18-6.2,2-1.55.71-2.99,1.62-4.3,2.7-1,.8-2,1.7-3.1,2.5-.4.3-.8.5-1.2.8-.2.1-.4.3-.6.3-.85-.03-1.67-.27-2.4-.7-.6-.4-.8-1.2-1.1-1.8.11-.55.27-1.09.5-1.6.1-.1.2-.1.3.1.05.44.15.88.3,1.3.35.78,1.06,1.34,1.9,1.5.74.08,1.47-.18,2-.7.54-.48.98-1.05,1.3-1.7.64-1.49,1.05-3.08,1.2-4.7.1-1.06.1-2.14,0-3.2,0-1.3-.2-2.6-.3-3.9-.12-1.28.02-2.57.4-3.8.59-1.23,1.29-2.4,2.1-3.5,1.2-1.9,1.9-4.1,3-6.1.41-.67.88-1.31,1.4-1.9.82-1.02,1.8-1.9,2.9-2.6,1.67-1.04,3.05-2.48,4-4.2.49-.97.93-1.97,1.3-3,.7-1.9.9-3.9,1.5-5.9.16-.91.53-1.77,1.1-2.5.74-.8,1.58-1.51,2.5-2.1.9-.5,1.9-.8,2.8-1.3.84-.62,1.61-1.32,2.3-2.1.72-.61,1.53-1.12,2.4-1.5.72-.24,1.45-.4,2.2-.5h0Z" fill="#6366f1" stroke-width="0"/><path d="m54.68,22.09c.05.05.12.09.2.1-.08.24-.18.47-.3.7-.59.83-1.13,1.7-1.6,2.6-.36.9-.63,1.84-.8,2.8-.3,1.2-.6,2.5-.8,3.7s-.3,2.4-.4,3.7c-.05.73-.05,1.47,0,2.2.3,1.1.5,2.2.8,3.3s.7,2.2,1,3.4c.26.51.46,1.05.6,1.6.17,1.25.03,2.52-.4,3.7-.16,1.29-.43,2.56-.8,3.8-.1.3-.4.5-.6.8-.14.28-.31.55-.5.8-.46.26-.84.64-1.1,1.1-.2.3-.2.6-.5.8-.2-.1-.3-.2-.5-.2-.6.5-1.3.8-1.9,1.3-.52.44-1.14.74-1.8.9-.1,0-.2,0-.2.1-.1-.2-.1-.5-.3-.6h-.7c-1.1.2-2.1.5-3.2.6-.5.1-1,.1-1.4.2s-.1.6-.1.8c-1.1.4-2.2.8-3.2,1.2-.3.2-.7-.1-1,0-1,.6-2,1.2-3.1,1.9-1.4.9-2.9,1.8-4.2,2.8-.7.6-1.4,1.1-2.1,1.8.1.2.5.5.4.8s-.7,0-1,0c-.6.1-.9.6-1.2,1-.47-.61-.9-1.24-1.3-1.9-.21-.31-.37-.65-.5-1-.5-1.63-.5-3.37,0-5,.17-.68.52-1.3,1-1.8.1.5-.3,1-.3,1.5-.16,1.05-.03,2.13.4,3.1.52,1.17,1.27,2.22,2.2,3.1.5-.5.9-1,1.4-1.5-1-.38-1.85-1.08-2.4-2-.1-.2-.1-.4-.2-.6v-1.2c.3.6.5,1.4,1.1,1.8.73.43,1.55.67,2.4.7.23-.01.45-.12.6-.3.4-.3.8-.5,1.2-.8,1.1-.8,2.1-1.7,3.1-2.5,1.3-1.08,2.74-1.99,4.27-2.7,2.02-.82,4.09-1.48,6.2-2,1.84-.6,3.41-1.84,4.4-3.5.58-1,1.01-2.08,1.3-3.2.63-2.28.77-4.66.4-7-.13-1.46-.17-2.93-.1-4.4.05-.94.15-1.87.3-2.8.1-1.1.4-2.2.6-3.3.41-2.04.98-4.05,1.7-6,.29-.93.73-1.81,1.3-2.6.49-.64,1.04-1.25,1.63-1.8Z" fill="#4c4c9e" stroke-width="0"/><path d="m43.95,58.69c.2,0,.5-.1.7,0s.2.4.3.6c.1,0,.2,0,.2-.1.7.7,1.8.6,2.7.9,1.24.33,2.44.76,3.6,1.3,1.2.4,2.4.9,3.6,1.3.7.25,1.38.59,2,1,.9.4,1.8.7,2.6,1.1.81.33,1.65.59,2.5.8,2.18.58,4.44.82,6.7.7.37,0,.75.08,1.1.2,1.14.63,2.3,1.19,3.5,1.7-.13.51-.06,1.05.2,1.5.15.59.25,1.19.3,1.8.1.6.7,1.1,1,1.6.69.93,1.33,1.9,1.9,2.9.24.52.44,1.05.6,1.6.39,1.75,1.38,3.31,2.8,4.4.83.48,1.6,1.05,2.3,1.7,1.04.99,1.74,2.29,2,3.7.2,1.47.1,2.97-.3,4.4-.3.8-.4,1.65-.3,2.5.12.78.47,1.51,1,2.1.83,1.2,1.18,2.66,1,4.1-.06,1.04-.34,2.06-.8,3-.41.67-.88,1.31-1.4,1.9-1.46,1.44-3.3,2.44-5.3,2.9-1.1.3-2.2.3-3.3.5-1.43.18-2.84.51-4.2,1-.2.1-.5.2-.6.4-.4.35-.49.95-.2,1.4.4.59.91,1.1,1.5,1.5.43.25.81.59,1.1,1,.2.5.3,1,.5,1.5.33.5.78.91,1.3,1.2.68.21,1.28.63,1.7,1.2.4.6.3,1.4.8,2,.55.58,1.19,1.05,1.9,1.4.47.24.91.54,1.3.9-2.95,1.22-5.99,2.19-9.1,2.9-.94.3-1.92.5-2.9.6-1.7.3-3.4.5-5.2.7-2.12.25-4.26.35-6.4.3-3.07-.01-6.12-.38-9.1-1.1-2.21-.51-4.38-1.18-6.5-2,.3-.4.5-.8.8-1.2.54-.61,1.18-1.11,1.9-1.5.5-.2.4-.8.4-1.2,0-.7-.6-1.2-.7-1.9.12-.4.41-.73.8-.9.47-.16.8-.6.8-1.1.1-.5-.3-.9-.5-1.4.03-.84.39-1.62,1-2.2.38-.32.72-.69,1-1.1.6-.59.61-1.55.03-2.15-.15-.15-.33-.27-.53-.35-1-.3-2-.5-2.9-.8-1.07-.3-2.11-.7-3.1-1.2-1.37-.75-2.68-1.62-3.9-2.6-1.03-.88-1.94-1.89-2.7-3-.49-.66-.93-1.36-1.3-2.1-.98-1.95-1.62-4.04-1.9-6.2-.1-1.1,0-2.1-.1-3.2-.08-.31-.3-.57-.6-.7h-.6c1-3.7,3-6.9,4.9-10.2,1.12-2.08,2.12-4.21,3-6.4.71-2.04,1.18-4.15,1.4-6.3.75-1.74,1.16-3.61,1.2-5.5,0-.3-.2-.6.1-.8.45-.17.92-.24,1.4-.2.98-.33,1.99-.59,3-.8h0Z" fill="#4f46e5" stroke-width="0"/><path d="m23.18,60.09c.14-.01.28.02.4.1-.05.57-.05,1.13,0,1.7.08.65.32,1.27.7,1.8.02.21.09.42.2.6.55.92,1.4,1.62,2.4,2-.5.5-.9,1-1.4,1.5-.93-.88-1.68-1.93-2.2-3.1-.43-.97-.57-2.05-.4-3.1,0-.6.4-1,.3-1.5Z" fill="#5b75c9" stroke-width="0"/><path d="m50.08,60.09c2.3.3,4.5.8,6.7,1.2,2.4.41,4.77.98,7.1,1.7,1.92.59,3.76,1.4,5.5,2.4-.4,0-.8.1-1.2.1-1-.5-1.9-1.2-2.9-1.7-.87-.39-1.77-.69-2.7-.9-2.7-.5-5.4-.8-8.1-1.2-.5-.1-1-.4-1.6-.5-.8-.4-1.8-.7-2.8-1.1h0Z" fill="#fff" stroke-width="0"/><path d="m36.18,61.49c1-.45,2.04-.82,3.1-1.1-.1,1.89-.51,3.74-1.2,5.5-.71,1.86-1.88,3.52-3.4,4.8-.79.66-1.71,1.14-2.7,1.4-1.5.4-3.2.7-4.6-.1-1.26-.58-2.42-1.35-3.43-2.3.4-.4.6-.9,1.2-1,.3,0,.8.4,1,0s-.2-.5-.4-.8l2.1-1.8c1.34-1.02,2.74-1.96,4.2-2.8,1-.66,2.03-1.26,3.1-1.8.43-.1.73.2,1.03,0h0Z" fill="#afa079" stroke-width="0"/><path d="m54.58,61.69c2.7.4,5.4.7,8.1,1.2.93.19,1.84.5,2.7.9,1,.5,1.9,1.2,2.9,1.7-1.89.1-3.78-.1-5.6-.6-.93-.21-1.83-.51-2.7-.9-.9-.4-1.8-.7-2.6-1.1-.65-.43-1.36-.77-2.1-1-.25,0-.49-.07-.7-.2Z" fill="#fcc14b" stroke-width="0"/><path d="m69.95,66.39c1.22.35,2.4.86,3.5,1.5.29.13.56.3.8.5-.3-.1-.5-.2-.8-.3-1.17-.5-2.27-1.1-3.5-1.7Z" fill="#fff" stroke-width="0"/><path d="m73.48,67.89c.2-.1.4-.4.7-.2s.2.5.2.7c.6.27,1.17.61,1.7,1,.7.65,1.22,1.48,1.5,2.4.7,1.6,0,3.5.7,5.1.3,1.06.88,2.03,1.67,2.8.8.39,1.64.69,2.5.9,1.02.2,2,.57,2.9,1.1,1.04.61,1.88,1.51,2.4,2.6.1.5.1,1,.2,1.5-.01.94-.08,1.87-.2,2.8-.15,1.4-.15,2.8,0,4.2.12,1.1.5,2.16,1.1,3.1.56.85,1.03,1.75,1.4,2.7.4.93.4,1.97,0,2.9-.6,1.3-1.9,2.1-2.8,3.1-1.51,1.5-2.43,3.48-2.6,5.6-.15.73-.25,1.46-.3,2.2l.3,3.9c.05.5.05,1,0,1.5.02.21-.02.41-.1.6-.56.92-1.35,1.68-2.3,2.2-.8.49-1.64.93-2.5,1.3-.39-.36-.83-.66-1.3-.9-.71-.35-1.35-.82-1.9-1.4-.5-.5-.4-1.3-.8-2s-1.1-.9-1.7-1.2c-.58-.2-1.05-.63-1.3-1.2-.21-.48-.38-.99-.5-1.5-.32-.38-.69-.72-1.1-1-.62-.37-1.13-.88-1.5-1.5-.29-.45-.21-1.05.2-1.4.18-.17.38-.3.6-.4,1.36-.47,2.77-.81,4.2-1,1.1-.2,2.2-.2,3.3-.5,1.99-.5,3.81-1.5,5.3-2.9.61-.52,1.08-1.17,1.4-1.9.46-.94.74-1.96.8-3,.18-1.44-.17-2.9-1-4.1-.53-.59-.88-1.32-1-2.1-.1-.85,0-1.7.3-2.5.4-1.43.5-2.93.3-4.4-.26-1.41-.96-2.71-2-3.7-.72-.62-1.49-1.19-2.3-1.7-1.42-1.09-2.41-2.65-2.8-4.4-.16-.55-.36-1.08-.6-1.6-.57-1-1.21-1.97-1.9-2.9-.46-.44-.8-.99-1-1.6-.05-.61-.15-1.21-.3-1.8-.16-.48-.23-.99-.2-1.5.3.1.5.2.8.3,0,.1-.17,0-.47-.2h0Zm-44.7,20.9h.6c.3.13.52.39.6.7.2,1.1,0,2.1.1,3.2.22,2.17.87,4.28,1.9,6.2.4.72.83,1.42,1.3,2.1.79,1.09,1.69,2.1,2.7,3,1.24.96,2.54,1.83,3.9,2.6,1,.49,2.03.89,3.1,1.2,1,.3,2,.5,2.9.8.78.32,1.16,1.21.84,2-.08.19-.19.36-.34.5-.36.34-.69.71-1,1.1-.61.58-.97,1.36-1,2.2.2.5.6.9.5,1.4-.04.49-.35.91-.8,1.1-.39.17-.68.5-.8.9.1.7.6,1.2.7,1.9,0,.4,0,1-.4,1.2-.72.39-1.36.89-1.9,1.5-.3.4-.5.8-.8,1.2-.44-.18-.88-.38-1.3-.6-.92-.33-1.81-.77-2.63-1.3-1.14-.68-2.24-1.41-3.3-2.2-.33-1.92-.57-3.86-.7-5.8-.11-1.91-.48-3.79-1.1-5.6-.4-1.5-1.2-2.8-1.6-4.3-.4-1.1-.7-2.3-1-3.4-.2-1.3-.7-2.5-.9-3.7-.3-1.38-.4-2.79-.3-4.2.23-1.3.53-2.5.73-3.7h0Z" fill="#1e40af" stroke-width="0"/><path d="m84.28,116.19c.1,0,.2.1.1.2s-.2-.1-.1-.2Z" fill="#afa079" stroke-width="0"/><path d="m84.95,118.59c-.02-.21.02-.41.1-.6.5.6,1.1,1,1.6,1.6.8.9,1.6,1.7,2.4,2.6.6.6,1,1.4,1.6,2,1.38,1.59,2.61,3.3,3.7,5.1.7,1.5,1.6,3,2.3,4.6-.47-.24-.91-.54-1.3-.9-1.44-1.09-2.94-2.09-4.5-3-2.96-1.6-5.75-3.51-8.3-5.7-.7-.6-1.2-1.3-1.9-1.8-2.15.95-4.36,1.79-6.6,2.5-.9.3-1.9.6-2.8.8-1.3.3-2.6.4-3.8.6s-2.5.4-3.7.5c-2.62.35-5.26.55-7.9.6-.97.02-1.94-.02-2.9-.1-2.67-.26-5.31-.73-7.9-1.4-1.57-.46-3.11-1.03-4.6-1.7-.58.52-1.12,1.09-1.6,1.7-.5.4-.5,1.1-.9,1.6-.6.7-1.31,1.31-2.1,1.8-.47.35-.82.84-1,1.4-.13.7-.36,1.37-.7,2-.8,1.2-2.1,1.9-3,3-.4.6-.6,1.4-1,2-.5.9-1.6,1.2-2.1,2-.24.45-.44.92-.6,1.4-.37.56-.77,1.09-1.2,1.6l-.9,1.5c-.43.72-.77,1.49-1,2.3-.75,2.12-1.35,4.29-1.8,6.5-.47,2.74-.64,5.52-.5,8.3.1,2.6.4,5.2.6,7.8.1,1.46.1,2.94,0,4.4-.15,2.17-.55,4.32-1.2,6.4-.6,1.8-1.4,3.6-2.2,5.4-1.11,2.13-2.08,4.34-2.9,6.6-.53,1.48-.87,3.03-1,4.6-.1-.2-.1-.3-.2-.5.05.47.05.93,0,1.4-.1.29-.1.61,0,.9.1.53.1,1.07,0,1.6-.04.2-.14.37-.3.5-.1-1.4-.2-2.8-.3-4.1v-8.2c.03-1.97.17-3.94.4-5.9-.02.21.02.41.1.6.18-.69.32-1.39.4-2.1.1-.6.4-1.1.5-1.7.13-.96.36-1.9.7-2.8.1-.4-.1-.7,0-1.1.4-1.7.9-3.5,1.3-5.2.08-.29.12-.6.1-.9.09-.54.22-1.08.4-1.6.14-1.32.37-2.62.7-3.9.7-2.6.4-5.3.6-7.9.1-1.2.2-2.5.3-3.7.13-2.66.46-5.3,1-7.9.2-.9.6-1.8.9-2.7.46-1.34,1.03-2.65,1.7-3.9.8-1.6,1.6-3.2,2.4-4.9,1.1-2,2.3-3.8,3.5-5.8.5-.9,1-1.8,1.5-2.6.8-1.2,1.6-2.4,2.5-3.5.2-.3.5-.6.4-.9.9,1,2.2,1.4,3.3,2.2.81.53,1.69.97,2.6,1.3.4.26.84.46,1.3.6,2.1.8,4.3,1.4,6.5,2,2.99.67,6.04,1.04,9.1,1.1,2.14.1,4.28,0,6.4-.3,1.7-.2,3.5-.4,5.2-.7.99-.09,1.96-.29,2.9-.6,3.1-.76,6.14-1.72,9.1-2.9.86-.37,1.7-.81,2.5-1.3.78-.8,1.49-1.67,2.1-2.6h0Z" fill="#1e40af" stroke-width="0"/><path d="m65.78,15.49c.2-.2.3-.5.5-.6.1.3.3.5.3.8-.3,1.23-.09,2.53.6,3.6.37.76.84,1.46,1.4,2.1.6.7,1.2,1.5,1.9,2.2.68.77,1.16,1.7,1.4,2.7.3,1-.2,2-.3,3.1,0,1.22.21,2.44.6,3.6.25.98.25,2.02,0,3-.09.54-.22,1.08-.4,1.6-.17.78-.41,1.55-.7,2.3-.56,1.1-.93,2.28-1.1,3.5,0,.6.1,1.2.1,1.9,0,1.03-.2,2.05-.6,3-.6,1.6-1.6,3-1.8,4.7-.1.8-.2,1.5-.3,2.3-.07.85.07,1.71.4,2.5.34.89.85,1.7,1.5,2.4.79.82,1.52,1.69,2.2,2.6.51.67.86,1.46,1,2.3.5,1.8.3,3.7,1.1,5.3.2.4.3.9.7,1-1.2.4-2.2,1.1-3.4,1.4-1.34.46-2.71.83-4.1,1.1-1.25.28-2.52.42-3.8.4-1.4,0-2.7,0-4.1-.1s-2.6-.1-3.8-.3-2.4-.7-3.6-1c-1.51-.56-2.85-1.48-3.9-2.7-.4-.6-.8-1.2-1.2-1.9-.37-.8-.64-1.64-.8-2.5-.22-.96-.39-1.92-.5-2.9-.13-1.16-.17-2.33-.1-3.5.83.12,1.68.08,2.5-.1.65-.07,1.29-.24,1.9-.5,1.24-.68,2.38-1.52,3.4-2.5.78-.81,1.45-1.72,2-2.7.61-1,1.08-2.08,1.4-3.2.07-.39.21-.76.4-1.1.7-.7,1.8-.2,2.7-.4-.54-.46-1.15-.83-1.8-1.1-1.08-.74-2.11-1.55-3.1-2.4-.46-.41-.89-.84-1.3-1.3-.3-.3-.4-.7-.7-.8-.4-.93-.71-1.9-.9-2.9-.38-1.98-.42-4.01-.1-6,.3-2,.4-4.1.8-6.1.19-1.17.53-2.31,1-3.4.4-.4.7-1,1.1-1.5,1.36-1.54,2.99-2.82,4.8-3.8.82-.5,1.69-.9,2.6-1.2.82-.3,1.59-.7,2.3-1.2.36-.2.65-.52.8-.9.4-.17.75-.45,1-.8Z" fill="#f4a187" stroke-width="0"/><path d="m67.18,19.39c-.69-1.07-.9-2.37-.6-3.6.14.52.34,1.03.6,1.5.3.56.63,1.09,1,1.6.4.5.9.8,1.3,1.3.22.28.49.52.8.7.9.6,1.7,1.2,2.6,1.8.64.59,1.15,1.3,1.5,2.1.22.72.39,1.45.5,2.2-.07,1.73-.03,3.47.1,5.2.22,1.12.29,2.26.2,3.4-.08.74-.32,1.46-.7,2.1-.8,1.2-1.8,2.3-2.6,3.6-.43.78-.73,1.62-.9,2.5-.3,1.3.1,2.8-.5,4s-1.4,2-1.9,3.2c-.51,1.09-.69,2.31-.5,3.5.21.9.66,1.73,1.3,2.4.45.42.91.83,1.4,1.2.82.72,1.69,1.39,2.6,2,.4.4,1,.8,1.2,1.3.65,1.55.96,3.22.9,4.9.04.96.25,1.91.6,2.8.2.5.5.9.7,1.3-.8.4-1.6.9-2.4,1.3-.5-.1-.6-.7-.7-1-.8-1.7-.6-3.6-1.1-5.3-.21-.81-.55-1.59-1-2.3-.8-.9-1.5-1.7-2.2-2.6-.65-.7-1.16-1.51-1.5-2.4-.33-.79-.46-1.65-.4-2.5.1-.8.2-1.5.3-2.3.43-1.63,1.04-3.2,1.8-4.7.39-.95.59-1.97.6-3-.09-.63-.12-1.26-.1-1.9.15-1.22.53-2.41,1.1-3.5.34-.73.57-1.5.7-2.3.18-.52.31-1.06.4-1.6.25-.98.25-2.02,0-3-.35-1.17-.55-2.38-.6-3.6.1-1,.6-2,.3-3.1-.2-1.02-.68-1.95-1.4-2.7-.7-.7-1.2-1.5-1.9-2.2-.58-.71-1.08-1.48-1.5-2.3h0Zm-9.6-.2c2.3-1.1,4.9-1.5,7.1-2.7-.18.36-.46.67-.8.9-.69.54-1.47.94-2.3,1.2-.91.3-1.78.7-2.6,1.2-1.83.95-3.46,2.24-4.8,3.8-.4.4-.7,1-1.1,1.5.43-1.08.97-2.12,1.6-3.1.7-1.17,1.7-2.14,2.9-2.8h0Zm1.5,14c.4-.1.6.3.9.5s.7-.3,1,0c.1.4-.2.6-.4.9s-.4.7-.7.8-.4.2-.5,0c-.25-.53-.36-1.12-.3-1.7-.13-.2-.2-.4,0-.5Zm-6.9,10.2c.26.24.5.51.7.8.36.51.79.94,1.3,1.3.99.85,2.02,1.66,3.1,2.4.65.27,1.26.64,1.8,1.1-.9.2-1.9-.2-2.7.4-.18.35-.31.72-.4,1.1-.32,1.12-.79,2.2-1.4,3.2-1.24,2.24-3.12,4.05-5.4,5.2-.6.27-1.24.44-1.9.5-.82.18-1.67.22-2.5.1.1-.2,0-.6.3-.7.51-.13.99-.37,1.4-.7,1.08-.58,2.08-1.29,3-2.1.94-.86,1.71-1.87,2.3-3,.48-1.14.75-2.36.8-3.6.1-1.1.1-2.2.1-3.3.02-.47-.01-.94-.1-1.4.1-.3-.2-.7-.4-1.3h0Z" fill="#d3826c" stroke-width="0"/><path d="m92.38,54.89c.4,0,.7-.3,1.1-.3,1.53-.01,3.05.22,4.5.7.65.21,1.24.59,1.7,1.1.6.7,1.3,1.2,1.9,1.9s.9,1.2,1.4,1.8c.59.63,1.09,1.34,1.5,2.1.22,1.09.18,2.22-.1,3.3-.3,1.2-.5,2.4-.9,3.6-.3,1.07-.7,2.11-1.2,3.1-.6,1.61-1.3,3.18-2.1,4.7-.2.5-.6,1-.4,1.5.5,1.5,1.2,3,1.7,4.6.49,1.01.93,2.04,1.3,3.1.2.9.7,1.8,1,2.7.3,1.1.8,2.1,1.1,3.3.28.79.51,1.59.7,2.4.3,1.3.6,2.6.8,3.9.42,2.98.48,6,.2,9-.27,1.98-.73,3.92-1.4,5.8-.4,1.3-1.1,2.5-1.6,3.8-.57,1.07-1.21,2.1-1.9,3.1-.5.6-.9,1.2-1.4,1.8-.52.7-1.26,1.19-2.1,1.4-.86.09-1.74-.09-2.5-.5-.9-.5-1.7-1-2.5-1.5-.68-.44-1.31-.95-1.9-1.5-.1-.5-.4-.9-.5-1.4-.79-1.82-1.33-3.74-1.6-5.7,0-1.2.2-2.5.3-3.7.03-.4.17-.78.4-1.1.56-.46,1.16-.86,1.8-1.2,1.52-.99,2.79-2.33,3.7-3.9.56-1.15,1-2.36,1.3-3.6.22-.85.28-1.73.2-2.6,0-.37.08-.75.2-1.1.1-1.44,0-2.89-.3-4.3-.57-2.08-1.27-4.12-2.1-6.1-.04-.51.03-1.02.2-1.5.72-1.44,1.19-3,1.4-4.6.19-1.44.08-2.91-.33-4.3-.18-.44-.38-.88-.6-1.3-.2-1.02-.57-2-1.1-2.9.71-.71,1.52-1.31,2.4-1.8.7-.4,1.6-.5,2.1-1.1-.4-.3-.9-.6-1.3-.9-.17-.2-.38-.36-.6-.5-.2,0-.4.1-.6.1-1.1.1-2.2,0-3.3,0-.58.4-1.22.7-1.9.9-.3,0-.6,0-.7-.3-.07-.5-.03-1.01.1-1.5-.3-.1-.3-.4-.3-.6-.08-.01-.15-.05-.2-.1,0-.2-.2-.4,0-.6.74-1.37,1.72-2.59,2.9-3.6.42-.4.89-.73,1.4-1,1.17-.35,2.38-.55,3.6-.6-.53-.61-1.13-1.15-1.8-1.6-1.1-.3-2.5-.2-3.6-.6-.41-.14-.71-.48-.8-.9-.05-.44.27-.85.71-.9,0,0,.01,0,.02,0h0Zm-53.2,5c.1-.1.3,0,.4,0-.05.47-.05.93,0,1.4-.12.83-.18,1.66-.2,2.5-.1,1.5-.2,3.1-.3,4.6-.4,2.5-.7,4.9-1.2,7.4-.13.39-.17.8-.1,1.2v.1c-.51.43-.95.94-1.3,1.5-1.15,1.33-2.22,2.73-3.2,4.2-.59.93-1.13,1.9-1.6,2.9h-.1c-.72.9-1.36,1.87-1.9,2.9-1.2,2.2-2.4,4.3-3.4,6.6-1.75,4.77-2.56,9.83-2.4,14.9v1.2c0,.3.3.3.5.5-.7,1.7-1.5,3.3-2.2,5-.56,1.25-.97,2.56-1.23,3.9-.18,1.59-.22,3.2-.1,4.8.2,1.4.2,2.8.3,4.1.1,1.5.1,3,.2,4.5v3.8c0,1.6-.2,3.2-.2,4.8-.2,2.2-.6,4.4-1,6.6v-.4c-.77,1.93-1.44,3.9-2,5.9-.44,1.47-.74,2.97-.9,4.5-.08.77-.22,1.54-.4,2.3-.92,2.92-.78,6.07.4,8.9.3,1,.3,2.1.6,3.1-.33,1.8-.79,3.57-1.4,5.3-.34,1.01-.57,2.05-.7,3.1-.11.81-.39,1.59-.8,2.3-.25.4-.77.52-1.17.28-.15-.09-.26-.22-.33-.38-.08-.46-.12-.93-.1-1.4,0-1.5,0-3.1-.1-4.6-.2.9-.4,1.9-.7,2.9-.4,1.19-.5,2.46-.3,3.7.3,1.16.77,2.28,1.4,3.3.23.47.26,1.01.1,1.5.02.3-.2.57-.5.6-.87-.01-1.7-.37-2.3-1-.02.34-.09.68-.2,1-.1.27-.39.41-.66.31-.01,0-.02,0-.04-.01-.4-.2-.5-.7-.6-1.1-.38-.96-.65-1.97-.8-3-.37-2.99-.43-6-.2-9,0-2.4.9-4.8.5-7.2-.7-1.7-1.4-3.5-2-5.2-.4-1.2-.7-2.4-1-3.6s-.5-2.5-.7-3.8-.4-2.6-.5-3.8-.3-2.6-.4-3.8c-.1-1.7-.2-3.4-.3-5.2,0-2.8.1-5.6.2-8.4.1-1.8.3-3.5.4-5.3.2-.1.6-.1.6-.4.2-1.2.3-2.3.5-3.5.16-.58.36-1.15.6-1.7.31-.99.67-1.96,1.1-2.9.48-.91.82-1.89,1-2.9-.04-.75-.18-1.49-.4-2.2-.3-1.7-.7-3.3-1-4.9-.23-1.05-.27-2.14-.1-3.2-.13-.25-.19-.52-.2-.8-.1-1.8-.1-3.6,0-5.4v-1c.94-3.69,2.07-7.33,3.4-10.9.4-1,.8-2.1,1.2-3.1.7-1.6,1.6-3.2,2.4-4.7.5-1,1-1.9,1.5-2.9s1.3-2,2-3.1c.5-.8,1.1-1.5,1.6-2.3l1.8-2.4c.71-.88,1.48-1.72,2.3-2.5.6-.6,1.1-1.3,1.7-1.8.8-.8,1.8-1.4,2.6-2.2,1.4-1.09,2.87-2.09,4.4-3,1.69-1.01,3.47-1.88,5.3-2.6.83-.4,1.53-.5,2.23-.8Z" fill="#f4a187" stroke-width="0"/><path d="m39.48,63.79c.02-.84.08-1.67.2-2.5.28,1.62.32,3.27.1,4.9-.1,2-.1,4-.3,5.9-.16,1.36-.46,2.7-.9,4-.18.31-.42.58-.7.8-.1-.4.1-.8.1-1.2.5-2.4.8-4.9,1.2-7.4.1-1.4.2-3,.3-4.5h0Z" fill="#d3826c" stroke-width="0"/><path d="m96.28,66.09c.2,0,.4-.1.6-.1s.4.4.6.5c.41.33.84.63,1.3.9-.5.6-1.4.7-2.1,1.1-.9.45-1.71,1.06-2.4,1.8-.1-.1-.2-.3-.3-.4.85-1.29,1.79-2.53,2.8-3.7-.15-.08-.33-.12-.5-.1Zm-.9,7.1c.2.4.4.8.6,1.3.4,1.4.5,2.86.3,4.3-.22,1.6-.69,3.15-1.4,4.6-.16.48-.23.99-.2,1.5-.56-1.32-.74-2.78-.5-4.2.2-1.3.6-2.6.9-3.8.24-1.22.35-2.46.3-3.7h0Zm-63.8,12.4h.1c-.52,1.27-.96,2.57-1.3,3.9-.48,1.62-.71,3.31-.7,5-.02.93.02,1.87.1,2.8.05.87.05,1.73,0,2.6-.2.6-.5,1.1-.7,1.6-.6,1.1-.9,2.4-1.6,3.5-1.1,2.2-2.1,4.5-3.2,6.7-.2-.1-.5-.2-.5-.5-.05-.4-.05-.8,0-1.2-.16-5.07.66-10.13,2.4-14.9.99-2.27,2.13-4.47,3.4-6.6.7-.9,1.2-2,2-2.9Zm62.3,17c1.49-1.79,2.52-3.92,3-6.2.09.87.02,1.75-.2,2.6-.33,1.24-.76,2.44-1.3,3.6-.91,1.57-2.18,2.91-3.7,3.9-.64.34-1.24.74-1.8,1.2-.23.32-.37.7-.4,1.1-.2,1.22-.3,2.46-.3,3.7.23,1.97.77,3.9,1.6,5.7.25.43.42.91.5,1.4-1.51-1.32-2.79-2.87-3.8-4.6-.94-1.53-1.74-3.13-2.4-4.8.56-.82,1.23-1.57,2-2.2.69-.65,1.42-1.26,2.2-1.8.9-.6,1.7-1.2,2.6-1.8.5-.5,1.3-1.1,2-1.8h0Zm-87-.6v1c-.15,1.8-.15,3.6,0,5.4.02.28.09.55.2.8-.12,1.07-.08,2.14.1,3.2.3,1.7.7,3.3,1,4.9.19.72.32,1.46.4,2.2-.14,1.02-.48,2.01-1,2.9-.5.9-.7,2-1.1,2.9-.24.55-.44,1.12-.6,1.7-.2,1.2-.3,2.3-.5,3.5,0,.3-.4.3-.6.4.2-2.9.5-5.9.5-8.8,0-1.9-.1-3.9-.1-5.8v-4.3c.15-2.28.45-4.56.9-6.8.3-1,.5-2.1.8-3.2h0Zm11.3,52.8c.6-2,1.2-3.9,2-5.9v.4c-.2,1.3-.3,2.6-.5,3.9-.33,1.48-.56,2.99-.7,4.5-.3,2.4-.9,4.8-1.2,7.2-.05.7-.05,1.4,0,2.1.02.44.08.88.2,1.3.28,1.73.22,3.5-.2,5.2-.3-1-.3-2.1-.6-3.1-1.18-2.83-1.32-5.98-.4-8.9.19-.76.32-1.52.4-2.3.3-1.4.6-3,1-4.4Z" fill="#c4603d" stroke-width="0"/><path d="m62.28,9.29c1.1-.1,2.1,0,3.2,0v.2c-1.07-.03-2.14.03-3.2.2-1.91.29-3.67,1.2-5,2.6-.73.71-1.62,1.22-2.6,1.5-1.34.43-2.6,1.07-3.73,1.9-.46.37-.89.78-1.3,1.2,1.19-1.69,2.92-2.92,4.9-3.5.71-.23,1.39-.57,2-1,.46-.37.89-.78,1.3-1.2,1.26-1.05,2.8-1.71,4.43-1.9h0Z" fill="#3b53b5" stroke-width="0"/><path d="m61.78,10.89c1-.45,2.1-.65,3.2-.6.72-.07,1.45.07,2.1.4-.7.1-1.4-.1-2.1,0-1.04.03-2.06.27-3,.7-1.7.7-3.1,2-4.7,2.8-.84.43-1.71.79-2.6,1.1-1.96.62-3.65,1.89-4.8,3.6-.8,1.4-1.3,2.9-2.1,4.2.34-1.06.74-2.09,1.2-3.1.75-1.85,2.08-3.39,3.8-4.4,1.1-.6,2.3-.9,3.4-1.5,1.21-.53,2.35-1.2,3.4-2,.71-.44,1.44-.84,2.2-1.2h0Zm6.1-.5h.2c-.3.8-.6,1.5-.9,2.2-.2.5-.3,1.1-.5,1.6.42.94.92,1.84,1.5,2.7.99.97,2.1,1.81,3.3,2.5,1.24.94,2.36,2.06,3.3,3.3.82,1.32,1.27,2.84,1.3,4.4,0,1-.4,2-.1,3.1.3,1.7,1.1,3.3.8,5.1-.19.79-.53,1.54-1,2.2-.6,1-1.4,1.8-2,2.9-.48.91-.82,1.89-1,2.9-.05.7-.05,1.4,0,2.1-.04,1.45-.53,2.85-1.4,4-.56.65-1,1.39-1.3,2.2-.32,1.28.02,2.63.9,3.6,1.2,1.6,2.7,2.9,3.9,4.5.65.85,1.09,1.85,1.3,2.9.15.86.25,1.73.3,2.6.01.89.18,1.77.5,2.6.46.75,1.03,1.43,1.7,2,.9,1.18,1.4,2.62,1.4,4.1.1,1.1-.4,2.1,0,3.2.2.93.83,1.71,1.7,2.1.79.21,1.59.38,2.4.5.7.13,1.37.36,2,.7.69.42,1.3.97,1.8,1.6.71.86,1,2,.8,3.1-.09-.64-.22-1.28-.4-1.9-.2-.52-.51-1-.9-1.4-.57-.71-1.33-1.23-2.2-1.5-.69-.21-1.39-.38-2.1-.5-.75-.07-1.46-.3-2.1-.7-1.01-.82-1.51-2.12-1.3-3.4.17-1.1.13-2.22-.1-3.3-.2-.87-.58-1.68-1.1-2.4-.5-.6-1.1-1.1-1.5-1.7-.46-.86-.66-1.83-.6-2.8.06-1.94-.46-3.86-1.5-5.5-1.2-1.5-2.6-2.8-3.7-4.2-.85-.93-1.31-2.14-1.3-3.4.1-1.07.52-2.08,1.2-2.9,1.07-1.25,1.64-2.85,1.6-4.5-.16-2.31.56-4.59,2-6.4.68-.84,1.28-1.75,1.8-2.7.41-1.17.38-2.45-.1-3.6-.52-1.33-.69-2.78-.5-4.2.31-2.01-.2-4.06-1.4-5.7-1.28-1.65-2.84-3.07-4.6-4.2-.75-.48-1.36-1.13-1.8-1.9-.42-.73-.75-1.5-1-2.3-.09.32-.23.62-.4.9h-.2c.16-.58.36-1.15.6-1.7-.08-.98.16-1.97.7-2.8h0Z" fill="#3b53b5" stroke-width="0"/><path d="m69.88,10.59c.6-.05,1.2-.05,1.8,0,.67-.03,1.35.03,2,.2,1.79.4,3.44,1.26,4.8,2.5,1.22,1.15,2.24,2.5,3,4,.44.89.77,1.83,1,2.8.4,1.5.4,3.1.8,4.7.25,1.79.82,3.52,1.7,5.1,1,1.4,2.4,2.6,3.4,3.9.63.77,1.16,1.61,1.6,2.5.59,1.32.9,2.75.9,4.2,0,1.31-.1,2.61-.3,3.9-.16,1.97.33,3.94,1.4,5.6.8,1.2,1.7,2.2,2.4,3.4.23.32.37.7.4,1.1-.4-.1-.5-.6-.8-.9-.8-1.2-1.8-2.2-2.5-3.4-.51-.83-.88-1.75-1.1-2.7-.23-1.25-.27-2.54-.1-3.8.17-1.09.23-2.2.2-3.3-.03-1.45-.38-2.89-1-4.2-.59-1.21-1.41-2.29-2.4-3.2-.95-.93-1.82-1.93-2.6-3-.86-1.52-1.44-3.18-1.7-4.9-.24-1.85-.57-3.69-1-5.5-.31-1.24-.82-2.42-1.5-3.5-.75-1.03-1.59-2-2.5-2.9-.92-.76-1.97-1.33-3.1-1.7-.62-.23-1.25-.39-1.9-.5-.7-.1-1.5-.1-2.2-.2-.87.05-1.74.15-2.6.3.61-.25,1.25-.42,1.9-.5h0Zm-5.7,1.5c.77-.36,1.57-.62,2.4-.8.01.08.05.15.1.2-.73.18-1.44.45-2.1.8-.99.43-1.92.97-2.8,1.6-.97.51-2.02.85-3.1,1-1.25.32-2.46.79-3.6,1.4-1.42.75-2.64,1.81-3.6,3.1-.95,1.22-1.78,2.53-2.5,3.9-1.07,2.11-1.94,4.32-2.6,6.6-.5,1.6-.8,3.3-1.3,5-.54,2.03-.87,4.11-1,6.2-.02,1.51.12,3.02.4,4.5.22.78.28,1.59.2,2.4-.17,1.3-.65,2.53-1.4,3.6-1,1.5-2.3,2.9-3.2,4.5-.49,1.08-.93,2.18-1.3,3.3-.08-.22-.12-.46-.1-.7.18-.98.52-1.93,1-2.8.9-1.6,2.2-2.9,3.2-4.4.74-1.03,1.19-2.24,1.3-3.5-.04-1.34-.17-2.68-.4-4-.13-1.36-.17-2.73-.1-4.1.1-1.76.4-3.51.9-5.2.3-1.2.6-2.4.9-3.7.61-2.39,1.48-4.7,2.6-6.9.56-1.14,1.19-2.24,1.9-3.3.8-1.32,1.82-2.5,3-3.5,1.08-.89,2.3-1.6,3.6-2.1,1.1-.4,2.2-.7,3.3-1,1.5-.3,2.8-1.4,4.3-2.1h0Z" fill="#3b53b5" stroke-width="0"/><path d="m68.58,12.09c.7-.1,1.4-.1,2.1,0,.88.07,1.74.34,2.5.8.84.61,1.65,1.28,2.4,2,.96.81,1.8,1.75,2.5,2.8,1.14,1.67,2.04,3.49,2.7,5.4.4,1.3.8,2.6,1.2,4,.15.84.35,1.68.6,2.5.21,1.14.58,2.26,1.1,3.3.5.8.9,1.6,1.5,2.4.3.4.7.7,1,1.1.87,1.09,1.43,2.41,1.6,3.8.1,1.3-.2,2.7-.1,4,.16.96.43,1.9.8,2.8.43.75.73,1.56.9,2.4.02.77-.02,1.54-.1,2.3,0,.78.1,1.55.3,2.3.17.56.41,1.09.7,1.6.38.85.51,1.78.4,2.7-.2,1.3-.4,2.6-.5,3.9h-.3c.06-1.34.23-2.68.5-4,.05-1-.15-2-.6-2.9-.61-1.21-.88-2.55-.8-3.9.08-.6.12-1.2.1-1.8-.23-.94-.56-1.84-1-2.7-.39-.96-.62-1.97-.7-3,0-1.6.4-3.1,0-4.7-.37-1.1-.95-2.12-1.7-3-.59-.62-1.12-1.29-1.6-2-.54-.79-.95-1.67-1.2-2.6-.39-1.24-.7-2.51-.9-3.8-.4-1.9-1-3.7-1.6-5.6-.63-1.54-1.4-3.01-2.3-4.4-.69-.99-1.5-1.9-2.4-2.7-.7-.6-1.4-1.3-2.1-1.8-.43-.29-.91-.53-1.4-.7-1.3-.4-2.5-.2-3.6-.5Z" fill="#3b53b5" stroke-width="0"/><path d="m73.58,12.09c.76.07,1.49.35,2.1.8.83.55,1.61,1.18,2.3,1.9,1.44,1.56,2.47,3.45,3,5.5.29.73.42,1.51.4,2.3-.21-1.03-.51-2.03-.9-3-.5-1.53-1.28-2.95-2.3-4.2-.43-.54-.93-1.01-1.5-1.4-.61-.59-1.32-1.06-2.1-1.4-.32-.19-.66-.35-1-.5Zm-10.63,2.4c1.12-.83,2.33-1.54,3.6-2.1-.2.4-.6.5-1,.7-.9.5-1.7,1.3-2.6,1.8-.67.36-1.38.66-2.1.9-1.1.3-2.3.6-3.4,1-1.92.71-3.61,1.91-4.9,3.5-.86,1.1-1.63,2.27-2.3,3.5-.4.8-.9,1.6-1.2,2.4-.73,1.46-1.26,3.01-1.6,4.6-.3,1.3-.6,2.7-.8,4-.35,1.51-.55,3.05-.6,4.6-.07,1.57-.03,3.14.1,4.7.13,1.13.17,2.27.1,3.4-.27,1.85-.92,3.62-1.9,5.2-.64,1.06-1.38,2.07-2.2,3-.6.7-1.2,1.5-1.8,2.2-.3.3-.5.6-.9.7.31-.45.64-.89,1-1.3l2.1-2.7c1.09-1.38,1.99-2.89,2.7-4.5.42-1.15.66-2.37.7-3.6-.22-2.33-.28-4.66-.2-7,.05-1.58.25-3.16.6-4.7.39-2.52,1.02-5,1.9-7.4.79-1.9,1.73-3.74,2.8-5.5,1.14-1.86,2.72-3.4,4.6-4.5,1.72-.86,3.53-1.53,5.4-2,.68-.18,1.33-.48,1.9-.9h0Zm4.73-1c.01-.08.05-.15.1-.2.87.41,1.7.87,2.5,1.4,2.39,1.71,4.29,4.02,5.5,6.7.99,1.76,1.6,3.7,1.8,5.7.2,1.2-.1,2.4.2,3.5s.5,2,.7,3c.12,1.17.08,2.34-.1,3.5-.22.91-.49,1.81-.8,2.7-.2.8-.5,1.5-.7,2.2-.2.7-.2,1.2-.4,1.8-.6,1.3-.5,2.9-1.3,4.2-.45.75-.79,1.55-1,2.4-.28.87-.41,1.78-.4,2.7.17,1.61.72,3.15,1.6,4.5.66.91,1.23,1.88,1.7,2.9.8,2,.2,4.2,1,6.1.5,1.3,1.6,2.1,2.5,3.1.52.64.9,1.4,1.1,2.2.11.68.27,1.35.5,2,.4.9,1.3,1.4,1.8,2.1s.7,1.3,1.2,1.8c.8.8,1.9,1.2,2.7,2,1.17.95,2.13,2.15,2.8,3.5.45.81.75,1.69.9,2.6.18.79.22,1.6.1,2.4-.23.85-.36,1.72-.4,2.6.13,1.15.47,2.27,1,3.3.63,1.13.98,2.4,1,3.7-.02.47-.08.94-.2,1.4,0,.1-.1.3-.2.3.07-.87.04-1.74-.1-2.6-.25-1.15-.65-2.26-1.2-3.3-.66-1.37-.84-2.92-.5-4.4.4-1.27.4-2.63,0-3.9-.74-2.66-2.5-4.93-4.9-6.3-.62-.32-1.16-.76-1.6-1.3-.4-.5-.6-1.1-1-1.5-.4-.6-1-1-1.5-1.6-.38-.5-.62-1.08-.7-1.7-.11-.91-.38-1.79-.8-2.6-.6-1-1.6-1.7-2.3-2.7-.57-.84-.95-1.8-1.1-2.8-.1-1.2-.1-2.3-.3-3.5-.25-1.01-.69-1.96-1.3-2.8-.59-.77-1.1-1.61-1.5-2.5-.57-1.36-.84-2.83-.8-4.3.21-1.41.68-2.77,1.4-4,.7-1.1.7-2.5,1.1-3.7s.6-2.4,1-3.6c.15-.61.36-1.22.6-1.8.86-2.06,1.04-4.34.5-6.5-.2-.9-.5-1.7-.6-2.5-.1-1,.1-2-.1-3.1-.26-1.82-.84-3.58-1.7-5.2-.72-1.59-1.66-3.07-2.8-4.4-.6-.6-1.2-1.2-1.8-1.7-1.03-.66-2.1-1.26-3.2-1.8h0Z" fill="#3b53b5" stroke-width="0"/><path d="m69.78,13.39c.61,0,1.22.1,1.8.3.68.18,1.33.48,1.9.9.46.3.89.64,1.3,1,.7.7,1.3,1.4,2,2.2.56.73,1.06,1.5,1.5,2.3.58,1.04,1.02,2.15,1.3,3.3.3,1.1.6,2.2.8,3.3.15,1.76.45,3.49.9,5.2.6,2.05,1.66,3.93,3.1,5.5.55.7.92,1.53,1.1,2.4.04,1.06-.13,2.11-.5,3.1-.24.99.02,2.04.7,2.8.66.55,1.15,1.28,1.4,2.1.47,1.16.43,2.47-.1,3.6-.42.93-.38,2,.1,2.9.75.96,1.23,2.1,1.4,3.3.05.84-.05,1.69-.3,2.5-.34,1.76-.27,3.57.2,5.3.14.68.34,1.35.6,2,.5.9,1,1.9,1.5,2.8s1.2,1.7,1.7,2.7c.52.84.77,1.82.7,2.8-.15-.88-.45-1.73-.9-2.5-.5-1.1-1.3-1.9-1.9-3-.61-1.03-1.15-2.09-1.6-3.2-1.07-2.68-1.21-5.63-.4-8.4.15-1.01-.06-2.04-.6-2.9-.52-.77-.92-1.61-1.2-2.5-.2-1.3.6-2.5.6-3.7.04-.8-.13-1.59-.5-2.3-.4-.9-1.3-1.3-1.7-2.2-.37-.85-.44-1.8-.2-2.7.29-.8.42-1.65.4-2.5-.12-.58-.29-1.15-.5-1.7-.34-.57-.75-1.11-1.2-1.6-1.26-1.49-2.12-3.28-2.5-5.2-.3-1.3-.4-2.6-.6-3.8-.2-1-.3-2-.6-3-.26-1.16-.63-2.3-1.1-3.4-.33-.82-.77-1.59-1.3-2.3-.51-.78-1.08-1.51-1.7-2.2-.5-.5-.9-1-1.5-1.5-.49-.48-1.06-.85-1.7-1.1-.81-.14-1.62-.34-2.4-.6h0Zm-4.4,1.1c.18-.11.39-.18.6-.2-.11.27-.28.51-.5.7-.97.87-2.14,1.49-3.4,1.8-1.83.4-3.6,1.01-5.3,1.8-1.79,1.07-3.27,2.59-4.3,4.4-.58.92-1.08,1.89-1.5,2.9-.9,2.2-1.6,4.48-2.1,6.8-.39,2.04-.59,4.12-.6,6.2-.1,2.4.1,4.9.2,7.3.05,1.13-.15,2.26-.6,3.3-.37,1.2-.91,2.35-1.6,3.4-.87,1.3-1.91,2.48-3.1,3.5l-1.6,1.3c-.18.11-.39.18-.6.2,1.44-1.29,2.81-2.66,4.1-4.1.82-.87,1.46-1.89,1.9-3,.61-1.25.98-2.61,1.1-4,0-1.6-.1-3.1-.2-4.7-.08-2.44-.02-4.87.2-7.3.29-2.15.79-4.26,1.5-6.3.52-1.66,1.19-3.26,2-4.8.95-1.8,2.24-3.39,3.8-4.7,1.49-1.1,3.19-1.89,5-2.3,1-.4,2.1-.6,3.1-1.1.71-.21,1.36-.59,1.9-1.1h0Z" fill="#3b53b5" stroke-width="0"/><path d="m67.88,14.59c.3.1.5.4.7.6,1.3,1.2,2.5,2.4,3.7,3.6.49.49.92,1.02,1.3,1.6-.42-.45-.83-.91-1.2-1.4-1.3-1.3-2.9-2.5-4.2-3.8-.23-.2-.23-.4-.3-.6Zm6.5,2.7c1.21,1.07,2.17,2.41,2.8,3.9.55,1.05.99,2.16,1.3,3.3.42,1.2.69,2.44.8,3.7.1,1.2.1,2.4.3,3.6.05,1.12.26,2.23.6,3.3.31.88.78,1.7,1.4,2.4.96,1.12,1.52,2.53,1.6,4,.1,1.3-.5,2.5-.1,3.7.3,1,1.2,1.6,1.6,2.4.58,1.12.62,2.45.1,3.6-.4.81-.5,1.72-.3,2.6.3,1.4,1.5,2.3,1.7,3.7s-.4,2.9-.5,4.4c-.03,1.25.14,2.5.5,3.7.39,1.58,1,3.09,1.8,4.5.93,1.48,1.7,3.06,2.3,4.7.25,1.05.35,2.12.3,3.2,0,.7.2,1.4.2,2.1-.27-.74-.44-1.51-.5-2.3,0-.94-.1-1.88-.3-2.8-.6-1.64-1.37-3.22-2.3-4.7-.85-1.39-1.45-2.91-1.8-4.5-.38-1.4-.52-2.85-.4-4.3.1-1.3.7-2.6.4-3.9-.29-.84-.73-1.62-1.3-2.3-.63-1.06-.77-2.33-.4-3.5.21-.48.38-.99.5-1.5.19-.7.12-1.45-.2-2.1-.4-1-1.4-1.5-1.8-2.5-.3-.91-.3-1.89,0-2.8.26-1.7-.17-3.43-1.2-4.8-.4-.6-.9-1.1-1.3-1.8-.41-.74-.69-1.56-.8-2.4-.2-1.7-.4-3.5-.5-5.2-.08-1.19-.31-2.37-.7-3.5-.53-1.76-1.24-3.47-2.1-5.1-.39-1.03-.97-1.98-1.7-2.8h0Z" fill="#3b53b5" stroke-width="0"/><path d="m60.28,23.99h-.2c.02.27-.02.54-.1.8-.04-.48-.14-.95-.3-1.4,0,.1-.1.4-.1.5-.55-.79-1.44-1.28-2.4-1.3-1.22-.07-2.42.28-3.4,1-.3.2-.3.5-.4.8,1.04,0,2.08.1,3.1.3.6.2,1.1.4,1.7.6.57.26,1.18.43,1.8.5.24-.57.35-1.18.3-1.8h0Zm12,2.1c-.85-.82-1.88-1.44-3-1.8-1.12-.23-2.28.03-3.2.7v-.4c-.29.23-.5.55-.6.9v-.5c-.31.4-.38.93-.2,1.4,1.14-.03,2.28-.16,3.4-.4,1.13-.1,2.27.1,3.3.6.24.12.48.25.7.4-.05-.33-.19-.64-.4-.9h0Z" fill="#6366f1" stroke-width="0"/><path d="m55.28,27.09c.3-.08.62.1.7.4,0,0,0,0,0,0,.1.5-.3,1.1-.8.9s-.4-1,.1-1.3Z" fill="#151c2d" stroke-width="0"/><path d="m61.48,27.59c.3-.2.3.2.2.4-.2,1.8-.4,3.5-.7,5.3-.02.29-.27.5-.56.48-.09,0-.17-.03-.24-.08-.64-.14-1.23-.45-1.7-.9-.3-.3-.1-.8.1-1.1.6-.9,1.2-1.8,1.9-2.7.3-.4.6-.9,1-1.4Zm-2.7,4.9c.41-.77.88-1.5,1.4-2.2-.58.65-1.05,1.4-1.4,2.2Zm1.3.2c-.1,0-.2.2-.2.3,0,.4.7.5.8.2s-.4-.6-.6-.5Z" fill="#e99679" stroke-width="0"/><path d="m45.28,28.49c-.22,1.07-.7,2.07-1.4,2.9-.74.84-1.58,1.58-2.5,2.2-.92.63-1.73,1.41-2.4,2.3-.8,1.2-1.3,2.7-2,4-1.01,1.53-2.11,3-3.3,4.4-.56.74-1.03,1.55-1.4,2.4-.4,1.8.2,3.6.4,5.4l.3,2.4c0,1.24-.1,2.48-.3,3.7-.23,1.8-.96,3.49-2.1,4.9-.12.18-.29.33-.5.4.2-.4.5-.8.7-1.2,1.01-1.99,1.59-4.17,1.7-6.4.05-2.15-.15-4.3-.6-6.4-.18-.82-.22-1.67-.1-2.5.12-.72.39-1.4.8-2,.71-1.13,1.51-2.2,2.4-3.2.78-.86,1.42-1.84,1.9-2.9.5-1.1,1-2.2,1.6-3.3.66-.86,1.44-1.64,2.3-2.3.87-.55,1.67-1.18,2.4-1.9.61-.69,1.12-1.46,1.5-2.3.27-.1.4-.4.6-.6h0Z" fill="#3b53b5" stroke-width="0"/><path d="m67.68,28.79c.19-.15.47-.11.62.09.05.06.08.13.08.21.1.4-.2,1-.7.9s-.4-1,0-1.2Z" fill="#151c2d" stroke-width="0"/><path d="m53.68,29.19v-.2c.52.19,1.05.33,1.6.4.47.02.94-.01,1.4-.1-.8.8-2.1.5-3-.1Z" fill="#d3826c" stroke-width="0"/><path d="m58.78,32.49c.31-.82.79-1.57,1.4-2.2-.5.7-.9,1.4-1.4,2.2Z" fill="#f4a187" stroke-width="0"/><path d="m68.08,30.69c.5-.1,1-.2,1.6-.3-.4.7-1.3.7-2,.7-.5-.1-1.1-.1-1.4-.5.6-.1,1.2.2,1.8.1Z" fill="#d3826c" stroke-width="0"/><path d="m52.58,31.59c.41-.18.89,0,1.07.41.01.03.02.06.03.09.27.57.15,1.25-.3,1.7-.35.4-.95.49-1.4.2-.38-.32-.53-.83-.4-1.3.19-.47.55-.87,1-1.1h0Z" fill="#fc9dc2" stroke-width="0"/><path d="m43.78,32.49c.13-.35.29-.69.5-1,0,.2-.1.5-.1.7-.64,1.83-1.17,3.7-1.6,5.6-.22,1.22-.28,2.46-.2,3.7.33,1.79.57,3.59.7,5.4-.14,1.75-.97,3.36-2.3,4.5-1.37,1.3-2.25,3.03-2.5,4.9-.08.84-.22,1.68-.4,2.5,0,.2-.2.3-.3.4,0-.5.1-.9.1-1.4-.05-2.06.63-4.08,1.9-5.7.5-.6,1.1-1.1,1.6-1.7,1.05-1.21,1.56-2.8,1.4-4.4-.1-1.5-.5-2.9-.6-4.4-.04-1.27.03-2.54.2-3.8.38-1.81.92-3.58,1.6-5.3h0Zm40.6-.6c.15.03.29.09.4.2.64.97,1.34,1.91,2.1,2.8.45.38.85.82,1.2,1.3.65,1.07,1.06,2.26,1.2,3.5.2,2.2-.4,4.5.3,6.6.3,1.3,1.1,2.5,1.2,3.9-.03.86.14,1.72.5,2.5.3.6,1,1.1,1.2,1.8-.66-.47-1.21-1.09-1.6-1.8-.5-.8-.3-1.9-.5-2.8-.34-1.12-.74-2.22-1.2-3.3-.7-2.2-.1-4.5-.3-6.7-.04-1.39-.53-2.72-1.4-3.8-.5-.5-1-1-1.5-1.6-.4-.62-.83-1.22-1.3-1.8-.1-.3-.2-.5-.3-.8h0Z" fill="#3b53b5" stroke-width="0"/><path d="m68.08,33.69c.69-.22,1.43.13,1.7.8.24.9-.29,1.82-1.19,2.06-.07.02-.14.03-.21.04-.65.12-1.27-.31-1.38-.96,0-.05-.01-.09-.02-.14-.12-.79.34-1.55,1.1-1.8h0Z" fill="#fc9dc2" stroke-width="0"/><path d="m41.95,34.79c.18-.31.42-.58.7-.8-.17.64-.56,1.21-1.1,1.6-.7.48-1.34,1.06-1.9,1.7-.38.53-.62,1.15-.7,1.8-.23,1.03-.56,2.04-1,3-.55.92-1.23,1.76-2,2.5-.58.63-1.03,1.38-1.3,2.2-.38,1.54-.42,3.15-.1,4.7.15,1.46.15,2.94,0,4.4-.11,1.36-.48,2.69-1.1,3.9-.25.7-.62,1.34-1.1,1.9.5-.9.8-1.9,1.2-2.8.34-1,.55-2.04.6-3.1.12-1.47.08-2.94-.1-4.4-.25-1.39-.25-2.81,0-4.2.15-.72.46-1.41.9-2,.8-1.2,2-2,2.6-3.3.52-1.3.96-2.64,1.3-4,.37-.79.96-1.45,1.7-1.9.53-.5,1.03-.8,1.4-1.2h0Z" fill="#3b53b5" stroke-width="0"/><path d="m55.95,36.39c.89-.46,1.9-.64,2.9-.5,1.3.12,2.52.64,3.5,1.5-1.2-.2-2.4-.2-3.7-.3-.77-.1-1.7-.6-2.7-.7Zm2.6-.2c.48.16.99.23,1.5.2-.47-.16-.97-.23-1.47-.2h-.03Z" fill="#ff2453" stroke-width="0"/><path d="m58.58,36.19c.51-.03,1.02.04,1.5.2-.51-.02-1.01-.08-1.5-.2Z" fill="#fc9dc2" stroke-width="0"/><path d="m56.95,37.89c-.53-.34-.94-.83-1.2-1.4.28.17.58.31.9.4,1,.35,2.04.55,3.1.6.9-.02,1.8.02,2.7.1-.43.45-.94.83-1.5,1.1-.89.29-1.86.22-2.7-.2-.47-.2-.87-.4-1.3-.6Zm1-.3c.55.3,1.18.41,1.8.3l-1.8-.3Z" fill="#ff2453" stroke-width="0"/><path d="m55.78,36.49l.2-.1c1,.1,1.8.6,2.8.7,1.2.1,2.4.1,3.7.3h.1c-.05.05-.09.12-.1.2-.9,0-1.8-.1-2.7-.1-1.06-.05-2.1-.25-3.1-.6-.3-.1-.6-.3-.9-.4Z" fill="#e21a4e" stroke-width="0"/><path d="m40.68,37.99c.14-.42.38-.8.7-1.1-.88,2.08-1.12,4.38-.7,6.6.1,1.1.6,2.2.4,3.3-.21,1.52-.91,2.92-2,4-.95.96-1.67,2.12-2.1,3.4-.38,1.3-.61,2.65-.7,4-.03.49-.16.97-.4,1.4,0-.6.1-1.2.1-1.8.03-1.04.17-2.08.4-3.1.24-1.07.68-2.09,1.3-3,.6-.9,1.4-1.6,2-2.5.62-.84.97-1.85,1-2.9-.08-.87-.21-1.74-.4-2.6-.12-.66-.18-1.33-.2-2,.02-1.26.22-2.5.6-3.7h0Z" fill="#3b53b5" stroke-width="0"/><path d="m57.95,37.59l1.8.3c-.62.11-1.25,0-1.8-.3Z" fill="#fc9dc2" stroke-width="0"/><path d="m79.38,38.79c-.13-.32-.17-.66-.1-1,.71,1.96,1.08,4.02,1.1,6.1-.11,2.26-.58,4.49-1.4,6.6-.58,1.36-.72,2.86-.4,4.3.1.47.3.92.6,1.3.58.93,1.01,1.94,1.3,3,.12,1.03.08,2.08-.1,3.1-.08.66.06,1.33.4,1.9.72.72,1.39,1.49,2,2.3.78,1.06,1.3,2.3,1.5,3.6.02.51.08,1.01.2,1.5.47.63,1.04,1.17,1.7,1.6.82.65,1.45,1.51,1.8,2.5.19.45.33.92.4,1.4-.54-1.07-1.14-2.1-1.8-3.1-.7-.7-1.6-1-2.2-1.8-.42-.5-.6-1.16-.5-1.8-.05-.77-.25-1.52-.6-2.2-.45-.99-1.05-1.91-1.8-2.7-.6-.7-1.4-1.2-1.5-2.1-.2-1.2.2-2.4.1-3.5,0-1.4-.9-2.6-1.6-3.9-.52-.98-.71-2.1-.53-3.2.13-1.03.39-2.04.8-3,.44-1.24.77-2.51,1-3.8.33-2.37.2-4.78-.37-7.1Zm-3.2-.5h.3c-.4,1-1,1.9-1.5,2.9-.37,1.16-.54,2.38-.5,3.6-.29,1.96-1.01,3.84-2.1,5.5-.73,1.51-.77,3.26-.1,4.8.3.8,1.1,1.5,1.1,2.4-.4-1-1.3-1.7-1.6-2.8-.42-1.15-.49-2.41-.2-3.6.24-.63.54-1.23.9-1.8.78-1.33,1.32-2.78,1.6-4.3-.07-1.25.07-2.5.4-3.7.47-1.05,1.04-2.06,1.7-3h0Z" fill="#3b53b5" stroke-width="0"/><path d="m78.18,42.09c.04-.94.17-1.88.4-2.8-.1.8-.1,1.7-.2,2.6-.1,1.4-.1,2.8-.3,4.2-.38,1.48-.92,2.93-1.6,4.3-.64,1.3-.85,2.77-.6,4.2.15.82.46,1.6.9,2.3.56.78,1.03,1.61,1.4,2.5.42,1.08.59,2.24.5,3.4-.15,1.01-.05,2.04.3,3,.4.9,1.3,1.4,2,2.1.57.51,1.05,1.12,1.4,1.8.3.67.51,1.37.6,2.1-.03.7.22,1.38.7,1.9.7.7,1.7,1.2,2.4,2,.5.6.5,1.4,1,2,.4.48.87.88,1.4,1.2.76.6,1.34,1.4,1.7,2.3.07.2.03.43-.1.6-.11-.52-.35-1-.7-1.4-.49-.58-1.07-1.08-1.7-1.5-.58-.35-1.04-.87-1.3-1.5-.2-.4-.3-.9-.5-1.3-.7-1-2.1-1.4-2.8-2.5-.6-.9-.3-2.1-.7-3.2-.39-.99-1.05-1.86-1.9-2.5-.72-.5-1.34-1.15-1.8-1.9-.35-1.17-.45-2.39-.3-3.6,0-.92-.14-1.83-.43-2.7-.39-.84-.86-1.65-1.4-2.4-.57-.84-.95-1.8-1.1-2.8-.17-1.44.07-2.89.7-4.2.5-1.2,1.1-2.4,1.5-3.7.3-1.6.3-3,.53-4.5Z" fill="#3b53b5" stroke-width="0"/><path d="m56.68,39.69c1.21-.37,2.51-.33,3.7.1-.14-.01-.28.02-.4.1.29.07.57.21.8.4-.62-.15-1.26-.25-1.9-.3-.7-.2-1.5-.1-2.2-.3h0Z" fill="#d3826c" stroke-width="0"/><path d="m38.58,43.29c.15-.61.36-1.22.6-1.8-.02,1.17-.37,2.31-1,3.3-.69.8-1.29,1.67-1.8,2.6-.5,1.4,0,2.8-.4,4.2h-.2c.05-.57.05-1.13,0-1.7-.07-.7-.03-1.41.1-2.1.23-.71.57-1.39,1-2,.75-.69,1.34-1.55,1.7-2.5h0Zm42.37-1.5c.45,1.33.75,2.7.9,4.1.22,1.16.18,2.35-.1,3.5-.54,1.44-.78,2.97-.7,4.5.16.66.46,1.28.9,1.8.72,1.02,1.1,2.25,1.1,3.5-.09.68-.22,1.34-.4,2-.08,1.03.28,2.05,1,2.8.72.85,1.27,1.84,1.6,2.9.14.91.34,1.81.6,2.7.24.41.44.85.6,1.3-.77-.61-1.24-1.52-1.3-2.5-.16-1.53-.75-2.99-1.7-4.2-.71-.8-1.1-1.83-1.1-2.9,0-.6.3-1.2.3-1.7.17-1.32-.19-2.65-1-3.7-.49-.54-.83-1.19-1-1.9-.12-1.53.12-3.07.7-4.5.3-.93.4-1.92.3-2.9-.05-.97-.15-1.94-.3-2.9-.19-.62-.32-1.26-.4-1.9Zm-42.37,4.9c.1-.3-.1-.7.2-.9.16.38.23.79.2,1.2-.18.7-.45,1.37-.8,2-.34.67-.74,1.3-1.2,1.9.2-.5.5-.9.7-1.4.4-.9.71-1.84.9-2.8h0Z" fill="#3b53b5" stroke-width="0"/><path d="m91.78,54.99c.62-.36,1.38-.36,2,0,.1.2-.1.5-.3.6-.47.12-.96.08-1.4-.1-.2,0-.3-.2-.3-.5h0Z" fill="#ff227d" stroke-width="0"/><path d="m35.28,55.09c.12.9.08,1.81-.1,2.7-.11,1.14-.48,2.24-1.1,3.2-.1,0-.1.1-.2.1.36-.77.62-1.57.8-2.4l.6-3.6Z" fill="#3b53b5" stroke-width="0"/><path d="m97.48,58.59c1.08-.28,2.22-.13,3.2.4-.73-.12-1.46-.18-2.2-.2-.34-.03-.68-.09-1-.2Z" fill="#c56442" stroke-width="0"/><path d="m41.68,61.09c.02-.21.09-.42.2-.6.11.66.18,1.33.2,2,.22,1.86.28,3.73.2,5.6-.1,2.2-.3,4.4-.4,6.6.03.9-.03,1.81-.2,2.7-.08-.46-.12-.93-.1-1.4,0-2.4.1-4.8.2-7.2v-4.1c0-1.1-.2-2.3-.1-3.6h0Z" fill="#1e40af" stroke-width="0"/><path d="m95.18,61.19c1.85-.5,3.81-.4,5.6.3-1.1,0-2.2-.3-3.3-.3-.85-.01-1.7.12-2.5.4-.87.32-1.71.72-2.5,1.2-.59.52-1.23.99-1.9,1.4.61-.79,1.35-1.47,2.2-2,.78-.38,1.58-.71,2.4-1h0Z" fill="#d3826c" stroke-width="0"/><path d="m89.68,64.39c-.1-.2.6-1.1.9-1.1.19,0,.34.15.34.34,0,.06-.01.11-.04.16,0,.2-.6.9-.8.9s-.4-.1-.4-.3Z" fill="#ff227d" stroke-width="0"/><path d="m94.58,63.59c.72-.17,1.46-.24,2.2-.2.68,0,1.35.1,2,.3.5.2,1,.5,1.4.7-.41-.05-.81-.15-1.2-.3-1.69-.6-3.54-.57-5.2.1-.96.35-1.87.82-2.7,1.4-.06,0-.1.04-.1.1h0c.24-.37.59-.65,1-.8.8-.55,1.68-.99,2.6-1.3h0Z" fill="#d3826c" stroke-width="0"/><path d="m90.78,64.39c.3-.1.5.3.4.5-.2.5-.9,1.2-1.1,1.1s0-.7.2-1c.08-.26.26-.48.5-.6Zm-.6,2.3c-.1-.1.5-1,.9-1.2.06,0,.1-.04.1-.1h0c.2.1.4.2.4.4-.2.4-.8,1.1-1,1.1s-.3-.1-.4-.2Z" fill="#ff227d" stroke-width="0"/><path d="m91.48,68.29c.18.38.38.75.6,1.1.3.5.7,1,1,1.5.48.86.88,1.76,1.2,2.7.08.39.12.8.1,1.2-.08.87-.22,1.74-.4,2.6-.58,1.6-.82,3.3-.7,5,.19,1.45.59,2.87,1.2,4.2.4,1,.7,2,1,3,.38,1.4.52,2.85.4,4.3-.1,1-.3,2.1-.5,3.1-.32,1.46-.97,2.83-1.9,4-.52.55-1.09,1.05-1.7,1.5.15-.5.47-.92.9-1.2.64-.61,1.18-1.32,1.6-2.1.58-1.23.95-2.55,1.1-3.9.32-1.62.28-3.29-.1-4.9-.34-1.33-.78-2.63-1.3-3.9-.77-1.8-1.14-3.74-1.1-5.7.17-1.25.44-2.49.8-3.7.2-.85.3-1.72.3-2.6-.01-.7-.18-1.38-.5-2-.4-.8-.8-1.6-1.3-2.4-.43-.51-.67-1.14-.7-1.8Z" fill="#3b53b5" stroke-width="0"/><path d="m43.58,71.39c-.08-.26-.12-.53-.1-.8.29.82.62,1.62,1,2.4.5,1.28,1.1,2.52,1.8,3.7.66.87,1.23,1.81,1.7,2.8-.1-.1-.3-.2-.4-.3-1.05-1.32-1.98-2.73-2.8-4.2-.3-1.2-.83-2.4-1.2-3.6Zm-3.63,5.3c.3-.9.4-1.8.7-2.6.12,1.34-.12,2.69-.7,3.9-.7,1.5-1.4,2.9-2.2,4.3-.27.68-.68,1.29-1.2,1.8.23-.52.49-1.02.8-1.5.97-1.92,1.84-3.89,2.6-5.9Zm34.73,1.1c.8-1.05,1.47-2.19,2-3.4.06.53-.08,1.07-.4,1.5-.64,1.25-1.41,2.42-2.3,3.5-1.1,1.4-2.3,2.7-3.5,4-.32.44-.78.76-1.3.9,1.05-.99,2.01-2.06,2.9-3.2.93-1.05,1.8-2.15,2.6-3.3h0Z" fill="#1e40af" stroke-width="0"/><path d="m80.58,74.79c.2.2.2.5.3.7.08.62.32,1.2.7,1.7.66.68,1.44,1.22,2.3,1.6v.2c-1.03-.27-1.97-.83-2.7-1.6-.58-.73-.8-1.69-.6-2.6h0Zm11.2,3.4c-.08-.7-.12-1.4-.1-2.1.35.92.45,1.92.3,2.9-.23.88-.36,1.79-.4,2.7.04.72.17,1.42.4,2.1.5,1.33.91,2.7,1.2,4.1.2,1.1-.2,2.2-.1,3.3.2,1.3,1,2.5,1,3.8,0,.7-.1,1.3-.1,2,0,.3,0,.7-.3.9,0-1.3.3-2.7-.2-4-.36-.87-.63-1.78-.8-2.7-.1-1.1.3-2.2.1-3.3-.3-1.3-.6-2.5-1-3.7-.37-.99-.54-2.04-.5-3.1.26-.95.43-1.92.5-2.9Z" fill="#3b53b5" stroke-width="0"/><path d="m77.78,80.59c.2-.3.2-.8.5-1-.07.97-.45,1.88-1.1,2.6-1,1.3-2,2.6-3.1,3.8-.19.31-.47.55-.8.7.9-1,1.6-2.2,2.5-3.2.76-.9,1.43-1.87,2-2.9Zm-23.4,5.2v-.2c1.52.55,3.1.95,4.7,1.2,1.98.12,3.96-.01,5.9-.4.49-.15.99-.25,1.5-.3-.66.34-1.37.57-2.1.7-1.99.55-4.07.65-6.1.3-1.37-.17-2.7-.62-3.9-1.3Z" fill="#1e40af" stroke-width="0"/><path d="m89.28,87.39c.1-.6.1-1.1.2-1.7.27.74.34,1.53.2,2.3-.33,1.44-.37,2.94-.1,4.4.35,1.35.85,2.66,1.5,3.9.46.87.73,1.82.8,2.8.03,1.12-.24,2.23-.8,3.2-.4.8-1.1,1.2-1.6,1.9-.4.5-.9.9-1.3,1.4-.5.54-.96,1.11-1.4,1.7.16-.6.47-1.15.9-1.6.5-.7,1.2-1.2,1.7-1.9s1.1-1,1.4-1.7c.62-.98.87-2.15.7-3.3-.35-1.53-.96-2.98-1.8-4.3-.67-1.44-.94-3.02-.8-4.6.07-.7.3-1.6.4-2.5h0Z" fill="#3b53b5" stroke-width="0"/><path d="m66.28,89.69c.48-.12.95-.29,1.4-.5-.2.4-.6.5-.9.7-.92.28-1.86.51-2.8.7-1.29.25-2.61.25-3.9,0-.2-.1-.5-.2-.7-.3.7,0,1.4.2,2.2.2,1.58-.18,3.15-.44,4.7-.8h0Zm-4.33,23.5c1.88-.09,3.75-.32,5.6-.7-.89.35-1.84.56-2.8.6-1.9.2-3.8.5-5.7.6-2.08,0-4.16-.2-6.2-.6-.48-.09-.95-.22-1.4-.4.5-.07,1.01-.03,1.5.1,2.97.48,5.99.62,9,.4h0Zm8.73,1.6c.74-.16,1.44-.43,2.1-.8-.21.31-.53.52-.9.6-1.87.76-3.81,1.33-5.8,1.7-2.68.4-5.39.6-8.1.6-.87.03-1.74-.03-2.6-.2v-.3c1.2.1,2.4,0,3.6,0,1.4-.1,2.8-.1,4.3-.2,2.5-.26,4.98-.73,7.4-1.4h0Zm2.2,4.6c1.39-.26,2.76-.63,4.1-1.1-.3.4-.9.5-1.4.8-1.2.46-2.44.83-3.7,1.1-2.17.51-4.38.88-6.6,1.1-.97.12-1.94.08-2.9-.1v-.3c3.55-.09,7.07-.6,10.5-1.5Zm-29.1.2c.5.1,1,.3,1.5.4,1.4.4,2.9.7,4.4,1,2.34.45,4.72.65,7.1.6.6,0,1.1-.1,1.7-.1-.6.24-1.25.35-1.9.3-2.27.07-4.55-.06-6.8-.4-1.4-.3-2.7-.5-4.1-.9-.52-.11-1.02-.27-1.5-.5-.3-.1-.3-.2-.4-.4h0Z" fill="#1e40af" stroke-width="0"/></g></svg>