<?xml version="1.0" encoding="UTF-8"?><svg id="Layer_1" xmlns="http://www.w3.org/2000/svg" xmlns:xlink="http://www.w3.org/1999/xlink" viewBox="0 0 137.02 121.35"><defs><clipPath id="clippath"><rect width="139.05" height="121.35" fill="none" stroke-width="0"/></clipPath></defs><path d="m94.65,29.33c.1.26,0,2.6,0,2.6l-3.13-2.38,3.13-.22Z" fill="#e97951" stroke-width="0"/><path d="m7.05,88.04h15.82c1.55,0,2.81,1.26,2.81,2.81v15.53c0,1.55-1.26,2.81-2.81,2.81h-9.28c-5.16,0-9.35-4.19-9.35-9.35v-8.99c0-1.55,1.26-2.81,2.81-2.81Z" transform="translate(113.57 83.66) rotate(90)" fill="#c4603d" stroke-width="0"/><rect x="64.36" y="22.31" width="19.21" height="12.97" rx="2.81" ry="2.81" transform="translate(121.43 -34.81) rotate(105.46)" fill="#e97951" stroke-width="0"/><rect x="71.32" y="14.17" width="23.9" height="22.98" rx="11.49" ry="11.49" transform="translate(108.94 -57.6) rotate(90)" fill="#e97951" stroke-width="0"/><rect x="77.56" y="90.15" width="43.05" height="22.16" rx="2.81" ry="2.81" transform="translate(200.31 2.15) rotate(90)" fill="#312e81" stroke-width="0"/><rect x="87.22" y="83.53" width="43.05" height="22.16" rx="2.81" ry="2.81" transform="translate(217.49 189.22) rotate(180)" fill="#3504ad" stroke-width="0"/><rect x="22.52" y="65.74" width="26.67" height="44.32" rx="2.81" ry="2.81" transform="translate(123.75 52.04) rotate(90)" fill="#3504ad" stroke-width="0"/><g clip-path="url(#clippath)"><path d="m89.73,48.34c.3-.2.7-.1,1.1-.1.4.3.9.3,1.3.7.42.29.85.56,1.3.8.5.3,1,.7,1.5,1,1.19.53,2.32,1.17,3.4,1.9l3.6,2.1c1.3.8,2.7,1.6,4,2.3,2.9,1.7,5.7,3.5,8.4,5.4,1.6,1.2,3.1,2.6,4.6,3.9.78.72,1.52,1.49,2.2,2.3,1.1,1.2,2.1,2.4,3.1,3.7,1.41,1.85,2.72,3.79,3.9,5.8,1.85,3.13,3.26,6.49,4.2,10,.67,2.8,1.27,5.6,1.8,8.4.4,2.2.9,4.3,1.1,6.6.13,1.58.36,3.15.7,4.7.13.39.17.8.1,1.2-.52.51-1.13.92-1.8,1.2-1.1.5-2.3.6-3.4,1-2.97.94-6.09,1.35-9.2,1.2-1.5-.1-3-.2-4.6-.4-.11-.3-.32-.54-.6-.7.1-1,0-2,.1-3,.2-2.35.81-4.66,1.8-6.8.65-1.62,1.52-3.13,2.6-4.5.6-.7,1.3-1.4,2-2.1.74-.64,1.3-1.47,1.6-2.4.14-.38.06-.8-.2-1.1-.27-.24-.66-.32-1-.2-.54.17-1.03.48-1.4.9-.93.82-1.74,1.76-2.4,2.8-.57,1.16-1.24,2.26-2,3.3-.4.7-1,1.1-1.4,1.8-.1.2-.4.2-.6.1.19-.8.5-1.58.9-2.3.5-1,1-1.9,1.5-2.9.6-1.2,1.4-2.2,1.9-3.4.3-.7.8-1.3.7-2.1.02-.32-.14-.62-.4-.8-.4-.3-.9,0-1.2.2-.39.39-.72.83-1,1.3-1.06,1.79-1.96,3.66-2.7,5.6-.11.25-.25.48-.4.7-.1-1,0-2-.1-3-.1-.8-.1-1.6-.2-2.5-.1-1.2-.3-2.4-.5-3.6-.04-.47-.22-.92-.5-1.3-.4-.29-.95-.25-1.3.1-.43.42-.68,1-.7,1.6-.15,1.63-.15,3.27,0,4.9.2,1.4.3,2.7.5,4.1.05.67.05,1.33,0,2-.08.8-.12,1.6-.1,2.4,0,.16-.08.3-.2.4-.8-1.8-1.5-3.6-2.4-5.4-.71-1.43-1.58-2.77-2.6-4-.3-.3-.5-.7-.9-.8s-.5.5-.5.8c.8,3.5,1.6,7,2.2,10.6.2,1.3.8,2.6.9,3.9.28,1.95.41,3.93.4,5.9.05.73.05,1.47,0,2.2-.05,2.02-.56,4.01-1.5,5.8-.28.79-.69,1.53-1.2,2.2-.6.8-1.1,1.7-1.6,2.5-.36.71-.43,1.54-.2,2.3.7,2.1,1.5,4.1,2.3,6.1.71,2.16,1.27,4.37,1.7,6.6.3,1.2.5,2.5.7,3.7.1,1,.4,2,.5,3.1.2,2.5.4,4.9.5,7.4.14,1.05.37,2.09.7,3.1.1.4.6.4.9.2.1,1.7.2,3.4.2,5.1,0,1,0,2.1-.1,3.1-.1,1.5-.3,3-.4,4.5,0,.39-.1.77-.3,1.1-.2.3-.6.4-.9.6h-.1c-.36.05-.74.05-1.1,0-.6.1-1.2.3-1.9.4l-2.7.3c-2.1.2-4.1.5-6.2.6-2.6.28-5.22.22-7.8-.2-.8-.2-1.7-.3-2.5-.5-2.4-.6-4.7-1.5-7.1-2.1-1.1-.3-2.3-.5-3.5-.7s-2.6-.1-4-.2c-1.47.03-2.94.17-4.4.4l-3.6.6c-1.2.2-2.3.3-3.5.4h-1.4c-2.27.18-4.55.12-6.8-.2-1.21-.1-2.42-.3-3.6-.6-2-.5-4.1-.8-6.1-1.4-.81-.22-1.62-.49-2.4-.8-.9-.3-1.7-.6-2.6-.9-1.64-.62-3.31-1.16-5-1.6-.75-.17-1.49-.41-2.2-.7-.23-.17-.52-.24-.8-.2-.14.13-.18.33-.1.5.28.35.62.65,1,.9-1.1-.3-2.2-1-3.3-1.4-.4-.5-.7-1-1.3-1.2-.78-.24-1.6.2-1.84.98-.04.14-.06.28-.06.42-.6-.2-1.1-.6-1.7-.5-.19-.2-.33-.44-.4-.7-.4-2.2-.6-4.4-.8-6.6.51-.94,1.08-1.84,1.7-2.7.2.3.3.5.6.6.36.06.73-.05,1-.3.1.5.2.9.3,1.4.1.3.2.6.4.7s.6.1.8.4c.4.4.3,1,.8,1.4.42.25.96.12,1.21-.3.04-.06.07-.13.09-.2.13-.56.16-1.13.1-1.7-.2-1.36-.3-2.73-.3-4.1-.2-1.2,0-2.4-.2-3.5-.1-1.5,0-3,0-4.5.05-2.51.25-5.01.6-7.5.2-.9.1-1.9.3-2.8.18-1.85.62-3.67,1.3-5.4.3-.7.8-1.2,1.1-1.9.77-1.59,1.64-3.12,2.6-4.6.48-.77,1.01-1.51,1.6-2.2.45-.61.95-1.18,1.5-1.7,1.34-1.15,2.82-2.12,4.4-2.9.75-.29,1.49-.63,2.2-1,1.28-.55,2.63-.95,4-1.2,1.5-.3,2.9-.7,4.4-.9,1.2-.06,2.39-.33,3.5-.8-.7-.02-1.41-.08-2.1-.2-.7-.1-1.5-.1-2.2-.2-.96-.15-1.93-.25-2.9-.3-1.5-.3-2.9-.7-4.4-.9-.72-.04-1.42-.17-2.1-.4-.5-.2-.9-.3-1.4-.5-.7-.2-1.2-.8-1.9-1-.59-.26-1.15-.56-1.7-.9-.34-.18-.62-.46-.8-.8-.3-.5-.7-.9-1-1.5-.25-.72-.45-1.45-.6-2.2-.13-.79-.17-1.6-.1-2.4,0-.7.3-1.4.3-2.1.05-.44.15-.88.3-1.3.2-.6.1-1.3.4-1.8.34-.68.45-1.45.3-2.2-.13-.48-.63-.76-1.1-.63-.03,0-.06.02-.1.03-.64.19-1.18.62-1.5,1.2-.3.5-.7.9-1,1.4s-.4.7-.6,1.1c-.5.8-.9,1.7-1.5,2.5,0-.9.1-1.7.1-2.6-.4-2.5-.9-5-1.5-7.5-.19-1.19-.49-2.36-.9-3.5-.4-.9-.6-1.7-1.1-2.6-.6-1.4-1-2.9-2.2-3.9-.74-.64-1.85-.56-2.48.18,0,0-.01.01-.02.02-.32.62-.39,1.33-.2,2,.3,2.2,1.8,3.9,2.7,5.9.44.86.77,1.76,1,2.7.2.8.4,1.6.5,2.3.1.4-.2.8-.4,1.1-.6-.4-1.2-.9-1.8-1.3s-1.2-.6-1.7-1c-.81-.63-1.68-1.16-2.6-1.6-.55-.32-1.2-.39-1.8-.2.24.73.62,1.4,1.1,2,.5.5,1.1,1.1,1.6,1.5.82.75,1.59,1.55,2.3,2.4.69.74,1.2,1.63,1.5,2.6.14.34.06.74-.2,1-.23.2-.57.2-.8,0-1-.48-1.95-1.09-2.8-1.8-.6-.4-1.3-.7-2-1.1-.72-.35-1.5-.56-2.3-.6-.3,0-.7-.1-.9.2.1.4.2.9.3,1.3.29.49.71.91,1.2,1.2.96.76,1.96,1.46,3,2.1.7.3,1.3.9,2,1.2.79.27,1.56.61,2.3,1-1.12.17-2.26.24-3.4.2-1.2.1-2.5,0-3.8,0-1.6-.1-3.1-.4-4.7-.5l-2-.3c-.76-.19-1.52-.32-2.3-.4-1.52-.2-3.02-.5-4.5-.9-.3-.1-.7-.1-.9-.4.15-.32.25-.65.3-1,.28-.79.51-1.59.7-2.4.5-1.9,1.1-3.7,1.8-5.6.73-1.78,1.57-3.52,2.5-5.2,1-2,2.1-3.8,3.2-5.7,2.51-4.4,5.57-8.47,9.1-12.1,1.1-1.3,2.3-2.5,3.6-3.6,2.66-2.42,5.57-4.53,8.7-6.3.96-.58,1.96-1.08,3-1.5,1-.4,2-.9,3-1.3s1.7-.7,2.6-1c1.1-.3,2.2-.6,3.3-1,2.2-.71,4.43-1.27,6.7-1.7,1.35-.44,2.78-.65,4.2-.6.3,0,.4.2.7.3.3-.02.61.02.9.1v.3h3.7c1.64.1,3.28.3,4.9.6,1.9.2,3.7.2,5.6.3,1.6.13,3.2.17,4.8.1,1.7-.1,3.4-.4,5-.6,1.73-.44,3.43-.98,5.1-1.6,1.17-.29,2.31-.69,3.4-1.2h0Z" fill="#4f46e5" stroke-width="0"/><path d="m23.33,78.34c.62-.74,1.73-.84,2.48-.22,0,0,.01.01.02.02,1.2,1,1.6,2.6,2.2,3.9.4.8.7,1.7,1.1,2.6.4,1.14.71,2.31.9,3.5.6,2.5,1.1,5,1.5,7.5,0,.9-.1,1.7-.1,2.6.58-.78,1.08-1.62,1.5-2.5.22-.35.42-.72.6-1.1.3-.5.7-.9,1-1.4.41-.5.92-.91,1.5-1.2.46-.18.99.04,1.17.5.01.03.02.06.03.1.06.75-.05,1.5-.3,2.2-.2.6-.2,1.2-.4,1.8-.1.4-.2.8-.3,1.3-.15.69-.25,1.39-.3,2.1-.07.8-.03,1.61.1,2.4.06.76.26,1.51.6,2.2.26.54.6,1.05,1,1.5.21.31.48.59.8.8.55.34,1.11.64,1.7.9.7.2,1.2.8,1.9,1,.5.2.9.3,1.4.5.68.23,1.38.36,2.1.4,1.5.2,3,.6,4.4.9l2.9.3c.7.1,1.5.1,2.2.2s1.4.1,2.1.2c-1.11.47-2.3.74-3.5.8-1.5.2-3,.6-4.4.9-1.37.26-2.71.66-4,1.2-.75.29-1.49.63-2.2,1-1.6.75-3.08,1.73-4.4,2.9-.6.5-1,1.2-1.5,1.7-.59.69-1.12,1.43-1.6,2.2-.9,1.5-1.8,3-2.6,4.6-.3.7-.8,1.2-1.1,1.9-.68,1.73-1.12,3.55-1.3,5.4-.05.94-.15,1.87-.3,2.8-.35,2.49-.55,4.99-.6,7.5v4.5c.1,1.2,0,2.4.2,3.5,0,1.37.1,2.74.3,4.1.07.57.04,1.14-.1,1.7-.17.48-.7.73-1.18.55-.04-.02-.08-.03-.12-.05-.5-.3-.4-1-.8-1.4-.2-.3-.6-.2-.8-.4-.24-.15-.39-.42-.4-.7-.1-.5-.2-.9-.3-1.4-.3.1-.7.4-1,.3-.27-.12-.48-.33-.6-.6-.1-.26-.17-.53-.2-.8,0-.08-.04-.15-.1-.2-.25-.09-.49-.23-.7-.4-.28-.3-.42-.69-.4-1.1,0-1.1-.1-2.2-.2-3.3.02-.54-.02-1.07-.1-1.6-.24,0-.47.03-.7.1-.1-1.3.1-2.6.1-3.9,0-1.6.1-3.3.2-4.9,0-.9.2-1.8.2-2.6.1-2,.1-4,.3-5.9.3-2.3.3-4.7.5-7,.4-2.6.6-5.3,1.1-7.9.2-1.3.4-2.6.7-3.8.24-1.75.57-3.49,1-5.2.37-1.63.84-3.23,1.4-4.8-.85.19-1.73.29-2.6.3-.74-.39-1.51-.73-2.3-1-.7-.3-1.3-.9-2-1.2-1.04-.64-2.04-1.34-3-2.1-.45-.35-.85-.75-1.2-1.2-.1-.4-.2-.9-.3-1.3.2-.3.6-.2.9-.2.8.04,1.58.25,2.3.6.7.4,1.3.7,2,1.1.87.69,1.81,1.3,2.8,1.8.3.1.6.2.8,0,.26-.26.34-.66.2-1-.3-.97-.81-1.86-1.5-2.6-.71-.85-1.48-1.65-2.3-2.4-.6-.5-1.1-1-1.6-1.5-.5-.58-.87-1.27-1.1-2,.6-.18,1.25-.11,1.8.2.9.47,1.77,1.01,2.6,1.6.5.4,1.2.6,1.7,1s1.2.9,1.8,1.3c.2-.3.5-.7.4-1.1-.11-.78-.28-1.55-.5-2.3-.24-.93-.58-1.83-1-2.7-.9-2-2.4-3.7-2.7-5.9-.19-.7-.12-1.45.2-2.1h0Zm89.2,7.8c.34-.38.91-.42,1.3-.1.28.38.46.83.5,1.3.2,1.2.4,2.4.5,3.6.1.8.1,1.6.2,2.5s0,2,.1,3c.17-.21.31-.45.4-.7.78-1.92,1.68-3.79,2.7-5.6.3-.46.64-.89,1-1.3.29-.36.81-.44,1.2-.2.3.1.4.5.4.8-.08.74-.32,1.46-.7,2.1-.6,1.2-1.3,2.3-1.9,3.4-.5.9-1,1.9-1.5,2.9-.43.71-.73,1.49-.9,2.3.2.12.45.08.6-.1.4-.7,1-1.2,1.4-1.8.72-1.06,1.39-2.17,2-3.3.69-1.02,1.5-1.96,2.4-2.8.4-.39.88-.7,1.4-.9.34-.12.73-.04,1,.2.26.3.34.72.2,1.1-.32.92-.87,1.75-1.6,2.4-.6.7-1.4,1.4-2,2.1-1.11,1.34-1.99,2.86-2.6,4.5-.98,2.15-1.59,4.45-1.8,6.8-.1,1-.1,2-.1,3,.25.18.46.42.6.7-1.4-.2-2.7-.5-4-.8-.2,1.2-.5,2.3-.7,3.5-.3,1.5-.4,3.1-.7,4.6-.2,1-.2,2-.5,3s-.6,2.3-.8,3.4c-.02,1.38.12,2.75.4,4.1.3,2.6.9,5.1,1.1,7.7.4,3.05.5,6.13.3,9.2,0,2.5-.3,4.9-.5,7.4.1,1.2.1,2.4.2,3.7-.3.2-.8.2-.9-.2-.33-1.01-.56-2.05-.7-3.1-.2-2.5-.3-4.9-.5-7.4-.1-1-.4-2-.5-3.1-.2-1.3-.4-2.5-.7-3.7-.5-2.2-1-4.5-1.7-6.6s-1.6-4-2.3-6.1c-.29-.76-.21-1.6.2-2.3.5-.8,1-1.7,1.6-2.5.46-.7.86-1.44,1.2-2.2.89-1.81,1.4-3.78,1.5-5.8.05-.73.05-1.47,0-2.2-.03-1.97-.16-3.94-.4-5.9-.1-1.4-.7-2.6-.9-3.9-.53-3.57-1.27-7.11-2.2-10.6-.1-.3,0-.9.5-.8s.6.5.9.8c1.02,1.23,1.89,2.57,2.6,4,.9,1.8,1.6,3.6,2.4,5.4.12-.1.2-.24.2-.4.08-.8.12-1.6.1-2.4.05-.67.05-1.33,0-2-.2-1.4-.3-2.7-.5-4.1-.2-1.63-.2-3.27,0-4.9-.15-.62.04-1.26.5-1.7h0Z" fill="#1e40af" stroke-width="0"/><path d="m80.33,3.14c1.6-1.03,3.41-1.68,5.3-1.9.71,0,1.42.1,2.1.3,1.1.4,1.9,1.4,2.9,2,.6.4,1.3,0,1.9.3.58.22,1.02.7,1.2,1.3.61,1.36.68,2.89.2,4.3-.21.64-.68,1.15-1.3,1.4-1.81.15-3.62.05-5.4-.3-.38-.07-.77.08-1,.4-.7.6-1.3,1.3-2,2-.72.65-1.53,1.19-2.4,1.6-1.5.8-3.3.6-4.9.9-.86.06-1.71.26-2.5.6-.2.1-.2.3-.2.5-.1,1-.3,2-.4,3-.22.91-.49,1.81-.8,2.7-.06.85.07,1.71.4,2.5.7,1.62,1.5,3.19,2.4,4.7.6.9,1.2,1.9,1.9,2.8.66.91,1.51,1.66,2.5,2.2.97.11,1.96-.1,2.8-.6,1.7-.9,3.2-2.2,5-2.8,1.1-.39,2.24-.62,3.4-.7,1.03-.09,2.06.08,3,.5.2.1.3.2.3.4.38.85.62,1.77.7,2.7,0,1.1.2,2.1.2,3.2.13,1.95-.04,3.9-.5,5.8-.27,1.03-.71,2.01-1.3,2.9-.71.92-1.64,1.64-2.7,2.1-1.77.59-3.63.89-5.5.9-1.23-.04-2.45-.28-3.6-.7-1.75-.63-3.32-1.65-4.6-3-.8-.8-1.3-1.7-2.1-2.5-.73-.94-1.36-1.94-1.9-3-.56-1.07-1.06-2.17-1.5-3.3-.3-1.2-.7-2.4-.9-3.6v-.2c-.1-1.1-.4-2.2-.4-3.4-.1-2-.2-4-.2-5.9,0-.4-.3-.6-.6-.8-1.15-.5-2.45-.5-3.6,0-.8.33-1.42.98-1.7,1.8-.24.48-.44.98-.6,1.5-.76-.17-1.39-.69-1.7-1.4-.2-.3-.2-.7-.4-.9-.52-.3-1.1-.51-1.7-.6-.71-.36-1.14-1.1-1.1-1.9,0-.6.3-1.3-.1-1.8-.08-.63-.65-1.08-1.28-1,0,0-.01,0-.02,0-.62.11-1.25,0-1.8-.3-.32-.23-.5-.61-.5-1-.17-1.03.36-2.05,1.3-2.5,1-.6,2.3-.5,3.2-1.2.66-.64,1.09-1.49,1.2-2.4.28-1.26,1.03-2.37,2.1-3.1,1.1-.7,2.5-.4,3.7-.7,1.11-.32,2.09-.98,2.8-1.9.9-1.12,2.18-1.87,3.6-2.1,1.12-.11,2.24.02,3.3.4,1.24.44,2.61.36,3.8-.2h0Z" fill="#1b4e61" stroke-width="0"/><path d="m86.23,10.94c.23-.32.62-.47,1-.4,1.78.35,3.59.45,5.4.3-.18.17-.38.3-.6.4-1.64.25-3.31.15-4.9-.3-.6.6-1.2,1.2-1.8,1.9s-1.3,1.7-2,2.5c-1.17,1.11-2.69,1.78-4.3,1.9-1.33.07-2.67.03-4-.1-.24.81-.65,1.56-1.2,2.2.2-1,.3-2,.4-3,0-.2,0-.4.2-.5.8-.31,1.64-.51,2.5-.6,1.6-.2,3.4-.1,4.9-.9.89-.38,1.71-.92,2.4-1.6.7-.5,1.3-1.2,2-1.8Z" fill="#c4603d" stroke-width="0"/><path d="m85.33,12.84c.52-.7,1.12-1.34,1.8-1.9,1.59.45,3.26.55,4.9.3.26,0,.49-.16.6-.4.2,1,.6,2.1.7,3.1.59,3.03.92,6.11,1,9.2,0,1.6.3,3.2.4,4.8.02.87-.01,1.74-.1,2.6-.96-.37-1.98-.54-3-.5-1.16.08-2.3.31-3.4.7-1.9.5-3.4,1.8-5,2.8-.82.55-1.82.76-2.8.6-1.01-.51-1.87-1.27-2.5-2.2-.69-.89-1.32-1.83-1.9-2.8-.9-1.51-1.7-3.08-2.4-4.7-.43-.76-.57-1.65-.4-2.5.31-.89.58-1.79.8-2.7.55-.64.96-1.39,1.2-2.2,1.3,0,2.7.2,4,.1,1.6-.17,3.1-.83,4.3-1.9.6-.7,1.2-1.6,1.8-2.4h0Z" fill="#e97951" stroke-width="0"/><path d="m66.23,22.14c1.15-.5,2.45-.5,3.6,0,.3.2.7.4.6.8-.08,1.97-.02,3.94.2,5.9,0,1.1.3,2.2.4,3.4-1.2-.2-2.6,0-3.7-.7-.3-.2-.5-.3-.8-.5-.6-.43-1.11-.97-1.5-1.6-.44-.59-.75-1.28-.9-2-.08-.66-.12-1.33-.1-2,.11-.53.32-1.04.6-1.5.21-.82.81-1.5,1.6-1.8h0Z" fill="#dd4f31" stroke-width="0"/><path d="m76.53,26.74c.36.6.66,1.24.9,1.9.48,1.11,1.15,2.13,2,3,.5.6,1.1,1,1.7,1.6-.77-.22-1.48-.6-2.1-1.1-1.45-1.19-2.36-2.93-2.5-4.8v-.6Zm-10.1,4.3c.3.2.5.3.8.5,1.1.7,2.5.5,3.7.7v.2c-1.1,1-2.51,1.6-4,1.7h-1v-.4c.21-.89.38-1.79.5-2.7Z" fill="#c4603d" stroke-width="0"/><path d="m67.03,34.14c1.49-.08,2.91-.68,4-1.7.2,1.2.6,2.4.9,3.6.1.98.3,1.96.6,2.9.3,1,.6,1.9.9,2.9.57,1.82,1.41,3.54,2.5,5.1,1.66,2.01,3.62,3.77,5.8,5.2.73.58,1.54,1.05,2.4,1.4-3.72,1.64-7.74,2.45-11.8,2.4h-1.4c-1.3-.1-2.6-.1-3.9-.3-1.7-.16-3.38-.53-5-1.1-1.56-.57-3.04-1.34-4.4-2.3-.7-.5-1.4-.9-2.1-1.5-.19-.16-.33-.37-.4-.6.1-.1.2-.2.3-.2,1.71-.8,3.35-1.73,4.9-2.8,1.12-.69,2.16-1.49,3.1-2.4.58-.58,1.05-1.26,1.4-2,.39-1.3.62-2.64.7-4,.2-1.6.2-3.3.4-4.9v.4c.37.02.74-.01,1.1-.1h0Zm21.5-.8c1.18-.77,2.63-1.02,4-.7.66.2,1.21.67,1.5,1.3-.56.09-1.13.12-1.7.1-.97.05-1.94.15-2.9.3-.74.25-1.52.35-2.3.3.36-.53.84-.98,1.4-1.3Z" fill="#e97951" stroke-width="0"/><path d="m71.93,36.14c.44,1.13.94,2.23,1.5,3.3.54,1.06,1.17,2.06,1.9,3,.65.88,1.35,1.71,2.1,2.5,1.28,1.35,2.85,2.37,4.6,3,1.15.42,2.37.66,3.6.7,1.87.01,3.73-.29,5.5-.9.07.34.03.68-.1,1-.72,1.04-1.64,1.92-2.7,2.6-1.31.95-2.72,1.76-4.2,2.4-.84-.39-1.65-.86-2.4-1.4-2.22-1.38-4.19-3.14-5.8-5.2-1.07-1.57-1.91-3.29-2.5-5.1-.3-1-.7-1.9-.9-2.9-.29-.98-.49-1.98-.6-3ZM4.43,99.24l3,.6c2.4.3,4.8.8,7.2.9,1.6.2,3.2.2,4.7.3,2,.2,4,0,6,0,.87-.01,1.74-.08,2.6-.2-.3,1.1-.8,2.1-1.2,3.2s-.8,2.2-1.4,3.3c-.71.03-1.41-.03-2.1-.2-1-.2-2.1-.5-3.1-.7-1.74-.36-3.44-.86-5.1-1.5-1.47-.43-2.91-.96-4.3-1.6-1.1-.6-2.1-1.2-3.2-1.7-1.15-.51-2.2-1.22-3.1-2.1v-.3Z" fill="#c4603d" stroke-width="0"/><path d="m4.43,99.74c.95.81,1.99,1.52,3.1,2.1,1.1.5,2.1,1.2,3.2,1.7,1.37.68,2.82,1.22,4.3,1.6,1.67.59,3.37,1.09,5.1,1.5,1,.2,2.1.5,3.1.7.7.1,1.4.1,2.1.2-.9,2.3-1.9,4.6-2.9,7-.4.9-.7,1.9-1,2.8-.26.61-.46,1.25-.6,1.9-.15.99-.15,2.01,0,3,0,1.3.2,2.6.3,3.8.1,1.8.5,3.6.6,5.5.4,3.7,1.1,7.3,1.6,11,.25,2.45.75,4.86,1.5,7.2.64,1.61,1.56,3.1,2.7,4.4,1.01,1.09,1.88,2.3,2.6,3.6.57,1.19,1.04,2.43,1.4,3.7.29.82.53,1.65.7,2.5.33,1.12.59,2.25.8,3.4.08.39.12.8.1,1.2,0,.2-.3.3-.4.4-.81.29-1.71,0-2.2-.7-.7-1.01-1.3-2.08-1.8-3.2-.8.3-1.6.5-2.3.8-1.3.5-2.6.9-3.8,1.4-1.6.7-3.3,1.3-4.9,2-1.34-1.52-2.55-3.16-3.6-4.9-1-1.7-1.7-3.6-2.7-5.3-.5-1.1-1.1-2.3-1.6-3.4-1.6-3.7-3.2-7.4-4.5-11.3-.8-2.46-1.43-4.96-1.9-7.5-.3-1.5-.4-3-.6-4.4-.3-2.1-.6-4.2-.7-6.2s-.4-4.3-.4-6.4c0-1.4,0-2.8.1-4.1.2-1.8.5-3.6.7-5.4.3-2.3.7-4.6,1.2-6.9.35-1.21.59-2.45.7-3.7h0Z" fill="#e97951" stroke-width="0"/><path d="m131.13,110.94c.84-.11,1.68-.28,2.5-.5,0,.3.1.6.1.9v.5l-2.4.9c-2.32.85-4.69,1.55-7.1,2.1-1.83.58-3.7,1.01-5.6,1.3-1.78.32-3.6.38-5.4.2v-.3c-.17-1.46-.23-2.93-.2-4.4-.02-.21.02-.41.1-.6,2,0,4,.6,6,.5,1.4,0,2.8.2,4.2.1,2.61-.03,5.22-.27,7.8-.7Z" fill="#c4603d" stroke-width="0"/><path d="m133.73,111.84v-.5c.1,3-.1,6.1.3,9.1.15.91.35,1.81.6,2.7.57,2.43.94,4.91,1.1,7.4.32,2.96.38,5.93.2,8.9-.2,2.6-.5,5.2-.8,7.8-.69,5.98-2.1,11.86-4.2,17.5-.4,1-.8,2-1.1,3-.23.88-.36,1.79-.4,2.7-.57.02-1.14-.02-1.7-.1-.41-.1-.79-.31-1.1-.6.1-.2.1-.4.2-.6-.85-.2-1.72-.3-2.6-.3-1.3-.2-2.5-.4-3.7-.6-1.16-.23-2.3-.56-3.4-1,.35-1.1.55-2.24.6-3.4,0-1.3-.2-2.7-.3-4s-.3-2.5-.5-3.8c-.51-2.71-.88-5.45-1.1-8.2-.2-1.5-.3-2.9-.4-4.4v-7.8c.09-2.81-.08-5.62-.5-8.4-.14-.85-.34-1.68-.6-2.5-.27-1.52-.43-3.06-.5-4.6-.1-1.4-.4-2.7-.4-4.1v.3c1.8.13,3.61.07,5.4-.2,1.89-.33,3.76-.76,5.6-1.3,2.41-.55,4.78-1.25,7.1-2.1.68-.42,1.42-.72,2.2-.9h0Z" fill="#e97951" stroke-width="0"/><path d="m11.73,115.94c.1-.2.2-.4.4-.3,1.25-.09,2.51.08,3.7.5,1.29.39,2.53.92,3.7,1.6v.3c-.81-.39-1.64-.73-2.5-1-1.66-.76-3.47-1.13-5.3-1.1h0Zm110.6,5.3c.52-.19,1.05-.33,1.6-.4-.55.4-1.15.7-1.8.9-1.04.34-2.11.57-3.2.7-.48.03-.95-.04-1.4-.2.6-.3,1.2-.1,1.9-.3.9-.2,1.9-.5,2.9-.7Zm-5.3,46.1c1.1.44,2.24.77,3.4,1,1.2.2,2.5.5,3.7.6.88,0,1.75.1,2.6.3-.1.2-.1.4-.2.6.4.2.7.4,1.1.6.56.08,1.13.12,1.7.1.02.24-.02.48-.1.7-1.03.19-2.09.01-3-.5-.5-.3-.8-1-1.5-1-2-.08-3.98-.42-5.9-1-.7-.2-1.4-.4-2.2-.6.19-.23.33-.51.4-.8h0Z" fill="#c4603d" stroke-width="0"/><path d="m84.73,2.04c1.4-.16,2.81.16,4,.9,1.31.78,2.46,1.8,3.4,3,.63.88.97,1.92,1,3,.02.47-.01.94-.1,1.4h-.3c.1-.7.1-1.4,0-2.1-.34-1.48-1.19-2.78-2.4-3.7-.7-.62-1.47-1.16-2.3-1.6-1.02-.54-2.15-.85-3.3-.9h0Z" fill="#11303b" stroke-width="0"/><path d="m82.13,2.94c.71-.37,1.5-.54,2.3-.5,1.49-.02,2.95.4,4.2,1.2.82.61,1.53,1.35,2.1,2.2.65.92,1.06,1.98,1.2,3.1.09.61.02,1.23-.2,1.8-.2-.7-.1-1.4-.3-2.1-.17-.89-.51-1.74-1-2.5-.84-1.39-2.1-2.47-3.6-3.1-1.41-.5-2.93-.6-4.4-.3,0,.2-.2.2-.3.2h0Z" fill="#102f3b" stroke-width="0"/><path d="m80.63,3.84c.76-.34,1.57-.54,2.4-.6.9-.13,1.83-.06,2.7.2,1.15.38,2.2.99,3.1,1.8.61.63,1.09,1.38,1.4,2.2.47.9.54,1.95.2,2.9-.1.1-.2.5-.4.4.16-.48.23-.99.2-1.5-.07-.82-.34-1.61-.8-2.3-1.01-1.92-2.93-3.2-5.1-3.4-1.1-.08-2.21-.02-3.3.2,0,.1-.2.1-.4.1h0Zm-10.1,1.3c1.02-.88,2.36-1.32,3.7-1.2.52.04,1.03.17,1.5.4-1.31-.22-2.66-.08-3.9.4-.8.3-1.3,1.1-2.1,1.2.24-.29.51-.56.8-.8Z" fill="#102f3b" stroke-width="0"/><path d="m79.83,4.54c1.61-.55,3.34-.65,5-.3,1.17.26,2.25.85,3.1,1.7,1.12,1.21,1.57,2.89,1.2,4.5h-.2c.14-1.29-.14-2.59-.8-3.7-.47-.83-1.21-1.46-2.1-1.8-1.67-.73-3.54-.87-5.3-.4-1.37.35-2.66.96-3.8,1.8-.6.46-1.23.86-1.9,1.2-.58.32-1.24.49-1.9.5-.77.02-1.54-.02-2.3-.1-2.76.19-5.16,1.99-6.1,4.6-.3.93-.94,1.72-1.8,2.2-1.5.7-3.3.1-4.9.7-.55.26-1.09.56-1.6.9.3-.5.9-.7,1.4-1,.59-.29,1.24-.42,1.9-.4.84.03,1.68-.03,2.5-.2,1.09-.3,1.95-1.13,2.3-2.2.49-1.1,1.21-2.09,2.1-2.9,1.36-1.3,3.22-1.96,5.1-1.8,1.16.19,2.35.01,3.4-.5,1.38-1.21,2.97-2.16,4.7-2.8h0Z" fill="#163441" stroke-width="0"/><path d="m78.73,4.44c.2-.1.4-.1.6-.2v.1c-.3.1-.5.2-.8.3-1.3.6-2.5,1.3-3.8,1.9-.83.34-1.71.57-2.6.7-1.18-.02-2.36.11-3.5.4-1.7.45-3.14,1.57-4,3.1-.54,1.18-1.36,2.22-2.4,3-.9.5-2,.3-3,.6-.6.1-1.2.4-1.8.5.1-.1.2-.1.4-.2.68-.38,1.43-.62,2.2-.7.72.01,1.44-.12,2.1-.4,1.04-.77,1.89-1.76,2.5-2.9.73-1.36,1.94-2.4,3.4-2.9,1.26-.43,2.57-.67,3.9-.7.9-.05,1.78-.25,2.6-.6,1.32-.83,2.73-1.5,4.2-2h0Z" fill="#12323e" stroke-width="0"/><path d="m72.73,5.84c1.6-.1,2.9-1.1,4.4-1.5h.3c-1.13.68-2.34,1.21-3.6,1.6-.9.2-1.9.1-2.8.3-.6.1-1.2.3-1.8.4,1.05-.63,2.28-.91,3.5-.8Z" fill="#12313d" stroke-width="0"/><path d="m91.83,4.44c.95.54,1.63,1.44,1.9,2.5.27.82.23,1.71-.1,2.5.15-1.46-.25-2.91-1.1-4.1-.1-.4-.6-.6-.7-.9h0Zm-14.4,2.1c1.37-1.29,3.23-1.91,5.1-1.7,1.63.11,3.2.7,4.5,1.7,1.14.99,1.57,2.57,1.1,4l-.2.1c.18-.83.11-1.71-.2-2.5-.4-.95-1.15-1.7-2.1-2.1-1.71-.93-3.71-1.18-5.6-.7-1.09.24-2.08.84-2.8,1.7-.9.9-1.8,2-3.1,2.3-1.6.3-3.2-.5-4.7-.2-1.64.38-2.98,1.54-3.6,3.1-.22.86-.59,1.67-1.1,2.4v-.3c0-.2.2-.3.2-.5.4-.8.5-1.6.9-2.4.75-1.32,2.02-2.26,3.5-2.6,1.6-.3,3.1.5,4.6.3,1.6-.5,2.5-1.7,3.5-2.6h0Z" fill="#12323e" stroke-width="0"/><path d="m79.83,6.84c1.14-.58,2.46-.72,3.7-.4,1.16.33,2.16,1.08,2.8,2.1.24.41.44.85.6,1.3.05.05.09.12.1.2-.5-.2-.6-.8-.9-1.3-.59-.93-1.47-1.63-2.5-2-1.35-.34-2.78-.16-4,.5-1.1.6-1.9,1.6-2.9,2.2-.98.62-2.15.87-3.3.7-1.46-.34-2.98-.27-4.4.2-.98.62-1.75,1.53-2.2,2.6-.41.79-.91,1.53-1.5,2.2-.39.48-.87.89-1.4,1.2-.83.4-1.7.71-2.6.9-.72.18-1.47.22-2.2.1-.48,0-.96.1-1.4.3.18-.34.52-.56.9-.6.6-.02,1.2.02,1.8.1.62-.04,1.22-.17,1.8-.4,1.11-.2,2.13-.77,2.9-1.6,1.3-1.3,1.7-3.2,2.9-4.5.79-.72,1.84-1.09,2.9-1,1,0,2,.2,3.1.3.8-.04,1.58-.25,2.3-.6,1.2-.6,2.2-1.8,3.5-2.5h0Z" fill="#12313d" stroke-width="0"/><path d="m64.23,8.04c.62-.18,1.26-.31,1.9-.4v.2c-1.3.4-2.8.8-3.6,2-.6.8-.7,2-1.6,2.6.1-.3.3-.6.4-.9.21-.59.47-1.16.8-1.7.52-.78,1.25-1.41,2.1-1.8h0Z" fill="#11303b" stroke-width="0"/><path d="m78.13,9.84c.8-.87,1.85-1.46,3-1.7.87-.1,1.74.08,2.5.5.97.65,2.01,1.19,3.1,1.6v.2c-1.5-.3-2.6-1.6-4.1-1.9-.72-.22-1.5-.18-2.2.1-1.2.5-2,1.7-3.1,2.2-1.13.71-2.52.9-3.8.5-1.21-.48-2.56-.52-3.8-.1-.92.39-1.67,1.1-2.1,2-.44.89-.97,1.73-1.6,2.5-.72.74-1.62,1.29-2.6,1.6-.59.18-1.19.31-1.8.4-.1,0-.3-.1-.4-.1l2.3-.6c.91-.3,1.73-.82,2.4-1.5.55-.69.99-1.47,1.3-2.3.4-.85,1.02-1.58,1.8-2.1.98-.51,2.11-.69,3.2-.5.8.1,1.6.4,2.4.5,1.31.17,2.62-.32,3.5-1.3h0Z" fill="#102f3a" stroke-width="0"/><path d="m64.13,9.54c.3-.34.68-.62,1.1-.8-.5.6-1.1,1.1-1.6,1.7-.52.85-1.16,1.63-1.9,2.3-.32.23-.7.37-1.1.4.93-.45,1.7-1.19,2.2-2.1.37-.55.81-1.06,1.3-1.5Z" fill="#163441" stroke-width="0"/><path d="m78.13,11.24c1.44-.84,3.04-1.35,4.7-1.5v.2c-.68.09-1.34.22-2,.4-.8.3-1.5.7-2.3,1-1.09.5-2.23.91-3.4,1.2-.94.19-1.88.42-2.8.7-1.07.37-2.06.95-2.9,1.7-1.4,1.2-2.4,2.8-3.9,3.9-1.37.86-2.99,1.25-4.6,1.1-.21-.02-.42-.09-.6-.2.38-.16.79-.23,1.2-.2,1.38,0,2.72-.39,3.9-1.1.77-.62,1.48-1.33,2.1-2.1.79-.99,1.73-1.83,2.8-2.5,1-.58,2.08-1.01,3.2-1.3,1.6-.17,3.15-.61,4.6-1.3h0Z" fill="#102f3b" stroke-width="0"/><path d="m82.63,11.24c.59-.43,1.28-.7,2-.8-.55.26-1.09.56-1.6.9-.97.67-2.05,1.14-3.2,1.4-1.16.16-2.33.23-3.5.2-1.98.21-3.84,1.05-5.3,2.4-.8.8-1.5,1.7-2.3,2.4-1.05,1.15-2.31,2.1-3.7,2.8-1.45.49-2.98.7-4.5.6-.21-.02-.42-.09-.6-.2,1.37-.03,2.75-.16,4.1-.4.9-.26,1.74-.66,2.5-1.2.88-.71,1.72-1.48,2.5-2.3.74-.96,1.62-1.8,2.6-2.5,1.12-.91,2.47-1.49,3.9-1.7,1.5-.3,3-.1,4.4-.4.94-.32,1.84-.72,2.7-1.2Z" fill="#102f3b" stroke-width="0"/><path d="m84.53,11.14c.2-.2.4-.5.8-.5-.47.77-1.13,1.43-1.9,1.9-.75.47-1.56.84-2.4,1.1-1.5.4-3.1.2-4.6.5-1.5.24-2.91.86-4.1,1.8-1.6,1.2-2.8,2.9-4.4,4.1-1.19,1.03-2.65,1.69-4.2,1.9-1.19.22-2.42.18-3.6-.1.2-.2.6-.1.9-.1,1.8.22,3.62-.13,5.2-1,.97-.52,1.85-1.19,2.6-2,.7-.7,1.3-1.4,2-2.1,1.11-1.08,2.44-1.89,3.9-2.4,1.35-.47,2.78-.64,4.2-.5.99.09,1.99-.09,2.9-.5.96-.63,1.86-1.33,2.7-2.1Z" fill="#11313d" stroke-width="0"/><path d="m70.93,12.14c.6-.08,1.2-.12,1.8-.1-.28.14-.59.25-.9.3-1.48.21-2.78,1.09-3.5,2.4-.61.75-1.28,1.45-2,2.1-1.19,1.15-2.68,1.94-4.3,2.3-.62.15-1.28.15-1.9,0,.29-.11.59-.18.9-.2,1.62-.16,3.18-.74,4.5-1.7,1.01-.75,1.89-1.66,2.6-2.7.54-1.17,1.56-2.04,2.8-2.4Z" fill="#11303c" stroke-width="0"/><path d="m63.73,15.34c.38-.32.72-.69,1-1.1v.3c-.41.57-.96,1.01-1.6,1.3-1.05.42-2.18.59-3.3.5-.71-.08-1.42-.02-2.1.2-.4.1-.7.4-1.1.5.45-.59,1.16-.92,1.9-.9.8-.1,1.6.1,2.4,0,.98-.04,1.94-.31,2.8-.8h0Z" fill="#24404b" stroke-width="0"/><path d="m72.93,16.44c.47-.26.98-.46,1.5-.6-.8.6-1.7,1-2.5,1.7-1,.9-1.6,2.2-2.7,2.9-.6.2-1,.8-1.6.8.4-.3.9-.6,1.4-.9.3-.1.5-.4.7-.6l.9-1.2c.56-.9,1.36-1.62,2.3-2.1h0Z" fill="#102f3b" stroke-width="0"/><path d="m60.13,18.14c.3,0,.6-.2,1-.2.1,0,.3.1.4.1-.66.18-1.32.31-2,.4-.2,0-.3-.1-.5-.2.35-.13.73-.16,1.1-.1Z" fill="#2b4651" stroke-width="0"/><path d="m82.23,20.44c1.6-.73,3.41-.87,5.1-.4.6.1,1.4.3,1.6.9.1.2-.1.4-.2.6-.74-.5-1.6-.81-2.5-.9-.33-.1-.67-.1-1,0-1.06.05-2.1.25-3.1.6-.36.1-.74.1-1.1,0,.35-.33.76-.6,1.2-.8Z" fill="#1b4e61" stroke-width="0"/><path d="m93.03,21.44c-.13-.69.32-1.35,1.01-1.49.03,0,.06-.01.09-.01.08.15.12.33.1.5-.41.21-.78.48-1.1.8l-.1.2Z" fill="#1d5062" stroke-width="0"/><path d="m85.33,20.64c.33-.1.67-.1,1,0h-1Z" fill="#3d6372" stroke-width="0"/><path d="m93.13,21.34c.3-.35.67-.63,1.1-.8.49-.06.98.05,1.4.3-.74-.2-1.53-.01-2.1.5-.22.68-.29,1.39-.2,2.1,0,.86.17,1.71.5,2.5.35.67.91,1.2,1.6,1.5-.49.1-1-.1-1.3-.5-.88-1.03-1.34-2.35-1.3-3.7h-1.1c-.3,0-.6.1-.9.1s-.8.1-1.2.2c-.09,1.25-.51,2.46-1.2,3.5-.57.83-1.49,1.35-2.5,1.4-1.14.07-2.28-.17-3.3-.7-.59-.37-1.07-.89-1.4-1.5-.25-.36-.42-.77-.5-1.2-.13-.69-.17-1.4-.1-2.1l-1.5-.3c-1.58-.33-3.19-.56-4.8-.7v-.2c.21-.02.41.02.6.1.69.12,1.4.18,2.1.2-.95-.2-1.93-.3-2.9-.3l-.2.2c-1.63-.13-3.27-.17-4.9-.1-.21-.02-.42-.09-.6-.2.25-.36.67-.55,1.1-.5.8-.02,1.6.02,2.4.1,1.7.2,3.4.3,5.1.6.77.08,1.54.22,2.3.4.49.15.99.25,1.5.3.3-.55.75-1,1.3-1.3,1-.34,2.04-.55,3.1-.6h1c.89.1,1.75.41,2.5.9l.6.6c.15.32.25.65.3,1,1.05-.25,2.12-.35,3.2-.3.05-.51.15-1.01.3-1.5Z" fill="#102f3b" stroke-width="0"/><path d="m93.63,21.34c.52-.73,1.53-.9,2.26-.38.53.38.79,1.04.64,1.68.06,1.31-.07,2.63-.4,3.9-.04.38-.22.74-.5,1-.74-.21-1.34-.77-1.6-1.5-.31-.8-.48-1.64-.5-2.5-.27-.72-.24-1.51.1-2.2Zm-10.9.1c1.12-.38,2.32-.52,3.5-.4,1,.1,2.2.3,2.7,1.3.31.51.38,1.13.2,1.7-.09.73-.3,1.43-.6,2.1-.36.83-1.05,1.48-1.9,1.8-.85.25-1.75.25-2.6,0-1.31-.25-2.4-1.16-2.9-2.4-.37-.82-.44-1.74-.2-2.6l-.2.3.1-.3.3-.3h.1l.1-.1c.32-.52.82-.91,1.4-1.1Z" fill="#46acc3" stroke-width="0"/><path d="m83.93,21.74c.55-.3,1.18-.41,1.8-.3.56-.01,1.11.13,1.6.4-.49-.12-.99-.18-1.5-.2-.6,0-1.2.1-1.9.1Zm11.5.1c.4.2.4.7.4,1.1-.07.95-.24,1.89-.5,2.8.23-1.29.27-2.6.1-3.9Z" fill="#e6f0da" stroke-width="0"/><path d="m90.13,23.34c.6-.5,1.5-.3,2.2-.3-.3.1-.7.1-1,.2s-.8.2-1.2.1Z" fill="#f9f7dc" stroke-width="0"/><path d="m90.83,23.44c.29-.08.6-.12.9-.1.5.8,1,1.6,1.4,2.3.5.66.88,1.4,1.1,2.2.13.41.06.86-.2,1.2-.33.36-.74.63-1.2.8-.56.16-1.12.26-1.7.3-.2,0-.6.1-.6-.2-.05-.63-.05-1.27,0-1.9.1-1.6.1-3.1.3-4.6h0Z" fill="#dd4f31" stroke-width="0"/><path d="m66.23,25.14c.18-.8.88-1.37,1.7-1.4.55-.04,1.08.14,1.5.5.2.1.2.3.2.5-.6-.1-1.1-.7-1.7-.5-.77.04-1.4.63-1.5,1.4-.25,1.28.36,2.57,1.5,3.2.55.2,1.15.2,1.7,0,.11,0,.19.09.2.2-1.1.9-2.8.1-3.3-1.1-.39-.88-.5-1.86-.3-2.8h0Z" fill="#af3116" stroke-width="0"/><path d="m92.53,25.94c.54.53.86,1.25.9,2-.2-.7-.7-1.3-.9-2Z" fill="#f9f7dc" stroke-width="0"/><path d="m83.23,27.04c.8.32,1.64.49,2.5.5-.39.13-.8.17-1.2.1-.51.06-1.01-.17-1.3-.6Z" fill="#b6dcd3" stroke-width="0"/><path d="m80.23,29.14c.3-.64,1.02-.97,1.7-.8.62.16,1.1.67,1.2,1.3-.4-.1-.8-.3-1.1-.4.2.41.64.65,1.1.6.13.88-.47,1.7-1.35,1.83s-1.7-.47-1.83-1.35c-.06-.41.04-.84.28-1.18h0Z" fill="#dd4f31" stroke-width="0"/><path d="m91.33,28.94c.2,0,.5.1.5.3-.1.5-1.2.5-.9-.1.2-.1.3-.2.4-.2Z" fill="#af3116" stroke-width="0"/><path d="m88.53,33.84c.74-.45,1.55-.75,2.4-.9.93-.18,1.89.08,2.6.7-.43.11-.89.08-1.3-.1-.6-.02-1.2.02-1.8.1-.81.19-1.61.42-2.4.7,0-.3.2-.4.5-.5h0Z" fill="#c4603d" stroke-width="0"/><path d="m72.73,20.54c.3-1.1.3-2.3.7-3.5.07.6.03,1.21-.1,1.8-.1.5-.2.9-.3,1.4l-.3.3Zm-.4-1.7c-.12.66-.18,1.33-.2,2,.18-.52.31-1.06.4-1.6.1-.7.3-1.3.4-2-.33.48-.53,1.03-.6,1.6h0Zm-.9,1.8c.2-.5.2-1.1.4-1.6.17-.41.24-.86.2-1.3-.4.91-.6,1.9-.6,2.9Zm-.6-1.3c-.16.52-.23,1.06-.2,1.6.21-.76.38-1.52.5-2.3-.12.23-.22.46-.3.7Zm.7,3.2c-.13.28-.17.6-.1.9.05.77.15,1.54.3,2.3,0-.6-.1-1.2-.1-1.9.01-.44-.02-.87-.1-1.3h0Zm.6,0c-.07.67-.03,1.34.1,2,.06.5.23.98.5,1.4-.18-.76-.32-1.53-.4-2.3.04-.38-.03-.76-.2-1.1Zm-1.3,1.2c.02.77.08,1.54.2,2.3.05-.6.05-1.2,0-1.8.07-.5.03-1.01-.1-1.5-.2.3-.1.6-.1,1Zm1.2,2.3c0,.58.1,1.16.3,1.7.13.54.37,1.05.7,1.5-.39-1.05-.73-2.12-1-3.2Zm1.3-.1c.15.63.38,1.24.7,1.8.27.62.64,1.2,1.1,1.7-.08-.24-.18-.47-.3-.7-.6-.9-1-1.9-1.5-2.8h0Zm-1.9,2c.15.61.36,1.22.6,1.8-.2-1.1-.5-2.2-.8-3.3-.04.51.03,1.02.2,1.5h0Zm1.3-1.3c.16.58.36,1.15.6,1.7.17.46.41.9.7,1.3-.36-.71-.66-1.44-.9-2.2-.1-.2-.1-.6-.4-.8h0Zm-1.6,1.9c-.04.74.03,1.48.2,2.2.15.65.35,1.28.6,1.9-.1-.6-.3-1.2-.4-1.8-.19-.76-.32-1.52-.4-2.3h0Zm1.7,1.4c.22.62.49,1.22.8,1.8.15.39.39.73.7,1-.38-.75-.71-1.52-1-2.3-.2-.2-.2-.5-.5-.5Zm-.7.2c0,.42.11.83.3,1.2.13.51.37.99.7,1.4-.21-.45-.38-.92-.5-1.4-.2-.4-.3-.8-.5-1.2Zm2.6.1c.52,1.09,1.23,2.07,2.1,2.9-.52-.7-.99-1.43-1.4-2.2-.2-.3-.3-.7-.7-.7Zm-.7-.1c.06.5.23.98.5,1.4.24.47.54.91.9,1.3-.2-.4-.5-.8-.7-1.3-.17-.49-.41-.97-.7-1.4h0Zm17.3.6c.27.02.54-.02.8-.1-.3-.1-.6-.2-.8.1Zm1.8-.2c.36.28.76.48,1.2.6-.36-.28-.76-.48-1.2-.6Zm-17,0c.1.47.3.92.6,1.3.38.61.81,1.18,1.3,1.7-.3-.6-.7-1.1-1-1.6s-.6-1-.9-1.4Zm13.3.6c.59-.15,1.19-.25,1.8-.3-.62-.16-1.27-.05-1.8.3Zm2.8-.2l1.4.3c-.34-.23-.71-.39-1.1-.5-.1.1-.2.2-.3.2Zm-4.6.5c-.18.08-.32.22-.4.4.65-.26,1.29-.56,1.9-.9-.5.2-1,.3-1.5.5Zm3,0c.3.1.7-.1,1-.2-.35-.04-.7.03-1,.2Zm1.2-.1c.4.2.9.3,1.4.5-.38-.35-.88-.53-1.4-.5Zm-3.4.8c.68-.19,1.35-.42,2-.7-.6.2-1.5.2-2,.7Zm5.6-.7c.31.36.64.69,1,1-.2-.4-.5-.9-1-1Zm-3.9.8c.48-.07.95-.21,1.4-.4-.5,0-1.1-.1-1.4.4Zm-3.9.9c.37-.14.7-.34,1-.6.3-.3.7-.4,1-.7-.76.28-1.44.72-2,1.3Zm5.5-1.1c.37.02.74.09,1.1.2-.13-.16-.3-.26-.5-.3-.2,0-.5-.2-.6.1Zm1.8-.2c.32.35.69.66,1.1.9-.3-.4-.6-.9-1.1-.9Zm-5.6,1c-.19.11-.35.24-.5.4.39-.11.76-.27,1.1-.5.38-.18.75-.38,1.1-.6-.59.16-1.16.4-1.7.7Zm-3.2.6c.7-.3,1.3-.9,1.9-1.2-.74.2-1.4.62-1.9,1.2Zm8.2-1.1c.5.3,1,.5,1.4.8-.26-.53-.81-.85-1.4-.8Zm1.8.5c.18.35.38.68.6,1,0-.4-.1-.9-.6-1Zm-.6.4c.21.34.48.65.8.9-.2-.3-.3-.8-.8-.9Zm-22,.1c.05.83.25,1.65.6,2.4l-.6-2.4Zm.8,0c.12.61.29,1.21.5,1.8.09.25.23.49.4.7-.29-.71-.53-1.45-.7-2.2,0-.2-.1-.3-.2-.3h0Zm3.3.1c.14.46.34.9.6,1.3.17.43.45.8.8,1.1-.3-.6-.6-1.1-.9-1.7-.1-.2-.2-.6-.5-.7Zm-2.2.1c.12.51.29,1.02.5,1.5.11.33.28.64.5.9-.2-.6-.5-1.2-.7-1.7,0-.3,0-.6-.3-.7Zm.9,0c.16.48.36.95.6,1.4.2.36.43.69.7,1-.21-.59-.47-1.16-.8-1.7-.2-.3-.3-.6-.5-.7h0Zm9.1.9h.2c.34-.21.65-.48.9-.8-.45.14-.83.42-1.1.8Zm-6.6-.5c.2.7.6,1.2.8,1.9-.06-.56-.23-1.1-.5-1.6,0-.16-.14-.29-.3-.3Zm5.6.7c-.2.3-.4.5-.3.9.44-.52.81-1.09,1.1-1.7-.34.18-.62.46-.8.8h0Zm2.1.4c.4-.3.9-.6,1-1.1-.45.24-.81.63-1,1.1Zm-3.4,0c.29-.27.56-.58.8-.9-.4.1-.6.5-.8.9Zm2.1.1c-.19.1-.3.29-.3.5.49-.37.95-.78,1.4-1.2-.41.16-.78.4-1.1.7Zm2.8-.7c-.41.29-.69.71-.8,1.2.39-.37.76-.78,1.1-1.2h-.3Zm-8.1.1c.14.59.34,1.16.6,1.7-.04-.48-.14-.95-.3-1.4-.1-.2-.2-.2-.3-.3h0Zm1,0c.1.6.4,1.1.5,1.6.04-.58-.14-1.15-.5-1.6Zm13.1,0c.08.66.12,1.33.1,2,.3-.3.2-.8.2-1.2s.1-.7-.3-.8h0Zm-1.8.1c.09.61.22,1.21.4,1.8.07-.53.03-1.08-.1-1.6-.1,0-.2-.1-.3-.2Zm2.7,0c.2.55.3,1.12.3,1.7.15-.45.15-.95,0-1.4,0-.2-.2-.2-.3-.3Zm.8,0c.1.6.1,1.3.2,1.9.1-.5.1-1,0-1.5,0-.16-.08-.3-.2-.4Zm-2.4.8c.08.36.12.73.1,1.1.19-.63.12-1.32-.2-1.9-.07.27-.04.56.1.8Zm-1.9-.6c0,.6.2,1.1.2,1.7.18-.57.11-1.19-.2-1.7Zm-9.3.2v1.8c.21-.54.28-1.13.2-1.7,0-.1-.1-.1-.2-.1Zm14.4-.1c-.07.67-.03,1.34.1,2,.12-.67.09-1.35-.1-2Zm-13.4.8c-.25.27-.36.64-.3,1,.36-.48.64-1.02.8-1.6-.22.15-.39.36-.5.6Zm7.3-.6c.14.56.24,1.13.3,1.7.12-.5.08-1.02-.1-1.5.1-.1,0-.2-.2-.2h0Zm-.9.1c.09.54.22,1.08.4,1.6,0-.6.1-1.3-.4-1.6Zm-.8.1c.05.41.15.81.3,1.2.05.31.16.62.3.9-.02-.41-.08-.81-.2-1.2-.05-.33-.19-.64-.4-.9h0Zm-3.3,1.6c.3-.1.4-.4.6-.6s.5-.5.6-.9c-.55.35-.98.88-1.2,1.5Zm2.3-1c-.2.33-.31.71-.3,1.1.28-.39.48-.83.6-1.3-.1,0-.3,0-.3.2h0Zm-2.9.4c-.33.24-.54.6-.6,1,.29-.28.56-.58.8-.9.2-.3.4-.5.6-.8-.3.2-.5.5-.8.7Zm-1,.2c-.2.3-.5.5-.4.9.5-.3.7-.9,1-1.4-.3.1-.4.3-.6.5Zm-9.4-.3c.02.83.3,1.64.8,2.3l-.3-.9c-.06-.5-.23-.98-.5-1.4Zm1.8-.1c0,.62.21,1.22.6,1.7-.17-.58-.37-1.14-.6-1.7Zm2.9.1c.06.64.16,1.27.3,1.9.07-.53.03-1.08-.1-1.6,0-.1,0-.3-.2-.3h0Zm7.2.8c.34-.21.65-.48.9-.8-.5,0-.7.5-.9.8Zm2-.9c-.17.53-.13,1.1.1,1.6,0-.4.1-.8.1-1.2-.03-.15-.09-.29-.2-.4Zm-10.1.2c.07.58.21,1.15.4,1.7-.02-.54-.08-1.07-.2-1.6-.08-.01-.15-.05-.2-.1h0Zm-.9.3c.04.52.17,1.03.4,1.5-.07-.51-.21-1.02-.4-1.5Zm2.9,0c-.02.54.02,1.07.1,1.6.3-.5.1-1.1.2-1.6h-.3Zm-4.7,0c.1.5.3.98.6,1.4-.2-.5-.4-.9-.6-1.4Zm19.5.1c.05.54.15,1.08.3,1.6.08-.29.12-.6.1-.9,0-.3,0-.7-.4-.7Zm-1.8,0c.04.64.14,1.28.3,1.9.08-.22.12-.46.1-.7-.1-.4-.1-.9-.4-1.2Zm1.2,1.8c.08-.61.01-1.23-.2-1.8-.04.61.03,1.22.2,1.8Zm1.6-1.7c.1.5.1,1,.2,1.5.14-.51.07-1.05-.2-1.5Zm-3.7.1c.02.6.08,1.21.2,1.8.1-.53.1-1.07,0-1.6,0,0,0-.1-.2-.2Zm-1.8.2c.1.6.2,1.1.3,1.7.15-.49.15-1.01,0-1.5-.1-.2-.2-.2-.3-.2Zm1.1,0c.1.5.1,1,.2,1.6.1-.5.1-1,0-1.5-.05-.06-.12-.09-.2-.1Zm-10.4.3l-.3,1.5c.24-.58.45-1.19.6-1.8l-.3.3Zm.6,1.1c.33-.38.63-.78.9-1.2-.5.2-.6.7-.9,1.2Zm3.1-.2c.44-.2.8-.56,1-1-.44.2-.8.56-1,1Zm4.8-1.1c.1.5.1,1,.2,1.5.13-.35.17-.73.1-1.1-.1-.2-.1-.4-.3-.4h0Zm-6.1,1.7c.2-.2.4-.5.6-.7.22-.19.39-.43.5-.7-.57.27-.97.79-1.1,1.4Zm2.3.1l.9-1.5c-.6.3-.7.9-.9,1.5Zm-3.1.2c.29-.47.53-.97.7-1.5-.41.4-.66.93-.7,1.5Zm4.3-1c-.2.48-.3.99-.3,1.5.24-.58.45-1.19.6-1.8-.16,0-.29.14-.3.3h0Zm1.9-.5c0,.6.1,1.2.1,1.8.17-.59.13-1.23-.1-1.8Zm-1.1.6c-.07.5-.03,1.01.1,1.5.08-.5.12-1,.1-1.5h-.2Zm-11.4,0c.11.49.27.96.5,1.4-.03-.5-.2-.99-.5-1.4Zm1.5,1.7c.02-.57-.02-1.14-.1-1.7-.07.57-.03,1.14.1,1.7Zm.8-1.3c-.04.48.03.95.2,1.4.1-.56.1-1.14,0-1.7-.2.1-.2.2-.2.3Zm.9,1.5c.12-.52.19-1.06.2-1.6-.16.52-.23,1.06-.2,1.6Zm4.4.5c.1-.7.4-1.3.5-1.9-.45.52-.63,1.22-.5,1.9Zm10.9-1.9c.02.7-.02,1.4-.1,2.1.2-.54.31-1.12.3-1.7-.03-.15-.09-.29-.2-.4h0Zm.8,0c-.05.67-.05,1.33,0,2,.17-.55.24-1.13.2-1.7,0-.1-.1-.2-.2-.3Zm-13.8.5c-.24.5-.37,1.05-.4,1.6.3-.6.5-1.3.8-1.9-.2,0-.3.1-.4.3Zm12.1-.5c-.05.67-.05,1.33,0,2,.17-.23.24-.52.2-.8.08-.41.01-.84-.2-1.2Zm2.5.1c.02.73-.02,1.47-.1,2.2.2-.48.3-.99.3-1.5.04-.25-.03-.51-.2-.7h0Zm-7,0c-.1.56-.1,1.14,0,1.7.25-.54.25-1.16,0-1.7Zm3.6.8c-.05.4-.05.8,0,1.2.21-.61.28-1.26.2-1.9-.3.1-.2.5-.2.7Zm-13,1.2c.2-.58.3-1.19.3-1.8-.2.58-.31,1.19-.3,1.8Zm4.7,0c.21-.59.38-1.19.5-1.8-.41.51-.59,1.16-.5,1.8Zm5.5-1.8v1.9c.21-.47.28-.99.2-1.5,0-.16-.08-.3-.2-.4Zm1,.1c.02.57-.02,1.14-.1,1.7h.2c.12-.56.18-1.13.2-1.7h-.3Zm.8-.1v1.7c.27-.45.34-.99.2-1.5,0-.1-.1-.1-.2-.2Zm-3.7.1c-.05.4-.05.8,0,1.2-.03.22.05.44.2.6.09-.61.02-1.23-.2-1.8Zm-5.5,2c.1-.3.2-.7.3-1.1.1-.2.3-.5.2-.7-.43.49-.61,1.16-.5,1.8Zm3,0c.16-.56.26-1.12.3-1.7-.5.4-.4,1.1-.3,1.7Zm-5-1.2c-.15.52-.25,1.06-.3,1.6.23-.58.36-1.18.4-1.8-.01.08-.05.15-.1.2Zm1.2.6c-.12.53-.18,1.06-.2,1.6.15-.75.35-1.48.6-2.2-.21.14-.35.35-.4.6Zm4.8-.5c-.12.5-.08,1.02.1,1.5v-1.6c.1,0,0,.1-.1.1Zm-10.3.1c.1.5.4,1,.5,1.5-.01-.54-.19-1.06-.5-1.5Zm1,.5c.03.62.16,1.23.4,1.8-.02-.64-.09-1.27-.2-1.9-.08,0-.15.04-.2.1h0Zm10.1,0c-.12.47-.09.96.1,1.4.05-.4.05-.8,0-1.2-.01-.08-.05-.15-.1-.2Zm-9,.3c-.02.57.02,1.14.1,1.7v-1.9c0,.1,0,.2-.1.2Zm4.7-.1c-.15.52-.15,1.08,0,1.6.12-.53.18-1.06.2-1.6,0,.1-.1,0-.2,0Zm-3.8.5c-.15.62-.15,1.28,0,1.9.1-.6.1-1.3.2-1.9h-.2Zm4.8,1.9c-.08-.7-.12-1.4-.1-2.1-.22.69-.19,1.43.1,2.1Zm4.2-.3c.18-.58.22-1.2.1-1.8-.13.59-.17,1.2-.1,1.8Zm.5-.3c.31-.44.38-1,.2-1.5-.1.5-.1,1-.2,1.5Zm.6.1c.13-.49.17-1,.1-1.5-.08.5-.12,1-.1,1.5Zm2-.9c0,.37-.08.75-.2,1.1.39-.51.51-1.19.3-1.8-.08.22-.12.46-.1.7h0Zm-1.1-.4c-.02.6-.08,1.21-.2,1.8.33-.5.47-1.1.4-1.7-.05-.06-.12-.09-.2-.1h0Zm2.4,0c-.04.62-.17,1.22-.4,1.8.35-.58.55-1.23.6-1.9-.1,0-.1.1-.2.1Zm1.6,1.8c.37-.56.51-1.24.4-1.9-.18.62-.31,1.26-.4,1.9Zm-.7-1.2c0,.4-.2.8-.2,1.3.38-.56.55-1.23.5-1.9-.3.1-.3.4-.3.6Zm1.8-.5c-.15.62-.25,1.26-.3,1.9.38-.56.55-1.23.5-1.9h-.2Zm-10.5,1.6c0-.5.1-1,.1-1.6-.28.49-.32,1.08-.1,1.6Zm.8-1.1c-.02.37.01.74.1,1.1.08-.5.12-1,.1-1.5-.2.1-.3.2-.2.4Zm-4.9.2c-.1.53-.1,1.07,0,1.6.1-.7.1-1.3.2-2-.1.2-.2.3-.2.4Zm5.9-.1c.1.4,0,1,.3,1.3.02-.44-.02-.87-.1-1.3h-.2Zm-6.7.6c.1.5.1,1,.2,1.4.05-.67.05-1.33,0-2-.3.1-.2.4-.2.6Zm2.5,1.2v-1.7c-.3.53-.3,1.17,0,1.7Zm-4.5-1.1c.08.62.32,1.2.7,1.7-.1-.4-.3-.8-.4-1.2s-.1-.5-.3-.5h0Zm3.3.6c-.02.47.01.94.1,1.4,0-.7.1-1.4.1-2.2-.2.3-.1.6-.2.8Zm6.2-.4c0,.3.1.7.1,1,.13-.32.17-.66.1-1,0-.1-.1,0-.2,0Zm-4.5,0c-.04.57.03,1.15.2,1.7.02-.54-.02-1.07-.1-1.6l-.1-.1Zm5.7.6c.3-.1.2-.4.2-.6-.3.1-.2.4-.2.6Zm-4.1-.2c.04.38.14.75.3,1.1,0-.4-.1-.8-.1-1.1h-.2Zm.7,0c0,.33.1.64.3.9.01-.34-.02-.67-.1-1,0,.1-.1.1-.2.1h0Zm1.3.9c.07-.34.03-.68-.1-1-.17.32-.13.72.1,1Zm2.7-.8l-.3,1.5c.28-.45.42-.97.4-1.5h-.1Zm1.6,1.5c.3-.45.47-.96.5-1.5-.23.48-.39.98-.5,1.5Zm1.3-1.5c-.19.55-.33,1.12-.4,1.7.35-.5.55-1.09.6-1.7h-.2Zm-13.2,0c0,.2-.1.4,0,.6.1.5.3.98.6,1.4-.2-.7-.4-1.4-.6-2Zm10.8,1.5c.33-.43.47-.97.4-1.5-.2.5-.2,1-.4,1.5Zm3.2-.8c-.09.38-.22.75-.4,1.1.39-.45.63-1.01.7-1.6-.2,0-.2.3-.3.5h0Zm1.1,0c-.18.38-.38.75-.6,1.1.15-.07.29-.18.4-.3.34-.39.55-.88.6-1.4-.3.1-.3.4-.4.6Zm-10.1,1.1c-.02-.54-.09-1.07-.2-1.6-.13.54-.06,1.11.2,1.6Zm4.2.1c.41-.42.6-1.02.5-1.6-.24.51-.41,1.05-.5,1.6Zm-.5-1.3c-.05.43-.05.87,0,1.3.16-.41.23-.86.2-1.3h-.2Zm6.2,1.7c.44-.3.79-.71,1-1.2.1-.2.1-.4.2-.6-.43.58-.83,1.18-1.2,1.8Zm-7.1-1.3v1.1c.3-.4.1-.9.2-1.4-.1.1-.2.2-.2.3Zm-6.9,0c-.03.52.15,1.02.5,1.4-.01-.51-.19-1-.5-1.4Zm5.9-.1c-.18.44-.11.94.2,1.3-.02-.44-.08-.88-.2-1.3Zm-3.9.6c0,.48.1.96.3,1.4-.1-.6-.1-1.2-.2-1.8,0,.1-.1.2-.1.4h0Zm-1.1.3c.12.42.29.82.5,1.2-.17-.56-.3-1.13-.4-1.7-.2,0-.1.3-.1.5Zm1.8-.5c.08.53.24,1.03.5,1.5-.06-.54-.16-1.07-.3-1.6-.08.01-.15.05-.2.1Zm2.3,0c-.1.4.2.8.4,1.1-.09-.38-.22-.75-.4-1.1Zm-1.3.7c.09.25.23.49.4.7-.02-.24-.09-.48-.2-.7,0-.1-.1,0-.2,0h0Zm5,1.4c.46-.36.72-.92.7-1.5-.29.47-.53.97-.7,1.5Zm.7.2c.32-.32.59-.69.8-1.1.1-.1,0-.3,0-.5-.3.5-.5,1-.8,1.6Zm2.6-1.4c-.34.48-.64.98-.9,1.5.44-.44.82-.94,1.1-1.5h-.2Zm-1,.1c-.29.4-.53.84-.7,1.3.44-.38.79-.86,1-1.4-.1,0-.2.1-.3.1Zm1.8.2c-.2.4-.5.7-.7,1.1.49-.28.85-.75,1-1.3-.1,0-.2.1-.3.2Zm-4.7-.2c-.2.4-.3.9-.5,1.3v.2c.32-.33.53-.75.6-1.2.01-.11-.02-.22-.1-.3Zm-1.1,1.6c.2-.48.3-.99.3-1.5-.29.44-.4.98-.3,1.5Zm-.9-1.2c.02.44.08.88.2,1.3.05-.47.05-.93,0-1.4,0,.1-.2.1-.2.1Zm-1.4.2c.2.5.4,1.1,1,1.2-.3-.4-.5-.8-.8-1.2,0-.1-.1,0-.2,0Zm-.7.1c.15.58.56,1.05,1.1,1.3-.4-.41-.76-.84-1.1-1.3Zm-1.1.1c.06.43.27.82.6,1.1-.1-.3-.3-.7-.4-1-.1,0-.1-.1-.2-.1Zm.7.5c.14.22.3.43.5.6l-.3-.6h-.2Zm4.2.9c.34-.18.62-.46.8-.8-.4,0-.6.5-.8.8Zm.8,0c.33-.16.58-.45.7-.8-.33.16-.59.45-.7.8Zm-2-.3c0,.19.07.36.2.5.07-.16.11-.33.1-.5-.1-.1-.2,0-.3,0h0Z" fill="#223f4a" stroke-width="0"/><path d="m92.93,49.74h.2c.1.15.1.35,0,.5-.82,1.25-1.87,2.34-3.1,3.2-.7.5-1.3.9-2,1.4-.94.66-1.95,1.23-3,1.7-1.03.52-2.1.95-3.2,1.3-.8.2-1.7.5-2.5.7-2,.3-4,.8-6,.9-1.46.13-2.93.17-4.4.1-1.14-.03-2.28-.16-3.4-.4-1.18-.21-2.35-.48-3.5-.8-1.77-.72-3.48-1.59-5.1-2.6-.78-.54-1.51-1.15-2.2-1.8-.55-.55-1.06-1.16-1.5-1.8-.29-.35-.56-.72-.8-1.1-.1-.1-.1-.2-.1-.4.1,0,.3.1.4.1.1.6.7.9,1,1.4.56.82,1.23,1.57,2,2.2.49.34.95.71,1.4,1.1.61.44,1.24.84,1.9,1.2,1,.5,1.9,1,2.9,1.4,1.88.5,3.78.9,5.7,1.2,1.93.17,3.88.13,5.8-.1.56-.08,1.13-.11,1.7-.1,1.4-.2,2.7-.6,4.1-.7.88-.19,1.75-.42,2.6-.7.72-.21,1.42-.47,2.1-.8,1-.4,1.9-.9,2.9-1.4.77-.41,1.5-.88,2.2-1.4.95-.59,1.83-1.29,2.6-2.1.51-.69.94-1.42,1.3-2.2h0Zm-37.8,18.5c.1,0,.3-.1.4-.1-.23.19-.51.33-.8.4-2.01.87-3.95,1.91-5.8,3.1-1.2.69-2.31,1.53-3.3,2.5-.5.4-1,.9-1.5,1.3.7-.7,1.3-1.5,2-2.1,1.3-1.08,2.7-2.02,4.2-2.8,1.54-.89,3.14-1.65,4.8-2.3h0Zm43.7.1c.7.9,1.3,1.8,2,2.6,1.45,1.76,2.75,3.63,3.9,5.6.53.88.97,1.82,1.3,2.8-.98-2.18-2.22-4.23-3.7-6.1-1.28-1.55-2.45-3.19-3.5-4.9h0Zm-62.7,16c.1-.3.1-.6.4-.8-.65,2.74-1.45,5.45-2.4,8.1-.26.62-.56,1.22-.9,1.8-.61,1.09-1.31,2.13-2.1,3.1-.69.76-1.32,1.56-1.9,2.4-.5.8-1,1.6-1.5,2.3h-.3c.14-.65.41-1.26.8-1.8.15-.2.22-.45.2-.7h-1.4c-.53.08-1.06.12-1.6.1-.52-.04-1.03-.17-1.5-.4-.49-.15-1.01-.15-1.5,0-.7.1-1.3.6-2,.6-1.78-.09-3.56-.32-5.3-.7-2.1-.5-4.3-.8-6.4-1.4-1.09-.21-2.16-.51-3.2-.9-.3-.1-.6-.2-.7-.5.9.2,1.7.5,2.6.7,2.8.6,5.7,1.2,8.5,1.9,1.28.3,2.59.5,3.9.6.55.05,1.1-.05,1.6-.3.86-.45,1.86-.56,2.8-.3.67.25,1.39.35,2.1.3.76-.13,1.53-.17,2.3-.1-.65-1.65-1.52-3.2-2.6-4.6-.4-.6-1.3-.8-1.6-1.5.71.32,1.35.76,1.9,1.3.99,1.25,1.8,2.63,2.4,4.1.17-1.93.13-3.88-.1-5.8-.07-1.11-.24-2.22-.5-3.3-.3-1.1-.6-2.3-1-3.4-.1-.2,0-.4,0-.6.63,1.24,1.1,2.55,1.4,3.9.34,1.55.57,3.12.7,4.7.1,1.4,0,2.8,0,4.2,0,.42-.11.83-.3,1.2.55-.95,1.22-1.82,2-2.6,1.02-1.23,1.89-2.57,2.6-4,1.06-2.46,1.93-5,2.6-7.6h0Zm77,4.7c.53,1.35.87,2.76,1,4.2.2,1,.2,2.1.4,3.1.02.9.08,1.8.2,2.7.8-2.06,1.8-4.04,3-5.9.47-.9,1.01-1.77,1.6-2.6-1.2,2.8-2.9,5.3-4.1,8.1-.32.69-.49,1.44-.5,2.2-.05,1.78-.25,3.55-.6,5.3,1-1.6,2.2-3.2,3.3-4.7,1.5-2,2.7-4.1,4.1-6.1.38-.64.81-1.24,1.3-1.8-.14.46-.34.9-.6,1.3-1.2,1.9-2.3,3.9-3.6,5.7s-2.9,3.6-4.1,5.5c-.3.49-.51,1.03-.6,1.6.38.16.79.23,1.2.2.6-.1,1.3-.4,1.9-.1.8.55,1.68.99,2.6,1.3,1.26.38,2.59.52,3.9.4,1.48-.07,2.95-.23,4.4-.5,2.49-.38,4.92-1.12,7.2-2.2.31-.16.65-.26,1-.3-.54.43-1.15.77-1.8,1-1.99.91-4.12,1.49-6.3,1.7-2.6.3-5.3,1-8,.4-1.08-.26-2.1-.74-3-1.4-.5-.3-1.2,0-1.7.1-.41.03-.82-.04-1.2-.2l-.3,1.8c0,.5.1,1.1.1,1.6h-.2v-.3h-.1v-.3c-.06-1.17-.33-2.32-.8-3.4-.6-1.8-1.2-3.6-2-5.4-.63-1.61-1.37-3.18-2.2-4.7-.2-.5-.7-1-.6-1.7.1.2.1.3.2.5.5.8,1,1.7,1.4,2.5.5,1,1,2,1.4,3,.9,2.03,1.7,4.09,2.4,6.2.09.45.22.88.4,1.3.2-1,.1-2,.3-2.9.76-3.58.93-7.26.5-10.9-.14-1.65-.37-3.28-.7-4.9-.56-.22-.89-.8-.8-1.4h0Z" fill="#1e40af" stroke-width="0"/><path d="m128.13,96.54c.18-.28.42-.52.7-.7-1,1.56-2.17,3-3.5,4.3-.89.92-1.72,1.89-2.5,2.9-.2.2-.3.4-.5.5.6-.6,1-1.4,1.6-2,1.3-1.8,2.9-3.3,4.2-5h0Zm-101.5,9.1c-.07-.69.07-1.39.4-2,0,.6-.1,1.2-.1,1.8,0,.3-.1.6.1.9-.06.98.27,1.95.9,2.7.9,1.08,1.98,2,3.2,2.7,1.41.74,2.93,1.24,4.5,1.5,1.35.33,2.72.56,4.1.7.5,0,.9-.1,1.4-.1-.2.3-.6.3-1,.4-1.11.05-2.22-.05-3.3-.3-1.9-.19-3.76-.7-5.5-1.5-1.16-.58-2.21-1.36-3.1-2.3-.58-.6-1.03-1.31-1.3-2.1-.29-.76-.4-1.59-.3-2.4h0Zm63.2.1c1-.2,2-.4,3-.7v.2c-2.1.6-4.3,1-6.5,1.5-5.1,1.07-10.14,2.41-15.1,4-1.4.5-2.8.9-4.2,1.3-.7.2-1.3.6-1.9.8.07-.21.22-.38.4-.5.9-.54,1.88-.95,2.9-1.2,2.2-.7,4.3-1.4,6.5-2.1s4.6-1.3,7-1.8c2.6-.5,5.2-1,7.9-1.5h0Zm5.5,5.3c1.12-.47,2.19-1.04,3.2-1.7-.55.54-1.19.98-1.9,1.3-1.27.71-2.61,1.28-4,1.7-1.9.6-3.8,1.3-5.7,1.8-2.29.6-4.64,1-7,1.2l-3,.3c-.4.05-.8.05-1.2,0,2.1-.4,4.3-.5,6.4-.9,2.53-.46,5.04-1.06,7.5-1.8,1.93-.53,3.84-1.16,5.7-1.9h0Zm14.4,8.6c.1-.1.1-.3.2-.4-.2,1.12-.57,2.2-1.1,3.2-1.07,2.17-1.52,4.59-1.3,7-.25-.35-.36-.78-.3-1.2-.11-2.04.31-4.07,1.2-5.9.4-.8.9-1.7,1.3-2.7h0Z" fill="#1e40af" stroke-width="0"/><path d="m30.73,121.94c.24-.53.58-1,1-1.4.1.3-.3.6-.4.9-1.76,3.83-3.16,7.81-4.2,11.9-.57,1.91-1.04,3.84-1.4,5.8-.14-.28-.14-.62,0-.9.4-2.2,1-4.3,1.6-6.4.77-3.41,1.91-6.73,3.4-9.9h0Z" fill="#6f6fd8" stroke-width="0"/></g></svg>