<?xml version="1.0" encoding="UTF-8"?><svg id="Layer_1" xmlns="http://www.w3.org/2000/svg" xmlns:xlink="http://www.w3.org/1999/xlink" viewBox="0 0 112 121.35"><defs><clipPath id="clippath"><rect width="112" height="121.35" fill="none" stroke-width="0"/></clipPath></defs><path d="m78.08,48.8s6.91,1.22,12.5,6.75-13.46,9.49-13.46,9.49l.96-16.24Z" fill="#1e3a8a" stroke-width="0"/><rect x="64.86" y="23.24" width="13.52" height="8.44" rx="2.81" ry="2.81" transform="translate(99.08 -44.16) rotate(90)" fill="#e97951" stroke-width="0"/><rect x="44.53" y="48.37" width="24.57" height="23.84" rx="2.81" ry="2.81" transform="translate(117.1 3.47) rotate(90)" fill="#f9f8dc" stroke-width="0"/><rect x="25.77" y="55.06" width="59.35" height="73.23" rx="2.81" ry="2.81" transform="translate(147.13 36.23) rotate(90)" fill="#1b4e61" stroke-width="0"/><rect x="55.02" y="25.4" width="13.52" height="8.44" rx="2.81" ry="2.81" transform="translate(91.4 -32.16) rotate(90)" fill="#e97951" stroke-width="0"/><rect x="49.89" y="14.94" width="13.84" height="9.24" rx="2.81" ry="2.81" transform="translate(102.15 -19.87) rotate(120)" fill="#e97951" stroke-width="0"/><rect x="46.03" y="24.55" width="13.52" height="8.44" rx="2.81" ry="2.81" transform="translate(81.57 -24.02) rotate(90)" fill="#e97951" stroke-width="0"/><rect x="45.02" y="30.79" width="13.52" height="8.44" rx="2.81" ry="2.81" transform="translate(86.79 -16.76) rotate(90)" fill="#e97951" stroke-width="0"/><rect x="54.27" y="33" width="13.52" height="8.44" rx="2.81" ry="2.81" transform="translate(98.26 -23.81) rotate(90)" fill="#e97951" stroke-width="0"/><g clip-path="url(#clippath)"><path d="m73.37,40.35c.07-.15.18-.29.3-.4,1,.1,1.6,1,2.2,1.7,1.02,1.27,2.12,2.47,3.3,3.6.75.69,1.42,1.46,2,2.3-.21-.02-.42-.09-.6-.2-1.06-.5-2.06-1.11-3-1.8-.88-.67-1.91-1.12-3-1.3-.2,1.3-.5,2.5-.8,3.7-.3,1.7-.6,3.4-1,5.1-.21.65-.38,1.32-.5,2,0-.1-.1-.2-.1-.4.09-.64.22-1.28.4-1.9.3-1.62.5-3.26.6-4.9.1-1.2.3-2.5.3-3.7s-.1-2.5-.1-3.8h0Zm-28,.6c.3-.26.63-.46,1-.6.29.06.49.31.5.6-.38.39-.66.87-.8,1.4-1.3,3.4-2.5,7-2.5,10.7-.1,1.1.1,2.3.1,3.4.1,1.5.4,3,.6,4.6-.1-.1-.3-.2-.3-.4-.2-1.1-.5-2.1-.6-3.2-.17-.79-.23-1.59-.2-2.4,0-1.3-.1-2.7,0-4,.13-1.28.36-2.55.7-3.8.25-1.27.61-2.51,1.1-3.7.17-.73.13-1.49-.1-2.2.2-.2.4-.3.5-.4Z" fill="#1e3a8a" stroke-width="0"/><path d="m69.97,42.95c1.1-.9,2.3-1.7,3.4-2.6,0,1.3.2,2.5.1,3.8s-.2,2.5-.3,3.7c-.1,1.64-.3,3.28-.6,4.9-.09-.15-.13-.33-.1-.5.1-1.3,0-2.6,0-3.9.02-.83-.02-1.67-.1-2.5-1.1.5-2.3,1-3.5,1.5s-2.4,1.1-3.6,1.7c-.5.3-1.2.4-1.7.7-.85.47-1.76.84-2.7,1.1-.56.14-1.13.24-1.7.3-.3-.3-.6-.5-.9-.8-.4.2-.7.4-1.1.6l-1.7-.3c-1.07-.3-2.11-.7-3.1-1.2-1.63-.88-3.17-1.92-4.6-3.1-.45-.35-.85-.75-1.2-1.2-.65.78-1.22,1.61-1.7,2.5-.1.2-.2.4-.1.5.6,1.1,1.3,2.1,1.9,3.2.81,1.3,1.71,2.53,2.7,3.7.2.2.4.6.7.6.49-.23.96-.5,1.4-.8.9-.5,1.7-1.2,2.6-1.7.02.21.09.42.2.6.5,1.12,1.1,2.19,1.8,3.2-1,1.8-1.6,3.8-2.5,5.7.04-.58.17-1.16.4-1.7.4-1.2.8-2.5,1.3-3.7-.42-.53-.79-1.1-1.1-1.7-1.36.41-2.78.58-4.2.5-.34-.21-.65-.48-.9-.8l-2.1-2.7c-.5-.7-1-1.5-1.5-2.3-.37,1.34-.64,2.71-.8,4.1,0,.7-.2,1.4-.2,2.1,0,1.4-.1,2.9,0,4.3,0,.7.2,1.4.2,2.1-.17-.56-.3-1.13-.4-1.7-.2-1.5-.5-3-.6-4.6-.13-1.13-.17-2.27-.1-3.4.13-3.7.98-7.33,2.5-10.7.17-.52.44-.99.8-1.4.67.98,1.48,1.86,2.4,2.6.76.95,1.72,1.73,2.8,2.3.5.3,1.1.5,1.6.8,1.74.83,3.68,1.17,5.6,1,1.55-.08,3.06-.52,4.4-1.3.8-.4,1.6-.8,2.3-1.2,1.38-.69,2.71-1.45,4-2.3h0Z" fill="#d9cea8" stroke-width="0"/><path d="m40.17,44.75c1.48-1.28,3.05-2.45,4.7-3.5.23.71.27,1.47.1,2.2-.46,1.2-.83,2.44-1.1,3.7-.3,1.3-.5,2.6-.7,3.8s0,2.7,0,4c-.03.81.03,1.61.2,2.4.1,1.1.4,2.1.6,3.2,0,.2.2.3.3.4.1.6.3,1.2.4,1.7.51,2,1.21,3.94,2.1,5.8.41.9.87,1.77,1.4,2.6.67,1.17,1.41,2.3,2.2,3.4.9,1.2,1.7,2.5,2.6,3.7s1.7,2.2,2.5,3.2c.7-.7,1.5-1.4,2.2-2s1.5-1.4,2.3-2.1c.51-.43.95-.93,1.3-1.5.52-.49.99-1.02,1.4-1.6.8-1,1.6-2,2.3-3,1-1.5,1.9-3.1,2.8-4.6.73-1.25,1.37-2.55,1.9-3.9.28-.58.51-1.18.7-1.8.3-.9.6-1.9.8-2.8.2-1.2.6-2.3.8-3.5,0,.1.1.2.1.4.2-.7.3-1.3.5-2,.4-1.7.6-3.4,1-5.1.3-1.2.6-2.5.8-3.7,1.09.18,2.12.63,3,1.3.94.69,1.94,1.3,3,1.8.18.11.39.18.6.2.67.93,1.02,2.05,1,3.2-.4,1.7-.2,3.5-.5,5.2-.27,2-.81,3.95-1.6,5.8-.63,1.6-1.39,3.14-2.3,4.6-.75,1.1-1.59,2.13-2.5,3.1-.6.5-1,1.2-1.6,1.6-1.29,1.24-2.69,2.34-4.2,3.3-2.6,1.8-5.4,3.3-8.1,5.1-.87.54-1.71,1.14-2.5,1.8-.6.5-1.1,1-1.7,1.5-1.2,1.4-2.4,2.8-3.5,4.3-.5.7-1,1.5-1.5,2.2.27-1.23.64-2.43,1.1-3.6.56-1.42,1.3-2.77,2.2-4-.1,0-.2-.1-.3-.1-.33.41-.63.84-.9,1.3-.7-.6-1.3-1.2-2-1.8-1-.9-2.1-1.8-3.1-2.8-1.5-1.4-3.1-2.6-4.5-4.1-3.6-3.5-6.9-7.4-8.7-12.1-.39-1.01-.73-2.05-1-3.1-.75-2.38-1.25-4.82-1.5-7.3.02-.5-.02-1-.1-1.5.4-1.07,1.14-1.98,2.1-2.6.88-.73,1.82-1.4,2.8-2,.75-.01,1.49-.26,2.1-.7h0Z" fill="#1e40af" stroke-width="0"/><path d="m44.87,47.45c.5-.88,1.07-1.71,1.7-2.5.35.45.75.85,1.2,1.2,1.39,1.24,2.93,2.28,4.6,3.1.97.55,2.01.95,3.1,1.2.56.15,1.13.25,1.7.3-1.1.7-2.1,1.4-3.1,2.1s-1.7,1.2-2.6,1.7c-.44.3-.91.57-1.4.8-.3-.1-.5-.4-.7-.6-.99-1.17-1.89-2.4-2.7-3.7-.6-1.1-1.3-2.1-1.9-3.2-.1,0,0-.2.1-.4Zm24.1-.1c1.1-.5,2.3-.9,3.5-1.5.08.83.12,1.67.1,2.5,0,1.3.1,2.6,0,3.9-.02.17.02.35.1.5-.6.3-1.2.7-1.8,1-1.5.7-2.9,1.5-4.3,2.2-.6.3-1.2.5-1.8.8-.3-.3-.6-.7-.9-1-.8-.7-1.5-1.6-2.3-2.4-.72-.78-1.48-1.52-2.3-2.2.58,0,1.16-.1,1.7-.3.94-.26,1.85-.63,2.7-1.1.5-.3,1.1-.4,1.7-.7,1.16-.65,2.36-1.21,3.6-1.7h0Z" fill="#f9f8dc" stroke-width="0"/><path d="m45.57,50.15c.44.8.94,1.57,1.5,2.3.7.9,1.3,1.8,2.1,2.7.25.32.56.59.9.8,1.42.08,2.84-.09,4.2-.5.31.6.68,1.17,1.1,1.7-.5,1.2-.9,2.5-1.3,3.7-.24.54-.37,1.11-.4,1.7-.3.7-.5,1.4-.8,2.1-.6,1.3-.8,2.6-1.3,3.9-.43,1.48-.76,2.98-1,4.5-.13.49-.17,1-.1,1.5-.7-1.1-1.5-2.2-2.2-3.4-.56-.81-1.03-1.68-1.4-2.6-.91-1.85-1.61-3.8-2.1-5.8,0-.7-.2-1.4-.2-2.1-.1-1.4,0-2.9,0-4.3.02-.7.08-1.41.2-2.1.12-1.39.39-2.77.8-4.1Z" fill="#f9f8dc" stroke-width="0"/><path d="m57.17,50.95c.4-.2.7-.4,1.1-.6.3.3.6.5.9.8.8.7,1.6,1.5,2.3,2.2-.7,1.2-1.7,2.3-2.3,3.5.2.7.3,1.5.5,2.2.1,1.5.3,3,.5,4.5.2,2.5.5,5,.9,7.5.1.8.2,1.6.3,2.3s.1,1.6.2,2.4c-.4.6-.9,1-1.3,1.5-.72.75-1.49,1.45-2.3,2.1-.8.7-1.5,1.3-2.2,2-.89-1.02-1.73-2.09-2.5-3.2-.9-1.2-1.8-2.4-2.6-3.7-.07-.5-.03-1.01.1-1.5.24-1.52.57-3.02,1-4.5.5-1.3.7-2.6,1.3-3.9.3-.7.5-1.4.8-2.1.73-1.94,1.57-3.85,2.5-5.7-.7-1.01-1.3-2.08-1.8-3.2-.1-.2-.1-.4-.2-.6.9-.71,1.83-1.38,2.8-2h0Z" fill="#ef1d54" stroke-width="0"/><path d="m33.47,50.65c.01-.08.05-.15.1-.2.13.49.17,1,.1,1.5.25,2.48.75,4.92,1.5,7.3.3,1,.6,2.1,1,3.1,2.02,4.6,4.99,8.72,8.7,12.1,1.43,1.45,2.93,2.81,4.5,4.1.99.99,2.02,1.92,3.1,2.8.6.6,1.3,1.2,2,1.8.27-.46.57-.89.9-1.3.1,0,.2.1.3.1-.89,1.24-1.63,2.58-2.2,4-.46,1.17-.83,2.37-1.1,3.6.5-.7,1-1.5,1.5-2.2,1.1-1.5,2.3-2.9,3.5-4.3.5-.5,1.1-1,1.7-1.5.79-.66,1.63-1.26,2.5-1.8,2.7-1.7,5.5-3.2,8.1-5.1,1.48-.99,2.89-2.09,4.2-3.3.6-.5,1-1.1,1.6-1.6.9-1,1.7-2.1,2.5-3.1.92-1.45,1.7-2.99,2.3-4.6.78-1.86,1.31-3.81,1.6-5.8.3-1.7.1-3.5.5-5.2.1.12.24.2.4.2l-.3,1.2c0,1.2.1,2.5,0,3.7-.2,1-.3,2-.6,3-.5,1.6-.9,3.1-1.5,4.7-1.2,3.47-3.03,6.69-5.4,9.5-1.07,1.29-2.28,2.46-3.6,3.5-1.06.76-2.16,1.46-3.3,2.1-1.1.6-2.2,1.1-3.3,1.6-1.5.8-3,1.7-4.5,2.7-.8.55-1.54,1.19-2.2,1.9-1.26,1.22-2.31,2.64-3.1,4.2-.16.2-.26.44-.3.7,0-.1.2-.1.4-.1,1.95.23,3.89.56,5.8,1,2.93.75,5.9,1.35,8.9,1.8,1.6.2,3.1.3,4.7.4.67-.02,1.34-.08,2-.2.72-.03,1.42-.28,2-.7,2.1-1.7,3.3-4.3,5-6.4.1-.2.4-.1.3.1-.26.78-.43,1.58-.5,2.4.32-.29.59-.63.8-1,.85-1.02,1.87-1.9,3-2.6.15-.1.35-.1.5,0-.17.55-.44,1.06-.8,1.5-1.14,1.28-2.18,2.65-3.1,4.1-.3.5-.5.9-.8,1.4-.13.32-.17.66-.1,1,.77-.48,1.61-.82,2.5-1,.55-.2,1.15-.2,1.7,0,1.25.57,2.35,1.43,3.2,2.5.43.61.77,1.29,1,2,.27.75.12,1.59-.4,2.2-.77.68-1.7,1.16-2.7,1.4-.6.2-1.1-.1-1.7-.3-.3-.1-.3-.4-.6-.5-1.77-.73-3.61-1.27-5.5-1.6-.7-.1-1.5-.4-2.2-.5-.9-.2-1.8-.5-2.7-.7-1.4-.4-2.9-.6-4.4-1-1.2-.3-2.5-.5-3.7-.7-3.4-.6-6.8-.8-10.2-1.2-1.69-.2-3.4-.3-5.1-.3-.77-.05-1.53-.05-2.3,0-1.2.1-2.4,0-3.7.1-2,.1-4,.4-6,.7s-3.8.8-5.7,1.2c-.26.01-.51.12-.7.3-.6.5-1.11,1.11-1.5,1.8-.54.79-.95,1.67-1.2,2.6,1.3.4,2.7.6,4,1,2.2.7,4.3,1.4,6.4,2.3,2.7,1.1,5.2,2.4,7.7,3.7,1,.5,2,1.1,2.9,1.6.9.3,1.7.9,2.6,1.3s1.8,1,2.6,1.5c1.7,1.1,3.4,2.3,5,3.5,1.7,1.36,3.47,2.62,5.3,3.8,3.5,2.2,7.2,4.4,11.2,5.3.92.22,1.86.39,2.8.5,1.2.1,2.3.4,3.5.4,1.85.1,3.71-.1,5.5-.6,1.06-.24,2.1-.58,3.1-1,.58-.28,1.18-.51,1.8-.7,1.82-.92,3.51-2.1,5-3.5.56-.64,1.2-1.22,1.9-1.7.2,1.2.4,2.5.5,3.7s.3,2.5.4,3.7c-.65.26-1.29.56-1.9.9-1.78.84-3.66,1.44-5.6,1.8l-2.1.6c-2.65.87-5.41,1.34-8.2,1.4-1.13.1-2.27.1-3.4,0-2.49-.08-4.97-.42-7.4-1-.3,0-.6-.2-.9,0-1.7.91-3.47,1.68-5.3,2.3-2.16.74-4.36,1.34-6.6,1.8-2.6.6-5.2,1.1-7.8,1.6-2.55.45-5.12.75-7.7.9-.1,0-.3,0-.3.2.1,1,.2,1.9.3,2.9.2,1.3.4,2.6.6,3.8.2.9.5,1.8.7,2.7.35,1.41.55,2.85.6,4.3-.04,1.25-.24,2.5-.6,3.7-.4,1.1-.8,2.2-1.1,3.3-.31.85-.58,1.72-.8,2.6-.24,1.05-.37,2.12-.4,3.2-.12.93-.18,1.86-.2,2.8.01,1.48.18,2.95.5,4.4.33.98.56,1.98.7,3,.2,1,.2,2,.4,2.9-.3.8-.4,1.7-.7,2.6-.4,1.3-.8,2.6-1.2,4-.09.41-.22.82-.4,1.2l-1.2,2.7c-.35,1.02-.93,1.95-1.7,2.7.04-.44.14-.88.3-1.3.2-1.2.6-2.3.9-3.5.45-2.38.75-4.78.9-7.2.22-1.69.28-3.4.2-5.1-.16-.62-.26-1.26-.3-1.9-.13-1.13-.17-2.27-.1-3.4.03-1.34.17-2.68.4-4,.05-.83.05-1.67,0-2.5.1-2.2-.6-4.3-.9-6.4-.48-2.97-.62-5.99-.4-9,.1-.8.1-1.6.2-2.3.27-2.12-.26-4.26-1.5-6-1.6.1-3.2.1-4.8.1-1.2,0-2.3,0-3.5-.1-2.89-.2-5.77-.6-8.6-1.2-1.6-.3-3.2-.9-4.8-1.3-1.2-.3-2.4-.6-3.6-1-1.5-.4-3-1-4.5-1.3-.92-.17-1.86-.23-2.8-.2-1.58.12-3.14.49-4.6,1.1.3-2.3.7-4.5,1-6.7.2-1,.3-2,.6-3,.3-1.2.6-2.5.9-3.7.11-.36.18-.73.2-1.1h.5c.75.98,1.55,1.91,2.4,2.8.4.4.9.8,1.3,1.2.48.49,1.02.93,1.6,1.3.6.46,1.23.86,1.9,1.2.9.4,1.6,1,2.5,1.4.73.27,1.43.61,2.1,1,.74.36,1.51.66,2.3.9,1.5.4,2.9.9,4.4,1.2.9.2,1.8.2,2.7.4,2.75.48,5.52.81,8.3,1,1.3.2,2.6.1,3.8.2,2.9,0,5.8.4,8.7.1,2.57-.18,5.12-.62,7.6-1.3,1.87-.35,3.71-.85,5.5-1.5-.15-.81-.35-1.61-.6-2.4-.37-1.06-.81-2.09-1.3-3.1-.97-1.68-2.08-3.29-3.3-4.8-.42-.6-.93-1.14-1.5-1.6-.45-.45-.96-.86-1.5-1.2l-2.4-1.8c-.86-.66-1.76-1.26-2.7-1.8-.9-.6-1.8-1.2-2.8-1.8-1.7-1-3.4-2-5.1-2.8-1.1-.6-2.2-1.2-3.3-1.7-.7-.3-1.4-.7-2.2-1-.82-.33-1.62-.69-2.4-1.1-2.14-.86-4.34-1.53-6.6-2-1.1-.2-2.1-.5-3.2-.7-.6-.1-1.2-.1-1.8-.2-.21-.01-.39-.19-.4-.4,0-.4.4-.5.7-.7.74-.25,1.52-.35,2.3-.3.67-.04,1.35.03,2,.2.75.17,1.53.24,2.3.2.3-1,.4-2,.6-3,.4-2.7.4-5.3.6-8,.03-.67-.03-1.35-.2-2-.25-1.01-.35-2.06-.3-3.1,0-.2.2-.5.4-.4.5.1.6.6.7,1,.3,1.2.5,2.4.7,3.7.2,1,.7,1.9,1,2.9.3,1.2.8,2.4,1.1,3.6,1.1-.3,2-.8,3.1-1.1,1.81-.63,3.69-1.07,5.6-1.3,2.1-.4,4.2-.5,6.4-.7.77-.01,1.54-.08,2.3-.2.3,0,.3-.4.4-.6.3-1.3.7-2.5,1.1-3.8.04-.36.18-.71.4-1-.22-.28-.49-.52-.8-.7-1.6-1.3-3.2-2.5-4.8-3.7-.78-.58-1.51-1.21-2.2-1.9-1.67-1.35-3.18-2.9-4.5-4.6-1.2-1.45-2.24-3.02-3.1-4.7-.83-1.38-1.57-2.82-2.2-4.3-.58-1.52-1.02-3.09-1.3-4.7-.31-1.58-.48-3.19-.5-4.8v-1.6c.46-.6.68-1.35.6-2.1h0Z" fill="#1e3a8a" stroke-width="0"/><path d="m89.07,97.85c0-.21-.11-.4-.3-.5-.19-.08-.39-.12-.6-.1-.68.09-1.34.22-2,.4.6-.3,1.2-.5,1.7-.8s1-.6,1.1-1.1c-.29.11-.59.18-.9.2,0-.3.1-.5.1-.7-.4,0-.8.1-1.2.1.55-.17,1.06-.44,1.5-.8.1-.1.1-.3.2-.4-.2.1-.4.3-.6.3-.16,0-.3-.08-.4-.2.1-.2.2-.5.3-.7-1.3,0-2.4.7-3.6,1.1.6-.5,1.3-.7,1.9-1.2.18-.15.22-.4.1-.6-.16.44-.65.67-1.09.5,0,0,0,0,0,0,0-.2.1-.4.1-.6h-.2c-2.64.9-5.01,2.45-6.9,4.5.2.1,5.1,1.7,7.7,2.4.2.1.5-.1.7-.1.84-.21,1.61-.66,2.2-1.3q.2-.3.2-.4h0Z" fill="#e97951" stroke-width="0"/><path d="m31.77,51.75c.6-.31,1.17-.68,1.7-1.1,0,.9-.1,1.7-.1,2.5v1.6c.02,1.61.19,3.22.5,4.8.34,1.59.77,3.16,1.3,4.7.63,1.48,1.37,2.92,2.2,4.3.86,1.68,1.9,3.25,3.1,4.7,1.29,1.72,2.8,3.27,4.5,4.6.7.6,1.4,1.3,2.2,1.9,1.6,1.3,3.2,2.5,4.8,3.7.31.18.58.42.8.7-.19.31-.33.65-.4,1-.4,1.2-.8,2.5-1.1,3.8-.1.2-.1.6-.4.6-.76.16-1.53.23-2.3.2-2.1.2-4.3.4-6.4.7-1.92.18-3.8.62-5.6,1.3-.99.47-2.03.84-3.1,1.1-.3-1.2-.8-2.4-1.1-3.6-.3-1-.7-1.9-1-2.9-.2-1.2-.4-2.5-.7-3.7-.1-.4-.3-.9-.7-1-.2-.1-.4.2-.4.4-.05,1.04.05,2.09.3,3.1.17.65.23,1.33.2,2-.2,2.7-.3,5.4-.6,8-.2,1-.3,2-.6,3-.77-.02-1.54-.08-2.3-.2-.65-.16-1.33-.23-2-.2-.78-.11-1.57,0-2.3.3-.3.1-.7.3-.7.7.01.21.19.39.4.4.6.1,1.2.1,1.8.2,1.1.2,2.1.5,3.2.7,2.26.47,4.46,1.14,6.6,2,.8.4,1.6.7,2.4,1.1s1.4.7,2.2,1c1.14.49,2.24,1.06,3.3,1.7,1.7.9,3.4,1.8,5.1,2.8.9.6,1.8,1.2,2.8,1.8.94.54,1.84,1.14,2.7,1.8l2.4,1.8c.54.34,1.05.75,1.5,1.2.6.5,1,1.1,1.5,1.6,1.21,1.52,2.32,3.12,3.3,4.8.5,1,.9,2.1,1.3,3.1.25.79.45,1.59.6,2.4-1.79.65-3.63,1.15-5.5,1.5-2.49.64-5.04,1.07-7.6,1.3-2.9.3-5.8-.2-8.7-.1-1.3-.1-2.6-.1-3.8-.2-2.78-.18-5.55-.51-8.3-1-.89-.18-1.79-.32-2.7-.4-1.5-.3-3-.8-4.4-1.2-.8-.19-1.58-.5-2.3-.9-.7-.4-1.4-.6-2.1-1-.9-.4-1.6-1-2.5-1.4-.67-.34-1.3-.74-1.9-1.2-.59-.35-1.13-.79-1.6-1.3-.41-.43-.84-.83-1.3-1.2-.85-.89-1.65-1.82-2.4-2.8h-.5c-.03-.37-.17-.72-.4-1-.7-1.1-1-2.3-1.6-3.4-.64-1.07-1.15-2.21-1.5-3.4-.51-1.61-.91-3.24-1.2-4.9-.23-2.23-.27-4.47-.1-6.7,0-1.27.1-2.54.3-3.8.1-1.5.4-2.9.5-4.4.35-2.59.95-5.13,1.8-7.6.65-1.86,1.46-3.67,2.4-5.4.87-1.62,1.84-3.19,2.9-4.7,1.14-1.73,2.38-3.4,3.7-5,.7-.9,1.5-1.7,2.3-2.6,1.23-1.31,2.53-2.55,3.9-3.7,1.6-1.4,3.4-2.6,5.1-3.9.9-.7,1.8-1.4,2.7-2,1.07-1.27,2.4-2.29,3.9-3h0Z" fill="#1e40af" stroke-width="0"/><path d="m82.67,51.05c.47.43,1.01.76,1.6,1,2.47,1.2,4.81,2.64,7,4.3,4.9,4.24,9.09,9.23,12.4,14.8.91,1.7,1.68,3.47,2.3,5.3,2.4,5.6,3,9.1,3.6,15.3.39,3.62.11,7.28-.8,10.8-.68,3.28-1.83,6.44-3.4,9.4-.9,1.76-1.9,3.46-3,5.1-.7.5-1.3,1.2-1.9,1.7-1.5,1.39-3.18,2.57-5,3.5-4.6,2-7.5,2.4-10.4,2.3-1.18-.03-2.35-.16-3.5-.4-9.5-.9-19.1-9.8-24.4-13.1-1.67-1.04-3.41-1.98-5.2-2.8-3.48-1.95-7.05-3.71-10.7-5.3-3.36-1.4-6.84-2.5-10.4-3.3.25-.93.66-1.81,1.2-2.6.44-.64.95-1.25,1.5-1.8.18-.2.43-.31.7-.3l5.7-1.2c3.2-.57,6.45-.83,9.7-.8,2.3-.2,15.1.8,21.3,2.2,1.5.3,2.9.6,4.4,1,.9.2,12.2,3.8,12.7,3.6,1-.24,1.93-.72,2.7-1.4.52-.61.67-1.45.4-2.2-.23-.71-.57-1.39-1-2-.88-1.05-1.97-1.9-3.2-2.5-.55-.2-1.15-.2-1.7,0-.85.29-1.68.62-2.5,1,0-1-.1-.6.9-2.4,1.5-2.6,3.7-4.3,3.9-5.5-.2,0-.4-.1-.5,0-1.43,1.02-2.71,2.23-3.8,3.6.07-.82.24-1.62.5-2.4.1-.2-.3-.3-.3-.1-1.7,2.1-2.8,4.7-5,6.4-.58.44-1.28.68-2,.7-.66.12-1.33.18-2,.2-4.6-.24-9.16-.97-13.6-2.2-5.5-1.2-6-.9-6.3-1.1.83-1.83,1.98-3.49,3.4-4.9.69-.69,1.42-1.32,2.2-1.9,1.44-.99,2.94-1.9,4.5-2.7,2.3-1.04,4.51-2.27,6.6-3.7,4.17-3.39,7.3-7.9,9-13,.6-1.5,1-3.1,1.5-4.7.3-1,.4-2,.6-3,.1-1.2,0-2.5,0-3.7.1-.4.4-1.2.3-1.2Z" fill="#1e40af" stroke-width="0"/><path d="m70.77,53.75c.6-.3,1.2-.7,1.8-1-.09.64-.22,1.28-.4,1.9-.2,1.2-.5,2.3-.8,3.5-.21.95-.47,1.88-.8,2.8-.19.62-.42,1.22-.7,1.8-.53,1.35-1.17,2.65-1.9,3.9-.9,1.6-1.8,3.1-2.8,4.6,0-.2.1-.3.1-.5,1-2.1,1.9-4.2,2.8-6.3.6-2,1.2-3.9,1.6-5.9.3-1.35.5-2.72.6-4.1-.7.3-1.4.7-2.1,1-.9.4-1.8.9-2.7,1.3-.4.2-.9.5-1.3.3-1.06-.32-2.07-.79-3-1.4-.2.1-.3.3-.4.4l-1.2,1.5c-.1.5.1,1,0,1.4-.12-.74-.29-1.48-.5-2.2.6-1.2,1.6-2.3,2.3-3.5.8.8,1.5,1.6,2.3,2.4.32.31.63.64.9,1,.58-.31,1.18-.58,1.8-.8,1.6-.6,2.9-1.5,4.4-2.1h0Z" fill="#d9cea8" stroke-width="0"/><path d="m68.27,55.45c.7-.3,1.4-.7,2.1-1-.09,1.38-.3,2.75-.6,4.1-.33,2.02-.87,3.99-1.6,5.9-.9,2.1-1.8,4.2-2.8,6.3-.09.15-.13.33-.1.5-.7,1-1.5,2-2.3,3-.4.6-1,1-1.4,1.6-.02-.8-.08-1.6-.2-2.4-.1-.8-.2-1.6-.3-2.3-.5-2.47-.8-4.98-.9-7.5-.1-1.5-.4-3-.5-4.5.1-.5-.1-1,0-1.4.4-.5.8-.9,1.2-1.5.1-.1.2-.4.4-.4.93.61,1.94,1.08,3,1.4.46.06.92-.05,1.3-.3.83-.62,1.74-1.12,2.7-1.5Z" fill="#f9f8dc" stroke-width="0"/><path d="m68.67,3.75c1.48-.24,3.01-.06,4.4.5.4.2,1,.4,1.1.9.2,1.3-.5,2.7.1,4,.44.85,1.02,1.63,1.7,2.3.86,1.12,1.6,2.32,2.2,3.6.5,1,.8,2,1.2,3,.85,2.77.85,5.73,0,8.5-.19,1.01-.6,1.97-1.2,2.8-.62-.11-1.25,0-1.8.3-.2.6-.2,1.3-.4,1.9-.1.3-.2.7-.3,1-.23.12-.46.22-.7.3-.1,0-.2-.1-.3-.1v-.5c.1-.3.1-.5.2-.8v-.1c.13-.69.17-1.4.1-2.1-.07-.39-.21-.76-.4-1.1-.34-.96-.74-1.89-1.2-2.8-.29-.67-.49-1.38-.6-2.1-.16-.62-.26-1.26-.3-1.9-.03-.87.03-1.74.2-2.6-.1-.1-.1-.2-.2-.3-.7-.5-1.6-.3-2.4-.4-1.1-.1-2.1-.2-3.2-.4-1.47-.26-2.91-.66-4.3-1.2-1.11-.56-2.18-1.19-3.2-1.9-.64-.45-1.21-.99-1.7-1.6-.2,0-.5-.1-.6.1-1.01.89-1.94,1.86-2.8,2.9-.5.7-1,1.3-1.6,2-.24.32-.51.62-.8.9.28-1.28.72-2.52,1.3-3.7,1.18-2.13,3-3.85,5.2-4.9.28-.1.52-.27.7-.5,1.45-1.98,3.28-3.65,5.4-4.9,1.34-.56,2.76-.93,4.2-1.1Z" fill="#6366f1" stroke-width="0"/><path d="m57.27,13.05c.15-.18.4-.22.6-.1-.1,0-.3.1-.4.1.19.51.46.98.8,1.4,1.14,1.34,2.58,2.4,4.2,3.1,2.54,1.15,5.34,1.56,8.1,1.2.65-.03,1.29-.16,1.9-.4.1.1.1.2.2.3-.17.86-.24,1.73-.2,2.6-.08-.33-.12-.66-.1-1-.08,1.97.19,3.93.8,5.8.4,1.1,1.4,2.1,1.5,3.4-1.55.23-3.09.56-4.6,1-.7.2-1,.9-1.6,1.3-.42.15-.86.25-1.3.3-.87.14-1.76.07-2.6-.2-1.07-.16-2.07-.61-2.9-1.3-.52-.49-.78-1.19-.7-1.9-.47.67-.43,1.57.1,2.2.63.58,1.38,1.03,2.2,1.3,1.18.45,2.44.65,3.7.6.81-.04,1.59-.36,2.2-.9.4-.3.6-.7,1.1-.8.9-.3,1.9-.5,2.8-.8.55-.18,1.12-.31,1.7-.4-.01.57.02,1.14.1,1.7-.1.3-.1.5-.2.8-.26.85-.56,1.68-.9,2.5-.38.67-.81,1.31-1.3,1.9-.92,1.21-2.04,2.25-3.3,3.1-1.36,1.12-2.92,1.97-4.6,2.5-.3.08-.61-.1-.68-.4-.02-.07-.02-.13-.02-.2-.08-.84-.22-1.68-.4-2.5-.4-1.81-1.3-3.48-2.6-4.8-.29-.29-.63-.53-1-.7-.55-.31-1.11-.57-1.7-.8-.4-.1-.9-.2-1.4-.3.56-.27,1.07-.65,1.5-1.1.2-.2.5-.5.4-.8-.3.1-.6.3-.9.2-.5-.05-1-.05-1.5,0-.26.49-.37,1.05-.3,1.6-1.04-.08-2.08-.02-3.1.2-.82.26-1.62.56-2.4.9-.7.3-1.2.7-1.8,1-.1-.2-.3-.4-.3-.6-.35-1.74-.45-3.53-.3-5.3.1-1.1.4-2.1.5-3.1v-.1c.07.53.31,1.03.7,1.4.77.68,1.65,1.22,2.6,1.6,1.25.45,2.64.34,3.8-.3.22-.15.39-.36.5-.6-.28-.03-.57.04-.8.2-.62.32-1.3.49-2,.5-1.36-.06-2.64-.64-3.6-1.6-.35-.45-.75-.85-1.2-1.2.5-1,1-2,1.5-2.9.2.2.4.1.6.1,1.08-.07,2.15.18,3.1.7.82.31,1.57.79,2.2,1.4.3.3.5.8,1,.8,0-.28-.07-.55-.2-.8-.47-.63-1.04-1.17-1.7-1.6.56.15,1.13.25,1.7.3.26-.09.39-.36.31-.62-.02-.07-.06-.13-.11-.18-.39-.56-.95-.98-1.6-1.2-1-.48-2.09-.72-3.2-.7-.43.03-.84.16-1.2.4.3-.5.5-1,.8-1.4.17-.28.31-.58.4-.9.32-.25.59-.56.8-.9.5-.6,1.1-1.3,1.6-2,.79-1.09,1.7-2.1,2.7-3h0Z" fill="#e97951" stroke-width="0"/><path d="m50.97,21.15c.36-.22.78-.36,1.2-.4,1.11-.02,2.2.22,3.2.7.65.22,1.21.64,1.6,1.2.1.3.2.8-.2.8-.57-.05-1.14-.15-1.7-.3-.96-.47-1.96-.84-3-1.1-.3-.1-.7-.1-1.1-.2-.21-.12-.33-.36-.3-.6q.2,0,.3-.1Zm12.7,3.8c.75-.25,1.55-.25,2.3,0,.69.12,1.34.39,1.9.8.73.37,1.35.92,1.8,1.6h-1.2c-1.06-.41-2.17-.68-3.3-.8-.5-.1-1.1-.1-1.6-.2-.2-.1-.6-.2-.6-.5,0-.5.4-.7.7-.9Zm-16.3,4.2c.26-1.21.67-2.38,1.2-3.5-.1,1-.4,2.1-.5,3.1-.2,1.77-.1,3.56.3,5.3,0,.2.2.4.3.6.56-.41,1.16-.74,1.8-1,.78-.36,1.58-.66,2.4-.9,1.01-.27,2.06-.33,3.1-.2.2,0,.5.1.7.1l1.4.3c.59.21,1.16.47,1.7.8.37.17.71.41,1,.7,1.27,1.35,2.16,3,2.6,4.8.28.8.41,1.65.4,2.5,0,.3.4.7.7.6,1.66-.57,3.22-1.42,4.6-2.5,1.3-.88,2.44-1.96,3.4-3.2.47-.61.9-1.24,1.3-1.9.36-.81.66-1.65.9-2.5v.5c.1,0,.2.1.3.1s.5-.1.7-.3.2-.7.3-1c-.09,1.05-.29,2.09-.6,3.1-.3,1.3-.7,2.6-1.1,3.8-.09.41-.22.82-.4,1.2-.5.6-.8,1.3-1.3,1.9-1,1.2-2.1,2.4-3.2,3.5-1.39,1.33-2.98,2.44-4.7,3.3-1.67.86-3.52,1.34-5.4,1.4-.7.02-1.4-.02-2.1-.1-.99-.16-1.97-.43-2.9-.8-.9-.32-1.77-.72-2.6-1.2-1.44-.72-2.67-1.79-3.6-3.1-.23-.49-.5-.96-.8-1.4-.56-.99-.93-2.08-1.1-3.2-.1-.8-.2-1.7-.3-2.5.08-2.07.42-4.12,1-6.1.07-.75.24-1.49.5-2.2Z" fill="#6366f1" stroke-width="0"/><path d="m57.57,13.05c.1,0,.3-.1.4-.1.49.61,1.06,1.15,1.7,1.6,1.02.71,2.09,1.35,3.2,1.9,1.37.61,2.82,1.01,4.3,1.2,1.1.1,2.1.3,3.2.4.8.1,1.7-.1,2.4.4-.62.18-1.26.31-1.9.4-2.76.41-5.58-.01-8.1-1.2-1.61-.71-3.05-1.77-4.2-3.1-.45-.42-.79-.93-1-1.5Zm14.9,7.2c-.08,1.97.19,3.93.8,5.8.4,1.1,1.4,2.1,1.5,3.4-1.55.23-3.09.56-4.6,1-.7.2-1,.9-1.6,1.3-.42.15-.86.25-1.3.3-.87.14-1.76.07-2.6-.2-1.07-.16-2.07-.61-2.9-1.3-.52-.49-.78-1.19-.7-1.9-.47.67-.43,1.57.1,2.2.63.58,1.38,1.03,2.2,1.3,1.18.45,2.44.65,3.7.6.81-.04,1.59-.36,2.2-.9.4-.3.6-.7,1.1-.8.9-.3,1.9-.5,2.8-.8.55-.18,1.12-.31,1.7-.4-.01.57.02,1.14.1,1.7v-.1c-.02-.7.02-1.4.1-2.1-.07-.39-.21-.76-.4-1.1-.34-.96-.74-1.89-1.2-2.8-.29-.67-.49-1.38-.6-2.1-.16-.62-.26-1.26-.3-1.9,0-.5-.1-.8-.1-1.2Zm-22.3,2.3c.2.2.4.1.6.1,1.08-.07,2.15.18,3.1.7.82.31,1.57.79,2.2,1.4.3.3.5.8,1,.8,0-.28-.07-.55-.2-.8-.47-.63-1.04-1.17-1.7-1.6-.96-.47-1.96-.84-3-1.1-.3-.1-.7-.1-1.1-.2-.21-.12-.33-.36-.3-.6-.2.5-.4.9-.6,1.3Zm-1.6,3.1c.07.53.31,1.03.7,1.4.77.68,1.65,1.22,2.6,1.6,1.25.45,2.64.34,3.8-.3.22-.15.39-.36.5-.6-.28-.03-.57.04-.8.2-.62.32-1.3.49-2,.5-1.36-.06-2.64-.64-3.6-1.6-.35-.45-.75-.85-1.2-1.2.1-.2,0-.1,0,0Zm8.7.5c-.1,0-.2.2-.3.3.99-.04,1.98.13,2.9.5.5.2.8.6,1.4.6,0-.1.1-.2.1-.3-.11-.21-.29-.39-.5-.5-.64-.38-1.36-.62-2.1-.7-.5-.02-1,.02-1.5.1Zm4.5.8c-.2.1-.2.4-.3.6.26-.22.57-.39.9-.5.43-.08.86-.12,1.3-.1,1.18.01,2.36.18,3.5.5.8.2,1.52.61,2.1,1.2.17.22.38.43.6.6.02-.24-.02-.48-.1-.7-.34-.47-.78-.85-1.3-1.1-1.06-.41-2.17-.68-3.3-.8-.5-.1-1.1-.1-1.6-.2-.64-.1-1.3.08-1.8.5Z" fill="#c76847" stroke-width="0"/><path d="m75.07,29.25c.12.7.08,1.41-.1,2.1-.02-.7.02-1.4.1-2.1Z" fill="#e97951" stroke-width="0"/><path d="m76.37,29.65c.55-.3,1.18-.41,1.8-.3,1.49.41,2.71,1.48,3.3,2.9.32.95.28,1.98-.1,2.9-.27.82-.72,1.57-1.3,2.2-.67.99-1.66,1.73-2.8,2.1-.52.3-1.1.47-1.7.5-.57-.01-1.14-.08-1.7-.2.18-.38.31-.79.4-1.2.4-1.3.8-2.6,1.1-3.8.3-1.01.5-2.05.6-3.1.2-.7.2-1.4.4-2Z" fill="#dc5031" stroke-width="0"/><path d="m57.67,31.05c.3,0,.6-.2.9-.2.2.3-.1.6-.4.8-.43.45-.94.83-1.5,1.1-.2,0-.5-.1-.7-.1-.05-.55.05-1.1.3-1.6.47-.05.93-.05,1.4,0Z" fill="#c76847" stroke-width="0"/><path d="m51.27,35.45c1.44-.68,3.01-1.03,4.6-1,1.47,0,2.86.66,3.8,1.8,1.05,1.46,1.64,3.2,1.7,5,0,.2-.1.5-.4.5-.93.15-1.87.15-2.8,0-.51-.05-1.01-.15-1.5-.3-.38-.11-.7-.36-.9-.7-.3-.4-.2-1-.4-1.4l-1.2.9c-.4.2-.8-.2-1.1-.3-.99-.65-1.9-1.42-2.7-2.3-.2-.3-.5-.5-.7-.8.3-.68.88-1.2,1.6-1.4Z" fill="#e97951" stroke-width="0"/><path d="m54.47,37.25c.65.23,1.32.39,2,.5.1,0,.4,0,.4.2s-.5.4-.8.4c-.71,0-1.35-.44-1.6-1.1Z" fill="#c76847" stroke-width="0"/><path d="m85.37,92.55c.4-.12.83-.08,1.2.1-.16.44-.65.67-1.09.5,0,0,0,0,0,0,0-.2.1-.4.1-.6h-.2Zm3.4,1.3c0-.3-.4-.4-.6-.5-.25.05-.41.29-.36.54.01.06.03.11.06.16.28.25.71.23.96-.05.01-.02.03-.03.04-.05l-.1-.1Zm.3,1.7c-.1-.4-.4-.5-.8-.6h-.1c-.24.13-.32.43-.19.67.06.11.17.2.29.23h.1c.3.2.5,0,.7-.3Zm-.1,2.1c0-.16-.14-.29-.3-.3h-.1c-.2.1-.4.4-.2.6l.1.1c.17.02.35-.02.5-.1v-.3Z" fill="#f0a98f" stroke-width="0"/><path d="m52.47,23.95c.34-.09.69.12.78.46.01.05.02.09.02.14,0,.4-.5.9-.9.7-.35-.17-.49-.59-.33-.93.08-.18.24-.31.43-.37Z" fill="#151c2c" stroke-width="0"/><path d="m51.17,25.05c.4.2.7.4,1.1.6s1,.3,1.5.5c-.85.15-1.72-.06-2.4-.6-.1-.1-.1-.3-.2-.5Z" fill="#c76847" stroke-width="0"/><path d="m50.87,25.85c.6.2,1,.5,1.6.7.4.1.8.1,1.2.2-1.03.4-2.2.03-2.8-.9Z" fill="#c66745" stroke-width="0"/><path d="m58.67,26.15c.51.12,1.02.29,1.5.5-.21,1.47-.68,2.9-1.4,4.2-.2.4-.7.3-1,.3-.71,0-1.42-.1-2.1-.3-.38-.17-.59-.59-.5-1,.35-.74.82-1.42,1.4-2,.65-.62,1.36-1.19,2.1-1.7Z" fill="#dd4f31" stroke-width="0"/><path d="m77.37,28.95c-.6,0-1.3-.1-1.9-.1h-.4c-1.6.1-3.1.4-4.6.6-.02-.79-.35-1.54-.9-2.1-.32-.32-.69-.59-1.1-.8-1.31-.73-2.8-1.08-4.3-1-.98,0-1.92.4-2.6,1.1-1.2-.84-2.64-1.27-4.1-1.2-.13-.72-.48-1.39-1-1.9-.83-.65-1.73-1.19-2.7-1.6-.93-.46-1.97-.64-3-.5-.79.17-1.43.74-1.7,1.5-.3.55-.48,1.17-.5,1.8.15.95.75,1.76,1.6,2.2.89.77,2.02,1.23,3.2,1.3.85.06,1.71-.07,2.5-.4.7-.4,1.23-1.04,1.5-1.8.43-.05.87-.05,1.3,0,.51.12,1.02.29,1.5.5.32.22.65.42,1,.6-.57,1.04-.53,2.3.1,3.3.8.71,1.76,1.22,2.8,1.5,1.44.58,3.04.62,4.5.1.82-.43,1.4-1.2,1.6-2.1,1.62-.3,3.26-.5,4.9-.6.96-.15,1.94-.15,2.9,0,.2.1.3,0,.4-.1-.2-.3-.6-.3-1-.3Zm-22-1.3c-.77.27-1.6.34-2.4.2-.99-.23-1.91-.67-2.7-1.3-.76-.47-1.22-1.31-1.2-2.2.2-.8.5-1.8,1.4-2.1.62-.2,1.28-.2,1.9,0,1.19.33,2.31.87,3.3,1.6.63.41,1.06,1.06,1.2,1.8-.09.89-.67,1.66-1.5,2Zm13.9,3.3c-.47.51-1.11.83-1.8.9-1.01.1-2.03,0-3-.3-1.02-.12-1.97-.58-2.7-1.3-.58-.83-.62-1.93-.1-2.8.41-.74,1.16-1.23,2-1.3,1.48-.19,2.99.09,4.3.8.7.37,1.29.92,1.7,1.6.33.81.18,1.74-.4,2.4Z" fill="#151c2c" stroke-width="0"/><path d="m63.57,26.75c.36-.09.73-.12,1.1-.1-.3.1-.7.2-1,.3-.5.1-.9.4-1.4.5.32-.4.79-.66,1.3-.7Zm-12.7-3.9c.36-.09.73-.12,1.1-.1l-1,.3c-.5.1-.9.4-1.4.5.32-.4.79-.66,1.3-.7Z" fill="#faf9e4" stroke-width="0"/><path d="m55.97,29.55c.26-.65.71-1.21,1.3-1.6-.31.62-.76,1.17-1.3,1.6Z" fill="#faf8dc" stroke-width="0"/><path d="m64.77,28.05c.24-.16.56-.09.72.16.05.07.08.16.08.24.07.35-.16.68-.51.75-.13.03-.27,0-.39-.05-.4-.1-.3-.8.1-1.1Z" fill="#151c2c" stroke-width="0"/><path d="m66.17,4.85c.91-.45,1.89-.75,2.9-.9-1.6.47-3.11,1.18-4.5,2.1-1.43,1.1-2.68,2.41-3.7,3.9-.91,1.2-1.49,2.61-1.7,4.1h-.2c.2-.6.2-1.1.4-1.7.54-1.37,1.28-2.65,2.2-3.8,1.12-1.67,2.73-2.96,4.6-3.7Zm3.5-.5c-1.83.38-3.52,1.24-4.9,2.5-1.47,1.29-2.72,2.81-3.7,4.5-.56,1.06-.93,2.21-1.1,3.4h.2c.23-1.73.88-3.38,1.9-4.8.73-.99,1.57-1.9,2.5-2.7,1.47-1.3,3.22-2.25,5.1-2.8.7-.2,1.4-.2,2.1-.4-.71-.05-1.43.05-2.1.3Zm2.1.3c-1.38.28-2.72.72-4,1.3-1.82.78-3.36,2.11-4.4,3.8-.87,1.37-1.54,2.85-2,4.4-.18.55-.22,1.13-.1,1.7.1-.2.2-.5.3-.7.32-2.18,1.18-4.24,2.5-6,1.03-1.24,2.33-2.23,3.8-2.9,1.46-.8,3.05-1.3,4.7-1.5.2-.1.5,0,.5-.2-.44-.07-.88-.03-1.3.1Zm1.5.3c-1.02.31-2.02.67-3,1.1-1.41.64-2.73,1.48-3.9,2.5-.69.76-1.32,1.56-1.9,2.4-.74,1.2-1.34,2.47-1.8,3.8-.16.48-.23.99-.2,1.5.1,0,.2,0,.2.1.1-.3.1-.6.2-1,.29-1.14.7-2.24,1.2-3.3.79-1.73,1.99-3.24,3.5-4.4,1.69-1.19,3.59-2.04,5.6-2.5.2-.1.5-.1.6-.3-.1-.1-.3.1-.5.1h0Zm-2.7,3.6c-1.01,1.2-1.89,2.5-2.6,3.9-.54,1.02-.97,2.09-1.3,3.2-.23.58-.36,1.18-.4,1.8h.3c.1-.2.1-.5.2-.7.52-1.85,1.26-3.62,2.2-5.3.5-.8.9-1.6,1.4-2.3.91-1.21,1.99-2.29,3.2-3.2v-.3c-1.12.84-2.13,1.81-3,2.9Zm-.1-1.8c-1.36.95-2.58,2.09-3.6,3.4-1.6,1.92-2.67,4.23-3.1,6.7.1,0,.2,0,.2.1.58-2.93,2.05-5.62,4.2-7.7.69-.78,1.46-1.48,2.3-2.1.53-.24,1-.58,1.4-1-.51.07-1,.28-1.4.6Zm1.6,1.7c-.6.8-1.2,1.6-1.8,2.5-.5.78-.9,1.62-1.2,2.5-.6,1.41-1,2.89-1.2,4.4h.3c.28-1.85.85-3.64,1.7-5.3.5-1.12,1.1-2.19,1.8-3.2.51-.8,1.12-1.54,1.8-2.2v-.3c-.57.44-1.04.98-1.4,1.6Zm.2,1.2c-.98,1.68-1.79,3.45-2.4,5.3-.34.97-.55,1.98-.6,3h.3c.15-.39.25-.79.3-1.2.21-1.24.58-2.45,1.1-3.6.51-1.35,1.18-2.62,2-3.8.2-.4.6-.7.5-1.2-.45.45-.86.96-1.2,1.5Zm-3.7.2c-1.05,1.26-1.95,2.64-2.7,4.1-.54,1.03-.88,2.15-1,3.3h.3c.15-.71.35-1.41.6-2.1.61-1.51,1.38-2.96,2.3-4.3.51-.78,1.08-1.51,1.7-2.2-.42.37-.83.78-1.2,1.2Zm3.7,2.1c-.4,1.1-.7,2.2-1,3.3-.27.91-.44,1.85-.5,2.8h.3c.15-.59.25-1.19.3-1.8.23-1.65.67-3.26,1.3-4.8.28-.55.51-1.12.7-1.7-.48.67-.86,1.41-1.1,2.2Zm-13.8-.9c-.28.06-.55.16-.8.3-1.14.69-2.18,1.53-3.1,2.5-.64.76-1.11,1.65-1.4,2.6-.1.4-.3.9-.4,1.4.1,0,.3.1.3-.1.16-.83.43-1.64.8-2.4.56-1,1.31-1.88,2.2-2.6.68-.6,1.46-1.07,2.3-1.4-.09.29-.23.55-.4.8-.68.21-1.3.59-1.8,1.1-1.21,1.02-2.08,2.38-2.5,3.9.26-.2.43-.48.5-.8.73-1.7,2.04-3.08,3.7-3.9,0,.2-.1.5-.1.7.27-.48.51-.98.7-1.5.26-.55.56-1.09.9-1.6-.4.1-.6.6-.9,1Zm15.4-1c0,.7.1,1.4.1,2,.07,1.98-.27,3.96-1,5.8-.11.21-.29.39-.5.5v.2c.2-.1.3-.1.5-.2-.12,1.47-.08,2.94.1,4.4.35,1.78,1.03,3.47,2,5-.7-2-1.7-3.9-1.8-6-.1-1.1-.1-2.3-.1-3.4.2-.1.3-.2.5-.3-.1,0-.3-.2-.3-.2.79-2.21,1.1-4.56.9-6.9-.05-.33-.19-.64-.4-.9Zm.8.5c.12.39.18.79.2,1.2.29,1.76.22,3.56-.2,5.3,0,.2-.2.3-.3.4.11.01.22-.02.3-.1.11-.12.25-.23.4-.3-.05-.05-.12-.09-.2-.1v-.1c.32-1.04.49-2.11.5-3.2.1-1.06-.08-2.12-.5-3.1h-.2Zm-1.8,3.5c-.3,1.4-.7,2.7-1.1,4,.1-.1.3-.1.3-.2.26-.54.46-1.11.6-1.7.3-1.3.5-2.7.7-4.1v-.8c-.2.9-.3,1.9-.5,2.8Zm3.1-2.3c0,.7.2,1.3.2,2-.08.84-.22,1.68-.4,2.5-.3.2-.6.5-.9.7v.1l.3.1c.2,1.4.7,2.8.9,4.3.2,1.2.3,2.5.4,3.7.1.7,0,1.4.1,2,.08-.46.12-.93.1-1.4,0-1.57-.1-3.14-.3-4.7-.2-1.4-.6-2.8-.9-4.1.1-.1.3-.2.4-.3.2.5.3,1,.5,1.6.49,1.87.82,3.78,1,5.7.1,1.3-.1,2.7,0,4,.35-2.73.25-5.5-.3-8.2-.24-1.09-.58-2.16-1-3.2.1-.19.29-.3.5-.3h.1c.2.1.1-.2.2-.3s.5-.4.7-.6c.22.32.42.65.6,1,.36.84.66,1.71.9,2.6v-.4c-.12-.58-.29-1.15-.5-1.7-.24-.53-.54-1.04-.9-1.5.1-.1.3-.2.4-.3v-.2c-.22.1-.42.23-.6.4.19-.6.12-1.25-.2-1.8.02.7-.02,1.4-.1,2.1-.24.26-.51.5-.8.7.25-.98.35-1.99.3-3-.26-.49-.49-.99-.7-1.5Zm.6,4.7c.45.77.75,1.62.9,2.5.2,1.2.5,2.4.6,3.6.08,1.24.02,2.48-.2,3.7-.09.36-.12.73-.1,1.1.36-1.37.53-2.78.5-4.2-.09-1.59-.32-3.16-.7-4.7-.15-.79-.46-1.53-.9-2.2,0,.08-.04.15-.1.2Zm-3.1,1.5c.1,0,.3.2.3.2-.15,2.02.05,4.05.6,6,.18,1.01.52,1.99,1,2.9-.58-1.83-1.01-3.7-1.3-5.6-.13-1.16-.17-2.33-.1-3.5.2-.1.3-.3.5-.4-.03,1.07.03,2.14.2,3.2l.9,4.2c.18.79.32,1.59.4,2.4-.08-1.55-.31-3.09-.7-4.6-.22-.96-.38-1.93-.5-2.9-.1-.8-.1-1.6-.2-2.5-.11-.01-.22.02-.3.1-.3,0-.5.3-.8.5Zm5.3.7c0,.7.2,1.3.2,2,.13,1.54.07,3.08-.2,4.6-.2,1.1-.6,2.1-.9,3.2.19-.2.33-.44.4-.7.4-.83.71-1.7.9-2.6.42-2.23.28-4.53-.4-6.7.1,0,.1.1,0,.2Zm-.5,10.2c.43-.5.68-1.14.7-1.8-.28.58-.51,1.18-.7,1.8Zm-2.5-.2c.02-.47-.01-.94-.1-1.4-.2.5.1,1,.1,1.4Zm.5-1.2c-.12.47-.08.96.1,1.4.17-.46.13-.97-.1-1.4Zm.7.4v.9c.25-.24.25-.64,0-.89,0,0,0,0,0,0Zm.5.2v.8c.12-.23.22-.46.3-.7-.11.01-.22-.02-.3-.1Z" fill="#3b53b5" stroke-width="0"/><path d="m49.87,28.95c.55-.18,1.15.08,1.4.6.31.74-.03,1.59-.76,1.9-.11.05-.22.08-.34.1-.74.03-1.37-.54-1.4-1.28,0,0,0-.01,0-.02.13-.59.54-1.08,1.1-1.3Z" fill="#dd4f31" stroke-width="0"/><path d="m63.67,29.45c.72.2,1.46.3,2.2.3-.73.35-1.59.24-2.2-.3Z" fill="#c76847" stroke-width="0"/><path d="m75.87,30.75c0-.4-.3-.9.1-1.1.02.37-.01.74-.1,1.1Z" fill="#357e8f" stroke-width="0"/><path d="m63.57,29.95c.64.04,1.28.14,1.9.3-.63.31-1.39.19-1.9-.3Z" fill="#c76847" stroke-width="0"/><path d="m57.87,30.35c.22-.09.48,0,.6.2.1.4-.6.5-.9.3s0-.5.3-.5Z" fill="#af3116" stroke-width="0"/><path d="m75.17,32.05c0-.4-.2-.9.2-1.1.02.38-.05.75-.2,1.1Zm.4.2c0-.4-.1-.9.2-1.2.08.41.01.84-.2,1.2Z" fill="#357e8f" stroke-width="0"/><path d="m75.97,32.45c.39-.4.94-.62,1.5-.6.58,0,1.12.26,1.5.7.35.45.47,1.05.3,1.6-.2.74-.62,1.4-1.2,1.9-.55.22-1.18.18-1.7-.1-.4-.2-.7.1-1.1.2v-.3c.4-.2.7-.5,1.2-.4s.8.5,1.3.3c.59-.41,1.02-1.01,1.2-1.7.14-.41.06-.86-.2-1.2-.37-.44-.93-.66-1.5-.6-.5,0-.9.2-1.3.2Z" fill="#b03318" stroke-width="0"/><path d="m65.97,33.55c.33-.12.7-.08,1,.1.42.31.68.78.7,1.3-.15.65-.6,1.21-1.2,1.5-.71.33-1.54.02-1.87-.69-.09-.19-.13-.4-.13-.61-.1-.8.7-1.4,1.5-1.6Z" fill="#dd4f31" stroke-width="0"/><path d="m53.77,36.15c1.03-.31,2.14-.2,3.1.3.56.27,1.07.65,1.5,1.1-.2,0-.5,0-.6-.1-.5-.36-1.03-.66-1.6-.9-.62-.17-1.26-.23-1.9-.2-.19.02-.38-.06-.5-.2Z" fill="#dd5133" stroke-width="0"/><path d="m37.77,50.85c.69-.72,1.32-1.49,1.9-2.3-.09.71-.45,1.35-1,1.8-.82.83-1.55,1.73-2.2,2.7-.2.2-.3.5-.6.6.54-.99,1.18-1.93,1.9-2.8Z" fill="#102f3a" stroke-width="0"/><path d="m47.87,27.75h.2c-.02.64-.08,1.27-.2,1.9-.15-.62-.15-1.28,0-1.9Zm-.7,3.4c.17-.55.24-1.13.2-1.7-.4.5-.2,1.1-.2,1.7Zm.3-.9c-.03.54.04,1.08.2,1.6.1-.53.1-1.07,0-1.6h-.2Zm-.6,3c.12-.59.18-1.2.2-1.8-.4.4-.3,1.2-.2,1.8Zm.3-1.2c-.13.54-.06,1.11.2,1.6v-1.4c0-.11-.09-.19-.2-.2Zm6.3,1c.48.04.95-.03,1.4-.2-.48-.04-.95.03-1.4.2Zm1.7.1c.3,0,.7.1,1-.2-.4,0-.9-.2-1,.2Zm-7.5-.2c-.05.58.06,1.17.3,1.7,0-.58-.1-1.16-.3-1.7Zm4.3.5c.46-.04.9-.18,1.3-.4-.47-.04-.93.11-1.3.4Zm4.2-.2h.9c-.14-.25-.46-.33-.71-.19-.08.05-.14.11-.19.19Zm1,0c.32.23.7.37,1.1.4-.27-.32-.69-.47-1.1-.4Zm17.2,1.1c.28-.34.46-.76.5-1.2-.4.3-.4.8-.5,1.2Zm-20.9-.6c.39,0,.77-.1,1.1-.3-.39-.06-.79.05-1.1.3Zm-7,1.6c.12-.63.19-1.26.2-1.9-.31.58-.38,1.26-.2,1.9Zm8.3-1.8c.2.4.8.2,1.1.1-.36-.09-.73-.12-1.1-.1Zm1.2.1c.2.3.7.2,1,.2-.26-.26-.66-.34-1-.2Zm-4.1.6c.45-.11.89-.27,1.3-.5-.49-.05-.97.14-1.3.5Zm6.6-.6c.31.29.69.5,1.1.6-.25-.36-.66-.59-1.1-.6Zm-8.1.8c.45-.13.86-.37,1.2-.7-.45.13-.86.37-1.2.7Zm3-.1c.39,0,.77-.1,1.1-.3-.4,0-1-.2-1.1.3Zm3.6-.4c.2.4.6.4,1,.4-.28-.23-.63-.37-1-.4Zm-10,.1c-.02.57.02,1.14.1,1.7.08-.56.12-1.13.1-1.7h-.2Zm11-.1c.2.4.7.4,1.1.5-.34-.23-.71-.39-1.1-.5Zm-3.4.4c.5.1,1,.1,1.5,0-.48-.2-1.02-.2-1.5,0Zm-5.5.9c.48-.31.91-.68,1.3-1.1-.5.3-1.1.6-1.3,1.1Zm7.2-.9c.3.26.72.34,1.1.2-.35-.15-.72-.22-1.1-.2Zm3.6,0c.32.35.69.66,1.1.9-.24-.43-.63-.75-1.1-.9Zm-9.7,1c.54-.17,1.03-.48,1.4-.9-.55.14-1.04.46-1.4.9Zm1.4-.2c.45-.11.89-.27,1.3-.5-.49-.03-.96.15-1.3.5Zm-4.1-.5c0,.55.1,1.09.3,1.6.07-.44.03-.88-.1-1.3,0-.2-.1-.2-.2-.3Zm10.4,0c.2.4.7.4,1.1.5-.34-.23-.71-.39-1.1-.5Zm15.5,1.6c.43-.45.74-1,.9-1.6-.38.48-.68,1.02-.9,1.6Zm-24.3-.4c.48-.22.9-.56,1.2-1-.5.19-.93.54-1.2,1Zm24.8.7c.44-.43.72-.99.8-1.6-.36.48-.64,1.02-.8,1.6Zm-25.5-.5c.11-.32.18-.66.2-1-.26.26-.34.66-.2,1Zm12.4-.4c.21.43.52.81.9,1.1-.2-.5-.5-1-.9-1.1Zm-11.8,1.1c.5-.24.94-.58,1.3-1-.51.22-.95.57-1.3,1Zm10.3-1c.4.4.9.7,1.3,1.1-.25-.54-.72-.95-1.3-1.1Zm.9,0c.1.5.6.8.9,1.1-.21-.43-.52-.81-.9-1.1Zm-13.6,1.6c.03-.51-.04-1.02-.2-1.5-.13.51-.06,1.05.2,1.5Zm1.3.6c.03-.51-.04-1.02-.2-1.5-.08.51,0,1.03.2,1.5Zm26.4-.6c.31-.4.49-.89.5-1.4-.25.43-.42.91-.5,1.4Zm-27.3-1.3c-.03.44.04.89.2,1.3.1-.4.2-1-.2-1.3Zm1.5,1.8c.09-.58.22-1.15.4-1.7-.5.4-.4,1.1-.4,1.7Zm24.9-.7c-.2.4-.5.8-.7,1.2.49-.44.86-.99,1.1-1.6-.2.1-.4.2-.4.4Zm-11,.9c-.03-.44-.21-.86-.5-1.2.08.43.25.84.5,1.2Zm-1.9-1c.15.44.39.85.7,1.2-.07-.48-.32-.91-.7-1.2Zm.7,0c.02.42.2.81.5,1.1-.06-.41-.23-.79-.5-1.1Zm-11.7,1.6h.1l.3-1.2c-.3.3-.3.8-.4,1.2Zm23.6.3c.48-.39.82-.91,1-1.5-.4.4-.6,1-1,1.5Zm-26.6.1c.13-.45.16-.93.1-1.4-.23.43-.27.94-.1,1.4Zm.7,0c.13-.45.16-.93.1-1.4-.23.43-.27.94-.1,1.4Zm.9-1.2c-.05.43-.05.87,0,1.3.2-.4.4-.9,0-1.3Zm2.1,1.5c.19-.37.3-.78.3-1.2-.34.3-.46.78-.3,1.2Zm11.8-1c0,.45.1.9.3,1.3.05-.45-.06-.91-.3-1.3Zm.6.1c.09.45.22.88.4,1.3-.1-.4,0-1-.4-1.3Zm10.8,1.3c.29-.31.5-.69.6-1.1-.26.33-.46.7-.6,1.1Zm1.6-5.5c.3-.29.48-.68.5-1.1-.27.31-.44.69-.5,1.1Zm-27.4,6.1c.08-.53.12-1.06.1-1.6-.28.49-.32,1.08-.1,1.6Zm24-.4c.5-.3,1-.6,1.1-1.2-.42.35-.79.75-1.1,1.2Zm-22.5.5c.1-.53.1-1.07,0-1.6-.25.5-.25,1.1,0,1.6Zm-2.2.2v-1.4c-.4.4-.1.9,0,1.4Zm4.3.1c.28-.41.42-.9.4-1.4-.4.3-.4.9-.4,1.4Zm-1.4.5c.08-.53.12-1.06.1-1.6-.23.5-.27,1.07-.1,1.6Zm1-1c.08-.53.12-1.06.1-1.6-.23.5-.27,1.07-.1,1.6Zm1.2.7c.19-.41.3-.85.3-1.3-.24.39-.35.85-.3,1.3Zm3.1,0c.2-.4.31-.85.3-1.3-.25.38-.36.84-.3,1.3Zm-6.7.3c.03-.54-.04-1.08-.2-1.6-.04.54.03,1.08.2,1.6Zm.4-2.6c.26-.47.42-.97.5-1.5-.31.44-.49.96-.5,1.5Zm13.2,2.4c.07-.4.03-.81-.1-1.2-.06.4-.03.81.1,1.2Zm6.6,0c.6-.3,1.3-.6,1.5-1.3-.6.4-1,.9-1.5,1.3Zm-15.9.2c.19-.41.33-.85.4-1.3-.29.37-.44.83-.4,1.3Zm16.8.1c.61-.33,1.13-.81,1.5-1.4-.55.41-1.05.88-1.5,1.4Zm2.2-.5c.61-.33,1.13-.81,1.5-1.4-.61.33-1.13.81-1.5,1.4Zm-17.5.5c.16-.36.3-.72.4-1.1-.4.2-.4.7-.4,1.1Zm-.5,1.5c.16-.36.3-.72.4-1.1-.4.2-.4.7-.4,1.1Zm-.6-1.5c.16-.36.3-.72.4-1.1-.29.29-.44.69-.4,1.1Zm9.8-1.1c.02.41.08.81.2,1.2.14-.41.06-.86-.2-1.2Zm-12.5,1.5c.08-.46.11-.93.1-1.4-.23.43-.27.94-.1,1.4Zm19.7.2l1.2-.9c.1-.1.1-.2.1-.4-.48.38-.92.82-1.3,1.3Zm1.9-.4c.47-.18.81-.6.9-1.1-.32.35-.62.71-.9,1.1Zm-24.4-.6c.09.41.22.82.4,1.2,0-.4-.1-.8-.1-1.2-.06.08-.18.1-.27.03-.01,0-.02-.02-.03-.03Zm1.6,1.6c.1-.53.1-1.07,0-1.6-.25.5-.25,1.1,0,1.6Zm-2.2-1.5c.03.6.2,1.18.5,1.7-.06-.59-.23-1.17-.5-1.7Zm23.4,1.4c.5-.4,1.2-.6,1.4-1.3-.7.3-1,.9-1.4,1.3Zm-19-.1c.16-.38.23-.79.2-1.2-.4.3-.2.8-.2,1.2Zm1.8.4c.16-.38.23-.79.2-1.2-.4.3-.3.8-.2,1.2Zm1.1-.1c.27-.42.44-.9.5-1.4-.3.41-.47.9-.5,1.4Zm1.7-1.4v1.2c.25-.36.25-.84,0-1.2Zm6,1.1c.08-.36.12-.73.1-1.1-.4.3-.1.8-.1,1.1Zm4.7-.2c.55-.08,1.05-.37,1.4-.8-.53.13-1.02.4-1.4.8Zm-14.7.3h.1c.09-.36.12-.73.1-1.1-.2.3-.1.7-.2,1.1Zm10.5-1c-.02.4.02.81.1,1.2.1-.3.4-.9-.1-1.2Zm-12,1.5c.21-.4.28-.86.2-1.3-.21.4-.28.86-.2,1.3Zm17.1-.3c.54-.17,1.03-.48,1.4-.9-.55.14-1.04.46-1.4.9Zm-2.6.8c.49-.29.91-.71,1.2-1.2-.45.35-.85.75-1.2,1.2Zm1.3.9c.49-.29.91-.71,1.2-1.2-.6.2-.9.8-1.2,1.2Zm-.3,2c.51-.18.95-.49,1.3-.9-.5.1-.9.6-1.3.9Zm4.6-6.8c.51-.23.93-.61,1.2-1.1-.5.2-.8.7-1.2,1.1Zm1.5-1.5c.42-.36.76-.8,1-1.3-.44.34-.78.79-1,1.3Zm-14.8,5.1c.1-.46.1-.94,0-1.4-.3.4-.1.9,0,1.4Zm-.7-1.3c-.12.46-.18.93-.2,1.4.2-.4.5-1,.2-1.4Zm1.4,0v1.3c.25-.4.25-.9,0-1.3Zm-9.3,1.6c-.02-.51-.08-1.01-.2-1.5-.13.51-.06,1.05.2,1.5Zm1.1.1c.13-.49.17-1,.1-1.5-.3.4-.1,1-.1,1.5Zm1.2.4c.13-.49.17-1,.1-1.5-.14.49-.17,1-.1,1.5Zm9.2-.3c.2-.48.3-.99.3-1.5-.4.4-.3,1-.3,1.5Zm-1-.1c.2-.48.3-.99.3-1.5-.25.46-.36.98-.3,1.5Zm9.1-.3c.51-.18.95-.49,1.3-.9-.51.17-.96.48-1.3.9Zm-12.7-.7c-.11.46-.18.93-.2,1.4.28-.37.42-.83.4-1.3q-.1-.1-.2-.1Zm7.9,1.2c.32-.33.52-.75.6-1.2-.4.2-.5.7-.6,1.2Zm.8-.1c.35-.32.59-.74.7-1.2-.34.33-.58.74-.7,1.2Zm1.5,0c.46-.25.87-.59,1.2-1-.5.19-.93.54-1.2,1Zm3.1.2c.54-.22.99-.61,1.3-1.1-.54.23-.99.61-1.3,1.1Zm-21.1-1c-.03.52.15,1.02.5,1.4-.1-.5-.1-1.1-.5-1.4Zm22.4.8c.52-.29.97-.7,1.3-1.2-.6.2-.9.7-1.3,1.2Zm-18.6.6c.18-.42.31-.85.4-1.3-.31.36-.46.83-.4,1.3Zm.7.2c.21-.42.38-.85.5-1.3-.36.33-.55.81-.5,1.3Zm-3.3-1.3c-.03.48.04.95.2,1.4.1-.5.2-1.1-.2-1.4Zm4,1.5c.28-.45.46-.97.5-1.5-.31.44-.49.96-.5,1.5Zm.8.2c.23-.55.39-1.12.5-1.7-.4.47-.58,1.09-.5,1.7Zm3.3-1.5c-.08.39-.12.8-.1,1.2.2-.4.4-.9.1-1.2Zm-6.7,1.5c.1-.46.1-.94,0-1.4-.3.3-.2.9,0,1.4Zm7.3-.2c.17-.41.24-.86.2-1.3-.21.4-.28.86-.2,1.3Zm9.5-.2c.43-.21.81-.52,1.1-.9-.46.16-.86.48-1.1.9Zm-2.8.4c.43-.26.78-.65,1-1.1-.43.26-.78.64-1,1.1Zm-14.6.5c.05-.43.05-.87,0-1.3-.4.3-.1.9,0,1.3Zm10.6.1c.2-.44.31-.92.3-1.4-.24.42-.35.91-.3,1.4Zm-.8-.2c.2-.44.31-.92.3-1.4-.14.46-.24.93-.3,1.4Zm3.6-2.5c.2-.44.31-.92.3-1.4-.2.44-.31.92-.3,1.4Zm-2.1,1.9c.2-.44.31-.92.3-1.4-.14.46-.24.93-.3,1.4Zm-.2-1.1c.2-.44.31-.92.3-1.4-.2.44-.31.92-.3,1.4Zm1.1.4c.2-.44.31-.92.3-1.4-.19.44-.3.92-.3,1.4Zm-6,1c.2-.44.31-.92.3-1.4-.15.46-.25.92-.3,1.4Zm6.8.2c.32-.3.56-.68.7-1.1-.5.2-.5.7-.7,1.1Zm4.5-.1c.52-.16.95-.52,1.2-1-.45.27-.85.61-1.2,1Zm-4.1.5c.39-.37.69-.81.9-1.3-.38.37-.68.81-.9,1.3Zm-1-1.1c.39-.37.69-.81.9-1.3-.38.37-.68.81-.9,1.3Zm-7.5-.1c-.12.39-.18.79-.2,1.2.22-.36.36-.78.4-1.2-.05.06-.14.06-.2,0,0,0,0,0,0,0Zm.2-1.9c-.12.39-.18.79-.2,1.2.22-.36.36-.78.4-1.2-.1.1-.2.1-.2,0Zm10,2.9c.47-.19.86-.55,1.1-1-.5.1-.8.6-1.1,1Zm-13.9.4c.12-.49.18-.99.2-1.5-.5.4-.3,1.1-.2,1.5Zm16.9-.2c.51-.23.93-.61,1.2-1.1-.47.29-.87.66-1.2,1.1Zm-6.2.4c.38-.33.63-.8.7-1.3-.5.3-.5.8-.7,1.3Zm-3.2-2.1c.3-.4.41-.91.3-1.4-.4.3-.3.9-.3,1.4Zm-9.7.8c.04.42.18.84.4,1.2.02-.44-.12-.86-.4-1.2Zm3.3,1.3c.19-.41.33-.85.4-1.3-.5.3-.4.9-.4,1.3Zm13.5-.2c.47-.15.86-.47,1.1-.9-.45.18-.83.5-1.1.9Zm-8.4.4c.18-.38.31-.79.4-1.2-.32.31-.47.76-.4,1.2Zm.9-.7c.18-.38.31-.79.4-1.2-.32.31-.47.76-.4,1.2Zm-5.3.9c.1-.4.3-.8.4-1.3-.5.3-.4.9-.4,1.3Zm7.7.1c.37-.39.61-.87.7-1.4-.33.41-.57.89-.7,1.4Zm-1.2.6c.37-.39.61-.87.7-1.4-.33.41-.57.89-.7,1.4Zm-.6-.5c.35-.38.53-.88.5-1.4-.2.4-.3.9-.5,1.4Zm-5.2.1c.29-.37.47-.83.5-1.3-.5.2-.5.8-.5,1.3Zm2.3-.1c.22-.4.36-.84.4-1.3-.22.4-.36.84-.4,1.3Zm-.6-.8c.22-.4.36-.84.4-1.3-.3.3-.3.8-.4,1.3Zm-5,.9c0-.4-.1-.9-.1-1.3-.17.43-.13.91.1,1.3Zm11.8.2c.41-.26.67-.71.7-1.2-.35.32-.59.74-.7,1.2Zm1.1-.2c.3-.3.7-.6.8-1-.3.31-.56.64-.8,1Zm-1,1.4c.3-.3.7-.6.8-1-.32.29-.59.63-.8,1Zm1.8-1.5c.4-.25.75-.6,1-1-.36.31-.69.64-1,1Zm-9.8.5c.23-.32.37-.7.4-1.1-.19.34-.33.71-.4,1.1Zm-3.3.1v-1.2c-.2.37-.2.83,0,1.2h0Zm3.8.4c.37-.42.61-.94.7-1.5-.3.4-.4,1-.7,1.5Zm9.8-.5c.47-.19.87-.55,1.1-1-.41.28-.78.62-1.1,1Zm2-.1c.49-.15.91-.47,1.2-.9-.46.22-.86.52-1.2.9Zm-5.4.4c.29-.31.5-.69.6-1.1-.29.31-.5.69-.6,1.1Zm.1,1c.32-.26.56-.61.7-1-.37.21-.63.58-.7,1Zm-5-.9c.3-.29.48-.68.5-1.1-.27.31-.44.69-.5,1.1Zm.5-1.5c.19-.37.3-.78.3-1.2-.25.35-.36.78-.3,1.2Zm-4.9,1.7c.13-.39.17-.8.1-1.2-.3.3-.1.8-.1,1.2Zm5.4-.1c.29-.31.5-.69.6-1.1-.33.28-.54.67-.6,1.1Zm.9-.6c.25-.35.39-.77.4-1.2-.3.3-.3.8-.4,1.2Zm.8-1.7c.22-.36.36-.78.4-1.2-.32.31-.47.76-.4,1.2Zm-6.4,2.6c.24-.39.37-.84.4-1.3-.31.36-.46.83-.4,1.3Zm12.3-.1c.49-.16.89-.53,1.1-1-.43.25-.81.59-1.1,1Zm-4.9.5c.38-.33.63-.8.7-1.3-.38.33-.63.8-.7,1.3Zm.2,1.4c.38-.33.63-.8.7-1.3-.4.3-.5.9-.7,1.3Zm-6.9-1.5c.23-.32.37-.7.4-1.1-.4.2-.3.7-.4,1.1Zm9.6.2c.54-.24.96-.66,1.2-1.2-.52.27-.93.68-1.2,1.2Zm-3.9-.1c.32-.26.56-.61.7-1-.33.25-.58.6-.7,1Zm-1,1.4c.32-.26.56-.61.7-1-.37.21-.63.58-.7,1Zm.8-.2c.32-.26.56-.61.7-1-.4.2-.5.6-.7,1Zm-5-1c.3-.3.6-.6.5-1-.23.3-.39.64-.5,1Zm1.7.2c.33-.24.54-.6.6-1-.34.22-.56.59-.6,1Zm7.7.1c.5-.2,1.2-.4,1.2-1-.42.31-.82.64-1.2,1Zm-6.9.1c.35-.3.63-.67.8-1.1-.5.2-.6.7-.8,1.1Zm1.9-.4c.31-.35.55-.76.7-1.2-.5.2-.5.8-.7,1.2Zm1.8.6c.3-.3.7-.7.7-1.1-.36.27-.6.66-.7,1.1Zm-5.5-.2c.3-.17.52-.46.6-.8-.28.19-.49.47-.6.8Zm2.7.2c.34-.28.59-.67.7-1.1-.32.3-.56.68-.7,1.1Zm3.8.3c.38-.26.68-.6.9-1-.4.23-.71.58-.9,1Zm-5.4-.1c.2-.17.36-.38.5-.6-.3,0-.4.3-.5.6Zm6,.2c.38-.15.7-.44.9-.8-.32.24-.63.51-.9.8Z" fill="#3b53b5" stroke-width="0"/><path d="m56.07,56.75c.86-.46,1.88-.53,2.8-.2.1.1.3.2.4.3-.63-.12-1.26-.18-1.9-.2-.44.05-.88.15-1.3.3v-.2Z" fill="#af0e40" stroke-width="0"/><path d="m75.97,63.15c-.3.75-.71,1.46-1.2,2.1-1.15,1.53-2.49,2.91-4,4.1-1.4,1.2-2.8,2.4-4.1,3.7,0-.08.04-.15.1-.2,1.3-1.3,2.6-2.5,4-3.8.8-.8,1.7-1.5,2.5-2.4.98-1.1,1.88-2.27,2.7-3.5Z" fill="#163540" stroke-width="0"/><path d="m44.67,68.95c.67,2.01,1.72,3.88,3.1,5.5.79.89,1.52,1.82,2.2,2.8-.18-.08-.32-.22-.4-.4-.6-.8-1.3-1.5-1.9-2.2-.62-.63-1.16-1.34-1.6-2.1-.49-.84-.86-1.75-1.1-2.7-.23-.24-.34-.57-.3-.9Z" fill="#102f3a" stroke-width="0"/><path d="m94.77,70.45c.4-.3.7-.7,1.1-1-.1.5-.5.8-.9,1.2-2.95,2.95-5.54,6.24-7.7,9.8-.27.6-.61,1.17-1,1.7.13-.32.3-.62.5-.9,1.01-2.01,2.21-3.92,3.6-5.7,1.33-1.81,2.8-3.52,4.4-5.1h0Z" fill="#11303b" stroke-width="0"/><path d="m56.17,85.55c.7-.2,1.3.7,1.1,1.3-.15.65-.65,1.15-1.3,1.3-.46.02-.86-.33-.88-.8,0-.14.02-.28.08-.4.2-.6.4-1.2,1-1.4Z" fill="#151c2c" stroke-width="0"/><path d="m85.57,86.55c.28-.38.62-.72,1-1-.03.28-.17.53-.4.7-1.5,1.71-2.84,3.55-4,5.5-.53.8-.99,1.63-1.4,2.5-.3.5-.5,1-.8,1.4.06-.47.23-.91.5-1.3.83-1.71,1.8-3.35,2.9-4.9.59-1.07,1.33-2.05,2.2-2.9Z" fill="#11313d" stroke-width="0"/><path d="m82.57,86.95c.08-.18.22-.32.4-.4-.22.62-.49,1.22-.8,1.8-.96,1.73-1.7,3.58-2.2,5.5-.21.65-.38,1.32-.5,2-.05-.3-.05-.6,0-.9.2-.7.3-1.5.5-2.2.31-.99.67-1.96,1.1-2.9.4-1.02.9-1.99,1.5-2.9Zm-61.5,2.5c.8.4,1.6.7,2.4,1.1,1.48.83,2.75,1.99,3.7,3.4.3.44.57.91.8,1.4l-.6-.9c-1.12-1.65-2.63-2.99-4.4-3.9-.7-.23-1.35-.6-1.9-1.1Z" fill="#163540" stroke-width="0"/><path d="m4.97,93.85c.6-1.48,1.3-2.92,2.1-4.3-.1.2-.1.4-.2.6-.63,1.87-1.36,3.71-2.2,5.5-.71,1.41-1.28,2.88-1.7,4.4-.1.8-.2,1.5-.3,2.3.02.4-.02.81-.1,1.2-.07-.97-.03-1.94.1-2.9.11-1.07.38-2.11.8-3.1.37-1.28.87-2.52,1.5-3.7Zm15.1-2c.69.07,1.36.24,2,.5,1.33.54,2.55,1.32,3.6,2.3.8.7,1.5,1.5,2.3,2.2.17.18.3.38.4.6-.11,0-.19-.09-.2-.2-1.35-1.37-2.82-2.61-4.4-3.7-1.2-.7-2.5-1.1-3.7-1.7Z" fill="#102f3a" stroke-width="0"/><path d="m84.17,94.45c.22-.11.46-.18.7-.2-.7.6-1.5.9-2.2,1.4.48-.43.98-.83,1.5-1.2Z" fill="#c76847" stroke-width="0"/><path d="m33.57,50.65h.2c.13,2.49.46,4.96,1,7.4.27,1.15.61,2.28,1,3.4.12.45.29.88.5,1.3.5,1,1,2.1,1.6,3.1.5.7.8,1.4,1.3,2.1.7.9,1.5,1.9,2.2,2.9.7.8,1.3,1.6,2,2.4.75.85,1.55,1.65,2.4,2.4.6.6,1.2,1,1.8,1.6,1.1,1.1,2.4,2.1,3.5,3.2.7.6,1.4,1.3,2.2,1.9.41.24.78.55,1.1.9.4-.5.6-1.3,1.3-1.5v.3c-.49.52-.92,1.09-1.3,1.7-1.11,1.71-1.89,3.61-2.3,5.6-.23.88-.36,1.79-.4,2.7.26-.94.63-1.85,1.1-2.7.74-1.53,1.65-2.97,2.7-4.3,2.08-2.63,4.62-4.87,7.5-6.6,2.1-1.4,4.4-2.4,6.5-3.9,1.3-.9,2.7-1.7,3.9-2.7.93-.7,1.77-1.5,2.5-2.4,1.01-1.04,1.91-2.18,2.7-3.4.36-.53.66-1.1.9-1.7.4-1.3,1-2.5,1.4-3.8.45-1.4.75-2.84.9-4.3.23-1.79.37-3.59.4-5.4.17.3.24.65.2,1-.02,2.01-.18,4.02-.5,6-.29,1.46-.69,2.9-1.2,4.3-.34,1.08-.81,2.12-1.4,3.1-.44.9-.94,1.77-1.5,2.6-1.38,1.68-2.92,3.22-4.6,4.6-1.2,1-2.5,1.7-3.8,2.6-1.7,1.2-3.6,2-5.4,3.1-1.53.85-2.97,1.85-4.3,3-.94.75-1.81,1.59-2.6,2.5-1.65,1.68-2.97,3.64-3.9,5.8-.53.88-.97,1.82-1.3,2.8,1.1,0,2.2-.1,3.4-.1.87.02,1.74.08,2.6.2,2.2.2,4.5.4,6.7.8,1.5.3,3.1.5,4.6.9,1.23.27,2.43.64,3.6,1.1,1.3.4,2.6.7,3.9,1.2,2.5.9,5.1,1.6,7.6,2.4,1.1.4,2.2.7,3.3,1-.76.24-1.59.17-2.3-.2-2.1-.7-4.2-1.4-6.3-2-1.5-.5-3.1-1.1-4.6-1.5-1.3-.4-2.5-.7-3.8-1.2-1.6-.4-3.2-.8-4.9-1.1-1.92-.4-3.85-.7-5.8-.9l-3.8-.3c-1.73-.1-3.47-.1-5.2,0-2.4.2-4.8.2-7.2.6-1.8.2-3.5.5-5.3.8-.72.19-1.46.32-2.2.4-.2,0,.1.3.1.4-.19.52-.43,1.02-.7,1.5-.58,1.49-1.02,3.03-1.3,4.6,2.1.6,4.2,1.3,6.3,2,1.8.7,3.6,1.5,5.4,2.3.15.09.33.13.5.1,2.3,0,4.5-.2,6.8-.4,2.5-.2,4.9-.4,7.4-.7h.5c-.38.16-.79.26-1.2.3-2.7.4-5.4.8-8.1,1-1.66.17-3.33.23-5,.2,1.62.7,3.19,1.5,4.7,2.4.66.46,1.37.86,2.1,1.2,1.4.1,2.8.1,4.2,0,3.15-.42,6.33-.58,9.5-.5v.2c-2.91.05-5.81.25-8.7.6-1.56.2-3.14.2-4.7,0,1.89,1.04,3.73,2.17,5.5,3.4,1.3.8,2.5,1.7,3.7,2.6,2.78,1.99,5.69,3.79,8.7,5.4.95.57,1.96,1.04,3,1.4,1.15.53,2.36.94,3.6,1.2,1.2.2,2.4.5,3.7.7,1.19.2,2.39.3,3.6.3,1.61.12,3.23-.02,4.8-.4.86-.18,1.7-.44,2.5-.8.9-.37,1.76-.81,2.6-1.3,1.5-.9,3.1-1.8,4.6-2.8.54-.39,1.01-.86,1.4-1.4.08-.08.19-.11.3-.1.1.2-.1.4-.2.6-.38.51-.82.98-1.3,1.4-1.1.8-2.3,1.5-3.5,2.2-.8.4-1.5.9-2.3,1.3-.93.48-1.9.89-2.9,1.2-2.37.65-4.85.86-7.3.6-1.54-.1-3.08-.3-4.6-.6-.91-.15-1.81-.35-2.7-.6-.72-.22-1.42-.49-2.1-.8-.59.37-1.23.64-1.9.8-2.03.8-4.1,1.51-6.2,2.1-2.1.7-4.2,1.3-6.4,1.8-1.3.3-2.5.7-3.8.9s-2.7.7-4,.9c-1.1.1-2.1.3-3.2.3s-2.2.1-3.2.1c-.05.53-.05,1.07,0,1.6,0,.7-.1,1.5-.1,2.2-.08,1.88.09,3.76.5,5.6.2,1,.5,2,.7,3,.4,2.2,1.2,4.4,1,6.7-.31,2.26-.99,4.45-2,6.5-.91,2.15-1.39,4.46-1.4,6.8-.08,1.67-.02,3.34.2,5,.22.92.38,1.86.5,2.8.2,1.1.5,2.2.8,3.3.05.53.05,1.07,0,1.6-.3-.5-.2-1.1-.4-1.7-.36-1.11-.63-2.25-.8-3.4-.1-1.1-.5-2.2-.6-3.4-.3-2.73-.2-5.5.3-8.2.52-1.85,1.19-3.66,2-5.4.49-1.28.79-2.63.9-4,.02-1.56-.22-3.12-.7-4.6-.3-1-.3-2-.6-2.9-.3-.98-.5-1.98-.6-3-.19-1.03-.32-2.06-.4-3.1-.03-1.07.03-2.14.2-3.2-.02-.7.02-1.4.1-2.1-1.8,0-3.5,0-5.3-.1-.9,0-1.8-.1-2.6-.1-1.6-.1-3.2-.1-4.9-.2-1.61-.17-3.22-.44-4.8-.8-3.1-.61-6.15-1.48-9.1-2.6-1-.4-2-.9-3-1.4-1.21-.65-2.35-1.42-3.4-2.3-.7-.41-1.34-.92-1.9-1.5-1.1-.89-2.14-1.86-3.1-2.9-.36-.39-.66-.83-.9-1.3.14-.01.28.02.4.1.7.8,1.4,1.6,2.1,2.3l2.4,2.1c1,.7,2.1,1.4,3.1,2.2.94.63,1.95,1.17,3,1.6,2.03.93,4.14,1.66,6.3,2.2,2.36.69,4.76,1.19,7.2,1.5,2.8.4,5.6.2,8.3.5.6.1,1.2,0,1.9.1-.88-.29-1.75-.62-2.6-1-1.03-.47-2.03-1.01-3-1.6-.7-.4-1.3-1-2-1.5-1-.7-1.9-1.4-2.9-2.1.67.19,1.28.53,1.8,1,.8.5,1.7,1.1,2.5,1.7,1.7,1.14,3.51,2.11,5.4,2.9.75.38,1.56.62,2.4.7,1.5.1,3,0,4.5,0,1.1-.1,2.3-.1,3.4-.2.9-.1,1.9-.3,2.8-.4-.92-.06-1.82-.23-2.7-.5-2.02-.65-4-1.45-5.9-2.4-1.55-.93-3.15-1.77-4.8-2.5-1-.4-2-.8-3-1.3-.7-.4-1.4-.7-2-1.1.56.06,1.1.23,1.6.5,1.1.5,2.2,1,3.3,1.4,1.75.73,3.45,1.57,5.1,2.5,1.86.93,3.81,1.7,5.8,2.3,1.14.45,2.37.65,3.6.6,3.4-.7,6.7-1.7,10-2.6,2-.7,4-1.2,6-2,1.3-.4,2.5-.9,3.7-1.4-1.78-.83-3.52-1.77-5.2-2.8-2.2-1.3-4.2-2.6-6.3-4.1-1.5-1.1-3.1-2.2-4.7-3.3-2-1.3-4-2.4-6.1-3.6-2.05-1.26-4.19-2.36-6.4-3.3-.39-.15-.79-.25-1.2-.3.05-.05.09-.12.1-.2-1.3-.6-2.7-1.2-4-1.7-3.39-1.28-6.87-2.31-10.4-3.1-1.9-.5-3.8-.6-5.8-1-.88-.06-1.76-.23-2.6-.5.2-.3.6-.2.9-.2,2.1.2,4.1.4,6.2.8.3-1.1.6-2.2,1-3.3-.1,0-.2,0-.2.1.4-.3.4-1,.6-1.4.24-1.08.37-2.19.4-3.3.09-.61.02-1.23-.2-1.8-.3-.7-.6-1.5-.9-2.2-.88-1.96-1.99-3.8-3.3-5.5-.17-.18-.3-.38-.4-.6.52.49.99,1.02,1.4,1.6,1.48,1.9,2.56,4.08,3.2,6.4-.1-1-.2-1.9-.3-2.9,0-.6-.2-1.2-.2-1.9l.3.9c.15.73.25,1.46.3,2.2.25,1.28.35,2.59.3,3.9-.1.7-.1,1.4-.2,2.1s-.3,1.3-.4,2c1.47-.66,3.01-1.13,4.6-1.4.77-.08,1.54-.22,2.3-.4.96-.22,1.92-.39,2.9-.5,1-.2,2-.3,3-.5,2.61-.43,5.25-.67,7.9-.7.13-2.54.78-5.02,1.9-7.3.3-.6.6-1.1.9-1.6-.8-.7-1.7-1.3-2.5-2-.56-.44-1.09-.91-1.6-1.4-.9-.8-1.8-1.5-2.7-2.4-.7-.7-1.5-1.2-2.1-1.9-.8-.8-1.6-1.5-2.4-2.4l-2-2.3c-.7-.9-1.4-1.9-2.1-2.8-.31-.51-.68-.98-1.1-1.4-.9-.8-1.9-1.6-2.8-2.4-.51-.46-1.04-.9-1.6-1.3-.79-.66-1.62-1.26-2.5-1.8-.4-.3-.9-.5-1.1-.9.93.41,1.83.87,2.7,1.4,1.32.89,2.56,1.89,3.7,3l1.8,1.8c-.66-1.1-1.26-2.24-1.8-3.4-.3-.49-.51-1.03-.6-1.6-.75-2.14-1.29-4.35-1.6-6.6-.22-1.32-.29-2.66-.2-4Zm-2.9,45.4c-.4,1.2-.6,2.4-1.1,3.6,1.5.3,3,.8,4.5,1.2.32-2.22,1.07-4.36,2.2-6.3-1.93.2-3.82.71-5.6,1.5Z" fill="#102f3b" stroke-width="0"/><path d="m85.37,95.75c.64-.38,1.36-.62,2.1-.7-1.35.48-2.66,1.08-3.9,1.8.52-.48,1.13-.85,1.8-1.1Z" fill="#c76847" stroke-width="0"/><path d="m7.37,96.05c.1-.4.1-.8.4-1,.01.69-.12,1.37-.4,2-.6,1.8-1.4,3.5-2,5.4-.42,1.2-.69,2.44-.8,3.7-.1,1.33-.1,2.67,0,4,.05.67.15,1.34.3,2-.25-.62-.45-1.25-.6-1.9-.24-2.46,0-4.93.7-7.3.6-2.5,1.8-4.6,2.4-6.9Z" fill="#13333e" stroke-width="0"/><path d="m84.47,98.65c.44-.58,1.08-.97,1.8-1.1-.56.42-1.17.79-1.8,1.1Z" fill="#c76847" stroke-width="0"/><path d="m89.67,97.95c.49-.12.99-.18,1.5-.2h3.9c1.68.13,3.35.36,5,.7.42.07.82.21,1.2.4-1.41-.35-2.85-.55-4.3-.6-2.2-.2-4.5-.2-6.7-.2-.2.07-.43.03-.6-.1Z" fill="#102f3a" stroke-width="0"/><path d="m87.77,99.55c2.25-.01,4.5.22,6.7.7,1.5.33,2.97.76,4.4,1.3.91.26,1.78.63,2.6,1.1v.2c-.86-.44-1.76-.77-2.7-1-2.6-.85-5.28-1.45-8-1.8l-3-.3v-.2Zm-1.1.6c.39,0,.76.11,1.1.3,2.9.9,5.4,2.8,7.9,4.4.81.42,1.52,1,2.1,1.7-.3,0-.6-.3-.8-.5-1.8-1.2-3.7-2.2-5.6-3.4-1.3-.8-2.6-1.4-4-2.1-.25-.09-.49-.23-.7-.4Zm16,20.7c.13.7.06,1.43-.2,2.1-.58,1.36-1.28,2.67-2.1,3.9-2,3.2-4.1,6.3-6,9.7-.5.8-.8,1.7-1.3,2.5.05-.31.16-.62.3-.9,1.91-3.96,4.11-7.77,6.6-11.4.83-1.28,1.57-2.61,2.2-4,.2-.6.3-1.2.5-1.9h0Zm-96.6,8.8c-.57-2.29-.63-4.68-.2-7,.1,1.3.1,2.6.1,3.9.25,2.25.75,4.46,1.5,6.6.6,1.9,1.2,3.8,1.9,5.6,0,.2.1.3.1.5l-.3-.6c-1.21-2.94-2.25-5.94-3.1-9Zm96.9-2.6c.5.5,0,1.2-.2,1.7-1.29,2.5-2.79,4.87-4.5,7.1-.38.61-.81,1.18-1.3,1.7.23-.49.5-.96.8-1.4,1.3-2,2.5-3.9,3.7-6,.68-.94,1.18-1.99,1.5-3.1Z" fill="#102f3b" stroke-width="0"/></g></svg>