<?xml version="1.0" encoding="utf-8"?>
<!-- Generator: Adobe Illustrator 25.0.1, SVG Export Plug-In . SVG Version: 6.00 Build 0)  -->
<svg version="1.0" id="Layer_1" xmlns="http://www.w3.org/2000/svg" xmlns:xlink="http://www.w3.org/1999/xlink" x="0px" y="0px"
	 viewBox="0 0 894.4 528.7" style="enable-background:new 0 0 894.4 528.7;" xml:space="preserve">
<style type="text/css">
	.st0{fill:#F0B90B;}
	.st1{fill:none;}
</style>
<symbol  id="icon-h-us-l" viewBox="-3200 -511.4 6400 1022.8">
	<path class="st0" d="M-2968.9,0l-115.6-115.5L-3200,0l115.5,115.5L-2968.9,0z M-2688.6,280.5l198-198l115.5,115.5l-313.5,313.4
		L-3002,198l115.5-115.5l198,198L-2688.6,280.5z M-2292.6,115.5L-2408.1,0l115.5-115.5L-2177.2,0L-2292.6,115.5L-2292.6,115.5z
		 M-2688.6-280.4l-198,197.9L-3002.1-198l313.4-313.4l313.5,313.4l-115.5,115.4L-2688.6-280.4L-2688.6-280.4z M-2688.6-115.5
		L-2573.1,0l-115.5,115.5L-2804.1,0L-2688.6-115.5L-2688.6-115.5z M-1469.6-126.6v1.6c0,75.4-40,113-105,137.8
		c40,22.5,73.8,57.7,73.8,121v1.6c0,88.1-70.6,145.1-185.2,145.1h-260.2v-561h266.8C-1552.8-280.5-1469.5-229.2-1469.6-126.6
		L-1469.6-126.6L-1469.6-126.6z M-1623.4,113.2c0-41.7-34.4-59.3-89-59.3H-1826v118.4h121.8c52.1,0,80.9-20.8,80.9-57.6
		L-1623.4,113.2L-1623.4,113.2z M-1592.2-111.2c0-41.6-32.8-60.8-87.3-60.8H-1826v123.2h142.6c63.4,0,91.3-23.3,91.3-61
		L-1592.2-111.2L-1592.2-111.2z M-1210.4-280.5v560.9h-123.8v-560.9L-1210.4-280.5z M-547-280.5v560.9h-122.2V-65l-262.9,345.4
		h-113.7v-560.9h121.8V76.2l271.6-356.6L-547-280.5L-547-280.5z M136.5-280.5l-240.8,564.9H-218l-240.4-564.9h125.8l51.5,125.8H-44
		L7.4-280.5H136.5z M-87.9-45.7h-149.3l74.5,181.8L-87.9-45.7z M724.7-280.5v560.9H602.5V-65L339.7,280.5H225.9v-560.9h121.8V76.2
		l271.7-356.6L724.7-280.5L724.7-280.5z M1361.7-189.9l-78.5,79.4c-44.1-40-83.3-65.7-147.4-65.7c-96.1,0-162.7,80-162.7,176.3v1.6
		c0,96.1,68.1,174.7,162.7,174.7c56,0,99.9-24,143.4-63.3l78.3,90.5c-52,51.2-115.4,86.5-221.1,86.5C964.1,290.1,844,159.5,844,0.3
		v-1.6c0-161.1,122.6-288.4,287.6-288.4c107.9-0.3,172.1,38.1,229.7,99.8L1361.7-189.9z M1888.2-280.5v109.9h-304.8v118h264.5V57.4
		h-264.5v113.2h300.4v109.9h-423v-560.9L1888.2-280.5L1888.2-280.5z M2035.4-280.6v84.2h73.8v-84.2L2035.4-280.6z M2684.7-40.9
		c0-163.5-93.9-248.5-234.1-248.5s-233.7,84.9-233.7,243.7v326.3h63.3V-41.7c0-121,64-189.1,171.6-189.1
		c103.4,0,169.2,62.5,169.2,185.2v326.3h63.4L2684.7-40.9L2684.7-40.9z M3017.1,30.6c125.1-27.3,182.9-73,182.9-159.9
		c0-97-80-159.9-191.7-159.9c-89,0-162,30-229.8,89.9l39.8,46.8c58.5-52.9,114.6-79.4,192.4-79.4c75.3,0.3,125.3,39.5,125.3,96.3
		c0,53-28.1,82.6-146,107.5c-129.1,28.1-188.5,70-188.5,162.8c0,89.9,77.9,153.8,184.5,153.8c72,2.1,142.2-22.5,197.2-69l-37.2-48.8
		c-52.1,42.5-104.2,61-162,61c-72.9,0-119.9-40-119.9-91.4C2864.7,86.7,2893.6,57.4,3017.1,30.6L3017.1,30.6z"/>
</symbol>
<g>
	<defs>
		<rect id="SVGID_1_" x="81.4" y="210.3" width="704" height="112.5"/>
	</defs>
	<clipPath id="SVGID_2_">
		<use xlink:href="#SVGID_1_"  style="overflow:visible;"/>
	</clipPath>
	<g style="clip-path:url(#SVGID_2_);">
		
			<use xlink:href="#icon-h-us-l"  width="6400" height="1022.8" x="-3200" y="-511.4" transform="matrix(0.11 0 0 -0.11 433.37 266.5682)" style="overflow:visible;"/>
	</g>
</g>
<rect x="56.4" y="182.7" class="st1" width="781.6" height="163.3"/>
</svg>
