<?xml version="1.0" encoding="UTF-8"?><svg id="Hand" xmlns="http://www.w3.org/2000/svg" viewBox="0 0 500 446.14"><path d="m95.26,184.84l2.23,237.94h5.86l-2.56-175.95-1.48-61.99s2.66.15,2.85-6.33c.2-6.48,3.73-32.59,3.73-32.59l-2.55-.79s-3.93,32.39-4.71,33.37c-.79.98-2.94-1.96-3.34-5.1-.39-3.14,0-34.94,0-34.94l-3.93.2s0,36.71.79,40.64c.79,3.93,3.1,5.54,3.1,5.54Z" fill="#a3a3a3" stroke="#263238" stroke-linecap="round" stroke-linejoin="round"/><path d="m99.32,184.84c.28-.11.6-.23.93-.36.79-.57,1.8-2.06,1.92-5.97.2-6.48,3.73-32.59,3.73-32.59l-2.55-.79s-3.93,32.39-4.71,33.37c-.79.98-2.94-1.96-3.34-5.1-.39-3.14,0-34.94,0-34.94l-3.93.2s0,36.71.79,40.64c.79,3.93,3.1,5.54,3.1,5.54,0,0,.96,1.19,4.06,0Z" fill="#263238" stroke="#263238" stroke-linecap="round" stroke-linejoin="round"/><path d="m98.07,138.04s7.46-10.4,19.44-15.31c11.98-4.91,33.57-8.05,34.36-8.05s-20.22,6.67-26.7,9.62c-6.48,2.94-14.92,7.46-17.47,10.21-2.55,2.75-14.53,21.99-14.53,21.99,0,0,.39-7.85,4.91-18.45Z" fill="#263238" stroke="#263238" stroke-linecap="round" stroke-linejoin="round"/><path d="m77.61,104.16s-7.46-10.4-19.44-15.31c-11.98-4.91-33.57-8.05-34.36-8.05s20.22,6.67,26.7,9.62c6.48,2.94,14.92,7.46,17.47,10.21,2.55,2.75,14.53,21.99,14.53,21.99,0,0-.39-7.85-4.91-18.45Z" fill="#ffce32" stroke="#263238" stroke-linecap="round" stroke-linejoin="round"/><path d="m94.1,133.41s-20.42-30.23-26.11-32.78c-5.69-2.55-10.21-4.91-17.86-2.94-7.66,1.96-23.56,10.6-26.5,12.17-2.94,1.57-6.87,4.32-8.44,5.1-1.57.79,20.22-12.17,32.39-13.74,12.17-1.57,14.33,4.32,27.48,14.53,13.15,10.21,19.04,17.67,19.04,17.67Z" fill="#ffce32" stroke="#263238" stroke-linecap="round" stroke-linejoin="round"/><path d="m94.1,133.41s-13.55-21.59-22.77-23.95c-9.23-2.36-20.22,2.75-23.95,4.91-3.73,2.16-9.23,14.33-10.4,19.04-1.18,4.71-1.96,8.25-1.96,8.25,0,0,11.78-19.24,16.49-22.18,4.71-2.94,11.98-7.46,14.13-7.85,2.16-.39,23.75,12.76,28.47,21.79Z" fill="#ffce32" stroke="#263238" stroke-linecap="round" stroke-linejoin="round"/><path d="m88.6,122.22s-26.31-17.67-40.05-17.47c-13.74.2-30.82,5.3-35.34,6.09-4.52.79-9.03,50.55-9.03,50.55,0,0,19.44-45.06,25.91-44.86,6.48.2,27.68-5.89,34.75-3.53,7.07,2.36,23.75,9.23,23.75,9.23Z" fill="#ffce32" stroke="#263238" stroke-linecap="round" stroke-linejoin="round"/><path d="m93.7,140.28s-8.44-15.9-15.51-19.44-14.13,2.75-25.32,7.07c-11.19,4.32-19.63,7.26-19.63,7.26,0,0,18.45.98,25.52-1.57,7.07-2.55,18.26-7.46,20.81-7.07,2.55.39,14.13,13.74,14.13,13.74Z" fill="#ffce32" stroke="#263238" stroke-linecap="round" stroke-linejoin="round"/><path d="m99.82,145.53s-7.46-40.24-7.46-54.97.2-21.01.2-21.01c0,0,4.91,19.24,5.5,21.59.59,2.36.59,6.28.59,6.28,0,0,3.53-20.81,8.05-25.91,4.52-5.1,10.21-7.66,10.21-7.66,0,0-5.1,9.62-6.09,12.37-.98,2.75,4.12-3.73,9.62-5.3,5.5-1.57,19.04-4.52,19.04-4.52,0,0-18.06,7.26-20.22,9.62-2.16,2.36-7.46,10.99-7.85,11.98-.39.98-6.87,12.17-8.64,18.65-1.77,6.48-2.94,38.87-2.94,38.87Z" fill="#263238" stroke="#263238" stroke-linecap="round" stroke-linejoin="round"/><path d="m104.33,96.65l15.31-10.21s18.85-2.94,21.99-1.96c3.14.98,7.46,3.93,7.46,3.93,0,0-12.17-1.18-17.47,1.37-5.3,2.55-16.88,7.07-23.75,16.29-6.87,9.23-9.42,19.44-10.21,22.77-.79,3.34-2.36,9.62-2.36,9.62,0,0-3.53-17.08-2.16-23.95,1.37-6.87,11.19-17.86,11.19-17.86Z" fill="#ffce32" stroke="#263238" stroke-linecap="round" stroke-linejoin="round"/><path d="m85.09,85.65s9.03,12.17,10.4,16.1c1.37,3.93,3.53-9.82,13.15-18.26,9.62-8.44,40.64-13.55,40.64-13.55,0,0-37.69,18.26-43.39,25.52-5.69,7.26-11.19,19.63-11.19,20.22v7.26l-9.62-37.3Z" fill="#ffce32" stroke="#263238" stroke-linecap="round" stroke-linejoin="round"/><path d="m91.59,111.19s-12.56-21.59-19.04-29.05c-6.48-7.46-27.88-24.15-27.88-24.15,0,0,8.83,10.99,20.22,26.5,11.39,15.51,29.45,38.28,29.45,38.28l-2.75-11.58Z" fill="#263238" stroke="#263238" stroke-linecap="round" stroke-linejoin="round"/><path d="m89.81,153.38s-20.42-16.69-31.21-12.56c-10.8,4.12-23.17,17.28-23.17,17.28l-2.75,14.92s14.53-21.01,20.81-23.95c6.28-2.94,15.12-4.12,19.44-3.14,4.32.98,17.08,11.78,17.67,13.15.59,1.37-.79-5.69-.79-5.69Z" fill="#ffce32" stroke="#263238" stroke-linecap="round" stroke-linejoin="round"/><path d="m84.51,103.91s-3.93-3.53-6.48-17.67c-2.55-14.13.39-26.9.39-26.9,0,0,1.37,8.44,4.52,18.26,3.14,9.82,3.14,13.35,7.85,27.88,4.71,14.53,5.3,40.64,5.1,41.23-.2.59-11.39-42.8-11.39-42.8Z" fill="#ffce32" stroke="#263238" stroke-linecap="round" stroke-linejoin="round"/><path d="m116.7,108.03s6.09-7.85,13.94-10.21c7.85-2.36,15.9-2.16,15.9-2.16,0,0-11.78-3.34-19.63-1.77-7.85,1.57-13.94,10.8-16.69,19.44-2.75,8.64-2.75,28.86-2.75,28.86,0,0,4.32-26.5,9.23-34.16Z" fill="#263238" stroke="#263238" stroke-linecap="round" stroke-linejoin="round"/><path d="m87.17,115.64s.42-8.27-6.15-17.8c-6.57-9.54-19.92-14.84-29.25-18.86-9.33-4.03-14.84-5.72-14.84-5.72,0,0,20.98,16.53,26.49,18.86,5.51,2.33,9.54,5.51,13.35,9.96,3.82,4.45,10.6,20.77,10.6,21.83s-.21-8.27-.21-8.27Z" fill="#ffce32" stroke="#263238" stroke-linecap="round" stroke-linejoin="round"/><path d="m110.81,127.47s7.46-10.4,19.44-15.31c11.98-4.91,33.57-8.05,34.36-8.05s-20.22,6.67-26.7,9.62c-6.48,2.94-14.92,7.46-17.47,10.21-2.55,2.75-14.53,21.99-14.53,21.99,0,0,.39-7.85,4.91-18.45Z" fill="#ffce32" stroke="#263238" stroke-linecap="round" stroke-linejoin="round"/><path d="m94.32,156.72s20.42-30.23,26.11-32.78c5.69-2.55,10.21-4.91,17.86-2.94,7.66,1.96,23.56,10.6,26.5,12.17,2.94,1.57,6.87,4.32,8.44,5.1,1.57.79-20.22-12.17-32.39-13.74-12.17-1.57-14.33,4.32-27.48,14.53-13.15,10.21-19.04,17.67-19.04,17.67Z" fill="#ffce32" stroke="#263238" stroke-linecap="round" stroke-linejoin="round"/><path d="m94.32,156.72s13.55-21.59,22.77-23.95c9.23-2.36,20.22,2.75,23.95,4.91,3.73,2.16,9.23,14.33,10.4,19.04,1.18,4.71,1.96,8.25,1.96,8.25,0,0-11.78-19.24-16.49-22.18-4.71-2.94-11.98-7.46-14.13-7.85-2.16-.39-23.75,12.76-28.47,21.79Z" fill="#263238" stroke="#263238" stroke-linecap="round" stroke-linejoin="round"/><path d="m99.82,145.53s26.31-17.67,40.05-17.47c13.74.2,30.82,5.3,35.34,6.09,4.52.79,9.03-.39,9.03-.39,0,0-19.44,5.89-25.91,6.09-6.48.2-27.68-5.89-34.75-3.53-7.07,2.36-23.75,9.23-23.75,9.23Z" fill="#ffce32" stroke="#263238" stroke-linecap="round" stroke-linejoin="round"/><path d="m106.89,137.68s-4.52-13.74.2-23.75c4.71-10.01,10.8-23.75,10.8-23.75,0,0,2.16,17.47-1.57,29.25-3.73,11.78-9.42,18.26-9.42,18.26Z" fill="#ffce32" stroke="#263238" stroke-linecap="round" stroke-linejoin="round"/><path d="m95.5,147.69s0-17.08-11.78-25.13c-11.78-8.05-24.93-10.6-29.64-8.05-4.71,2.55-18.85,10.4-22.97,15.71-4.12,5.3-7.46,9.42-7.46,9.42,0,0,20.81-13.74,27.29-18.45,6.48-4.71,9.62-5.89,11.98-5.3,2.36.59,15.9,6.87,21.2,10.99,5.3,4.12,11.39,20.81,11.39,20.81Z" fill="#ffce32" stroke="#263238" stroke-linecap="round" stroke-linejoin="round"/><path d="m95.89,150.44c-.2-.59.39-5.1-7.66-5.69-8.05-.59-14.13,2.94-15.51,5.89s0,10.8.2,11.58c.2.79,1.18-10.4,10.6-12.56,9.42-2.16,12.37.79,12.37.79Z" fill="#263238" stroke="#263238" stroke-linecap="round" stroke-linejoin="round"/><path d="m92.75,157.7s-2.55-5.5-7.66-11.39c-5.1-5.89-16.1-11.39-21.4-8.05-5.3,3.34-11.39,17.28-13.35,21.2-1.96,3.93-6.48,15.9-6.87,16.49-.39.59,11.58-10.6,16.69-17.28,5.1-6.67,8.64-15.9,11.58-16.69,2.94-.79,9.03,5.1,9.03,5.1l14.53,21.01-2.55-10.4Z" fill="#ffce32" stroke="#263238" stroke-linecap="round" stroke-linejoin="round"/><path d="m93.54,143.37s-2.55-11.78-11.39-14.92c-8.83-3.14-19.44-4.32-23.56-1.96-4.12,2.36-22.18,19.04-22.18,19.04l-2.36,6.09s26.5-19.44,32.59-21.4q6.09-1.96,12.56,1.96c6.48,3.93,14.33,11.19,14.33,11.19Z" fill="#ffce32" stroke="#263238" stroke-linecap="round" stroke-linejoin="round"/><path d="m91.97,143.37s-25.72-15.51-31.21-17.47c-5.5-1.96-17.86,2.94-21.4,7.46-3.53,4.52-15.9,29.05-16.49,30.82-.59,1.77,8.25-19.04,21.59-25.13,13.35-6.09,21.99-4.91,29.84-4.12,7.85.79,17.67,13.94,17.67,13.94v-5.5Z" fill="#ffce32" stroke="#263238" stroke-linecap="round" stroke-linejoin="round"/><path d="m94.71,163.59s8.44-15.9,15.51-19.44c7.07-3.53,14.13,2.75,25.32,7.07,11.19,4.32,19.63,7.26,19.63,7.26,0,0-18.45.98-25.52-1.57-7.07-2.55-18.26-7.46-20.81-7.07-2.55.39-14.13,13.74-14.13,13.74Z" fill="#ffce32" stroke="#263238" stroke-linecap="round" stroke-linejoin="round"/><path d="m95.5,147.69s4.32-12.37,6.87-28.47c2.55-16.1-1.77-44.96-5.89-53.59-4.12-8.64-16.29-22.77-16.29-22.77,0,0,21.59,18.85,26.31,36.51,4.71,17.67,5.5,27.09,3.53,36.71-1.96,9.62-14.53,31.61-14.53,31.61Z" fill="#ffce32" stroke="#263238" stroke-linecap="round" stroke-linejoin="round"/><path d="m90.35,122.85s-1.91-7.21-4.03-8.69c-2.12-1.48-6.36.21-6.36.21,0,0,7.42,6.57,7.42,9.54s7.54,20.83,7.54,20.83l-4.57-21.89Z" fill="#ffce32" stroke="#263238" stroke-linecap="round" stroke-linejoin="round"/><path d="m86.32,114.16s-3.18,2.22-5.66,4.47c-2.48,2.25-14.3,13.94-15.01,14.65-.71.71,6.14-14.89,7.68-17.84,1.54-2.95,4.25-5.08,5.08-4.96.83.12,8.13,1.81,7.91,3.68Z" fill="#ffce32" stroke="#263238" stroke-linecap="round" stroke-linejoin="round"/><path d="m124.19,234.79l-1.3,54.32-1.49,133.66h4.81l1.53-187.99s2.03-1.41,2.72-4.86c.69-3.44.69-35.61.69-35.61l-3.44-.17s.34,27.87,0,30.62c-.34,2.75-2.24,5.33-2.92,4.47s-4.13-29.25-4.13-29.25l-2.24.69s3.1,22.88,3.27,28.56c.17,5.68,2.5,5.54,2.5,5.54Z" fill="#a3a3a3" stroke="#263238" stroke-linecap="round" stroke-linejoin="round"/><path d="m124.19,234.79c-.24-.09-.52-.2-.82-.31-.69-.5-1.58-1.8-1.68-5.23-.17-5.68-3.27-28.56-3.27-28.56l2.24-.69s3.44,28.38,4.13,29.25,2.58-1.72,2.92-4.47c.34-2.75,0-30.62,0-30.62l3.44.17s0,32.17-.69,35.61c-.69,3.44-2.72,4.86-2.72,4.86,0,0-.84,1.05-3.56,0Z" fill="#263238" stroke="#263238" stroke-linecap="round" stroke-linejoin="round"/><path d="m125.29,193.78s-6.54-9.12-17.03-13.42c-10.49-4.3-29.42-7.05-30.11-7.05s17.72,5.85,23.4,8.43c5.68,2.58,13.07,6.54,15.31,8.95,2.24,2.41,12.73,19.27,12.73,19.27,0,0-.34-6.88-4.3-16.17Z" fill="#263238" stroke="#263238" stroke-linecap="round" stroke-linejoin="round"/><path d="m143.22,164.09s6.54-9.12,17.03-13.42c10.49-4.3,29.42-7.05,30.11-7.05s-17.72,5.85-23.4,8.43c-5.68,2.58-13.07,6.54-15.31,8.95-2.24,2.41-12.73,19.27-12.73,19.27,0,0,.34-6.88,4.3-16.17Z" fill="#ffce32" stroke="#263238" stroke-linecap="round" stroke-linejoin="round"/><path d="m128.77,189.72s17.89-26.49,22.88-28.73c4.99-2.24,8.95-4.3,15.65-2.58,6.71,1.72,20.64,9.29,23.22,10.67,2.58,1.38,6.02,3.78,7.4,4.47,1.38.69-17.72-10.67-28.38-12.04-10.67-1.38-12.56,3.78-24.08,12.73-11.53,8.95-16.69,15.48-16.69,15.48Z" fill="#ffce32" stroke="#263238" stroke-linecap="round" stroke-linejoin="round"/><path d="m128.77,189.72s11.87-18.92,19.96-20.99c8.09-2.06,17.72,2.41,20.99,4.3s8.09,12.56,9.12,16.69c1.03,4.13,1.72,7.23,1.72,7.23,0,0-10.32-16.86-14.45-19.44-4.13-2.58-10.49-6.54-12.39-6.88-1.89-.34-20.82,11.18-24.94,19.1Z" fill="#ffce32" stroke="#263238" stroke-linecap="round" stroke-linejoin="round"/><path d="m133.58,179.91s23.05-15.48,35.09-15.31c12.04.17,27.01,4.64,30.97,5.33,3.96.69,7.91-.34,7.91-.34,0,0-17.03,5.16-22.71,5.33-5.68.17-24.26-5.16-30.45-3.1-6.19,2.06-20.82,8.09-20.82,8.09Z" fill="#ffce32" stroke="#263238" stroke-linecap="round" stroke-linejoin="round"/><path d="m129.11,195.74s7.4-13.93,13.59-17.03c6.19-3.1,12.39,2.41,22.19,6.19,9.81,3.78,17.2,6.37,17.2,6.37,0,0-16.17.86-22.36-1.38-6.19-2.24-16-6.54-18.24-6.19-2.24.34-12.39,12.04-12.39,12.04Z" fill="#ffce32" stroke="#263238" stroke-linecap="round" stroke-linejoin="round"/><path d="m123.75,200.34s6.54-35.27,6.54-48.17-.17-18.41-.17-18.41c0,0-4.3,16.86-4.82,18.92-.52,2.06-.52,5.51-.52,5.51,0,0-3.1-18.24-7.05-22.71-3.96-4.47-8.95-6.71-8.95-6.71,0,0,4.47,8.43,5.33,10.84.86,2.41-3.61-3.27-8.43-4.64-4.82-1.38-16.69-3.96-16.69-3.96,0,0,15.83,6.36,17.72,8.43,1.89,2.06,6.54,9.63,6.88,10.49.34.86,6.02,10.67,7.57,16.34,1.55,5.68,2.58,34.06,2.58,34.06Z" fill="#263238" stroke="#263238" stroke-linecap="round" stroke-linejoin="round"/><path d="m119.8,157.51l-13.42-8.95s-16.51-2.58-19.27-1.72c-2.75.86-6.54,3.44-6.54,3.44,0,0,10.67-1.03,15.31,1.2,4.64,2.24,14.79,6.19,20.82,14.28,6.02,8.09,8.26,17.03,8.95,19.96.69,2.92,2.06,8.43,2.06,8.43,0,0,3.1-14.97,1.89-20.99-1.2-6.02-9.81-15.65-9.81-15.65Z" fill="#ffce32" stroke="#263238" stroke-linecap="round" stroke-linejoin="round"/><path d="m136.66,147.87s-7.91,10.67-9.12,14.11c-1.2,3.44-3.1-8.6-11.53-16-8.43-7.4-35.61-11.87-35.61-11.87,0,0,33.03,16,38.02,22.36,4.99,6.36,9.81,17.2,9.81,17.72v6.37l8.43-32.69Z" fill="#ffce32" stroke="#263238" stroke-linecap="round" stroke-linejoin="round"/><path d="m130.96,170.25s11.01-18.92,16.69-25.46c5.68-6.54,24.43-21.16,24.43-21.16,0,0-7.74,9.63-17.72,23.22-9.98,13.59-25.8,33.55-25.8,33.55l2.41-10.15Z" fill="#263238" stroke="#263238" stroke-linecap="round" stroke-linejoin="round"/><path d="m132.53,207.22s17.89-14.62,27.35-11.01c9.46,3.61,20.3,15.14,20.3,15.14l2.41,13.07s-12.73-18.41-18.24-20.99c-5.5-2.58-13.25-3.61-17.03-2.75-3.78.86-14.97,10.32-15.48,11.53-.52,1.2.69-4.99.69-4.99Z" fill="#ffce32" stroke="#263238" stroke-linecap="round" stroke-linejoin="round"/><path d="m137.17,163.87s3.44-3.1,5.68-15.48c2.24-12.39-.34-23.57-.34-23.57,0,0-1.2,7.4-3.96,16-2.75,8.6-2.75,11.7-6.88,24.43-4.13,12.73-4.64,35.61-4.47,36.13.17.52,9.98-37.5,9.98-37.5Z" fill="#ffce32" stroke="#263238" stroke-linecap="round" stroke-linejoin="round"/><path d="m108.96,167.48s-5.33-6.88-12.21-8.95c-6.88-2.06-13.93-1.89-13.93-1.89,0,0,10.32-2.92,17.2-1.55,6.88,1.38,12.21,9.46,14.62,17.03,2.41,7.57,2.41,25.29,2.41,25.29,0,0-3.78-23.22-8.09-29.93Z" fill="#263238" stroke="#263238" stroke-linecap="round" stroke-linejoin="round"/><path d="m134.84,174.15s-.37-7.24,5.39-15.6c5.76-8.36,17.46-13,25.63-16.53,8.17-3.53,13-5.01,13-5.01,0,0-18.39,14.49-23.22,16.53-4.83,2.04-8.36,4.83-11.7,8.73-3.34,3.9-9.29,18.2-9.29,19.13s.19-7.24.19-7.24Z" fill="#ffce32" stroke="#263238" stroke-linecap="round" stroke-linejoin="round"/><path d="m114.12,184.52s-6.54-9.12-17.03-13.42c-10.49-4.3-29.42-7.05-30.11-7.05s17.72,5.85,23.4,8.43c5.68,2.58,13.07,6.54,15.31,8.95,2.24,2.41,12.73,19.27,12.73,19.27,0,0-.34-6.88-4.3-16.17Z" fill="#ffce32" stroke="#263238" stroke-linecap="round" stroke-linejoin="round"/><path d="m128.57,210.15s-17.89-26.49-22.88-28.73c-4.99-2.24-8.95-4.3-15.65-2.58-6.71,1.72-20.64,9.29-23.22,10.67-2.58,1.38-6.02,3.78-7.4,4.47-1.38.69,17.72-10.67,28.38-12.04,10.67-1.38,12.56,3.78,24.08,12.73,11.53,8.95,16.69,15.48,16.69,15.48Z" fill="#ffce32" stroke="#263238" stroke-linecap="round" stroke-linejoin="round"/><path d="m128.57,210.15s-11.87-18.92-19.96-20.99c-8.09-2.06-17.72,2.41-20.99,4.3-3.27,1.89-8.09,12.56-9.12,16.69-1.03,4.13-1.72,7.23-1.72,7.23,0,0,10.32-16.86,14.45-19.44,4.13-2.58,10.49-6.54,12.39-6.88,1.89-.34,20.82,11.18,24.94,19.1Z" fill="#263238" stroke="#263238" stroke-linecap="round" stroke-linejoin="round"/><path d="m123.75,200.34s-23.05-15.48-35.09-15.31c-12.04.17-27.01,4.64-30.97,5.33-3.96.69-7.91-.34-7.91-.34,0,0,17.03,5.16,22.71,5.33,5.68.17,24.26-5.16,30.45-3.1,6.19,2.06,20.82,8.09,20.82,8.09Z" fill="#ffce32" stroke="#263238" stroke-linecap="round" stroke-linejoin="round"/><path d="m117.56,193.46s3.96-12.04-.17-20.82c-4.13-8.77-9.46-20.82-9.46-20.82,0,0-1.89,15.31,1.38,25.63,3.27,10.32,8.26,16,8.26,16Z" fill="#ffce32" stroke="#263238" stroke-linecap="round" stroke-linejoin="round"/><path d="m127.54,202.23s0-14.97,10.32-22.02c10.32-7.05,21.85-9.29,25.98-7.05,4.13,2.24,16.51,9.12,20.13,13.76,3.61,4.64,6.54,8.26,6.54,8.26,0,0-18.24-12.04-23.91-16.17-5.68-4.13-8.43-5.16-10.49-4.64-2.06.52-13.93,6.02-18.58,9.63-4.64,3.61-9.98,18.24-9.98,18.24Z" fill="#ffce32" stroke="#263238" stroke-linecap="round" stroke-linejoin="round"/><path d="m127.19,204.64c.17-.52-.34-4.47,6.71-4.99,7.05-.52,12.39,2.58,13.59,5.16,1.2,2.58,0,9.46-.17,10.15-.17.69-1.03-9.12-9.29-11.01-8.26-1.89-10.84.69-10.84.69Z" fill="#263238" stroke="#263238" stroke-linecap="round" stroke-linejoin="round"/><path d="m129.95,211.01s2.24-4.82,6.71-9.98c4.47-5.16,14.11-9.98,18.75-7.05,4.64,2.92,9.98,15.14,11.7,18.58,1.72,3.44,5.68,13.93,6.02,14.45.34.52-10.15-9.29-14.62-15.14-4.47-5.85-7.57-13.93-10.15-14.62-2.58-.69-7.91,4.47-7.91,4.47l-12.73,18.41,2.24-9.12Z" fill="#ffce32" stroke="#263238" stroke-linecap="round" stroke-linejoin="round"/><path d="m129.26,198.45s2.24-10.32,9.98-13.07c7.74-2.75,17.03-3.78,20.64-1.72,3.61,2.06,19.44,16.69,19.44,16.69l2.06,5.33s-23.22-17.03-28.56-18.75q-5.33-1.72-11.01,1.72c-5.68,3.44-12.56,9.81-12.56,9.81Z" fill="#ffce32" stroke="#263238" stroke-linecap="round" stroke-linejoin="round"/><path d="m130.63,198.45s22.54-13.59,27.35-15.31c4.82-1.72,15.65,2.58,18.75,6.54,3.1,3.96,13.93,25.46,14.45,27.01.52,1.55-7.23-16.69-18.92-22.02-11.7-5.33-19.27-4.3-26.15-3.61-6.88.69-15.48,12.21-15.48,12.21v-4.82Z" fill="#ffce32" stroke="#263238" stroke-linecap="round" stroke-linejoin="round"/><path d="m128.08,216.03s-7.4-13.93-13.59-17.03c-6.19-3.1-12.39,2.41-22.19,6.19-9.81,3.78-17.2,6.37-17.2,6.37,0,0,16.17.86,22.36-1.38,6.19-2.24,16-6.54,18.24-6.19,2.24.34,12.39,12.04,12.39,12.04Z" fill="#ffce32" stroke="#263238" stroke-linecap="round" stroke-linejoin="round"/><path d="m127.54,202.23s-3.78-10.84-6.02-24.94c-2.24-14.11,1.55-39.39,5.16-46.96s14.28-19.96,14.28-19.96c0,0-18.92,16.51-23.05,32-4.13,15.48-4.82,23.74-3.1,32.17,1.72,8.43,12.73,27.7,12.73,27.7Z" fill="#ffce32" stroke="#263238" stroke-linecap="round" stroke-linejoin="round"/><path d="m132.05,180.47s1.67-6.31,3.53-7.61c1.86-1.3,5.57.19,5.57.19,0,0-6.5,5.76-6.5,8.36s-6.6,18.26-6.6,18.26l4-19.19Z" fill="#ffce32" stroke="#263238" stroke-linecap="round" stroke-linejoin="round"/><path d="m135.58,172.85s2.79,1.95,4.96,3.92c2.17,1.97,12.53,12.22,13.15,12.84s-5.38-13.05-6.73-15.64c-1.35-2.59-3.73-4.45-4.45-4.35-.72.1-7.12,1.59-6.93,3.23Z" fill="#ffce32" stroke="#263238" stroke-linecap="round" stroke-linejoin="round"/><path d="m130.31,263.94s15.84-5.78,25.48-8.99c9.64-3.21,16.92,4.71,16.92,4.71,0,0-11.99,1.71-16.27,1.93-4.28.21-10.71.43-14.56,1.93-3.85,1.5,7.71,1.28,11.56,5.14,3.85,3.85,11.99,13.7,13.28,16.7,1.28,3-13.06-14.13-23.12-16.7-10.06-2.57-17.99,2.78-17.99,2.78l4.71-7.49Z" fill="#263238" stroke="#263238" stroke-linecap="round" stroke-linejoin="round"/><path d="m113.07,422.77h5.17c.59-25.04,1.15-117.31,1.15-119,0-3.64.21-16.7.21-16.7l-4.92.43s1.5,7.07,0,26.76c-.56,7.42-1.13,91.67-1.61,108.51Z" fill="#a3a3a3" stroke="#263238" stroke-linecap="round" stroke-linejoin="round"/><path d="m118.75,266.73c-.4-.87-6.42-13.7-9.64-15.84-3.21-2.14-11.35-5.14-14.99-5.14s-13.06,1.07-13.06,1.07c0,0,16.7,3.85,21.41,7.49,4.71,3.64,12.85,11.99,13.06,13.49.21,1.5,1.93,4.92,1.93,4.92,0,0,3.64-.86,1.28-6Z" fill="#92e3a9" stroke="#263238" stroke-linecap="round" stroke-linejoin="round"/><path d="m114.04,275.08s-12.85-1.5-17.56,1.93c-4.71,3.43-13.06,13.06-13.06,18.2s.43,16.92.43,15.84,2.36-17.77,7.71-22.91c5.35-5.14,7.71-8.14,14.77-8.99l7.07-.86,7.28,3.85-6.64-7.07Z" fill="#263238" stroke="#263238" stroke-linecap="round" stroke-linejoin="round"/><path d="m123.87,271.97s2.57-2.14,11.78-3.43c9.21-1.28,11.78-2.14,17.56-1.07,5.78,1.07,11.99,3.43,11.99,3.43,0,0-18.41-.43-20.13-.43s11.13,8.35,13.49,10.92c2.36,2.57,4.5,7.92,4.5,7.92,0,0-18.41-13.28-21.63-14.77-3.21-1.5-4.5-2.36-4.5-2.36,0,0-5.14-.86-7.28-.21-2.14.64-3.85,1.28-4.5,1.5-.64.21-3,.86-3,.86l1.71-2.36Z" fill="#92e3a9" stroke="#263238" stroke-linecap="round" stroke-linejoin="round"/><path d="m120.96,264.87s1.07-12.42,7.07-17.99c6-5.57,26.55-16.27,26.55-16.27l12.63-6.21s-3.64,8.14-11.35,11.35c-7.71,3.21-10.28.86-13.92,4.71-3.64,3.85-9.42,11.78-10.49,15.42-1.07,3.64-8.14,13.7-8.56,16.06-.43,2.36-1.93-7.07-1.93-7.07Z" fill="#ffce32" stroke="#263238" stroke-linecap="round" stroke-linejoin="round"/><path d="m121.82,268.3s1.28-19.27-.86-24.2c-2.14-4.92-8.78-16.27-10.28-18.84-1.5-2.57-3.43-4.71-3.43-4.71,0,0,5.35,16.92,6.85,25.69,1.5,8.78,1.71,11.56,2.14,15.2.43,3.64.86,6.85.86,6.85h4.71Z" fill="#ffce32" stroke="#263238" stroke-linecap="round" stroke-linejoin="round"/><path d="m119.18,275.51s2.78-7.71,7.07-14.56c4.28-6.85,10.49-8.35,11.56-8.35h4.71s-8.35,4.07-9.42,7.92c-1.07,3.85-3.43,11.78-5.14,13.49-1.71,1.71-6,10.71-7.07,12.85-1.07,2.14-3.85,3.21-3.85,3.21,0,0-3.85-5.78,2.14-14.56Z" fill="#92e3a9" stroke="#263238" stroke-linecap="round" stroke-linejoin="round"/><path d="m122.6,276.15l-5.57,13.92,1.71,1.5s2.57-3,4.5-5.78c1.93-2.78,3.43-4.92,3.43-6.21s-4.07-3.43-4.07-3.43Z" fill="#92e3a9" stroke="#263238" stroke-linecap="round" stroke-linejoin="round"/><path d="m120.38,287.89s-8.14-17.77-10.71-21.63c-2.57-3.85-5.35-7.07-10.92-8.56-5.57-1.5-14.99-4.28-23.34-2.78-8.35,1.5-22.7,3.43-22.7,3.43,0,0,10.28,4.71,22.7,3.85,12.42-.86,23.34-.21,23.34-.21,0,0,2.57,1.07,4.5,7.28,1.93,6.21,6,11.78,8.56,14.13,2.57,2.36,6.85,8.14,6.85,8.14l1.71-3.64Z" fill="#92e3a9" stroke="#263238" stroke-linecap="round" stroke-linejoin="round"/><path d="m121.96,268.44s-8.99-3.64-11.13-.43c-2.14,3.21-5.57,19.91-5.57,19.91,0,0-1.71,8.78-2.14,9.64-.43.86,11.35-8.14,14.13-15.84,2.78-7.71,4.71-13.28,4.71-13.28Z" fill="#92e3a9" stroke="#263238" stroke-linecap="round" stroke-linejoin="round"/><path d="m130.52,274.01s-7.92.21-7.92,2.14,1.07,5.35.64,9.64c-.43,4.28-.86,8.14-.86,8.14,0,0,8.56-3.64,8.99-8.56.43-4.92-.86-11.35-.86-11.35Z" fill="#92e3a9" stroke="#263238" stroke-linecap="round" stroke-linejoin="round"/><path d="m134.34,273.99s8.14,5.57,10.92,10.71c2.78,5.14,4.92,15.84,4.92,15.84,0,0-5.57-10.71-9.85-16.49-4.28-5.78-10.71-10.49-11.99-8.99s3-2.36,6-1.07Z" fill="#263238" stroke="#263238" stroke-linecap="round" stroke-linejoin="round"/><rect x="333.44" y="20.37" width="141.81" height="188.34" fill="none" stroke="#263238" stroke-linecap="round" stroke-miterlimit="10"/><rect x="338.73" y="27.4" width="131.22" height="174.28" fill="none" stroke="#263238" stroke-linecap="round" stroke-miterlimit="10"/><rect x="372.4" y="72.11" width="63.89" height="84.85" fill="none" stroke="#263238" stroke-linecap="round" stroke-miterlimit="10"/><path d="m201.98,265.81s-51.11,12.72-52.93,17.04c-1.82,4.32-3.18,52.24-5.22,55.2-2.04,2.95-9.31,4.54-9.31,9.09s6.13,21.81,6.13,21.81c0,0,26.35,46.11,29.08,46.11s7.5-2.73,7.5-2.73v5.45h165.37l.68-13.63s14.99-36.8,16.58-39.98c1.59-3.18,8.63-11.13,6.13-17.26-2.5-6.13-6.81-10.22-7.5-15.67-.68-5.45-17.26-51.34-21.13-55.42s-33.62-6.81-44.29-8.18c-10.68-1.36-23.17-2.95-23.17-2.95l-67.92,1.14Z" fill="#3b4eff" stroke="#263238" stroke-linecap="round" stroke-miterlimit="10"/><path d="m295.07,341.22s-21.26,46.15-38.35,68.83c-2.19,2.9-4.14,5.46-5.89,7.72h91.75l.68-13.63s.26-.63.7-1.72l-48.9-61.21Z" fill="#263238" stroke="#263238" stroke-linecap="round" stroke-miterlimit="10"/><path d="m219.8,264.08s13.28,39.64,29.33,41.69,28.5-32,28.77-39.34c.28-7.34,1.66-11.74,1.66-11.74,0,0-13.83,16.44-29.6,16.44s-30.16-7.05-30.16-7.05Z" fill="#fff" stroke="#263238" stroke-linecap="round" stroke-miterlimit="10"/><path d="m225.15,269.22s10.9,30.67,24.08,32.26c13.17,1.59,23.4-24.76,23.62-30.44.23-5.68,1.36-9.09,1.36-9.09,0,0-11.36,12.72-24.31,12.72s-24.76-5.45-24.76-5.45Z" fill="#fff" stroke="#263238" stroke-linecap="round" stroke-miterlimit="10"/><path d="m225.15,269.22s6.37,17.9,15.26,27.06c9.56-8.86,28.81-29.1,28.81-29.1l-.33-.35c-4.53,3.59-11.49,7.84-18.97,7.84-12.95,0-24.76-5.45-24.76-5.45Z" fill="#263238" stroke="#263238" stroke-linecap="round" stroke-miterlimit="10"/><path d="m222.42,276.72s.45,28.62,16.35,43.84" fill="none" stroke="#263238" stroke-linecap="round" stroke-miterlimit="10"/><path d="m233.55,295.8s9.54,18.63,19.53,20.67" fill="none" stroke="#263238" stroke-linecap="round" stroke-miterlimit="10"/><path d="m260.56,385.78c-1.49,1.84-3.01,3.59-4.52,5.2" fill="none" stroke="#263238" stroke-linecap="round" stroke-miterlimit="10"/><path d="m285.12,346.68s-10.04,20.08-21.98,35.81" fill="none" stroke="#263238" stroke-linecap="round" stroke-miterlimit="10"/><path d="m264.67,370.08s-20.67,23.4-28.85,29.53" fill="none" stroke="#263238" stroke-linecap="round" stroke-miterlimit="10"/><path d="m274.67,281.71s-.45,17.72-5,25.21" fill="none" stroke="#263238" stroke-linecap="round" stroke-miterlimit="10"/><path d="m192.37,217.12s13.05,30.99,20.23,42.08,31.64,24.47,41.43,21.21c9.79-3.26,19.9-12.4,26.75-27.08,6.85-14.68,6.2-43.06,5.55-51.22-.65-8.16-39.47-28.71-48.28-29.36-8.81-.65-31.97,10.11-36.54,15.66s-9.13,28.71-9.13,28.71Z" fill="#fff" stroke="#263238" stroke-linecap="round" stroke-miterlimit="10"/><path d="m197.92,151.87s-8.81-3.59-16.96,6.2c-8.16,9.79-8.48,12.72-5.22,12.72s7.5-1.3,7.5-1.3c0,0-14.03,8.16-13.38,15.33.65,7.18,2.28,7.5,5.22,4.89s0,4.24,1.63,4.57c1.63.33,3.26-2.28,3.26-2.28,0,0,5.22,18.27,10.11,24.14,4.89,5.87,3.91,6.2,8.16,5.55,4.24-.65,12.26,5.53,13.69-3.03,2.9-17.31.57-9.6,7.26-3.42,4.19,3.87,8.08-16.06,10.36-21.28,2.28-5.22,3.91-11.42,3.91-11.42,0,0,0,13.7,4.89,15.66,4.89,1.96,5.87-4.24,5.87-4.24,0,0,10.11,10.44,21.86,12.07,11.74,1.63,12.07-7.18,12.07-7.18l4.89,3.59s2.94,6.2,3.91,6.85c.98.65,9.46-3.59,12.4-5.87,2.94-2.28,4.89-4.89.98-10.11-3.91-5.22-4.89-7.18-4.89-7.18,0,0,5.22,4.57,6.2,1.96.98-2.61,2.61-8.16-1.96-12.07-4.57-3.91-13.7-5.87-13.7-5.87,0,0,4.57-.98,4.24-10.11-.33-9.13-2.28-11.42-5.22-8.16-2.94,3.26-8.16,7.5-9.46,8.16-1.3.65,8.16-13.38,1.96-19.9-6.2-6.52-8.16-1.63-11.74-.33-3.59,1.3-9.46-3.26-20.55-5.87-11.09-2.61-30.01-3.26-37.52,5.22l-7.5,8.48s-.65-7.18-2.28-3.59c-1.63,3.59,0,7.83,0,7.83Z" fill="#263238" stroke="#263238" stroke-linecap="round" stroke-miterlimit="10"/><path d="m242.29,245.83s7.18,5.55,11.74-2.94" fill="none" stroke="#263238" stroke-linecap="round" stroke-miterlimit="10"/><path d="m218.07,250.48c-2.85,0-5.28-.42-6.7-1.36-3.6-2.4-8.92-11.66-8.61-15.01.1-1.15.32-3.55,35.2-12.45l.83-.21.6.6c.18.18,1.8,1.88,1.8,4.47v.19c.02,7.85-1.22,17.78-7.25,20.48-4.39,1.97-10.79,3.29-15.87,3.29Zm-12.3-15.73c.34,2.29,4.26,9.86,7.27,11.87,2.79,1.86,13.27.71,19.68-2.16,3.5-1.57,5.5-8.04,5.47-17.74v-.2c0-.69-.24-1.28-.47-1.7-14.21,3.65-29.41,8.19-31.95,9.94Z" fill="#263238" stroke-width="0"/><path d="m262.28,240.29c-6.32,0-11.96-7.77-15.62-14.42l-.1-.17c-1.26-2.27-.66-4.53-.59-4.78l.23-.82.83-.22c34.81-9.15,36.16-7.15,36.81-6.2,1.89,2.78,1.74,13.46-.25,17.31-2.18,4.23-13.19,8.63-20.67,9.27-.22.02-.44.03-.65.03Zm-13.51-17.76c0,.48.08,1.11.41,1.72l.1.18c4.69,8.49,9.59,13.18,13.39,12.85,6.99-.6,16.72-4.68,18.26-7.66,1.66-3.22,1.41-11.74.6-13.91-3.07-.29-18.56,3.12-32.76,6.82Z" fill="#263238" stroke-width="0"/><rect x="238.24" y="220.72" width="9.26" height="3" transform="translate(-38.1 50.69) rotate(-11.05)" fill="#263238" stroke-width="0"/><path d="m241.14,229.42l-2.47-1.7c1.26-1.84,5.02-4.75,10.22-2.58l-1.15,2.77c-4.15-1.73-6.36,1.18-6.6,1.52Z" fill="#263238" stroke-width="0"/><path d="m218.56,231.74s7.72,3.18,14.76-4.09" fill="none" stroke="#263238" stroke-linecap="round" stroke-miterlimit="10"/><path d="m254.9,222.88s9.54,3.86,16.58-4.32" fill="none" stroke="#263238" stroke-linecap="round" stroke-miterlimit="10"/><path d="m226.97,213.57s-8.4,6.81-10.9,9.09c-2.5,2.27-7.04,5-3.41,5.22,3.63.23,16.13-7.04,19.53-10.45,3.41-3.41-2.27-5.91-5.22-3.86Z" fill="#263238" stroke="#263238" stroke-linecap="round" stroke-miterlimit="10"/><path d="m246.5,206.07s-2.27,3.86.23,5c2.5,1.14,20.22,2.73,22.94,1.82,2.73-.91.68-3.41-1.36-3.86-2.04-.45-19.53-5.45-21.81-2.95Z" fill="#263238" stroke="#263238" stroke-linecap="round" stroke-miterlimit="10"/><path d="m254,261.16c0,1.44-1.07,2.61-2.39,2.61s-2.38-1.17-2.38-2.61,1.07-2.61,2.38-2.61,2.39,1.17,2.39,2.61Z" fill="#263238" stroke="#263238" stroke-linecap="round" stroke-miterlimit="10"/><path d="m189.95,183.18s3.6-4.42,5.45-1c1.85,3.42-4.76,14.84-4.92,15.9-.16,1.06,4.25,16.06,8.16,20.15,3.91,4.09,20.86,23.98,20.65,30.33-.22,6.35-2.89,16.75-2.52,17.89s-24.82-4.56-24.82-4.56l4.06-13.11s-1.5-1.53-1.72-2.21c0,0-21.19-12.57-20.96-19.86.09-2.91.72-26.94.61-31-.1-4.06,9.31-15.38,10.91-16.65,1.6-1.27,5.08-2.14,5.1,4.13Z" fill="#fff" stroke="#263238" stroke-linecap="round" stroke-miterlimit="10"/><path d="m198.91,248.59s5.9-4.04,12.46.53" fill="none" stroke="#263238" stroke-linecap="round" stroke-miterlimit="10"/><path d="m188.01,184.78s-5.78,12.37-6.59,14.51c-.81,2.14,2.57,13.81,5.12,18.24" fill="none" stroke="#263238" stroke-linecap="round" stroke-miterlimit="10"/><path d="m173.94,195.69s2.32,22.53,3.65,25.49c1.33,2.95,1.54,3.63,3.34,4.55,1.8.92,3.12,3.87,3.12,3.87" fill="none" stroke="#263238" stroke-linecap="round" stroke-miterlimit="10"/><path d="m220.15,273.76s2.95-7.95,2.27-10.68c-.68-2.73-14.99-8.4-19.76-7.27-4.77,1.14-21.58,1.14-22.03,5.22s-.23,14.08-.45,15.45c-.23,1.36-2.73,6.36-1.14,6.81,1.59.45,37.93,7.72,37.93,7.72,0,0,.91-2.04,1.36-5.68.45-3.63,1.82-11.58,1.82-11.58Z" fill="#3b4eff" stroke="#263238" stroke-linecap="round" stroke-miterlimit="10"/><path d="m179.04,283.3s-5.22-.91-7.5,5.22-3.86,17.26-3.63,20.44c.23,3.18-14.76,34.07-14.76,34.07,0,0-16.35,16.58-14.99,25.44,1.36,8.86,7.04,31.57,12.49,37.71,5.45,6.13,12.04,12.72,18.17,12.49,6.13-.23,6.36-4.32,18.4-9.54,12.04-5.22,17.94-2.04,21.12-21.81,3.18-19.76,5.91-68.15,7.72-75.64,1.82-7.5,4.09-9.54,3.41-14.08-.68-4.54-2.5-6.59-2.5-6.59l-37.93-7.72Z" fill="#3b4eff" stroke="#263238" stroke-linecap="round" stroke-miterlimit="10"/><path d="m281.25,196.76s-4.54-2.95-5.22.68c-.68,3.63,8.63,12.04,9.09,12.95s.83,15.77-1.51,20.6c-2.35,4.84-11.89,27.78-9.84,33.46,2.04,5.68,7.5,14.31,7.5,15.45s21.12-11.36,21.12-11.36l-7.5-10.68s.91-1.82.91-2.5c0,0,12.72-21.35,13.17-24.08.45-2.73-8.5-24.17-9.59-27.87-1.09-3.7-12.9-11.2-14.72-11.88-1.82-.68-5.22-.45-3.41,5.22Z" fill="#fff" stroke="#263238" stroke-linecap="round" stroke-miterlimit="10"/><path d="m292.3,258.78s-5.09,1.7-8.83,4.41" fill="none" stroke="#263238" stroke-linecap="round" stroke-miterlimit="10"/><path d="m283.47,197.65s8.83,9.51,10.19,11.21c1.36,1.7,1.7,13.24.68,18" fill="none" stroke="#263238" stroke-linecap="round" stroke-miterlimit="10"/><path d="m299.38,203.42s4.47,21.06,4.13,24.12c-.34,3.06-.34,3.74-1.7,5.09-1.36,1.36-1.7,4.41-1.7,4.41" fill="none" stroke="#263238" stroke-linecap="round" stroke-miterlimit="10"/><path d="m286.25,306.47s-4.54,7.27-3.18,13.4c1.36,6.13,27.03,76.1,27.03,76.1,0,0,20.44,20.22,27.49,21.35,7.04,1.14,9.77,1.36,16.13-4.77,6.36-6.13,18.63-23.4,19.99-37.93,1.36-14.54-6.59-21.13-10.22-25.9-3.63-4.77-30.67-44.52-34.3-52.24-3.63-7.72-12.95-9.54-12.95-9.54l-29.98,19.53Z" fill="#3b4eff" stroke="#263238" stroke-linecap="round" stroke-miterlimit="10"/><path d="m304.86,262.51s-31.92,15.6-31.24,21.73c.68,6.13,9.22,10.87,10.59,16.09,1.36,5.22,2.27,7.5,5.45,6.36,3.18-1.14,23.17-16.13,24.76-17.49,1.59-1.36,3.18-2.95,1.59-5.22-1.59-2.27-4.69-6.53-4.69-6.53,0,0-3.05-16.76-6.45-14.94Z" fill="#3b4eff" stroke="#263238" stroke-linecap="round" stroke-miterlimit="10"/><path d="m316.92,293.3s16.35,57.24,32.71,73.82" fill="none" stroke="#263238" stroke-linecap="round" stroke-miterlimit="10"/><path d="m347.27,376.06c1.08,1.25,2.04,2.17,2.81,2.65" fill="none" stroke="#263238" stroke-linecap="round" stroke-miterlimit="10"/><path d="m327.59,345.32s9.69,17.38,16.89,27.2" fill="none" stroke="#263238" stroke-linecap="round" stroke-miterlimit="10"/><path d="m330.09,418c-4.54.23-13.63.68-20.22-.91-6.59-1.59-32.03-13.63-46.57-14.54-12.98-.81-19.43,7.78-20.67,9.64-1.24-1.86-7.69-10.45-20.67-9.64-14.54.91-39.98,12.95-46.57,14.54-6.59,1.59-15.67,1.14-20.22.91-4.54-.23-9.99-.23-9.99-.23v5h194.9v-5s-5.45,0-9.99.23Z" fill="#fff" stroke="#263238" stroke-linecap="round" stroke-miterlimit="10"/><polygon points="340.09 420.28 145.19 420.28 145.19 422.77 241.96 422.77 243.32 422.77 340.09 422.77 340.09 420.28" fill="#263238" stroke="#263238" stroke-linecap="round" stroke-miterlimit="10"/><path d="m241.05,418.23s-4.54-8.86-16.81-7.5c-12.27,1.36-31.57,6.81-34.07,7.04" fill="none" stroke="#263238" stroke-linecap="round" stroke-miterlimit="10"/><path d="m235.14,418.23s-3.18-2.95-10.45-2.73c-7.27.23-13.17,2.95-14.08,2.95" fill="none" stroke="#263238" stroke-linecap="round" stroke-miterlimit="10"/><path d="m189.03,415.73s16.58-4.54,24.31-7.5c7.72-2.95,12.49-2.95,19.53.45" fill="none" stroke="#263238" stroke-linecap="round" stroke-miterlimit="10"/><path d="m237.41,410.74s2.95.45,4.09,4.09" fill="none" stroke="#263238" stroke-linecap="round" stroke-miterlimit="10"/><path d="m246.73,417.55s4.09-4.09,15.22-2.5c11.13,1.59,15.9,1.82,15.9,1.82" fill="none" stroke="#263238" stroke-linecap="round" stroke-miterlimit="10"/><path d="m244.23,417.55s2.27-6.36,12.49-7.5c10.22-1.14,27.26,5.22,30.67,6.13" fill="none" stroke="#263238" stroke-linecap="round" stroke-miterlimit="10"/><path d="m268.53,408.01s16.35,2.95,28.39,8.86" fill="none" stroke="#263238" stroke-linecap="round" stroke-miterlimit="10"/><path d="m68.66,390.8h84.58v31.97h-84.58c-7.59,0-13.76-6.17-13.76-13.76v-4.45c0-7.59,6.17-13.76,13.76-13.76Z" transform="translate(208.14 813.58) rotate(180)" fill="#d4d4d4" stroke="#263238" stroke-linecap="round" stroke-miterlimit="10"/><path d="m43.2,395.08h91v23.42H43.2c-5.56,0-10.08-4.52-10.08-10.08v-3.26c0-5.56,4.52-10.08,10.08-10.08Z" transform="translate(167.32 813.58) rotate(180)" fill="#fff" stroke="#263238" stroke-linecap="round" stroke-miterlimit="10"/><path d="m122.49,395.08H29v-4.27h92.87c8.83,0,15.99,7.16,15.99,15.98s-7.16,15.99-15.99,15.99H29v-4.27h93.48c6.47,0,11.71-5.24,11.71-11.71s-5.24-11.71-11.71-11.71Z" fill="#bababa" stroke="#263238" stroke-linecap="round" stroke-miterlimit="10"/><line x1="130.68" y1="402.31" x2="105.42" y2="402.31" fill="none" stroke="#263238" stroke-linecap="round" stroke-miterlimit="10"/><line x1="125.07" y1="405.49" x2="114.22" y2="405.49" fill="none" stroke="#263238" stroke-linecap="round" stroke-miterlimit="10"/><line x1="133.11" y1="411.67" x2="109.91" y2="411.67" fill="none" stroke="#263238" stroke-linecap="round" stroke-miterlimit="10"/><line x1="107.29" y1="412.04" x2="99.44" y2="412.04" fill="none" stroke="#263238" stroke-linecap="round" stroke-miterlimit="10"/><line x1="115.71" y1="416.16" x2="103.36" y2="416.16" fill="none" stroke="#263238" stroke-linecap="round" stroke-miterlimit="10"/><line x1="134.2" y1="406.79" x2="129" y2="406.79" fill="none" stroke="#263238" stroke-linecap="round" stroke-miterlimit="10"/><line x1="33.39" y1="405.87" x2="45.93" y2="405.87" fill="none" stroke="#263238" stroke-linecap="round" stroke-miterlimit="10"/><line x1="40.31" y1="410.73" x2="56.22" y2="410.73" fill="none" stroke="#263238" stroke-linecap="round" stroke-miterlimit="10"/><line x1="49.11" y1="405.87" x2="59.21" y2="405.87" fill="none" stroke="#263238" stroke-linecap="round" stroke-miterlimit="10"/><path d="m87.34,263.42h84.58v31.97h-84.58c-7.59,0-13.76-6.17-13.76-13.76v-4.45c0-7.59,6.17-13.76,13.76-13.76Z" transform="translate(245.49 558.81) rotate(180)" fill="#d4d4d4" stroke="#263238" stroke-linecap="round" stroke-miterlimit="10"/><path d="m61.87,267.69h91v23.42H61.87c-5.56,0-10.08-4.52-10.08-10.08v-3.26c0-5.56,4.52-10.08,10.08-10.08Z" transform="translate(204.66 558.81) rotate(180)" fill="#fff" stroke="#263238" stroke-linecap="round" stroke-miterlimit="10"/><path d="m141.16,267.69H47.68v-4.27h92.87c8.83,0,15.98,7.16,15.98,15.98s-7.16,15.98-15.98,15.98H47.68v-4.27h93.48c6.47,0,11.71-5.24,11.71-11.71s-5.24-11.71-11.71-11.71Z" fill="#bababa" stroke="#263238" stroke-linecap="round" stroke-miterlimit="10"/><line x1="149.35" y1="274.93" x2="124.1" y2="274.93" fill="none" stroke="#263238" stroke-linecap="round" stroke-miterlimit="10"/><line x1="143.74" y1="278.11" x2="132.89" y2="278.11" fill="none" stroke="#263238" stroke-linecap="round" stroke-miterlimit="10"/><line x1="151.79" y1="284.28" x2="128.59" y2="284.28" fill="none" stroke="#263238" stroke-linecap="round" stroke-miterlimit="10"/><line x1="125.97" y1="284.66" x2="118.11" y2="284.66" fill="none" stroke="#263238" stroke-linecap="round" stroke-miterlimit="10"/><line x1="134.39" y1="288.77" x2="122.04" y2="288.77" fill="none" stroke="#263238" stroke-linecap="round" stroke-miterlimit="10"/><line x1="152.87" y1="279.4" x2="147.67" y2="279.4" fill="none" stroke="#263238" stroke-linecap="round" stroke-miterlimit="10"/><line x1="52.06" y1="278.48" x2="64.6" y2="278.48" fill="none" stroke="#263238" stroke-linecap="round" stroke-miterlimit="10"/><line x1="58.99" y1="283.35" x2="74.89" y2="283.35" fill="none" stroke="#263238" stroke-linecap="round" stroke-miterlimit="10"/><line x1="67.78" y1="278.48" x2="77.88" y2="278.48" fill="none" stroke="#263238" stroke-linecap="round" stroke-miterlimit="10"/><path d="m68.66,358.84h84.58v31.97h-84.58c-7.59,0-13.76-6.17-13.76-13.76v-4.45c0-7.59,6.17-13.76,13.76-13.76Z" transform="translate(208.14 749.66) rotate(180)" fill="#263238" stroke="#263238" stroke-linecap="round" stroke-miterlimit="10"/><path d="m43.2,363.12h91v23.42H43.2c-5.56,0-10.08-4.52-10.08-10.08v-3.26c0-5.56,4.52-10.08,10.08-10.08Z" transform="translate(167.32 749.66) rotate(180)" fill="#fff" stroke="#263238" stroke-linecap="round" stroke-miterlimit="10"/><path d="m122.49,363.12H29v-4.27h92.87c8.83,0,15.99,7.16,15.99,15.99s-7.16,15.99-15.99,15.99H29v-4.27h93.48c6.47,0,11.71-5.24,11.71-11.71s-5.24-11.71-11.71-11.71Z" fill="#263238" stroke="#263238" stroke-linecap="round" stroke-miterlimit="10"/><line x1="130.68" y1="370.35" x2="105.42" y2="370.35" fill="none" stroke="#263238" stroke-linecap="round" stroke-miterlimit="10"/><line x1="125.07" y1="373.53" x2="114.22" y2="373.53" fill="none" stroke="#263238" stroke-linecap="round" stroke-miterlimit="10"/><line x1="133.11" y1="379.71" x2="109.91" y2="379.71" fill="none" stroke="#263238" stroke-linecap="round" stroke-miterlimit="10"/><line x1="107.29" y1="380.08" x2="99.44" y2="380.08" fill="none" stroke="#263238" stroke-linecap="round" stroke-miterlimit="10"/><line x1="115.71" y1="384.2" x2="103.36" y2="384.2" fill="none" stroke="#263238" stroke-linecap="round" stroke-miterlimit="10"/><line x1="134.2" y1="374.83" x2="129" y2="374.83" fill="none" stroke="#263238" stroke-linecap="round" stroke-miterlimit="10"/><line x1="33.39" y1="373.91" x2="45.93" y2="373.91" fill="none" stroke="#263238" stroke-linecap="round" stroke-miterlimit="10"/><line x1="40.31" y1="378.77" x2="56.22" y2="378.77" fill="none" stroke="#263238" stroke-linecap="round" stroke-miterlimit="10"/><line x1="49.11" y1="373.91" x2="59.21" y2="373.91" fill="none" stroke="#263238" stroke-linecap="round" stroke-miterlimit="10"/><path d="m33.21,327.22h84.58v31.97H33.21c-7.59,0-13.76-6.17-13.76-13.76v-4.45c0-7.59,6.17-13.76,13.76-13.76Z" fill="#ffce32" stroke="#263238" stroke-linecap="round" stroke-miterlimit="10"/><path d="m48.57,331.5h91v23.42H48.57c-5.56,0-10.08-4.52-10.08-10.08v-3.26c0-5.56,4.52-10.08,10.08-10.08Z" fill="#fff" stroke="#263238" stroke-linecap="round" stroke-miterlimit="10"/><path d="m50.2,331.5h93.48v-4.27H50.81c-8.83,0-15.98,7.16-15.98,15.98s7.16,15.98,15.98,15.98h92.87v-4.27H50.2c-6.47,0-11.71-5.24-11.71-11.71s5.24-11.71,11.71-11.71Z" fill="#d6d6d6" stroke="#263238" stroke-linecap="round" stroke-miterlimit="10"/><line x1="42.01" y1="338.73" x2="67.26" y2="338.73" fill="none" stroke="#263238" stroke-linecap="round" stroke-miterlimit="10"/><line x1="47.62" y1="341.91" x2="58.47" y2="341.91" fill="none" stroke="#263238" stroke-linecap="round" stroke-miterlimit="10"/><line x1="39.57" y1="348.09" x2="62.77" y2="348.09" fill="none" stroke="#263238" stroke-linecap="round" stroke-miterlimit="10"/><line x1="65.39" y1="348.46" x2="73.25" y2="348.46" fill="none" stroke="#263238" stroke-linecap="round" stroke-miterlimit="10"/><line x1="56.97" y1="352.58" x2="69.32" y2="352.58" fill="none" stroke="#263238" stroke-linecap="round" stroke-miterlimit="10"/><line x1="38.49" y1="343.21" x2="43.69" y2="343.21" fill="none" stroke="#263238" stroke-linecap="round" stroke-miterlimit="10"/><line x1="139.3" y1="342.29" x2="126.76" y2="342.29" fill="none" stroke="#263238" stroke-linecap="round" stroke-miterlimit="10"/><line x1="132.38" y1="347.15" x2="116.47" y2="347.15" fill="none" stroke="#263238" stroke-linecap="round" stroke-miterlimit="10"/><line x1="123.58" y1="342.29" x2="113.48" y2="342.29" fill="none" stroke="#263238" stroke-linecap="round" stroke-miterlimit="10"/><path d="m48.77,295.54h84.58v31.97H48.77c-7.59,0-13.76-6.17-13.76-13.76v-4.45c0-7.59,6.17-13.76,13.76-13.76Z" fill="#263238" stroke="#263238" stroke-linecap="round" stroke-miterlimit="10"/><path d="m64.14,299.81h91v23.42h-91c-5.56,0-10.08-4.52-10.08-10.08v-3.26c0-5.56,4.52-10.08,10.08-10.08Z" fill="#fff" stroke="#263238" stroke-linecap="round" stroke-miterlimit="10"/><path d="m65.77,299.81h93.48v-4.27h-92.87c-8.83,0-15.98,7.16-15.98,15.99s7.16,15.98,15.98,15.98h92.87v-4.27h-93.48c-6.47,0-11.71-5.24-11.71-11.71s5.24-11.71,11.71-11.71Z" fill="#d6d6d6" stroke="#263238" stroke-linecap="round" stroke-miterlimit="10"/><line x1="57.57" y1="307.04" x2="82.83" y2="307.04" fill="none" stroke="#263238" stroke-linecap="round" stroke-miterlimit="10"/><line x1="63.18" y1="310.22" x2="74.04" y2="310.22" fill="none" stroke="#263238" stroke-linecap="round" stroke-miterlimit="10"/><line x1="55.14" y1="316.4" x2="78.34" y2="316.4" fill="none" stroke="#263238" stroke-linecap="round" stroke-miterlimit="10"/><line x1="80.96" y1="316.77" x2="88.82" y2="316.77" fill="none" stroke="#263238" stroke-linecap="round" stroke-miterlimit="10"/><line x1="72.54" y1="320.89" x2="84.89" y2="320.89" fill="none" stroke="#263238" stroke-linecap="round" stroke-miterlimit="10"/><line x1="54.06" y1="311.52" x2="59.26" y2="311.52" fill="none" stroke="#263238" stroke-linecap="round" stroke-miterlimit="10"/><line x1="154.86" y1="310.6" x2="142.33" y2="310.6" fill="none" stroke="#263238" stroke-linecap="round" stroke-miterlimit="10"/><line x1="147.94" y1="315.46" x2="132.04" y2="315.46" fill="none" stroke="#263238" stroke-linecap="round" stroke-miterlimit="10"/><line x1="139.15" y1="310.6" x2="129.04" y2="310.6" fill="none" stroke="#263238" stroke-linecap="round" stroke-miterlimit="10"/><path d="m48.69,231.74h84.58v31.97H48.69c-7.59,0-13.76-6.17-13.76-13.76v-4.45c0-7.59,6.17-13.76,13.76-13.76Z" fill="#3b4eff" stroke="#263238" stroke-linecap="round" stroke-miterlimit="10"/><path d="m64.06,236.02h91v23.42h-91c-5.56,0-10.08-4.52-10.08-10.08v-3.26c0-5.56,4.52-10.08,10.08-10.08Z" fill="#fff" stroke="#263238" stroke-linecap="round" stroke-miterlimit="10"/><path d="m65.69,236.02h93.48v-4.27h-92.87c-8.83,0-15.98,7.16-15.98,15.98s7.16,15.98,15.98,15.98h92.87v-4.27h-93.48c-6.47,0-11.71-5.24-11.71-11.71s5.24-11.71,11.71-11.71Z" fill="#d6d6d6" stroke="#263238" stroke-linecap="round" stroke-miterlimit="10"/><line x1="57.49" y1="243.25" x2="82.75" y2="243.25" fill="none" stroke="#263238" stroke-linecap="round" stroke-miterlimit="10"/><line x1="63.1" y1="246.43" x2="73.95" y2="246.43" fill="none" stroke="#263238" stroke-linecap="round" stroke-miterlimit="10"/><line x1="55.06" y1="252.61" x2="78.26" y2="252.61" fill="none" stroke="#263238" stroke-linecap="round" stroke-miterlimit="10"/><line x1="80.88" y1="252.98" x2="88.74" y2="252.98" fill="none" stroke="#263238" stroke-linecap="round" stroke-miterlimit="10"/><line x1="72.46" y1="257.1" x2="84.81" y2="257.1" fill="none" stroke="#263238" stroke-linecap="round" stroke-miterlimit="10"/><line x1="53.97" y1="247.73" x2="59.17" y2="247.73" fill="none" stroke="#263238" stroke-linecap="round" stroke-miterlimit="10"/><line x1="154.78" y1="246.81" x2="142.25" y2="246.81" fill="none" stroke="#263238" stroke-linecap="round" stroke-miterlimit="10"/><line x1="147.86" y1="251.67" x2="131.96" y2="251.67" fill="none" stroke="#263238" stroke-linecap="round" stroke-miterlimit="10"/><line x1="139.07" y1="246.81" x2="128.96" y2="246.81" fill="none" stroke="#263238" stroke-linecap="round" stroke-miterlimit="10"/><path d="m374.91,390.8h84.58v31.97h-84.58c-7.59,0-13.76-6.17-13.76-13.76v-4.45c0-7.59,6.17-13.76,13.76-13.76Z" fill="#d4d4d4" stroke="#263238" stroke-linecap="round" stroke-miterlimit="10"/><path d="m390.28,395.08h91v23.42h-91c-5.56,0-10.08-4.52-10.08-10.08v-3.26c0-5.56,4.52-10.08,10.08-10.08Z" fill="#fff" stroke="#263238" stroke-linecap="round" stroke-miterlimit="10"/><path d="m391.91,395.08h93.48v-4.27h-92.87c-8.83,0-15.98,7.16-15.98,15.98s7.16,15.99,15.98,15.99h92.87v-4.27h-93.48c-6.47,0-11.71-5.24-11.71-11.71s5.24-11.71,11.71-11.71Z" fill="#bababa" stroke="#263238" stroke-linecap="round" stroke-miterlimit="10"/><line x1="383.71" y1="402.31" x2="408.97" y2="402.31" fill="none" stroke="#263238" stroke-linecap="round" stroke-miterlimit="10"/><line x1="389.32" y1="405.49" x2="400.17" y2="405.49" fill="none" stroke="#263238" stroke-linecap="round" stroke-miterlimit="10"/><line x1="381.28" y1="411.67" x2="404.48" y2="411.67" fill="none" stroke="#263238" stroke-linecap="round" stroke-miterlimit="10"/><line x1="407.1" y1="412.04" x2="414.96" y2="412.04" fill="none" stroke="#263238" stroke-linecap="round" stroke-miterlimit="10"/><line x1="398.68" y1="416.16" x2="411.03" y2="416.16" fill="none" stroke="#263238" stroke-linecap="round" stroke-miterlimit="10"/><line x1="380.2" y1="406.79" x2="385.39" y2="406.79" fill="none" stroke="#263238" stroke-linecap="round" stroke-miterlimit="10"/><line x1="481" y1="405.87" x2="468.47" y2="405.87" fill="none" stroke="#263238" stroke-linecap="round" stroke-miterlimit="10"/><line x1="474.08" y1="410.73" x2="458.18" y2="410.73" fill="none" stroke="#263238" stroke-linecap="round" stroke-miterlimit="10"/><line x1="465.29" y1="405.87" x2="455.18" y2="405.87" fill="none" stroke="#263238" stroke-linecap="round" stroke-miterlimit="10"/><path d="m374.91,358.84h84.58v31.97h-84.58c-7.59,0-13.76-6.17-13.76-13.76v-4.45c0-7.59,6.17-13.76,13.76-13.76Z" fill="#263238" stroke="#263238" stroke-linecap="round" stroke-miterlimit="10"/><path d="m390.28,363.12h91v23.42h-91c-5.56,0-10.08-4.52-10.08-10.08v-3.26c0-5.56,4.52-10.08,10.08-10.08Z" fill="#fff" stroke="#263238" stroke-linecap="round" stroke-miterlimit="10"/><path d="m391.91,363.12h93.48v-4.27h-92.87c-8.83,0-15.98,7.16-15.98,15.99s7.16,15.99,15.98,15.99h92.87v-4.27h-93.48c-6.47,0-11.71-5.24-11.71-11.71s5.24-11.71,11.71-11.71Z" fill="#263238" stroke="#263238" stroke-linecap="round" stroke-miterlimit="10"/><line x1="383.71" y1="370.35" x2="408.97" y2="370.35" fill="none" stroke="#263238" stroke-linecap="round" stroke-miterlimit="10"/><line x1="389.32" y1="373.53" x2="400.17" y2="373.53" fill="none" stroke="#263238" stroke-linecap="round" stroke-miterlimit="10"/><line x1="381.28" y1="379.71" x2="404.48" y2="379.71" fill="none" stroke="#263238" stroke-linecap="round" stroke-miterlimit="10"/><line x1="407.1" y1="380.08" x2="414.96" y2="380.08" fill="none" stroke="#263238" stroke-linecap="round" stroke-miterlimit="10"/><line x1="398.68" y1="384.2" x2="411.03" y2="384.2" fill="none" stroke="#263238" stroke-linecap="round" stroke-miterlimit="10"/><line x1="380.2" y1="374.83" x2="385.39" y2="374.83" fill="none" stroke="#263238" stroke-linecap="round" stroke-miterlimit="10"/><line x1="481" y1="373.91" x2="468.47" y2="373.91" fill="none" stroke="#263238" stroke-linecap="round" stroke-miterlimit="10"/><line x1="474.08" y1="378.77" x2="458.18" y2="378.77" fill="none" stroke="#263238" stroke-linecap="round" stroke-miterlimit="10"/><line x1="465.29" y1="373.91" x2="455.18" y2="373.91" fill="none" stroke="#263238" stroke-linecap="round" stroke-miterlimit="10"/><path d="m373.43,294.42h84.58v31.97h-84.58c-7.59,0-13.76-6.17-13.76-13.76v-4.45c0-7.59,6.17-13.76,13.76-13.76Z" fill="#3b4eff" stroke="#263238" stroke-linecap="round" stroke-miterlimit="10"/><path d="m388.79,298.7h91v23.42h-91c-5.56,0-10.08-4.52-10.08-10.08v-3.26c0-5.56,4.52-10.08,10.08-10.08Z" fill="#fff" stroke="#263238" stroke-linecap="round" stroke-miterlimit="10"/><path d="m390.42,298.7h93.48v-4.27h-92.87c-8.83,0-15.99,7.16-15.99,15.98s7.16,15.99,15.99,15.99h92.87v-4.27h-93.48c-6.47,0-11.71-5.24-11.71-11.71s5.24-11.71,11.71-11.71Z" fill="#d6d6d6" stroke="#263238" stroke-linecap="round" stroke-miterlimit="10"/><line x1="382.23" y1="305.93" x2="407.49" y2="305.93" fill="none" stroke="#263238" stroke-linecap="round" stroke-miterlimit="10"/><line x1="387.84" y1="309.11" x2="398.69" y2="309.11" fill="none" stroke="#263238" stroke-linecap="round" stroke-miterlimit="10"/><line x1="379.8" y1="315.29" x2="403" y2="315.29" fill="none" stroke="#263238" stroke-linecap="round" stroke-miterlimit="10"/><line x1="405.62" y1="315.66" x2="413.47" y2="315.66" fill="none" stroke="#263238" stroke-linecap="round" stroke-miterlimit="10"/><line x1="397.2" y1="319.78" x2="409.54" y2="319.78" fill="none" stroke="#263238" stroke-linecap="round" stroke-miterlimit="10"/><line x1="378.71" y1="310.41" x2="383.91" y2="310.41" fill="none" stroke="#263238" stroke-linecap="round" stroke-miterlimit="10"/><line x1="479.52" y1="309.49" x2="466.98" y2="309.49" fill="none" stroke="#263238" stroke-linecap="round" stroke-miterlimit="10"/><line x1="472.6" y1="314.35" x2="456.69" y2="314.35" fill="none" stroke="#263238" stroke-linecap="round" stroke-miterlimit="10"/><line x1="463.8" y1="309.49" x2="453.7" y2="309.49" fill="none" stroke="#263238" stroke-linecap="round" stroke-miterlimit="10"/><path d="m402.22,326.52h84.58v31.97h-84.58c-7.59,0-13.76-6.17-13.76-13.76v-4.45c0-7.59,6.17-13.76,13.76-13.76Z" transform="translate(875.26 685.01) rotate(180)" fill="#263238" stroke="#263238" stroke-linecap="round" stroke-miterlimit="10"/><path d="m385.25,330.8h91v23.42h-91c-5.56,0-10.08-4.52-10.08-10.08v-3.26c0-5.56,4.52-10.08,10.08-10.08Z" transform="translate(851.41 685.01) rotate(180)" fill="#d4d4d4" stroke="#263238" stroke-linecap="round" stroke-miterlimit="10"/><path d="m464.53,330.8h-93.48v-4.27h92.87c8.83,0,15.98,7.16,15.98,15.99s-7.16,15.99-15.98,15.99h-92.87v-4.27h93.48c6.47,0,11.71-5.24,11.71-11.71s-5.24-11.71-11.71-11.71Z" fill="#d6d6d6" stroke="#263238" stroke-linecap="round" stroke-miterlimit="10"/><line x1="472.73" y1="338.03" x2="447.47" y2="338.03" fill="none" stroke="#263238" stroke-linecap="round" stroke-miterlimit="10"/><line x1="467.11" y1="341.21" x2="456.26" y2="341.21" fill="none" stroke="#263238" stroke-linecap="round" stroke-miterlimit="10"/><line x1="475.16" y1="347.39" x2="451.96" y2="347.39" fill="none" stroke="#263238" stroke-linecap="round" stroke-miterlimit="10"/><line x1="449.34" y1="347.76" x2="441.48" y2="347.76" fill="none" stroke="#263238" stroke-linecap="round" stroke-miterlimit="10"/><line x1="457.76" y1="351.88" x2="445.41" y2="351.88" fill="none" stroke="#263238" stroke-linecap="round" stroke-miterlimit="10"/><line x1="476.24" y1="342.51" x2="471.04" y2="342.51" fill="none" stroke="#263238" stroke-linecap="round" stroke-miterlimit="10"/><line x1="375.44" y1="341.59" x2="387.97" y2="341.59" fill="none" stroke="#263238" stroke-linecap="round" stroke-miterlimit="10"/><line x1="382.36" y1="346.45" x2="398.26" y2="346.45" fill="none" stroke="#263238" stroke-linecap="round" stroke-miterlimit="10"/><line x1="391.15" y1="341.59" x2="401.25" y2="341.59" fill="none" stroke="#263238" stroke-linecap="round" stroke-miterlimit="10"/><path d="m375.17,341.84h111.63v-1.56c0-7.6-6.16-13.76-13.76-13.76h-101.99v4.27h4.12v11.05Z" fill="#263238" stroke="#263238" stroke-linecap="round" stroke-miterlimit="10"/><circle cx="357.38" cy="164.27" r="37.82" transform="translate(56.56 417.67) rotate(-64.79)" fill="#ffce32" stroke="#263238" stroke-miterlimit="10"/><polygon points="433.53 413.09 441.16 413.09 466.64 258.75 379.79 160.26 373.48 164.53 459.01 261.08 433.53 413.09" fill="#263238" stroke-width="0"/><circle cx="462.83" cy="259.91" r="8.15" fill="#263238" stroke="#263238" stroke-miterlimit="10"/><rect x="390.1" y="412.46" width="95.58" height="10.32" transform="translate(875.78 835.23) rotate(180)" fill="#263238" stroke="#263238" stroke-miterlimit="10"/><path d="m354.53,149.86c4.6,11.56,17.69,17.2,29.25,12.6,11.56-4.6,17.2-17.69,12.6-29.25-4.6-11.56-17.69-17.2-29.25-12.6-11.56,4.6-17.2,17.69-12.6,29.25Z" fill="#ffce32" stroke="#263238" stroke-miterlimit="10"/><path d="m383.77,162.46c-11.56,4.6-24.65-1.04-29.25-12.6-3.02-7.6-1.62-15.87,2.99-21.94l-7.66,8.24c-7.1,6.09-9.91,16.23-6.26,25.41,4.6,11.56,17.69,17.2,29.25,12.6,2.65-1.05,4.98-2.56,6.96-4.39l.1.11,1.06-1.26c.54-.58,1.06-1.19,1.53-1.82l5.61-6.66c-1.33.9-2.78,1.68-4.34,2.3Z" fill="#ffce32" stroke="#263238" stroke-miterlimit="10"/><path d="m492.84,425.77H8.45c-1.65,0-2.98-1.34-2.98-3s1.33-3,2.98-3h484.39c1.65,0,2.98,1.34,2.98,3s-1.33,3-2.98,3Z" fill="#263238" stroke-width="0"/></svg>