<?xml version="1.0" encoding="UTF-8"?><svg xmlns="http://www.w3.org/2000/svg" viewBox="0 0 500 446.14"><g id="Clouds"><path d="m430.06,135.85s-5.48-22.83-37.44-27.4c-31.96-4.57-36.53,22.83-42.92,26.48-6.39,3.65-10.04-6.39-20.09-5.48-10.05.91-15.52,9.13-20.09,12.78s-12.78-7.31-19.18-5.48-11.87,10.96-11.87,10.96h185.38s-6.39-10.04-15.52-13.7c-9.13-3.65-12.78,1.83-18.26,1.83Z" fill="none" stroke="#676e7f" stroke-linecap="round" stroke-linejoin="round"/><path d="m122.31,204.4s-3.93-16.36-26.84-19.64c-22.91-3.27-26.18,16.36-30.76,18.98-4.58,2.62-7.2-4.58-14.4-3.93-7.2.65-11.13,6.55-14.4,9.16s-9.16-5.24-13.75-3.93-8.51,7.85-8.51,7.85h132.88s-4.58-7.2-11.13-9.82c-6.55-2.62-9.16,1.31-13.09,1.31Z" fill="none" stroke="#676e7f" stroke-linecap="round" stroke-linejoin="round"/><path d="m182.06,66.12s-2.49-10.37-17.01-12.44c-14.52-2.07-16.59,10.37-19.49,12.03-2.9,1.66-4.56-2.9-9.12-2.49-4.56.41-7.05,4.15-9.12,5.81s-5.81-3.32-8.71-2.49-5.39,4.98-5.39,4.98h84.2s-2.9-4.56-7.05-6.22c-4.15-1.66-5.81.83-8.3.83Z" fill="none" stroke="#676e7f" stroke-linecap="round" stroke-linejoin="round"/></g><g id="Sun"><circle cx="301.32" cy="63.5" r="24" fill="none" stroke="#676e7f" stroke-linecap="round" stroke-linejoin="round"/><line x1="301.32" y1="23.24" x2="301.32" y2="33" fill="none" stroke="#676e7f" stroke-linecap="round" stroke-linejoin="round"/><line x1="301.32" y1="95.63" x2="301.32" y2="105.39" fill="none" stroke="#676e7f" stroke-linecap="round" stroke-linejoin="round"/><line x1="330.36" y1="35.27" x2="323.46" y2="42.17" fill="none" stroke="#676e7f" stroke-linecap="round" stroke-linejoin="round"/><line x1="279.17" y1="86.46" x2="272.27" y2="93.36" fill="none" stroke="#676e7f" stroke-linecap="round" stroke-linejoin="round"/><line x1="342.39" y1="64.31" x2="332.63" y2="64.31" fill="none" stroke="#676e7f" stroke-linecap="round" stroke-linejoin="round"/><line x1="270" y1="64.31" x2="260.24" y2="64.31" fill="none" stroke="#263238" stroke-linecap="round" stroke-linejoin="round"/><line x1="330.36" y1="93.36" x2="323.46" y2="86.46" fill="none" stroke="#676e7f" stroke-linecap="round" stroke-linejoin="round"/><line x1="279.17" y1="42.17" x2="272.27" y2="35.27" fill="none" stroke="#676e7f" stroke-linecap="round" stroke-linejoin="round"/></g><g id="Birds"><path d="m359.18,197.01s4.82-1.2,6.27-.72c1.45.48-.96,2.19-.96,2.19,0,0,1.2.7,1.92,2.39.72,1.69-2.4.96-2.4.96,0,0,.96,1.21,0,2.17s-5.3-3.86-5.3-3.86c0,0-3.13,1.93-6.02,1.69-2.89-.24-4.58-.96-6.51-3.86s-3.37-4.34-3.37-4.34l-1.93-.72,2.89-1.69s2.41-2.17,4.82-1.93c2.41.24,3.37.96,3.37.96,0,0,1.45-3.86,3.61-5.3,2.17-1.45,8.92-3.37,11.09-4.58,2.17-1.2,1.69.72.96,1.93s-2.89,2.17-3.86,2.65c-.96.48,5.06.72,4.1,1.93s-4.58,1.69-4.58,1.69c0,0,3.37,1.2,2.65,2.17-.72.96-3.61.96-3.61.96,0,0,.96,2.41-.48,2.41h-1.45s.72,3.37-1.2,2.89Z" fill="#ffce32" stroke="#263238" stroke-linecap="round" stroke-linejoin="round"/><path d="m351.95,190.26s-1.93-3.86-.96-6.27c.96-2.41,9.88-8.68,9.64-6.27-.24,2.41-2.65,3.86-2.65,3.86,0,0,3.61-1.2,3.61-.24v.96s-4.1.96-6.02,2.65c-1.93,1.69-3.61,5.3-3.61,5.3Z" fill="#263238" stroke="#263238" stroke-linecap="round" stroke-linejoin="round"/><circle cx="346.31" cy="192.14" r=".72" fill="#263238" stroke-width="0"/><path d="m355.99,199.5c-.43,1.46-2.73,2.07-5.13,1.36s-4-2.47-3.56-3.94c.43-1.46,2.73-2.07,5.13-1.36,2.4.71,4,2.47,3.56,3.94Z" fill="#fff" stroke="#263238" stroke-linecap="round" stroke-linejoin="round" stroke-width=".5"/><path d="m119.48,135.24s-4.82-1.2-6.27-.72c-1.45.48.96,2.19.96,2.19,0,0-1.2.7-1.92,2.39-.72,1.69,2.4.96,2.4.96,0,0-.96,1.21,0,2.17.96.96,5.3-3.86,5.3-3.86,0,0,3.13,1.93,6.02,1.69,2.89-.24,4.58-.96,6.51-3.86s3.37-4.34,3.37-4.34l1.93-.72-2.89-1.69s-2.41-2.17-4.82-1.93c-2.41.24-3.37.96-3.37.96,0,0-1.45-3.86-3.61-5.3-2.17-1.45-8.92-3.37-11.09-4.58-2.17-1.2-1.69.72-.96,1.93.72,1.2,2.89,2.17,3.86,2.65.96.48-5.06.72-4.1,1.93.96,1.2,4.58,1.69,4.58,1.69,0,0-3.37,1.2-2.65,2.17s3.61.96,3.61.96c0,0-.96,2.41.48,2.41h1.45s-.72,3.37,1.2,2.89Z" fill="#ffce32" stroke="#263238" stroke-linecap="round" stroke-linejoin="round"/><path d="m126.71,128.5s1.93-3.86.96-6.27c-.96-2.41-9.88-8.68-9.64-6.27.24,2.41,2.65,3.86,2.65,3.86,0,0-3.61-1.2-3.61-.24v.96s4.1.96,6.02,2.65c1.93,1.69,3.61,5.3,3.61,5.3Z" fill="#263238" stroke="#263238" stroke-linecap="round" stroke-linejoin="round"/><path d="m131.63,130.37c0,.4.32.72.72.72s.72-.32.72-.72-.32-.72-.72-.72-.72.32-.72.72Z" fill="#263238" stroke-width="0"/><path d="m122.67,137.74c.43,1.46,2.73,2.07,5.13,1.36,2.4-.71,4-2.47,3.56-3.94-.43-1.46-2.73-2.07-5.13-1.36s-4,2.47-3.56,3.94Z" fill="#fff" stroke="#263238" stroke-linecap="round" stroke-linejoin="round" stroke-width=".5"/></g><g id="Plants"><path d="m106.54,314.72s-9.53-15.15-26.8-24.11c-17.27-8.95-24.63-17.8-15.67-17.27,10.87.64,35.5,9.27,46.69,39.66,4.83,13.11-4.22,1.72-4.22,1.72" fill="#ffce32" stroke="#263238" stroke-linecap="round" stroke-linejoin="round"/><path d="m105.96,310.76s-8.63-17.27-24.94-25.58" fill="none" stroke="#263238" stroke-linecap="round" stroke-linejoin="round"/><path d="m116.92,325.2s-5.45-15.23-2.17-32.51c3.28-17.27,1.11-27.44-3.52-20.78-5.62,8.08-13.23,30.41,2.1,55.33,6.62,10.75,3.58-2.04,3.58-2.04" fill="#ffce32" stroke="#263238" stroke-linecap="round" stroke-linejoin="round"/><path d="m114.43,322.58s-7.45-15.78-4.25-32.02" fill="none" stroke="#263238" stroke-linecap="round" stroke-linejoin="round"/><path d="m107.24,307.1s-5.45-15.23-2.17-32.51c3.28-17.27,1.11-27.44-3.52-20.78-5.62,8.08-13.23,30.41,2.1,55.33,6.62,10.75,3.58-2.04,3.58-2.04" fill="#ffce32" stroke="#263238" stroke-linecap="round" stroke-linejoin="round"/><path d="m105.96,310.76s-8.66-22.06-5.46-38.29" fill="none" stroke="#263238" stroke-linecap="round" stroke-linejoin="round"/><path d="m324.02,295.85s9.53-15.15,26.8-24.11c17.27-8.95,24.63-17.8,15.67-17.27-10.87.64-35.5,9.27-46.69,39.66-4.83,13.11,4.22,1.72,4.22,1.72" fill="#ffce32" stroke="#263238" stroke-linecap="round" stroke-linejoin="round"/><path d="m324.6,291.89s8.63-17.27,24.94-25.58" fill="none" stroke="#263238" stroke-linecap="round" stroke-linejoin="round"/><path d="m313.64,306.32s5.45-15.23,2.16-32.51c-3.28-17.27-1.11-27.44,3.52-20.78,5.62,8.08,13.23,30.41-2.1,55.33-6.62,10.75-3.58-2.04-3.58-2.04" fill="#ffce32" stroke="#263238" stroke-linecap="round" stroke-linejoin="round"/><path d="m316.13,303.7s7.45-15.78,4.25-32.02" fill="none" stroke="#263238" stroke-linecap="round" stroke-linejoin="round"/><path d="m323.32,288.23s5.45-15.23,2.16-32.51c-3.28-17.27-1.11-27.44,3.52-20.78,5.62,8.08,13.23,30.41-2.1,55.33-6.62,10.75-3.58-2.04-3.58-2.04" fill="#ffce32" stroke="#263238" stroke-linecap="round" stroke-linejoin="round"/><path d="m324.6,291.89s8.66-22.06,5.46-38.29" fill="none" stroke="#263238" stroke-linecap="round" stroke-linejoin="round"/></g><g id="House"><polygon points="328.37 241.82 229.13 241.82 173.61 153.53 272.85 153.53 328.37 241.82" fill="#263238" stroke="#263238" stroke-linecap="round" stroke-linejoin="round"/><rect x="113.6" y="238.79" width="101.72" height="89.85" fill="#c7c7c7" stroke="#263238" stroke-linecap="round" stroke-linejoin="round"/><polygon points="317.04 328.64 215.32 328.64 215.32 238.79 267.03 156.57 317.04 238.79 317.04 328.64" fill="#fff" stroke="#263238" stroke-linecap="round" stroke-linejoin="round"/><rect x="227.19" y="254.89" width="10.17" height="30.52" fill="#c7c7c7" stroke="#263238" stroke-linecap="round" stroke-linejoin="round"/><rect x="237.36" y="254.89" width="10.17" height="30.52" fill="#263238" stroke="#263238" stroke-linecap="round" stroke-linejoin="round"/><rect x="247.53" y="254.89" width="10.17" height="30.52" fill="#c7c7c7" stroke="#263238" stroke-linecap="round" stroke-linejoin="round"/><rect x="182.26" y="254.89" width="8.48" height="30.52" fill="#919191" stroke="#263238" stroke-linecap="round" stroke-linejoin="round"/><rect x="190.74" y="254.89" width="8.48" height="30.52" fill="#263238" stroke="#263238" stroke-linecap="round" stroke-linejoin="round"/><rect x="199.21" y="254.89" width="8.48" height="30.52" fill="#919191" stroke="#263238" stroke-linecap="round" stroke-linejoin="round"/><rect x="119.53" y="254.89" width="8.48" height="30.52" fill="#919191" stroke="#263238" stroke-linecap="round" stroke-linejoin="round"/><rect x="128.01" y="254.89" width="8.48" height="30.52" fill="#263238" stroke="#263238" stroke-linecap="round" stroke-linejoin="round"/><rect x="136.49" y="254.89" width="8.48" height="30.52" fill="#919191" stroke="#263238" stroke-linecap="round" stroke-linejoin="round"/><rect x="278.89" y="254.89" width="10.17" height="30.52" fill="#c7c7c7" stroke="#263238" stroke-linecap="round" stroke-linejoin="round"/><rect x="289.06" y="254.89" width="10.17" height="30.52" fill="#263238" stroke="#263238" stroke-linecap="round" stroke-linejoin="round"/><rect x="299.24" y="254.89" width="10.17" height="30.52" fill="#c7c7c7" stroke="#263238" stroke-linecap="round" stroke-linejoin="round"/><rect x="258.55" y="204.88" width="6.78" height="18.65" fill="#c7c7c7" stroke="#263238" stroke-linecap="round" stroke-linejoin="round"/><rect x="265.33" y="204.88" width="6.78" height="18.65" fill="#263238" stroke="#263238" stroke-linecap="round" stroke-linejoin="round"/><rect x="272.11" y="204.88" width="6.78" height="18.65" fill="#c7c7c7" stroke="#263238" stroke-linecap="round" stroke-linejoin="round"/><polygon points="107.94 241.82 217.16 241.82 272.69 153.53 163.46 153.53 107.94 241.82" fill="#3b4eff" stroke="#263238" stroke-linecap="round" stroke-linejoin="round"/><rect x="150.09" y="193.41" width="43.13" height="28.54" fill="#c7c7c7" stroke="#263238" stroke-linecap="round" stroke-linejoin="round"/><polygon points="193.22 193.41 223.02 172.94 193.22 221.96 193.22 193.41" fill="#fff" stroke="#263238" stroke-linecap="round" stroke-linejoin="round"/><polygon points="146.63 194.38 191.81 194.38 223.02 172.94 177.86 172.94 146.63 194.38" fill="#3b4eff" stroke="#263238" stroke-linecap="round" stroke-linejoin="round"/><rect x="160.65" y="199.47" width="6.78" height="18.65" fill="#919191" stroke="#263238" stroke-linecap="round" stroke-linejoin="round"/><rect x="167.43" y="199.47" width="6.78" height="18.65" fill="#263238" stroke="#263238" stroke-linecap="round" stroke-linejoin="round"/><rect x="174.21" y="199.47" width="6.78" height="18.65" fill="#919191" stroke="#263238" stroke-linecap="round" stroke-linejoin="round"/><polygon points="246.39 140.14 242.6 140.14 242.6 167.84 246.39 161.72 246.39 140.14" fill="#fff" stroke="#263238" stroke-linecap="round" stroke-linejoin="round"/><rect x="231.56" y="140.14" width="11.21" height="27.7" fill="#c7c7c7" stroke="#263238" stroke-linecap="round" stroke-linejoin="round"/><rect x="151.41" y="260.02" width="26.11" height="68.61" fill="#263238" stroke="#263238" stroke-linecap="round" stroke-linejoin="round"/><path d="m176.14,294.24c0-1.28-1.03-2.31-2.31-2.31s-2.31,1.03-2.31,2.31,1.03,2.31,2.31,2.31,2.31-1.03,2.31-2.31Z" fill="#fff" stroke="#263238" stroke-linecap="round" stroke-linejoin="round"/></g><g id="Hand"><path d="m108.22,314.29s-21.87-11.96-42.28-14.19c-20.42-2.22-32.23,7.29-32.13,11.42.1,4.13,14.27,4.44,16.96,5.13,2.69.69,19.11-3.84,43.34,1.91,24.23,5.76,27.34,6.94,27.34,6.94l-13.23-11.22Z" fill="#fff" stroke="#263238" stroke-linecap="round" stroke-linejoin="round"/><path d="m99.07,314.01s-22.81-10.04-43.35-10.49c-20.53-.46-31.48,10.04-31.03,14.14.46,4.11,14.6,3.19,17.34,3.65,2.74.46,18.71-5.48,43.35-1.83,24.64,3.65,27.83,4.56,27.83,4.56l-14.14-10.04Z" fill="#fff" stroke="#263238" stroke-linecap="round" stroke-linejoin="round"/><path d="m390.7,305.57l-31.68-8.58s-22.44-17.82-49.5-15.84c-27.06,1.98-51.48,12.54-59.4,18.48-7.92,5.94-17.82,11.88-19.8,13.2-1.98,1.32-29.04-5.94-43.56,0-14.52,5.94-25.74,17.82-25.74,17.82,0,0-61.38-18.48-76.56-21.12-15.18-2.64-33-1.32-45.54,7.92-12.54,9.24-9.9,15.18-3.3,16.5,6.6,1.32,7.92-5.28,44.22,4.62,36.3,9.9,80.52,35.64,98.34,45.54,17.82,9.9,47.52,23.76,67.32,17.82,19.8-5.94,73.92-26.4,86.46-26.4s52.8,2.64,52.8,2.64l5.94-72.6Z" fill="#fff" stroke="#263238" stroke-linecap="round" stroke-linejoin="round"/><polygon points="373.47 349.23 346.25 375.37 384.76 378.17 373.47 349.23" fill="#263238" stroke="#263238" stroke-linecap="round" stroke-linejoin="round"/><path d="m161.02,330.65s-6.13,8.06-3.55,18.5c1.6,6.45,9.13,5.02,22.81,2.28,13.69-2.74.91-4.56,32.85-5.02,31.94-.46,66.16-1.37,67.99-1.37" fill="none" stroke="#263238" stroke-linecap="round" stroke-linejoin="round"/><path d="m160.79,353.03s.61-4.17,5.06-6.74c0,0,7.59-3.93,12.36-3.93s8.71,5.06,7.3,6.74" fill="none" stroke="#263238" stroke-linecap="round" stroke-linejoin="round"/><line x1="201.81" y1="345.17" x2="201.81" y2="339.55" fill="none" stroke="#263238" stroke-linecap="round" stroke-linejoin="round"/><path d="m204.62,334.21s.84,3.09.28,7.87" fill="none" stroke="#263238" stroke-linecap="round" stroke-linejoin="round"/><path d="m375.7,292.44h42.77v116.17h-42.77c-2.48,0-4.49-2.01-4.49-4.49v-107.19c0-2.48,2.01-4.49,4.49-4.49Z" fill="#3b4eff" stroke="#263238" stroke-linecap="round" stroke-linejoin="round"/><path d="m418.67,286.48h75.52v131.21h-75.52c-1.88,0-3.41-1.53-3.41-3.41v-124.38c0-1.88,1.53-3.41,3.41-3.41Z" fill="#3b4eff" stroke="#263238" stroke-linecap="round" stroke-linejoin="round"/><line x1="377.77" y1="303.08" x2="412.9" y2="303.08" fill="#92e3a9" stroke="#263238" stroke-linecap="round" stroke-linejoin="round"/><line x1="412.42" y1="316.87" x2="376.7" y2="316.87" fill="#92e3a9" stroke="#263238" stroke-linecap="round" stroke-linejoin="round"/><line x1="375.45" y1="341.93" x2="399.89" y2="341.93" fill="#92e3a9" stroke="#263238" stroke-linecap="round" stroke-linejoin="round"/><line x1="404.27" y1="341.93" x2="412.42" y2="341.93" fill="#92e3a9" stroke="#263238" stroke-linecap="round" stroke-linejoin="round"/></g></svg>