<?xml version="1.0" encoding="UTF-8"?><svg id="Hand" xmlns="http://www.w3.org/2000/svg" xmlns:xlink="http://www.w3.org/1999/xlink" viewBox="0 0 500 446.14"><defs><clipPath id="clippath"><rect width="500" height="446.14" fill="none" stroke-width="0"/></clipPath></defs><g clip-path="url(#clippath)"><line x1="352.72" y1="128.77" x2="352.72" y2="77.53" fill="none" stroke="#676e7f" stroke-miterlimit="10"/><line x1="281.44" y1="100.09" x2="281.44" y2="417.29" fill="none" stroke="#676e7f" stroke-miterlimit="10"/><line x1="281.44" y1="74.34" x2="281.44" y2="91.08" fill="none" stroke="#676e7f" stroke-miterlimit="10"/><line x1="352.72" y1="379.46" x2="352.72" y2="134.51" fill="none" stroke="#676e7f" stroke-miterlimit="10"/><polyline points="450.68 306.11 450.68 217.83 394.54 217.83 394.54 379.45 450.68 379.45 450.68 312.67" fill="none" stroke="#676e7f" stroke-miterlimit="10"/><polyline points="402.61 258.66 402.61 223.49 442.15 223.49 442.15 297.69 402.61 297.69 402.61 264.63" fill="none" stroke="#676e7f" stroke-miterlimit="10"/><rect x="398.01" y="302.28" width="10.62" height="3.54" fill="none" stroke="#676e7f" stroke-miterlimit="10"/><rect x="297.58" y="407.5" width="123.46" height="9.33" fill="none" stroke="#263238" stroke-miterlimit="10"/><rect x="313.69" y="398.18" width="123.46" height="9.33" fill="none" stroke="#676e7f" stroke-miterlimit="10"/><rect x="329.8" y="388.86" width="123.46" height="9.33" fill="none" stroke="#676e7f" stroke-miterlimit="10"/><rect x="345.91" y="379.55" width="123.46" height="9.33" fill="none" stroke="#676e7f" stroke-miterlimit="10"/><polygon points="480.73 416.88 480.52 379.55 469.38 379.55 469.38 388.88 453.26 388.86 453.26 398.2 437.15 398.18 437.15 407.51 421.04 407.5 421.25 416.88 480.73 416.88" fill="none" stroke="#676e7f" stroke-miterlimit="10"/><path d="m481.67,334.86h-17.12l-.31.22s0,0,0,0l-48.69,33.56v48.11c0,.11.02.22.05.33h2.44c.03-.11.05-.21.05-.33v-46.77l23.15-15.96v43.6c0,.22.06.42.16.6h2.22c.1-.18.16-.38.16-.6v-45.15c0-.06,0-.13-.02-.19l19.92-13.73v40.42c0,.26.08.49.21.69h2.13c.13-.2.21-.44.21-.69v-41.56h15.45c.7,0,1.27-.57,1.27-1.27s-.57-1.27-1.27-1.27Z" fill="#263238" stroke-width="0"/><path d="m301.98,417.08c.03-.11.05-.21.05-.33v-46.77l23.15-15.96v43.6c0,.22.06.42.16.6h2.22c.1-.18.16-.38.16-.6v-45.15c0-.06,0-.13-.02-.19l19.92-13.73v40.42c0,.26.08.49.21.69h2.13c.13-.2.21-.44.21-.69v-41.56h15.45c.7,0,1.27-.57,1.27-1.27s-.57-1.27-1.27-1.27h-17.12l-.31.22s0,0,0,0l-48.69,33.56v48.11c0,.11.02.22.05.33h2.44Z" fill="#263238" stroke-width="0"/><polyline points="-102.45 269.72 -102.45 359.1 80.8 359.1 80.8 182.04" fill="none" stroke="#676e7f" stroke-miterlimit="10"/><polyline points="80.8 169.75 80.8 105.06 -102.45 105.06 -102.45 257.43" fill="none" stroke="#676e7f" stroke-miterlimit="10"/><rect x="385.85" y="203.06" width="72.77" height="6.01" rx="2.39" ry="2.39" fill="none" stroke="#676e7f" stroke-miterlimit="10"/><polyline points="-114.85 359.12 125.15 359.12 125.15 415.81" fill="none" stroke="#676e7f" stroke-miterlimit="10"/><path d="m260.05,392.4l51.42,1.85,70.73-.68,27.16-1.33s5.56-14.91,3.41-22.92c-2.16-8-4.93-11.39-11.08-11.39s-16.69,5.01-17.12,8.67c-.43,3.65-3.5,7.81-3.5,7.81h-73.29s-2.77-15.86-12.62-21.4c-9.85-5.54-22.78-5.23-29.56,0-6.77,5.23-5.54,39.41-5.54,39.41Z" fill="#263238" stroke="#263238" stroke-miterlimit="10"/><path d="m397.5,391.94c0-4.29-.55-8.32-1.5-11.87v-13.49h-11.43c-7.15,0-12.94,11.35-12.94,25.36s5.79,25.36,12.94,25.36h11.43v-13.49c.96-3.54,1.5-7.58,1.5-11.87Z" fill="#263238" stroke="#263238" stroke-miterlimit="10"/><ellipse cx="395.99" cy="391.94" rx="12.94" ry="25.36" fill="#616161" stroke="#263238" stroke-miterlimit="10"/><ellipse cx="397.04" cy="392.08" rx="8.06" ry="17.47" fill="#e0e0e0" stroke="#263238" stroke-miterlimit="10"/><path d="m295.11,366.58h-11.43c-7.15,0-12.94,11.35-12.94,25.36s5.79,25.36,12.94,25.36h11.43c7.15,0,12.94-11.35,12.94-25.36s-5.79-25.36-12.94-25.36Z" fill="#263238" stroke="#263238" stroke-miterlimit="10"/><path d="m165.58,366.58h-12.44c-7.77,0-14.07,11.35-14.07,25.36s6.3,25.36,14.07,25.36h12.44c7.77,0,14.07-11.35,14.07-25.36s-6.3-25.36-14.07-25.36Z" fill="#263238" stroke="#263238" stroke-miterlimit="10"/><path d="m286.4,387.82c0-4.98-.63-9.68-1.75-13.79v-15.68h-13.29c-8.3,0-15.04,13.19-15.04,29.47s6.73,29.47,15.04,29.47h13.29v-15.68c1.11-4.12,1.75-8.81,1.75-13.79Z" fill="#263238" stroke="#263238" stroke-miterlimit="10"/><ellipse cx="284.66" cy="387.82" rx="15.04" ry="29.47" fill="#616161" stroke="#263238" stroke-miterlimit="10"/><ellipse cx="285.88" cy="387.99" rx="9.36" ry="20.3" fill="#e0e0e0" stroke="#263238" stroke-miterlimit="10"/><path d="m411.08,348.82c-2.4-7.49-53.02-112.04-56.92-116.23-3.89-4.19-76.39-26.66-76.39-26.66,0,0-33.25-9.89-44.04-10.49-10.78-.6-103.35,7.19-105.15,7.79-1.8.6-13.78,37.75-17.08,53.92-3.3,16.18-4.79,49.13-4.79,81.48s4.49,56.02,9.59,56.02,138.1,3.89,140.2,3.89,5.09-2.4,10.49-9.59c5.39-7.19,9.89-28.76,15.88-31.46,5.99-2.7,12.58-1.2,15.88,6.29,3.3,7.49,2.4,30.86,2.4,30.86,0,0,48.75-.27,81.06-1.09,1.2-3.24,4.44-11.89,8.48-21.74,5.13-12.51,13.79-11.23,17.64-8.02,3.47,2.89,3.03,18.55,1.03,28.43.47-.09.76-.18.83-.27,1.5-2.1,3-7.79,4.19-15.28,1.2-7.49-.9-20.37-3.3-27.86Z" fill="#fff" stroke="#263238" stroke-miterlimit="10"/><path d="m301.14,394.65s48.75-.27,81.06-1.09c1.2-3.24,4.44-11.89,8.48-21.74,5.13-12.51,13.79-11.23,17.64-8.02,3.47,2.89,3.03,18.55,1.03,28.43.47-.09.76-.18.83-.27,1.5-2.1,3-7.79,4.19-15.28,1.2-7.49-.9-20.37-3.3-27.86-2.4-7.49-53.02-112.04-56.92-116.23-3.89-4.19-76.39-26.66-76.39-26.66,0,0-33.25-9.89-44.04-10.49-.06,0-.14,0-.2,0l.41,1.9s8.96,17.29,7.24,200.8c9.06.26,14.89.42,15.32.42,2.1,0,5.09-2.4,10.49-9.59,5.39-7.19,9.89-28.76,15.88-31.46,5.99-2.7,12.58-1.2,15.88,6.29,3.3,7.49,2.4,30.86,2.4,30.86Z" fill="#e0e0e0" stroke="#263238" stroke-miterlimit="10"/><path d="m410.05,367.28c1.48,5.91.87,17.21-.7,24.95.47-.09.76-.18.83-.27,1.5-2.1,3-7.79,4.19-15.28.79-4.92.15-12.16-1.06-18.68-.15,3.24-.91,6.98-3.27,9.28Z" fill="#263238" stroke="#263238" stroke-miterlimit="10"/><path d="m282.02,358.03H107.3c1.37,21.98,5,36.62,9.01,36.62,5.09,0,138.1,3.89,140.2,3.89s5.09-2.4,10.49-9.59c5.13-6.85,9.46-26.72,15.03-30.93Z" fill="#263238" stroke="#263238" stroke-miterlimit="10"/><path d="m168.02,201.17v.42c0,1.44,1.23,2.58,2.67,2.46l17.07-1.42c1.28-.11,2.26-1.18,2.26-2.46v-.42c0-1.44-1.23-2.58-2.67-2.46l-17.07,1.42c-1.28.11-2.26,1.18-2.26,2.46Z" fill="none" stroke="#263238" stroke-miterlimit="10"/><path d="m233.94,197.33s3.93,82.01,3.93,93.1,1.16,93.56,1.16,93.56l43.89.46s3.7-25.87,3.7-52.9-4.16-91.71-6.47-110.65c-2.31-18.94-5.31-33.27-5.31-33.27l-40.89,9.7Z" fill="#fff" stroke="#263238" stroke-miterlimit="10"/><path d="m242.26,307.75l32.34-1.39s1.62,24.72,0,42.28c-1.62,17.56-2.31,21.95-3.23,22.87-.92.92-29.11,0-29.11,0,0,0-1.85-1.85-1.85-4.85s-.69-54.75-.69-56.37.92-1.85,2.54-2.54Z" fill="#263238" stroke="#263238" stroke-miterlimit="10"/><path d="m238.1,211.65l.92,10.4,32.11-4.85s-.23-2.77-2.31-7.16c-2.08-4.39-4.85-5.78-4.85-5.78l-23.56,5.31" fill="none" stroke="#263238" stroke-miterlimit="10"/><path d="m268.13,192.01s5.31,14.09,9.47,52.21c4.16,38.12,5.78,115.74,2.54,131.45,0,0,0,2.54-2.54,4.39-2.54,1.85-35.58,1.16-35.58,1.16" fill="none" stroke="#263238" stroke-miterlimit="10"/><path d="m269.52,226.67s1.39-4.16,4.39,26.1c3,30.26,3.23,41.58,1.85,42.51s-30.96,2.54-30.96,2.54" fill="none" stroke="#263238" stroke-miterlimit="10"/><path d="m260.51,226.43s-18.48,2.08-19.87,3.7c-1.39,1.62,1.62,14.78,2.31,36.27.69,21.48.69,26.57.69,26.57" fill="none" stroke="#263238" stroke-miterlimit="10"/><path d="m269.06,232.67l-23.1,3.7s-2.31.69-1.85,3.23,3.47,35.34,2.77,52.21" fill="none" stroke="#263238" stroke-miterlimit="10"/><line x1="97.2" y1="264.81" x2="97.2" y2="346.61" fill="none" stroke="#263238" stroke-miterlimit="10"/><path d="m100.76,255.48l.17-10.48s-7.34-37.57-7.86-38.27c-.52-.7-60.46-1.22-61.16-.87-.7.35-.17,4.02-.17,4.02,0,0,.7,12.06,1.22,50.67.52,38.62-.17,117.6-.17,117.6l66.93.52s-.7-5.24.35-22.54c1.05-17.3,1.22-96.63,1.22-97.33v-2.27l-.52-1.05Z" fill="#fff" stroke="#676e7f" stroke-miterlimit="10"/><path d="m35.08,208.54s51.2.77,52.58,1.08c1.38.31,2.31,3.08,2.77,4.61.46,1.54,6.92,29.67,7.38,33.83" fill="none" stroke="#676e7f" stroke-miterlimit="10"/><path d="m97.2,357.52s.31,10.15-.77,12.3c-1.08,2.15-2.31,2.77-4,3.08-1.69.31-57.96-.62-57.96-.62" fill="none" stroke="#263238" stroke-miterlimit="10"/><path d="m39.08,310.32l-.77,56.12,54.89.77s1.23-55.66,1.08-56.43c-.15-.77-.15-1.54-3.23-1.85-3.07-.31-48.89-.77-49.66-.77s-2,.92-2.31,2.15Z" fill="#263238" stroke="#263238" stroke-miterlimit="10"/><path d="m43.69,219.76s-5.07,7.07-5.54,8.76c-.46,1.69,0,2.92,1.23,3.07,1.23.15,47.66,0,47.66,0,0,0,1.69-.31,1.54-2.92" fill="none" stroke="#676e7f" stroke-miterlimit="10"/><path d="m46.77,219.3h38.13s1.23,0,2,3.23" fill="none" stroke="#676e7f" stroke-miterlimit="10"/><path d="m50.15,242.21s-3.69,1.23-3.84,4.61c-.15,3.38.77,49.2.77,49.2" fill="none" stroke="#676e7f" stroke-miterlimit="10"/><path d="m55.99,242.06s28.91.77,30.75,1.08c1.85.31,3.54,2.31,4,3.84s.46,46.74.46,46.74" fill="none" stroke="#676e7f" stroke-miterlimit="10"/><path d="m52,238.67s-6.15-.15-8.92,1.54c-2.77,1.69-2.31,6.15-2.15,7.84s.61,47.2.61,47.2c0,0,0,1.85,2.46,2s43.51.15,43.51.15c0,0,1.69,0,2.61-1.38" fill="none" stroke="#676e7f" stroke-miterlimit="10"/><path d="m57.99,238.06s28.44.77,31.06,2c2.61,1.23,2.15,3.54,2.31,4.61" fill="none" stroke="#676e7f" stroke-miterlimit="10"/><rect x="99.19" y="256" width="13.45" height="4.72" fill="none" stroke="#263238" stroke-miterlimit="10"/><rect x="103.21" y="254.6" width="4.54" height="7.86" fill="none" stroke="#263238" stroke-miterlimit="10"/><rect x="97.96" y="349.84" width="13.45" height="4.72" fill="none" stroke="#263238" stroke-miterlimit="10"/><rect x="101.98" y="348.44" width="4.54" height="7.86" fill="none" stroke="#263238" stroke-miterlimit="10"/><path d="m233.87,203.91l-101.93,7.74s-8.77,44.39-8.77,45.16-2.84,72-1.81,89.29c1.03,17.29,1.29,31.74,1.29,31.74l115.61,3.35-4.39-177.28Z" fill="#fff" stroke="#263238" stroke-miterlimit="10"/><path d="m233.87,203.91l-101.93,7.74s-8.77,44.39-8.77,45.16-2.84,72-1.81,89.29c1.03,17.29,1.29,31.74,1.29,31.74l115.61,3.35-4.39-177.28Z" fill="#263238" stroke="#263238" stroke-miterlimit="10"/><polygon points="200.55 380.1 200.55 325.37 178.02 325.37 178.02 379.45 200.55 380.1" fill="#3b4eff" stroke="#263238" stroke-miterlimit="10"/><polygon points="131.93 378.11 178.02 379.45 178.02 325.37 131.93 325.37 131.93 378.11" fill="#3b4eff" stroke="#263238" stroke-miterlimit="10"/><rect x="150.15" y="325.37" width="9.65" height="25.79" transform="translate(309.95 676.52) rotate(180)" fill="#fff" stroke="#263238" stroke-miterlimit="10"/><polygon points="225.16 380.81 238.25 380.81 238.06 373.17 236.88 325.37 181.54 325.37 181.54 379.55 225.16 380.81" fill="#3b4eff" stroke="#263238" stroke-miterlimit="10"/><polygon points="225.16 380.81 227.62 380.81 227.62 325.37 181.54 325.37 181.54 379.55 225.16 380.81" fill="#3b4eff" stroke="#263238" stroke-miterlimit="10"/><rect x="186.76" y="339.76" width="15.46" height="10.42" fill="#fff" stroke="#263238" stroke-miterlimit="10"/><rect x="199.76" y="325.37" width="9.65" height="8.31" transform="translate(409.16 659.04) rotate(180)" fill="#fff" stroke="#263238" stroke-miterlimit="10"/><path d="m306,370.54s.32,9.94.64,12.51c.32,2.57,2.57,3.85,5.45,3.21,2.89-.64,64.48.96,64.48.96,0,0,2.89-.64,3.21-4.17.32-3.53,1.28-8.66,1.28-8.66l-75.06-3.85Z" fill="#263238" stroke="#263238" stroke-miterlimit="10"/><path d="m363.37,275.84s4.65,37.74,6.82,42.39c2.16,4.65,3.82,6.48,6.32,7.48,2.49,1,16.62,5.15,18.29,5.32,1.66.17,2.49-.66,1.99-2.66-.5-1.99-19.78-45.88-21.44-48.54-1.66-2.66-7.15-4.82-9.14-5.49-1.99-.66-2.83,1.5-2.83,1.5Z" fill="#b2b2b2" stroke="#263238" stroke-miterlimit="10"/><line x1="373.05" y1="277.92" x2="381.77" y2="326.36" fill="none" stroke="#263238" stroke-miterlimit="10"/><path d="m393.63,310.26s.5,17.79.83,19.28c.33,1.5,1.66,2.16,3.32,1.99,1.66-.17,7.15-.83,7.81-2.49.66-1.66-.33-14.3-2.33-17.29-1.99-2.99-5.98-3.99-7.65-4.16-1.66-.17-1.99,2.66-1.99,2.66Z" fill="#b2b2b2" stroke="#263238" stroke-miterlimit="10"/><path d="m394.46,329.54c.33,1.5,1.66,2.16,3.32,1.99,1.66-.17,7.15-.83,7.81-2.49.66-1.66-.33-14.3-2.33-17.29-.83-1.24-1.99-2.13-3.2-2.77l.37.94,1.16,16.29h-7.4c.09,1.71.18,2.97.25,3.32Z" fill="#263238" stroke="#263238" stroke-miterlimit="10"/><line x1="289.91" y1="332.74" x2="400.96" y2="345.56" fill="none" stroke="#263238" stroke-miterlimit="10"/><polyline points="290.97 336.75 388.41 347.16 396.16 346.62" fill="none" stroke="#263238" stroke-miterlimit="10"/><path d="m387.61,354.1s-3.74,14.68-5.34,18.15" fill="none" stroke="#263238" stroke-miterlimit="10"/><path d="m291.51,343.95s8.01,4.27,12.28,19.76" fill="none" stroke="#263238" stroke-miterlimit="10"/><line x1="287.5" y1="255.86" x2="358.52" y2="272.14" fill="none" stroke="#263238" stroke-miterlimit="10"/><path d="m288.57,251.32s73.95,16.82,80.09,20.02" fill="none" stroke="#263238" stroke-miterlimit="10"/><path d="m370.58,339.39h0c-.87-.25-1.58-1.17-1.58-2.04v-11.05c0-.87.71-1.37,1.58-1.12h0c.87.25,1.58,1.17,1.58,2.04v11.05c0,.87-.71,1.37-1.58,1.12Z" fill="#263238" stroke="#263238" stroke-miterlimit="10"/><path d="m358.27,338.13h0c-.87-.25-1.58-1.17-1.58-2.04v-11.05c0-.87.71-1.37,1.58-1.12h0c.87.25,1.58,1.17,1.58,2.04v11.05c0,.87-.71,1.37-1.58,1.12Z" fill="#263238" stroke="#263238" stroke-miterlimit="10"/><rect x="143.15" y="282.55" width="59.53" height="43.19" transform="translate(345.82 608.3) rotate(180)" fill="#3b4eff" stroke="#263238" stroke-miterlimit="10"/><rect x="143.15" y="282.55" width="35.9" height="43.19" transform="translate(322.19 608.3) rotate(180)" fill="#3b4eff" stroke="#263238" stroke-miterlimit="10"/><rect x="157.34" y="282.55" width="7.51" height="20.09" transform="translate(322.19 585.19) rotate(180)" fill="#fff" stroke="#263238" stroke-miterlimit="10"/><polygon points="234.75 239.54 193.84 239.54 193.84 282.73 235.82 282.73 234.75 239.54" fill="#3b4eff" stroke="#263238" stroke-miterlimit="10"/><rect x="193.84" y="239.54" width="35.9" height="43.19" transform="translate(423.57 522.27) rotate(180)" fill="#3b4eff" stroke="#263238" stroke-miterlimit="10"/><rect x="211.63" y="263.8" width="15.46" height="10.42" fill="#fff" stroke="#263238" stroke-miterlimit="10"/><rect x="208.03" y="239.54" width="7.51" height="20.09" transform="translate(423.57 499.17) rotate(180)" fill="#fff" stroke="#263238" stroke-miterlimit="10"/><polygon points="235.82 282.55 188.85 282.55 188.85 325.74 236.89 325.74 235.82 282.55" fill="#ffce32" stroke="#263238" stroke-miterlimit="10"/><rect x="188.85" y="282.55" width="35.9" height="43.19" transform="translate(413.59 608.3) rotate(180)" fill="#ffce32" stroke="#263238" stroke-miterlimit="10"/><rect x="203.04" y="282.55" width="7.51" height="20.09" transform="translate(413.59 585.19) rotate(180)" fill="#fff" stroke="#263238" stroke-miterlimit="10"/><rect x="135.11" y="236.85" width="55.17" height="40.03" transform="translate(325.4 513.74) rotate(180)" fill="#3b4eff" stroke="#263238" stroke-miterlimit="10"/><rect x="135.11" y="236.85" width="33.27" height="40.03" transform="translate(303.5 513.74) rotate(180)" fill="#3b4eff" stroke="#263238" stroke-miterlimit="10"/><rect x="148.27" y="236.85" width="6.96" height="18.62" transform="translate(303.5 492.32) rotate(180)" fill="#fff" stroke="#263238" stroke-miterlimit="10"/><path d="m101.83,236.33s-.51,1.62.3,3.86c.81,2.23,2.13,6.09,2.94,7.31.81,1.22.61,2.94.61,2.94l11.37,5.28s.2-4.26.61-4.47c.41-.2,3.55-.2,4.26-1.32.71-1.12-.1-6.7-.1-6.7,0,0,.61-.61.71-1.22.1-.61-1.52-2.03-1.32-3.15.2-1.12.71-2.33-.1-3.96-.81-1.62-3.2-5.55-6.96-6.77-3.75-1.22-7.8.19-9.42,1.92-1.62,1.73-3,3.74-2.9,6.27Z" fill="#fff" stroke="#263238" stroke-miterlimit="10"/><path d="m118.69,237.5c.29-.41.81-1.69.81-2.56s-1.16-.99-3.08-.23c-1.54.61-10.78,3.86-14.29,5.46,0,0,0,.01,0,.02.78,2.15,2.03,5.8,2.85,7.15.31.38.57.65.74.74.93.52,3.49-.52,4.42-1.92.77-1.15,1.1-4.55,1.19-5.71.02-.25.03-.4.03-.4.35-.93,1.74-.99,2.73-.47s1.92.58,2.56.35c.64-.23.81-.93.81-1.34s.93-.7,1.22-1.1Z" fill="#263238" stroke="#263238" stroke-miterlimit="10"/><path d="m115.02,240.52s-1.4-2.03-2.62-.35c-1.22,1.69.81,4.01,1.63,4.42s1.16-.06,1.4-.7" fill="#fff" stroke="#263238" stroke-miterlimit="10"/><path d="m114.15,228.13c-3.75-1.22-7.8.19-9.42,1.92-1.62,1.73-3,3.74-2.9,6.27,0,0-.51,1.62.3,3.86.23.63.5,1.39.79,2.18l.07.02s3.43.76,7.21-1.1,9.88-5.23,10.47-6.34c.06-.12.18-.21.32-.28-.92-1.74-3.25-5.36-6.83-6.52Z" fill="#ffce32" stroke="#263238" stroke-miterlimit="10"/><path d="m118.34,236.97s4.54.12,6.98-1.1c2.44-1.22,2.03-3.49,1.57-3.66s-6.92.64-6.92.64c0,0,.52,2.56-1.63,4.13Z" fill="#ffce32" stroke="#263238" stroke-miterlimit="10"/><path d="m120.64,239.67c0,.53-.16.96-.37.96s-.37-.43-.37-.96.16-.96.37-.96.37.43.37.96Z" fill="#263238" stroke-width="0"/><path d="m118.91,257.92s-1.72-2.95-3.69-4.51-7.06-3.45-9.02-3.61c-1.97-.16-1.39.9-1.64,2.05-.25,1.15-.49,1.56.16,1.72.66.16,3.77.74,7.79,2.63,4.02,1.89,6.07,3.04,6.48,2.79.41-.25-.08-1.07-.08-1.07Z" fill="#263238" stroke="#263238" stroke-miterlimit="10"/><path d="m111.65,405.81s2.86,4.7,4.47,5.61c1.6.92,4.7,1.95,4.93,3.67s-1.83,1.6-2.86,1.6-7.79.23-8.94-.23c-1.15-.46-3.9-2.52-6.99-4.24-3.09-1.72-5.84-1.95-5.84-4.81s2.64-3.44,3.09-3.9,12.15,2.29,12.15,2.29Z" fill="#fff" stroke="#263238" stroke-miterlimit="10"/><path d="m100.88,325.83s2.86,27.04,2.98,28.42c.11,1.38-1.83,6.3-2.64,10.66-.8,4.35-1.83,16.39-1.83,16.39l.34,23.72s6.88,1.6,7.91,1.49c1.03-.11,3.67-.57,4.01-.69.34-.11,2.29-.8,2.29-.8,0,0-.46-7.91-.46-10.43s1.6-18.68,1.95-20.28c.34-1.6,4.35-25.21,4.93-37.7.57-12.49-1.49-22.92-1.49-22.92l-19.71,1.03,1.72,11.11Z" fill="#3b4eff" stroke="#263238" stroke-miterlimit="10"/><path d="m105.81,406.27s1.72,4.12,2.52,4.81c.8.69,5.84,2.64,6.07,3.55.23.92-.69,1.72-1.95,2.06-1.26.34-10.31.34-12.15-.57-1.83-.92-7.56-5.16-9.17-5.84-1.6-.69-4.24-1.6-3.55-4.47.69-2.86,4.13-5.04,4.13-5.04l14.09,5.5Z" fill="#fff" stroke="#263238" stroke-miterlimit="10"/><path d="m97.56,312.66s-1.15,5.61.57,9.97,6.53,10.2,7.33,11.34c.8,1.15-.23,14.44-.8,19.59-.57,5.16-1.49,13.86-1.49,14.21s-4.93,12.95-6.99,18.79c-2.06,5.84-5.5,14.21-5.5,14.21,0,0,4.58,3.44,6.87,4.13,2.29.69,8.25,1.38,8.25,1.38,0,0,.57-2.75,1.15-3.9.57-1.15-.11-1.6.57-4.7s8.36-19.59,11.23-24.29c2.86-4.7,4.58-13.29,5.73-17.53,1.15-4.24,1.15-21.54,1.38-27.5.23-5.96-1.72-12.72-1.72-12.72l-.57-2.18-26.01-.8Z" fill="#3b4eff" stroke="#263238" stroke-miterlimit="10"/><path d="m116.45,346.45c-.18,1.67-.41,3.41-.7,5.22" fill="none" stroke="#263238" stroke-miterlimit="10"/><path d="m114.97,315.2s-.78,1.3-.52,3.39c.26,2.08,2.08,2.87,3.13,4.17,1.04,1.3-1.04,1.82-1.56,3.39s1.04,2.87,1.04,3.91c0,.72.25,5.34-.21,11.93" fill="none" stroke="#263238" stroke-miterlimit="10"/><path d="m96.76,308.53s-.92,4.47-.11,4.93c.8.46,26.13.11,26.93,0s1.26-.23,1.38-1.26c.11-1.03-.46-3.78-.46-3.78l-27.73.11Z" fill="#263238" stroke="#263238" stroke-miterlimit="10"/><path d="m104.72,253.57s-7.71,4.68-9.6,10.75c-1.89,6.07.74,33.09.74,33.09,0,0-2.16,9.34-.14,11.21s27.74,1.44,28.89.57,2.01-2.59,2.01-4.46.57-18.25.57-27.45-4.36-15.13-6.32-17.25c-1.96-2.12-3.31-2.44-3.31-2.44,0,0-10.32-4.03-12.85-4.03Z" fill="#3b4eff" stroke="#263238" stroke-miterlimit="10"/><path d="m99.76,273.44c.5.98,1.13,2.05,1.93,3.2" fill="none" stroke="#263238" stroke-miterlimit="10"/><path d="m99.08,263.88s-1.57,1.57-.89,5.21" fill="none" stroke="#263238" stroke-miterlimit="10"/><path d="m117.26,260.23s4.8-.96,8.01.73c3.21,1.69,8.4,6.83,9.8,7.53s3.81,3.07,5.81,3.6c2,.53,5.31,1.64,5.31,1.64,0,0,9.72-.68,10.86-.77,1.14-.09,9.2.05,9.2.05,0,0,.46,1.46.6,3.17.14,1.71,0,2.87,0,2.87,0,0-2.96,1.74-3.75,1.92-.79.18-7.77,2.01-13.82,3.89-6.06,1.87-15.44.38-21.79-1.24-6.35-1.62-21.14-7.76-21.89-8.11" fill="#3b4eff" stroke="#263238" stroke-miterlimit="10"/><path d="m136.39,279.69c-1.3.39-2.64.7-3.96.86" fill="none" stroke="#263238" stroke-miterlimit="10"/><path d="m145.98,275.34s-3.03,1.91-6.96,3.44" fill="none" stroke="#263238" stroke-miterlimit="10"/><path d="m118.41,280s-4.7,8.94-10.43,12.95" fill="none" stroke="#263238" stroke-miterlimit="10"/><path d="m112.12,294.66c-1.17,1.33-2.38,2.59-3.56,3.56" fill="none" stroke="#263238" stroke-miterlimit="10"/><path d="m118.64,285.96s-2.06,3.19-4.74,6.55" fill="none" stroke="#263238" stroke-miterlimit="10"/><path d="m166.24,273s1.79-1.99,2.97-3.04c1.19-1.05,2.62-1.7,3.32-2.18.7-.48,1.15-2.75,2.17-1.98s.76,1.53.39,2.2c-.37.67-1.21,2.01-1.49,2.56l-.27.55s2.92.72,4.2.72c1.27,0,4.78.14,4.94.76s-.32,1.3-.63,1.32c-.32.03-4.64.38-4.64.38,0,0,3.56,2.04,3.59,2.36.03.32-.77.91-1.71,1.2-.93.29-2.32,1.46-3.8,1.58-1.48.12-5.74-.17-6.29-.34s-2.16-.06-2.16-.06l-.61-6.04Z" fill="#fff" stroke="#263238" stroke-miterlimit="10"/><line x1="175.65" y1="276.01" x2="179.09" y2="277.85" fill="#fff" stroke="#263238" stroke-miterlimit="10"/><line x1="174.31" y1="277.82" x2="176.51" y2="278.81" fill="#fff" stroke="#263238" stroke-miterlimit="10"/><rect x="20.71" y="361.57" width="76.42" height="55.45" transform="translate(117.83 778.59) rotate(180)" fill="#ffce32" stroke="#263238" stroke-miterlimit="10"/><rect x="20.71" y="361.57" width="46.08" height="55.45" transform="translate(87.5 778.59) rotate(180)" fill="#ffce32" stroke="#263238" stroke-miterlimit="10"/><rect x="38.93" y="361.57" width="9.65" height="25.79" transform="translate(87.5 748.93) rotate(180)" fill="#fff" stroke="#263238" stroke-miterlimit="10"/><rect x="92.03" y="107.05" width="28.65" height="29.3" fill="none" stroke="#676e7f" stroke-miterlimit="10"/><path d="m101.68,125.86h4.17c0,2.33.26,2.94,1.25,2.87.96-.07.99-1.37.99-3.81,0-1.67-.21-3.06-1.29-3.06-.73,0-1.15.49-1.32,1.79h-3.77l.45-11.2h9.11v3.51h-5.7l-.24,3.55c.24-.35,1.22-.73,2.19-.85,2.87-.4,4.59,1.88,4.59,6.21s-.66,7.04-5.34,7.04c-4.4,0-5.08-2.47-5.08-6.05Z" fill="#676e7f" stroke-width="0"/><line x1="495.57" y1="416.88" x2="-129.68" y2="416.88" fill="none" stroke="#676e7f" stroke-miterlimit="10"/><path d="m381.49,289.84s6.19-.29,9.29,2.81" fill="none" stroke="#263238" stroke-linecap="round" stroke-linejoin="round" stroke-width="6"/><path d="m443.34,402.45c0-2.51.32-4.87.88-6.95v-7.9h6.69c4.18,0,7.58,6.65,7.58,14.85s-3.39,14.85-7.58,14.85h-6.69v-7.9c-.56-2.07-.88-4.44-.88-6.95Z" fill="#263238" stroke="#263238" stroke-miterlimit="10"/><ellipse cx="444.22" cy="402.45" rx="7.58" ry="14.85" fill="#263238" stroke="#263238" stroke-miterlimit="10"/><ellipse cx="443.6" cy="402.53" rx="4.72" ry="10.23" fill="#828282" stroke="#263238" stroke-miterlimit="10"/><path d="m390.78,292.65c1.03,1.03,1.72,2.45,1.72,4.37v106.86c0,2.79,2.26,5.04,5.04,5.04h67.72" fill="none" stroke="#263238" stroke-linecap="round" stroke-linejoin="round" stroke-width="4"/><path d="m433.84,289.84s6.19-.29,9.29,2.81" fill="none" stroke="#263238" stroke-linecap="round" stroke-linejoin="round" stroke-width="6"/><path d="m443.13,292.65c1.03,1.03,1.72,2.45,1.72,4.37v111.47" fill="none" stroke="#263238" stroke-linecap="round" stroke-linejoin="round" stroke-width="4"/><line x1="393.1" y1="318.18" x2="445.29" y2="318.18" fill="none" stroke="#263238" stroke-linecap="round" stroke-linejoin="round" stroke-width="4"/><line x1="419.95" y1="317.96" x2="419.95" y2="408.27" fill="none" stroke="#263238" stroke-linecap="round" stroke-linejoin="round" stroke-width="4"/><line x1="384.9" y1="395.48" x2="392.61" y2="380.36" fill="none" stroke="#263238" stroke-linecap="round" stroke-linejoin="round" stroke-width="4"/><line x1="392.46" y1="402.43" x2="385.21" y2="402.43" fill="none" stroke="#263238" stroke-linecap="round" stroke-linejoin="round" stroke-width="4"/><path d="m372.52,402.45c0-2.51.32-4.87.88-6.95v-7.9h6.69c4.18,0,7.58,6.65,7.58,14.85s-3.39,14.85-7.58,14.85h-6.69v-7.9c-.56-2.07-.88-4.44-.88-6.95Z" fill="#263238" stroke="#263238" stroke-miterlimit="10"/><ellipse cx="373.4" cy="402.45" rx="7.58" ry="14.85" fill="#263238" stroke="#263238" stroke-miterlimit="10"/><path d="m368.07,402.53c0,5.65,2.11,10.23,4.72,10.23s4.72-4.58,4.72-10.23-2.11-10.23-4.72-10.23-4.72,4.58-4.72,10.23Z" fill="#fff" stroke="#263238" stroke-miterlimit="10"/><rect x="401.08" y="352" width="62" height="55.45" fill="#ffce32" stroke="#263238" stroke-miterlimit="10"/><rect x="425.69" y="352" width="37.39" height="55.45" fill="#ffce32" stroke="#263238" stroke-miterlimit="10"/><rect x="440.47" y="352" width="7.82" height="25.79" fill="#fff" stroke="#263238" stroke-miterlimit="10"/></g></svg>