<?xml version="1.0" standalone="no"?>
<!DOCTYPE svg PUBLIC "-//W3C//DTD SVG 20010904//EN"
 "http://www.w3.org/TR/2001/REC-SVG-20010904/DTD/svg10.dtd">
<svg version="1.0" xmlns="http://www.w3.org/2000/svg"
 width="500.000000pt" height="500.000000pt" viewBox="0 0 500.000000 500.000000"
 preserveAspectRatio="xMidYMid meet">
<metadata>
Created by potrace 1.14, written by Peter Selinger 2001-2017
</metadata>
<g transform="translate(0.000000,500.000000) scale(0.100000,-0.100000)"
fill="#000000" stroke="none">
<path d="M1240 4428 c-163 -18 -318 -95 -433 -213 -89 -91 -165 -252 -188
-399 -6 -34 -12 -72 -14 -86 -16 -92 -24 -2061 -10 -2345 7 -141 23 -227 61
-321 58 -145 122 -229 244 -321 130 -97 253 -139 420 -143 93 -2 684 -2 815 0
28 0 74 -1 103 -2 28 -2 52 -1 52 2 0 3 21 4 47 2 50 -2 121 -2 211 1 28 1 52
-1 52 -6 0 -4 8 -4 18 1 9 4 42 7 72 5 81 -4 103 -4 127 1 13 3 25 0 28 -5 4
-5 12 -6 18 -2 16 10 148 11 168 1 9 -4 19 -5 22 -1 4 3 134 7 289 8 156 2
303 6 328 10 141 21 288 105 400 228 42 46 98 145 131 231 60 155 59 145 55
1431 -2 644 -6 1188 -9 1210 -35 244 -72 343 -179 475 -66 81 -202 171 -312
206 -43 13 -81 22 -84 20 -2 -3 -14 0 -26 7 -16 9 -297 12 -1181 12 -638 1
-1189 -3 -1225 -7z"/>
</g>
</svg>
