<svg xmlns="http://www.w3.org/2000/svg" width="2000" height="2000" fill="none" viewBox="0 0 2000 2000" id="options-trading-platforms"><path fill="#4EB854" d="M715.982 685.06L664.554 623.17C659.272 616.814 660.127 607.382 666.465 602.079L999.179 323.698C1007.7 316.571 1020.19 316.911 1028.31 324.49L1229.7 512.496C1230.44 513.187 1231.58 513.215 1232.35 512.561L1540.34 252.149C1541.3 251.343 1541.29 249.871 1540.32 249.078L1481.14 200.347C1479.8 199.247 1480.4 197.084 1482.11 196.825L1689.79 165.398C1691.11 165.199 1692.25 166.317 1692.07 167.637L1667.24 356.221C1667.03 357.815 1665.13 358.523 1663.93 357.45L1613.6 312.396C1612.84 311.723 1611.71 311.715 1610.95 312.377L1233.88 640.218C1225.56 647.454 1213.05 647.019 1205.25 639.22L1015.41 449.405C1014.67 448.664 1013.48 448.62 1012.69 449.305L737.316 686.832C730.962 692.313 721.346 691.515 715.982 685.06Z"></path><path fill="#36D379" d="M1012.73 449.268L736.974 687.126C730.807 692.446 721.476 691.671 716.271 685.407L997.765 445.884C1007.7 437.428 1022.47 438.038 1031.68 447.284L1205.93 622.259C1209.53 625.875 1214.43 627.908 1219.53 627.908C1224.09 627.908 1228.51 626.281 1231.98 623.32L1604.68 305.518C1609.73 301.213 1617.21 301.401 1622.04 305.954L1655.4 337.427C1657.73 339.627 1661.58 338.327 1662.09 335.163L1689.63 166.823C1689.77 165.966 1690.54 165.211 1691.25 165.702C1691.83 166.097 1692.18 166.792 1692.08 167.558L1667.23 356.332C1667.03 357.878 1665.17 358.565 1664.01 357.524L1613.56 312.36C1612.83 311.708 1611.73 311.7 1610.99 312.342L1233.44 640.597C1225.36 647.62 1213.23 647.197 1205.66 639.629L1015.37 449.365C1014.65 448.647 1013.5 448.604 1012.73 449.268Z"></path><path fill="#12AA53" d="M1540.38 249.123L1481.03 200.263C1479.78 199.228 1480.28 197.223 1481.83 196.874C1481.93 196.851 1482.03 196.846 1482.13 196.846H1496.39L1555.57 240.817C1561.27 245.055 1561.52 253.507 1556.08 258.074L1235.88 526.682C1232.38 529.618 1227.23 529.466 1223.91 526.327L1033.76 346.581C1028.74 341.84 1022.1 339.198 1015.2 339.198C1008.83 339.198 1002.66 341.45 997.791 345.556L666.127 625.063L664.272 622.831C659.146 616.662 659.975 607.51 666.127 602.363L999.62 323.33C1007.89 316.414 1020.01 316.743 1027.89 324.098L1229.74 512.532C1230.45 513.203 1231.56 513.23 1232.31 512.595L1540.4 252.104C1541.32 251.322 1541.31 249.893 1540.38 249.123Z"></path><path fill="#24396B" fill-rule="evenodd" d="M1689.19 161.443C1693.14 160.846 1696.56 164.2 1696.04 168.159L1671.21 356.744C1670.58 361.525 1664.85 363.647 1661.26 360.431L1612.24 316.553L1236.5 643.236C1226.59 651.852 1211.71 651.333 1202.42 642.049L1013.89 453.547L739.929 689.861C731.88 696.804 719.7 695.793 712.906 687.617L661.478 625.726C654.787 617.675 655.87 605.729 663.898 599.011L996.613 320.631C1006.68 312.208 1021.45 312.609 1031.04 321.566L1231.13 508.359L1535.93 250.642L1478.59 203.435C1474.58 200.135 1476.38 193.647 1481.51 192.871L1689.19 161.443ZM1687.76 169.751L1487.14 200.109L1542.87 245.99C1545.76 248.37 1545.79 252.786 1542.93 255.204L1234.94 515.616C1232.61 517.579 1229.19 517.495 1226.97 515.42L1025.58 327.414C1018.94 321.213 1008.72 320.935 1001.75 326.766L669.032 605.147C664.384 609.036 663.757 615.952 667.631 620.614L719.059 682.504C722.992 687.237 730.044 687.823 734.704 683.803L1010.08 446.276C1012.45 444.223 1016.01 444.354 1018.24 446.576L1208.08 636.392C1214.39 642.705 1224.52 643.057 1231.25 637.199L1608.32 309.358C1610.61 307.374 1614.01 307.399 1616.26 309.416L1663.77 351.944L1687.76 169.751Z" clip-rule="evenodd"></path><path fill="#A56CFE" d="M114.516 164.442C114.516 128.852 143.368 100 178.958 100H630.052C665.642 100 694.494 128.852 694.494 164.442V1002.19C694.494 1037.78 665.642 1066.63 630.052 1066.63H178.958C143.368 1066.63 114.516 1037.78 114.516 1002.19V164.442Z"></path><path fill="#854CDE" d="M694.494 1002.19V164.442C694.494 128.852 665.642 100 630.052 100L652.16 120.291C668.05 134.875 677.094 155.453 677.094 177.02V1000.2C677.094 1017.39 669.473 1033.69 656.285 1044.71L630.052 1066.63C665.642 1066.63 694.494 1037.78 694.494 1002.19Z"></path><path fill="#fff" d="M190.235 128.999H267.565C268.455 128.999 269.176 129.72 269.176 130.61V137.054C269.176 149.511 279.274 159.609 291.731 159.609H515.667C528.124 159.609 538.222 149.511 538.222 137.054V130.61C538.222 129.72 538.943 128.999 539.833 128.999H617.163C638.517 128.999 655.828 146.096 655.828 167.187V992.521C655.828 1013.88 638.517 1031.19 617.163 1031.19H190.235C168.881 1031.19 151.57 1013.88 151.57 992.521V167.187C151.57 146.096 168.881 128.999 190.235 128.999Z"></path><path fill="#CFDDEA" d="M190.235 128.999H267.565C268.455 128.999 269.176 129.72 269.176 130.61V137.054C269.176 149.511 279.274 159.609 291.731 159.609L266.204 161.698C260.719 162.146 255.903 158.079 255.426 152.597L255.404 152.34C255.176 149.721 252.958 147.725 250.329 147.774L199.339 148.728C190.909 148.885 182.976 152.748 177.654 159.287C173.495 164.397 171.225 170.784 171.225 177.372V978.337C171.225 987.669 173.366 996.876 177.483 1005.25L190.235 1031.19C168.881 1031.19 151.57 1013.88 151.57 992.521V167.187C151.57 146.096 168.881 128.999 190.235 128.999Z"></path><path fill="#24396B" fill-rule="evenodd" d="M110.516 164.442C110.516 126.643 141.159 96 178.958 96H630.052C667.851 96 698.494 126.643 698.494 164.442V1002.19C698.494 1039.99 667.851 1070.63 630.052 1070.63H178.958C141.159 1070.63 110.516 1039.99 110.516 1002.19V164.442ZM178.958 104C145.577 104 118.516 131.061 118.516 164.442V1002.19C118.516 1035.57 145.577 1062.63 178.958 1062.63H630.052C663.433 1062.63 690.494 1035.57 690.494 1002.19V164.442C690.494 131.061 663.433 104 630.052 104H178.958Z" clip-rule="evenodd"></path><path fill="#24396B" fill-rule="evenodd" d="M147.571 167.187C147.571 143.84 166.72 124.999 190.236 124.999H267.567C270.666 124.999 273.178 127.511 273.178 130.61V137.054C273.178 147.302 281.485 155.609 291.733 155.609H515.668C525.916 155.609 534.223 147.302 534.223 137.054V130.61C534.223 127.511 536.735 124.999 539.834 124.999H617.164C640.681 124.999 659.83 143.84 659.83 167.187V992.521C659.83 1016.08 640.728 1035.19 617.164 1035.19H190.236C166.673 1035.19 147.571 1016.08 147.571 992.521V167.187ZM190.236 132.999C171.044 132.999 155.571 148.352 155.571 167.187V992.521C155.571 1011.67 171.091 1027.19 190.236 1027.19H617.164C636.31 1027.19 651.83 1011.67 651.83 992.521V167.187C651.83 148.352 636.357 132.999 617.164 132.999H542.223V137.054C542.223 151.72 530.334 163.609 515.668 163.609H291.733C277.067 163.609 265.178 151.72 265.178 137.054V132.999H190.236Z" clip-rule="evenodd"></path><path fill="#24396B" d="M352.952 128.999C352.952 126.33 355.116 124.166 357.785 124.166H449.615C452.284 124.166 454.448 126.33 454.448 128.999 454.448 131.668 452.284 133.832 449.615 133.832H357.785C355.116 133.832 352.952 131.668 352.952 128.999zM485.058 128.999C485.058 126.33 482.894 124.166 480.224 124.166H470.558C467.889 124.166 465.725 126.33 465.725 128.999 465.725 131.668 467.889 133.832 470.558 133.832H480.224C482.894 133.832 485.058 131.668 485.058 128.999z"></path><path fill="#24396B" fill-rule="evenodd" d="M324.587 556.279V309.889H316.587V556.279H324.587zM236.633 687.786V441.396H228.633V687.786H236.633zM409.128 576.87V405.702H401.128V576.87H409.128zM488.034 478.006V303H480.034V478.006H488.034zM582.595 439.749V309.262H574.595V439.749H582.595z" clip-rule="evenodd"></path><path fill="#1EBC61" d="M349.755 355.942C349.755 352.551 347.006 349.802 343.614 349.802H297.56C294.169 349.802 291.42 352.551 291.42 355.942V509.456C291.42 512.848 294.169 515.597 297.56 515.597H343.614C347.006 515.597 349.755 512.848 349.755 509.456V355.942Z"></path><path fill="#36D379" d="M299.03 356.091C299.03 352.709 298.676 349.968 298.239 349.968H292.307C291.87 349.968 291.516 352.709 291.516 356.091V509.17C291.516 512.551 291.87 515.293 292.307 515.293H298.239C298.676 515.293 299.03 512.551 299.03 509.17V356.091Z"></path><path fill="#12AA53" d="M343.614 515.597H297.56C294.169 515.597 291.42 512.848 291.42 509.456V508.403H336.301C339.062 508.403 341.301 506.164 341.301 503.403V349.802H343.614C347.006 349.802 349.755 352.551 349.755 355.942V509.456C349.755 512.848 347.006 515.597 343.614 515.597Z"></path><path fill="#24396B" fill-rule="evenodd" d="M353.755 355.942C353.755 350.342 349.215 345.802 343.614 345.802H297.56C291.96 345.802 287.42 350.342 287.42 355.942V509.456C287.42 515.057 291.96 519.597 297.56 519.597H343.614C349.215 519.597 353.755 515.057 353.755 509.456V355.942ZM343.614 353.802C344.797 353.802 345.755 354.76 345.755 355.942V509.456C345.755 510.638 344.797 511.597 343.614 511.597H297.56C296.378 511.597 295.42 510.638 295.42 509.456V355.942C295.42 354.76 296.378 353.802 297.56 353.802H343.614Z" clip-rule="evenodd"></path><path fill="#FB122B" d="M263.335 487.452C263.335 484.061 260.586 481.312 257.195 481.312H211.141C207.749 481.312 205 484.061 205 487.452V570.35C205 573.741 207.749 576.49 211.141 576.49H257.195C260.586 576.49 263.335 573.741 263.335 570.35V487.452Z"></path><path fill="#F8B6BF" d="M213.863 487.617C213.863 484.225 213.45 481.476 212.94 481.476H206.018C205.509 481.476 205.096 484.225 205.096 487.617V570.522C205.096 573.913 205.509 576.663 206.018 576.663H212.94C213.45 576.663 213.863 573.913 213.863 570.522V487.617Z"></path><path fill="#C11535" d="M257.195 576.49H211.141C207.749 576.49 205 571.862 205 568.471H250.568C252.777 568.471 254.568 566.68 254.568 564.471V481.312H257.195C260.586 481.312 263.335 484.061 263.335 487.452V570.35C263.335 573.741 260.586 576.49 257.195 576.49Z"></path><path fill="#24396B" fill-rule="evenodd" d="M267.335 487.452C267.335 481.852 262.795 477.312 257.195 477.312H211.141C205.54 477.312 201 481.852 201 487.452V570.35C201 575.95 205.54 580.49 211.141 580.49H257.195C262.795 580.49 267.335 575.95 267.335 570.35V487.452ZM257.195 485.312C258.377 485.312 259.335 486.27 259.335 487.452V570.35C259.335 571.532 258.377 572.49 257.195 572.49H211.141C209.959 572.49 209 571.532 209 570.35V487.452C209 486.27 209.959 485.312 211.141 485.312H257.195Z" clip-rule="evenodd"></path><path fill="#FB122B" d="M434.296 436.747C434.296 434.863 431.547 433.336 428.156 433.336H382.102C378.71 433.336 375.961 434.863 375.961 436.747V503.611C375.961 505.495 378.71 507.023 382.102 507.023H428.156C431.547 507.023 434.296 505.495 434.296 503.611V436.747Z"></path><path fill="#F8B6BF" d="M383.571 436.677C383.571 434.788 383.217 433.256 382.78 433.256H376.848C376.411 433.256 376.057 434.788 376.057 436.677V503.73C376.057 505.619 376.411 507.151 376.848 507.151H382.78C383.217 507.151 383.571 505.619 383.571 503.73V436.677Z"></path><path fill="#C11535" d="M428.156 507.023H382.102C378.71 507.023 375.961 505.495 375.961 503.611V501.203H425.156C426.813 501.203 428.156 499.86 428.156 498.203V433.336C431.547 433.336 434.296 434.863 434.296 436.747V503.611C434.296 505.495 431.547 507.023 428.156 507.023Z"></path><path fill="#24396B" fill-rule="evenodd" d="M434.44 430.838C432.63 429.833 430.4 429.336 428.156 429.336H382.102C379.857 429.336 377.627 429.833 375.817 430.838C374.142 431.769 371.961 433.693 371.961 436.747V503.611C371.961 506.666 374.142 508.59 375.817 509.52C377.627 510.526 379.857 511.023 382.102 511.023H428.156C430.4 511.023 432.63 510.526 434.44 509.52C436.115 508.59 438.296 506.666 438.296 503.611V436.747C438.296 433.693 436.115 431.769 434.44 430.838ZM430.296 437.708V502.65C429.835 502.842 429.099 503.023 428.156 503.023H382.102C381.158 503.023 380.422 502.842 379.961 502.65V437.708C380.422 437.517 381.158 437.336 382.102 437.336H428.156C429.099 437.336 429.835 437.517 430.296 437.708Z" clip-rule="evenodd"></path><path fill="#1EBC61" d="M513.202 330.974C513.202 329.09 510.452 327.562 507.061 327.562H461.007C457.616 327.562 454.866 329.09 454.866 330.974V443.892C454.866 445.776 457.616 447.303 461.007 447.303H507.061C510.452 447.303 513.202 445.776 513.202 443.892V330.974Z"></path><path fill="#36D379" d="M461.224 330.831C461.224 328.949 460.929 327.423 460.565 327.423H455.621C455.257 327.423 454.962 328.949 454.962 330.831V443.625C454.962 445.507 455.257 447.033 455.621 447.033H460.565C460.929 447.033 461.224 445.507 461.224 443.625V330.831Z"></path><path fill="#12AA53" d="M507.061 447.303H461.007C457.616 447.303 454.866 445.776 454.866 443.892V440.458H502.061C504.823 440.458 507.061 438.22 507.061 435.458L507.061 327.562C510.452 327.562 513.202 329.09 513.202 330.974V443.892C513.202 445.776 510.452 447.303 507.061 447.303Z"></path><path fill="#24396B" fill-rule="evenodd" d="M513.346 325.065C511.535 324.059 509.306 323.562 507.061 323.562H461.007C458.762 323.562 456.533 324.059 454.722 325.065C453.048 325.995 450.866 327.92 450.866 330.974V443.892C450.866 446.946 453.048 448.87 454.722 449.801C456.533 450.806 458.762 451.303 461.007 451.303H507.061C509.306 451.303 511.535 450.806 513.346 449.801C515.02 448.87 517.202 446.946 517.202 443.892V330.974C517.202 327.92 515.02 325.995 513.346 325.065ZM509.202 331.935V442.931C508.741 443.123 508.005 443.303 507.061 443.303H461.007C460.063 443.303 459.327 443.123 458.866 442.931V331.935C459.327 331.743 460.063 331.562 461.007 331.562H507.061C508.005 331.562 508.741 331.743 509.202 331.935Z" clip-rule="evenodd"></path><path fill="#FB122B" d="M607.762 335.7C607.762 333.815 605.013 332.288 601.622 332.288H555.567C552.176 332.288 549.427 333.815 549.427 335.7V393.353C549.427 395.237 552.176 396.764 555.567 396.764H601.622C605.013 396.764 607.762 395.237 607.762 393.353V335.7Z"></path><path fill="#F8B6BF" d="M557.038 335.845C557.038 333.961 556.683 332.433 556.247 332.433H550.314C549.877 332.433 549.523 333.961 549.523 335.845V393.522C549.523 395.406 549.877 396.934 550.314 396.934H556.247C556.683 396.934 557.038 395.406 557.038 393.522V335.845Z"></path><path fill="#C11535" d="M601.622 396.764H555.567C552.176 396.764 549.427 395.237 549.427 393.353L549.427 390.045H596.633C598.814 390.045 600.593 388.299 600.633 386.119L601.622 332.288C605.013 332.288 607.762 333.815 607.762 335.7V393.353C607.762 395.237 605.013 396.764 601.622 396.764Z"></path><path fill="#24396B" fill-rule="evenodd" d="M607.906 329.791C606.096 328.785 603.866 328.288 601.622 328.288H555.567C553.323 328.288 551.093 328.785 549.283 329.791C547.608 330.721 545.427 332.645 545.427 335.7V393.353C545.427 396.407 547.608 398.331 549.283 399.261C551.093 400.267 553.323 400.764 555.567 400.764H601.622C603.866 400.764 606.096 400.267 607.906 399.261C609.581 398.331 611.762 396.407 611.762 393.353V335.7C611.762 332.645 609.581 330.721 607.906 329.791ZM603.762 336.66V392.392C603.301 392.583 602.565 392.764 601.622 392.764H555.567C554.624 392.764 553.888 392.583 553.427 392.392V336.66C553.888 336.469 554.624 336.288 555.567 336.288H601.622C602.565 336.288 603.301 336.469 603.762 336.66Z" clip-rule="evenodd"></path><path fill="#BC90FF" d="M133.879 505.577L136.847 699.418C127.842 636.61 121.598 572.689 132.016 505.441 132.201 504.245 133.86 504.366 133.879 505.577zM501.487 1051.87L352.951 1053.81C401.13 1047.01 450.147 1042.3 501.625 1050.04 502.823 1050.22 502.697 1051.85 501.487 1051.87z"></path><path fill="#A56CFE" d="M373.678 1494.45H1627.37C1634.94 1494.45 1641.99 1492.19 1647.86 1488.31L1878.86 1682.71C1893.55 1695.07 1899.45 1715 1893.86 1733.36C1887.72 1753.56 1869.09 1767.36 1847.98 1767.36H151.326C131.112 1767.36 113.129 1754.52 106.566 1735.4C100.259 1717.02 105.821 1696.66 120.593 1684.05L351.324 1487C357.551 1491.68 365.291 1494.45 373.678 1494.45Z"></path><path fill="#854CDE" d="M351.324 1487C357.551 1491.68 365.291 1494.45 373.678 1494.45L147.787 1686.39C133.383 1698.63 133.045 1720.75 147.069 1733.43C152.817 1738.62 160.29 1741.5 168.039 1741.5H1891.5C1882.5 1758.5 1868.37 1767.36 1847.98 1767.36H151.326C131.112 1767.36 113.129 1754.52 106.566 1735.4C100.259 1717.02 105.821 1696.66 120.593 1684.05L351.324 1487Z"></path><path fill="#D0F500" d="M1847.98 1767.36H151.325C131.111 1767.36 113.128 1754.52 106.565 1735.4C97.9772 1767.36 117.537 1801.82 139.891 1801.82H1855.57C1887.24 1801.82 1899.35 1759.9 1893.86 1733.36C1887.71 1753.56 1869.09 1767.36 1847.98 1767.36Z"></path><path fill="#B8D802" d="M1855.57 1801.82H139.893C132.026 1801.82 124.506 1797.55 118.436 1790.63H1880.21C1874 1797.44 1865.81 1801.82 1855.57 1801.82Z"></path><path fill="#D0F500" d="M336.421 734.407C336.421 713.831 353.101 697.15 373.678 697.15H1627.37C1647.95 697.15 1664.63 713.831 1664.63 734.407V1457.19C1664.63 1470.2 1657.97 1481.65 1647.86 1488.31C1641.99 1492.19 1634.94 1494.45 1627.37 1494.45H373.678C365.291 1494.45 357.55 1491.68 351.324 1487C342.274 1480.2 336.421 1469.38 336.421 1457.19V734.407Z"></path><path fill="#B8D802" d="M1627.37 697.15H373.677C353.1 697.15 336.42 713.831 336.42 734.407V1457.19C336.42 1469.38 342.273 1480.2 351.323 1487V741.53C351.323 727.171 362.963 715.53 377.323 715.53H1659.5C1653.02 704.531 1641.06 697.15 1627.37 697.15Z"></path><path fill="#24396B" fill-rule="evenodd" d="M332.422 734.407C332.422 711.622 350.893 693.15 373.678 693.15H1627.37C1650.16 693.15 1668.63 711.622 1668.63 734.407V1457.19C1668.63 1469.7 1663.06 1480.91 1654.27 1488.48L1881.44 1679.65C1897.09 1692.82 1903.53 1713.93 1897.97 1733.55C1900.61 1747.49 1898.79 1764.97 1892.29 1779.2C1885.61 1793.82 1873.54 1805.82 1855.57 1805.82H139.893C126.594 1805.82 115.03 1795.7 108.084 1782.45C101.21 1769.34 98.2626 1752.2 102.4 1735.53C96.1801 1715.92 102.285 1694.42 117.996 1681L345.16 1487C337.315 1479.5 332.422 1468.92 332.422 1457.19V734.407ZM351.583 1492.04L123.191 1687.09C109.667 1698.64 104.575 1717.28 110.35 1734.1C116.358 1751.6 132.821 1763.36 151.326 1763.36H1847.98C1867.33 1763.36 1884.4 1750.71 1890.03 1732.2C1895.16 1715.37 1889.75 1697.1 1876.29 1685.77L1647.49 1493.22C1641.53 1496.55 1634.67 1498.45 1627.37 1498.45H373.678C365.555 1498.45 357.972 1496.1 351.583 1492.04ZM108.568 1748.43C108.043 1759.4 110.632 1770.08 115.169 1778.73C121.444 1790.7 130.837 1797.82 139.893 1797.82H1855.57C1869.27 1797.82 1879.09 1788.85 1885.01 1775.88C1888.87 1767.43 1890.88 1757.62 1891.12 1748.37C1881.65 1762.47 1865.61 1771.36 1847.98 1771.36H151.326C133.855 1771.36 117.921 1762.51 108.568 1748.43ZM373.678 701.15C355.311 701.15 340.422 716.04 340.422 734.407V1457.19C340.422 1468.07 345.64 1477.73 353.727 1483.8C359.284 1487.98 366.187 1490.45 373.678 1490.45H1627.37C1634.14 1490.45 1640.42 1488.43 1645.66 1484.97C1654.69 1479.02 1660.63 1468.8 1660.63 1457.19V734.407C1660.63 716.04 1645.74 701.15 1627.37 701.15H373.678Z" clip-rule="evenodd"></path><path fill="#fff" d="M371.817 756.762C371.817 752.647 375.153 749.311 379.269 749.311H1621.79C1625.9 749.311 1629.24 752.647 1629.24 756.762V1453.47C1629.24 1457.58 1625.9 1460.92 1621.79 1460.92H379.269C375.154 1460.92 371.817 1457.58 371.817 1453.47V756.762Z"></path><path fill="#CFDDEA" d="M1629.24 1453.47V756.762C1629.24 752.647 1625.9 749.311 1621.79 749.311H1604.5V1422.5C1604.5 1432.99 1595.99 1441.5 1585.5 1441.5H371.816V1453.47C371.816 1457.58 375.153 1460.92 379.268 1460.92H1621.79C1625.9 1460.92 1629.24 1457.58 1629.24 1453.47Z"></path><path fill="#24396B" fill-rule="evenodd" d="M367.817 756.762C367.817 750.438 372.944 745.311 379.269 745.311H1621.79C1628.11 745.311 1633.24 750.438 1633.24 756.762V1453.47C1633.24 1459.79 1628.11 1464.92 1621.79 1464.92H379.269C372.944 1464.92 367.817 1459.79 367.817 1453.47V756.762ZM379.269 753.311C377.363 753.311 375.817 754.856 375.817 756.762V1453.47C375.817 1455.37 377.363 1456.92 379.269 1456.92H1621.79C1623.69 1456.92 1625.24 1455.37 1625.24 1453.47V756.762C1625.24 754.856 1623.69 753.311 1621.79 753.311H379.269Z" clip-rule="evenodd"></path><path fill="#24396B" d="M1015.9 723.532C1015.9 732.054 1008.99 738.963 1000.47 738.963C991.946 738.963 985.037 732.054 985.037 723.532C985.037 715.01 991.946 708.102 1000.47 708.102C1008.99 708.102 1015.9 715.01 1015.9 723.532Z"></path><path fill="#fff" d="M1007.93 723.532C1007.93 727.655 1004.59 730.998 1000.47 730.998 996.345 730.998 993.002 727.655 993.002 723.532 993.002 719.408 996.345 716.065 1000.47 716.065 1004.59 716.065 1007.93 719.408 1007.93 723.532zM711.099 1727.6L732.279 1699.24 772.976 1644.74C774.36 1642.89 776.527 1641.79 778.84 1641.75L892.735 1640.13 948.615 1639.34 1052.92 1637.85 1223.05 1635.43C1225.45 1635.4 1227.71 1636.51 1229.14 1638.44L1263.85 1685.15 1289.41 1719.55C1293.03 1724.43 1289.61 1731.36 1283.53 1731.45L1169.79 1733.07 806.569 1738.24 717.175 1739.51C710.993 1739.6 707.399 1732.55 711.099 1727.6z"></path><path fill="#CFDDEA" d="M1223.05 1635.43C1225.45 1635.4 1227.71 1636.52 1229.14 1638.44L1263.85 1685.15 1169.79 1733.07 806.568 1738.24 1052.92 1637.85 1223.05 1635.43zM711.098 1727.6L948.615 1639.34 892.735 1640.13 732.279 1699.24 711.098 1727.6z"></path><path fill="#24396B" fill-rule="evenodd" d="M778.897 1645.75C777.826 1645.77 776.822 1646.28 776.181 1647.14L714.304 1729.99C712.59 1732.29 714.255 1735.55 717.118 1735.51L1283.48 1727.45C1286.29 1727.41 1287.88 1724.2 1286.2 1721.94L1225.93 1640.82C1225.27 1639.93 1224.22 1639.41 1223.11 1639.43L778.897 1645.75ZM769.772 1642.35C771.899 1639.5 775.229 1637.8 778.784 1637.75L1223 1631.43C1226.68 1631.38 1230.16 1633.1 1232.35 1636.05L1292.62 1717.17C1298.19 1724.66 1292.93 1735.31 1283.59 1735.45L717.232 1743.51C707.732 1743.64 702.209 1732.82 707.894 1725.21L769.772 1642.35Z" clip-rule="evenodd"></path><path fill="#24396B" d="M287.795 1614.6H390.02C390.292 1614.6 390.553 1614.49 390.741 1614.3L407.448 1596.91C408.059 1596.27 407.608 1595.21 406.727 1595.21H307.06C306.812 1595.21 306.573 1595.31 306.389 1595.47L287.125 1612.86C286.446 1613.47 286.88 1614.6 287.795 1614.6zM479.378 1519.6H390.831C390.583 1519.6 390.344 1519.69 390.161 1519.86L370.707 1537.42C370.027 1538.03 370.461 1539.16 371.377 1539.16H462.507C462.779 1539.16 463.039 1539.05 463.228 1538.85L480.099 1521.29C480.71 1520.65 480.259 1519.6 479.378 1519.6zM317.867 1587.46H416.1C416.372 1587.46 416.632 1587.35 416.821 1587.15L431.775 1571.59C432.385 1570.95 431.935 1569.89 431.054 1569.89H335.11C334.862 1569.89 334.623 1569.99 334.44 1570.15L317.197 1585.72C316.517 1586.33 316.951 1587.46 317.867 1587.46zM440.91 1561.64H346.475C345.559 1561.64 345.125 1560.51 345.805 1559.89L360.089 1547C360.273 1546.83 360.511 1546.74 360.759 1546.74H453.298C454.179 1546.74 454.63 1547.8 454.019 1548.43L441.631 1561.33C441.443 1561.52 441.182 1561.64 440.91 1561.64zM406.666 1614.6H511.972C512.281 1614.6 512.573 1614.46 512.763 1614.22L526.23 1596.83C526.739 1596.17 526.271 1595.21 525.44 1595.21H422.35C422.067 1595.21 421.797 1595.33 421.607 1595.54L405.923 1612.93C405.343 1613.58 405.8 1614.6 406.666 1614.6zM490.553 1519.6H586.045 596.29 687.67C688.446 1519.6 688.926 1520.44 688.528 1521.11L678.026 1538.67C677.846 1538.97 677.52 1539.16 677.168 1539.16H583.533C582.707 1539.16 582.237 1538.21 582.734 1537.56L596.29 1519.6H586.045L571.196 1538.77C571.006 1539.01 570.714 1539.16 570.405 1539.16H474.715C473.848 1539.16 473.392 1538.13 473.972 1537.49L489.81 1519.93C490 1519.72 490.27 1519.6 490.553 1519.6zM525.781 1613L538.908 1595.61C539.096 1595.36 539.392 1595.21 539.706 1595.21H642.448C643.225 1595.21 643.705 1596.06 643.306 1596.73L632.907 1614.12C632.727 1614.42 632.401 1614.6 632.049 1614.6H526.579C525.753 1614.6 525.283 1613.66 525.781 1613zM1713.02 1612.86L1693.93 1595.47C1693.74 1595.31 1693.5 1595.21 1693.25 1595.21H1589.26C1588.39 1595.21 1587.93 1596.26 1588.53 1596.9L1604.73 1614.28C1604.91 1614.49 1605.18 1614.6 1605.46 1614.6H1712.35C1713.26 1614.6 1713.7 1613.48 1713.02 1612.86zM444.445 1570.22L430.407 1585.79C429.826 1586.43 430.283 1587.46 431.149 1587.46H532.996C533.305 1587.46 533.597 1587.32 533.786 1587.07L545.841 1571.51C546.35 1570.85 545.881 1569.89 545.05 1569.89H445.187C444.904 1569.89 444.634 1570.01 444.445 1570.22zM1683.21 1585.72L1666.12 1570.16C1665.94 1569.99 1665.7 1569.89 1665.45 1569.89H1565.68C1564.81 1569.89 1564.35 1570.94 1564.95 1571.58L1579.44 1587.14C1579.63 1587.34 1579.9 1587.46 1580.18 1587.46H1682.54C1683.45 1587.46 1683.89 1586.33 1683.21 1585.72zM552.996 1561.64H454.441C453.574 1561.64 453.118 1560.61 453.698 1559.97L465.327 1547.07C465.517 1546.86 465.787 1546.74 466.07 1546.74H562.982C563.813 1546.74 564.281 1547.7 563.773 1548.35L553.786 1561.25C553.597 1561.49 553.305 1561.64 552.996 1561.64zM546.272 1585.86L558.021 1570.29C558.21 1570.04 558.506 1569.89 558.819 1569.89H657.59C658.367 1569.89 658.847 1570.74 658.448 1571.41L649.14 1586.97C648.96 1587.27 648.634 1587.46 648.282 1587.46H547.07C546.245 1587.46 545.775 1586.51 546.272 1585.86zM1654.86 1559.9L1640.7 1547C1640.52 1546.83 1640.28 1546.74 1640.03 1546.74H1544.12C1543.24 1546.74 1542.79 1547.78 1543.38 1548.42L1555.39 1561.32C1555.58 1561.52 1555.85 1561.64 1556.12 1561.64H1654.19C1655.1 1561.64 1655.53 1560.51 1654.86 1559.9zM1630.18 1537.42L1610.9 1519.86C1610.71 1519.69 1610.47 1519.6 1610.22 1519.6H1518.83C1517.96 1519.6 1517.51 1520.64 1518.1 1521.28L1534.46 1538.84C1534.65 1539.04 1534.91 1539.16 1535.19 1539.16H1629.5C1630.42 1539.16 1630.85 1538.03 1630.18 1537.42zM565.766 1560.03L575.499 1547.14C575.688 1546.89 575.984 1546.74 576.297 1546.74H671.436C672.213 1546.74 672.693 1547.59 672.294 1548.26L664.584 1561.15C664.403 1561.45 664.077 1561.64 663.725 1561.64H566.564C565.739 1561.64 565.269 1560.69 565.766 1560.03zM645.593 1613.1L655.651 1595.71C655.83 1595.4 656.159 1595.21 656.516 1595.21H1343.79C1344.15 1595.21 1344.48 1595.41 1344.66 1595.72L1354.55 1613.11C1354.93 1613.78 1354.45 1614.6 1353.68 1614.6H646.458C645.688 1614.6 645.207 1613.77 645.593 1613.1zM661.294 1585.96L670.296 1570.39C670.475 1570.08 670.805 1569.89 671.162 1569.89H770.881C771.578 1569.89 772.061 1570.59 771.819 1571.24L766.051 1586.81C765.906 1587.2 765.532 1587.46 765.114 1587.46H662.159C661.389 1587.46 660.908 1586.62 661.294 1585.96zM689.232 1537.66L699.39 1520.1C699.568 1519.79 699.898 1519.6 700.255 1519.6H789.521C790.217 1519.6 790.701 1520.29 790.459 1520.95L783.951 1538.51C783.806 1538.9 783.432 1539.16 783.013 1539.16H690.098C689.328 1539.16 688.847 1538.32 689.232 1537.66zM676.231 1560.13L683.689 1547.24C683.867 1546.93 684.197 1546.74 684.554 1546.74H779.462C780.158 1546.74 780.641 1547.44 780.399 1548.09L775.621 1560.98C775.476 1561.38 775.102 1561.64 774.683 1561.64H677.096C676.326 1561.64 675.845 1560.8 676.231 1560.13zM879.548 1587.46H776.542C775.851 1587.46 775.368 1586.77 775.601 1586.12L781.155 1570.56C781.297 1570.16 781.674 1569.89 782.097 1569.89H882.539C883.167 1569.89 883.64 1570.47 883.521 1571.08L880.53 1586.65C880.44 1587.12 880.028 1587.46 879.548 1587.46zM892.204 1519.6H800.046C799.623 1519.6 799.246 1519.86 799.104 1520.26L792.837 1537.82C792.605 1538.47 793.088 1539.16 793.779 1539.16H888.83C889.309 1539.16 889.721 1538.82 889.812 1538.35L893.186 1520.79C893.305 1520.17 892.832 1519.6 892.204 1519.6zM902.623 1519.6H995.871 1004.25 1097.5C1097.98 1519.6 1098.39 1519.94 1098.48 1520.41L1101.86 1537.97C1101.98 1538.59 1101.5 1539.16 1100.88 1539.16H1005.25C1004.7 1539.16 1004.25 1538.71 1004.25 1538.16V1519.6H995.871V1538.16C995.871 1538.71 995.423 1539.16 994.871 1539.16H899.249C898.621 1539.16 898.149 1538.59 898.267 1537.97L901.641 1520.41C901.732 1519.94 902.144 1519.6 902.623 1519.6zM994.871 1587.46H889.968C889.34 1587.46 888.867 1586.89 888.986 1586.27L891.977 1570.71C892.067 1570.23 892.479 1569.89 892.958 1569.89H994.871C995.423 1569.89 995.871 1570.34 995.871 1570.89V1586.46C995.871 1587.01 995.423 1587.46 994.871 1587.46zM1110.16 1587.46H1005.25C1004.7 1587.46 1004.25 1587.01 1004.25 1586.46V1570.89C1004.25 1570.34 1004.7 1569.89 1005.25 1569.89H1107.17C1107.65 1569.89 1108.06 1570.23 1108.15 1570.71L1111.14 1586.27C1111.26 1586.89 1110.78 1587.46 1110.16 1587.46zM1222.65 1587.46H1120.57C1120.09 1587.46 1119.68 1587.12 1119.59 1586.66L1116.38 1571.1C1116.25 1570.48 1116.73 1569.89 1117.36 1569.89H1217.1C1217.52 1569.89 1217.9 1570.16 1218.04 1570.56L1223.59 1586.12C1223.83 1586.77 1223.34 1587.46 1222.65 1587.46zM1199.15 1519.6H1107.01C1106.37 1519.6 1105.9 1520.18 1106.03 1520.8L1109.64 1538.36C1109.74 1538.82 1110.15 1539.16 1110.62 1539.16H1205.41C1206.11 1539.16 1206.59 1538.47 1206.36 1537.82L1200.09 1520.26C1199.95 1519.86 1199.57 1519.6 1199.15 1519.6zM1300.8 1519.6H1209.67C1208.98 1519.6 1208.49 1520.29 1208.73 1520.95L1215.24 1538.51C1215.39 1538.9 1215.76 1539.16 1216.18 1539.16H1310.78C1311.55 1539.16 1312.03 1538.33 1311.65 1537.66L1301.67 1520.1C1301.49 1519.79 1301.16 1519.6 1300.8 1519.6zM1313.34 1519.6H1405.7 1414.08 1505.85C1506.13 1519.6 1506.4 1519.71 1506.59 1519.92L1522.77 1537.48C1523.36 1538.12 1522.91 1539.16 1522.04 1539.16H1428.22C1427.89 1539.16 1427.58 1539 1427.4 1538.73L1414.08 1519.6H1405.7L1417.87 1537.6C1418.32 1538.26 1417.85 1539.16 1417.05 1539.16H1323.33C1322.97 1539.16 1322.64 1538.96 1322.46 1538.65L1312.47 1521.09C1312.09 1520.43 1312.58 1519.6 1313.34 1519.6zM1366.23 1614.6H1468.08C1468.88 1614.6 1469.36 1613.71 1468.91 1613.04L1457.15 1595.65C1456.96 1595.38 1456.65 1595.21 1456.32 1595.21H1356.34C1355.57 1595.21 1355.09 1596.04 1355.47 1596.71L1365.36 1614.1C1365.54 1614.41 1365.87 1614.6 1366.23 1614.6zM1480.73 1614.6H1591.56C1592.43 1614.6 1592.89 1613.57 1592.3 1612.93L1576.27 1595.54C1576.08 1595.33 1575.82 1595.21 1575.54 1595.21H1468.63C1467.82 1595.21 1467.35 1596.12 1467.81 1596.79L1479.91 1614.17C1480.1 1614.44 1480.41 1614.6 1480.73 1614.6zM784.816 1560.3L789.417 1547.41C789.559 1547.01 789.936 1546.74 790.359 1546.74H886.988C887.616 1546.74 888.089 1547.31 887.97 1547.93L885.493 1560.82C885.402 1561.29 884.99 1561.64 884.51 1561.64H785.758C785.066 1561.64 784.583 1560.95 784.816 1560.3zM896.425 1547.55L893.948 1560.45C893.829 1561.06 894.302 1561.64 894.93 1561.64H994.871C995.423 1561.64 995.871 1561.19 995.871 1560.64V1547.74C995.871 1547.19 995.423 1546.74 994.871 1546.74H897.407C896.928 1546.74 896.516 1547.08 896.425 1547.55zM1004.25 1547.74V1560.64C1004.25 1561.19 1004.7 1561.64 1005.25 1561.64H1105.19C1105.82 1561.64 1106.3 1561.06 1106.18 1560.45L1103.7 1547.55C1103.61 1547.08 1103.2 1546.74 1102.72 1546.74H1005.25C1004.7 1546.74 1004.25 1547.19 1004.25 1547.74zM1114.27 1560.84L1111.61 1547.94C1111.49 1547.32 1111.96 1546.74 1112.59 1546.74H1208.83C1209.26 1546.74 1209.63 1547.01 1209.78 1547.41L1214.38 1560.3C1214.61 1560.95 1214.13 1561.64 1213.44 1561.64H1115.25C1114.77 1561.64 1114.37 1561.3 1114.27 1560.84zM1223.57 1560.98L1218.79 1548.09C1218.55 1547.44 1219.04 1546.74 1219.73 1546.74H1316.23C1316.59 1546.74 1316.92 1546.94 1317.1 1547.25L1324.43 1560.14C1324.81 1560.81 1324.33 1561.64 1323.56 1561.64H1224.51C1224.09 1561.64 1223.72 1561.38 1223.57 1560.98zM1233.14 1586.81L1227.37 1571.24C1227.13 1570.59 1227.62 1569.89 1228.31 1569.89H1329.4C1329.76 1569.89 1330.09 1570.09 1330.27 1570.4L1339.12 1585.96C1339.49 1586.63 1339.01 1587.46 1338.25 1587.46H1234.08C1233.66 1587.46 1233.29 1587.2 1233.14 1586.81zM1335.24 1561.13L1327.91 1548.24C1327.53 1547.57 1328.01 1546.74 1328.78 1546.74H1423.53C1423.86 1546.74 1424.17 1546.91 1424.36 1547.18L1433.08 1560.08C1433.53 1560.74 1433.05 1561.64 1432.25 1561.64H1336.11C1335.75 1561.64 1335.42 1561.44 1335.24 1561.13zM1349.92 1586.95L1341.07 1571.39C1340.69 1570.72 1341.18 1569.89 1341.94 1569.89H1439.19C1439.52 1569.89 1439.83 1570.06 1440.02 1570.33L1450.55 1585.9C1451 1586.56 1450.52 1587.46 1449.72 1587.46H1350.79C1350.43 1587.46 1350.1 1587.27 1349.92 1586.95zM1434.07 1548.31L1443.04 1561.21C1443.23 1561.48 1443.54 1561.64 1443.86 1561.64H1542.75C1543.62 1561.64 1544.08 1560.6 1543.49 1559.96L1531.6 1547.06C1531.41 1546.86 1531.15 1546.74 1530.87 1546.74H1434.89C1434.08 1546.74 1433.61 1547.65 1434.07 1548.31zM1450.18 1571.47L1461.02 1587.03C1461.2 1587.3 1461.51 1587.46 1461.84 1587.46H1566.55C1567.42 1587.46 1567.87 1586.42 1567.28 1585.78L1552.94 1570.22C1552.75 1570.01 1552.48 1569.89 1552.2 1569.89H1451.01C1450.2 1569.89 1449.72 1570.8 1450.18 1571.47z"></path><path fill="#BC90FF" d="M174.333 1701.02L472.949 1698.06C375.968 1686.65 277.352 1679.59 174.139 1699.12C172.949 1699.35 173.123 1701.03 174.333 1701.02Z"></path><path fill="#E3FF45" d="M398.407 1476.46L684.135 1486.14C591.85 1471.16 497.823 1460.27 398.297 1474.56 397.098 1474.73 397.197 1476.42 398.407 1476.46zM1141.27 1482.11L1343.11 1481C1277.55 1472.99 1210.88 1467.88 1141.1 1480.25 1139.91 1480.46 1140.06 1482.12 1141.27 1482.11zM1642.51 1161.38L1650.49 1363.07C1656.26 1297.26 1659.1 1230.46 1644.37 1161.14 1644.12 1159.96 1642.46 1160.17 1642.51 1161.38z"></path><path fill="#BC90FF" d="M1843.13 1705.84L1658 1529.21C1725.39 1578.84 1791.25 1632.14 1844.56 1704.59C1845.28 1705.56 1844.01 1706.67 1843.13 1705.84Z"></path><path fill="#E3FF45" d="M261.889 1785.38L489.001 1789.7C414.963 1778.56 339.789 1770.78 261.748 1783.5 260.559 1783.69 260.683 1785.36 261.889 1785.38zM1668.89 1782.5L1821.33 1785.4C1771.6 1777.91 1721.11 1772.65 1668.75 1780.66 1667.56 1780.85 1667.68 1782.48 1668.89 1782.5z"></path><path fill="#24396B" fill-rule="evenodd" d="M694.582 1143.99V1081.89H702.582V1143.99H694.582zM694.582 1323.12V1296.85H702.582V1323.12H694.582zM988.737 993.52V931.421H996.737V993.52H988.737zM988.737 1251.47V1189.37H996.737V1251.47H988.737zM1133.14 926.644V812H1141.14V926.644H1133.14zM1133.14 1015.02V994.714H1141.14V1015.02H1133.14zM1282.9 926.645V845.438H1290.9V926.645H1282.9zM1282.9 1073.53V1038.9H1290.9V1073.53H1282.9zM1432.64 1012.63V950.527H1440.64V1012.63H1432.64zM1432.64 1169.07V1041.29H1440.64V1169.07H1432.64zM838.985 1191.76V1143.99H846.985V1191.76H838.985zM838.985 1380.44V1296.85H846.985V1380.44H838.985zM544.83 1158.32V1079.5H552.83V1158.32H544.83zM544.83 1249.08V1187.28H552.83V1249.08H544.83z" clip-rule="evenodd"></path><path fill="#1EBC61" d="M639.754 1146.38C639.754 1145.06 642.148 1143.99 645.102 1143.99H752.068C755.022 1143.99 757.416 1145.06 757.416 1146.38V1294.46C757.416 1295.78 755.022 1296.85 752.068 1296.85H645.102C642.148 1296.85 639.754 1295.78 639.754 1294.46V1146.38Z"></path><path fill="#36D379" d="M744.39 1145.92C744.39 1144.6 744.655 1143.53 744.982 1143.53H756.817C757.144 1143.53 757.409 1144.6 757.409 1145.92V1294.14C757.409 1295.46 757.144 1296.53 756.817 1296.53H744.982C744.655 1296.53 744.39 1295.46 744.39 1294.14V1145.92Z"></path><path fill="#12AA53" d="M640.237 1145.92C640.237 1144.6 640.546 1143.53 640.928 1143.53H654.736C655.117 1143.53 655.426 1144.6 655.426 1145.92V1294.14C655.426 1295.46 655.117 1296.53 654.736 1296.53H640.928C640.546 1296.53 640.237 1295.46 640.237 1294.14V1145.92Z"></path><path fill="#12AA53" d="M645.221 1296.53C644.266 1296.53 643.492 1296.29 643.492 1295.99V1285.08C643.492 1284.78 644.266 1284.53 645.221 1284.53H752.426C753.381 1284.53 754.155 1284.78 754.155 1285.08V1295.99C754.155 1296.29 753.381 1296.53 752.426 1296.53H645.221Z"></path><path fill="#24396B" fill-rule="evenodd" d="M639.689 1141.04C641.28 1140.33 643.197 1139.99 645.102 1139.99H752.068C753.973 1139.99 755.89 1140.33 757.481 1141.04C758.271 1141.39 759.158 1141.91 759.9 1142.7C760.662 1143.5 761.416 1144.75 761.416 1146.38V1294.46C761.416 1296.09 760.662 1297.34 759.9 1298.14C759.158 1298.92 758.271 1299.45 757.481 1299.8C755.89 1300.51 753.973 1300.85 752.068 1300.85H645.102C643.197 1300.85 641.28 1300.51 639.689 1299.8C638.899 1299.45 638.012 1298.92 637.27 1298.14C636.508 1297.34 635.754 1296.09 635.754 1294.46V1146.38C635.754 1144.75 636.508 1143.5 637.27 1142.7C638.012 1141.91 638.899 1141.39 639.689 1141.04ZM642.861 1148.39C642.86 1148.39 642.864 1148.39 642.87 1148.38C642.864 1148.39 642.861 1148.39 642.861 1148.39ZM643.754 1148.11C644.119 1148.04 644.573 1147.99 645.102 1147.99H752.068C752.597 1147.99 753.051 1148.04 753.416 1148.11V1292.73C753.051 1292.8 752.597 1292.85 752.068 1292.85H645.102C644.573 1292.85 644.119 1292.8 643.754 1292.73V1148.11ZM642.861 1292.45C642.861 1292.45 642.864 1292.45 642.87 1292.46C642.864 1292.45 642.86 1292.45 642.861 1292.45ZM754.31 1148.39C754.309 1148.39 754.306 1148.39 754.3 1148.38C754.307 1148.39 754.31 1148.39 754.31 1148.39Z" clip-rule="evenodd"></path><path fill="#FB122B" d="M490 1158.99C490 1158.74 492.391 1158.55 495.34 1158.55H602.142C605.091 1158.55 607.482 1158.74 607.482 1158.99V1186.39C607.482 1186.64 605.091 1186.84 602.142 1186.84H495.34C492.391 1186.84 490 1186.64 490 1186.39V1158.99Z"></path><path fill="#F8B6BF" d="M599.01 1158.97C599.01 1158.73 599.186 1158.53 599.404 1158.53H607.295C607.513 1158.53 607.689 1158.73 607.689 1158.97V1186.09C607.689 1186.34 607.513 1186.53 607.295 1186.53H599.404C599.186 1186.53 599.01 1186.34 599.01 1186.09V1158.97Z"></path><path fill="#C11535" d="M490.517 1158.97C490.517 1158.73 490.804 1158.53 491.158 1158.53H503.98C504.334 1158.53 504.621 1158.73 504.621 1158.97V1186.09C504.621 1186.34 504.334 1186.53 503.98 1186.53H491.158C490.804 1186.53 490.517 1186.34 490.517 1186.09V1158.97Z"></path><path fill="#24396B" fill-rule="evenodd" d="M491.234 1154.69C492.341 1154.6 493.792 1154.55 495.34 1154.55H602.142C603.691 1154.55 605.141 1154.6 606.248 1154.69C606.781 1154.73 607.344 1154.8 607.831 1154.89C608.042 1154.93 608.445 1155.02 608.874 1155.19C609.068 1155.27 609.516 1155.46 609.982 1155.84C610.394 1156.18 611.482 1157.22 611.482 1158.99V1186.39C611.482 1188.17 610.394 1189.2 609.982 1189.54C609.516 1189.92 609.068 1190.11 608.874 1190.19C608.445 1190.37 608.042 1190.45 607.831 1190.49C607.344 1190.59 606.781 1190.65 606.248 1190.69C605.141 1190.78 603.691 1190.84 602.142 1190.84H495.34C493.792 1190.84 492.341 1190.78 491.234 1190.69C490.701 1190.65 490.138 1190.59 489.651 1190.49C489.44 1190.45 489.037 1190.37 488.609 1190.19C488.414 1190.11 487.966 1189.92 487.5 1189.54C487.089 1189.2 486 1188.17 486 1186.39V1158.99C486 1157.22 487.089 1156.18 487.5 1155.84C487.966 1155.46 488.414 1155.27 488.609 1155.19C489.037 1155.02 489.44 1154.93 489.651 1154.89C490.138 1154.8 490.701 1154.73 491.234 1154.69ZM491.188 1162.74C491.191 1162.74 491.194 1162.74 491.198 1162.74C491.175 1162.75 491.171 1162.75 491.188 1162.74ZM494 1162.56C494.421 1162.55 494.87 1162.55 495.34 1162.55H602.142C602.612 1162.55 603.061 1162.55 603.482 1162.56V1182.82C603.061 1182.83 602.612 1182.84 602.142 1182.84H495.34C494.87 1182.84 494.421 1182.83 494 1182.82V1162.56ZM491.188 1182.64C491.171 1182.64 491.175 1182.64 491.197 1182.64C491.194 1182.64 491.191 1182.64 491.188 1182.64ZM606.285 1182.64C606.288 1182.64 606.292 1182.64 606.294 1182.64C606.301 1182.64 606.305 1182.64 606.305 1182.64C606.305 1182.64 606.298 1182.64 606.285 1182.64ZM606.294 1162.74C606.311 1162.75 606.307 1162.75 606.285 1162.74C606.288 1162.74 606.292 1162.74 606.294 1162.74Z" clip-rule="evenodd"></path><path fill="#FB122B" d="M784.155 1193.4C784.155 1192.49 786.55 1191.76 789.504 1191.76H896.469C899.423 1191.76 901.818 1192.49 901.818 1193.4V1295.21C901.818 1296.11 899.423 1296.85 896.469 1296.85H789.504C786.55 1296.85 784.155 1296.11 784.155 1295.21V1193.4Z"></path><path fill="#F8B6BF" d="M890.855 1193.17C890.855 1192.27 891.076 1191.53 891.349 1191.53H901.212C901.484 1191.53 901.705 1192.27 901.705 1193.17V1294.89C901.705 1295.8 901.484 1296.53 901.212 1296.53H891.349C891.076 1296.53 890.855 1295.8 890.855 1294.89V1193.17Z"></path><path fill="#C11535" d="M784.533 1193.17C784.533 1192.27 784.776 1191.53 785.075 1191.53H795.924C796.224 1191.53 796.467 1192.27 796.467 1193.17V1294.89C796.467 1295.8 796.224 1296.53 795.924 1296.53H785.075C784.776 1296.53 784.533 1295.8 784.533 1294.89V1193.17Z"></path><path fill="#C11535" d="M896.67 1287.53C897.653 1287.53 898.45 1287.76 898.45 1288.03V1298.03C898.45 1298.31 897.653 1298.53 896.67 1298.53H786.313C785.33 1298.53 784.533 1298.31 784.533 1298.03V1288.03C784.533 1287.76 785.33 1287.53 786.313 1287.53H896.67Z"></path><path fill="#24396B" fill-rule="evenodd" d="M784.548 1188.41C785.991 1187.97 787.743 1187.76 789.504 1187.76H896.469C898.23 1187.76 899.981 1187.97 901.425 1188.41C902.122 1188.63 902.978 1188.97 903.747 1189.52C904.427 1190.02 905.818 1191.28 905.818 1193.4V1295.21C905.818 1297.33 904.427 1298.59 903.747 1299.08C902.978 1299.64 902.122 1299.98 901.425 1300.19C899.981 1300.63 898.23 1300.85 896.469 1300.85H789.504C787.743 1300.85 785.991 1300.63 784.548 1300.19C783.851 1299.98 782.995 1299.64 782.226 1299.08C781.546 1298.59 780.155 1297.33 780.155 1295.21V1193.4C780.155 1191.28 781.546 1190.02 782.226 1189.52C782.995 1188.97 783.851 1188.63 784.548 1188.41ZM786.722 1196.12C786.722 1196.12 786.723 1196.12 786.726 1196.12C786.723 1196.12 786.722 1196.12 786.722 1196.12ZM788.155 1195.83C788.549 1195.78 789.003 1195.76 789.504 1195.76H896.469C896.97 1195.76 897.424 1195.78 897.818 1195.83V1292.78C897.424 1292.82 896.97 1292.85 896.469 1292.85H789.504C789.003 1292.85 788.549 1292.82 788.155 1292.78V1195.83Z" clip-rule="evenodd"></path><path fill="#1EBC61" d="M933.907 996.617C933.907 994.906 936.302 993.52 939.256 993.52H1046.22C1049.18 993.52 1051.57 994.906 1051.57 996.617V1188.66C1051.57 1190.37 1049.18 1191.76 1046.22 1191.76H939.256C936.302 1191.76 933.907 1190.37 933.907 1188.66V996.617Z"></path><path fill="#36D379" d="M1039.49 996.625C1039.49 994.916 1039.73 993.531 1040.03 993.531H1050.88C1051.18 993.531 1051.42 994.916 1051.42 996.625V1188.44C1051.42 1190.15 1051.18 1191.53 1050.88 1191.53H1040.03C1039.73 1191.53 1039.49 1190.15 1039.49 1188.44V996.625Z"></path><path fill="#12AA53" d="M934.253 996.625C934.253 994.916 934.562 993.531 934.943 993.531H948.752C949.133 993.531 949.442 994.916 949.442 996.625V1188.44C949.442 1190.15 949.133 1191.53 948.752 1191.53H934.943C934.562 1191.53 934.253 1190.15 934.253 1188.44V996.625Z"></path><path fill="#12AA53" d="M941.423 1188.53C940.459 1188.53 939.677 1188.33 939.677 1188.08V1178.99C939.677 1178.73 940.459 1178.53 941.423 1178.53H1049.68C1050.64 1178.53 1051.42 1178.73 1051.42 1178.99V1188.08C1051.42 1188.33 1050.64 1188.53 1049.68 1188.53H941.423Z"></path><path fill="#24396B" fill-rule="evenodd" d="M933.469 990.965C935.148 989.993 937.203 989.52 939.256 989.52H1046.22C1048.27 989.52 1050.33 989.993 1052.01 990.965C1053.58 991.878 1055.57 993.734 1055.57 996.617V1188.66C1055.57 1191.54 1053.58 1193.4 1052.01 1194.31C1050.33 1195.28 1048.27 1195.76 1046.22 1195.76H939.256C937.203 1195.76 935.148 1195.28 933.469 1194.31C931.893 1193.4 929.907 1191.54 929.907 1188.66V996.617C929.907 993.734 931.893 991.878 933.469 990.965ZM937.416 997.929C937.416 997.929 937.417 997.927 937.421 997.925C937.418 997.927 937.416 997.929 937.416 997.929ZM937.907 997.709C938.231 997.607 938.687 997.52 939.256 997.52H1046.22C1046.79 997.52 1047.25 997.607 1047.57 997.709V1187.57C1047.25 1187.67 1046.79 1187.76 1046.22 1187.76H939.256C938.687 1187.76 938.231 1187.67 937.907 1187.57V997.709ZM937.416 1187.35C937.416 1187.35 937.418 1187.35 937.421 1187.35C937.417 1187.35 937.416 1187.35 937.416 1187.35ZM1048.06 1187.35C1048.06 1187.35 1048.06 1187.35 1048.06 1187.35C1048.06 1187.35 1048.06 1187.35 1048.06 1187.35ZM1048.06 997.929C1048.06 997.929 1048.06 997.927 1048.06 997.925C1048.06 997.927 1048.06 997.929 1048.06 997.929Z" clip-rule="evenodd"></path><path fill="#FB122B" d="M1078.31 927.727C1078.31 927.129 1080.71 926.645 1083.66 926.645H1190.63C1193.58 926.645 1195.97 927.129 1195.97 927.727V994.826C1195.97 995.424 1193.58 995.909 1190.63 995.909H1083.66C1080.71 995.909 1078.31 995.424 1078.31 994.826V927.727Z"></path><path fill="#C11535" d="M1078.55 927.609C1078.55 927.014 1078.84 926.531 1079.19 926.531H1092.01C1092.37 926.531 1092.65 927.014 1092.65 927.609V994.453C1092.65 995.049 1092.37 995.531 1092.01 995.531H1079.19C1078.84 995.531 1078.55 995.049 1078.55 994.453V927.609Z"></path><path fill="#C11535" d="M1086.7 997.531C1085.79 997.531 1085.06 997.267 1085.06 996.94V985.122C1085.06 984.796 1085.79 984.531 1086.7 984.531H1188.65C1189.56 984.531 1190.3 984.796 1190.3 985.122V996.94C1190.3 997.267 1189.56 997.531 1188.65 997.531H1086.7Z"></path><path fill="#F8B6BF" d="M1187.04 927.609C1187.04 927.014 1187.31 926.531 1187.63 926.531H1199.47C1199.8 926.531 1200.06 927.014 1200.06 927.609V994.453C1200.06 995.049 1199.8 995.531 1199.47 995.531H1187.63C1187.31 995.531 1187.04 995.049 1187.04 994.453V927.609Z"></path><path fill="#24396B" fill-rule="evenodd" d="M1079.08 923.041C1080.38 922.778 1082 922.645 1083.66 922.645H1190.63C1192.29 922.645 1193.9 922.778 1195.2 923.041C1195.82 923.166 1196.58 923.361 1197.28 923.697C1197.62 923.861 1198.16 924.158 1198.68 924.664C1199.2 925.18 1199.97 926.215 1199.97 927.727V994.826C1199.97 996.338 1199.2 997.373 1198.68 997.889C1198.16 998.396 1197.62 998.692 1197.28 998.856C1196.58 999.192 1195.82 999.387 1195.2 999.512C1193.9 999.775 1192.29 999.909 1190.63 999.909H1083.66C1082 999.909 1080.38 999.775 1079.08 999.512C1078.47 999.387 1077.71 999.192 1077.01 998.856C1076.66 998.692 1076.12 998.396 1075.61 997.889C1075.09 997.373 1074.31 996.338 1074.31 994.826V927.727C1074.31 926.215 1075.09 925.18 1075.61 924.664C1076.12 924.158 1076.66 923.861 1077.01 923.697C1077.71 923.361 1078.47 923.166 1079.08 923.041ZM1082.31 930.686V991.867C1082.72 991.893 1083.17 991.909 1083.66 991.909H1190.63C1191.11 991.909 1191.56 991.893 1191.97 991.867V930.686C1191.56 930.66 1191.11 930.645 1190.63 930.645H1083.66C1083.17 930.645 1082.72 930.66 1082.31 930.686Z" clip-rule="evenodd"></path><path fill="#1EBC61" d="M1228.06 928.399C1228.06 927.43 1230.46 926.645 1233.41 926.645H1340.37C1343.33 926.645 1345.72 927.43 1345.72 928.399V1037.15C1345.72 1038.11 1343.33 1038.9 1340.37 1038.9H1233.41C1230.46 1038.9 1228.06 1038.11 1228.06 1037.15V928.399Z"></path><path fill="#36D379" d="M1333.51 928.281C1333.51 927.315 1333.75 926.531 1334.05 926.531H1344.9C1345.2 926.531 1345.44 927.315 1345.44 928.281V1036.78C1345.44 1037.75 1345.2 1038.53 1344.9 1038.53H1334.05C1333.75 1038.53 1333.51 1037.75 1333.51 1036.78V928.281Z"></path><path fill="#12AA53" d="M1228.27 928.281C1228.27 927.315 1228.6 926.531 1229.01 926.531H1243.8C1244.21 926.531 1244.54 927.315 1244.54 928.281V1036.78C1244.54 1037.75 1244.21 1038.53 1243.8 1038.53H1229.01C1228.6 1038.53 1228.27 1037.75 1228.27 1036.78V928.281Z"></path><path fill="#12AA53" d="M1230.1 1038.53C1229.09 1038.53 1228.27 1038.31 1228.27 1038.03V1028.03C1228.27 1027.76 1229.09 1027.53 1230.1 1027.53H1343.61C1344.62 1027.53 1345.44 1027.76 1345.44 1028.03V1038.03C1345.44 1038.31 1344.62 1038.53 1343.61 1038.53H1230.1Z"></path><path fill="#24396B" fill-rule="evenodd" d="M1228.38 923.357C1229.85 922.876 1231.63 922.645 1233.41 922.645H1340.37C1342.16 922.645 1343.93 922.876 1345.4 923.357C1346.12 923.591 1346.98 923.957 1347.75 924.555C1348.47 925.112 1349.72 926.377 1349.72 928.399V1037.15C1349.72 1039.17 1348.47 1040.43 1347.75 1040.99C1346.98 1041.59 1346.12 1041.95 1345.4 1042.19C1343.93 1042.67 1342.16 1042.9 1340.37 1042.9H1233.41C1231.63 1042.9 1229.85 1042.67 1228.38 1042.19C1227.67 1041.95 1226.8 1041.59 1226.03 1040.99C1225.31 1040.43 1224.06 1039.17 1224.06 1037.15V928.399C1224.06 926.377 1225.31 925.112 1226.03 924.555C1226.8 923.957 1227.67 923.591 1228.38 923.357ZM1230.72 931.018C1230.72 931.018 1230.72 931.017 1230.72 931.015C1230.72 931.017 1230.72 931.018 1230.72 931.018ZM1232.06 930.721C1232.45 930.674 1232.9 930.645 1233.41 930.645H1340.37C1340.88 930.645 1341.33 930.674 1341.72 930.721V1034.82C1341.33 1034.87 1340.88 1034.9 1340.37 1034.9H1233.41C1232.9 1034.9 1232.45 1034.87 1232.06 1034.82V930.721ZM1230.72 1034.53C1230.72 1034.53 1230.72 1034.53 1230.72 1034.53C1230.72 1034.53 1230.72 1034.53 1230.72 1034.53ZM1343.07 1034.53C1343.07 1034.53 1343.06 1034.53 1343.06 1034.53C1343.06 1034.53 1343.07 1034.53 1343.07 1034.53ZM1343.07 931.018C1343.07 931.018 1343.06 931.017 1343.06 931.015C1343.06 931.017 1343.07 931.018 1343.07 931.018Z" clip-rule="evenodd"></path><path fill="#FB122B" d="M1377.81 1013.07C1377.81 1012.83 1380.21 1012.63 1383.16 1012.63H1490.13C1493.08 1012.63 1495.48 1012.83 1495.48 1013.07V1040.84C1495.48 1041.09 1493.08 1041.29 1490.13 1041.29H1383.16C1380.21 1041.29 1377.81 1041.09 1377.81 1040.84V1013.07Z"></path><path fill="#F8B6BF" d="M1485.4 1012.98C1485.4 1012.73 1485.6 1012.53 1485.84 1012.53H1494.72C1494.96 1012.53 1495.16 1012.73 1495.16 1012.98V1041.08C1495.16 1041.33 1494.96 1041.53 1494.72 1041.53H1485.84C1485.6 1041.53 1485.4 1041.33 1485.4 1041.08V1012.98Z"></path><path fill="#C11535" d="M1377.99 1012.98C1377.99 1012.73 1378.3 1012.53 1378.68 1012.53H1392.49C1392.87 1012.53 1393.18 1012.73 1393.18 1012.98V1041.08C1393.18 1041.33 1392.87 1041.53 1392.49 1041.53H1378.68C1378.3 1041.53 1377.99 1041.33 1377.99 1041.08V1012.98Z"></path><path fill="#24396B" fill-rule="evenodd" d="M1379.05 1008.77C1380.16 1008.68 1381.61 1008.63 1383.16 1008.63H1490.13C1491.68 1008.63 1493.13 1008.68 1494.24 1008.77C1494.78 1008.82 1495.34 1008.88 1495.83 1008.98C1496.05 1009.02 1496.45 1009.1 1496.88 1009.28C1497.08 1009.36 1497.53 1009.56 1497.99 1009.94C1498.41 1010.29 1499.48 1011.32 1499.48 1013.07V1040.84C1499.48 1042.59 1498.41 1043.63 1497.99 1043.97C1497.53 1044.36 1497.08 1044.55 1496.88 1044.63C1496.45 1044.81 1496.05 1044.9 1495.83 1044.94C1495.34 1045.03 1494.78 1045.1 1494.24 1045.14C1493.13 1045.23 1491.68 1045.29 1490.13 1045.29H1383.16C1381.61 1045.29 1380.16 1045.23 1379.05 1045.14C1378.51 1045.1 1377.95 1045.03 1377.46 1044.94C1377.25 1044.9 1376.84 1044.81 1376.41 1044.63C1376.21 1044.55 1375.76 1044.36 1375.3 1043.97C1374.88 1043.63 1373.81 1042.59 1373.81 1040.84V1013.07C1373.81 1011.32 1374.88 1010.29 1375.3 1009.94C1375.76 1009.56 1376.21 1009.36 1376.41 1009.28C1376.84 1009.1 1377.25 1009.02 1377.46 1008.98C1377.95 1008.88 1378.51 1008.82 1379.05 1008.77ZM1381.81 1016.64V1037.27C1382.24 1037.28 1382.69 1037.29 1383.16 1037.29H1490.13C1490.6 1037.29 1491.05 1037.28 1491.48 1037.27V1016.64C1491.05 1016.63 1490.6 1016.63 1490.13 1016.63H1383.16C1382.69 1016.63 1382.24 1016.63 1381.81 1016.64Z" clip-rule="evenodd"></path></svg>