<svg xmlns="http://www.w3.org/2000/svg" viewBox="0 0 80 80" id="options"><path fill="#54C0EB" d="M67.683 41.43c0 17.719-14.362 32-32 32-17.606 0-32-14.265-32-32 0-17.71 14.365-32 32-32 17.748 0 32 14.388 32 32z"></path><path fill="#3F596B" d="M57.223 9.89v57.89c0 1.84-1.49 3.32-3.32 3.32h-30.22a31.866 31.866 0 0 1-9.86-6.3V9.88c0-1.83 1.49-3.31 3.31-3.31h36.77c1.84 0 3.32 1.49 3.32 3.32z"></path><path fill="#324A5E" d="M27.283 71.1h-3.6a31.866 31.866 0 0 1-9.86-6.3V9.88c0-1.83 1.49-3.31 3.31-3.31h10.15c-1.84 0-3.33 1.48-3.33 3.31v57.9a3.32 3.32 0 0 0 3.33 3.32z"></path><path fill="#EFF1F4" d="M55.559 14.243v46.6a2 2 0 0 1-2 2h-36.06a2 2 0 0 1-2-2v-46.6c0-1.11.89-2 2-2h36.06c1.11 0 2 .89 2 2z"></path><path fill="#E6E9EE" d="M23.834 12.243H17.5c-1.11 0-2 .89-2 2v46.6a2 2 0 0 0 2 2h6.335v-50.6z"></path><path fill="#2B3B4E" d="M39.929 67.063c0 .79-.64 1.43-1.43 1.43h-5.95a1.43 1.43 0 1 1 0-2.86h5.95c.79 0 1.43.64 1.43 1.43z"></path><path fill="#22303F" d="M33.682 67.063c0-.79.64-1.43 1.43-1.43H32.55a1.43 1.43 0 1 0 0 2.86h2.563c-.79 0-1.43-.64-1.43-1.43z"></path><path fill="#2B3B4E" d="M41.029 9.508c0 .29-.24.52-.52.52h-9.96c-.29 0-.52-.23-.52-.52 0-.28.23-.52.52-.52h9.96c.28 0 .52.24.52.52z"></path><path fill="#22303F" d="M32.592 9.508c0-.28.23-.52.52-.52H30.55c-.29 0-.52.24-.52.52 0 .29.23.52.52.52h2.563c-.29 0-.52-.23-.52-.52z"></path><path fill="#FF7058" d="M27.061 28.21h-6.71a1 1 0 0 1-1-1V20.5a1 1 0 0 1 1-1h6.71a1 1 0 0 1 1 1v6.71a1 1 0 0 1-1 1z"></path><path fill="#F1543F" d="M23.263 28.206h-2.935a.972.972 0 0 1-.975-.975v-6.759c0-.536.438-.975.975-.975h2.935a.978.978 0 0 0-.975.975v6.758c0 .547.439.976.975.976z"></path><path fill="#CED5E0" d="M50.937 21.552H30.982a.77.77 0 0 1-.77-.77v-.065a.77.77 0 0 1 .77-.77h19.954a.77.77 0 0 1 .77.77v.066a.77.77 0 0 1-.77.769z"></path><path fill="#ACB3BA" d="M35.627 21.55h-4.612a.8.8 0 0 1-.803-.799c0-.444.36-.804.803-.804h4.612a.804.804 0 0 0-.804.804.8.8 0 0 0 .804.8z"></path><path fill="#CED5E0" d="M50.937 24.657H30.982a.77.77 0 0 1-.77-.769v-.065a.77.77 0 0 1 .77-.77h19.954a.77.77 0 0 1 .77.77v.065a.77.77 0 0 1-.77.77z"></path><path fill="#ACB3BA" d="M35.627 24.656h-4.612a.8.8 0 0 1-.803-.8c0-.443.36-.803.803-.803h4.612a.804.804 0 0 0-.804.804.8.8 0 0 0 .804.799z"></path><path fill="#CED5E0" d="M44.19 27.763H30.981a.77.77 0 0 1-.77-.77v-.065a.77.77 0 0 1 .77-.77h13.207a.77.77 0 0 1 .77.77v.066a.77.77 0 0 1-.77.77z"></path><path fill="#ACB3BA" d="M35.627 27.762h-4.612a.8.8 0 0 1-.803-.8c0-.443.36-.803.803-.803h4.612a.804.804 0 0 0-.804.804.8.8 0 0 0 .804.799z"></path><path fill="#54C0EB" d="M27.061 41.9h-6.71a1 1 0 0 1-1-1v-6.71a1 1 0 0 1 1-1h6.71a1 1 0 0 1 1 1v6.71a1 1 0 0 1-1 1z"></path><path fill="#3AABCE" d="M23.263 41.895h-2.935a.972.972 0 0 1-.975-.975v-6.758c0-.537.438-.976.975-.976h2.935a.978.978 0 0 0-.975.976v6.758c0 .546.439.975.975.975z"></path><path fill="#CED5E0" d="M50.937 35.241H30.982a.77.77 0 0 1-.77-.77v-.065a.77.77 0 0 1 .77-.77h19.954a.77.77 0 0 1 .77.77v.066a.77.77 0 0 1-.77.769z"></path><path fill="#ACB3BA" d="M35.627 35.24h-4.612a.8.8 0 0 1-.803-.8c0-.444.36-.804.803-.804h4.612a.804.804 0 0 0-.804.804.8.8 0 0 0 .804.8z"></path><path fill="#CED5E0" d="M50.937 38.347H30.982a.77.77 0 0 1-.77-.77v-.065a.77.77 0 0 1 .77-.77h19.954a.77.77 0 0 1 .77.77v.065a.77.77 0 0 1-.77.77z"></path><path fill="#ACB3BA" d="M35.627 38.345h-4.612a.8.8 0 0 1-.803-.799c0-.444.36-.804.803-.804h4.612a.804.804 0 0 0-.804.804.8.8 0 0 0 .804.799z"></path><path fill="#CED5E0" d="M44.19 41.452H30.981a.77.77 0 0 1-.77-.77v-.065a.77.77 0 0 1 .77-.769h13.207a.77.77 0 0 1 .77.77v.065a.77.77 0 0 1-.77.77z"></path><path fill="#ACB3BA" d="M35.627 41.45h-4.612a.8.8 0 0 1-.803-.798c0-.444.36-.804.803-.804h4.612a.804.804 0 0 0-.804.804.8.8 0 0 0 .804.799z"></path><path fill="#FFF" d="m22.458 25.928-1.649-1.65a.625.625 0 1 1 .885-.884L22.9 24.6l2.818-2.818a.625.625 0 1 1 .885.885l-3.261 3.261a.625.625 0 0 1-.885 0z"></path><path fill="#EFF1F4" d="M26.604 21.782a.625.625 0 0 0-.885 0l-1.876 1.876a.626.626 0 0 0 .885.885l1.876-1.876a.625.625 0 0 0 0-.885z"></path><path fill="#9B644C" d="M27.061 55.589h-6.71a1 1 0 0 1-1-1v-6.71a1 1 0 0 1 1-1h6.71a1 1 0 0 1 1 1v6.71a1 1 0 0 1-1 1z"></path><path fill="#915946" d="M23.263 55.584h-2.935a.972.972 0 0 1-.975-.975V47.85c0-.537.438-.976.975-.976h2.935a.978.978 0 0 0-.975.976v6.758c0 .546.439.975.975.975z"></path><path fill="#CED5E0" d="M50.937 48.93H30.982a.77.77 0 0 1-.77-.77v-.065a.77.77 0 0 1 .77-.77h19.954a.77.77 0 0 1 .77.77v.066a.77.77 0 0 1-.77.77z"></path><path fill="#ACB3BA" d="M35.627 48.928h-4.612a.8.8 0 0 1-.803-.799c0-.443.36-.804.803-.804h4.612a.804.804 0 0 0-.804.804.8.8 0 0 0 .804.8z"></path><path fill="#CED5E0" d="M50.937 52.036H30.982a.77.77 0 0 1-.77-.77v-.065a.77.77 0 0 1 .77-.77h19.954a.77.77 0 0 1 .77.77v.065a.77.77 0 0 1-.77.77z"></path><path fill="#ACB3BA" d="M35.627 52.034h-4.612a.8.8 0 0 1-.803-.799c0-.444.36-.804.803-.804h4.612a.804.804 0 0 0-.804.804.8.8 0 0 0 .804.8z"></path><path fill="#CED5E0" d="M44.19 55.142H30.981a.77.77 0 0 1-.77-.77v-.065a.77.77 0 0 1 .77-.77h13.207a.77.77 0 0 1 .77.77v.065a.77.77 0 0 1-.77.77z"></path><path fill="#ACB3BA" d="M35.627 55.14h-4.612a.8.8 0 0 1-.803-.8c0-.443.36-.803.803-.803h4.612a.804.804 0 0 0-.804.804.8.8 0 0 0 .804.799z"></path><path fill="#FFD05B" d="m52.335 47.514-8.44 8.733c-.012-.016-.032-.021-.044-.037-2.343-1.91-5.315-2.878-8.34-2.937l-8.653-.17a.641.641 0 0 1-.64-.66c.038-1.904 1.613-3.516 3.62-3.48l2.791.051L23.291 40a2.005 2.005 0 0 1-.048-2.818 2.008 2.008 0 0 1 2.817-.048l8.136 7.853c.07.07.18.066.24-.001a.166.166 0 0 0 0-.24l-1.996-1.932c-.8-.769-.86-2.101-.078-2.877.72-.745 1.996-.819 2.793-.034l2.05 1.977c.068.06.178.057.248-.012.06-.068.066-.18-.002-.241l-.971-.93c-.826-.8-.875-2.171-.028-2.95a1.988 1.988 0 0 1 2.73.025l1.03.991c.07.07.18.067.24-.001a.175.175 0 0 0-.002-.25l-.22-.216c-.823-.791-.88-2.152-.043-2.939.763-.738 1.974-.713 2.746.013l4.435 4.285a5.435 5.435 0 0 1 1.294 1.996l.016.034a16.552 16.552 0 0 0 3.657 5.829z"></path><path fill="#F9B54C" d="M43.851 56.21c.012.016.032.021.044.037l8.44-8.733a16.552 16.552 0 0 1-3.657-5.83l-.016-.033a5.434 5.434 0 0 0-1.058-1.739c-1.989.292-4.57 7.428-6.48 14.61l-.004.004c.973.444 1.893 1.001 2.731 1.684z"></path><path fill="#FF7058" d="M57.937 71.128h17.378c.892 0 1.337-1.079.706-1.708l-24.095-24a.835.835 0 0 0-1.185.021l-8.95 9.263a.837.837 0 0 0 .02 1.185l14.715 14.656a2 2 0 0 0 1.411.583z"></path><path fill="#F1543F" d="M57.937 71.128h5.899L45.022 52.391a.716.716 0 0 1-.015-1.015l-3.216 3.329a.837.837 0 0 0 .02 1.184l14.715 14.656a2 2 0 0 0 1.411.583z"></path><circle cx="46.084" cy="56.002" r="1.125" fill="#EFF1F4"></circle></svg>