<svg id="ec114c1e-99c5-4f1a-a915-051e2337c6c9" data-name="Layer 1" xmlns="http://www.w3.org/2000/svg" viewBox="0 0 500 500"><title>apex</title><g id="bad07fef-ac42-466c-9e4e-2345a716e429" data-name="Background Simple"><path d="M215.6,9.1S298.8-1.5,365,58.8s85.5,155.3,103.1,232S451.4,434,386.5,453.6,292.7,417.1,212,397,107,383.8,49.7,323.2,4,151.8,74.6,83.3,215.6,9.1,215.6,9.1Z" fill="#6366f1"/><path d="M215.6,9.1S298.8-1.5,365,58.8s85.5,155.3,103.1,232S451.4,434,386.5,453.6,292.7,417.1,212,397,107,383.8,49.7,323.2,4,151.8,74.6,83.3,215.6,9.1,215.6,9.1Z" fill="#fff" opacity="0.75" style="isolation:isolate"/></g><g id="bd0ccf82-50f4-46ce-8d84-9cade1301794" data-name="Graphics"><path d="M459,278.7,58.6,261.5V43.3L459,26.1Z" fill="#263238"/><path d="M449.1,266.8,66,251.9V53L449.1,38Z" fill="none" stroke="#4e33e6" stroke-miterlimit="10"/><path d="M190.5,75.5l-106,3c-2.5.1-4.5-2.2-4.5-5s2-5.2,4.5-5.3l106-3.5a4.92,4.92,0,0,1,4.9,5.2C195.4,73,193.2,75.5,190.5,75.5Z" fill="gray"/><path d="M126.8,72.1a4.86,4.86,0,0,0-4.7-5.1L84.5,68.2c-2.5.1-4.5,2.4-4.5,5.3s2,5.1,4.5,5l37.6-1.1C124.7,77.4,126.8,75,126.8,72.1Z" fill="#6366f1"/><path d="M190.5,96.4l-106,2.2c-2.5.1-4.5-2.2-4.5-5s2-5.2,4.5-5.2l106-2.6a5,5,0,0,1,4.9,5.2A5.29,5.29,0,0,1,190.5,96.4Z" fill="gray"/><path d="M153.3,91.9a4.82,4.82,0,0,0-4.8-5.1l-64,1.6A5,5,0,0,0,80,93.6c0,2.8,2,5.1,4.5,5l64-1.3A5.21,5.21,0,0,0,153.3,91.9Z" fill="#6366f1"/><path d="M190.5,117.3l-106,1.4c-2.5,0-4.5-2.2-4.5-5.1s2-5.2,4.5-5.2l106-1.8a5.07,5.07,0,0,1,4.9,5.3A5.29,5.29,0,0,1,190.5,117.3Z" fill="gray"/><path d="M172,112.24a5,5,0,0,0-4.9-5.2l-82.7,1.4c-2.5,0-4.5,2.4-4.5,5.2s2,5.1,4.5,5.1l82.7-1.1A5.29,5.29,0,0,0,172,112.24Zm18.5,25.9-106,.6c-2.5,0-4.5-2.3-4.5-5.1a5,5,0,0,1,4.5-5.2l106-1a5.07,5.07,0,0,1,4.9,5.3A5.16,5.16,0,0,1,190.5,138.14Zm26.6-63.3-14.5.4a5,5,0,0,1-5-5.2,5.33,5.33,0,0,1,5-5.5l14.5-.5a5,5,0,0,1,5,5.2A5.42,5.42,0,0,1,217.1,74.84Zm0,21-14.5.3a5,5,0,0,1-5-5.3,5.33,5.33,0,0,1,5-5.5l14.5-.4a5,5,0,0,1,5,5.3C222.1,93.34,219.9,95.84,217.1,95.84Zm0,20.3-14.5.2a5.09,5.09,0,0,1-5-5.3,5.18,5.18,0,0,1,5-5.4l14.5-.2a5.09,5.09,0,0,1,5,5.3A5.24,5.24,0,0,1,217.1,116.14Zm0,21.1-14.5.1a5.36,5.36,0,0,1,0-10.7l14.5-.1a5.36,5.36,0,0,1,0,10.7Z" fill="#6366f1"/><path d="M85.3,62.9l17.1-.6M85.3,84l17.1-.5M85.3,103.9l17.1-.3M85.3,124.9l17.1-.1M400.9,63.5l14.3-.4M392.6,75.8l22.6-.6M400.9,87.7l14.3-.3m-8.4,12.3,8.4-.2m-14.3,12.4,14.3-.2M397.1,124l18.1-.1m-14.3,12.2,14.3-.1M394,148.2h21.2m-14.3,12.1h14.3M419,63c1.4,0,2.9-.1,4.3-.1M419,75.1c1.4,0,2.9-.1,4.3-.1M419,87.3c1.4,0,2.9-.1,4.3-.1m-4.2,12.3c1.4,0,2.8-.1,4.2-.1M419,111.6c1.4,0,2.9,0,4.3-.1M419,123.8h4.2M419,136h4.3m-4.4,12.2h4.4M419,160.3h4.3m4.2-97.6c2.5-.1,4.9-.2,7.4-.2m-7.4,12.4c2.5-.1,4.9-.1,7.4-.2m-7.4,12.4c2.5-.1,4.9-.1,7.4-.2m-7.2,12.4c2.4,0,4.8-.1,7.2-.1m-7.4,12.3c2.5,0,4.9-.1,7.4-.1m-7.2,12.3c2.4,0,4.8,0,7.3-.1m-7.5,12.3h7.4m-7.4,12.2H435m-7.5,12.3h7.4" fill="none" stroke="#fff" stroke-miterlimit="10"/><path d="M237.1,150.6l145.4-.1m-145.4-9.2,145.4-.6m-145.4-8.6L382.5,131" fill="none" stroke="#999" stroke-miterlimit="10"/><path d="M383,170.5v-44s-3.4-4.3-17.5-3.5c-13.9.8-17.3,13.1-32,20.3s-21.5-4.4-33.6-4.3c-11.9.1-17.8,13.3-26.5,18.4s-16.2-.6-26.4.6a14.51,14.51,0,0,0-12.4,10.5l-.1,1.2Z" fill="#6366f1"/><path d="M383,169.7V145.5c-4.8-.3-14.8.5-25.4,9.4s-29.5,4.2-35.1,2.1c-8.8-3.2-19-3.4-29.1,3s-18.3,5.8-27.6,5.7c-6.6,0-14.3,2-18.1,3.1ZM271.8,238.3l-25.9-.8a4.73,4.73,0,0,1-4.4-4.8,4.34,4.34,0,0,1,4.4-4.5l25.9.7a4.75,4.75,0,0,1,4.5,4.8A4.63,4.63,0,0,1,271.8,238.3Zm52.2,1.6-26.9-.8a4.84,4.84,0,0,1-4.5-4.9,4.44,4.44,0,0,1,4.5-4.6l26.9.7a4.85,4.85,0,0,1,4.6,4.9,4.44,4.44,0,0,1-4.6,4.7Zm53.1,1.6-27.9-.9a5,5,0,0,1-4.7-5,4.57,4.57,0,0,1,4.7-4.7l27.9.8a5,5,0,0,1,4.8,5,4.62,4.62,0,0,1-4.8,4.8Z" fill="gray"/><path d="M79.7,213.2l143.5,3.4M79.7,205.5l143.5,3M79.7,197.9l143.5,2.6M79.7,190.3l143.5,2.1M79.7,182.7l143.5,1.7M79.7,175.1l143.5,1.3M79.7,167.5l143.5.8M79.7,159.9l143.5.4" fill="none" stroke="#999" stroke-miterlimit="10"/><path d="M97.1,221.8l-13.8-.4V191.3l13.8.2Z" fill="gray"/><path d="M116.5,223.1l-13.9-.4V183.8l13.9.2Z" fill="#6366f1"/><path d="M136.3,222.9l-14.1-.4V176.6l14.1.1Z" fill="gray"/><path d="M156.4,224.2l-14.4-.4V158.3l14.4.1Z" fill="#6366f1"/><path d="M176.8,223.9l-14.6-.4V176.9l14.6.2Z" fill="gray"/><path d="M197.5,225.3l-14.8-.4V192.6l14.8.2Z" fill="#6366f1"/><path d="M218.6,225.1l-15.1-.4V204.9l15.1.3Z" fill="gray"/><path d="M84,229l11.1.4m8.3.2,11.3.4m8.4.2,11.5.4m8.5.2,11.7.4m8.6.2,11.9.4m8.8.2,12.1.4m8.9.3,12.2.3" fill="none" stroke="#fff" stroke-linecap="round" stroke-linejoin="round"/><path d="M394.4,181.8v-7.1l19.5.1V182Z" fill="#6366f1"/><path d="M394.4,191.1v-7.2l25,.3v7.2Z" fill="gray"/><path d="M394.4,201.9v-7.1l29.3.4v7.2Z" fill="#6366f1"/><path d="M394.4,211.2V204l41.7.7V212Z" fill="gray"/><path d="M394.4,222v-7.2l29.3.7v7.2Z" fill="#6366f1"/><path d="M394.4,231.3v-7.2l20.1.5v7.2Z" fill="gray"/><path d="M394.4,242.1v-7.2l12.2.4v7.2Z" fill="#6366f1"/><path d="M279.2,199.2c0,12.2-9.4,21.8-20.9,21.6s-20.6-10.3-20.6-22.3,9.2-21.7,20.6-21.6S279.2,187,279.2,199.2Z" fill="gray"/><path d="M259.3,177c-.3,0-.7-.1-1-.1-11.4-.1-20.6,9.6-20.6,21.6s9.2,22,20.6,22.3h1Z" fill="#6366f1"/><path d="M272.7,199c0,8.4-6.5,15.1-14.4,14.9S244,206.8,244,198.5s6.4-15,14.3-14.9S272.7,190.6,272.7,199Z" fill="#263238"/><path d="M331,200.8c0,12.4-9.8,22.3-21.7,22s-21.4-10.5-21.4-22.7,9.5-22.1,21.4-22S331,188.4,331,200.8Z" fill="#6366f1"/><path d="M324.2,199.9a14.9,14.9,0,0,1-15,15.2c-8.2-.2-14.8-7.2-14.8-15.7s6.6-15.3,14.8-15.2S324.2,191.4,324.2,199.9Z" fill="#263238"/><path d="M384.6,200.9A22.1,22.1,0,0,1,362,223.3a23.07,23.07,0,0,1-22.2-23.1A22.13,22.13,0,0,1,362,177.8,23,23,0,0,1,384.6,200.9Z" fill="gray"/><path d="M363.1,177.9c-.4,0-.7-.1-1.1-.1a22.13,22.13,0,0,0-22.2,22.4A23,23,0,0,0,362,223.3h1.1V177.9Z" fill="#6366f1"/><path d="M377.6,200.8a15.24,15.24,0,0,1-15.5,15.4,15.93,15.93,0,0,1-15.4-16,15.28,15.28,0,0,1,15.4-15.4A16,16,0,0,1,377.6,200.8Z" fill="#263238"/><path d="M253.8,199.8l9.6.2m41.4.7,9.9.2m42,.7,10.3.2" fill="none" stroke="#fff" stroke-miterlimit="10"/><path d="M305.3,83.4v-.8l-.2.2ZM275.7,94.6l.6.1,1.1-.4-1.7-.5.3.5-.7.2Z" fill="gray"/><path d="M289,103.9l-2.6-1-.5.3.1-.4-.8-.6-.9.4.3-.5-.7-.2-.2.3.4-.8-.5-1.2-.6-.5-1.4-.2-1-1h-.5l.1-.3-.5-.2v-.2l-.3-.1-.7.3-1.1-.3-.6-.5-.1.3-.5.3.1.6-.4-.1.2-.5v-.3l.1-.1.1-.3-1,.6h-.2l-.8,1.2h-.1l-.2-.3-.5-.3-.5.2h-.6l-.6-.8.2-1.7-.4-.3-1.4.1-.1-.1.2-.9.1-.1.4-1.3h-.9l-.8,1.2-1.1.2-.4-.2-.6-.9V91.6l-.1-.1.1.1-.1-.5.1-.4,1.2-.9,1.2.3.2-.1.3.2-.1-.4.6-.3.1.1.5-.1.3.3h.2l.3-.1.9,2.1h.3l.2-.5-.5-2,1.6-1.8v-.3l.1-.1h.2l.1-.2-.2-.4v-.2l-.2-.3.1-.1.1-.5h.1l.1.9.2-.1.1-.7h.2l.2-.5.7-.3h-.5l.6-.2.2-.2h.3l-.1-.3.3-.7.5-.4h.4l1-.8v.2l.3.1-.7.4v.4l.5-.1.3-.3.8-.3L280,82l.5-.2-.1-.2v-.3l-.6.6-.6-.1-.4-.3v-.4l-.2-.1v-.2l.3-.5-1.5.3-.8.8.9-1.2.4-.1.3-.4,2.2-.2,1.6-1v-.2l-.1-.1.1-.2-.2-.3-.4.1v-.3l-.9.3-.1-.2.9-.4-1.7-1.1V76l.3-.2-1.1-2-.3.4-.1.5-.1.2h-.2l-.4.2-.6-.5-.2-.7.1-.3-.8-.3-.7-.7-.4.1-1.1-.1-.1.3.2.3-.2.4.2.6-.4.9.5.5.1.9-.3.5-.5.2.3,1.3-.1.3.1.2h-.2l-.2.3-.3-.1-.6-.9v-.9l-.2-.2-2.9-1.1-.5.2v-.2l-.4-.8-.4-.1.2-1.4,1.2-1.3-1.1-.5,1.2.2.1-.4.5.1.5-.6-.9-.4v-.2l.7.4.5-.5-.2-.2.3-.1.2.2.4-.1-.2-.3.1-.1h.7l.5-.4-.3-.7v-.2l.3-.2-.2-.4-1.2-.4v.4l.1.2-.1.2-.2.2-.2.4-.2-.2v.3l.1.2-.2.2-.4-.6.1-.2v-.3l-.2-.3-.3-.1-.3.6-.1-.5.1-.3-.3-.1-.3.1v-.3l.2-.1-.5-.5v-.4l-.4-.3-.1-.2.3-.2.1-.4h.5l.5-.8-.9-.3-.7.2.1.2h-.2l.2,1.4-.2.2.1.2h-.3v1.1l.7.3-.1.5.2-.1.2.2-.6.4v.4l-.2.2-.2-.3V69l-.4-.1.3-.1.2-.2h.4l-.2-.3h-.3l.3-.1-.6-.2-.8.4.6.4-.3.2v.3l-1.9-.1-.3-.2-.2-.3h-.6l-.5.3.2.2.8-.3-.6.4v.9l-.2-.1v-.3l-2.4-.2.4-.3-.1-.3-2.3-.6-1.2.2v-.3l-.1-.3-.5.6-.5-.8-.2.1-.4.5-1.4.7.1-.2,1.2-.8h-.3l-1.2.6-.3-.1-.5.4.1.2-5.9-1.1-.1-.2h-.6l-.2-.2-.4.1.1-.2-.3-.1-1.2.5.1.2-.8.1-.4.4-.1.4-.9.2-.1.3.9.9h.6l.1.3.4.1-1.1.2V71h-.4l-.2.2h-.3l-.5.3.5.2-.1.2.3.3h1l.6-.3-.1.3v.5h-.4l-.2.3-.4-.1-.1.4-.3.3-.2.4.3.2v.4l.4.5.4-.1.2-.2.1.8h1.1l.1-.2h.4l-.1.8-1,1-.5.1-.3.4,3.3-2.4-.3-.2,1.2-1.3.2.1v.2l-.4.1-.1.4v.3l-.1.2.1.1.7-.5h.5v-.2l-.2-.2.1-.2.7.1-.2.1v.1l.5-.1.1.1,1.1.1.3.2.4-.2-.1.2,1,.7.2-.2.3.2v-.3h.1v.5l-.3-.1-.2.1.6.9v-.4l.2-.1v-.4l.2.3-.1.3-.2.1v.4l.1-.1.2-.1.3.3-.1-.2v-.2l.3.4-.2.2-.3-.2.1.7.1-.1.2.1.1-.2.2.1.2-.1v.3h.1l.1.2-.1.2.1.3h.3l.1.2.4.3.1.6.9.4.1.2.5.1.3.4.1.4-.1.4-.2-.6v-.2l-1-.9-.8-.2,1.1,1,.5,1.2v3.8l1.2,1.9,1.1.7,1.5,2.7h-.3l.8.6.1.5.8.9.2-.1-.1-.3-.3-.1-1-1.9v-.2l-.3-.1-.3-.9h.1l.5.2.1,1,2.6,3.2v.3l-.1.1.3.5,2.5,1.3h1.3l.4.3.4.4,1.2.4.1-.1h.1l.1.3.5.6v.2l.1.3h.2l1.4,1,.3-.1-.1-.2.2-.2.4-.2.4.8.1,1.5-.5.7v.1l-.2.1L273,103l.2.2h.2l-.2.3-.3.4.1.6-.1.1,1.9,3.6,2,1.5-1.4,11,.2.3.2-.7.1-.2.1.2-.1,1.7-.2.1v.3l-.2-.1.2-.3-.2-.3.1.3-.4.3v.2l-.2.2h.5v.2l-.1.3h.3v.2h-.4l-.2.2.1.2.2-.1h.1l-.4.4.2.3.3-.4-.1.6-.2.3v.2l.4-.1.1.1-.2.2h.3l.2.1-.3.1-.1.2.3-.1h.5l-.6.3v.2l.7-.2-.4.4-.4-.1v.3l.5.2-.1-.1.7-.8-.1.4h.3l-.2.2v.3l-.1-.3-.1.3-.2-.1-.3.3.3.1.2.4.1-.3.2.4.1-.1.4.3v-.3l1.1-.2-1.1-.8v-.2l-.1-.2-.3-.2v-.1h.3l-.2-.7.1-.4,1.1-1.3.1-.4-.4-.1-.2-.6.6-.4.4-1.2.2.1.1-.3-.2.1-.2-.1-.1-.7.6.2.4-.2V119l.1-.2.9-.1.7-.4.3-.5-.7-1.1h.1l.6.2.8-.1,1.1-2v.5l.8-1.2.2-1.5,1.4-1,.9-.1,1-2.1.1-2,.1-.1.2.1,1.1-1.7-.1-1.2-.3-.6Z" fill="gray"/><path d="M275.4,93.7,273,92.5l-1.2.6.6-.4,1.7.8.1.3Zm-1.5.8.7.2Zm4,0h0Zm-8.6,7.6.3.4ZM294,66.8h-1.4l.1-.6,1.3.4.2-.5-1-.9h.6l.3-.4h-.9l-.1-.3.1-.3.8.2.6-.2-.5-.4.8-.2.1-.2-.6-.5.6-.1-.2-.7-.6-.2-.3-.3,1.5-.1-.2-.5-.6-.1.5-.1-1-.1.2-.8,1.2-1-.2-.3-.6.2.5-.3.8-.2-.6-.2,2.2-1-1.2-.4-.7.5h-.8l-.3-.1-1.3,1,.6-.8-.2-.6-1.6.8.7-.6-2.6.3,4-1-5.6-.7-.6.4-2.7.1.3.3-.6.3.9.6-2.2-.6.4.5-.4.1-.7-.4v.5l-.3.3-.2-.8-2.5.7.1.6-.7-.1-1.6,1.1.9.1-.3.7-2.5.9.3.3,2,.5-1.8.3.7.2v.3l.4.2,1.8-.2,1.7.7,1.3,2-.2.5.1.6.6-.3.1.4.7.4-.2.1h-.9l.9.5.4.4-.1.5-.5.1-.5.9.3.3-.3.4.5.5.1.7.8,1.5,2.2,1.3.2-.3.2-1.3.6-.8v-.3l.1-.2v-.5l.8-.7h.2l.1.2.6-.2,1.3-1.3,3.5-1.5Z" fill="gray"/><path d="M283.3,67.6l-.3-.3-.6-.1-.1.3.4.3Zm-14.2-3.8,1,.3.2-.1h2.9l.3-.6-3.5-.2.1-.4-1.7-.5-.9.2,1.6.7Zm4.3,9.4.1-.4Zm-7.9-5.3h.5l-1.1-.8-.3-2.1-.6.2.4.4-.5-.2-.4.1.3.9-.2.2-.3-.6-.7-.3.3.3-.4.1-.7-.4-.2.4-.3-.2.1-.4-1.5.7-.1.3.3.5.8-.2-.9.5,2.2.4-1.9.4,2,.9,1.6-.6,1.8.2-.2-.4h-.3Zm6.6,5,.6-.5ZM282,79l-.2-.1-1,2,1.3-.1v.3l.3-.1.6.1-.2-.5-.1-.1v-.4l-.6-.2-.1-.2h-.3v-.3Zm-3.1.8,1,.4Zm-5.7-8-1.6-1.2-.4.3-.4,1.1h.5l.1.3.6-.4Zm-8.1-7.9-.3-.2Zm9.9,5.5v-.6l-.4-.1-.3.6Zm-8.4-2.7.6-.2.5-1h-.3v.1l-.4-.1.4-.5-.2-.3-1.3.5.4.4-.7-.1Zm-8.3.6,2.6-2-.4-.4-1.6-.4-1.1.3.2.3-.6,1.3Zm11.6-5.6-.3.3Zm-10.2,2,.5-.4Zm-4.8,14.5.5.9-.2-.6Zm13.8-16.6-1,.2Z" fill="gray"/><path d="M276.4,66.4l-.5.1-1.6-1-.4.4-.2-.1-.6.2v-.7l-.2-.4h-.7l-.8.4.2.5-.2.4.3.3-.6-.2v-.6l.2-.5.3-.4-1.4.4-.3,1.4.8.2-.1.2H270l2.6.7.3-.2.8.1v-.4l1.2.9-.4.3.6-.2.8.8v.7l.6-.1.6.3-.6.3-.8-.4-.1.7-1.3.4-.2.5,1.6-.2.4.4.2.6,2,.7-1-1.1,1.5.2-1.1-1.6.1-.5.5.2.5.6.7-.4.5-.5-2.4-1.6.5-.1-.5-.3.2-.2-.1-.3-.3.2.1-.4-.8-.3-.5.1-.1-.1Z" fill="gray"/><path d="M273.1,64.8l.2.5.5.1.8-.1-.8-.5Zm-10.2-3.1-.2-.2-.9.4.5.3Zm1.8-1,.5.2-.6.2,2,.3-.1-.4-.8-.6-1.2-.1Zm-3.1,1.1-.5-.1Zm3.2.4-.5-.5Zm-4,.9.1.3-.3.3h.3l-.6.3h.9l.3-.1h.7l-.5.3-.1.4,2.6-.6.1-.8-.4.2-.7-.8-.3.4v.3l.3.3-2-.8Zm-2.3.4.6-.3.2.3.7-.8.1.3.6-.3v-.3l.2-.2-.2-.1-.2.1H260l-1.6,1.1Zm3.6-2.1,1-.2-.7-.2-.7.3Zm5.6-1.6.3.4h1l-.6.3,1.3.7h.5l.7-.9.6-.2-.7-.4-.1-.4-2.3-1v.2l-.5.4.1.4Zm-.2,1.7.6-.1v-.3l-1.1-.4Zm-.7-1.7-.4-.2Zm1.6,3.7-.9.4,1.1.3Zm-2.2-1,.1.4-.4-.1-.1.3h-.3l-.5-.6-.1.5.6.5.8-.1-.1.5h.8l.3-.3-.1-.4-.4-.6Z" fill="gray"/><path d="M269.5,57.9l.2.1.2.1-.1.3.3.2h.9l.1.2,2.5-.4v.3l-1.2.3.5.6-1.7-.5v.7l1.3.9-.9-.2-.9.5h.8l-.1.3.4.5-.4-.1-.6-.3-.1.6-.7.5,3.9-.1.2-.3-1.2-.1.1-.3h.9v-.4l.7-.1.7-.9-.9-.2.8-.2.4-.4h.7l2.5-1.7h-1l1.9-.6.1-.4-1-.4-.7.2.1-.3-6.8.8-.6.5-.5-.1-.3.3-.7.1ZM243.8,78.3l.5-.2Zm4-2.3-.3.4-.2.1.1.3h.2l.5-.4-.2-.2.3-.1-.1-.2Zm-4.5-1-.3.1.4.2.1-.3Zm59.8,9.3-.3.1Zm8.1,1.8h-.8l-.2.1.5.1Zm2.7.1.2-.2v-.1l-.5.2-.2.3ZM296.5,70.8l.5-.5-.4-.8h-.2l-.4-.2v.3l-.6.1-.2-.1-.2.2-.2-.1-.1.1-.1.2-.2.2-.1-.4-.5-.4v.3h-.1l-.2.1-.2.2.8.1-.1.2-.6.3h.5l.2.3-.3.3.5-.1.6.3Zm2.1,7.6,1-.4V76.9l.3-.2-.2-.4-.9.2.2.2-.3.1h-.4l.2.6v.4l-.3.3Zm1-4-.2.4Z" fill="gray"/><path d="M299.6,74.9l.2.3-.1.3.2.2-.3.3.2-.2.2.3.2-.3V76l-.1.5.5-.1.2.5v.4h-.4l-.1.1-.1.2.2.2-.3.3.1.1.6.1.1.1-.4.1-.5.6.3-.1h.2l.2-.2.5-.1.3.1.9-.4-.1-.1v-.2l.3-.4-.6-.2v-.2l-.8-1.4-.4-.1.4-1h-.6l-.1-.1.2-.4.1-.2-.2.2h-.4l-.4.7Zm6.5,1.5.3-.3.1-.5-.1.1h-.2l-.2.1.1.3-.1.2Zm2.5-1.9-.2.5Zm1.4-.7h0Zm-.3.5.4-.3h-.2Zm-1.3-16h1.3l-.7.3,1.3.3,1.3-.9-1.2-.2-.2.2-.2-.3-.1.4-.3-.2h-.3l-.3-.2v.2l-.3-.1V58l-.3-.2-.1.2.2.1Zm-2.5,1.4.3.2-.5-.6Zm.4-.8-.2.5.3.4h.5l.4-.5v.2h.4l.1.1-1,.5.3.1h.8l-1,.3.3.4h.4l-.2.1.3.2.2-.1.9-1.6.4-.1.1.1v.3l.2.1-.1.4.3.1.2.2.8-.5-.5-.2-.1-.1-.3-.1-.2-.2-.1-.3-.9-.3-.1-.3-.3.1.1-.3-.4-.1-.2-.2-.1.4.2.6-.6-.7-.2.4h-.1l-.3-.2.4-.1-.3-.1h-.5l-.3.2V59Zm46.8,22.4-.3.2-.2.5v.3l.3-.2-.2-.3.9.1.8-.4.6-.7-.7.2-.8-.6-.3.1Zm-4.2,5-.2.3.2-.2.2.9.4-.7v-.2l-.3-.2Zm2.4-1.6-.2.4-1.3.2-.5.5V86l1.3-.4.1.4h.5l.1-.3.1-.1h.8l.2-.3h.3l.2-1.3.4-.4-.2-1.1-.5.1-.2,1.1-.6.8-.2-.2Z" fill="gray"/><path d="M350,86.4l.3-.1.3-.4h-.4l-.3.1-.1.6Zm-4.6,5,.4-1.3-.6.6ZM341.5,93l.2-.5h-.4l-.4.5Zm5.6,3.9-.4.4-.3-.1-.5.3-.1.4.6-.3.3.7.4.2V98l.4-.2-.1-.9ZM345,94l.2.9,1.2.6.4,1,.3-.4-.1-.5-.7-.6-.5-.1-.2-.4.3-.6-.1-.8h-.5l-.1.9Zm.2,1.2.4.5Zm-.6,1.5-.5.6.7-.7v-.4Zm2.2,0-.3.2Zm-.4-.4-.6-.5v.6l.2-.1.1.7.4-.6Zm10.5,6.4-.5.3h-.8l.6.3.8-.4.1-.4Zm.5-.1-.1-.4h-.2Zm-2.1.6-3.7-1.8-.9.7-.4-1-.9-.1-.3.3.2.1.2.3h.6v.1l-.6.1.3.4,2,.7.2.5v.3l-.4.4.9-.1.8.5.6-.6.8.2.8.8.8.1v-.2l-.7-.5-.3-.9Zm-24.5-6.1-.1.9.2.6.5-.6Zm-11.4,9.1-.1.1-.1.3-.4.4v.2l-1.2.7-.3,3.1.2.7.6.2.4-.1,1.1-4.1h.2ZM321,96.1l.4-.1Zm33.9,22.8-.7-.1.2.8.5.6.2-.2.1-.2.2.1.1-1.1Zm-6.1-13.2.5-.1Zm2.3,10.7h0Zm6.4-3.7-.1-1-.8-.9-.1-.5-.2-.1h-.2l-.3-.9-.9-.5-.7-2.1-.3.1-.4-1.6-.3.3-.3,2.2-.3.4-1.8-1.1.1-.5.3-.2.1-.3-.1-.2-.1.2-.2-.3-.3.2-1-.5.1.3-.6.2-.5.8v.3l-.4.1-.6-.5-.2.1-.2.2H347l-.1.2-.2.1v.4h-.3v.3l-.1.2-.1-.3-.3.2v.5l-.6.6-2.2.9-.2.3-.1-.2-.1.3-.1,1.1.2.6-.2-.3.1.3-.3-.2,1.1,2.7-.1.5-.2.4.1.2.2.3.8.1,4.9-1.7,1.1.4v.2l.3.4.1.4,1-.8-.4.9h.3l.2-.1v.4h.3l.5,1.1,1.1.5.5-.3h.1l.1.2.1-.1.4.3.5-.5.8-.2Zm5.3,9.2.2-.1ZM319.3,67l.7-.2-.4-.3Zm1.4-2.1.1.3.1-.1.8.5h.9l-.5-.5-.1-.9,1-1.6,3.8-2.1-4.5,1.4-.4.9-.3.2-.1.5-.6.4.1.3-.6.5ZM335,56.3l-.5.1Zm18.9,6.4-.5-.5-.6.3Zm-.9-.8-.3.2Zm-17.1-4.4-.3.3,1.7.6.4-.8-.8-.4Zm1.7,1.6,2.2-.6-.5-.4-.5.2v-.2l-.2-.3-.4.2-.1.3-.3.2Zm14.3,2.3,1.6-.1-.1-.5.7.5.3-.4-.1-.4-.8-.1-.5.2-.8-.4-.6,1ZM353.8,76l-.3-.5-.2,4.4.3-.2.3.3-.3-.9.1-.7h.4l.1-.1ZM342.3,62l-.3.2.7-.1Zm13.5-.6.9-.2-1.5-.4-.3.3Zm-20.5-4.3-.1.2-.2.2.3.2,1.4-.7.1-.3-.4-.6-.9.5-.2.3Z" fill="gray"/><path d="M370.7,67.9l.4.1-.1-.1h.3l.2-.3-1.2-.6H370l-.1.3-.2-.1v-.4l-.1-.2-5.3-1.8-.1.3.2.3-.1.4-.9-.5.5-.2-.5-.2-.4.4h-2.1l-.1.4-.1-.4-.5-.2.1-.3-.6-.6-2.3.1-.1-.2-1.1-.4v-.1l.3-.2-1.2-.2-.2.4h-.4l.3-.2-.4-.1.2-.1h.4L353,63l-.1.2-.7.4h.3l-.1.2.1.3h-.7l-.1.1v.2L351,64l-.4.2-.8-.2-.4.8-.2-.1-.9-1h.4l-.2-.9-.3-.2h-.6l-.7-.4-.4.4v.3l-1.8-.1.2-.2H343v.2l-.1-.4h-.2l-.4.1-.4-.2-.4.3.2.1-1.6.6.1-.3,2-1.2.2-.2.4-.2.2-.3-.2-.1.2-.1-.1-.4h-.2l-.1-.3-1.5-.1-.2.2-.5.1.3-.4-1-.1.5-.2v-.2l-.7-.2-.5.1-.7.7.1.2-.8.2.2.2-1.1.1.1-.2-.3.1h-.2l-.6.2.2.2-2.2.7-.1.1-.1.1.1.1h-.3l.4.3h-.3l.3.3v.2l-2.1.3-.1.7.5.3.2.4-1.7-.6-.2.2.4.2-.7.2.8.6-.1.1-.4-.2h-.6l.1-.7-.2-.5-.2.6-.4.3-.1.3.4.6-.2,1.1h.3l.4-.1.7.2.1.3-.2.3.4.3h-.4l-.2-.3.1-.3-.4-.4-.6.2.1.6-.9,1.1h-1l-.2-.2.6.1.8-.8.2-.6-.3-.3.1-1.2-.3-.5.3-1-1.1-.2-1.1,1.6h.2l-.2.8.4.2.2.3.2.1-.2.4L323.5,66l.1.3.5.3.2.3-.1.2-.4.2V67l-.2-.2-.6.3h-.6l-.3.3h-.5l.3-.5-.5.2-.1.2-.2-.1-1.6.7-.1.4-.6.1-.3-.3v-.3l.6-.1-.2-.4-.9-.2.2.4-.1.5.3.5-.1.3h-.2l-.1-.1-.4-.1-.9.6.2.7-.8-.1-.4-.3-.2.2.1.2.4.1v.2l-.3.1-.6-.3-.3-.5V69l-1-.8,2.3.7,1-.6v-.5l-3.2-1.3.3-.1-.2-.1-.5.1h-.4l-.2-.2h.2l.5-.2-.2-.2-.5-.2-.4.3v-.2l-.1-.2-.4.6v-.3l-.6.5.1-.3.2-.3v-.2l-.2.2h-.3l-.1.2-.3.2-.1.4-.1-.3.3-.4-.4.1v.3l-.1.1h-.3l.2.2h-.2l-.2-.1-.1.1.1.3-.1-.1h-.2v-.2h-.2l-.1.1v.2l-.1.1-.4.1-.2.3h.2v.2h-.2l-.2-.1-.2.1.1-.3-1,.9h.1l1.1-.4v.2l-.1.1-.1-.1-.8,1.1-.1.3-.3.1v.7l-.5.1.2.2-.4.2-.4.6-.2-.2v.2l-.5.3.2.2h-.3L304,72h-.1l-.2.2.1.2-.1.7.2.1.3-.1.1.1-.2.2H304l-.1.1v.2h.4l-.3.3.4.3.4.1.7-.6.2-.1.1-.3.9,2.5h.3l.2-.4h.3l.2-.2.1.1.2-.4h-.1l.1-.9.7-.9-.3-.4-.3-.1v-.5l.6-1.2.9-.7v-.4l.1-.3.2-.2h.6l.3.1.1.3-1.4,1.6v1.4l.9.4,1.4-.4.2-.3-.2.3.2-.1.2.3.3.1-2.1.5-.2.2.1.3.2.1.1.2v.4l-.3.2-.3-.4-.3.2-.2.7v.6l.1.1-.1.2h-.4v.1l-.2.1-.2-.2-1.4.6-.2-.1v-.2l-.7.4-.6-.4-.2-.3h.4l-.1-.2h-.2l.1-.3.2-.1-.2-.2V75l-.5.3v.2L305,75l-.2.3.3,1.5-.2.2h-.5v.1l-.5.1-.1.3h-.2l-.2.1-.4.7-.4.2-.8.9-.4-.2-.2.2v.4h-.3l-.2-.1-.3.1-.2.2v.3l.8.3.5.8-.2,1.2-2.2-.2-.3.2v3h.7l.4.5.1-.1,1-.2.9-1v-.6l1-.9.1-.3v-.1l.3-.4.7.1,1.1-.6,2.5,2.3v.8l.4-.6-.2-.3.3-.2h.3l-2-2v-.4l.2-.2h.2l.1.3.3.1.3.6,1.2.8.1-.2-.1.2.1.9.2.3.2.3.6.2h-.4l.3.6.3.2-.1-.4h.2l-.2-.2.1-.1h.3l-.1-.3h-.3l.1-.2-.3-.5.2-.1h.3l.1-.3.2.1.3-.2.5.2.3-.2.5-.1-.3-.2-.2-.6.4-.4V82l.4-.6.5-.7.4-.1v.3l.6.1-.5.3.4.2v.3l1.1-.4-.4-.1-.3-.3,1.6-.6-.4.3.1.2-.5.5,1.6,1.2.1.4-.1.1-1.3.3-1.3-.5-1.9.5-.2.3-.8.1-.1.3.1.1V85l.4.4.2.1.2.3.8-.3.5.3.4-.1.3-.2.3.1.3-.1-.4,1.6.2.1v0l-.2-.1-.4,1-3.2-.2-1-.4-.8.5v.5l-1.2-.2-.6-.5-1.1-.2-.6-.4.3-.3.1-.9v-.1l-3.4.2-1.3.8-1.4-.3-.4.8-.5.3-.5.7V89l-2.6,4,.3,1.1-.3,1.5.5.4v.4l3.1,3.3,1.8-.2.3.1,1.9-.8.5.1.5.8.9-.2.1.2.3.1.1.4-.1.4-.1.5-.1.1.1.2-.3.4,1.6,3-.1.4.2.9-.7,2.5,2.3,7.3.3.3,2.4-.6,2.1-2.4.2-.9-.1-.2,1-.8-.1-1.9,2.1-2.1-.7-3.6,4.5-7.4-.2-.1-2.5.5-.2-.2-.1.1.1-.1-.2-.1.2-.2-3.9-7.8.6,1,.2-.6,3.1,7,2.9-1.1.3-.4,1-.3.1-.3.4-.1.2-.4.2-.1.1-.6.6-.7v-.2l-.3-.4L322,91l-.3-.9-.4.6-1.1.5h-.1l-.2-.3v-.6l-.2.4-.9-2v-.1l.7-.2.6,1,1.3.6.6-.2.3.5,3.5.2.2.5.7.5h.4l-.5.2.8.7.5-.6,1.7,6,.7-.7.6-2.6,2.1-1.9.1-.4,1.5-.7,1,2-.1.7.2.2.4-.1.3-.4.2.2,1.5,5.7,1.1.8-.2-1.4-1.5-2,.2-1.5.3-.1.7.5.1.4h.2v.2h.3l.2.2-.1.4.2.2.5-.7.7-.3.3-.6-.1-1-1.2-2.1.7-.9.6-.1.2.5.1-.2,1.2-.8,1-.1,1.2-1.2v-.5l.3-.1.7-1.3-.5-.2.4-.2-.6-.5h.5l-.6-1.1-.3-.2.3-.6.8-.4-.2-.3-.4-.2-.5.4-.2-.3-.4-.1v-.5l1.5-.8-.3.9h.3l.7-.4h.2l.4.2-.2.5.1.2.2.1.3-.1.1.1.1.2-.1,1.3,1.1-.5.2-.2-.5-1.3-.3-.3.1-.4.6-.5.1-.5.5-.5.3-.2.4.3,2.4-2.8.7-2.8-.7-.6H352l-.2.3h-.2v-.4l-.2.3v-.4H351v-.3l3-2.7,2.5-.2.5.2-.2.3,1.4-.3-.1-.1v-.3l1-1.1.6-.1.2.1.3-.1-.2.4.2.2-.1.2,1.1-.6.1-.4.6-.3v.1l-2.7,2.9-.3.1-.5,1.5.4,2.5.6-.6.1-.4.3-.2.3-.1V76l.4-.4.4-.1-.1-.4.3-.5h.3l-.2-.3.1-.7h-.2v-.4l.6-.9h.3l.1.1.4-.4.1.4.3-.2.9-.1.3.3.2-.3,2.5-1.5h.7v-.3l-.8-1.1-.3-.1.4-.1.2.2h.4l.5-.3.1-.2-.1-.2v-.2l.1-.1h.2v.2l.1.3,1,.2.3.3.6.2h.4l-.2-.2h.2v-.6l.1-.7Z" fill="gray"/><path d="M327.9,63.5l-.4-.2-.2.3Zm2.9.1-.3.1ZM274.1,91.7l-.2.1.3.4Zm5.7,6.2.3-.1v-.2l-.3.1Zm60.9,4.2-.2.1Zm5.6,2.3.1-.1-1.5.2.6.1Zm-2.2-.1h-.3l-.2.2.5.1.6-.1Zm2.8.5v-.1l.9-.4h-.6l-.6.4-.2.4Zm1.1-2.7,1,.3-.2-.4Zm-2.7,3-.6-.2.3.1Zm2-2.9.4.1Zm-2.7-.3.4,1.3.2-.4-.1-.7.3.1.1.5h.4l-.2-1.1.6-.5-.8.3-.4-.4,1.8-.8-.4.2-.9-.1-.4.2Zm3.5-1.7-.3-.1.2.9.3-.7Zm-11.5.2.2.3Zm.6,1,.1.3Zm5.7,3h.5l-.4-.2-.6-.1.3-.3-2.8-.3-.2.2.3.1.2.2Zm-2-3.8.9,1.6.3.1.5-.1.4.3.6-.1.5-1.6.5-.4-.5-1.3.7-.4-.3-.3-.3-.1-.4-.3-.5.9-.2.1-.3-.1-.3.6-.5.2-.3.5-.6-.1Zm-1,2.1v-.4l.2-.1v-.3l-.3-.3-.1.2.2.2-.3-.1L336,98.7l3.3,4.6h.4ZM307.2,84.9l-.5.1-.3.1.8.5.3-.6Zm-2.3-1.2.2.9.3-.2.1-.6-.4-.2Z" fill="gray"/><path d="M265.3,78.9a4.31,4.31,0,0,1-4,4.4,4,4,0,0,1-4-4.1,4.37,4.37,0,0,1,4-4.4A3.91,3.91,0,0,1,265.3,78.9Zm6.3,17.5a1.92,1.92,0,0,1-1.9,2,1.9,1.9,0,0,1-1.9-1.9,1.92,1.92,0,0,1,1.9-2A1.78,1.78,0,0,1,271.6,96.4Zm45.7-1.3a7.27,7.27,0,0,1-6.9,7.3,6.87,6.87,0,0,1-6.9-7,7.27,7.27,0,0,1,6.9-7.3A6.81,6.81,0,0,1,317.3,95.1Zm13.6-26.7a3,3,0,1,1-3-3A3,3,0,0,1,330.9,68.4Zm7.2,17.7a3.61,3.61,0,0,1-3.4,3.6,3.37,3.37,0,0,1-3.4-3.4,3.61,3.61,0,0,1,3.4-3.6A3.37,3.37,0,0,1,338.1,86.1Zm14.2-20.2a3.08,3.08,0,0,1-2.9,3.1,2.84,2.84,0,0,1-2.9-2.9,3.15,3.15,0,0,1,2.9-3.1A2.84,2.84,0,0,1,352.3,65.9Z" fill="#6366f1"/></g><g id="be1ed08f-d5c5-4ebd-a861-be9f3fe20434" data-name="Plants"><path d="M456.6,342.8,47.2,313.9m21,1.2v-46m38.7,48.5V272.8m44.9,48.5V275.2M201.5,325V276.4M253.1,328V276.4m51.6,54.1V281.4m55,56.1V284.4M422,339.7v-51m34.6,61.2L45.9,319.4M443.7,470.6,456,472M44,424l386,45" fill="none" stroke="#263238" stroke-miterlimit="10"/><ellipse cx="340.1" cy="470.7" rx="26.5" ry="8.2" fill="#6366f1"/><ellipse cx="340.1" cy="470.7" rx="26.5" ry="8.2" fill="#fff" opacity="0.5" style="isolation:isolate"/><path d="M318.7,427.1a34.19,34.19,0,0,0-4.8,18c0,15.3,9,27.7,20.1,27.7s20.1-12.4,20.1-27.7a34.45,34.45,0,0,0-4.8-18Z" fill="#fff" stroke="#263238" stroke-linecap="round" stroke-linejoin="round"/><path d="M349.5,427.8c.1,2.5-6.7,4.5-15.2,4.5s-15.6-1.9-15.7-4.4,6.7-4.5,15.2-4.5S349.4,425.3,349.5,427.8Z" fill="#fff" stroke="#263238" stroke-linecap="round" stroke-linejoin="round"/><path d="M348.3,429.6c-2.6-1.5-7.9-2.5-14.1-2.5s-11.7,1.1-14,2.7c2.6,1.5,7.9,2.5,14.1,2.5S346,431.2,348.3,429.6Z" fill="#263238" stroke="#263238" stroke-linecap="round" stroke-linejoin="round"/><path d="M296.7,296s1.9,3.5.2,6.8-3.7,6.6-2.5,8.3,5,3.7,4.6,7.3-5.4,10.6-2.3,14.5,8.3,3.7,8.5,8.1-5,7.9-3.5,11.8,9.9,4.8,9.9,7.5-3.3,5.6-.6,8.5,15.7,10.5,17.6,7.4,5.6-11.7,3.1-23.9c-.4-2.1-3.3-2.5-3.7-5.4s.8-8.1-1.2-11-8.7-3.9-9.1-6.2,2.5-7.9-.4-11.4-9.7-5.2-9.7-7.5,2.1-5.2-.8-8.3-10.1-6.5-10.1-6.5Z" fill="#6366f1"/><path d="M306.7,320.4c4.3,13,11.9,30.7,14.9,39.2,3.7,10.4,7,17.9,8.6,28.2.8,4.8,1.4,22.4,1.8,39.8M297.8,297.3s3.5,2.9,6.6,15.5c.2.8.4,1.7.7,2.6" fill="none" stroke="#263238" stroke-linecap="round" stroke-linejoin="round"/><path d="M361.5,319.6a6.62,6.62,0,0,0-.2,5.5c1.3,2.7,3,5.3,2,6.6s-4,3-3.6,5.8,4.3,8.5,1.8,11.6-6.6,3-6.8,6.5,4,6.3,2.8,9.5-8,3.8-8,6,2.7,4.5.5,6.8-12.6,8.4-14.1,5.9-4.5-9.4-2.5-19.1c.3-1.6,2.7-2,3-4.3s-.7-6.5,1-8.8,7-3.2,7.3-5-2-6.3.3-9.1,7.8-4.1,7.8-6-1.7-4.1.7-6.6,8-5.3,8-5.3Z" fill="#6366f1"/><path d="M353.6,339.2c-3.5,10.4-9.5,24.5-12,31.4-3,8.3-5.6,14.3-6.9,22.6-.7,4.1-1.2,20.1-1.5,35m27.5-107.6s-2.8,2.3-5.3,12.4c-.2.7-.3,1.3-.6,2.1" fill="none" stroke="#263238" stroke-linecap="round" stroke-linejoin="round"/><path d="M304.5,366.6a5.65,5.65,0,0,1,.1,4.6c-1.1,2.2-2.5,4.4-1.7,5.5s3.3,2.5,3,4.8-3.6,7.1-1.5,9.7,5.5,2.5,5.7,5.4-3.3,5.3-2.4,7.9,6.7,3.2,6.7,5-2.2,3.7-.4,5.7,10.5,7,11.8,4.9a22.8,22.8,0,0,0,2.1-16c-.3-1.4-2.2-1.7-2.5-3.6s.6-5.4-.8-7.3-5.8-2.6-6.1-4.2,1.7-5.3-.3-7.6-6.5-3.5-6.5-5,1.4-3.5-.6-5.5-6.6-4.3-6.6-4.3Z" fill="#6366f1"/><path d="M311.1,382.9c2.9,8.7,7.9,20.5,10,26.2,2.5,6.9,4.7,11.9,5.8,18.9m-21.7-60.6s2.4,1.9,4.4,10.4a15.43,15.43,0,0,0,.5,1.7" fill="none" stroke="#263238" stroke-linecap="round" stroke-linejoin="round"/><path d="M375.9,363.1a5.3,5.3,0,0,0-1.2,4.4c.6,2.4,1.4,4.9.4,5.8s-3.8,1.7-4.1,4,1.9,7.7-.7,9.8-6,1.2-6.8,4,2,5.9.5,8.2-7.2,1.6-7.6,3.3,1.3,4.1-.9,5.6-11.8,4.4-12.6,2.1a22.72,22.72,0,0,1,1.6-16c.6-1.3,2.6-1.1,3.3-2.9s.7-5.4,2.5-7,6.3-1.2,6.9-2.7-.4-5.5,2-7.4,7.1-1.9,7.5-3.4-.6-3.7,1.8-5.3c2.3-1.4,7.4-2.5,7.4-2.5Z" fill="#6366f1"/><path d="M365.7,377.5c-4.8,7.8-12.4,18.1-15.7,23.2-4,6.2-8.8,10.1-9.9,17-.3,2.1-.6,6-.9,10.4M375,363.8s-2.7,1.3-6.7,9.1c-.3.5-.5,1-.8,1.6" fill="none" stroke="#263238" stroke-linecap="round" stroke-linejoin="round"/></g><g id="b3ebafde-0e48-41dc-b32f-61a03cf6cd33" data-name="Character 2"><ellipse cx="165.7" cy="478.7" rx="41.3" ry="12.3" fill="#6366f1"/><ellipse cx="165.7" cy="478.7" rx="41.3" ry="12.3" fill="#fff" opacity="0.5" style="isolation:isolate"/><path d="M121.9,331.6s1.7,15.1,2.4,22.9,2.7,30,2.4,32.7-2.7,30.6-2.7,41.3,1.5,25.9,1.5,25.9-2.4,4.1-2,6.3a33.47,33.47,0,0,1,1,5.6,12.92,12.92,0,0,0,.5,2.9s3.7,2.4,5.9,2.7,6.6-1.2,6.6-2,2-8,2-10.7,0-1.7.7-5.4,8.5-54.2,9.5-58.9,2.4-39.5,2.4-39.5l1.7,3.2s4.1,37.3,3.9,41.5-1.7,20-1,27.3,2.2,25.4,2.2,27.3-.5,6.3-.5,8-1.5,4.4-.7,5.6a25.1,25.1,0,0,1,1.5,3.7s8.8,1.5,11.2,1.5,4.4-2.2,4.4-2.2v-4.1c0-2.2.5-4.1.5-6.3s.2-6.8.2-10.2a76.44,76.44,0,0,1,1-9.8c.2-2.2,3.7-27.8,4.1-37.3s2.7-31,2.7-34.4-.2-35.4-.2-35.4l-.5-5.9s-25.6,3.4-37.8,1.7-22.2-2.2-22.2-2.2l-.7,4.2Z" fill="#263238" stroke="#263238" stroke-linecap="round" stroke-linejoin="round"/><path d="M138.5,466.1a5.16,5.16,0,0,1-2,1.1c-1.3.4-2.2.7-3.2-.8s-3.2-3.2-5-2.4-3.8,2-4.2,3-.1,10.8-.1,12.6,3.6,2.7,7.3,2.8a12.11,12.11,0,0,0,6.5-1.9s3.1.3,4.2-1.1.5-4.4-.1-5.5-1.2-2-2.2-3.9a9.65,9.65,0,0,1-1.2-3.9Z" fill="#fff" stroke="#263238" stroke-linecap="round" stroke-linejoin="round"/><path d="M141.8,479.4a3.22,3.22,0,0,0,.6-1.8c-1.8.8-3.9.3-4.6.4-.9.1-3.1,1.6-7.9,1.3A17.88,17.88,0,0,1,124,478v1.5c0,1.9,3.6,2.7,7.3,2.8a12.11,12.11,0,0,0,6.5-1.9S140.8,480.8,141.8,479.4Z" fill="#6366f1" stroke="#263238" stroke-linecap="round" stroke-linejoin="round"/><path d="M137.1,480.5l.6-6.4" fill="none" stroke="#263238" stroke-linecap="round" stroke-linejoin="round"/><path d="M134.3,467.4a3.33,3.33,0,0,1-1.1-1c-1.1-1.5-3.2-3.2-5-2.4a11.39,11.39,0,0,0-3.8,2.5c.6,1.7,2,4.6,4.8,4.8C131.5,471.4,133.2,469.4,134.3,467.4Z" fill="#6366f1" stroke="#263238" stroke-linecap="round" stroke-linejoin="round"/><path d="M175,469.2a5.39,5.39,0,0,1-3.1-.1c-1.1-.7-2.7-4.7-6.3-4.3s-5.2,3.8-6,4.2a2.46,2.46,0,0,0-1.2.9c-.3.4-.4,11.3-.3,12.4s7.8,2.1,12.5,1.6a10.83,10.83,0,0,0,6.7-2.8,3.75,3.75,0,0,0,2.4-3.2c.3-2.4-.5-5.1-1.9-6a19.83,19.83,0,0,1-2.4-2Z" fill="#fff" stroke="#263238" stroke-linecap="round" stroke-linejoin="round"/><path d="M169.8,480.8a32,32,0,0,1-11.7-1.8,24.72,24.72,0,0,0,.1,3.3c.1,1.1,7.8,2.1,12.5,1.6a10.83,10.83,0,0,0,6.7-2.8,3.75,3.75,0,0,0,2.4-3.2,5.44,5.44,0,0,0,0-1.8c-.2.4-.4.8-.7,1.3C178.3,478.6,176.3,480.6,169.8,480.8Z" fill="#6366f1" stroke="#263238" stroke-linecap="round" stroke-linejoin="round"/><path d="M175.1,476.2l-.8,6.6" fill="none" stroke="#263238" stroke-linecap="round" stroke-linejoin="round"/><path d="M166,472.7c2.4.3,5-1.6,6.4-3.4-.2-.1-.4-.1-.5-.2-1.1-.7-2.7-4.7-6.3-4.3s-5.2,3.8-6,4.2c0-.1,2.9,3.3,6.4,3.7Z" fill="#6366f1" stroke="#263238" stroke-linecap="round" stroke-linejoin="round"/><path d="M152.2,355.5l-5.9-2.9" fill="none" stroke="#636363" stroke-linecap="round" stroke-linejoin="round"/><path d="M164.5,217.9s1.5-2.4,2,.7-.7,6.6-2.4,7.8-2.4,0-2.4-1.2,2.8-7.3,2.8-7.3ZM136,219.1a2.06,2.06,0,0,0-2.7,2.2c0,2.9,3.9,7.1,5.6,6.1s-2.9-8.3-2.9-8.3Z" fill="#fff" stroke="#263238" stroke-linecap="round" stroke-linejoin="round"/><path d="M150.2,190.6s-3.8,6.3-7.8,8.1c-5.1,2.2-9.3,8.8-9,14.1s8.1,22.9,9.3,23.4,16.6-.7,17.1-1.5,2.7-8.1,4.6-15.1,2-10.7,2-10.7a22.3,22.3,0,0,0,1-7.1,12.73,12.73,0,0,0-3.2-7.8l-2.9,3.7,1-8.3a9.51,9.51,0,0,0-5.9,1.2,20.61,20.61,0,0,0-4.6,4.1l-1.6-4.1Z" fill="#263238" stroke="#263238" stroke-linecap="round" stroke-linejoin="round"/><path d="M235.8,197.2c-.4-1.1-1.5-1.1-2.4-3.4s-3.4-1.8-4.2-2.2-.7-.7-.4-1.8,1.3-4.7-.4-4.7-2.9,3.8-3.3,4.7a57,57,0,0,1-3.3,4.7,12.37,12.37,0,0,1-2.4.4c-.9,0-2,1.8-2.2,2.7-.1.6.8,2.4,1.4,3.7a23.37,23.37,0,0,0,1.1,3.2s.9,1.3,3.6.9,7.8,3.3,8.5,2.7,2.4-3.8,3.1-5.6a8.45,8.45,0,0,0,.9-5.3ZM118.4,348.9s3.3,5,3.5,6.9.2,5.6.3,6.8a1.63,1.63,0,0,1-1.4,2.1,1.79,1.79,0,0,1-1.4-.9s.2,1.7.5,3,2.3,2.3,2.1,3.5-2.1,1.7-4.7,1.7a8,8,0,0,1-7.3-5c-1.6-3.6-3.1-14.1-3.1-16S116.6,347.5,118.4,348.9Z" fill="#fff" stroke="#263238" stroke-linecap="round" stroke-linejoin="round"/><path d="M114.7,355.3s.7,1.6-.7,4a15.69,15.69,0,0,0-2.1,4.7,18,18,0,0,0,1.6,3.5c.7,1.4,3,1.2,3.1,2.4a2.66,2.66,0,0,1-.3,1.9m.6-9.1a16.17,16.17,0,0,0,.9,4c.7,1.7,4.3,2.8,3,4.7" fill="none" stroke="#263238" stroke-linecap="round" stroke-linejoin="round"/><path d="M114.7,363.5a11.67,11.67,0,0,0,.9,3.3c.5,1,4,2.1,3.3,4.9m.5-7.9s-.3-2.8-.5-3.8a21.24,21.24,0,0,1-.2-3" fill="none" stroke="#263238" stroke-linecap="round" stroke-linejoin="round"/><path d="M176.4,242.3a37.19,37.19,0,0,0-15.6-7.1c-9.8-2-22.7,1.2-27.8,4.6a13.47,13.47,0,0,0-5.6,9.3Zm40.2-29.7s-.5-2,0-2.9.7-3.9,1.5-4.6,6.1-3.7,10-2,5.9,9,6.6,10.7-1.5,5.6-2.4,6.1-2-2.9-2.9-3.9c-1.1-1-9.4-4.9-12.8-3.4Z" fill="#fff" stroke="#263238" stroke-linecap="round" stroke-linejoin="round"/><path d="M152.2,241.8c-1,.2-19.5,2.7-27.8,5.1s-15.1,5.6-15.4,8.8-7,62.3-7.3,65.7,2.2,23.2,3.4,23.9,6.8,1.2,8.8.5a7.77,7.77,0,0,0,3.2-2.2l.7-16.3s.5,5.6,1.5,5.9a110.27,110.27,0,0,0,37.3,3.2c21-1.7,29.8-4.9,31.5-6.1s1.5-4.9,1.5-4.9.2-2.7.2-5.4-7.9-56.7-7.9-56.7,32.2-8.8,34.6-11.7,14.1-34.9,14.1-37.3-5.4-6.1-9.3-6.3-13.4,19-15.6,20.5-23.2,9.8-31,11.2c-7.6,1.4-22.5,2.1-22.5,2.1Z" fill="#6366f1" stroke="#263238" stroke-linecap="round" stroke-linejoin="round"/><path d="M144.5,258.4s3.3,13,13,18.3m1.3,5.8a22.56,22.56,0,0,0,2.2,1.1m-16.5-11.7a60,60,0,0,0,10.7,8.6" fill="none" stroke="#263238" stroke-linecap="round" stroke-linejoin="round"/><path d="M183.2,273.2l-1.3-9.9-12,4.4,4.7,1.9c-2.3,2-5.2,4.8-3.4,4.5a32,32,0,0,0,6.9-3Zm-67.5,47c0-4.4,2.1-49.1,2.1-49.1l-.7-3.2-5.4-8.6,2.9,16.7c-2.3-.7-6.9-1.9-5.2.4a30.18,30.18,0,0,0,5.5,5.3l-1.6,33.1a14.47,14.47,0,0,0,1.9,7.9l1.7,2.9a12.7,12.7,0,0,1-1.2-5.4Zm1.1,5.3a11.78,11.78,0,0,0,1,1.8Z" fill="#263238" stroke="#263238" stroke-linecap="round" stroke-linejoin="round"/><path d="M188.6,324.1c-37.3,16.8-70.7,3.2-70.7,3.2s.5,5.6,1.5,5.9a110.27,110.27,0,0,0,37.3,3.2c21-1.7,29.8-4.9,31.5-6.1s1.5-4.9,1.5-4.9a9.44,9.44,0,0,0,.1-1.4l-1.2.1Zm-86.1,18.8s5.6,2.4,10.2,1,5.9-2.9,6.6-2.7.7,6.1,0,7.8-2.4,2.9-7.6,3.4-7.8-2-8.3-3.4-.9-6.1-.9-6.1Z" fill="#fff" stroke="#263238" stroke-linecap="round" stroke-linejoin="round"/></g><g id="a7d30dfc-2d4c-431e-8a70-9073ae28fb34" data-name="Character 1"><ellipse cx="82.3" cy="465.6" rx="36.3" ry="11.3" fill="#6366f1"/><ellipse cx="82.3" cy="465.6" rx="36.3" ry="11.3" fill="#fff" opacity="0.5" style="isolation:isolate"/><path d="M88.1,209.9s3,3.6,2.8,5a7.69,7.69,0,0,0,1.1,4.6c.7.9,2.7,1.6,2.7,3.2a5.54,5.54,0,0,1-1.1,3s.7,7.1,0,8.9-3.6,1.8-5.2,1.8-2.5-.2-3-.2-3.7-2.8-6.2-9.1.4-15.5,2.5-16.7S88.1,209.9,88.1,209.9Z" fill="#fff" stroke="#263238" stroke-linecap="round" stroke-linejoin="round"/><path d="M86.8,220.8l7.3-4.1m-3.2-.7s3.9-1.1,2.5,4.6" fill="none" stroke="#263238" stroke-linecap="round" stroke-linejoin="round"/><path d="M80.2,241.9l-1.1,13.3L65,251.9V241.4C65.1,241.3,75,239.1,80.2,241.9Z" fill="#fff" stroke="#263238" stroke-linecap="round" stroke-linejoin="round"/><path d="M78.8,204a21.34,21.34,0,0,1-8,.5c-4.1-.5-13.2.5-15.7,6.6s.5,11.5.3,13.2-4.7,4.1-4.7,6.6,1.9,4.7,1.1,6.6-2.2,3.6-1.1,5.5,5.5-1.4,6,.5,4.7,4.4,6.6,4.4,4.1-4.1,5.2-2.5,3.3,3.3,5.5,3,3.3-5.3,8-3.3,6.2-2.2,6-6c-.2-3.6-4.4-8.5-3.6-11.3s2.5-4.7,1.9-7.7-3-4.1-1.6-6.3,3.3-2.2,3.8-4.9-.5-6.3-4.7-6.9c-3.9-.5-5,2-5,2ZM54,344.3s3.9,22.1,1.9,43.3c-.8,8.5-5,10.8-6.1,22.1s2.8,34.2.8,46.4c-.3,1.7-2.2,5.8,0,8s9.9.8,12.1.8,7.5-.8,8-2.2-3.3-2.8-5.8-7.5a38.27,38.27,0,0,1-4.4-17.4c0-6.3,3.9-24.3,6.9-38.9s4.7-22.6,4.7-30.9V342.1c0-1.4-7.5-4.7-13.3-3.6-5.6,1.1-4.8,5.8-4.8,5.8Z" fill="#fff" stroke="#263238" stroke-linecap="round" stroke-linejoin="round"/><path d="M65.1,455.3c-.4-.8-.8-1.7-1.2-2.6-.7,1.5-1,3.3-2.4,3.7-2.5.6-10.8-.3-10.8-.3-.3,1.7-2.2,5.8,0,8s9.9.8,12.1.8,7.5-.8,8-2.2S67.6,460,65.1,455.3Z" fill="#263238" stroke="#263238" stroke-linecap="round" stroke-linejoin="round"/><path d="M61.3,444.2a33.6,33.6,0,0,1-.6-6.3c0-6.3,3.9-24.3,6.9-38.9s4.7-22.6,4.7-30.9V342.2c0-1.4-7.5-4.7-13.3-3.6s-5,5.8-5,5.8,3.9,22.1,1.9,43.3c-.8,8.5-5,10.8-6.1,22.1-.8,8.2,1,22.6,1.3,34.4A21.65,21.65,0,0,0,61.3,444.2Z" fill="#6366f1" stroke="#263238" stroke-linecap="round" stroke-linejoin="round"/><path d="M50.4,439a45.34,45.34,0,0,0,6.3.8,18.88,18.88,0,0,0,5.2-1.1l.8,7.2a35.12,35.12,0,0,1-7.7,1.4,9.52,9.52,0,0,1-4.1-.6s-.5-5.5-.5-7.7Z" fill="#fff" stroke="#263238" stroke-linecap="round" stroke-linejoin="round"/><path d="M51,323.9s-1.7,11,0,16.6,6.1,13.3,7.2,15.5,2.5,9.1,2.5,10.5,1.1,17.7-.6,25.9-3.6,13-3.6,21,3.9,37.9,3.9,43.1-1.9,11.9-.6,13.3,25.1-1.4,27.3-2.3a3,3,0,0,0,1.4-4.4c-.8-1.1-10.8-4.4-12.4-5.7s-2.8-5.8-3-7.7.6-31.5,1.7-38.2,5.5-19.6,8-26.8,6.9-32.6,6.9-41.7-.8-16.3-.8-16.3S63.1,328.6,51,323.9Z" fill="#fff" stroke="#263238" stroke-linecap="round" stroke-linejoin="round"/><path d="M87.2,467.4a3,3,0,0,0,1.4-4.4c-.8-1.1-10.8-4.4-12.4-5.7a5.72,5.72,0,0,1-.7-.8l-.7,4.4a10,10,0,0,1-6.1,2.2c-2.8,0-6.8-1.8-8.6-2.6-.5,4.2-1.5,8.4-.3,9.2,5.6,4.3,25.1-1.4,27.4-2.3Z" fill="#263238" stroke="#263238" stroke-linecap="round" stroke-linejoin="round"/><path d="M73,448.5c-.1-5.3.7-31.1,1.7-37.1,1.1-6.6,5.5-19.6,8-26.8s6.9-32.6,6.9-41.7-.8-16.3-.8-16.3-25.7,1.9-37.8-2.8c0,0-1.7,11,0,16.6s6.1,13.3,7.2,15.5,2.5,9.1,2.5,10.5,1.1,17.7-.6,25.9-3.6,13-3.6,21c0,5.7,1.9,24.1,3.1,34.1a42.78,42.78,0,0,0,9.6,1.5,11.39,11.39,0,0,0,3.8-.4Z" fill="#6366f1" stroke="#263238" stroke-linecap="round" stroke-linejoin="round"/><path d="M59.5,450.9a15.85,15.85,0,0,0,5.8,1.1c3.3,0,8.3.8,8-.8s.3-7.2.3-7.2-6.1.8-9.7.3-5.8-.8-5.8-.8S58.7,449.3,59.5,450.9Z" fill="#fff" stroke="#263238" stroke-linecap="round" stroke-linejoin="round"/><path d="M82.2,258.2a21.81,21.81,0,0,0-11.3-7.5c-7.5-1.9-14.6,9.1-16.6,15.2s-2.2,22.4-5,30.6-4.7,24.8-3.6,26.8,24.8,8,33.1,8,17.1-6.6,17.4-9.9-1.4-25.4-2.8-37.3-11.2-25.9-11.2-25.9Z" fill="#263238" stroke="#263238" stroke-linecap="round" stroke-linejoin="round"/><path d="M78.5,349.9s-.1,3.8,0,6.1a21.49,21.49,0,0,1-.8,6.1c-.5,1.5-1.6,2.5-1.7,1.5s.4-2.9.4-3.7-.3-4.7-.3-4.7-.3,2-.8,4.1-2.2,4.4-2.9,4.6-1.2-.5-.8-1.5a39.62,39.62,0,0,0,1.4-4.7V355s-1.8,5.1-2.5,6.3-.8,1.7-1.6,1.8-.7-1.5-.2-2.7a32.82,32.82,0,0,0,1.2-5.5c0-.4-.8,1.7-1.9,2.8s-1.8,2.1-2.2,1.9.2-2,.6-2.8a10.59,10.59,0,0,0,.9-3.1v-2.4s-.8-1.9,3.1-2.5c3.9-.8,7.3-1.6,8.1,1.1Z" fill="#fff" stroke="#263238" stroke-linecap="round" stroke-linejoin="round"/><path d="M64.8,347.3a3.41,3.41,0,0,0,1.2,3.9c2.1,1.4,9.4,2.5,11.8.3a6.56,6.56,0,0,0,2.4-4.4Z" fill="#fff" stroke="#263238" stroke-linecap="round" stroke-linejoin="round"/><path d="M67,261.5s-6.1,9.9-6.1,16.3-3.3,50.8-3.6,56.3.3,9.9,3.6,12.7,16.8,2.8,20.4,1.4,6.9-7.7,6.9-12.1-4.1-37-5-43.3-1.1-23.2-3.6-27.1-3.3-4.1-3.3-4.1" fill="#263238" stroke="#263238" stroke-linecap="round" stroke-linejoin="round"/><path d="M57.9,324.1s1.7-38.5,3-46.3a57.86,57.86,0,0,1,4.5-14.3m12.6.3s4.8,9.2,5,19S86.6,324,86.6,324m-4.7-50.6.8-5.6" fill="none" stroke="#636363" stroke-linecap="round" stroke-linejoin="round"/></g></svg>