<?xml version="1.0" encoding="UTF-8"?><svg id="Layer_1" xmlns="http://www.w3.org/2000/svg" viewBox="0 0 490.1 352.1"><path d="m307.76,237.8c3.03-2.2,7.37.55,9.09,3.88,2.12,4.11,2.34,9.23,6.58,12.06,2.08,1.39,4.96,1.23,6.51-.74,1.49-1.89.73-4.14-.24-6.01-2.02-3.92-4.96-7.31-6.94-11.24-2.3-4.58-3.13-10.5.75-14.41,2.59-2.61,6.88-2.89,9.31-.13,2.26,2.58,1.42,6.26,1.41,9.56,0,3.11,1.77,6.96,4.87,6.67,1.06-8.53,2.13-17.06,3.19-25.59.46-3.68,1-7.57,3.89-10.19,1.96-1.78,4.91-2.29,7.07-.77,3.41,2.41,2.11,7.76.83,11.8-1.3,4.1-1.02,10.16,3.23,10.82,5.64-11.53,11.55-22.94,17.72-34.2,1.95-3.56,4.03-7.23,7.78-9.13,1.07-.54,2.25-.87,3.45-.91,5.89-.2,7.9,5.13,7.06,9.48-.58,3.02-2.26,5.69-3.91,8.28-7.24,11.35-14.49,22.7-21.73,34.05,5.97,3.41,11.37-9.11,18.27-6.45,3.71,1.43,4.75,5.66,2.71,9.08-3.65,6.11-10.6,6.27-16.75,7.55-5,1.03-10.54,3.81-11.31,8.86l7.77-.72c4.67-.43,6.67,5.75,2.65,8.16-4.38,2.64-9.47,4.12-14.59,4.06.95,3.01,5.21,2.95,8.26,2.14,3.24-.86,7.67-1.39,8.83,2.05.99,2.95-1.08,5.86-4.13,6.48-9.84,2-35.09,13.98-44.99,3.75-4.78-4.93-8.46-11.68-11.18-17.92-.98-2.24-7.65-18.71-5.44-20.31Z" fill="#3b4eff" stroke-width="0"/><path d="m209.68,286.59c-2.5-2.79-.22-7.39,2.92-9.44,3.87-2.53,8.94-3.28,11.32-7.79,1.17-2.22.71-5.06-1.41-6.4-2.03-1.28-4.19-.3-5.96.86-3.69,2.41-6.76,5.69-10.47,8.06-4.32,2.76-10.12,4.2-14.41.74-2.86-2.31-3.59-6.55-1.08-9.24,2.33-2.51,6.08-2.06,9.37-2.39,3.09-.31,6.74-2.48,6.13-5.53-8.59-.18-17.19-.35-25.78-.53-3.71-.08-7.63-.21-10.54-2.81-1.97-1.76-2.79-4.64-1.49-6.95,2.05-3.64,7.5-2.9,11.65-2.05,4.21.87,10.21-.04,10.43-4.33-12.05-4.42-24.01-9.12-35.84-14.1-3.74-1.57-7.61-3.27-9.88-6.8-.65-1.01-1.09-2.15-1.26-3.33-.81-5.84,4.29-8.38,8.7-8,3.06.26,5.89,1.66,8.64,3.04,12.04,6.03,24.07,12.07,36.11,18.1,2.78-6.29-10.23-10.37-8.3-17.51,1.04-3.84,5.14-5.31,8.75-3.63,6.45,3,7.33,9.89,9.23,15.89,1.54,4.87,4.87,10.1,9.98,10.34l-1.52-7.66c-.91-4.6,5.03-7.22,7.85-3.48,3.08,4.09,5.07,8.99,5.54,14.09,2.9-1.25,2.4-5.49,1.28-8.44-1.19-3.14-2.17-7.48,1.13-8.99,2.83-1.29,5.94.47,6.87,3.44,3,9.58,17.52,33.46,8.37,44.36-4.42,5.26-10.75,9.62-16.67,12.97-2.13,1.2-17.82,9.54-19.65,7.5Z" fill="#3b4eff" stroke-width="0"/><polygon points="151.5 267.67 77.04 312.82 46.99 312.82 121.46 267.67 151.5 267.67" fill="#f5f5ff" stroke="#2e2e2e" stroke-miterlimit="10" stroke-width=".5"/><polygon points="443.11 267.67 368.64 312.82 99.3 312.82 173.74 267.67 443.11 267.67" fill="#f5f5ff" stroke="#2e2e2e" stroke-miterlimit="10" stroke-width=".5"/><polygon points="173.74 267.67 99.3 312.82 77.04 312.82 151.5 267.67 173.74 267.67" fill="#ffce33" stroke-width="0"/><polygon points="396.28 267.67 321.84 312.82 299.58 312.82 374.03 267.67 396.28 267.67" fill="#ffce33" stroke-width="0"/><path d="m288.7,46.3c2.21-1.87,2.01-5.03.87-7.68-1.15-2.65-4.13-4.38-7-4.06,2.3-1.62,1.99-4.93.69-7.42-1.31-2.49-4.57-3.75-7.22-2.78,2.46-1.96,2.54-5.2.94-7.9-.67-1.13-1.7-2-2.89-2.55-.67-2.6-2.17-4.99-4.35-6.57-1.75-1.27-3.85-1.97-6-2.11-2.5-1.69-5.69-2.68-8.36-1.37-7.56-2.72-16.65-.47-22.08,5.46-.91.99-1.75,2.14-1.97,3.46-.22,1.33.35,2.87,1.59,3.39-3.37-1.64-6.36-.36-8.94,2.36-2.58,2.72-3.15,7.15-1.34,10.43-2.9.1-5.23,3.5-5.92,6.32-.68,2.82.71,6.01,3.24,7.42-3.57.37-4.89,5.28-3.82,8.7.71,2.24,2.89,3.78,5.2,4.09-1.98.98-3.74,2.87-4.55,4.72-1.28,2.94-.25,6.7,2.35,8.57,2.6,1.87,6.5,1.66,8.88-.49-.81,2.25.87,5.3,3,6.39s4.74.85,6.95-.06c2.21-.92,4.1-2.45,5.95-3.96-.77.46.37,1.62.72,2.44.34.83,1.09,1.41,1.86,1.86,4.31,2.47,10.43,1.01,13.15-3.14-.14,2.96,2.14,5.74,5.11,5.83s5.73-2.58,5.76-5.54c1.91,2.87,5.42,3.61,8.15,1.49,2.72-2.12,3.12-6.63.8-9.19,2.51,2.24,6.9,3.6,8.98.95,2.07-2.65,1.4-7-1.38-8.9,3.1.66,6.69-.55,7.09-3.7.4-3.14-2.28-6.33-5.45-6.47Z" fill="#2e2e2e" stroke-width="0"/><path d="m263.99,82.3c.21,6.34-4.77,11.61-10.97,11.61s-10.97-5.04-10.97-11.23c0-.12,0-.25,0-.37l1.22-16.76.16-2.16.76-10.41h17.65l.79,10.8.17,2.36,1.19,16.17Z" fill="#f5f5ff" stroke="#2e2e2e" stroke-linecap="round" stroke-linejoin="round" stroke-width=".5"/><path d="m263.46,73.98c-5.56.68-11.83-1.99-16.08-7.42-1.73-2.2-2.92-4.61-3.62-7.06l.5-6.76h17.65l.79,10.8.18,2.36.59,8.08Z" fill="#2e2e2e" stroke-width="0"/><path d="m269.34,37.14c-2.22,3.56-2,7.78.48,9.42,2.48,1.64,6.29.09,8.51-3.47,2.22-3.56,2-7.78-.48-9.42-2.48-1.64-6.29-.09-8.51,3.47Z" fill="#f5f5ff" stroke="#2e2e2e" stroke-linecap="round" stroke-linejoin="round" stroke-width=".5"/><path d="m275.98,35.37c1.07.42,1.89,1.44,2.07,2.58.17,1.14-.3,2.36-1.2,3.08" fill="none" stroke="#2e2e2e" stroke-linecap="round" stroke-linejoin="round" stroke-width=".5"/><path d="m236.54,37.14c2.22,3.56,2,7.78-.48,9.42-2.48,1.64-6.29.09-8.51-3.47-2.22-3.56-2-7.78.48-9.42,2.48-1.64,6.29-.09,8.51,3.47Z" fill="#f5f5ff" stroke="#2e2e2e" stroke-linecap="round" stroke-linejoin="round" stroke-width=".5"/><path d="m229.9,35.37c-1.07.42-1.89,1.44-2.07,2.58-.17,1.14.3,2.36,1.2,3.08" fill="none" stroke="#2e2e2e" stroke-linecap="round" stroke-linejoin="round" stroke-width=".5"/><path d="m275.08,30.48c0,.33,0,.64-.02.94-.04.93-.12,1.86-.25,2.77l-.14,1.31-.07.71-.1,1.02c-.06.62-.1,1.23-.15,1.84-.02.39-.05.77-.07,1.16-.1,1.55-.19,3.07-.42,4.6,0,.02-.01.05-.01.07-.05.29-.1.58-.16.87-.06.32-.12.63-.21.93-.11.46-.24.92-.4,1.39-.05.17-.11.33-.18.5-.12.34-.27.68-.41,1.03-.41.89-.88,1.77-1.43,2.64-2.29,3.63-5.8,6.94-9.33,9.15-.01.02-.04.03-.05.03-.43.28-.86.53-1.28.76-4.29,2.37-9.37,2.5-13.82.46-.92-.42-1.81-.9-2.67-1.47-.01,0-.02,0-.04-.02-3.41-2.2-6.33-5.4-8.53-8.9-.16-.24-.3-.49-.45-.74-.07-.13-.15-.27-.22-.4-.12-.22-.24-.45-.37-.68-.35-.6-.66-1.24-.94-1.85-.07-.17-.16-.34-.22-.52-1.03-2.47-1.4-5.23-1.65-7.94-.04-.42-.08-.85-.11-1.28-.04-.47-.08-.95-.12-1.42l-.12-1.27c-.03-.14-.05-.28-.08-.41-.04-.15-.06-.31-.08-.46-.11-.58-.19-1.16-.26-1.77-.11-.98-.17-2.01-.17-3.05,0-.08,0-.18.01-.27,0-.66.03-1.3.08-1.94.05-.54.12-1.08.21-1.6.51-3.22,1.65-6.22,3.29-8.84.41-.66.85-1.29,1.33-1.9,4.7-6.08,12.74-9.62,20.95-8.3,6.57,1.06,11.91,5.11,15.11,10.31.1.14.18.28.27.43,1.44,2.48,2.47,5.26,2.95,8.24,0,.02.01.04.01.06.08.53.15,1.06.2,1.6.06.64.09,1.28.09,1.94.01.08.01.18.01.27Z" fill="#f5f5ff" stroke="#2e2e2e" stroke-linecap="round" stroke-linejoin="round" stroke-width=".5"/><path d="m255.59,4.44c2.36,2.16,2.93,5.88,1.34,8.6-1.6,2.72-5.23,4.19-8.39,3.4.98,1.47.21,3.72-.85,5.15-1.06,1.42-3.05,2.15-4.83,1.75,1.51,4.69-1.57,10.2-6.03,12.65,1.21,2.33.56,6.04-.71,8.34-1.27,2.3-3.75,3.95-6.44,4.31,1.78,2.01,2.42,5.21,1.47,7.69-.94,2.47-3.34,4.39-6.06,4.83-2.22.37-5.61-.2-6.57-2.14-.97-1.94-.35-4.48,1.42-5.81-1.02-2.08-1.65-4.03-1.78-6.32-.16-2.85.43-5.79,2.06-8.17,1.63-2.39,4.39-4.15,7.37-4.29-2.58-3.66-3.21-8-1.33-12.03,1.88-4.02,6.02-7.01,10.59-7.63-.05-2.52.93-4.94,2.97-6.54,2.04-1.6,4.87-2.24,7.45-1.7.66-1.51,3.04-2.4,4.73-2.66,1.7-.26,3.51.36,4.64,1.59" fill="#2e2e2e" stroke-width="0"/><path d="m257.56,5.57c-1.73,3.03-1.63,7.01.25,9.94,1.88,2.94,5.45,4.7,8.92,4.4-1.62,1.8-1.34,4.78.17,6.68,1.5,1.89,4.43,2.48,6.55,1.31-1.08.91-2.19,2.28-2.29,3.7-.1,1.41.71,2.93,2.06,3.36,1.35.43,3.04-.59,3.06-2,.03-3.98,2.47-7.73,1.13-11.48-1.34-3.75-4.36-6.87-8.06-8.33-1.32-5.13-6.48-7.65-11.77-7.58Z" fill="#2e2e2e" stroke-width="0"/><path d="m234.58,39.22c0-4.32,3.5-7.82,7.82-7.82s7.82,3.5,7.82,7.82-3.5,7.82-7.82,7.82-7.82-3.5-7.82-7.82Z" fill="none" stroke="#2e2e2e" stroke-linecap="round" stroke-linejoin="round" stroke-width=".5"/><path d="m256.11,39.22c0-4.32,3.5-7.82,7.82-7.82s7.82,3.5,7.82,7.82-3.5,7.82-7.82,7.82-7.82-3.5-7.82-7.82Z" fill="none" stroke="#2e2e2e" stroke-linecap="round" stroke-linejoin="round" stroke-width=".5"/><path d="m250.22,38.3c.86-.5,1.87-.79,2.94-.79s2.1.3,2.98.81" fill="none" stroke="#2e2e2e" stroke-linecap="round" stroke-linejoin="round" stroke-width=".5"/><line x1="234.58" y1="39.22" x2="230.16" y2="33.34" fill="none" stroke="#2e2e2e" stroke-linecap="round" stroke-linejoin="round" stroke-width=".5"/><line x1="271.6" y1="39.22" x2="276.02" y2="33.34" fill="none" stroke="#2e2e2e" stroke-linecap="round" stroke-linejoin="round" stroke-width=".5"/><path d="m256.85,31.29c.45-1.1,1.35-1.91,2.35-2.47,1.01-.55,2.15-.86,3.31-.89,1.16-.04,2.31.19,3.35.68,1.03.49,1.98,1.23,2.52,2.29l-3.08-.08c-.93-.02-1.82-.01-2.7.01-.88.03-1.76.08-2.69.16-.94.07-1.89.18-3.06.31Z" fill="#2e2e2e" stroke-width="0"/><path d="m249.33,31.29c-1.17-.13-2.12-.24-3.06-.31-.93-.08-1.81-.13-2.69-.16-.88-.03-1.77-.03-2.7-.01l-3.08.08c.54-1.06,1.49-1.8,2.52-2.29,1.04-.48,2.2-.72,3.35-.68,1.16.04,2.3.34,3.31.89,1,.56,1.9,1.37,2.35,2.47Z" fill="#2e2e2e" stroke-width="0"/><path d="m257.48,39.12c.64-1.31,1.54-2.64,2.86-3.35,2.62-1.51,6.28-.31,7.84,2.18.05.09-.06.19-.14.12-3.53-3.51-7.93-3.37-10.4,1.14-.06.1-.22,0-.16-.1h0Z" fill="#2e2e2e" stroke-width="0"/><path d="m260.92,37.28c.07-.97.91-1.7,1.89-1.63.97.07,1.7.91,1.63,1.89-.07.97-.91,1.7-1.89,1.63-.97-.07-1.7-.91-1.63-1.89Z" fill="#2e2e2e" stroke-width="0"/><path d="m266.24,38.89c.65-.14,1.26-.44,1.78-.85" fill="none" stroke="#2e2e2e" stroke-linecap="round" stroke-linejoin="round" stroke-width=".5"/><path d="m248.54,39.21c-2.48-4.51-6.88-4.64-10.4-1.14-.08.07-.2-.04-.14-.13,1.56-2.49,5.22-3.7,7.84-2.18,1.32.7,2.23,2.05,2.86,3.35.06.1-.1.2-.16.1h0Z" fill="#2e2e2e" stroke-width="0"/><path d="m245.26,37.28c-.07-.97-.91-1.7-1.89-1.63-.97.07-1.7.91-1.63,1.89.07.97.91,1.7,1.89,1.63.97-.07,1.7-.91,1.63-1.89Z" fill="#2e2e2e" stroke-width="0"/><path d="m239.94,38.89c-.65-.14-1.26-.44-1.78-.85" fill="none" stroke="#2e2e2e" stroke-linecap="round" stroke-linejoin="round" stroke-width=".5"/><path d="m250.04,46.95c.73-.94,1.88-1.52,3.05-1.53,1.16,0,2.32.55,3.06,1.48" fill="none" stroke="#2e2e2e" stroke-linecap="round" stroke-linejoin="round" stroke-width=".5"/><path d="m253.28,53.63c.79,0,1.57-.05,2.35-.15.24-.03,2.57-.35,2.56-.5,0,0-1.2-.92-1.62-1.28l-.19-.17c-.45-.4-.91-.81-1.49-1.02-.57-.2-1.33-.11-1.77.39-.43-.51-1.18-.62-1.76-.44-.58.19-1.06.59-1.51.98l-.19.16c-.43.34-1.66,1.24-1.66,1.24-.02.19,2.01.54,2.24.58.86.12,1.72.19,2.58.21.15,0,.3,0,.45,0Z" fill="#2e2e2e" stroke-width="0"/><path d="m250.27,55.15c1.77,1.05,4.1,1.08,5.9.08" fill="#f5f5ff" stroke="#2e2e2e" stroke-linecap="round" stroke-linejoin="round" stroke-width=".5"/><path d="m199.44,169.77h0c6.21,2.15,13.09-1.92,15.29-9.06l18.57-60.18c2.67-8.64-1.64-17.58-9.36-19.45h0c-7.36-1.78-14.97,3.56-17,11.94l-14.83,61.24c-1.64,6.76,1.55,13.5,7.33,15.51Z" fill="#ffce33" stroke-width="0"/><path d="m306.56,169.77h0c-6.21,2.15-13.09-1.92-15.29-9.06l-18.57-60.18c-2.67-8.64,1.64-17.58,9.36-19.45h0c7.36-1.78,14.97,3.56,17,11.94l14.83,61.24c1.64,6.76-1.55,13.5-7.33,15.51Z" fill="#ffce33" stroke-width="0"/><path d="m252.64,232.36c27.46,0,44.46-29.77,30.66-53.52-.4-.69-.81-1.37-1.22-2.05l-5.05-8.35h-48.78l-5.05,8.35c-.41.68-.82,1.36-1.22,2.05-13.79,23.75,3.2,53.52,30.66,53.52h0Z" fill="#2e2e2e" stroke-width="0"/><path d="m224.15,184.77c5.21-.15,10.17-3.65,12.05-8.5" fill="none" stroke="#f4f4f4" stroke-miterlimit="10" stroke-width=".5"/><path d="m279.06,184.77c-5.21-.15-10.17-3.65-12.05-8.5" fill="none" stroke="#f4f4f4" stroke-miterlimit="10" stroke-width=".5"/><path d="m291,100.09l-2.65,12.66c1.06,2.37,1.67,5,1.67,7.76,0,5.54-2.39,10.52-6.18,13.98l-7.06,33.88h-48.36l-6.93-34.31c-3.51-3.45-5.72-8.25-5.72-13.56,0-2.61.54-5.11,1.5-7.38l-2.65-13.04c-2.3-9.8.98-19.18,11.04-19.18h55.66c10.05,0,11.96,9.38,9.66,19.18Z" fill="#ffce33" stroke-width="0"/><line x1="264.05" y1="80.61" x2="242.13" y2="80.61" fill="#f5f5ff" stroke="#2e2e2e" stroke-linecap="round" stroke-linejoin="round" stroke-width=".5"/><path d="m242.15,79.57l-13.55,1.04.07.55c1.63,12.26,12.22,21.51,24.63,21.51s22.98-9.25,24.61-21.51l.07-.55-14.31-1.18" fill="#f5f5ff" stroke="#2e2e2e" stroke-linecap="round" stroke-linejoin="round" stroke-width=".5"/><path d="m291,100.09l-2.65,12.66c1.06,2.37,1.67,5,1.67,7.76,0,5.54-2.39,10.52-6.18,13.98" fill="none" stroke="#2e2e2e" stroke-linecap="round" stroke-linejoin="round" stroke-width=".5"/><path d="m221.5,134.07c-3.51-3.45-5.72-8.25-5.72-13.56,0-2.61.54-5.11,1.5-7.38l-2.65-13.04" fill="none" stroke="#2e2e2e" stroke-linecap="round" stroke-linejoin="round" stroke-width=".5"/><path d="m244.83,109.98l-4.38.08-.24-12.56c-.02-1.21.94-2.21,2.15-2.23h0c1.21-.02,2.21.94,2.23,2.15l.24,12.56Z" fill="#f5f5ff" stroke="#2e2e2e" stroke-linecap="round" stroke-linejoin="round" stroke-width=".5"/><path d="m195.38,167.02c4.21,4.21,11,4.21,15.19,0l30.83-30.81-9.68-9.36-36.33,24.99c-4.19,4.21-4.19,11,0,15.19Z" fill="#ffce33" stroke-width="0"/><path d="m254.56,94.51c-.5-.14-1-.07-1.43.14l1.42-5c.3-1.06-.32-2.17-1.38-2.47-.26-.07-.53-.09-.78-.06l.13-.44c.3-1.06-.32-2.17-1.38-2.47-1.06-.3-2.17.32-2.47,1.38l-.55,1.96c-.22-.17-.47-.31-.76-.38-1.07-.26-2.15.4-2.41,1.47l-4.09,16.87-.19.06-1.46,16.12-7.5,5.16,9.68,9.36,3.15-3.15c1.3-.42,2.45-1.02,3.38-1.81,1.53-1.28,2.52-3.03,2.73-4.94l1.88-17.35c.03-.08.07-.16.1-.25l3.32-11.72c.3-1.06-.32-2.17-1.38-2.47Z" fill="#f5f5ff" stroke="#2e2e2e" stroke-linecap="round" stroke-linejoin="round" stroke-width=".5"/><path d="m252.38,87.12c.28-1.36-.25-2.62-1.24-2.91h0c-1.06-.3-2.26.64-2.67,2.1l-4.56,16.11" fill="none" stroke="#2e2e2e" stroke-linecap="round" stroke-linejoin="round" stroke-width=".5"/><path d="m253.13,94.65l1.24-4.39c.4-1.4-.14-2.78-1.2-3.08h0c-1.06-.3-2.24.59-2.64,1.99l-3.53,13.19" fill="none" stroke="#2e2e2e" stroke-linecap="round" stroke-linejoin="round" stroke-width=".5"/><path d="m249.55,105l2.54-9.11c.3-1.06,1.41-1.68,2.47-1.38h0c1.06.3,1.68,1.41,1.38,2.47l-3.89,13.76" fill="none" stroke="#2e2e2e" stroke-linecap="round" stroke-linejoin="round" stroke-width=".5"/><path d="m238.91,121.9c1.84-.53,3.98.26,5.02,1.86" fill="none" stroke="#2e2e2e" stroke-linecap="round" stroke-linejoin="round" stroke-width=".5"/><line x1="231.92" y1="126.69" x2="203.85" y2="145.94" fill="none" stroke="#2e2e2e" stroke-linecap="round" stroke-linejoin="round" stroke-width=".5"/><line x1="241.39" y1="136.36" x2="210.76" y2="166.98" fill="none" stroke="#2e2e2e" stroke-linecap="round" stroke-linejoin="round" stroke-width=".5"/><path d="m261.37,109.98l4.38.08.24-12.56c.02-1.21-.94-2.21-2.15-2.23h0c-1.21-.02-2.21.94-2.23,2.15l-.24,12.56Z" fill="#f5f5ff" stroke="#2e2e2e" stroke-linecap="round" stroke-linejoin="round" stroke-width=".5"/><path d="m310.82,167.02c-4.21,4.21-11,4.21-15.19,0l-30.83-30.81,9.68-9.36,36.33,24.99c4.19,4.21,4.19,11,0,15.19Z" fill="#ffce33" stroke-width="0"/><path d="m251.64,94.51c.5-.14,1-.07,1.43.14l-1.42-5c-.3-1.06.32-2.17,1.38-2.47.26-.07.53-.09.78-.06l-.13-.44c-.3-1.06.32-2.17,1.38-2.47,1.06-.3,2.17.32,2.47,1.38l.55,1.96c.22-.17.47-.31.76-.38,1.07-.26,2.15.4,2.41,1.47l4.09,16.87.19.06,1.46,16.12,7.5,5.16-9.68,9.36-3.15-3.15c-1.3-.42-2.45-1.02-3.38-1.81-1.53-1.28-2.52-3.03-2.73-4.94l-1.88-17.35c-.03-.08-.07-.16-.1-.25l-3.32-11.72c-.3-1.06.32-2.17,1.38-2.47Z" fill="#f5f5ff" stroke="#2e2e2e" stroke-linecap="round" stroke-linejoin="round" stroke-width=".5"/><path d="m253.82,87.12c-.28-1.36.25-2.62,1.24-2.91h0c1.06-.3,2.26.64,2.67,2.1l4.56,16.11" fill="none" stroke="#2e2e2e" stroke-linecap="round" stroke-linejoin="round" stroke-width=".5"/><path d="m253.07,94.65l-1.24-4.39c-.4-1.4.14-2.78,1.2-3.08h0c1.06-.3,2.24.59,2.64,1.99l3.53,13.19" fill="none" stroke="#2e2e2e" stroke-linecap="round" stroke-linejoin="round" stroke-width=".5"/><path d="m256.64,105l-2.54-9.11c-.3-1.06-1.41-1.68-2.47-1.38h0c-1.06.3-1.68,1.41-1.38,2.47l3.89,13.76" fill="none" stroke="#2e2e2e" stroke-linecap="round" stroke-linejoin="round" stroke-width=".5"/><path d="m267.29,121.9c-1.84-.53-3.98.26-5.02,1.86" fill="none" stroke="#2e2e2e" stroke-linecap="round" stroke-linejoin="round" stroke-width=".5"/><line x1="274.28" y1="126.69" x2="302.34" y2="145.94" fill="none" stroke="#2e2e2e" stroke-linecap="round" stroke-linejoin="round" stroke-width=".5"/><line x1="264.81" y1="136.36" x2="295.43" y2="166.98" fill="none" stroke="#2e2e2e" stroke-linecap="round" stroke-linejoin="round" stroke-width=".5"/><path d="m335.75,221.67l-66.32,27.45c-14.86,6.15-31.82-1.62-36.87-16.89h0c-5.36-16.22,5.12-33.38,21.99-36.02l68.02-10.67c10.22-2.96,20.91,2.92,23.88,13.14h0c2.69,9.26-1.89,19.08-10.71,22.99Z" fill="#2e2e2e" stroke-width="0"/><path d="m223,193.49c-2.09-6.21-4.62-11.05-5.92-11.35h-.26c-1.18.41-.33,6.12,1.89,12.79,2.16,6.49,4.85,11.47,6.09,11.33.04,0,.05.01.09,0,1.18-.39.33-6.11-1.89-12.77Z" fill="#a6a6a6" stroke-width="0"/><path d="m181.9,208.91c-.62,0-1.25-.02-1.87-.07-3-.24-5.37-2.63-5.61-5.63,0,0,.04-4.58,0-8.83-.03-3.24-.1-6.27-.29-6.91l-.04-4.82c0-1.11.55-2.12,1.49-2.7,1.03-.63,2.35-.62,3.36.06l2.33,1.55,1.31.88c2.94,1.96,6.2,3.42,9.65,4.3l6.6,1.69c4.64-1.62,9.69-2.06,14.79.53l44.89-4.18,3.47,18.2-50.52-.29c-3.75,1.4-7.7,2.13-11.67,2.16-1.14.01-2.26-.04-3.39-.14l-6.9,2.7c-1.36.52-2.76.92-4.18,1.16-1.13.19-2.27.3-3.42.31Z" fill="#f5f5ff" stroke="#2e2e2e" stroke-linecap="round" stroke-linejoin="round" stroke-width=".5"/><path d="m347.01,207.23c.39-1.91.5-3.94.33-6-.82-9.33-7.7-16.8-16.6-18.61-1.14-.23-2.33-.36-3.53-.4l-110.13-.09c1.3.3,3.83,5.14,5.92,11.35,2.22,6.65,3.07,12.37,1.89,12.77-.04.01-.06,0-.09,0v.02s59.83,22.38,99.54,17.5c11,1.19,20.59-6.33,22.67-16.54Z" fill="#2e2e2e" stroke-width="0"/><line x1="289.19" y1="182.19" x2="217.08" y2="182.14" fill="none" stroke="#f4f4f4" stroke-miterlimit="10" stroke-width=".5"/><path d="m224.81,206.28l45.44,13.16c20.21,5.85,41.79,4.8,61.33-3h0" fill="none" stroke="#f4f4f4" stroke-miterlimit="10" stroke-width=".5"/><path d="m230.64,248l-26.9-9.64c-10.72-3.84-16.3-15.65-12.46-26.38h0c3.84-10.72,15.65-16.3,26.38-12.46l26.9,9.64c10.72,3.84,16.3,15.65,12.46,26.38h0c-3.84,10.72-15.65,16.3-26.38,12.46Z" fill="#2e2e2e" stroke-width="0"/><path d="m252.12,253.1c4-5.44,6.58-10.53,6.07-11.9l-.15-.24c-1.03-.86-5.31,3.14-9.62,8.97-4.18,5.67-6.79,10.98-5.96,12.05.01.04.02.06.05.09,1.01.87,5.31-3.14,9.6-8.96Z" fill="#a6a6a6" stroke-width="0"/><path d="m241.4,295.13c0,.62.03,1.25.09,1.87.27,2.99,2.69,5.35,5.68,5.56,0,0,4.58-.09,8.83-.1,3.24,0,6.27.04,6.91.22h4.82c1.11,0,2.11-.58,2.68-1.53.62-1.04.59-2.36-.09-3.36l-1.58-2.31-.9-1.3c-1.99-2.92-3.48-6.17-4.4-9.6l-1.75-6.58c1.57-4.66,1.96-9.71-.68-14.79l-6.63-18.42c2.21-12.66-26.39-16.61-26.39-16.61l19.3,37.33c-1.36,3.76-2.05,7.72-2.04,11.69,0,1.14.06,2.26.17,3.39l-2.63,6.93c-.51,1.36-.89,2.77-1.12,4.19-.18,1.14-.28,2.27-.28,3.42Z" fill="#f5f5ff" stroke="#2e2e2e" stroke-linecap="round" stroke-linejoin="round" stroke-width=".5"/><path d="m257.79,240.85c-1.34-.23-5.35,3.62-9.36,9.08-4.1,5.54-6.69,10.73-6,11.95l-42.86-24.79c-9.57-5.53-12.18-18.16-5.58-27.04,3.64-4.91,9.22-7.46,14.85-7.46,4.45,0,8.92,1.58,12.49,4.86l36.46,33.41Z" fill="#2e2e2e" stroke-width="0"/><path d="m208.84,202.58c4.45,0,8.92,1.58,12.49,4.86l36.46,33.41" fill="none" stroke="#f4f4f4" stroke-miterlimit="10" stroke-width=".5"/><path d="m124.55,342.55h0c-2.26-.2-3.93-2.2-3.73-4.46l8.07-90,8.19.73-8.07,90c-.2,2.26-2.2,3.93-4.46,3.73Z" fill="#2e2e2e" stroke-width="0"/><path d="m94.26,349.16h0c-2.15-.74-3.29-3.08-2.56-5.22l32.68-95.31,7.78,2.67-32.68,95.31c-.74,2.15-3.08,3.29-5.22,2.56Z" fill="#2e2e2e" stroke-width="0"/><path d="m176.51,347.02h0c-2.12.82-4.5-.23-5.32-2.35l-35.75-92.17,7.67-2.97,35.75,92.17c.82,2.12-.23,4.5-2.35,5.32Z" fill="#2e2e2e" stroke-width="0"/><rect x="130.2" y="197.16" width="5.23" height="56.09" fill="#f5f5ff" stroke="#2e2e2e" stroke-miterlimit="10" stroke-width=".39"/><rect x="97.33" y="171.89" width="70.99" height="35.79" rx="2.26" ry="2.26" fill="#f5f5ff" stroke="#2e2e2e" stroke-miterlimit="10" stroke-width=".39"/><rect x="104.96" y="174.45" width="55.23" height="31.42" fill="#2e2e2e" stroke-width="0"/><path d="m98.95,190.44c0-1.28,1.04-2.32,2.32-2.32s2.32,1.04,2.32,2.32-1.04,2.32-2.32,2.32-2.32-1.04-2.32-2.32Z" fill="#f5f5ff" stroke="#2e2e2e" stroke-miterlimit="10" stroke-width=".39"/><rect x="163.27" y="186.67" width=".53" height="6.11" fill="#0d1c00" stroke-width="0"/><path d="m163.07,194.96c0-.26.21-.46.46-.46s.46.21.46.46-.21.46-.46.46-.46-.21-.46-.46Z" fill="#0d1c00" stroke-width="0"/><path d="m121.67,246.77h22.44v2.25c0,2.47-2.01,4.48-4.48,4.48h-13.47c-2.47,0-4.48-2.01-4.48-4.48v-2.25h0Z" fill="#f5f5ff" stroke="#2e2e2e" stroke-miterlimit="10" stroke-width=".39"/><rect x="124.97" y="170.11" width="15.7" height="3.99" fill="#0d1c00" stroke-width="0"/><path d="m130.51,164.88h4.63c.68,0,1.24.55,1.24,1.24v5.37h-7.1v-5.37c0-.68.55-1.24,1.24-1.24Z" fill="#0d1c00" stroke-width="0"/><rect x="124.22" y="207.75" width="17.2" height="4.11" fill="#0d1c00" stroke-width="0"/><rect x="126.78" y="210" width="12.09" height="14.33" fill="#0d1c00" stroke-width="0"/><path d="m139.49,227.57h-13.34c-1.14,0-2.06-.92-2.06-2.06h0c0-1.14.92-2.06,2.06-2.06h13.34c1.14,0,2.06.92,2.06,2.06h0c0,1.14-.92,2.06-2.06,2.06Z" fill="#0d1c00" stroke-width="0"/><path d="m139.49,231.68h-13.34c-1.14,0-2.06-.92-2.06-2.06h0c0-1.14.92-2.06,2.06-2.06h13.34c1.14,0,2.06.92,2.06,2.06h0c0,1.14-.92,2.06-2.06,2.06Z" fill="#0d1c00" stroke-width="0"/><rect x="126.15" y="236.8" width="13.96" height="3.74" fill="#2e2e2e" stroke-width="0"/></svg>