<?xml version="1.0" encoding="UTF-8"?><svg id="Layer_1" xmlns="http://www.w3.org/2000/svg" xmlns:xlink="http://www.w3.org/1999/xlink" viewBox="0 0 490.1 352.1"><defs><clipPath id="clippath"><path d="m248.11,167.37c-.24-.57-.47-1.14-.75-1.69h0s0,0-.01-.02l1.28-8.04-1.28,8.03s0,.02.01.02l2.14-13.56.67-4.22c1.27-6.87,1.09-13.53-1.17-18.39-1.77-3.85-4.85-6.56-9.53-7.35-1.22-.2-2.55-.28-3.98-.21l-77.21,3.7c-1.45.07-2.79.28-4.02.6-4.83,1.28-8.05,4.4-9.8,8.58-2.12,5.03-2.11,11.56-.22,18.15l4.52,17.91c-.26.72-.47,1.45-.67,2.2-.07.27-.13.54-.2.82-.07.28-.14.56-.2.84-.05.27-.09.55-.14.82-.03.18-.06.35-.09.53-.11.75-.19,1.51-.23,2.28,0,.13-.01.25-.02.38-.04.82-.05,1.65-.01,2.49.04.88.14,1.75.27,2.61,0,.06.02.12.03.19.13.84.3,1.66.5,2.46.02.07.04.14.06.21.07.28.14.57.23.84.14.46.3.91.47,1.36.03.08.06.17.09.25.29.79.62,1.55.98,2.3.03.06.07.13.1.19.32.64.66,1.26,1.03,1.87.11.18.22.36.34.54.14.21.26.43.4.64.25.36.51.71.77,1.06.04.05.08.11.12.16.46.61.96,1.19,1.47,1.75.11.12.23.24.34.37.47.5.96.98,1.46,1.44.06.05.11.11.17.17h0s0,0,0,0l8.22,62.5,69.4,1.44,8.89-67.5s0,0,0,0h0c.11-.11.21-.24.32-.35.46-.48.91-.98,1.34-1.49.21-.25.39-.52.59-.77.3-.4.61-.8.89-1.22.22-.33.43-.67.64-1.01.22-.36.44-.73.65-1.1.2-.37.39-.75.58-1.13.09-.17.19-.34.27-.52.08-.17.13-.35.21-.52.22-.51.43-1.03.62-1.55.13-.36.25-.72.36-1.08.18-.58.34-1.17.48-1.76.04-.17.1-.32.13-.49.05-.21.08-.43.12-.64.05-.26.11-.53.15-.79.12-.74.2-1.5.26-2.26.01-.2.02-.41.03-.61.04-.77.05-1.55.01-2.33,0-.06,0-.11,0-.16-.09-1.94-.4-3.81-.88-5.61,0-.02,0-.03-.01-.05-.17-.61-.38-1.2-.59-1.79-.09-.25-.15-.5-.24-.74-.1-.26-.23-.5-.34-.76Z" fill="none" stroke-width="0"/></clipPath></defs><path d="m211.5,320.56c-19.99,4.13-40.09-8.65-52.35-24.97-12.27-16.32-18.99-36.04-28.73-53.98-9.75-17.94-24.14-35.19-43.99-39.96-5.32-1.28-11.68-1.31-15.42,2.68-4.65,4.95-2.55,13.36,1.97,18.43,4.52,5.07,10.85,8.14,15.87,12.7,5.03,4.56,8.79,11.9,5.92,18.05-9.16-4.24-19.01-8.58-28.97-6.95-9.96,1.63-19.06,12.08-15.33,21.46,3.58,9.01,15.2,10.83,24.77,12.37,9.57,1.55,21.15,6.98,20.48,16.65-6.19,1.13-12.51,2.31-17.97,5.42s-10,8.6-10.24,14.88c-.37,9.63,9.27,16.97,18.74,18.74,17.84,3.34,35.72-6.54,53.84-5.62,10.06.51,19.61,4.31,29.21,7.38,9.6,3.06,19.9,5.42,29.68,2.98,9.78-2.44,18.67-11.03,18.29-21.1" fill="#ffce33" stroke-width="0"/><path d="m363.73,328.81c-10.51-31.24-12.13-65.42-4.62-97.51.59-2.5,1.5-5.33,3.87-6.33,3.95-1.67,7.54,2.97,9.2,6.93,5.42,12.9,9.05,26.55,10.76,40.44-4.99-16.9-4.28-35.43,2.01-51.89,2.19-5.74,6.32-12.07,12.46-11.95,7.81.15,11.1,10.12,10.93,17.92-.44,20.17-9.24,39.09-17.88,57.32,4.7-19.47,12.75-38.12,23.68-54.9,4.07-6.25,9.43-12.77,16.85-13.53,7.42-.75,14.38,5.02,16.97,12.01,2.59,7,1.61,14.83-.48,21.99-7.06,24.24-25.6,43.15-43.47,60.97-11.47,11.44-23.64,23.3-39.22,27.72" fill="#ffce33" stroke-width="0"/><path d="m423.68,214.55c.04,12.61,5.58,22.81,12.36,22.79,6.79-.02,12.26-10.26,12.22-22.87-.04-12.61-5.57-22.81-12.36-22.79-6.79.02-12.26,10.26-12.22,22.87Z" fill="none" stroke="#2e2e2e" stroke-linecap="round" stroke-linejoin="round" stroke-width=".5"/><path d="m399.87,235.68c6.76,8.75,16.05,12.89,20.76,9.25,4.71-3.64,3.05-13.68-3.71-22.42-6.76-8.75-16.05-12.89-20.76-9.25-4.71,3.64-3.05,13.68,3.71,22.42Z" fill="none" stroke="#2e2e2e" stroke-linecap="round" stroke-linejoin="round" stroke-width=".5"/><path d="m463.32,243.04c8.87-3.78,14.41-10.71,12.38-15.49-2.03-4.78-10.88-5.59-19.75-1.81-8.87,3.78-14.41,10.71-12.38,15.49,2.03,4.78,10.87,5.59,19.75,1.81Z" fill="none" stroke="#2e2e2e" stroke-linecap="round" stroke-linejoin="round" stroke-width=".5"/><path d="m451.23,280.89c7.9.43,14.49-2.67,14.72-6.93.23-4.25-5.99-8.05-13.89-8.48-7.9-.43-14.49,2.67-14.72,6.93-.23,4.25,5.99,8.05,13.89,8.48Z" fill="none" stroke="#2e2e2e" stroke-linecap="round" stroke-linejoin="round" stroke-width=".5"/><path d="m402.05,267.43c6.25,4.86,13.43,6.07,16.05,2.7,2.62-3.36-.33-10.03-6.58-14.88-6.25-4.86-13.43-6.07-16.05-2.7-2.62,3.36.33,10.03,6.58,14.88Z" fill="none" stroke="#2e2e2e" stroke-linecap="round" stroke-linejoin="round" stroke-width=".5"/><path d="m407.31,317.96c19.59-36.29,30.07-77.45,30.22-118.69" fill="none" stroke="#2e2e2e" stroke-linecap="round" stroke-linejoin="round" stroke-width=".5"/><path d="m425.58,274.99c2.9-21.25-6.82-43.87-24.11-56.55" fill="none" stroke="#2e2e2e" stroke-linecap="round" stroke-linejoin="round" stroke-width=".5"/><path d="m430.32,258.3c10.43-13.42,24.12-23.75,39.85-30.19" fill="none" stroke="#2e2e2e" stroke-linecap="round" stroke-linejoin="round" stroke-width=".5"/><path d="m423.01,282.6c-4.11-10.34-11.49-19.35-20.83-25.42" fill="none" stroke="#2e2e2e" stroke-linecap="round" stroke-linejoin="round" stroke-width=".5"/><path d="m425.37,274.68c10.52-3.62,22.17-3.89,32.85-.76" fill="none" stroke="#2e2e2e" stroke-linecap="round" stroke-linejoin="round" stroke-width=".5"/><path d="m170.69,208.32c-6.03,11.43-6.78,22.88-1.66,25.58,5.11,2.7,14.15-4.38,20.18-15.81,6.03-11.43,6.78-22.88,1.66-25.58-5.11-2.7-14.15,4.38-20.18,15.81Z" fill="none" stroke="#2e2e2e" stroke-linecap="round" stroke-linejoin="round" stroke-width=".5"/><path d="m150,218.27c.23,8.98,3.66,16.18,7.68,16.07,4.02-.1,7.09-7.46,6.86-16.44-.23-8.98-3.66-16.18-7.68-16.07s-7.09,7.46-6.86,16.44Z" fill="none" stroke="#2e2e2e" stroke-linecap="round" stroke-linejoin="round" stroke-width=".5"/><path d="m141.23,144.49c-4.91,10.51-5.08,20.8-.38,23,4.7,2.2,12.49-4.54,17.4-15.04,4.91-10.51,5.08-20.8.38-23-4.7-2.2-12.49,4.54-17.4,15.04Z" fill="none" stroke="#2e2e2e" stroke-linecap="round" stroke-linejoin="round" stroke-width=".5"/><path d="m62.95,164.6c-3.15,9.81-2.15,18.9,2.24,20.31,4.39,1.41,10.5-5.4,13.65-15.2,3.15-9.8,2.15-18.9-2.24-20.31-4.39-1.41-10.5,5.4-13.65,15.2Z" fill="none" stroke="#2e2e2e" stroke-linecap="round" stroke-linejoin="round" stroke-width=".5"/><path d="m23.47,183.47c7.08,4.82,14.56,6.16,16.72,3,2.16-3.17-1.83-9.64-8.91-14.46s-14.56-6.16-16.72-3c-2.16,3.17,1.83,9.64,8.91,14.46Z" fill="none" stroke="#2e2e2e" stroke-linecap="round" stroke-linejoin="round" stroke-width=".5"/><path d="m156.86,187.96c8.56-.11,15.47-3.3,15.42-7.13-.05-3.83-7.03-6.85-15.59-6.74-8.56.11-15.47,3.3-15.42,7.13.05,3.83,7.03,6.85,15.59,6.74Z" fill="none" stroke="#2e2e2e" stroke-linecap="round" stroke-linejoin="round" stroke-width=".5"/><path d="m82.09,284.94c9.86-4.39,16.27-11.53,14.3-15.94-1.97-4.41-11.55-4.43-21.42-.04-9.86,4.39-16.27,11.53-14.3,15.94,1.97,4.41,11.55,4.43,21.42.04Z" fill="none" stroke="#2e2e2e" stroke-linecap="round" stroke-linejoin="round" stroke-width=".5"/><path d="m34.48,154.11c1.29,13.73,7.32,24.39,13.46,23.81,6.14-.58,10.07-12.18,8.78-25.91-1.29-13.73-7.32-24.39-13.46-23.81-6.14.58-10.07,12.18-8.78,25.91Z" fill="none" stroke="#2e2e2e" stroke-linecap="round" stroke-linejoin="round" stroke-width=".5"/><path d="m59.35,242.03c11.45,7.69,23.52,9.77,26.95,4.65,3.44-5.12-3.05-15.5-14.5-23.19-11.45-7.69-23.52-9.77-26.96-4.65-3.44,5.12,3.05,15.5,14.5,23.19Z" fill="none" stroke="#2e2e2e" stroke-linecap="round" stroke-linejoin="round" stroke-width=".5"/><path d="m95.42,147.09c-1.02,14.46,3.39,26.55,9.86,27.01s12.54-10.89,13.57-25.35c1.02-14.46-3.39-26.55-9.86-27.01-6.47-.46-12.54,10.89-13.57,25.35Z" fill="none" stroke="#2e2e2e" stroke-linecap="round" stroke-linejoin="round" stroke-width=".5"/><path d="m200.54,338.83c-60.54-43.71-96.79-119.09-93.14-193.67" fill="none" stroke="#2e2e2e" stroke-linecap="round" stroke-linejoin="round" stroke-width=".5"/><path d="m135,263.81c21.85-11.78,38.98-32.03,46.97-55.54" fill="none" stroke="#2e2e2e" stroke-linecap="round" stroke-linejoin="round" stroke-width=".5"/><path d="m115.85,218.05c-18.77-5.24-38.11-10.77-53.26-23.02-15.15-12.25-25.12-33.13-18.77-51.55" fill="none" stroke="#2e2e2e" stroke-linecap="round" stroke-linejoin="round" stroke-width=".5"/><path d="m110.35,192.56c20.74-10.05,36.82-29.29,43.04-51.48" fill="none" stroke="#2e2e2e" stroke-linecap="round" stroke-linejoin="round" stroke-width=".5"/><path d="m128.43,250.72c-27.95,2.19-56.64-7.29-77.77-25.72" fill="none" stroke="#2e2e2e" stroke-linecap="round" stroke-linejoin="round" stroke-width=".5"/><path d="m61.21,193.27c4.61-10.58,8.37-21.53,11.22-32.72" fill="none" stroke="#2e2e2e" stroke-linecap="round" stroke-linejoin="round" stroke-width=".5"/><path d="m160.74,242.37c-4.5-8.84-4.87-19.87-.96-29.2" fill="none" stroke="#2e2e2e" stroke-linecap="round" stroke-linejoin="round" stroke-width=".5"/><path d="m108.33,251.96c-6.18,16.89-22.8,29.45-40.74,30.76" fill="none" stroke="#2e2e2e" stroke-linecap="round" stroke-linejoin="round" stroke-width=".5"/><path d="m132.17,177.17c10.49,5.55,23.45,6.19,34.44,1.71" fill="none" stroke="#2e2e2e" stroke-linecap="round" stroke-linejoin="round" stroke-width=".5"/><path d="m60.35,193.8c-15.72-4.04-30.4-12.09-42.25-23.19" fill="none" stroke="#2e2e2e" stroke-linecap="round" stroke-linejoin="round" stroke-width=".5"/><path d="m261.62,329.18c-1.81-21.19-9.93-41.74-23.66-59.89l-6.79-9h-65.53l-6.79,9c-13.73,18.15-21.85,38.7-23.66,59.89h126.44Z" fill="#2e2e2e" stroke-width="0"/><path d="m155.73,285.21c11.38-2.32,20.8-8.87,24.19-16.82" fill="none" stroke="#fff" stroke-linecap="round" stroke-linejoin="round" stroke-width=".4"/><path d="m241.53,285.21c-11.38-2.32-20.8-8.87-24.19-16.82" fill="none" stroke="#fff" stroke-linecap="round" stroke-linejoin="round" stroke-width=".4"/><path d="m157.02,38.15c6.11-15.49,20.41-21.2,33.62-21.36,10.74-.13,22.57,3.23,29.9,14.53,2.85,4.4,4.15,17.53,4.72,30.83.81,19.01-12.33,35.14-29.82,36.78h0c-16.54,1.55-31.73-10.4-35.61-27.94-2.94-13.28-5.05-27.11-2.79-32.84Z" fill="#2e2e2e" stroke-width="0"/><path d="m212.09,129.18c.98,9.46-5.92,17.86-15.21,18.5-9.1.63-16.94-6.41-17.58-15.66-.01-.19-.03-.39-.02-.56l.08-25.19v-3.24s.03-5.49.03-5.49l.04-10.17,26.4-1.84,2.3,16.07.52,3.51,1.72,12.04,1.73,12.03Z" fill="#f5f5ff" stroke="#2e2e2e" stroke-miterlimit="10" stroke-width=".51"/><path d="m210.36,117.14c-8.25,1.6-17.91-1.75-24.84-9.43-2.81-3.11-4.86-6.6-6.14-10.18l.04-10.17,26.4-1.84,2.3,16.07.52,3.51,1.72,12.04Z" fill="#2e2e2e" stroke-width="0"/><path d="m213.88,59.71c-2.95,5.56-2.19,11.85,1.7,14.05,3.88,2.2,9.42-.52,12.37-6.08,2.95-5.56,2.19-11.85-1.7-14.05-3.88-2.2-9.42.52-12.37,6.08Z" fill="#f5f5ff" stroke="#2e2e2e" stroke-miterlimit="10" stroke-width=".51"/><path d="m223.63,56.38c1.65.52,2.98,1.96,3.36,3.65.38,1.69-.2,3.56-1.48,4.73" fill="none" stroke="#2e2e2e" stroke-linecap="round" stroke-linejoin="round" stroke-width=".51"/><path d="m169.1,62.83c3.69,5.1,3.81,11.43.26,14.15-3.54,2.72-9.4.79-13.09-4.31-3.69-5.1-3.81-11.43-.26-14.15,3.54-2.72,9.4-.79,13.09,4.31Z" fill="#f5f5ff" stroke="#2e2e2e" stroke-miterlimit="10" stroke-width=".51"/><path d="m158.98,60.88c-1.56.74-2.68,2.35-2.82,4.08-.14,1.72.7,3.5,2.12,4.48" fill="none" stroke="#2e2e2e" stroke-linecap="round" stroke-linejoin="round" stroke-width=".51"/><path d="m221.93,51.75c.04.51.07,1,.07,1.46.05,1.44.03,2.89-.06,4.31l-.05,2.03-.02,1.1-.03,1.59c-.02.97-.01,1.91,0,2.86,0,.61.02,1.2.02,1.8.03,2.4.07,4.77-.09,7.15,0,.03-.01.08,0,.11-.04.45-.07.91-.13,1.36-.05.49-.1.98-.2,1.46-.1.72-.24,1.45-.41,2.19-.05.27-.12.52-.19.79-.13.54-.3,1.07-.47,1.63-.47,1.42-1.05,2.82-1.72,4.22-2.82,5.83-7.38,11.3-12.07,15.05-.01.04-.05.06-.06.06-.57.47-1.15.9-1.71,1.3-5.75,4.09-12.84,4.78-19.29,2.05-1.33-.57-2.63-1.22-3.89-2.02-.02,0-.03,0-.05-.03-5.01-3.07-9.44-7.72-12.9-12.93-.25-.36-.48-.72-.71-1.1-.12-.19-.23-.4-.35-.59-.19-.33-.39-.68-.59-1.01-.56-.9-1.06-1.85-1.51-2.77-.12-.26-.26-.51-.37-.78-1.71-3.72-2.53-7.94-3.16-12.11-.11-.65-.2-1.31-.3-1.96-.11-.73-.22-1.46-.32-2.18l-.31-1.95c-.06-.22-.11-.42-.15-.63-.07-.23-.12-.47-.16-.7-.22-.89-.4-1.78-.55-2.71-.26-1.5-.45-3.08-.57-4.7,0-.13-.02-.28-.01-.41-.07-1.01-.1-2.01-.09-3,0-.84.05-1.68.12-2.5.37-5.03,1.64-9.77,3.66-13.99.5-1.06,1.05-2.08,1.65-3.07,2-3.32,4.51-6.25,7.4-8.59.21-.19.42-.35.63-.52.26-.2.52-.41.78-.6,1.02-.75,2.09-1.43,3.19-2.02,4.67-2.52,10.33-3.92,15.65-3.29.26.02.52.06.78.08,2.19.26,4.3.77,6.34,1.53,1.57.56,3.1,1.28,4.57,2.12.07.04.15.09.22.13.92.53,1.82,1.11,2.69,1.75,3.26,2.38,6.13,5.43,8.47,9,.15.2.28.41.43.64,2.28,3.69,4.02,7.89,5.01,12.45,0,.03.02.06.02.09.18.8.33,1.63.45,2.46.15.98.26,1.97.34,2.99.03.13.04.28.05.41Z" fill="#f5f5ff" stroke="#2e2e2e" stroke-miterlimit="10" stroke-width=".51"/><line x1="160.81" y1="74.72" x2="161.79" y2="88.83" fill="#f5f5ff" stroke="#2e2e2e" stroke-miterlimit="10" stroke-width=".51"/><line x1="159.05" y1="86.44" x2="163.86" y2="86.11" fill="#f5f5ff" stroke="#2e2e2e" stroke-miterlimit="10" stroke-width=".51"/><line x1="223.68" y1="70.35" x2="224.66" y2="84.46" fill="#f5f5ff" stroke="#2e2e2e" stroke-miterlimit="10" stroke-width=".51"/><line x1="221.92" y1="82.07" x2="226.73" y2="81.73" fill="#f5f5ff" stroke="#2e2e2e" stroke-miterlimit="10" stroke-width=".51"/><path d="m162.2,33.34c2.83-3.93,9.04-1.13,8.03,3.61-.77,3.62-3.01,7.28-4.5,9.97-2.85,5.14-4.53,10.86-4.73,16.75-4.25-8.67-4.32-19.28-.17-28.01.34-.71.81-1.53,1.38-2.32Z" fill="#2e2e2e" stroke-width="0"/><path d="m216.73,29.55c-3.35-3.5-9.11.13-7.45,4.69,1.27,3.48,3.99,6.79,5.84,9.25,3.53,4.7,5.99,10.13,7.01,15.93,3.01-9.18,1.6-19.7-3.71-27.76-.43-.66-1.01-1.4-1.69-2.11Z" fill="#2e2e2e" stroke-width="0"/><path d="m214.84,9.31c-.57,2.25-1.95,4.28-3.82,5.64.34-3.19.44-8.01-1.27-10.83-1.85,2.72-3.52,4.92-6.57,6.47-2.87,1.46-6.05,2.18-9.21,2.78.98-1.98,1.83-4.03,2.52-6.13-2.61,2.3-5.5,4.29-8.58,5.91-1.18.63-2.42,1.21-3.75,1.36-1.46.17-2.93-.19-4.39-.37-6.24-.76-12.65,1.93-17.02,6.46-4.37,4.53-6.79,10.72-7.39,16.98.8-1.98,2.59-3.54,4.66-4.06.54,3.83,5.45,4.27,8.48,4.1,3.03-.18,6.49-2.09,9.23-.36,4.72,2.99,10.14,5.12,15.72,5.1,9.1-.03,18.54-5.32,22.22-13.82,2.6-5.99,2.28-13.48-.84-19.23Z" fill="#2e2e2e" stroke-width="0"/><path d="m201.99,40.45c-4.27,3.39-10.23,4.53-15.44,2.95-5.22-1.58-9.55-5.83-11.22-11.02-.05,3.31.63,5.78,2.73,8.34,2.1,2.56,5.13,4.34,8.38,4.93" fill="none" stroke="#2e2e2e" stroke-linecap="round" stroke-linejoin="round" stroke-width=".51"/><path d="m187.53,14.56c4.3-.18,8.72-.39,12.66-2.14,3.93-1.75,7.32-5.43,7.41-9.74" fill="none" stroke="#2e2e2e" stroke-linecap="round" stroke-linejoin="round" stroke-width=".51"/><path d="m172.83,15.43c6.69,1.22,13.91-.94,18.84-5.64,1.91-1.83,3.58-4.44,2.85-6.98" fill="none" stroke="#2e2e2e" stroke-linecap="round" stroke-linejoin="round" stroke-width=".51"/><path d="m197.77,56.51c.67-1.86,1.68-3.42,3.13-4.74,1.4-1.3,3.45-2.4,5.81-2.37,2.19.04,3.99.7,5.65,1.57,1.64.9,3.13,2.05,4.28,3.63-1.93-.06-3.65-.28-5.32-.47-1.64-.2-3.26-.42-4.57-.38-1.17.02-2.42.44-3.93,1.01-1.49.56-3.1,1.32-5.05,1.75Z" fill="#2e2e2e" stroke-width="0"/><path d="m184.35,57.44c-1.99-.15-3.69-.68-5.24-1.03-1.57-.35-2.87-.6-4.03-.45-1.3.14-2.87.58-4.47,1.01-1.63.42-3.3.88-5.2,1.2.92-1.72,2.24-3.06,3.74-4.18,1.52-1.09,3.22-2,5.38-2.34,2.33-.35,4.52.45,6.08,1.54,1.61,1.11,2.83,2.51,3.75,4.26Z" fill="#2e2e2e" stroke-width="0"/><path d="m198.38,65.76c3.3-6.57,10.23-7.84,15.9-3.29,0,0-.3-.07-.3-.07.05.02.27-.04.45-.13.59-.29,1.17-.71,1.67-1.15.19-.18.49.09.33.3-.69.83-1.26,1.68-2.38,2-1.31-.41-2.71-1.68-4.22-2.04-3.41-1.11-7.39.08-9.63,2.89,0,0-1.45,1.75-1.45,1.75-.16.21-.51-.03-.36-.26h0Z" fill="#2e2e2e" stroke-width="0"/><path d="m203.37,63.04c0-1.46,1.19-2.64,2.65-2.64,1.46,0,2.64,1.19,2.64,2.65,0,1.46-1.19,2.64-2.65,2.64-1.46,0-2.64-1.19-2.64-2.65Z" fill="#2e2e2e" stroke-width="0"/><path d="m211.51,64.58c.96-.28,1.84-.79,2.58-1.46" fill="none" stroke="#2e2e2e" stroke-linecap="round" stroke-linejoin="round" stroke-width=".51"/><path d="m198.27,62.74c1.32-2.12,3.53-3.67,5.98-4.18" fill="none" stroke="#2e2e2e" stroke-linecap="round" stroke-linejoin="round" stroke-width=".51"/><path d="m184.71,67l-1.68-1.53c-2.61-2.47-6.72-3.1-9.94-1.53-1.45.57-2.65,2.01-3.9,2.6-1.15-.16-1.83-.93-2.63-1.65-.18-.18.07-.49.29-.34.55.37,1.18.7,1.81.91.19.06.42.09.47.06,0,0-.29.11-.29.11,1.17-1.03,2.3-2.14,3.73-2.81,4.65-2.29,9.69-.26,12.47,3.86.17.2-.12.49-.32.31h0Z" fill="#2e2e2e" stroke-width="0"/><path d="m179.71,64.69c-.21-1.45-1.55-2.45-2.99-2.25-1.45.21-2.45,1.55-2.25,2.99.21,1.45,1.55,2.45,2.99,2.25s2.45-1.55,2.25-2.99Z" fill="#2e2e2e" stroke-width="0"/><path d="m171.86,67.33c-.99-.15-1.94-.53-2.75-1.09" fill="none" stroke="#2e2e2e" stroke-linecap="round" stroke-linejoin="round" stroke-width=".51"/><path d="m184.72,63.68c-1.6-1.92-4.01-3.15-6.5-3.32" fill="none" stroke="#2e2e2e" stroke-linecap="round" stroke-linejoin="round" stroke-width=".51"/><path d="m193.26,89.36c1.28-.15,2.56-.39,3.85-.65.31-.06,4.39-.82,4.33-1.08l-.18-.86c-.97.13-1.97-.42-2.72-.91l-.33-.23c-.81-.56-1.64-1.15-2.65-1.39-.98-.23-2.26.01-2.93.85-.79-.74-2.08-.8-3.03-.44-.96.38-1.7,1.07-2.42,1.74l-.3.27c-.68.59-1.59,1.26-2.57,1.29,0,0-.06.88-.06.88,1.7.51,3.83.56,5.6.66,1.16.06,2.29,0,3.41-.12Z" fill="#2e2e2e" stroke-width="0"/><path d="m197.36,87.94c2.15.04,4.31-.64,6.06-1.9" fill="none" stroke="#2e2e2e" stroke-linecap="round" stroke-linejoin="round" stroke-width=".59"/><path d="m204.94,83.78c.71.75.8,2,.22,2.84" fill="none" stroke="#2e2e2e" stroke-linecap="round" stroke-linejoin="round" stroke-width=".59"/><path d="m188.4,92.1c3.17.52,6.44.37,9.54-.43" fill="none" stroke="#2e2e2e" stroke-linecap="round" stroke-linejoin="round" stroke-width=".51"/><path d="m193.86,79.3c.69-.37,1.29-.92,1.73-1.57" fill="none" stroke="#2e2e2e" stroke-linecap="round" stroke-linejoin="round" stroke-width=".51"/><path d="m191.38,79.47c-.74-.27-1.41-.73-1.93-1.32" fill="none" stroke="#2e2e2e" stroke-linecap="round" stroke-linejoin="round" stroke-width=".51"/><line x1="191.48" y1="66.75" x2="192.14" y2="76.18" fill="#f5f5ff" stroke="#2e2e2e" stroke-miterlimit="10" stroke-width=".51"/><path d="m135.74,183.39c11.92,4.7,22.65,5.82,23.97,2.48,1.32-3.33-7.28-9.85-19.2-14.56-11.92-4.7-22.65-5.82-23.97-2.48-1.32,3.33,7.28,9.85,19.2,14.56Z" fill="#2e2e2e" stroke-width="0"/><path d="m110.09,222.2l13.3-45.05,2.93-9.85,5.9-19.87c1.87-6.33,6.26-11.09,11.45-13.19,1.68-.69,3.45-1.09,5.23-1.17,1.64-.08,3.29.12,4.92.6,9.32,2.78,13.98,14.07,10.15,24.61l-7.89,21.63-2.86,7.84-2.33,6.39-9.89,27.09" fill="#f5f5ff" stroke="#2e2e2e" stroke-miterlimit="10" stroke-width=".51"/><path d="m116.77,168.43c2.03-2.83,12.33-1.6,23.73,2.88,11.92,4.71,20.53,11.23,19.2,14.57-.03.07-.06.13-.11.2l.13.05,11.44-30.84c4.49-12.11-1.62-25.37-13.31-28.83-2.21-.66-4.44-.92-6.65-.82-7.87.38-15.19,5.41-18.7,13.16l-15.72,29.62Z" fill="#2e2e2e" stroke-width="0"/><path d="m278.85,131.64c2.44,12.58,1.57,23.33-1.95,24.02-3.52.68-8.35-8.96-10.79-21.54-2.44-12.58-1.57-23.33,1.95-24.02,3.52-.68,8.35,8.96,10.79,21.54Z" fill="#2e2e2e" stroke-width="0"/><path d="m315.09,143.74l-30.15,5.05-5,.83-8.23,1.38-5.45.91-9.29,1.54-7.97,1.34c-11.06,1.85-21.31-4.82-22.33-14.49-.18-1.68-.06-3.36.31-4.94.33-1.41.88-2.76,1.59-4.04,2.86-5.16,8.63-9,15.59-9.73l20.61-2.16,10.22-1.07,46.85-4.91c.15,0,.29-.04.44-.04" fill="#f5f5ff" stroke="#2e2e2e" stroke-miterlimit="10" stroke-width=".51"/><path d="m267.62,110.25c-3.15,1.47-3.83,11.83-1.51,23.85,2.44,12.58,7.27,22.24,10.8,21.55.08-.02.14-.04.22-.08l.02.13-32.41,5.6c-12.72,2.19-24.64-6.25-25.91-18.37-.24-2.29-.09-4.53.42-6.69,1.81-7.67,8.1-13.95,16.37-15.98l32-10.02Z" fill="#2e2e2e" stroke-width="0"/><path d="m250.18,147.91l-2.83,17.76c.81,1.57,1.47,3.24,1.94,4.99.49,1.82.8,3.71.89,5.66.11,2.33-.08,4.61-.57,6.8-.4,1.89-1,3.71-1.8,5.41-1.3,2.83-3.08,5.4-5.27,7.6l-8.89,67.5-69.4-1.44-8.22-62.5c-1.64-1.45-3.1-3.12-4.34-4.95-1.47-2.18-2.64-4.58-3.41-7.17-.6-2-.98-4.11-1.08-6.31-.11-2.23.08-4.41.49-6.5.27-1.32.62-2.61,1.07-3.85l-4.52-17.91c-1.89-6.59-1.9-13.13.22-18.15,1.74-4.17,4.96-7.29,9.8-8.58,1.22-.32,2.57-.53,4.02-.6l77.21-3.7c1.44-.07,2.77.01,3.98.21,4.67.78,7.76,3.5,9.53,7.35,2.26,4.86,2.44,11.52,1.17,18.39Z" fill="#f5f5ff" stroke="#2e2e2e" stroke-linecap="round" stroke-linejoin="round" stroke-width=".51"/><g clip-path="url(#clippath)"><rect x="137.73" y="142.23" width="118.42" height="7.68" transform="translate(-6.77 9.61) rotate(-2.75)" fill="#2e2e2e" stroke-width="0"/><rect x="138.75" y="163.33" width="118.42" height="7.68" transform="translate(-7.78 9.68) rotate(-2.75)" fill="#2e2e2e" stroke-width="0"/><rect x="139.76" y="184.44" width="118.42" height="7.68" transform="translate(-8.79 9.75) rotate(-2.75)" fill="#2e2e2e" stroke-width="0"/><rect x="140.77" y="205.55" width="118.42" height="7.68" transform="translate(-9.8 9.82) rotate(-2.75)" fill="#2e2e2e" stroke-width="0"/><rect x="141.78" y="226.66" width="118.42" height="7.68" transform="translate(-10.82 9.9) rotate(-2.75)" fill="#2e2e2e" stroke-width="0"/><rect x="142.8" y="247.76" width="118.42" height="7.68" transform="translate(-11.83 9.97) rotate(-2.75)" fill="#2e2e2e" stroke-width="0"/></g><path d="m211.19,122.03l8.1.7c-3.04,9.19-11.63,16.59-21.35,17.47-10.44.96-20.95-5.71-25.11-15.24l6.72-1.03" fill="#f5f5ff" stroke="#2e2e2e" stroke-linecap="round" stroke-linejoin="round" stroke-width=".51"/><path d="m244.99,330.99c-1.06,7.68-.47,14.11,1.33,14.36s4.12-5.78,5.18-13.46c1.06-7.68.47-14.11-1.33-14.36-1.8-.25-4.12,5.78-5.18,13.46Z" fill="#2e2e2e" stroke-width="0"/><path d="m222.59,340.5l107.51,5.11c2.12.07,3.9-1.72,3.98-4h0c.06-1.7-.86-3.26-2.31-3.93l-15.91-4.58c-6.83-1.96-13.31-5.09-19.21-9.27l-5.61-3.97c-4.57-3.24-10.23-4.21-15.53-2.65l-12.16,3.57-34.88-4.78-5.88,24.51Z" fill="#f5f5ff" stroke="#2e2e2e" stroke-linecap="round" stroke-linejoin="round" stroke-width=".62"/><path d="m60.32,310.29c0,9.45,4.34,18.01,11.36,24.2,7.02,6.19,16.71,10.02,27.42,10.02h146.93c-1.64-4.73-2.03-9.88-1.01-14.77.9-4.27,2.86-8.3,5.6-11.69l-140.57-38.78c-23.5-6.87-48.58,7.64-49.69,29.47-.02.52-.04,1.03-.04,1.56Z" fill="#2e2e2e" stroke-width="0"/><line x1="250.62" y1="318.05" x2="146.53" y2="289.48" fill="none" stroke="#fff" stroke-linecap="round" stroke-linejoin="round" stroke-width=".58"/><path d="m149.42,330.99c1.06,7.68.47,14.11-1.33,14.36s-4.12-5.78-5.18-13.46c-1.06-7.68-.47-14.11,1.33-14.36,1.8-.25,4.12,5.78,5.18,13.46Z" fill="#2e2e2e" stroke-width="0"/><path d="m171.81,340.5l-107.51,5.11c-2.12.07-3.9-1.72-3.98-4h0c-.06-1.7.86-3.26,2.31-3.93l15.91-4.58c6.83-1.96,13.31-5.09,19.21-9.27l5.61-3.97c4.57-3.24,10.23-4.21,15.53-2.65l12.16,3.57,34.88-4.78,5.88,24.51Z" fill="#f5f5ff" stroke="#2e2e2e" stroke-linecap="round" stroke-linejoin="round" stroke-width=".62"/><path d="m334.08,310.29c0,9.45-4.34,18.01-11.36,24.2-7.02,6.19-16.71,10.02-27.42,10.02h-146.93c1.64-4.73,2.03-9.88,1.01-14.77-.9-4.27-2.86-8.3-5.6-11.69l140.57-38.78c23.5-6.87,48.58,7.64,49.69,29.47.02.52.04,1.03.04,1.56Z" fill="#2e2e2e" stroke-width="0"/><line x1="143.78" y1="318.05" x2="252.39" y2="288.08" fill="none" stroke="#fff" stroke-linecap="round" stroke-linejoin="round" stroke-width=".58"/><path d="m336.86,107.85c-1.63-15.57-5.15-30.94-10.43-45.67-.16-2.22-.49-4.38-1.01-6.47-1.62-6.54-4.94-12.38-9.43-17.01-5.31-5.48-12.24-9.25-20.02-10.43-.25-.03-.51-.09-.76-.12-.32-.05-.64-.09-.96-.12-.61-.07-1.21-.1-1.82-.14-.47-.03-.98-.05-1.45-.05h-.41c-.12,0-.22,0-.34.02-.02-.02-.03-.02-.05,0-16.61.17-30.53,11.96-34.47,27.86-.22.88-.39,1.78-.55,2.69-8.42,17.74-11.28,38.19-10.96,58,1.3-3.41,3.38-6.52,6.02-9.03-2.46,5.32-2.41,11.7.06,17.01l-.03.35h.18c.03.07.05.13.09.2l.03-.2h79.8l-.02-.37c.93-.26,1.83-.6,2.64-.98-.17-2.05-.34-4.1-.52-6.15,1.03,1.59,2.13,2.24,3.16,3.82-.64-5.23-1.5-11.52-2.98-16.58,1.68,1.02,3.36,1.6,4.22,3.37Z" fill="#2e2e2e" stroke-width="0"/><path d="m307.1,144.75c.32,9.8-7.36,17.92-16.95,17.92s-16.94-7.79-16.94-17.35c0-.19,0-.39.01-.58l1.89-25.87.24-3.33,1.18-16.08h27.25l1.22,16.68.27,3.64,1.83,24.96Z" fill="#f5f5ff" stroke="#2e2e2e" stroke-linecap="round" stroke-linejoin="round" stroke-width=".53"/><path d="m306.15,132.1c-8.59,1.05-18.27-3.08-24.83-11.46-2.67-3.39-4.52-7.12-5.58-10.9l.77-10.44h27.25l1.21,16.67.28,3.64.9,12.48Z" fill="#2e2e2e" stroke-width="0"/><path d="m313.89,73.54c-3.42,5.5-3.09,12.01.74,14.55,3.83,2.54,9.71.14,13.14-5.36,3.42-5.5,3.09-12.01-.74-14.55-3.83-2.54-9.71-.14-13.14,5.36Z" fill="#f5f5ff" stroke="#2e2e2e" stroke-linecap="round" stroke-linejoin="round" stroke-width=".53"/><path d="m324.14,70.81c1.66.65,2.92,2.22,3.19,3.98.27,1.76-.46,3.64-1.86,4.75" fill="none" stroke="#2e2e2e" stroke-linecap="round" stroke-linejoin="round" stroke-width=".53"/><path d="m267.68,73.54c3.42,5.5,3.09,12.01-.74,14.55-3.83,2.54-9.71.14-13.14-5.36-3.42-5.5-3.09-12.01.74-14.55,3.83-2.54,9.71-.14,13.14,5.36Z" fill="#f5f5ff" stroke="#2e2e2e" stroke-linecap="round" stroke-linejoin="round" stroke-width=".53"/><path d="m257.42,70.81c-1.66.65-2.92,2.22-3.19,3.98-.27,1.76.46,3.64,1.86,4.75" fill="none" stroke="#2e2e2e" stroke-linecap="round" stroke-linejoin="round" stroke-width=".53"/><path d="m322.73,64.45c0,.52,0,1.02-.03,1.51-.06,1.48-.18,2.98-.37,4.43l-.21,2.07-.09,1.13-.15,1.63c-.09.99-.15,1.97-.22,2.95-.03.62-.06,1.23-.1,1.85-.13,2.46-.27,4.9-.59,7.33,0,.04-.03.09-.03.12-.06.46-.13.93-.22,1.38h0c-.09.52-.18,1.01-.31,1.5-.15.74-.34,1.47-.58,2.21h0c-.06.28-.15.53-.25.81-.16.53-.39,1.08-.59,1.63-.58,1.44-1.27,2.83-2.07,4.22-3.3,5.78-8.38,11.08-13.46,14.59-.03.04-.06.06-.07.06-.62.44-1.24.84-1.85,1.21-6.2,3.79-13.54,4-19.96.73-1.33-.67-2.62-1.44-3.86-2.35-.01,0-.03,0-.04-.03-4.92-3.51-9.15-8.6-12.32-14.2-.24-.4-.44-.78-.67-1.18-.1-.21-.21-.43-.31-.64-.18-.34-.36-.71-.53-1.08-.5-.96-.95-1.97-1.36-2.95-.1-.28-.22-.55-.31-.83-1.5-3.94-2.03-8.34-2.38-12.68-.06-.67-.12-1.36-.16-2.03-.06-.76-.12-1.53-.18-2.27l-.18-2.03c-.04-.22-.07-.44-.1-.65-.06-.25-.09-.49-.12-.74-.16-.92-.28-1.85-.39-2.81-.15-1.57-.24-3.2-.24-4.87,0-.13,0-.28.01-.43,0-.77.03-1.53.07-2.28.01-.27.03-.53.04-.8.07-.87.18-1.73.31-2.56.74-5.14,2.38-9.92,4.75-14.11.59-1.05,1.23-2.06,1.93-3.04,2.28-3.27,5.08-6.09,8.2-8.29.22-.18.46-.34.68-.49.28-.19.56-.39.84-.56,1.11-.68,2.25-1.3,3.42-1.84,3.42-1.57,7.14-2.47,11.05-2.58.01-.03.03-.03.04,0v-.03c.19-.01.4-.01.59-.01h.19c.49,0,1.02.01,1.51.06.65.03,1.27.07,1.91.16.34.03.68.07,1.01.13.27.03.53.09.8.13,2.22.43,4.35,1.1,6.4,2.03,1.57.68,3.09,1.53,4.53,2.5.07.04.15.1.22.15.92.62,1.79,1.27,2.64,2,3.18,2.68,5.91,6.01,8.06,9.83h0c.15.24.25.46.39.68.01,0,.01.03.01.03,2.07,3.95,3.57,8.38,4.25,13.14,0,.03.01.06.01.1.13.83.22,1.69.3,2.56.01.15.03.3.03.44.07.86.1,1.75.1,2.64.01.15.01.3.01.43Z" fill="#f5f5ff" stroke="#2e2e2e" stroke-linecap="round" stroke-linejoin="round" stroke-width=".53"/><path d="m273.73,32.94c-2.26,13.95-7.15,27.45-14.33,39.49-.08.14-.17.29-.26.44-.05-.24-.09-.49-.11-.73-.16-.93-.28-1.86-.38-2.82-.16-1.56-.24-3.2-.24-4.87,0-.14,0-.29.02-.42,0-1.93.14-3.82.43-5.65.92-6.43,3.26-12.3,6.67-17.14,2.29-3.27,5.08-6.09,8.21-8.29Z" fill="#2e2e2e" stroke-width="0"/><path d="m322.73,64.45c0,.52,0,1.03-.04,1.51-.05,1.49-.18,2.97-.37,4.43l-.2,2.08-.1,1.13c-.27-.43-.51-.82-.71-1.16-7.23-12.14-12.16-25.75-14.39-39.82.91.61,1.79,1.27,2.64,1.99,3.37,2.84,6.23,6.41,8.43,10.52.02,0,.02.02.02.02,2.08,3.96,3.57,8.39,4.26,13.14,0,.04.02.06.02.1.26,1.83.42,3.72.42,5.65.02.14.02.29.02.42Z" fill="#2e2e2e" stroke-width="0"/><path d="m322.62,61.38c-.89.87-1.94,1.54-3.18,1.84-3.49.86-7.12-1.58-8.81-4.77-1.7-3.17-1.17-7.54-1.35-11.14-.77,5.78-4.65,10.59-9.52,13.8,3.7-3.79,4.93-10.13,4.09-15.36-.25,1.16-.72,2.37-1.34,3.59-3.78,7.48-11.62,12.03-20,11.99-4.14-.02-8.19-.04-9.34-.05,4.58-2.32,7.17-7.2,9.48-11.79-5.19,6.05-12.04,10.65-19.59,13.2-1.57.53-3.35.22-4.52-.95l-.02-.02s0-.02-.01-.03c.07-1.14.2-2.26.37-3.33.74-5.14,2.38-9.92,4.75-14.11.59-1.05,1.23-2.06,1.93-3.04,2.28-3.27,5.08-6.09,8.2-8.29.22-.18.46-.34.68-.49.28-.19.56-.39.84-.56,1.11-.68,2.25-1.3,3.42-1.84,3.42-1.57,7.14-2.47,11.05-2.58.01-.03.03-.03.04,0v-.03c.19-.01.4-.01.59-.01h.19c.49,0,1.02.01,1.51.06.65.03,1.27.07,1.91.16.34.03.68.07,1.01.13.27.03.53.09.8.13,2.22.43,4.35,1.1,6.4,2.03,1.57.68,3.09,1.53,4.53,2.5.07.04.15.1.22.15.92.62,1.79,1.27,2.64,2,3.18,2.68,5.91,6.01,8.06,9.83h0c.15.24.25.46.39.68.01,0,.01.03.01.03,2.07,3.95,3.57,8.38,4.25,13.14,0,.03.01.06.01.1.15.96.25,1.97.33,2.99,0,0,0,0,0,.02Z" fill="#2e2e2e" stroke-width="0"/><path d="m313.49,53.61c5.03,6.49,7.88,14.64,8,22.85.12,8.21-2.48,16.44-7.31,23.08,6.23-5.91,10.26-12.53,11.14-21.07.88-8.54-1.39-17.36-6.28-24.42-.63-.91-1.36-1.83-2.41-2.19-1.05-.35-2.97.66-3.15,1.75Z" fill="#2e2e2e" stroke-width="0"/><path d="m297.34,68.33c1.01-1.36,2.47-2.15,3.91-2.71,1.47-.53,2.99-.79,4.51-.82,1.52-.03,3.04.17,4.51.6,1.46.46,2.92,1.1,4.14,2.25-1.59.44-3,.64-4.41.81-1.4.15-2.78.23-4.15.25-1.37.03-2.73,0-4.11-.06-1.4-.08-2.77-.16-4.4-.32Z" fill="#2e2e2e" stroke-width="0"/><path d="m284.36,68.33c-1.01-1.36-2.47-2.15-3.91-2.71-1.47-.53-2.99-.79-4.51-.82-1.52-.03-3.04.17-4.51.6-1.46.46-2.92,1.1-4.14,2.25,1.59.44,3,.64,4.41.81,1.4.15,2.78.23,4.15.25,1.37.03,2.73,0,4.11-.06,1.4-.08,2.77-.16,4.4-.32Z" fill="#2e2e2e" stroke-width="0"/><path d="m296.92,80.48c3.41-5.56,9.25-8.72,14.73-3.63.3.23,1.31.97,1.83,1.39,0,0-.31-.1-.31-.1.05.03.28-.02.47-.1.63-.25,1.25-.64,1.79-1.06.21-.17.5.13.32.33-.77.8-1.42,1.64-2.58,1.89-.09,0-.18-.02-.25-.06-.71-.45-1.41-.92-2.1-1.4-3.09-2.95-7.54-2.84-10.62.06-1.03.88-1.94,1.97-2.94,2.98-.19.2-.52-.08-.35-.3h0Z" fill="#2e2e2e" stroke-width="0"/><path d="m302.48,77.69c.11-1.5,1.41-2.63,2.91-2.52,1.5.11,2.63,1.41,2.52,2.91-.11,1.5-1.41,2.63-2.91,2.52-1.5-.11-2.63-1.41-2.52-2.91Z" fill="#2e2e2e" stroke-width="0"/><path d="m310.49,80.21c1-.22,1.95-.68,2.75-1.32" fill="none" stroke="#2e2e2e" stroke-linecap="round" stroke-linejoin="round" stroke-width=".53"/><path d="m297.13,77.23c1.27-2.24,3.49-3.92,5.98-4.55" fill="none" stroke="#2e2e2e" stroke-linecap="round" stroke-linejoin="round" stroke-width=".53"/><path d="m284.42,80.78c-3.74-4.45-8.43-7.55-13.55-3.04-.67.47-1.36.92-2.05,1.36-.09.06-.2.11-.31.1-1.17-.25-1.81-1.09-2.58-1.89-.18-.2.11-.5.32-.33.54.42,1.16.81,1.79,1.06.19.08.42.13.47.1,0,0-.31.1-.31.1,1.88-1.33,3.29-2.99,5.69-3.65,4.64-1.45,8.6,2.3,10.87,5.9.17.22-.16.5-.35.29h0Z" fill="#2e2e2e" stroke-width="0"/><path d="m279.21,77.69c-.11-1.5-1.41-2.63-2.91-2.52-1.5.11-2.63,1.41-2.52,2.91s1.41,2.63,2.91,2.52c1.5-.11,2.63-1.41,2.52-2.91Z" fill="#2e2e2e" stroke-width="0"/><path d="m271.21,80.21c-1-.22-1.95-.68-2.75-1.32" fill="none" stroke="#2e2e2e" stroke-linecap="round" stroke-linejoin="round" stroke-width=".53"/><path d="m284.56,77.23c-1.27-2.24-3.49-3.92-5.98-4.55" fill="none" stroke="#2e2e2e" stroke-linecap="round" stroke-linejoin="round" stroke-width=".53"/><path d="m291.04,104.66c1.33-.06,2.66-.22,4-.4.32-.04,4.57-.53,4.53-.8,0,0-.12-.9-.12-.9-1.01.06-1.99-.57-2.72-1.13l-.33-.26c-.79-.64-1.6-1.3-2.62-1.62-1-.3-2.32-.15-3.07.67-.75-.82-2.08-.97-3.08-.67-1.01.32-1.83.98-2.61,1.62l-.32.26c-.74.56-1.72,1.18-2.73,1.14l-.12.9c1.71.65,3.89.85,5.7,1.08,1.18.15,2.35.17,3.51.12Z" fill="#2e2e2e" stroke-width="0"/><path d="m298.12,103.36c.98-.19,1.94-.49,2.86-.89" fill="none" stroke="#2e2e2e" stroke-linecap="round" stroke-linejoin="round" stroke-width=".61"/><path d="m283.57,103.36c-.98-.19-1.94-.49-2.86-.89" fill="none" stroke="#2e2e2e" stroke-linecap="round" stroke-linejoin="round" stroke-width=".61"/><path d="m285.86,107.13c3.21.76,6.59.84,9.83.24" fill="none" stroke="#2e2e2e" stroke-linecap="round" stroke-linejoin="round" stroke-width=".53"/><path d="m287.37,92.62c1.86,1.7,4.95,1.85,6.95.33" fill="none" stroke="#2e2e2e" stroke-linecap="round" stroke-linejoin="round" stroke-width=".65"/><line x1="290.69" y1="77.16" x2="290.69" y2="88.39" fill="none" stroke="#2e2e2e" stroke-linecap="round" stroke-linejoin="round" stroke-width=".53"/><path d="m360.93,324.58c-2.15-25.11-11.77-49.45-28.04-70.96l-8.04-10.66h-77.65l-8.04,10.66c-16.27,21.51-25.89,45.86-28.04,70.96h149.82Z" fill="#f5f5ff" stroke="#2e2e2e" stroke-linecap="round" stroke-linejoin="round" stroke-width=".58"/><path d="m224.68,198.97c12.03,5.43,23.01,7.1,24.52,3.74,1.52-3.36-7-10.49-19.03-15.92-12.03-5.43-23.01-7.1-24.52-3.74s7,10.49,19.03,15.92Z" fill="#2e2e2e" stroke-width="0"/><path d="m196.12,238.14c.04-.15.1-.28.15-.43l16.02-45.77,3.49-9.98,7.05-20.14c2.24-6.41,6.99-11.09,12.42-13,1.76-.62,3.6-.95,5.43-.95,1.69,0,3.38.28,5.03.86,9.45,3.32,13.68,15.16,9.23,25.81l-9.18,21.86-3.33,7.92-2.71,6.46-11.51,27.37" fill="#f5f5ff" stroke="#2e2e2e" stroke-linecap="round" stroke-linejoin="round" stroke-width=".53"/><path d="m205.92,182.64c2.22-2.81,12.76-1.04,24.26,4.14,12.03,5.43,20.56,12.56,19.03,15.93-.04.07-.07.13-.13.2l.13.05,13.29-31.15c5.21-12.23-.42-26.17-12.27-30.31-2.24-.78-4.52-1.17-6.8-1.17-8.11,0-15.89,4.81-19.88,12.61l-17.62,29.69Z" fill="#3b4eff" stroke-width="0"/><path d="m354.62,198.97c-12.03,5.43-23.01,7.1-24.52,3.74s7-10.49,19.03-15.92c12.03-5.43,23.01-7.1,24.52-3.74s-7,10.49-19.03,15.92Z" fill="#2e2e2e" stroke-width="0"/><path d="m351.08,238.14l-12.2-29.01-2.01-4.81-3.33-7.92-2.21-5.24-3.75-8.94-3.23-7.67c-4.47-10.65-.22-22.49,9.23-25.81,1.64-.58,3.35-.86,5.02-.86,1.5,0,2.98.22,4.43.64,5.85,1.64,11.06,6.52,13.45,13.31l7.05,20.14,3.49,9.98,16.02,45.77c.04.15.1.28.15.43" fill="#f5f5ff" stroke="#2e2e2e" stroke-linecap="round" stroke-linejoin="round" stroke-width=".53"/><path d="m373.38,182.64c-2.22-2.81-12.76-1.04-24.26,4.14-12.03,5.43-20.56,12.56-19.03,15.93.04.07.07.13.13.2l-.13.05-13.29-31.15c-5.21-12.23.42-26.17,12.27-30.31,2.24-.78,4.52-1.17,6.8-1.17,8.11,0,15.89,4.81,19.88,12.61l17.62,29.69Z" fill="#3b4eff" stroke-width="0"/><path d="m343.32,167.47l-3.79,18.13c.76,1.66,1.35,3.41,1.75,5.23.41,1.9.64,3.85.64,5.86,0,2.4-.31,4.74-.92,6.96-.5,1.93-1.21,3.76-2.12,5.48-1.48,2.84-3.44,5.41-5.79,7.55l-4.46,21.46h-80.22l-4.46-22.06c-1.61-1.57-3.04-3.36-4.22-5.3-1.41-2.31-2.49-4.84-3.15-7.54-.52-2.09-.8-4.28-.8-6.55s.3-4.53.83-6.66c.34-1.35.77-2.65,1.29-3.91l-3.76-18.64c-1.61-6.87-1.3-13.59,1.13-18.66,2-4.21,5.46-7.26,10.5-8.34,1.27-.27,2.67-.41,4.16-.41h79.58c1.48,0,2.84.15,4.09.41,4.77,1.04,7.8,3.98,9.43,8.03,2.09,5.11,1.94,11.97.3,18.97Z" fill="#3b4eff" stroke-width="0"/><path d="m343.31,167.46c-1.13,6.07-2.3,12.13-3.55,18.17,4.88,9.79,2.15,23.62-6.68,31.04,1.02-.98,1.96-2.04,2.83-3.15,6.17-7.84,7.43-18.92,3.39-27.99,1.27-6.04,2.62-12.06,4.01-18.08h0Z" fill="#fff" stroke-width="0"/><path d="m243.95,216.08c-8.11-7.43-10.68-19.98-6.27-30.05-.6-2.35-1.24-6.31-1.82-9.2-.6-3.11-1.15-6.24-1.72-9.36.68,3.1,1.39,6.19,2.04,9.29.64,3.15,1.42,6.3,1.94,9.45-4.25,9.98-1.83,22.19,5.83,29.87h0Z" fill="#fff" stroke-width="0"/><circle cx="287.75" cy="261.06" r="58.65" fill="#3b4eff" stroke-width="0"/><rect x="270.04" y="133.42" width="40" height="12.17" fill="#3b4eff" stroke-width="0"/><path d="m196.29,237.71c-2.03,5.6-.37,12.11,4.55,16.01l53.3,32.11,2.21,1.61,8.89,5,9.06,5.08c1.96,1.02,4.08,1.52,6.15,1.54h0s5.44,4.36,5.44,4.36c.2.26.43.51.74.7l10.35,6.82c.71.46,1.53.59,2.3.44.76-.16,1.47-.6,1.93-1.3l.24-.36c.06-.09.09-.18.14-.27.24-.46.37-.96.36-1.45-.01-.98-.49-1.94-1.37-2.51l-9.34-6.14-3.19-2.56c.68-.44,1.32-.95,1.91-1.54h0l5.32,1.2,11.43,9.11c1.33,1.05,3.25.84,4.3-.49l.09-.11c.2-.26.36-.53.47-.82.08-.21.11-.42.14-.64.01-.09.05-.17.06-.25.04-.6-.1-1.21-.4-1.74.33-.11.68-.27.97-.52l.17-.13c1.32-1.07,1.52-2.99.47-4.3l-9.43-11.73c-.46-.55-1.04-.89-1.67-1.04-.13-.03-.23-.08-.36-.11l-7.87-1.77c-.15-.55-.32-1.09-.56-1.61l5.93.03,11.31,9.04c1.14.92,2.76.87,3.85-.04.16-.13.3-.28.43-.44l.02-.03.2-.25c.39-.49.61-1.07.66-1.65.03-.39-.01-.78-.13-1.16-.06-.19-.14-.37-.23-.54-.19-.35-.45-.67-.78-.93l-12.06-9.65c-.4-.31-.87-.5-1.34-.6-.33-.12-.69-.21-1.08-.21l-12.03-.03h-.34c-.23-.16-.46-.29-.7-.41-.49-.26-1.01-.48-1.52-.66l.19-.09,7.18-2.93s0,0,0,0l.74-.29c1.46-.59,2.17-2.29,1.58-3.76l-.3-.72-.29-.74c-.61-1.47-2.29-2.19-3.76-1.58l-.64.26h0s0,0-.01,0c-.03,0-.06.02-.09.03l-.11.04-19.89,6.52-2.55.52-44.44-35.19m70.91,53.56l5.5,1.24,4.56,5.67c-.67-.53-1.34-1.06-2.01-1.6-.62-.51-1.18-1.11-1.77-1.66-.3-.28-.6-.54-.92-.78-.27-.2-.56-.37-.86-.51-.06-.03-.12-.06-.18-.09-.12-.05-.25-.08-.38-.13-1.33-.49-2.77-.61-4.14-.91l-.11-.03c.12-.39.24-.8.32-1.2Z" fill="#f5f5ff" stroke="#2e2e2e" stroke-linecap="round" stroke-linejoin="round" stroke-width=".53"/><line x1="303.87" y1="295.34" x2="311.38" y2="301.51" fill="none" stroke="#2e2e2e" stroke-linecap="round" stroke-linejoin="round" stroke-width=".53"/><path d="m330.95,341.04l86.28,4.22c1.7.06,3.13-1.54,3.21-3.58h0c.05-1.52-.68-2.91-1.84-3.5l-12.75-4.03c-5.47-1.73-10.67-4.5-15.39-8.21l-4.49-3.52c-3.66-2.87-8.2-3.72-12.46-2.31l-9.77,3.22-27.98-4.15-4.8,21.86Z" fill="#f5f5ff" stroke="#2e2e2e" stroke-linecap="round" stroke-linejoin="round" stroke-width=".53"/><path d="m158.81,310.29c0,9.45,4.34,18.01,11.36,24.2,7.02,6.19,16.71,10.02,27.42,10.02h146.93c-1.64-4.73-2.03-9.88-1.01-14.77.9-4.27,2.86-8.3,5.6-11.69l-140.57-38.78c-23.5-6.87-48.58,7.64-49.69,29.47-.02.52-.04,1.03-.04,1.56Z" fill="#f5f5ff" stroke="#2e2e2e" stroke-linecap="round" stroke-linejoin="round" stroke-width=".53"/><path d="m235.77,332.22c1.06,7.68.47,14.11-1.33,14.36-1.8.25-4.12-5.78-5.18-13.46-1.06-7.68-.47-14.11,1.33-14.36,1.8-.25,4.12,5.78,5.18,13.46Z" fill="#2e2e2e" stroke-width="0"/><path d="m248.29,342.27l-86.28,4.22c-1.7.06-3.13-1.54-3.21-3.58h0c-.05-1.52.68-2.91,1.84-3.5l12.75-4.03c5.47-1.73,10.67-4.5,15.39-8.21l4.49-3.52c3.66-2.87,8.2-3.72,12.46-2.31l9.77,3.22,27.98-4.15,4.8,21.86Z" fill="#f5f5ff" stroke="#2e2e2e" stroke-linecap="round" stroke-linejoin="round" stroke-width=".53"/><path d="m420.43,311.52c0,9.45-4.34,18.01-11.36,24.2-7.02,6.19-16.71,10.02-27.42,10.02h-146.93c1.64-4.73,2.03-9.88,1.01-14.77-.9-4.27-2.86-8.3-5.6-11.69l140.57-38.78c23.5-6.87,48.58,7.64,49.69,29.47.02.52.04,1.03.04,1.56Z" fill="#f5f5ff" stroke="#2e2e2e" stroke-linecap="round" stroke-linejoin="round" stroke-width=".53"/><path d="m360.68,225.08c-15.94-2.76-57.19-10.14-69.96-14.72-1.16-.42-1.95-2.85-2.76-3.75-.95-1.04-2.22-1.86-3.66-1.44l-14.69,4.23c-1.73.5-2.73,2.31-2.24,4.04.5,1.73,2.31,2.73,4.04,2.24l12.42-3.57,1.68,2.21c-.36,0-.72.03-1.07.16l-17.05,6.14c-1.69.61-2.57,2.47-1.96,4.16.61,1.69,2.47,2.57,4.16,1.96l15.65-5.64,2.33,1.41c-.05.15-.11.29-.16.44-.05.01-.1.01-.15.03l-17.43,5.01c-1.78.51-2.81,2.37-2.3,4.16.51,1.78,2.37,2.81,4.16,2.3l15.92-4.58c.38,1.05.91,2.04,1.58,2.95l-11.96,4.9c-1.7.69-2.51,2.63-1.81,4.33.7,1.7,2.63,2.51,4.33,1.81l15.45-6.33c.11-.04.2-.11.3-.16.61.21,1.25.38,1.9.5,1.47.26,2.92.26,4.3.07l.08-.02c.89-.14,1.75-.36,2.57-.67l7.11-2.05,49.68,20.47c9.65,5.23,21.95-.98,22.66-11.93.03-.45.04-.9.03-1.36-.03-2.05-.44-4.01-1.16-5.81" fill="#f5f5ff" stroke="#2e2e2e" stroke-linecap="round" stroke-linejoin="round" stroke-width=".53"/><path d="m110.9,219.27c-.84,2.23-1.27,4.66-1.17,7.19.02.51.06,1.01.12,1.5,1.44,12.1,15.47,18.25,25.85,11.86,5.49-2.62,10.98-5.24,16.47-7.86,9.34-4.46,18.68-8.92,28.02-13.38,2.09-1,4.17-1.99,6.26-2.99.65-.31,1.29-.67,1.95-.93,2.4-.96,5.45.62,7.85,1.04,1.87.33,3.77.65,5.67.67,1.04,0,2.1-.05,3.11-.29.6-.14,1.77-.83,2.38-.55.11.05.22.12.34.16l17.52,6.08c1.92.67,4.03-.35,4.69-2.27.67-1.92-.35-4.03-2.27-4.69l-13.56-4.71c.68-1.05,1.22-2.18,1.57-3.36,0,0,.09.02.09.02l17.85,4.1c2.01.46,4.01-.79,4.47-2.8.46-2.01-.79-4.01-2.8-4.47l-19.63-4.51c-.06-.01-.11-.01-.17-.02-.06-.17-.14-.32-.19-.49l2.48-1.69,17.7,5.31c1.91.57,3.93-.51,4.5-2.42.57-1.91-.51-3.93-2.42-4.5l-19.28-5.78c-.4-.12-.8-.14-1.2-.11l1.73-2.55,13.99,3.21c1.95.45,3.9-.77,4.35-2.72.45-1.95-.77-3.9-2.72-4.35-5.14-1.18-10.32-2.29-15.42-3.61-1.1-.28-2.3-.42-3.33.03-1.38.6-2.05,2.02-2.75,3.26-.42.74-.99,2.34-1.85,2.67-17.58,6.85-57.09,16.14-74.81,20.16" fill="#f5f5ff" stroke="#2e2e2e" stroke-linecap="round" stroke-linejoin="round" stroke-width=".5"/><path d="m255.6,167.97l-2.04,11.2c-.01.06,0,.12-.01.17,0,.04,0,.09-.01.13,0,.13,0,.26,0,.39,0,.02,0,.04,0,.06l.42,3.73c.16,1.4,1.42,2.41,2.82,2.25,1.4-.16,2.41-1.42,2.25-2.82l-.38-3.38,1.97-10.81c.25-1.39-.67-2.72-2.05-2.97-1.39-.25-2.72.67-2.97,2.05Z" fill="#f5f5ff" stroke="#2e2e2e" stroke-linecap="round" stroke-linejoin="round" stroke-width=".5"/><path d="m285.64,160.35l52.81-14.49c1.92-.53,3.63-1.43,5.08-2.61" fill="#f5f5ff" stroke="#2e2e2e" stroke-linecap="round" stroke-linejoin="round" stroke-width=".5"/><line x1="328.36" y1="120.38" x2="285.72" y2="140.91" fill="#f5f5ff" stroke="#2e2e2e" stroke-linecap="round" stroke-linejoin="round" stroke-width=".5"/><path d="m328.36,120.38l-55.51,26.72-7.97,7.88c-.68.56-1.33,1.2-1.93,1.91l-.11.11-.08.12c-.59.72-1.13,1.5-1.63,2.34l-4.31,6.2c-1.21,1.74-1.87,3.81-1.89,5.93-.03,3.1,1.29,6.05,3.63,8.09l4.87,4.24c.18.17.36.33.55.48l.26.23h.02c1.6,1.24,3.44,2.05,5.45,2.25,4.35.44,8.47-1.97,11.29-6.01h.01s.01-.04.01-.04c1.66-2.39,2.86-5.34,3.38-8.64l.02-.04.03-.28c.05-.33.1-.65.14-.99.03-.31.04-.62.06-.93l.98-9.59,52.81-14.49c7.69-2.11,11.99-10.28,9.38-17.81h0c-2.77-7.98-11.99-11.62-19.46-7.67Z" fill="#f5f5ff" stroke="#2e2e2e" stroke-linecap="round" stroke-linejoin="round" stroke-width=".5"/><path d="m277.92,183.19l.86,9.13c0,.23,0,.46.06.69l2.43,9.64c.33,1.29,1.64,2.08,2.93,1.75,1.29-.33,2.08-1.64,1.75-2.93l-2.32-9.2s0,0,0,0l-1.59-14.25" fill="#f5f5ff" stroke="#2e2e2e" stroke-linecap="round" stroke-linejoin="round" stroke-width=".5"/><path d="m269.54,186.42l.41,10.2c0,.23.06.45.12.66l1.2,7.43c.22,1.39,1.54,2.34,2.93,2.11,1.39-.22,2.34-1.54,2.11-2.93l-1.21-7.51c-.01-.08-.04-.15-.06-.23l-.55-10.33" fill="#f5f5ff" stroke="#2e2e2e" stroke-linecap="round" stroke-linejoin="round" stroke-width=".5"/><path d="m257,177.24l-1.87,10.25s0,.07,0,.1c-.01.08-.01.15-.02.23,0,.08-.01.16,0,.24,0,.12.02.23.04.35,0,.04.01.08.02.12.03.15.08.29.14.43,0,0,0,.01,0,.02.02.05.03.09.05.14l3.4,6.8c.63,1.26,2.16,1.77,3.42,1.14,1.26-.63,1.77-2.16,1.14-3.42l-3.02-6.05,1.26-5.92" fill="#f5f5ff" stroke="#2e2e2e" stroke-linecap="round" stroke-linejoin="round" stroke-width=".5"/><path d="m262.91,182.45l-2.23,10.02c-.24.47-.35,1.01-.26,1.57l1.21,7.51c.23,1.39,1.54,2.34,2.93,2.11,1.39-.23,2.34-1.54,2.11-2.93l-1.09-6.73,1.47-8.07" fill="#f5f5ff" stroke="#2e2e2e" stroke-linecap="round" stroke-linejoin="round" stroke-width=".5"/><path d="m427.86,275.8c-.43,11.49-3.48,22.88-8.85,33.06l4.7,32.11c2.65-.18,5.33,1.46,6.37,3.91,1.04,2.45.85,5.77-1.13,7.55h-14.13v.26l-9.68-44.76c-5.14-11.4-6.36-24.52-3.42-36.67" fill="#2e2e2e" stroke-width="0"/><path d="m427.8,273.24c-.3,2.35-.74,4.63-1.3,6.82-3.49,13.62-11.72,23.7-20.8,25.53-1.41.29-2.84.38-4.29.25-.25,1.58-.55,3.18-.92,4.79-5.64,24.82-23.74,41.87-40.41,38.08-4.34-.98-8.16-3.29-11.32-6.6-9.02-9.39-12.83-26.86-8.66-45.22,1.63-7.16,4.3-13.68,7.67-19.23,8.31-13.7,20.89-21.55,32.76-18.85,0,0,.03,0,.04,0,2.19.5,4.41-.64,5.16-2.75,4.81-13.47,14.41-22.36,24.21-21.1,12.37,1.58,20.37,18.72,17.86,38.27Z" fill="#f5f5ff" stroke="#2e2e2e" stroke-linecap="round" stroke-linejoin="round" stroke-width=".41"/><path d="m357.68,332.69c-1.06,3.24-3.79,5.61-6.48,7.7-.77.6-1.58,1.2-2.43,1.72-9.02-9.39-12.83-26.86-8.66-45.22,1.63-7.16,4.3-13.68,7.67-19.23.95.11,1.85.43,2.63.97,1.58,1.1,2.45,2.94,3.05,4.76,1.27,3.93,1.5,8.2.67,12.25-.92,4.43-3.09,8.68-2.86,13.2.22,4.19,2.47,7.96,4.33,11.73,1.86,3.77,3.4,8.11,2.09,12.11Z" fill="#2e2e2e" stroke-width="0"/><path d="m426.5,280.06c-3.49,13.62-11.72,23.7-20.8,25.53-.02-.05-.04-.1-.06-.14-1.38-3.69-1.92-7.69-1.6-11.62.36-4.38,1.79-8.69,4.32-12.31,2.1-3.02,5.14-5.69,8.78-6.1,3.65-.42,7.21,1.63,9.36,4.64Z" fill="#2e2e2e" stroke-width="0"/><path d="m364.28,312.96c11.64,2.99,21.21,12.89,23.81,24.62,2.64-.37,4.98.21,7.62.57,2.64.36,5.29,1.56,6.82,3.75,1.84,2.64,1.72,6.13,1.54,9.34-.08,0-.38.74-.47.74h-40.55c-6.57,0-12.67-3.39-16.18-8.95-.84-1.34-1.61-2.72-2.28-4.18-2.22-4.89-3.25-10.52-1.73-15.67,2.02-6.88,8.39-11.89,15.31-13.75" fill="#f5f5ff" stroke="#2e2e2e" stroke-linecap="round" stroke-linejoin="round" stroke-width=".41"/><path d="m415.92,275.51c-.43,11.49-3.48,22.88-8.85,33.06l4.7,32.11c2.65-.18,5.33,1.46,6.37,3.91,1.04,2.45.85,5.77-1.13,7.55h-14.13v.26l-9.68-44.76c-5.14-11.4-6.36-24.52-3.42-36.67" fill="#f5f5ff" stroke="#2e2e2e" stroke-linecap="round" stroke-linejoin="round" stroke-width=".41"/><path d="m403.46,219.14c.01-.09.03-.19.05-.29.6-4.08,1.77-8.06,3.44-11.83.17-.39.38-.8.61-1.18.86-1.46,2.11-2.73,3.7-2.51,1.93.27,2.81,2.52,3.29,4.4.82,3.21,1.58,6.44,2.29,9.67.52,2.31,1.01,4.63,1.46,6.95" fill="#f5f5ff" stroke="#2e2e2e" stroke-linecap="round" stroke-linejoin="round" stroke-width=".41"/><path d="m390.72,225.14c-3.59-2.2-7.5-3.89-11.57-5.02-1.95-.55-4.51-.76-5.59.97-1.02,1.66.15,3.77,1.3,5.34,3.35,4.59,6.83,9.08,10.43,13.47h0" fill="#2e2e2e" stroke-width="0"/><path d="m414.55,207.74c.82,3.21,1.58,6.44,2.29,9.67-.47.32-1.01.52-1.61.51-1.78-.02-3.03-1.84-3.49-3.56-.46-1.73-.48-3.61-1.4-5.15-.53-.9-1.31-1.62-2.01-2.39-.28-.3-.55-.63-.77-.98.86-1.46,2.11-2.73,3.7-2.51,1.93.27,2.81,2.52,3.29,4.4Z" fill="#2e2e2e" stroke-width="0"/><path d="m422.56,236c-.07,1.44-.34,2.87-.79,4.26-.5,1.62-1.27,3.2-2.24,4.66l-3.08,4.54c-.95,2.68-3.29,4.59-5.93,5.23-1.53.38-3.18.33-4.7-.22l-5.48-.52c-.57-.06-1.13-.15-1.7-.27h-.01c-1.14-.22-2.26-.55-3.31-1-1.35-.53-2.62-1.24-3.77-2.09-2.07-1.53-3.74-3.52-4.89-5.95-.73-1.54-1.18-3.14-1.38-4.75h0c-.64-5.28,1.39-10.75,5.43-14.77.01-.04.05-.06.07-.07,1.62-1.61,3.56-2.99,5.77-4.04,2.24-1.05,4.58-1.67,6.89-1.88.11-.02.21-.02.31-.04,1.02-.09,2.04-.09,3.04,0,4.44.32,8.57,2.15,11.48,5.26.44.47.86.96,1.23,1.48.62.8,1.13,1.67,1.58,2.61,1.13,2.42,1.59,5,1.46,7.56Z" fill="#f5f5ff" stroke="#2e2e2e" stroke-linecap="round" stroke-linejoin="round" stroke-width=".41"/><path d="m419.52,225.84c-.01.12-.02.25-.04.37-.43,3.14-2.39,5.94-4.94,7.83-1.9,1.4-4.34,2.36-6.6,1.69-2.71-.81-4.27-3.73-4.62-6.54-.39-3.29,1.01-7.46,3.47-10.08,4.44.32,8.57,2.15,11.48,5.26.44.47.86.96,1.23,1.48Z" fill="#2e2e2e" stroke-width="0"/><path d="m407.17,247.6c.73.18,1.52.1,2.2-.22s1.23-.9,1.54-1.58l-3.38-2.39-.36,4.19Z" fill="#2e2e2e" stroke-width="0"/><path d="m396.72,246.87c-.08,2.1,1.58,4.07,3.63,4.57,2.05.49,4.3-.4,5.64-2.02,1.34-1.62,1.8-3.88,1.43-5.95l.11-.05c1.37,1.6,3.39,2.68,5.5,2.69,2.11,0,4.23-1.17,5.15-3.06.93-1.89.46-4.42-1.21-5.7" fill="none" stroke="#2e2e2e" stroke-linecap="round" stroke-linejoin="round" stroke-width=".45"/><path d="m415.88,238.94c.86-3.97,2.83-7.69,5.64-10.63" fill="none" stroke="#2e2e2e" stroke-linecap="round" stroke-linejoin="round" stroke-width=".45"/><path d="m416.44,240.51c2.54-2.79,6.19-4.53,9.96-4.76" fill="none" stroke="#2e2e2e" stroke-linecap="round" stroke-linejoin="round" stroke-width=".45"/><path d="m417.56,241.39c1.79-.44,3.6-.89,5.44-.86,1.84.03,3.75.59,5.03,1.91" fill="none" stroke="#2e2e2e" stroke-linecap="round" stroke-linejoin="round" stroke-width=".45"/><path d="m398.6,247.07c-3.61-1.86-7.73-2.71-11.78-2.42" fill="none" stroke="#2e2e2e" stroke-linecap="round" stroke-linejoin="round" stroke-width=".45"/><path d="m399.46,248.51c-3.77.18-7.44,1.89-10.01,4.64" fill="none" stroke="#2e2e2e" stroke-linecap="round" stroke-linejoin="round" stroke-width=".45"/><path d="m399.42,249.94c-1.48,1.09-2.98,2.2-4.13,3.64-1.15,1.44-1.93,3.26-1.73,5.09" fill="none" stroke="#2e2e2e" stroke-linecap="round" stroke-linejoin="round" stroke-width=".45"/><path d="m406.32,241.06c-.46-.09-.93-.19-1.41-.14-.48.05-1,.25-1.31.64-.31.39-.33.97.03,1.23.55.4,1.5-.12,2.13.18.3.14.46.45.6.73.14.29.3.59.61.73.3.14.78.02.91-.31.33.09.7-.25.77-.58.07-.34-.08-.65-.22-.94-.14-.29-.28-.6-.22-.94.13-.7,1.1-1.2,1.11-1.89,0-.46-.46-.78-.95-.75-.48.03-.95.34-1.27.72-.32.38-.52.83-.72,1.27l-.06.03Z" fill="#2e2e2e" stroke-width="0"/><path d="m410.72,242.88c.26,0,.26-.4,0-.4s-.26.4,0,.4h0Z" fill="#2e2e2e" stroke-width="0"/><path d="m412.06,240.87c.26,0,.26-.4,0-.4s-.26.4,0,.4h0Z" fill="#2e2e2e" stroke-width="0"/><path d="m413.84,239.39c.26,0,.26-.4,0-.4s-.26.4,0,.4h0Z" fill="#2e2e2e" stroke-width="0"/><path d="m413.51,242.68c.26,0,.26-.4,0-.4s-.26.4,0,.4h0Z" fill="#2e2e2e" stroke-width="0"/><path d="m415.28,241.1c.26,0,.26-.4,0-.4s-.26.4,0,.4h0Z" fill="#2e2e2e" stroke-width="0"/><path d="m413.01,244.82c.26,0,.26-.4,0-.4s-.26.4,0,.4h0Z" fill="#2e2e2e" stroke-width="0"/><path d="m416.82,242.21c.26,0,.26-.4,0-.4s-.26.4,0,.4h0Z" fill="#2e2e2e" stroke-width="0"/><path d="m415.49,243.58c.26,0,.26-.4,0-.4s-.26.4,0,.4h0Z" fill="#2e2e2e" stroke-width="0"/><path d="m404.92,245.61c.26,0,.26-.4,0-.4s-.26.4,0,.4h0Z" fill="#2e2e2e" stroke-width="0"/><path d="m402.51,245.37c.26,0,.26-.4,0-.4s-.26.4,0,.4h0Z" fill="#2e2e2e" stroke-width="0"/><path d="m400.24,245.8c.26,0,.26-.4,0-.4s-.26.4,0,.4h0Z" fill="#2e2e2e" stroke-width="0"/><path d="m401.88,247.38c.26,0,.26-.4,0-.4s-.26.4,0,.4h0Z" fill="#2e2e2e" stroke-width="0"/><path d="m404.66,247.58l-.08.04s-.04.03-.06.05c-.02.02-.03.04-.04.07,0,.03,0,.05,0,.08,0,.03,0,.05.02.07l.03.04s.05.04.09.05h.05s.07,0,.1-.02l.08-.04s.04-.03.06-.05c.02-.02.03-.04.04-.07,0-.03,0-.05,0-.08,0-.03,0-.05-.02-.07l-.03-.04s-.05-.04-.09-.05h-.05s-.07,0-.1.02h0Z" fill="#2e2e2e" stroke-width="0"/><path d="m403.03,249.27c.26,0,.26-.4,0-.4s-.26.4,0,.4h0Z" fill="#2e2e2e" stroke-width="0"/><path d="m400.52,249.89c.26,0,.26-.4,0-.4s-.26.4,0,.4h0Z" fill="#2e2e2e" stroke-width="0"/><path d="m399.89,237.81c-1.52-2.02-4.62-2.5-6.7-1.04-1.38.79-2.3,2.92-.53,3.8,2.34,1.1,5.35-.04,6.9-2.02.11-.16.36.03.24.18-1.7,2.4-6.42,4.11-8.45,1.28-1.08-2.49,1.91-4.56,4.09-4.79,1.9-.25,3.88.56,5.1,2.05.36.43-.32.98-.66.53h0Z" fill="#2e2e2e" stroke-width="0"/><path d="m395.16,238.47c-.48-.97.02-2.19.02-2.19,0,0,1.27.36,1.75,1.33.48.97-.02,2.19-.02,2.19,0,0-1.27-.36-1.75-1.33Z" fill="#2e2e2e" stroke-width="0"/><path d="m406.95,232.65c-.31-1.41-.02-2.93.78-4.13.8-1.19,2.11-2.04,3.53-2.28,1.03-.18,2.25.04,2.81.93.58.92.19,2.16-.45,3.04-1.23,1.73-3.36,2.78-5.48,2.71" fill="#f5f5ff" stroke-width="0"/><path d="m406.75,232.69c-.94-3.64,2.89-7.81,6.58-6.35,1.98.97,1.01,3.58-.29,4.71-1.26,1.22-3.27,2.18-4.97,1.86,1.7-.14,3.59-.65,4.82-2.01,1.16-1.06,2.13-3.44.32-4.31-3.43-1.3-6.98,2.65-6.06,6.01.06.26-.35.35-.4.09h0Z" fill="#2e2e2e" stroke-width="0"/><path d="m406.54,232.74c-.64-2.86,1.21-5.92,4.03-6.67,1.87-.66,4.53.31,3.97,2.69-.73,2.74-3.7,4.41-6.41,4.31-.19,0-.19-.31,0-.3,1.74.03,3.47-.7,4.66-1.94,1.09-1.01,2.05-3.28.34-4.1-3.29-1.21-6.7,2.61-5.78,5.83.13.55-.71.73-.83.18h0Z" fill="#2e2e2e" stroke-width="0"/><path d="m410.85,229.29c-.46-.98-1.72-1.36-1.72-1.36,0,0-.52,1.21-.06,2.19.46.98,1.72,1.36,1.72,1.36,0,0,.52-1.21.06-2.19Z" fill="#2e2e2e" stroke-width="0"/><path d="m341.18,319.05c-.42,6.05,1.42,12.41,3.9,17.91,1.7,3.78,4.08,6.42,7.9,7.84,5.62,2.27,11.85,2.85,17.91,2.78,10.14-.15,20.12-3.6,29.31-8.03,6.32-3.07,12.23-6.29,19.89-6.92,6.77-.32,7.61,9.46.82,10.25-3.63-.04-7.3.84-11.32,2.33-16.77,6.95-34.11,11.49-52.1,6.08-11.01-3.23-15-8.4-17.57-19.32-.95-4.39-1.66-8.75-.94-13.29.11-.61.69-1.01,1.29-.9.6.11,1,.67.91,1.27h0Z" fill="#2e2e2e" stroke-width="0"/></svg>