<?xml version="1.0" encoding="UTF-8"?><svg id="Layer_1" xmlns="http://www.w3.org/2000/svg" viewBox="0 0 490.1 352.1"><path d="m307.61,351.33l8.91-77.85c.12-2.85,1.25-5.64,3.38-7.54,6.99-6.22,15.18,2.94,14.99,10.81-.23,9.55-7.01,18.23-3.1,28.38,1.52,3.95,5.6,6.5,9.75,5.72,6.58-1.24,7.64-8.9,7.7-15.03l.45-42.41c.04-3.83,2.16-7.46,5.66-9.03,7.23-3.24,12.09,4.94,11.64,11.52-.51,7.5-5.01,14.52-2.03,22.35,1.31,3.43,4.72,5.78,8.35,5.23,4.83-.73,6.54-5.86,7.74-10.25,3.69-13.43,8.6-26.52,14.65-39.06,1.13-2.35,2.94-4.37,5.28-5.53,8.12-4.03,13.96,5.7,12.44,13.06-1.33,6.42-5.97,11.57-9.11,17.33s-4.47,13.71.2,18.31c9.17-11.21,18.34-22.41,27.52-33.62,6.02-7.35,12.68-15.15,22.96-15.56,5.43-.22,10.66,2.76,12.46,7.89,2.36,6.72-2.46,12.59-6.93,17.42-11.75,12.71-23.51,25.43-35.26,38.14,9.5-1.5,19.73-2.46,27.86,4.03,4.31,3.44,6.52,9.05,5.03,14.36-3.1,11.03-17.91,11.16-28.71,8.56-10.51-2.53-24.01-4.67-30.02,4.33,7.99-2.1,17.6,7.66,9.88,16.45-1.88,2.14-4.54,3.56-7.38,3.53-5.41-.04-9.74-4.21-14.48-6.8-3.62-1.98-13.14-6.96-18.28-6.96-1.77,0-2.58,2.23-1.23,3.38l17.45,15.32c4.85,4.26,1.74,12.26-4.71,12.11-23.9-.57-51.91-6.68-73.06-8.6" fill="#3b4eff" stroke-width="0"/><path d="m57.09,304.42c-8.92-.73-18.26-.72-26.19-4.88-7.92-4.16-13.62-14.33-9.39-22.21,5.02-9.36,18.81-8.45,28.66-4.45,9.84,4,20.52,9.84,30.42,5.99-9.58-8.68-20.35-16.05-31.91-21.84-9.08-4.55-18.75-8.2-26.67-14.56-7.91-6.36-13.93-16.33-12.22-26.33,1.71-10.01,13.72-17.9,22.57-12.92,8.96,5.04,11.85,20.15,22.13,19.92,8.12-.17,11.91-11.4,8.3-18.68-3.6-7.28-11.35-11.33-18.43-15.32-9.57-5.39-19.49-12.5-22.02-23.18-2.53-10.68,7.77-23.9,17.96-19.81,6.25,2.51,8.96,9.63,12.08,15.6,3.11,5.97,9.12,12.11,15.57,10.14,2.48-13.52-7.6-25.67-15.36-37.01-7.77-11.35-13.18-28.14-3.28-37.68,10.49-10.12,29.48-1.47,35.21,11.93s2.83,28.68,1.31,43.18c-.43,4.06-.7,8.33.98,12.05,1.69,3.71,6,6.55,9.85,5.2,9.17-3.21,1.41-19.54,8.51-26.17,4.65-4.34,12.92-.91,15.64,4.84,2.72,5.75,1.61,12.49.44,18.74-3.01,16.09-6.01,32.17-9.02,48.26,4.45,4.31,12.01-.6,14.42-6.3s2.88-12.61,7.48-16.76c7.58-6.85,21.01.28,23.14,10.28,2.13,9.99-3.5,20.02-10.25,27.69-6.75,7.67-14.95,14.29-19.75,23.31-2.14,4.02-3.43,9.28-.68,12.91,4.55,6.01,14.59,1.34,18.28-5.23,3.69-6.57,4.91-14.86,10.72-19.66,9.17-7.58,24.53-.39,28.34,10.88,3.81,11.27-.88,23.74-7.62,33.54-6.75,9.8-15.56,18.13-21.53,28.41-5.61,9.66-2.99,22.82-8.4,30.61-27.49-20.8-53.72-37.56-89.28-40.48Z" fill="#3b4eff" stroke-width="0"/><path d="m80.77,87.29c8.91,14.06,22.27,21.56,29.84,16.76,7.57-4.8,6.48-20.09-2.43-34.14-8.91-14.06-22.27-21.56-29.84-16.76-7.57,4.8-6.48,20.08,2.43,34.14Z" fill="none" stroke="#2e2e2e" stroke-linecap="round" stroke-linejoin="round" stroke-width=".57"/><path d="m69.02,127.65c13.7,5.02,27,3.11,29.7-4.27,2.7-7.38-6.21-17.43-19.91-22.44-13.7-5.02-27-3.11-29.7,4.27-2.7,7.38,6.21,17.43,19.91,22.44Z" fill="none" stroke="#2e2e2e" stroke-linecap="round" stroke-linejoin="round" stroke-width=".57"/><path d="m145.09,91.23c7.25-10.46,8.56-22.11,2.93-26.01-5.63-3.9-16.08,1.41-23.33,11.87-7.25,10.46-8.56,22.11-2.93,26.01,5.63,3.9,16.08-1.41,23.33-11.87Z" fill="none" stroke="#2e2e2e" stroke-linecap="round" stroke-linejoin="round" stroke-width=".57"/><path d="m158.21,142.03c9.13-5.08,14.31-13.18,11.58-18.1-2.74-4.92-12.35-4.78-21.48.3-9.13,5.08-14.31,13.18-11.58,18.1,2.73,4.92,12.35,4.78,21.48-.3Z" fill="none" stroke="#2e2e2e" stroke-linecap="round" stroke-linejoin="round" stroke-width=".57"/><path d="m93.79,161.58c10.4,1.03,19.27-2.67,19.83-8.27.56-5.6-7.42-10.97-17.82-12-10.4-1.03-19.27,2.67-19.83,8.27-.56,5.6,7.42,10.97,17.82,12Z" fill="none" stroke="#2e2e2e" stroke-linecap="round" stroke-linejoin="round" stroke-width=".57"/><path d="m135.22,214.34c-3.64-54.32-20.88-107.68-49.73-153.85" fill="none" stroke="#2e2e2e" stroke-linecap="round" stroke-linejoin="round" stroke-width=".57"/><path d="m125.41,153.48c-11.71-25.78-38.47-44.21-66.72-46.22" fill="none" stroke="#2e2e2e" stroke-linecap="round" stroke-linejoin="round" stroke-width=".57"/><path d="m118.96,131.5c2.2-22.33,10.24-43.5,23.28-61.76" fill="none" stroke="#2e2e2e" stroke-linecap="round" stroke-linejoin="round" stroke-width=".57"/><path d="m127.89,163.79c-11.86-8.66-26.45-13.54-41.14-13.74" fill="none" stroke="#2e2e2e" stroke-linecap="round" stroke-linejoin="round" stroke-width=".57"/><path d="m124.95,153.28c9.21-11.45,22.03-19.95,36.16-23.96" fill="none" stroke="#2e2e2e" stroke-linecap="round" stroke-linejoin="round" stroke-width=".57"/><path d="m407.74,187.19h0c1.32,11.38-8.35,21.54-21.49,22.58l-110.8,8.78c-15.91,1.26-29.65-9.44-29.91-23.3h0c-.24-13.2,11.9-24.12,27.11-24.39l111.2-2.02c12.28-.22,22.66,7.75,23.89,18.35Z" fill="#2e2e2e" stroke-width="0"/><path d="m480.74,66.37c-.46-.4-.97-.69-1.52-.87-1.56-.51-3.33-.09-4.5,1.2l-1.25,1.39-8.14,9.01,8.71-16.09c.61-1.12.73-2.37.46-3.51-.32-1.31-1.17-2.48-2.44-3.17-.27-.15-.55-.26-.83-.35-1.41-.46-2.93-.25-4.15.52-.7.44-1.29,1.05-1.71,1.82l-5.47,10.12,6.24-16.04c.38-.96.42-1.98.2-2.92-.36-1.53-1.44-2.85-3.01-3.46-.09-.03-.18-.07-.27-.1-2.47-.8-5.16.45-6.11,2.9l-2.84,7.32-4.12,10.59,3.12-16.05c.25-1.29-.02-2.55-.68-3.57-.7-1.11-1.84-1.94-3.22-2.2-2.47-.48-4.87.98-5.63,3.31-.06.19-.11.39-.15.59-.53,2.74-1.06,5.48-1.6,8.22-.12.63-.38,1.67-.68,2.83-1.1,4.18-3.09,8.08-5.85,11.42l-3.79,4.58s-1.99-9.53-2.53-12.28c-.41-2.13-2.1-3.7-4.12-4.05-.67-.12-1.37-.11-2.08.06-2.71.64-4.3,3.48-3.77,6.22l1.07,5.5,2.17,11.16c.15.78,2.29,12.45,4.32,16.41,5.19,10.14,17.62,14.15,27.76,8.96,2.03-1.04,3.82-2.37,5.33-3.92,2.58-2.63,14.04-21.3,14.04-21.3l7.24-8.01c1.59-1.76,1.61-4.67-.17-6.24Z" fill="#f5f5ff" stroke="#2e2e2e" stroke-linecap="round" stroke-linejoin="round" stroke-width=".57"/><path d="m442.83,87.39c-1.08-6.21-6.01-11.78-11.9-13.46" fill="#f5f5ff" stroke="#2e2e2e" stroke-linecap="round" stroke-linejoin="round" stroke-width=".55"/><path d="m420.55,91.72l38.44,15.6-54.53,92.35c-5.67,8.94-17.55,11.59-26.5,5.89-3.98-2.5-6.72-6.23-8.05-10.41-1.64-5.23-1.04-11.12,2.13-16.08l48.51-87.36Z" fill="#2e2e2e" stroke-width="0"/><ellipse cx="203.85" cy="158.75" rx="58.45" ry="59.92" fill="#2e2e2e" stroke-width="0"/><path d="m182.57,153.27c-54.97-.29.11-31.36,21.28-31.36s66.68,26.25,26.21,31.36c-21.52,2.72-5.04,47.2-26.21,47.2s.41-47.08-21.28-47.2Z" fill="#f5f5ff" stroke="#2e2e2e" stroke-linecap="round" stroke-linejoin="round" stroke-width=".57"/><path d="m229.53,76.69c-3.91,7.44-2.86,15.83,2.34,18.75,5.2,2.92,12.58-.75,16.48-8.18,3.91-7.44,2.86-15.83-2.34-18.75-5.2-2.92-12.58.75-16.48,8.18Z" fill="#f5f5ff" stroke="#2e2e2e" stroke-linecap="round" stroke-linejoin="round" stroke-width=".59"/><path d="m242.54,72.19c2.21.68,3.99,2.6,4.5,4.85.51,2.25-.26,4.75-1.95,6.33" fill="none" stroke="#2e2e2e" stroke-linecap="round" stroke-linejoin="round" stroke-width=".59"/><path d="m169.75,81.07c4.95,6.79,5.14,15.24.42,18.89-4.72,3.64-12.55,1.1-17.5-5.69-4.95-6.79-5.14-15.24-.42-18.89,4.72-3.64,12.55-1.1,17.5,5.69Z" fill="#f5f5ff" stroke="#2e2e2e" stroke-linecap="round" stroke-linejoin="round" stroke-width=".59"/><path d="m156.23,78.52c-2.09,1-3.57,3.15-3.75,5.46-.18,2.3.95,4.67,2.85,5.97" fill="none" stroke="#2e2e2e" stroke-linecap="round" stroke-linejoin="round" stroke-width=".59"/><path d="m228.65,163.07c1.37,12.82-8.14,24.2-20.99,25.15-12.6.92-23.48-8.55-24.4-21.04-.02-.26-.04-.51-.04-.77l.04-34.06v-8.62s.04-16.92.04-16.92l36.55-2.68,3.96,26.45,2.85,19.25,1.98,13.25Z" fill="#f5f5ff" stroke="#2e2e2e" stroke-linecap="round" stroke-linejoin="round" stroke-width=".66"/><path d="m226.67,149.82c-11.93,1.74-25.59-3.26-35.5-14.19-3.34-3.67-5.98-7.71-7.88-11.91l.03-16.92,36.55-2.68,3.96,26.45,2.85,19.25Z" fill="#2e2e2e" stroke-width="0"/><path d="m240.57,87.43c.72,9.85-2.61,19.57-9.24,26.89l-10.15,10.55c-3.03,3.84-7.53,6.23-12.42,6.59l-10.11.74c-4.85.36-9.59-1.32-13.16-4.6l-11.81-9.03c-7.76-6.29-12.56-15.49-13.29-25.43l-.05-3.02-.27-17.31-.19-12.83c-1.56-21.24,14.26-39.72,35.34-41.26,10.55-.77,20.41,2.84,27.82,9.28,7.43,6.45,12.4,15.75,13.18,26.38l1.91,14.48,1.88,14.29.56,4.29Z" fill="#f5f5ff" stroke="#2e2e2e" stroke-linecap="round" stroke-linejoin="round" stroke-width=".59"/><path d="m238.13,68.86l-1.19.09c-6.19-7.79-10.5-17.08-12.41-26.84-1.2-6.09-10.08-7.52-16.2-6.4-2.47,4.4-7.15,7.5-12.18,8.02-5.03.52-10.22-2.49-13.54-6.31-6.2-.22-14.82,2.49-15.12,8.7-.43,9.3-3,18.5-7.42,26.7l-.19-12.83c-1.56-21.24,14.26-39.72,35.34-41.26,10.55-.77,20.41,2.84,27.82,9.28,7.43,6.45,12.4,15.75,13.18,26.38l1.91,14.48Z" fill="#2e2e2e" stroke-width="0"/><path d="m206.97,63.77c1.7-1.2,3.59-2.09,5.61-2.77,2.01-.7,4.17-1.15,6.43-1.23,2.25-.09,4.61.25,6.74,1.18,2.12.91,3.93,2.44,4.97,4.36-2.12-.53-4-.75-5.78-.68-1.78.07-3.46.43-5.17.86-1.7.44-3.41,1.02-5.19,1.57-1.77.57-3.59,1.16-5.55,1.53h-.03c-1.45.28-2.85-.68-3.13-2.14-.2-1.06.26-2.1,1.09-2.69Z" fill="#2e2e2e" stroke-width="0"/><path d="m188.85,70.08c-2-.08-3.88-.4-5.72-.71-1.84-.29-3.61-.61-5.36-.8-1.75-.18-3.46-.29-5.24-.1-1.77.19-3.61.68-5.62,1.51.75-2.05,2.32-3.83,4.28-5.03,1.96-1.23,4.26-1.91,6.49-2.15,2.24-.24,4.45-.11,6.54.28,2.1.38,4.1.98,5.96,1.92,1.32.66,1.86,2.28,1.19,3.6-.49.97-1.48,1.51-2.49,1.47h-.03Z" fill="#2e2e2e" stroke-width="0"/><path d="m209.2,80.17c4.15-8.49,14-10.81,20.96-4.13.43,1.25-2.69-.63-3.05-.82-5.05-2.92-11.97-1.76-15.58,2.9-.64.78-1.26,1.58-1.92,2.35-.19.24-.59-.04-.42-.3h0Z" fill="#2e2e2e" stroke-width="0"/><path d="m215.81,76.49c0-1.95,1.58-3.53,3.53-3.54,1.95,0,3.53,1.58,3.54,3.53,0,1.95-1.58,3.53-3.53,3.54-1.95,0-3.53-1.58-3.54-3.53Z" fill="#2e2e2e" stroke-width="0"/><path d="m209.81,80.33c1.77.78,3.78,1.07,5.83.85" fill="none" stroke="#2e2e2e" stroke-linecap="round" stroke-linejoin="round" stroke-width=".59"/><path d="m209,76.11c1.75-2.84,4.7-4.92,7.97-5.62" fill="none" stroke="#2e2e2e" stroke-linecap="round" stroke-linejoin="round" stroke-width=".59"/><path d="m190.01,81.91c-1.5-1.28-2.83-2.83-4.59-3.75-4.2-2.43-9.7-1.84-13.48,1.1-.36.27-3.13,2.55-2.89,1.25,4.48-6.3,14.17-7.18,19.36-1.27.67.76,1.33,1.52,1.98,2.3.2.23-.14.57-.37.36h0Z" fill="#2e2e2e" stroke-width="0"/><path d="m183.3,78.88c-.28-1.93-2.08-3.27-4.01-2.98-1.93.28-3.27,2.08-2.98,4.01.28,1.93,2.08,3.27,4.01,2.98,1.93-.28,3.27-2.08,2.98-4.01Z" fill="#2e2e2e" stroke-width="0"/><path d="m189.79,81.79c-1.64,1.03-3.59,1.61-5.64,1.69" fill="none" stroke="#2e2e2e" stroke-linecap="round" stroke-linejoin="round" stroke-width=".59"/><path d="m189.98,77.51c-2.15-2.56-5.37-4.18-8.7-4.4" fill="none" stroke="#2e2e2e" stroke-linecap="round" stroke-linejoin="round" stroke-width=".59"/><path d="m195.08,97.27l3.03,1.02h0c1.94.65,4.05.5,5.88-.43h0l2.85-1.45" fill="none" stroke="#2e2e2e" stroke-linecap="round" stroke-linejoin="round" stroke-width=".55"/><path d="m215.68,105.42c-.03.32-.08.63-.15.94v.02c-.36,2.21-1.25,4.31-2.55,6.08-.24.31-.49.63-.75.89-.18.21-.37.42-.57.62-.52.54-1.09,1.04-1.69,1.48-2.18,1.67-4.86,2.73-7.75,2.89-1.67.11-3.33-.06-4.86-.58-.18-.03-.37-.08-.55-.15-.89-.29-1.75-.68-2.55-1.14-.7-.39-1.35-.83-1.97-1.33-2.24-1.82-3.92-4.27-4.74-7.1v-.02c-.1-.31-.18-.62-.24-.93-.1-.47-.18-.94-.23-1.43-.03-.26-.05-.52-.06-.8l14.36-.84,14.32-.96.02.11c.05.76.03,1.51-.03,2.24Z" fill="#f5f5ff" stroke="#2e2e2e" stroke-linecap="round" stroke-linejoin="round" stroke-width=".67"/><path d="m187.01,104.87c.06,1.07.23,2.13.54,3.15l27.99-1.66c.19-1.01.23-2.09.17-3.19v-.11s-14.33.96-14.33.96l-14.37.85Z" fill="#f5f5ff" stroke="#2e2e2e" stroke-linecap="round" stroke-linejoin="round" stroke-width=".67"/><path d="m209.98,115.45c-2.18,1.67-4.86,2.73-7.75,2.89-1.67.11-3.33-.06-4.86-.58-.18-.03-.37-.08-.55-.15-.89-.29-1.75-.68-2.55-1.14,2-1.98,4.71-3.23,7.73-3.43,2.99-.18,5.78.73,7.98,2.4Z" fill="#f5f5ff" stroke="#2e2e2e" stroke-linecap="round" stroke-linejoin="round" stroke-width=".62"/><path d="m296.69,192.21l-19.71,160.09h-141.06l-19.98-160.09c0-.47.02-.93.05-1.4.56-9.23,7.13-17.02,15.97-19.81l11.8-3.72v-.07l8.57-3.06,30.24-10.87h47.48l30.24,10.87,8.57,3.06v.07l11.8,3.72c8.82,2.79,15.38,10.58,15.97,19.81.02.47.05.93.05,1.4Z" fill="#2e2e2e" stroke-width="0"/><path d="m227.95,153.21c-10.16,25.48-15.49,60.77-1.91,85.78,0,0-2.62,1.46-2.62,1.46-10.54-20.45-8.79-44.71-3.62-66.4,1.82-7.26,4.17-14.39,7.17-21.25l.98.42h0Z" fill="#ffce33" stroke-width="0"/><rect x="219.09" y="231.48" width="8.03" height="10.85" rx="1.59" ry="1.59" transform="translate(-77.54 112.36) rotate(-24.22)" fill="#ffce33" stroke-width="0"/><path d="m184.07,152.6c11.97,26.97,22.1,59.94,7.44,87.85,0,0-2.62-1.46-2.62-1.46,11.2-19.76,8.13-43.92,1.9-64.84-2.15-7.16-4.93-14.14-7.82-21.07l1.11-.47h0Z" fill="#ffce33" stroke-width="0"/><rect x="187.8" y="231.48" width="8.03" height="10.85" rx="1.59" ry="1.59" transform="translate(269.59 531.64) rotate(-155.78)" fill="#ffce33" stroke-width="0"/><path d="m238.31,181.81c9.02-3.51,17.13-9.18,23.52-16.45-5.82,7.77-14.22,13.64-23.52,16.45h0Z" fill="#fff" stroke-width="0"/><path d="m170.33,181.81c-9.29-2.81-17.69-8.68-23.52-16.45,6.39,7.27,14.49,12.95,23.52,16.45h0Z" fill="#fff" stroke-width="0"/><path d="m183.52,152.84c9.72,11.49,19.42,23.28,27.4,36.05,3.37-12.77,8.96-25.86,17.11-36.26l-44.5.21Z" fill="#f5f5ff" stroke-width="0"/><path d="m281.4,60c8.61-12.73,23.74-21.23,39.09-20.43,15.35.81,30.07,11.68,33.97,26.54.6,2.3.98,4.71,2.16,6.77,1.57,2.76,4.35,4.55,6.9,6.44,3.99,2.94,7.72,6.43,9.92,10.87,2.2,4.44,2.64,9.97.18,14.27-1.29,2.25-3.26,4.02-4.74,6.14-1.48,2.12-2.46,4.92-1.42,7.29,1.05,2.4,3.73,3.54,6.09,4.68,4.58,2.22,8.93,5.49,11.01,10.13,2.08,4.65,1.94,10.49-2.22,13.43h-116.53c-2.62-3.83-5.47-7.78-6.7-12.25-1.23-4.47-1.24-9.41.73-13.61,2.73-5.82,9.05-10.05,9.6-16.46.39-4.58-2.35-8.76-3.78-13.13-1.97-6.02-1.4-12.82,1.57-18.42,2.96-5.6,8.1-10.53,14.18-12.28Z" fill="#2e2e2e" stroke-width="0"/><path d="m339.08,183.35c.4,12.06-9.06,22.06-20.85,22.06s-20.85-9.59-20.85-21.35c0-.23,0-.48.02-.71l2.32-31.84.3-4.1,1.45-19.78h33.54l1.5,20.52.33,4.48,2.26,30.72Z" fill="#f5f5ff" stroke="#2e2e2e" stroke-linecap="round" stroke-linejoin="round" stroke-width=".56"/><path d="m338.08,167.54c-10.57,1.29-22.49-3.79-30.56-14.11-3.28-4.17-5.56-8.77-6.87-13.41l.95-12.85h33.53l1.49,20.52.35,4.48,1.11,15.36Z" fill="#2e2e2e" stroke-width="0"/><path d="m349.26,97.53c-4.21,6.77-3.81,14.78.91,17.9,4.72,3.12,11.95.17,16.17-6.6,4.21-6.77,3.81-14.78-.91-17.9-4.72-3.12-11.95-.17-16.17,6.6Z" fill="#f5f5ff" stroke="#2e2e2e" stroke-linecap="round" stroke-linejoin="round" stroke-width=".56"/><path d="m361.88,94.18c2.04.8,3.59,2.74,3.92,4.9.33,2.17-.57,4.48-2.28,5.85" fill="none" stroke="#2e2e2e" stroke-linecap="round" stroke-linejoin="round" stroke-width=".56"/><path d="m286.92,97.53c4.21,6.77,3.81,14.78-.91,17.9-4.72,3.12-11.95.17-16.17-6.6-4.21-6.77-3.81-14.78.91-17.9,4.71-3.12,11.95-.17,16.17,6.6Z" fill="#f5f5ff" stroke="#2e2e2e" stroke-linecap="round" stroke-linejoin="round" stroke-width=".56"/><path d="m274.3,94.18c-2.04.8-3.59,2.74-3.92,4.9-.33,2.17.57,4.48,2.28,5.85" fill="none" stroke="#2e2e2e" stroke-linecap="round" stroke-linejoin="round" stroke-width=".56"/><path d="m359.37,83.88c0,.63,0,1.24-.04,1.8-.07,1.8-.23,3.59-.47,5.34l-.26,2.5-.12,1.36-.19,1.97c-.12,1.19-.19,2.37-.28,3.54-.04.75-.09,1.48-.13,2.23-.18,2.98-.34,5.91-.76,8.84,0,.05-.03.09-.03.14-.09.56-.18,1.13-.29,1.68-.1.61-.22,1.21-.38,1.79-.21.89-.46,1.77-.75,2.67-.09.34-.19.64-.32.96-.22.66-.48,1.3-.76,1.98-.75,1.71-1.63,3.39-2.64,5.07-4.24,6.97-10.73,13.34-17.25,17.58-.01.05-.06.06-.09.06-.79.53-1.59,1.02-2.36,1.47-7.94,4.56-17.32,4.81-25.54.89-1.7-.82-3.35-1.74-4.93-2.84-.03,0-.06,0-.07-.05-6.3-4.23-11.7-10.36-15.78-17.11-.28-.47-.56-.93-.84-1.42-.13-.26-.26-.52-.4-.76-.23-.43-.45-.87-.69-1.31-.65-1.16-1.22-2.37-1.73-3.56-.13-.32-.29-.66-.41-.99-1.91-4.75-2.6-10.06-3.04-15.26-.09-.82-.15-1.65-.22-2.46-.07-.92-.16-1.83-.22-2.73l-.22-2.44c-.06-.27-.1-.53-.15-.79-.01-.05-.03-.09-.03-.14-.06-.24-.09-.49-.12-.73-.21-1.13-.37-2.24-.48-3.4-.21-1.88-.31-3.86-.31-5.86,0-.17,0-.35.01-.52,0-1.25.06-2.49.16-3.72.09-1.04.22-2.08.4-3.08.94-6.2,3.04-11.95,6.08-17,.76-1.27,1.59-2.49,2.45-3.65,2.45-3.3,5.4-6.21,8.71-8.62,8.4-6.17,19.13-9.16,30.04-7.33,5.92.99,11.29,3.34,15.91,6.64,4.9,3.49,8.98,8.04,12.02,13.19.19.26.34.52.51.82,2.66,4.76,4.57,10.1,5.45,15.83.01.02.01.03.01.06,0,.02.01.05.01.06.15,1.01.28,2.05.37,3.08.1,1.24.16,2.47.16,3.72.03.17.03.35.03.52Z" fill="#f5f5ff" stroke="#2e2e2e" stroke-linecap="round" stroke-linejoin="round" stroke-width=".57"/><path d="m294.85,47.28c-2.89,16.3-8.56,32.03-16.65,46.17-.07.14-.16.27-.25.43-.06-.24-.09-.49-.12-.73-.21-1.13-.37-2.24-.48-3.4-.21-1.88-.31-3.86-.31-5.86,0-.17,0-.35.01-.52,0-1.25.06-2.49.16-3.72.09-1.04.22-2.08.4-3.08.94-6.2,3.04-11.95,6.08-17,.76-1.27,1.59-2.49,2.45-3.65,2.45-3.3,5.4-6.21,8.71-8.62Z" fill="#2e2e2e" stroke-width="0"/><path d="m359.25,83.51c0,.66,0,1.28-.04,1.88-.06,1.85-.21,3.71-.44,5.51l-.23,2.59-.12,1.4c-.32-.53-.6-1.02-.85-1.45-8.21-14.33-13.95-30.29-16.76-46.85,4.9,3.49,8.98,8.04,12.02,13.19.19.26.34.52.51.82,2.66,4.76,4.57,10.1,5.45,15.83.01.02.01.03.01.06.28,2.11.44,4.27.44,6.5.01.17.01.35.01.52Z" fill="#2e2e2e" stroke-width="0"/><path d="m357.38,116.51c0-1.97,1.6-3.57,3.57-3.57s3.57,1.6,3.57,3.57-1.6,3.57-3.57,3.57-3.57-1.6-3.57-3.57Z" fill="#ffce33" stroke-width="0"/><path d="m272.73,116.51c0-1.97,1.6-3.57,3.57-3.57s3.57,1.6,3.57,3.57-1.6,3.57-3.57,3.57-3.57-1.6-3.57-3.57Z" fill="#ffce33" stroke-width="0"/><path d="m326.65,88.13c.63-2.11,2.16-3.79,3.97-4.96,1.83-1.17,3.97-1.84,6.14-1.97,2.17-.14,4.38.27,6.33,1.21,1.94.95,3.66,2.43,4.53,4.46-2.17-.22-3.93-.37-5.64-.42-1.7-.06-3.3-.03-4.91.06-1.61.1-3.2.26-4.88.52-1.69.25-3.42.62-5.55,1.1Z" fill="#2e2e2e" stroke-width="0"/><path d="m307.8,88.13c-2.13-.48-3.86-.85-5.55-1.1-1.68-.26-3.28-.42-4.88-.52-1.61-.09-3.21-.12-4.91-.06-1.71.05-3.47.2-5.64.42.87-2.03,2.6-3.51,4.53-4.46,1.95-.94,4.16-1.35,6.33-1.21,2.17.13,4.31.8,6.14,1.97,1.81,1.17,3.34,2.85,3.97,4.96Z" fill="#2e2e2e" stroke-width="0"/><path d="m325.51,99.73l1.68-2.25c1.81-2.34,4.53-3.85,7.46-4.25,2.94-.37,6,.41,8.39,2.17,0,0,2.24,1.69,2.24,1.69,0,0-.32-.1-.32-.1.95-.1,1.97-.88,2.74-1.45.1-.08.25-.07.34.03.07.09.07.22,0,.31-.4.46-.83.86-1.29,1.25-.58.43-.96.82-1.78.95-.12.01-.23-.03-.32-.1,0,0-2.33-1.55-2.33-1.55-2.19-1.5-4.87-2.21-7.52-1.93-2.65.25-5.19,1.53-7.01,3.5,0,0-1.92,2.05-1.92,2.05-.19.22-.55-.07-.37-.31h0Z" fill="#2e2e2e" stroke-width="0"/><path d="m331.86,96.79c.13-1.8,1.69-3.15,3.49-3.02,1.8.13,3.15,1.69,3.02,3.49-.13,1.8-1.69,3.15-3.49,3.02-1.8-.13-3.15-1.69-3.02-3.49Z" fill="#2e2e2e" stroke-width="0"/><path d="m341.74,99.37c1.2-.27,2.34-.81,3.3-1.58" fill="none" stroke="#2e2e2e" stroke-linecap="round" stroke-linejoin="round" stroke-width=".55"/><path d="m325.61,95.97c1.81-2.5,4.67-4.22,7.72-4.64" fill="none" stroke="#2e2e2e" stroke-linecap="round" stroke-linejoin="round" stroke-width=".55"/><path d="m308.57,100.03l-1.92-2.05c-1.82-1.97-4.35-3.24-7.01-3.5-2.65-.28-5.33.44-7.52,1.93,0,0-2.33,1.55-2.33,1.55-.09.07-.21.11-.32.1-1.36-.29-2.16-1.27-3.07-2.2-.09-.1-.07-.25.02-.34.09-.08.22-.08.31,0,.77.57,1.79,1.35,2.74,1.45,0,0-.32.1-.32.1,0,0,2.24-1.69,2.24-1.69,4.78-3.64,12.23-2.75,15.86,2.08,0,0,1.68,2.25,1.68,2.25.17.23-.16.52-.37.31h0Z" fill="#2e2e2e" stroke-width="0"/><path d="m302.59,96.79c-.13-1.8-1.69-3.15-3.49-3.02s-3.15,1.69-3.02,3.49c.13,1.8,1.69,3.15,3.49,3.02,1.8-.13,3.15-1.69,3.02-3.49Z" fill="#2e2e2e" stroke-width="0"/><path d="m292.71,99.37c-1.2-.27-2.34-.81-3.3-1.58" fill="none" stroke="#2e2e2e" stroke-linecap="round" stroke-linejoin="round" stroke-width=".55"/><path d="m308.84,95.97c-1.81-2.5-4.67-4.22-7.72-4.64" fill="none" stroke="#2e2e2e" stroke-linecap="round" stroke-linejoin="round" stroke-width=".55"/><path d="m312.08,114.74c-1.76.21-2.76-1.69-1.94-3.26" fill="none" stroke="#2e2e2e" stroke-linecap="round" stroke-linejoin="round" stroke-width=".63"/><path d="m322.37,114.92c1.76.21,2.76-1.69,1.94-3.26" fill="none" stroke="#2e2e2e" stroke-linecap="round" stroke-linejoin="round" stroke-width=".63"/><path d="m311.93,114.49c2.83,2.6,7.62,2.68,10.54.17" fill="none" stroke="#2e2e2e" stroke-linecap="round" stroke-linejoin="round" stroke-width=".63"/><path d="m327.93,126.62c-2.33,1.47-5.4,1.65-7.95.48-1.7.75-3.71.73-5.41-.02-2.54,1.14-5.63.99-7.97-.43,1.19.04,2.72-.98,3.57-1.63l.39-.3c.94-.76,1.92-1.56,3.14-1.95,1.19-.36,2.79-.18,3.69.8.89-.98,2.48-1.15,3.67-.8,1.22.39,2.2,1.19,3.14,1.95l.39.3c.85.66,2.17,1.58,3.34,1.6Z" fill="#2e2e2e" stroke="#2e2e2e" stroke-linecap="round" stroke-linejoin="round" stroke-width=".63"/><path d="m306.59,126.66h-.05" fill="#2e2e2e" stroke="#2e2e2e" stroke-linecap="round" stroke-linejoin="round" stroke-width=".63"/><path d="m327.93,126.62h.14" fill="#2e2e2e" stroke="#2e2e2e" stroke-linecap="round" stroke-linejoin="round" stroke-width=".63"/><path d="m329.58,125.24c-.48.55-1.05,1.01-1.65,1.38" fill="#2e2e2e" stroke="#2e2e2e" stroke-linecap="round" stroke-linejoin="round" stroke-width=".63"/><path d="m306.59,126.66c-.64-.37-1.22-.85-1.72-1.42" fill="#2e2e2e" stroke="#2e2e2e" stroke-linecap="round" stroke-linejoin="round" stroke-width=".63"/><path d="m311.57,131.46c3.85.91,7.89,1.01,11.79.29" fill="none" stroke="#2e2e2e" stroke-linecap="round" stroke-linejoin="round" stroke-width=".55"/><path d="m244.01,246.63c14.66,6.61,28.04,8.65,29.89,4.55,1.85-4.1-8.53-12.79-23.19-19.4-14.66-6.61-28.04-8.65-29.89-4.55-1.85,4.1,8.53,12.79,23.19,19.4Z" fill="#2e2e2e" stroke-width="0"/><path d="m218.08,321.49h0c8.1,3.26,17.34-.24,21.26-8.04l50.12-99.78c6.22-14.27-.24-30.65-14.05-35.6-2.62-.94-5.28-1.41-7.95-1.43-10.69-.09-20.97,6.96-24.99,18.15l-34.11,105.99c-2.7,8.39,1.54,17.43,9.72,20.72Z" fill="#f5f5ff" stroke="#2e2e2e" stroke-linecap="round" stroke-linejoin="round" stroke-width=".57"/><path d="m221.13,226.73c2.71-3.42,15.55-1.27,29.57,5.04,14.66,6.62,25.06,15.31,23.19,19.42-.04.09-.09.16-.16.24l.16.07,16.19-37.97c6.35-14.91-.51-31.9-14.95-36.94-2.73-.96-5.51-1.42-8.29-1.42-9.89,0-19.37,5.86-24.24,15.37l-21.48,36.19Z" fill="#ffce33" stroke-width="0"/><path d="m390.65,246.63c-14.66,6.61-28.04,8.65-29.89,4.55-1.85-4.1,8.53-12.79,23.19-19.4,14.66-6.61,28.04-8.65,29.89-4.55,1.85,4.1-8.53,12.79-23.19,19.4Z" fill="#2e2e2e" stroke-width="0"/><path d="m416.58,321.49h0c-8.1,3.26-17.34-.24-21.26-8.04l-50.12-99.78c-6.22-14.27.24-30.65,14.05-35.6,2.62-.94,5.28-1.41,7.95-1.43,10.69-.09,20.97,6.96,24.99,18.15l34.11,105.99c2.7,8.39-1.54,17.43-9.72,20.72Z" fill="#f5f5ff" stroke="#2e2e2e" stroke-linecap="round" stroke-linejoin="round" stroke-width=".57"/><path d="m413.52,226.73c-2.71-3.42-15.55-1.27-29.57,5.04-14.66,6.62-25.06,15.31-23.19,19.42.04.09.09.16.16.24l-.16.07-16.2-37.97c-6.35-14.91.51-31.9,14.95-36.94,2.73-.96,5.51-1.42,8.29-1.42,9.89,0,19.37,5.86,24.24,15.37l21.48,36.19Z" fill="#ffce33" stroke-width="0"/><path d="m377.46,206.01l-19.62,120.94h-81.33l-21.84-120.94c-3.71-15.75,1.58-30.84,17.75-30.84h89.51c16.17,0,19.24,15.08,15.53,30.84Z" fill="#ffce33" stroke-width="0"/><path d="m334.12,46.93c-.54,6.05-4.61,11.46-9.87,14.5-5.26,3.05-11.56,3.93-17.62,3.47-2.81,7.23-10.43,12.57-18.18,12.98,2.16,4.78-.8,10.78-3.51,15.28-2.7,4.5-6.05,8.96-6.37,14.2-.28,4.57,1.82,8.89,3.45,13.16,1.63,4.27,2.79,9.21.75,13.3-1.82,3.64-6.18,5.82-10.18,5.08s-7.29-4.33-7.69-8.38c-.39-4.05,2.16-8.21,5.94-9.7,3.38-4.6,2.83-10.11,1.77-15.71-1.06-5.61-3-11.12-2.95-16.82.09-9.07,5.74-17.86,13.95-21.71.39-11.29,6.79-21.87,16.84-27.05,10.04-5.18,22.86-4.49,32.29,1.75,1.06.7,2.12,1.52,2.59,2.7.47,1.18-.04,2.5-1.22,2.96Z" fill="#2e2e2e" stroke-width="0"/><path d="m333.46,43.63c-3,4.08-3.73,9.73-1.86,14.43,1.87,4.71,6.26,8.32,11.25,9.24-.1,6.52,4.36,12.37,8.56,17.36,4.2,4.99,8.42,11.07,7.19,17.47,4.75-9.34,6.03-20.39,3.53-30.57-2.5-10.18-8.74-19.38-17.28-25.46-3.56-2.53-8.79-5.99-11.38-2.47Z" fill="#2e2e2e" stroke-width="0"/><path d="m359.29,232.27c-8.04-7.61-8.02-20.41.04-27.99l3.45-3.26,9.02-8.48,17.82-16.75,14.98,13.84,6.84,6.31,3.42,3.16-27.87,31.84c-7.19,8.22-19.75,8.82-27.69,1.32Z" fill="#f5f5ff" stroke="#2e2e2e" stroke-linecap="round" stroke-linejoin="round" stroke-width=".6"/><path d="m411.43,195.96c-2.85,1.67-6.03,2.91-9.2,3.88-12.71,3.94-26.54,4.46-39.45,1.19l9.02-8.48,17.82-16.75,14.98,13.84,6.84,6.31Z" fill="#2e2e2e" stroke-width="0"/><path d="m450.96,150.9c-8.34-12.17-22.48-18.01-36.17-16.33-5.91.71-11.73,2.81-16.97,6.41-2.99,2.05-5.59,4.45-7.8,7.11v-.03s-8.97,1.07-8.97,1.07l-1.3-.68c-2.02-1.06-4.48.15-4.89,2.39l-.61,3.39-1.89.61c-1.07.34-1.81,1.32-1.85,2.44l-.08,2.27-1.28.48c-.96.36-1.63,1.23-1.72,2.25l-.27,2.95c-3.17,2.54-4.57,6.69-3.58,10.63l.14.55c.38,1.5,1.08,2.89,2.07,4.08,3.58,4.33,8.1,7.77,13.22,10.08l9.37,4.22c2.59,3.61,5.67,6.66,9.13,9.07,12.67,8.86,30.02,9.47,43.54.2,17.41-11.93,21.86-35.73,9.92-53.16Z" fill="#f5f5ff" stroke="#2e2e2e" stroke-linecap="round" stroke-linejoin="round" stroke-width=".6"/><path d="m441.04,204.05c-13.52,9.26-30.86,8.66-43.54-.2.45-2.64,1.57-5.15,3.38-7.15,3.83-4.22,10.56-6.44,11.66-12.05.96-4.96-3.23-10.42-.75-14.83,1.42-2.49,4.58-3.64,5.83-6.22,1.17-2.43.28-5.3-.48-7.9-1.38-4.63-2.29-9.42-2.73-14.23-.2-2.27-.26-4.73.37-6.9,13.69-1.68,27.83,4.16,36.17,16.33,11.94,17.43,7.5,41.22-9.92,53.16Z" fill="#2e2e2e" stroke-width="0"/><path d="m395.24,191.33c1.88,3.27,6.53,5.4,11.89,5.1,6.92-.39,12.41-4.69,12.27-9.6-.14-4.91-5.86-8.58-12.78-8.19-.75.04-1.49.13-2.21.26" fill="#f5f5ff" stroke="#2e2e2e" stroke-linecap="round" stroke-linejoin="round" stroke-width=".49"/><path d="m415.32,185.93c.45,1.85-.15,3.92-1.52,5.24s-3.47,1.84-5.3,1.3" fill="none" stroke="#2e2e2e" stroke-linecap="round" stroke-linejoin="round" stroke-width=".49"/><path d="m397.71,146.78c1.26.26,2.4.96,3.31,1.89.92.92,1.59,2.08,1.98,3.33.36,1.26.43,2.58.16,3.81-.26,1.23-.82,2.39-1.72,3.22-.03-1.22-.14-2.28-.33-3.27-.21-.99-.49-1.91-.89-2.75-.37-.85-.87-1.62-1.42-2.38-.56-.75-1.2-1.45-1.92-2.21l-.04-.05c-.36-.38-.35-.99.04-1.36.23-.22.56-.3.85-.24Z" fill="#2e2e2e" stroke-width="0"/><path d="m375.79,155.27c.25.84,1.44,1.22,2.13.68" fill="none" stroke="#2e2e2e" stroke-linecap="round" stroke-linejoin="round" stroke-width=".64"/><path d="m370.4,159.43c0,1.08.83,2.1,1.89,2.32" fill="none" stroke="#2e2e2e" stroke-linecap="round" stroke-linejoin="round" stroke-width=".64"/><path d="m375,160.06c-2.89,1.01-4.89,4.13-4.61,7.18" fill="none" stroke="#2e2e2e" stroke-linecap="round" stroke-linejoin="round" stroke-width=".64"/><path d="m392.85,153.12c-1.13,2.59-.42,5.95,1.8,7.75" fill="none" stroke="#2e2e2e" stroke-linecap="round" stroke-linejoin="round" stroke-width=".64"/><path d="m392.46,150.03c-.47.98-.28,2.17.33,3.06" fill="none" stroke="#2e2e2e" stroke-linecap="round" stroke-linejoin="round" stroke-width=".64"/><path d="m394.71,160.92c-2.8-.57-5.22-2.68-6.17-5.37" fill="none" stroke="#2e2e2e" stroke-linecap="round" stroke-linejoin="round" stroke-width=".64"/><path d="m391.81,156.78c-.76.65-1.67.84-2.03.42-.36-.42-.04-1.29.71-1.95.76-.65,1.67-.84,2.03-.42.36.42.04,1.29-.71,1.95Z" fill="#2e2e2e" stroke-width="0"/><path d="m335.96,202.68c7.5,1.98,15.02,4.3,23.32,5.12,13.53,1.33,27.07-3.23,40.63-.88,17.3,3,12.52,31.83-29.61,70.09-9.67,8.78-12.76,22.54-21.89,32.2-13.03,13.79-31.69,23.01-50.93,22-49.47-2.61-58.58-73.59-32.63-105.49,10.54-12.96,25.74-22.17,42.16-25.33,10.58-2.03,19.75-.13,28.94,2.29Z" fill="#2e2e2e" stroke-width="0"/><path d="m405.39,209.27c-11.22,6.85-23.17,12.5-35.61,16.53-9.29,3.02-18.85,5.1-28.58,6.11-23.78,2.49-48.6-1.93-69.32-13.64" fill="none" stroke="#f5f5ff" stroke-linecap="round" stroke-linejoin="round" stroke-width=".6"/><path d="m370.09,225.86c-.1-.02-.21-.05-.3-.06-11.78-2.41-23.27-6.35-34.05-11.67-7.17-3.53-14.44-8.18-18.9-14.59" fill="none" stroke="#f5f5ff" stroke-linecap="round" stroke-linejoin="round" stroke-width=".6"/><path d="m209.77,298.12c-4.39,11.76,2.73,24.66,15.02,27.22l98.77,20.55,24.5-13.45,12.9-5.79c.66-.18,1.28-.51,1.8-1.03l10.3-10.37c1.34-1.35,1.52-3.42.55-4.97l5.93-4.47c1.78-1.34,2.13-3.86.79-5.64-1.34-1.78-3.86-2.13-5.64-.79l-11,8.3c-.08.03-.17.05-.25.08l-9.32,4.18c-.39-.45-.81-.88-1.26-1.3l7.68-7.06s.06-.08.1-.11c.22-.18.43-.39.61-.62l9.78-12.23c1.49-1.86,1.19-4.58-.67-6.06-1.86-1.49-4.58-1.19-6.06.67l-9.62,12.02-9.96,9.16c-.82-.19-1.66-.35-2.53-.44l-10.81-1.1,1.39-6.72s0-.07.01-.1l3.81-10.82c.88-2.51-.43-5.25-2.94-6.13-2.51-.88-5.25.43-6.14,2.94l-3.91,11.08c-.11.32-.19.65-.23.98,0,.04-.03.07-.03.11l-1.64,7.93c-.01.06,0,.11-.02.17l-7.64,16.83-74.75-33.68m114.02,34.24c2.44-1.4,6.61-2.39,9.27-3.87,4.28-2.39,7.11-5.28,11.05-7.54m-24.52,3.46c1.42-1.17,2.85-2.35,4.27-3.52" fill="#f5f5ff" stroke="#2e2e2e" stroke-linecap="round" stroke-linejoin="round" stroke-width=".57"/><path d="m362.19,199.82l-14.81-2.54c-.08-.01-.15,0-.23-.02-.06,0-.11,0-.17-.01-.17,0-.34,0-.51.01-.03,0-.05,0-.08,0l-4.92.6c-1.85.23-3.16,1.91-2.94,3.75.23,1.85,1.91,3.16,3.75,2.94l4.46-.55,14.3,2.46c1.83.32,3.58-.92,3.89-2.75s-.92-3.58-2.75-3.89Z" fill="#f5f5ff" stroke="#2e2e2e" stroke-linecap="round" stroke-linejoin="round" stroke-width=".57"/><path d="m372.67,239.37l19.86,69.51c.72,2.53,1.94,4.78,3.52,6.66" fill="#f5f5ff" stroke="#2e2e2e" stroke-linecap="round" stroke-linejoin="round" stroke-width=".57"/><line x1="426.04" y1="295.21" x2="398.34" y2="239.21" fill="#f5f5ff" stroke="#2e2e2e" stroke-linecap="round" stroke-linejoin="round" stroke-width=".57"/><path d="m426.04,295.21l-36.05-72.9-10.51-10.42c-.75-.9-1.61-1.74-2.55-2.53l-.15-.14-.15-.1c-.95-.77-1.99-1.47-3.11-2.11l-8.25-5.61c-2.32-1.57-5.05-2.42-7.85-2.42-4.09,0-7.97,1.79-10.63,4.9l-5.53,6.48c-.22.24-.42.48-.63.73l-.3.35v.03c-1.61,2.13-2.65,4.57-2.89,7.23-.52,5.74,2.71,11.15,8.09,14.83v.02s.05.02.05.02c3.18,2.16,7.1,3.7,11.45,4.35l.06.02.37.03c.43.06.86.13,1.31.17.41.04.82.04,1.23.06l12.67,1.16,19.86,69.51c2.89,10.12,13.74,15.68,23.64,12.13h0c10.5-3.76,15.17-16,9.86-25.8Z" fill="#f5f5ff" stroke="#2e2e2e" stroke-linecap="round" stroke-linejoin="round" stroke-width=".57"/><path d="m342.41,229.5l-12.04,1.26c-.3,0-.61,0-.91.09l-12.69,3.34c-1.7.45-2.72,2.19-2.27,3.89.45,1.7,2.19,2.72,3.89,2.27l12.12-3.19s0,0,.01,0l18.79-2.3" fill="#f5f5ff" stroke="#2e2e2e" stroke-linecap="round" stroke-linejoin="round" stroke-width=".57"/><path d="m338.04,218.48l-13.46.68c-.3.02-.59.08-.87.17l-9.8,1.69c-1.83.32-3.06,2.06-2.75,3.89.32,1.83,2.06,3.06,3.89,2.75l9.89-1.71c.1-.02.2-.06.3-.08l13.63-.86" fill="#f5f5ff" stroke="#2e2e2e" stroke-linecap="round" stroke-linejoin="round" stroke-width=".57"/><path d="m349.97,201.81l-13.56-2.33s-.09,0-.13,0c-.1-.01-.2-.02-.3-.02-.11,0-.21-.01-.32,0-.15,0-.31.03-.46.06-.05.01-.11.01-.16.03-.19.04-.38.11-.56.19,0,0-.02,0-.03.01-.06.03-.12.04-.18.07l-8.94,4.58c-1.66.85-2.31,2.88-1.46,4.54.85,1.66,2.88,2.31,4.54,1.46l7.94-4.07,7.84,1.58" fill="#f5f5ff" stroke="#2e2e2e" stroke-linecap="round" stroke-linejoin="round" stroke-width=".57"/><path d="m343.17,209.68l-13.26-2.81c-.62-.31-1.34-.44-2.07-.32l-9.89,1.71c-1.83.32-3.06,2.06-2.75,3.89.32,1.83,2.06,3.06,3.89,2.75l8.87-1.53,10.67,1.83" fill="#f5f5ff" stroke="#2e2e2e" stroke-linecap="round" stroke-linejoin="round" stroke-width=".57"/><path d="m31.35,279.07h0c6.54,9.4,20.51,10.62,31.05,2.71l88.89-66.74c12.77-9.58,15.98-26.7,7-37.26h0c-8.55-10.05-24.88-10.21-36.47-.35l-84.71,72.07c-9.35,7.96-11.86,20.81-5.77,29.56Z" fill="#2e2e2e" stroke-width="0"/><path d="m218.45,310.18l.17-.22c1.35-1.79,1-4.31-.76-5.66l-15.8-12.05c-.76-.56-1.62-.81-2.47-.81-.17,0-.32-.02-.49-.02l-10.65.22c-.37-.66-.76-1.3-1.22-1.89l7.62-1.84,17.36,8.01c2.01.93,4.41.05,5.34-1.98l.2-.42c.93-2.01.05-4.41-1.98-5.34l-18.51-8.55c-.61-.27-1.27-.37-1.91-.34-.47-.05-.95-.05-1.44.07l-15.43,3.77-.44.1c-.34-.12-.69-.22-1.03-.29-.71-.17-1.44-.29-2.16-.37l.22-.17,8.28-6.02.86-.61c1.69-1.22,2.06-3.62.83-5.31l-.61-.83-.61-.86c-1.25-1.69-3.62-2.08-5.31-.83l-.73.54s-.07.05-.12.07l-13.4,9.75s-.05,0-.07.02c-1.2.22-2.3.81-3.16,1.67l-6.93,3.31-3.6,1.71-19.96,1.62-3.23,17.73,15.11,6.2,12.98,3.6,13.22,3.65c2.84.69,5.71.66,8.38.02l8.35,3.87c.34.27.71.51,1.18.66l15.43,5.46c2.11.73,4.41-.37,5.14-2.45l.2-.54c.73-2.11-.37-4.41-2.45-5.14l-13.91-4.92-4.9-2.28c.73-.78,1.4-1.64,1.96-2.57l7.2-.15,17.53,8.06c2.03.93,4.43.05,5.36-1.98l.07-.17c.71-1.57.37-3.36-.76-4.51.39-.25.78-.56,1.08-.98Zm-15.75-5.98c-1.91-.91-3.62-2.38-5.76-2.72-2.03-.34-4.09.05-6.12.1h-.15c.02-.54.05-1.1.02-1.64l7.44-.15,7.64,5.83c-1.03-.47-2.06-.93-3.09-1.42Z" fill="#f5f5ff" stroke="#2e2e2e" stroke-linecap="round" stroke-linejoin="round" stroke-width=".57"/><path d="m184.56,311.82l1.44.66,4.9,2.28,13.91,4.92c2.08.73,3.18,3.04,2.45,5.14l-.2.54c-.73,2.08-3.04,3.18-5.14,2.45l-15.43-5.46c-.47-.15-.83-.39-1.18-.66l-8.35-3.87-2.13-1" fill="none" stroke="#2e2e2e" stroke-linecap="round" stroke-linejoin="round" stroke-width=".55"/><path d="m187.28,301.66c1.15-.02,2.28-.05,3.4-.07h.15c2.03-.05,4.09-.44,6.12-.1,2.13.34,3.84,1.81,5.75,2.72,1.03.49,2.06.96,3.09,1.42,1.2.51,2.4,1.03,3.6,1.57,2.25,1.05,4.51,2.08,6.76,3.11.47.22.88.51,1.22.86,1.13,1.15,1.47,2.94.76,4.51l-.07.17c-.93,2.03-3.33,2.91-5.36,1.98l-17.53-8.06-7.2.15-1.86.02" fill="none" stroke="#2e2e2e" stroke-linecap="round" stroke-linejoin="round" stroke-width=".55"/><path d="m178.46,283.14l15.43-3.77c.49-.12.98-.12,1.44-.07.64-.02,1.3.07,1.91.34l18.51,8.55c2.03.93,2.91,3.33,1.98,5.34l-.2.42c-.93,2.03-3.33,2.91-5.34,1.98l-17.36-8.01-7.62,1.84-1.98.49" fill="none" stroke="#2e2e2e" stroke-linecap="round" stroke-linejoin="round" stroke-width=".55"/><path d="m175.06,282.41l8.28-6.02c1.32-.96,2.01-2.42,2.01-3.92,0-.98-.32-1.98-.93-2.84-1.54-2.13-4.48-2.64-6.66-1.15-.05.02-.07.05-.12.07l-13.47,9.77-.61.44-.29.22" fill="none" stroke="#2e2e2e" stroke-linecap="round" stroke-linejoin="round" stroke-width=".55"/><path d="m28.49,264.44h0c2.24-9.88,12.06-16.08,21.94-13.85l96.29,26.68-4.95,38.02-99.44-28.91c-9.88-2.23-16.08-12.06-13.85-21.94Z" fill="#2e2e2e" stroke-width="0"/></svg>