<?xml version="1.0" encoding="UTF-8"?><svg id="Layer_1" xmlns="http://www.w3.org/2000/svg" viewBox="0 0 1035 1286"><circle cx="517.5" cy="638.41" r="387.98" transform="translate(-299.85 552.91) rotate(-45)" fill="#ffce33" stroke-width="0"/><path d="m754.44,657.47c14.72-12.46,13.44-33.57,5.79-51.28-7.65-17.71-27.57-29.25-46.73-27.08,15.38-10.79,13.3-32.88,4.58-49.52-8.72-16.64-30.53-25.03-48.16-18.53,16.39-13.07,16.94-34.67,6.3-52.74-4.45-7.56-11.37-13.37-19.31-17.02-4.49-17.35-14.5-33.29-29.01-43.86-11.65-8.5-25.71-13.12-40.07-14.1-16.7-11.29-37.99-17.87-55.78-9.16-50.47-18.13-111.15-3.13-147.36,36.42-6.07,6.63-11.66,14.25-13.14,23.12-1.48,8.87,2.31,19.15,10.6,22.65-22.51-10.96-42.45-2.39-59.7,15.76-17.25,18.15-21.05,47.71-8.96,69.63-19.33.64-34.91,23.36-39.48,42.15-4.57,18.79,4.72,40.08,21.6,49.52-23.84,2.44-32.66,35.21-25.47,58.07,4.71,14.96,19.29,25.24,34.68,27.33-13.22,6.56-24.99,19.15-30.39,31.53-8.55,19.61-1.64,44.73,15.72,57.22,17.36,12.49,43.38,11.05,59.25-3.29-5.42,15.01,5.8,35.39,20.01,42.66,14.21,7.27,31.64,5.7,46.38-.43,14.74-6.13,27.35-16.33,39.73-26.4-5.12,3.06,2.49,10.78,4.78,16.29s7.25,9.44,12.42,12.41c28.73,16.51,69.58,6.77,87.76-20.94-.94,19.79,14.28,38.34,34.09,38.91,19.8.57,38.26-17.19,38.46-37,12.75,19.19,36.19,24.11,54.37,9.97,18.18-14.14,20.8-44.26,5.34-61.33,16.76,14.96,46.07,24.04,59.92,6.35,13.85-17.69,9.35-46.75-9.19-59.43,20.68,4.41,44.65-3.69,47.33-24.67,2.68-20.98-15.23-42.25-36.36-43.19Z" fill="#2e2e2e" stroke-width="0"/><path d="m589.5,897.71c1.39,42.35-31.82,77.46-73.24,77.46s-73.24-33.67-73.24-74.98c0-.81,0-1.68.06-2.49l8.16-111.83,1.04-14.41,5.09-69.48h117.78l5.27,72.08,1.16,15.74,7.93,107.89Z" fill="#f5f5ff" stroke="#2e2e2e" stroke-linecap="round" stroke-linejoin="round" stroke-width=".5"/><path d="m585.99,842.17c-37.12,4.54-78.98-13.31-107.34-49.54-11.52-14.66-19.52-30.79-24.13-47.11l3.33-45.12h117.77l5.25,72.07,1.22,15.75,3.9,53.96Z" fill="#2e2e2e" stroke-width="0"/><path d="m625.25,596.3c-14.8,23.76-13.37,51.91,3.19,62.88,16.56,10.96,41.98.58,56.78-23.18,14.8-23.76,13.37-51.91-3.19-62.87-16.56-10.96-41.98-.59-56.78,23.18Z" fill="#f5f5ff" stroke="#2e2e2e" stroke-linecap="round" stroke-linejoin="round" stroke-width=".5"/><path d="m669.57,584.53c7.17,2.8,12.62,9.61,13.78,17.22,1.16,7.61-2.01,15.74-8.02,20.55" fill="none" stroke="#2e2e2e" stroke-linecap="round" stroke-linejoin="round" stroke-width=".5"/><path d="m406.31,596.3c14.8,23.76,13.37,51.91-3.19,62.88-16.56,10.96-41.98.58-56.78-23.18-14.8-23.76-13.37-51.91,3.19-62.87,16.56-10.96,41.98-.59,56.78,23.18Z" fill="#f5f5ff" stroke="#2e2e2e" stroke-linecap="round" stroke-linejoin="round" stroke-width=".5"/><path d="m361.99,584.53c-7.17,2.8-12.62,9.61-13.78,17.22-1.16,7.61,2.01,15.74,8.02,20.55" fill="none" stroke="#2e2e2e" stroke-linecap="round" stroke-linejoin="round" stroke-width=".5"/><path d="m663.54,551.86c0,2.19,0,4.3-.16,6.3-.24,6.22-.81,12.44-1.7,18.52l-.93,8.71-.45,4.71-.69,6.83c-.4,4.15-.69,8.22-.97,12.29-.16,2.6-.32,5.17-.49,7.73-.65,10.33-1.25,20.51-2.79,30.7,0,.15-.08.34-.08.49-.32,1.92-.65,3.88-1.05,5.81-.4,2.11-.81,4.19-1.41,6.22-.73,3.05-1.62,6.15-2.67,9.28-.32,1.13-.73,2.19-1.17,3.32-.81,2.26-1.78,4.53-2.75,6.86-2.71,5.96-5.9,11.8-9.57,17.61-15.31,24.21-38.74,46.35-62.24,61.05-.08.15-.24.23-.32.23-2.87,1.85-5.73,3.54-8.56,5.09-28.64,15.84-62.52,16.71-92.21,3.05-6.14-2.83-12.08-6.03-17.81-9.84-.08,0-.16,0-.24-.15-22.74-14.71-42.25-36.01-56.95-59.43-1.05-1.62-2.02-3.24-3.03-4.94-.48-.87-.97-1.77-1.45-2.64-.81-1.47-1.62-3.02-2.46-4.53-2.34-4.04-4.4-8.26-6.26-12.37-.49-1.13-1.05-2.26-1.5-3.47-6.91-16.48-9.37-34.88-10.99-52.98-.28-2.83-.52-5.69-.77-8.52-.28-3.17-.57-6.34-.81-9.47l-.81-8.49c-.2-.94-.36-1.85-.53-2.75-.24-1.02-.4-2.04-.52-3.05-.73-3.88-1.29-7.77-1.74-11.8-.73-6.52-1.13-13.39-1.13-20.36,0-.57,0-1.21.08-1.77,0-4.37.2-8.67.57-12.93.32-3.62.81-7.2,1.41-10.71,3.39-21.49,10.99-41.48,21.97-59.02,2.75-4.41,5.69-8.64,8.85-12.71,31.38-40.59,85.02-64.21,139.85-55.38,43.86,7.07,79.47,34.09,100.88,68.84.65.91,1.17,1.85,1.82,2.87,9.61,16.55,16.48,35.11,19.67,54.98,0,.15.08.26.08.41.57,3.51,1.01,7.09,1.33,10.71.4,4.26.61,8.56.61,12.93.08.57.08,1.21.08,1.77Z" fill="#f5f5ff" stroke="#2e2e2e" stroke-linecap="round" stroke-linejoin="round" stroke-width=".51"/><path d="m533.42,378.09c15.73,14.43,19.59,39.25,8.91,57.4-10.67,18.15-34.9,27.98-56.02,22.72,6.55,9.81,1.4,24.86-5.65,34.35-7.05,9.49-20.37,14.32-32.26,11.69,10.06,31.33-10.46,68.07-40.24,84.45,8.05,15.54,3.74,40.32-4.75,55.64-8.5,15.32-25,26.36-43,28.77,11.9,13.39,16.12,34.8,9.83,51.29-6.29,16.5-22.3,29.27-40.45,32.26-14.81,2.44-37.42-1.35-43.87-14.29-6.45-12.94-2.32-29.88,9.46-38.78-6.81-13.89-11.03-26.89-11.89-42.2-1.07-18.99,2.88-38.62,13.78-54.55,10.9-15.93,29.29-27.68,49.22-28.65-17.19-24.4-21.44-53.41-8.91-80.27,12.53-26.86,40.17-46.78,70.7-50.95-.3-16.8,6.19-33,19.83-43.64,13.64-10.65,32.49-14.95,49.71-11.35,4.43-10.08,20.26-16.01,31.57-17.76,11.31-1.76,23.44,2.4,30.99,10.62" fill="#2e2e2e" stroke-width="0"/><path d="m546.62,385.62c-11.54,20.19-10.88,46.77,1.64,66.37,12.53,19.6,36.38,31.35,59.55,29.35-10.79,12.02-8.92,31.91,1.12,44.55,10.04,12.64,29.55,16.56,43.7,8.77-7.23,6.08-14.62,15.25-15.3,24.67-.68,9.42,4.72,19.55,13.72,22.41,9,2.86,20.32-3.92,20.39-13.37.21-26.58,16.49-51.57,7.54-76.6-8.95-25.03-29.08-45.83-53.81-55.58-8.81-34.22-43.22-51.04-78.55-50.57Z" fill="#2e2e2e" stroke-width="0"/><circle cx="445.43" cy="610.23" r="52.18" fill="none" stroke="#2e2e2e" stroke-linecap="round" stroke-linejoin="round" stroke-width=".5"/><circle cx="589.09" cy="610.23" r="52.18" fill="none" stroke="#2e2e2e" stroke-linecap="round" stroke-linejoin="round" stroke-width=".5"/><path d="m497.64,604.08c5.76-3.36,12.47-5.28,19.62-5.28s14.04,1.98,19.86,5.42" fill="none" stroke="#2e2e2e" stroke-linecap="round" stroke-linejoin="round" stroke-width=".5"/><line x1="393.25" y1="610.23" x2="363.74" y2="570.93" fill="none" stroke="#2e2e2e" stroke-linecap="round" stroke-linejoin="round" stroke-width=".5"/><line x1="640.31" y1="610.23" x2="669.82" y2="570.93" fill="none" stroke="#2e2e2e" stroke-linecap="round" stroke-linejoin="round" stroke-width=".5"/><path d="m541.85,557.29c3.02-7.35,9.02-12.76,15.67-16.49,6.73-3.7,14.35-5.72,22.06-5.97,7.71-.26,15.43,1.28,22.37,4.51,6.87,3.27,13.2,8.21,16.8,15.3l-20.56-.56c-6.23-.12-12.15-.09-18.01.08-5.87.18-11.76.52-17.94,1.04-6.24.5-12.59,1.21-20.39,2.08Z" fill="#2e2e2e" stroke-width="0"/><path d="m491.7,557.29c-7.81-.88-14.15-1.59-20.39-2.08-6.19-.53-12.08-.86-17.94-1.04-5.87-.17-11.78-.2-18.01-.08l-20.56.56c3.6-7.09,9.93-12.03,16.8-15.3,6.94-3.23,14.66-4.77,22.37-4.51,7.71.25,15.34,2.27,22.06,5.97,6.65,3.74,12.65,9.15,15.67,16.49Z" fill="#2e2e2e" stroke-width="0"/><path d="m546.45,609.72s5.07-8.72,5.09-8.74c12.58-17.63,32.31-22.08,51.27-11.61,5.59,3.2,10.59,7.5,14.41,12.63.08.1.06.24-.04.31-.09.07-.21.06-.28-.02-2.29-2.25-4.46-4.51-6.89-6.55-2.41-2.04-5-3.86-7.75-5.39-18.37-9.98-37.75-5.91-50.13,11.06.06-.14-5.3,8.56-5.3,8.54-.06.1-.2.13-.3.07-.1-.06-.13-.19-.07-.29h0Z" fill="#2e2e2e" stroke-width="0"/><path d="m569.03,597.26c.47-6.48,6.1-11.36,12.59-10.89,6.48.47,11.36,6.1,10.89,12.59-.47,6.48-6.1,11.36-12.58,10.89-6.48-.47-11.36-6.1-10.89-12.59Z" fill="#2e2e2e" stroke-width="0"/><path d="m604.52,608.01c4.33-.97,8.43-2.93,11.89-5.7" fill="none" stroke="#2e2e2e" stroke-linecap="round" stroke-linejoin="round" stroke-width=".5"/><path d="m486.73,609.95s-5.38-8.67-5.3-8.54c-12.39-16.97-31.77-21.04-50.13-11.06-2.76,1.52-5.34,3.35-7.75,5.39-2.42,2.04-4.6,4.3-6.89,6.55-.09.08-.22.08-.31,0-.08-.08-.08-.2-.02-.29,3.82-5.13,8.82-9.42,14.41-12.63,18.98-10.49,38.72-6.01,51.29,11.63,0,0,5.07,8.71,5.07,8.71.13.23-.23.47-.37.22h0Z" fill="#2e2e2e" stroke-width="0"/><path d="m464.53,597.26c-.47-6.48-6.1-11.36-12.59-10.89-6.48.47-11.36,6.1-10.89,12.59.47,6.48,6.1,11.36,12.58,10.89,6.48-.47,11.36-6.1,10.89-12.59Z" fill="#2e2e2e" stroke-width="0"/><path d="m429.04,608.01c-4.33-.97-8.43-2.93-11.89-5.7" fill="none" stroke="#2e2e2e" stroke-linecap="round" stroke-linejoin="round" stroke-width=".5"/><path d="m496.38,661.78c4.89-6.3,12.57-10.16,20.35-10.22,7.77-.07,15.49,3.66,20.44,9.88" fill="none" stroke="#2e2e2e" stroke-linecap="round" stroke-linejoin="round" stroke-width=".46"/><path d="m518.02,706.35c5.24-.03,10.48-.36,15.69-1,1.6-.19,17.17-2.34,17.06-3.31,0,0-8.02-6.17-10.8-8.53l-1.24-1.1c-2.99-2.67-6.07-5.43-9.95-6.82-3.8-1.3-8.88-.73-11.81,2.6-2.84-3.41-7.9-4.12-11.76-2.91-3.9,1.28-7.06,3.96-10.11,6.55l-1.25,1.06c-2.85,2.28-11.05,8.25-11.05,8.25-.11,1.27,13.43,3.62,14.98,3.84,5.71.83,11.47,1.28,17.24,1.38,1,.02,2,.02,3,.01Z" fill="#2e2e2e" stroke-width="0"/><path d="m497.96,716.52c11.81,7,27.34,7.23,39.35.56" fill="#f5f5ff" stroke="#2e2e2e" stroke-linecap="round" stroke-linejoin="round" stroke-width=".51"/><path d="m191,1251.97c51.98,23.46,99.43,30.68,105.99,16.15,6.56-14.54-30.26-45.33-82.24-68.79-51.98-23.45-99.43-30.68-105.99-16.15-6.56,14.54,30.26,45.33,82.24,68.79Z" fill="#2e2e2e" stroke-width="0"/><path d="m260.7,1288.53l52.74-125.38,8.7-20.8,14.4-34.24,9.54-22.66,16.19-38.66,13.95-33.15c19.33-46.02.96-97.22-39.87-111.56-7.1-2.5-14.47-3.71-21.7-3.71-6.46,0-12.86.96-19.14,2.75-25.28,7.1-47.81,28.16-58.12,57.54l-30.47,87.05-15.11,43.14-69.25,197.84c-.19.64-.45,1.22-.64,1.86" fill="#f5f5ff" stroke="#2e2e2e" stroke-linecap="round" stroke-linejoin="round" stroke-width=".5"/><path d="m109.36,1181.55c9.61-12.13,55.14-4.49,104.85,17.88,51.99,23.47,88.86,54.28,82.24,68.85-.16.31-.31.55-.55.87l.55.24,112.36-267.5c22.53-52.86-1.81-113.12-53.01-131-9.69-3.39-19.54-5.04-29.38-5.04-35.05,0-68.69,20.8-85.94,54.51l-131.11,261.2Z" fill="#2e2e2e" stroke-width="0"/><circle cx="196.4" cy="1082.34" r="6.5" fill="#f5f5ff" stroke-width="0"/><path d="m208.57,1158.73c0,5.09,4.12,9.21,9.21,9.21s9.21-4.12,9.21-9.21-4.12-9.21-9.21-9.21-9.21,4.12-9.21,9.21Z" fill="#f5f5ff" stroke-width="0"/><path d="m245.36,1038.19c0,4.3-3.49,7.79-7.79,7.79s-7.79-3.49-7.79-7.79,3.49-7.79,7.79-7.79,7.79,3.49,7.79,7.79Z" fill="#f5f5ff" stroke-width="0"/><path d="m844,1251.97c-51.98,23.46-99.44,30.68-105.99,16.15-6.56-14.54,30.26-45.33,82.24-68.79,51.98-23.45,99.44-30.68,105.99-16.15,6.56,14.54-30.26,45.33-82.24,68.79Z" fill="#2e2e2e" stroke-width="0"/><path d="m774.3,1288.53l-52.74-125.38-8.7-20.8-14.4-34.24-9.54-22.66-16.19-38.66-13.95-33.15c-19.33-46.02-.96-97.22,39.87-111.56,7.11-2.5,14.47-3.71,21.7-3.71,6.47,0,12.87.96,19.14,2.75,25.28,7.1,47.81,28.16,58.12,57.54l30.47,87.05,15.1,43.14,69.25,197.84c.19.64.45,1.22.64,1.86" fill="#f5f5ff" stroke="#2e2e2e" stroke-linecap="round" stroke-linejoin="round" stroke-width=".5"/><path d="m925.64,1181.55c-9.61-12.13-55.14-4.49-104.85,17.88-51.99,23.47-88.86,54.28-82.24,68.85.16.31.31.55.55.87l-.55.24-112.36-267.5c-22.53-52.86,1.81-113.12,53.01-131,9.69-3.39,19.54-5.04,29.38-5.04,35.05,0,68.69,20.8,85.94,54.51l131.11,261.2Z" fill="#2e2e2e" stroke-width="0"/><path d="m769.76,936.29c0,3.52-2.85,6.38-6.38,6.38s-6.38-2.85-6.38-6.38,2.85-6.38,6.38-6.38,6.38,2.85,6.38,6.38Z" fill="#f5f5ff" stroke-width="0"/><circle cx="838.6" cy="1082.34" r="6.5" fill="#f5f5ff" stroke-width="0"/><path d="m791.01,1035.47c0,4.3-3.49,7.79-7.79,7.79s-7.79-3.49-7.79-7.79,3.49-7.79,7.79-7.79,7.79,3.49,7.79,7.79Z" fill="#f5f5ff" stroke-width="0"/><path d="m826.43,1158.73c0,5.09-4.12,9.21-9.21,9.21s-9.21-4.12-9.21-9.21,4.12-9.21,9.21-9.21,9.21,4.12,9.21,9.21Z" fill="#f5f5ff" stroke-width="0"/><path d="m751.34,1178.57c0,3.52-2.85,6.38-6.38,6.38s-6.38-2.85-6.38-6.38,2.85-6.38,6.38-6.38,6.38,2.85,6.38,6.38Z" fill="#f5f5ff" stroke-width="0"/><path d="m752.47,983.1l-16.39,78.34c3.26,7.17,5.82,14.72,7.55,22.59,1.79,8.19,2.75,16.64,2.75,25.35,0,10.37-1.34,20.48-3.97,30.08-2.18,8.32-5.25,16.26-9.15,23.68-6.4,12.29-14.85,23.36-25.03,32.64l-19.27,92.74h-346.71l-19.27-95.37c-6.98-6.78-13.12-14.53-18.24-22.91-6.08-9.98-10.75-20.93-13.63-32.58-2.24-9.02-3.46-18.5-3.46-28.29s1.28-19.59,3.58-28.8c1.47-5.82,3.33-11.46,5.57-16.9l-16.26-80.58c-6.98-29.7-5.63-58.76,4.86-80.65,8.64-18.18,23.62-31.36,45.38-36.03,5.5-1.15,11.52-1.79,17.99-1.79h343.96c6.4,0,12.29.64,17.67,1.79,20.61,4.48,33.73,17.22,40.77,34.69,9.03,22.08,8.38,51.72,1.28,81.99Z" fill="#2e2e2e" stroke-width="0"/><path d="m752.99,983.07c-3.99,19.59-12.08,58.83-16.14,78.38,18.11,38.73,11.88,87.59-15.49,121.01-3.87,4.74-8.07,9.19-12.56,13.34,4.46-4.18,8.61-8.67,12.44-13.44,27.17-33.77,33.11-81.55,15.22-120.99,4.08-19.48,12.38-58.83,16.53-78.3h0Z" fill="#fff" stroke-width="0"/><path d="m323.53,1193.19c-21.07-20.39-33.98-48.79-35.36-78.09-.89-17.55,2.18-35.29,9.03-51.48-4-19.37-12.11-60.68-16.07-80.55,4.12,20.18,12.48,60.53,16.45,80.71-6.76,16.16-9.78,33.81-8.98,51.29,1.28,29.24,14.14,57.56,34.93,78.11h0Z" fill="#fff" stroke-width="0"/><path d="m585.7,860.59l34.85,5.23c-15.49,40.19-55.24,71.24-98.63,73.09-46.6,2.05-91.91-29.83-108.36-73.09l33.88-8.1" fill="#f5f5ff" stroke="#2e2e2e" stroke-linecap="round" stroke-linejoin="round" stroke-width=".5"/><path d="m361.65,1028.38c0,4.3-3.49,7.79-7.79,7.79s-7.79-3.49-7.79-7.79,3.49-7.79,7.79-7.79,7.79,3.49,7.79,7.79Z" fill="#f5f5ff" stroke-width="0"/><path d="m438.16,1219.65c0,8.22-6.66,14.88-14.88,14.88s-14.88-6.66-14.88-14.88,6.66-14.88,14.88-14.88,14.88,6.66,14.88,14.88Z" fill="#f5f5ff" stroke-width="0"/><path d="m666.27,1094.26c0,5.48-4.44,9.92-9.92,9.92s-9.92-4.44-9.92-9.92,4.44-9.92,9.92-9.92,9.92,4.44,9.92,9.92Z" fill="#f5f5ff" stroke-width="0"/><circle cx="530.96" cy="1065.22" r="20.54" fill="#f5f5ff" stroke-width="0"/><path d="m703.11,913.62c0,4.3-3.49,7.79-7.79,7.79s-7.79-3.49-7.79-7.79,3.49-7.79,7.79-7.79,7.79,3.49,7.79,7.79Z" fill="#f5f5ff" stroke-width="0"/><path d="m361.65,923.54c0,8.22-6.66,14.88-14.88,14.88s-14.88-6.66-14.88-14.88,6.66-14.88,14.88-14.88,14.88,6.66,14.88,14.88Z" fill="#f5f5ff" stroke-width="0"/><circle cx="608.89" cy="1230.99" r="12.04" fill="#f5f5ff" stroke-width="0"/><circle cx="357.4" cy="1152.35" r="11.33" fill="#f5f5ff" stroke-width="0"/><path d="m643.6,989.42c0,5.48-4.44,9.92-9.92,9.92s-9.92-4.44-9.92-9.92,4.44-9.92,9.92-9.92,9.92,4.44,9.92,9.92Z" fill="#f5f5ff" stroke-width="0"/><circle cx="473.58" cy="993.67" r="11.33" fill="#f5f5ff" stroke-width="0"/><path d="m538.75,1250.12c0,3.13-2.54,5.67-5.67,5.67s-5.67-2.54-5.67-5.67,2.54-5.67,5.67-5.67,5.67,2.54,5.67,5.67Z" fill="#f5f5ff" stroke-width="0"/></svg>