<?xml version="1.0" encoding="UTF-8"?><svg id="Layer_1" xmlns="http://www.w3.org/2000/svg" viewBox="0 0 1035 1286"><circle cx="517.5" cy="684.39" r="394.99" fill="#3b4eff" stroke-width="0"/><path d="m817.75,1141.19c-59.41,26.81-113.64,35.07-121.14,18.45-7.5-16.61,34.59-51.81,93.99-78.62,59.41-26.81,113.64-35.07,121.14-18.46,7.5,16.61-34.59,51.81-93.99,78.62Z" fill="#2e2e2e" stroke-width="0"/><path d="m793.11,1287.26l-28.31-67.35-22.66-53.96-19.1-45.53-41.97-99.91c-22.1-52.57-1.19-111.14,45.53-127.52,8.16-2.86,16.52-4.18,24.82-4.18.77,0,1.53,0,2.3.07,36.32,1.05,71.6,27.75,85.97,68.81l34.09,97.33,15.27,43.65,65.96,188.6" fill="#f5f5ff" stroke="#2e2e2e" stroke-linecap="round" stroke-linejoin="round" stroke-width=".54"/><path d="m910.46,1060.55c-10.98-13.86-63.02-5.13-119.83,20.44-59.42,26.83-101.55,62.03-93.99,78.69.18.36.36.63.63.99l-.63.27-65.63-153.86c-25.75-60.41,2.07-129.28,60.59-149.72,11.07-3.87,22.33-5.76,33.58-5.76,40.06,0,78.51,23.77,98.22,62.3l87.06,146.66Z" fill="#2e2e2e" stroke-width="0"/><path d="m217.24,1141.19c59.41,26.81,113.64,35.07,121.14,18.45,7.5-16.61-34.59-51.81-93.99-78.62-59.41-26.81-113.64-35.07-121.14-18.46-7.5,16.61,34.58,51.81,93.99,78.62Z" fill="#2e2e2e" stroke-width="0"/><path d="m80,1287.26l65.96-188.53,15.27-43.72,34.09-97.33c14.64-41.9,51.11-68.88,88.2-68.88h.49c8.16.07,16.31,1.39,24.33,4.18,46.71,16.38,67.7,74.95,45.6,127.52l-41.97,99.91v.07l-19.1,45.46-20.36,48.46-30.61,72.86" fill="#f5f5ff" stroke="#2e2e2e" stroke-linecap="round" stroke-linejoin="round" stroke-width=".54"/><path d="m124.53,1060.55c10.98-13.86,63.02-5.13,119.83,20.44,59.42,26.83,101.55,62.03,93.99,78.69-.18.36-.36.63-.63.99l.63.27,65.63-153.86c25.75-60.41-2.07-129.28-60.59-149.72-11.07-3.87-22.33-5.76-33.58-5.76-40.06,0-78.51,23.77-98.22,62.3l-87.06,146.66Z" fill="#2e2e2e" stroke-width="0"/><path d="m622.59,544.76c-16.12,25.89-14.56,56.55,3.48,68.49,18.04,11.94,45.73.64,61.85-25.25,16.12-25.88,14.56-56.55-3.48-68.49-18.04-11.94-45.73-.64-61.85,25.25Z" fill="#f5f5ff" stroke="#2e2e2e" stroke-linecap="round" stroke-linejoin="round" stroke-width=".54"/><path d="m670.87,531.93c7.81,3.05,13.75,10.47,15.01,18.76,1.27,8.29-2.19,17.14-8.74,22.39" fill="none" stroke="#2e2e2e" stroke-linecap="round" stroke-linejoin="round" stroke-width=".54"/><path d="m405.01,544.76c16.12,25.89,14.56,56.55-3.48,68.49-18.04,11.94-45.73.64-61.85-25.25-16.12-25.88-14.56-56.55,3.48-68.49,18.04-11.94,45.73-.64,61.85,25.25Z" fill="#f5f5ff" stroke="#2e2e2e" stroke-linecap="round" stroke-linejoin="round" stroke-width=".54"/><path d="m356.73,531.93c-7.81,3.05-13.75,10.47-15.02,18.76-1.27,8.29,2.19,17.14,8.74,22.39" fill="none" stroke="#2e2e2e" stroke-linecap="round" stroke-linejoin="round" stroke-width=".54"/><path d="m593.77,834.86c1.46,43.77-33.58,79.97-77.35,79.97s-77.42-34.81-77.42-77.35c0-.87,0-1.75.07-2.62l8.59-115.37,2.18-29.21,4.3-57.32h124.47l6.85,90.6,4.88,65.91,3.42,45.37Z" fill="#f5f5ff" stroke="#2e2e2e" stroke-linecap="round" stroke-linejoin="round" stroke-width=".56"/><path d="m590.35,789.48c-40.86,2.91-85.87-17.41-116.75-56.88-10.42-13.26-18.35-27.6-23.74-42.32l4.3-57.32h124.47l6.85,90.6,4.88,65.91Z" fill="#2e2e2e" stroke-width="0"/><path d="m650.11,615.94c-4.81,12.48-11.85,25.45-20.29,38.07-16.25,24.19-37.72,46.92-59.19,61.35-23.57,15.83-54.45,20.99-81.29,11.78-21.13-7.18-38.56-22.31-54.1-38.28-19.45-19.94-37.23-42.25-47.2-68.33-7.67-20.22-11.02-42.74-11.92-65.75-.42-12.06-.21-24.19.35-36.32.98-19.94,2.86-39.67,4.6-57.94,3.97-43.23,30.19-84.29,67.56-106.32,36.67-21.54,83.46-24.75,122.71-8.37s69.93,51.94,80.32,93.15c6.97,27.68,5.16,56.33,5.23,84.5,0,1.74,0,3.42.07,5.16.14,8.44.56,16.87.7,25.38.63,21.06.21,42.04-7.53,61.91Z" fill="#f5f5ff" stroke="#2e2e2e" stroke-linecap="round" stroke-linejoin="round" stroke-width=".54"/><path d="m495.1,477.08c11.99.56,24.35-1.14,34.82-6.93,10.47-5.78,18.79-16.06,20.22-27.85,7.91,15.58,22.87,27.49,39.94,31.78,17.07,4.29,35.94.89,50.36-9.08,17.93-12.4,28.24-36.56,20.46-56.83-8.59-22.36-34.32-32.85-57.93-37.97-46-9.99-94.34-8.71-139.82,3.1-14.03,3.64-53.08,10.8-58.41,26.03-5.47,15.61,16.86,40.61,27.06,50.16,17.08,16,39.7,26.49,63.3,27.6Z" fill="#2e2e2e" stroke-width="0"/><path d="m552.56,493.08c6.07-3.65,12.7-6.14,19.69-8.02,7-1.8,14.43-2.83,22.1-2.55,7.63.25,15.57,2,22.53,5.66,6.97,3.61,12.72,9.23,15.76,15.99-7.04-2.32-13.37-3.54-19.42-3.73-6.05-.2-11.84.58-17.71,1.64-11.76,2.09-23.71,6.18-37.16,7.85-4.99.62-9.53-2.92-10.15-7.91-.46-3.68,1.39-7.14,4.37-8.94Z" fill="#2e2e2e" stroke-width="0"/><path d="m489.6,509.93c-13.45-1.67-25.4-5.76-37.16-7.85-5.87-1.06-11.66-1.83-17.71-1.64-6.05.19-12.39,1.41-19.42,3.73,3.04-6.75,8.79-12.38,15.76-15.99,6.96-3.66,14.9-5.42,22.53-5.66,7.67-.28,15.1.75,22.1,2.55,6.99,1.87,13.63,4.37,19.69,8.02,4.32,2.57,5.73,8.16,3.16,12.48-1.9,3.19-5.48,4.78-8.94,4.37Z" fill="#2e2e2e" stroke-width="0"/><path d="m489.49,554.22c-2.6-2.52-8.28-8.58-11.11-10.64,0,0-2.03-1.54-2.03-1.54-.74-.46-2.54-1.56-3.25-2-.71-.35-2.69-1.32-3.43-1.68,0,0-2.38-.9-2.38-.9-10.33-3.77-22.19-3.15-32.09,1.64-6.29,2.79-11.11,7.85-16.71,11.73-.2.16-.48-.16-.28-.34,2.48-2.38,5.11-4.59,7.75-6.79,11.01-9.36,26.8-12.39,40.47-7.67.78.29,2.83,1.13,3.64,1.44.74.4,2.76,1.39,3.48,1.77.73.44,2.55,1.64,3.29,2.1,1.13.91,3.01,2.26,4.02,3.29,1.38,1.14,7.59,7.88,8.95,9.29.18.19-.11.51-.31.3h0Z" fill="#2e2e2e" stroke-width="0"/><path d="m466.21,544.4c-.96-6.56-7.05-11.09-13.61-10.13-6.56.96-11.09,7.05-10.13,13.61.96,6.56,7.05,11.09,13.61,10.13,6.56-.96,11.09-7.05,10.13-13.61Z" fill="#2e2e2e" stroke-width="0"/><path d="m488.27,554.29c-5.57,3.5-12.18,5.48-19.16,5.74" fill="none" stroke="#2e2e2e" stroke-linecap="round" stroke-linejoin="round" stroke-width=".5"/><path d="m488.9,539.73c-7.3-8.68-18.24-14.2-29.56-14.92" fill="none" stroke="#2e2e2e" stroke-linecap="round" stroke-linejoin="round" stroke-width=".5"/><path d="m550.66,553.91c2.56-2.63,8.05-8.86,10.91-10.98,0,0,2.05-1.6,2.05-1.6.75-.48,2.57-1.64,3.29-2.1.72-.37,2.73-1.39,3.48-1.77.82-.31,2.85-1.14,3.64-1.44,13.66-4.72,29.46-1.69,40.47,7.67,2.64,2.19,5.26,4.4,7.75,6.79.18.17-.06.5-.28.34-5.6-3.87-10.42-8.94-16.71-11.73-9.54-4.65-20.82-5.29-30.9-2.09-.77.27-2.78,1.06-3.57,1.35-.73.38-2.71,1.32-3.43,1.68-.71.42-2.52,1.56-3.25,2-.64.49-2.42,1.83-3.05,2.31-.64.57-2.17,2-2.82,2.59,0,0-7.28,7.28-7.28,7.28-.18.19-.52-.1-.31-.3h0Z" fill="#2e2e2e" stroke-width="0"/><path d="m574.25,544.4c.96-6.56,7.05-11.09,13.61-10.13,6.56.96,11.09,7.05,10.13,13.61-.96,6.56-7.05,11.09-13.61,10.13-6.56-.96-11.09-7.05-10.13-13.61Z" fill="#2e2e2e" stroke-width="0"/><path d="m552.19,554.29c5.57,3.5,12.18,5.48,19.16,5.74" fill="none" stroke="#2e2e2e" stroke-linecap="round" stroke-linejoin="round" stroke-width=".5"/><path d="m551.56,539.73c7.3-8.68,18.24-14.2,29.56-14.92" fill="none" stroke="#2e2e2e" stroke-linecap="round" stroke-linejoin="round" stroke-width=".5"/><path d="m512.03,643.63c2.11,2.03,5.01,3.2,7.94,3.2,2.93,0,5.83-1.18,7.94-3.21,3.29-3.18,9.23-1.23,13.76-.57,4.53.66,9.16,1.57,13.64.6,3.2-.69,6.12-2.6,7.91-5.34" fill="none" stroke="#2e2e2e" stroke-linecap="round" stroke-linejoin="round" stroke-width=".45"/><path d="m512.03,643.63c-3.29-3.18-9.23-1.23-13.76-.57-4.53.66-9.16,1.57-13.64.6-3.59-.78-6.87-3.4-7.92-6.91" fill="none" stroke="#2e2e2e" stroke-linecap="round" stroke-linejoin="round" stroke-width=".45"/><path d="m498.99,656.56c11.63,4.04,24.45,4.58,36.37,1.53" fill="none" stroke="#2e2e2e" stroke-linecap="round" stroke-linejoin="round" stroke-width=".45"/><line x1="519.22" y1="696" x2="519.22" y2="717.58" fill="none" stroke="#2e2e2e" stroke-linecap="round" stroke-linejoin="round" stroke-width=".54"/><line x1="520.2" y1="599.19" x2="520.2" y2="553.19" fill="none" stroke="#2e2e2e" stroke-linecap="round" stroke-linejoin="round" stroke-width=".54"/><path d="m504.78,608.18l7.76,5.32h0c5.02,3.44,10.49,3.44,15.52,0h0l7.76-5.32" fill="none" stroke="#2e2e2e" stroke-linecap="round" stroke-linejoin="round" stroke-width=".57"/><path d="m656.88,523.49c-3.56-1.46-6.69-3.9-9.2-6.83-4.18-4.81-6.69-10.81-8.78-16.87-9.34-26.77-9.76-58.36-4.81-86.31-31.72.49-62.4-19.24-76.41-47.76-36.6,23.36-78.85,33.05-122.15,30.89-1.6,46.43-23.98,91.61-59.05,121.87.98-19.94,2.86-39.67,4.6-57.94,3.97-43.23,30.19-84.29,67.56-106.32,36.67-21.54,83.46-24.75,122.71-8.37s69.93,51.94,80.32,93.15c6.97,27.68,5.16,56.33,5.23,84.5Z" fill="#2e2e2e" stroke-width="0"/><path d="m365.92,412.53c9.8-56.51,63.48-125.84,128.2-134.48,64.72-8.63,135.22,44.14,163.44,95.58-94.98,29.87-191.29,47.12-291.64,38.9Z" fill="#f5f5ff" stroke="#2e2e2e" stroke-linecap="round" stroke-linejoin="round" stroke-width=".58"/><path d="m671.33,393.12c-41.3,31.37-96.81,45.5-151.45,52.1-54.63,6.59-110.16,6.57-164.62,14.2-7.01-8.94-9.96-17.27-8.4-27.98,1.56-10.71,7.77-20.9,17.14-28.16,101.73-6.16,202.33-22.44,297.38-54.3,4.71.06,19,29.37,9.93,44.14Z" fill="#f5f5ff" stroke="#2e2e2e" stroke-linecap="round" stroke-linejoin="round" stroke-width=".5"/><path d="m383.31,455.58c-5.22-13.42-3.68-29.28,4.04-41.43" fill="none" stroke="#2e2e2e" stroke-linecap="round" stroke-linejoin="round" stroke-width=".54"/><path d="m629.03,372.69c8.44,10.71,13.94,23.72,15.75,37.24" fill="none" stroke="#2e2e2e" stroke-linecap="round" stroke-linejoin="round" stroke-width=".54"/><path d="m573.55,390.98c7.91,12.69,12.78,27.26,14.08,42.16" fill="none" stroke="#2e2e2e" stroke-linecap="round" stroke-linejoin="round" stroke-width=".54"/><path d="m426.42,412.71c-3.32,13.48-.39,28.37,7.79,39.58" fill="none" stroke="#2e2e2e" stroke-linecap="round" stroke-linejoin="round" stroke-width=".54"/><path d="m500.82,406.6c4.7,12.74,7.14,26.31,7.16,39.89" fill="none" stroke="#2e2e2e" stroke-linecap="round" stroke-linejoin="round" stroke-width=".54"/><path d="m468.45,417.04c-1.3,12.08,3.31,24.65,12.11,33.03.2-.72.41-1.45.61-2.17" fill="none" stroke="#2e2e2e" stroke-linecap="round" stroke-linejoin="round" stroke-width=".54"/><path d="m545.18,408.64c2.74,9.79,3.19,20.22,1.32,30.21" fill="none" stroke="#2e2e2e" stroke-linecap="round" stroke-linejoin="round" stroke-width=".54"/><polygon points="767.1 1287.26 269.92 1287.26 272.5 1214.4 274.31 1161.83 276.61 1097.27 284 888.8 285.12 857.78 301.16 851.99 394.37 818.31 412.36 811.83 421.28 808.55 444.57 800.19 451.61 797.61 586.18 797.61 588.96 798.65 615.11 808.06 623.96 811.27 641.95 817.76 737.89 852.41 752.67 857.78 753.72 888.87 757.69 1006.28 760.69 1096.01 762.85 1160.92 762.85 1161.27 764.8 1219.91 767.1 1287.26" fill="#2e2e2e" stroke-width="0"/></svg>