<?xml version="1.0" encoding="utf-8"?>
<!-- Generator: Adobe Illustrator 28.0.0, SVG Export Plug-In . SVG Version: 6.00 Build 0)  -->
<svg version="1.1" id="Layer_1" xmlns="http://www.w3.org/2000/svg" xmlns:xlink="http://www.w3.org/1999/xlink" x="0px" y="0px"
	 viewBox="0 0 709 538" style="enable-background:new 0 0 709 538;" xml:space="preserve">
<style type="text/css">
	.st0{fill:#FAFAFA;}
	.st1{fill:#263238;}
	.st2{fill:#FFFFFF;stroke:#1A2E35;stroke-width:0.75;stroke-linecap:round;stroke-linejoin:round;stroke-miterlimit:10;}
	.st3{fill:#1A2E35;stroke:#1A2E35;stroke-width:0.75;stroke-linecap:round;stroke-linejoin:round;stroke-miterlimit:10;}
	.st4{fill:#1A2E35;}
	.st5{fill:#6366F1;stroke:#1A2E35;stroke-width:0.75;stroke-linecap:round;stroke-linejoin:round;stroke-miterlimit:10;}
	.st6{fill:#FFFFFF;}
	.st7{fill:none;stroke:#1A2E35;stroke-width:0.75;stroke-linecap:round;stroke-linejoin:round;stroke-miterlimit:10;}
	.st8{fill:none;stroke:#1A2E35;stroke-linecap:round;stroke-linejoin:round;stroke-miterlimit:10;}
	.st9{fill:#6366F1;}
	.st10{fill:#1A2E35;stroke:#1A2E35;stroke-linecap:round;stroke-linejoin:round;stroke-miterlimit:10;}
	.st11{fill:#FFFFFF;stroke:#1A2E35;stroke-linecap:round;stroke-linejoin:round;stroke-miterlimit:10;}
	.st12{clip-path:url(#SVGID_00000038392682877869856690000000999736697588493199_);}
	.st13{opacity:0.22;clip-path:url(#XMLID_00000068645849101360496390000003352101802987761335_);fill:#6366F1;}
	.st14{opacity:0.22;clip-path:url(#XMLID_00000111166372744162313510000017365120758602611355_);fill:#6366F1;}
	.st15{opacity:0.22;clip-path:url(#XMLID_00000139252093126859427050000003429686800612973709_);fill:#6366F1;}
	.st16{clip-path:url(#XMLID_00000139252093126859427050000003429686800612973709_);fill:#1A2E35;}
	.st17{fill:none;stroke:#FFFFFF;stroke-linecap:round;stroke-miterlimit:10;}
	.st18{opacity:0.22;clip-path:url(#XMLID_00000013162203766269157750000014524338572149507994_);fill:#6366F1;}
	.st19{opacity:0.22;clip-path:url(#XMLID_00000096031758845139739830000002714959662956602775_);fill:#6366F1;}
</style>
<g id="Group_1406" transform="translate(85.188)">
	<g id="Group_1404">
		<g id="Group_1401" transform="translate(.292 .165)">
			<circle id="Ellipse_167" class="st0" cx="91.8" cy="51.6" r="34.9"/>
		</g>
		<g id="Group_1403">
			<g id="Group_1402">
				<path id="Path_839" class="st1" d="M127,51.8v-0.6c0-0.5,0-1.1-0.1-1.6c0-0.4,0-0.8-0.1-1.2c0-0.5-0.1-1-0.3-1.5
					c-0.1-1.2-0.4-2.5-0.7-3.7c-0.8-3.3-2.1-6.4-3.9-9.2c-2.3-3.8-5.2-7.1-8.8-9.8c-9.4-7.1-21.7-8.9-32.7-5c-1.6,0.5-3.1,1.2-4.5,2
					C74.4,22,73,22.9,71.7,24c-1.4,1-2.7,2.2-3.9,3.4c-1.2,1.2-2.3,2.6-3.4,3.9c-2.1,2.9-3.8,6.1-5,9.5c-1.2,3.5-1.8,7.1-1.8,10.8
					s0.6,7.3,1.8,10.8c1.1,3.4,2.8,6.6,5,9.5c1,1.4,2.1,2.7,3.4,3.9c1.2,1.2,2.6,2.3,3.9,3.4c1.4,1,2.8,1.9,4.2,2.8
					c1.5,0.8,3,1.5,4.5,2c5.8,2.1,12.1,2.6,18.1,1.5c5.3-1,10.3-3.2,14.6-6.4c3.6-2.6,6.6-6,8.8-9.8c1.7-2.9,3.1-6,3.9-9.2
					c0.4-1.2,0.6-2.4,0.7-3.7c0.1-0.6,0.1-1,0.3-1.5c0-0.4,0-0.8,0.1-1.2c0-0.7,0.1-1.3,0.1-1.6C126.9,51.9,127,51.8,127,51.8v3.4
					c0,0.4-0.1,0.9-0.1,1.5c-0.1,1.2-0.4,2.5-0.7,3.7c-0.7,3.3-2,6.5-3.8,9.4c-2.3,3.9-5.3,7.3-8.9,10.1c-4.3,3.4-9.4,5.6-14.8,6.6
					c-6.2,1.2-12.6,0.7-18.6-1.5c-1.6-0.5-3.1-1.2-4.5-2c-1.5-0.8-3-1.7-4.4-2.8c-1.4-1-2.7-2.2-3.9-3.4c-1.2-1.3-2.4-2.7-3.5-4.1
					c-2.2-3-3.9-6.2-5.1-9.6c-1.2-3.8-1.8-7.5-1.8-11.3c0.1-3.8,0.7-7.5,1.8-11.1c1.1-3.5,2.9-6.7,5.1-9.6c1.1-1.4,2.3-2.8,3.5-4.1
					c1.3-1.2,2.6-2.3,3.9-3.4c1.4-1,2.9-1.9,4.4-2.8c1.5-0.7,3.1-1.5,4.5-2C96,13,113.8,19.4,122.3,34c1.8,2.9,3.1,6,3.8,9.4
					c0.4,1.2,0.6,2.4,0.7,3.7c0,0.6,0.1,1,0.1,1.5L127,51.8z"/>
			</g>
		</g>
	</g>
	<g id="Group_1405" transform="translate(12.859 20.184)">
		<path id="Path_840" class="st1" d="M56.9,34.2c0-1.5,1.2-2.6,2.6-2.6c1.5,0,2.6,1.2,2.6,2.6c0,1.4-1.2,2.6-2.6,2.6
			c-1.4,0.1-2.6-1-2.6-2.4V34.2z"/>
		<path id="Path_841" class="st1" d="M79.5,16.7v20h-4.1v-1.6c-1.1,1.3-2.8,2-4.5,1.9c-4.1-0.1-7.3-3.6-7.2-7.7
			c0.2-3.9,3.3-7.1,7.2-7.2c1.6-0.1,3.2,0.6,4.4,1.8v-7h4.2C79.5,16.9,79.5,16.7,79.5,16.7z M75.5,29.4c0-2.5-1.6-4.1-3.7-4.1
			c-2.1,0-3.7,1.5-3.7,4.1c0,2.5,1.6,4.1,3.7,4.1C73.9,33.5,75.5,31.9,75.5,29.4z"/>
		<path id="Path_842" class="st1" d="M97.7,30.6h-11c0.5,1.8,2.2,3.1,4.1,2.9c1.4,0.1,2.7-0.5,3.7-1.5l2.2,2.5
			c-1.3,1.6-3.4,2.3-6,2.3c-5,0-8.3-3.2-8.3-7.4c0-4.4,3.4-7.5,7.7-7.5c4-0.2,7.4,2.9,7.6,7V30.6z M86.6,28.2h7.2
			c-0.2-1.8-1.7-3.1-3.5-3.1C88.4,25,86.7,26.4,86.6,28.2z"/>
	</g>
</g>
<g id="Group_1412" transform="translate(0 184.276)">
	<g id="Group_1410">
		<g id="Group_1407" transform="translate(.438 .292)">
			<circle id="Ellipse_168" class="st0" cx="284.4" cy="-107.9" r="24.6"/>
		</g>
		<g id="Group_1409">
			<g id="Group_1408">
				<path id="Path_843" class="st1" d="M309.5-107.6c0-0.1-0.1-0.3-0.1-0.4c0-0.3-0.1-0.7-0.1-1.2c0-0.3,0-0.6-0.1-0.9
					c0-0.3-0.1-0.7-0.2-1c-0.1-0.9-0.3-1.7-0.5-2.6c-1.4-5.4-4.5-10.1-8.9-13.4c-3-2.3-6.6-3.9-10.3-4.6c-1-0.2-2.1-0.3-3.1-0.4
					c-0.5,0-1.1-0.1-1.6-0.1c-0.6,0-1.1,0.1-1.6,0.1c-0.3,0-0.6,0-0.9,0.1l-0.9,0.2l-1.6,0.2c-1.1,0.3-2.2,0.5-3.2,1
					s-2.1,0.9-3.2,1.4c-0.5,0.3-1,0.6-1.5,1c-0.5,0.3-1,0.6-1.5,1c-1,0.7-1.9,1.5-2.8,2.3c-0.9,0.9-1.6,1.8-2.4,2.8
					c-1.5,2-2.7,4.3-3.5,6.7c-0.8,2.5-1.2,5.1-1.2,7.7s0.4,5.2,1.2,7.7c0.8,2.4,2,4.7,3.5,6.7c0.7,1,1.5,1.9,2.4,2.8
					c0.9,0.9,1.8,1.6,2.8,2.3c0.5,0.4,1,0.7,1.5,1c0.5,0.3,1,0.6,1.5,1c1,0.6,2.1,1,3.2,1.4c1.1,0.4,2.1,0.7,3.2,1l1.6,0.2l0.8,0.2
					c0.3,0,0.6,0,0.9,0.1c0.5,0,1.1,0.1,1.6,0.1s1.1-0.1,1.6-0.1c1.1-0.1,2.1-0.2,3.1-0.4c6.9-1.3,12.9-5.5,16.5-11.5
					c1.2-2,2.2-4.2,2.7-6.5c0.3-0.9,0.4-1.7,0.5-2.6c0.1-0.3,0.2-0.7,0.2-1c0-0.3,0-0.6,0.1-0.9c0-0.5,0.1-0.9,0.1-1.2
					C309.4-107.5,309.5-107.5,309.5-107.6v0.4c0,0.4,0,0.8-0.1,1.2v0.9c0,0.3-0.1,0.7-0.2,1c-0.1,0.9-0.3,1.7-0.5,2.6
					c-0.5,2.3-1.5,4.6-2.7,6.6c-1.6,2.8-3.7,5.2-6.3,7.1c-3.1,2.4-6.6,4-10.5,4.7c-1,0.2-2.1,0.3-3.1,0.4c-0.5,0-1.1,0.1-1.6,0.1
					S283.6-83,283-83c-0.3,0-0.6,0-0.9-0.1l-0.9-0.2l-1.6-0.2c-1.1-0.3-2.2-0.5-3.3-1c-1.1-0.4-2.2-1-3.2-1.4c-0.5-0.3-1-0.6-1.5-1
					c-0.5-0.3-1-0.6-1.5-1c-1-0.7-1.9-1.5-2.8-2.4c-0.9-0.9-1.6-1.9-2.4-2.9c-1.6-2.1-2.8-4.4-3.6-6.8c-0.8-2.6-1.2-5.2-1.2-7.9
					c0.1-5.3,1.8-10.4,4.9-14.7c0.7-1,1.6-2,2.4-2.9c0.9-0.9,1.8-1.6,2.8-2.4c0.5-0.4,1-0.7,1.5-1c0.5-0.3,1-0.6,1.5-1
					c1-0.6,2.1-1.1,3.2-1.4c1.1-0.4,2.2-0.7,3.3-1l1.6-0.2l0.9-0.2c0.3,0,0.6,0,0.9-0.1c0.5,0,1.1-0.1,1.6-0.1
					c0.6,0,1.1,0.1,1.6,0.1c1.1,0.1,2.1,0.2,3.1,0.4c3.8,0.7,7.3,2.3,10.4,4.6c2.5,2,4.6,4.4,6.3,7.1c1.2,2.1,2.1,4.3,2.7,6.6
					c0.3,0.9,0.4,1.7,0.5,2.6c0.1,0.4,0.1,0.7,0.2,1v0.9c0,0.4,0,0.8,0.1,1.2C309.5-107.9,309.5-107.7,309.5-107.6z"/>
			</g>
		</g>
	</g>
	<g id="Group_1411" transform="translate(11.105 37.114)">
		<path id="Path_844" class="st1" d="M254.8-141.5c0-1,0.7-1.7,1.7-1.8c1,0,1.7,0.7,1.8,1.7v0.1c0.1,1-0.7,1.8-1.6,1.8
			c-1,0.1-1.8-0.7-1.8-1.6C254.8-141.4,254.8-141.5,254.8-141.5z"/>
		<path id="Path_845" class="st1" d="M259.4-144.7c0-3,2.2-5,5.4-5s5.3,2.1,5.3,5c0,2.9-2.2,4.9-5.3,4.9
			C261.6-139.8,259.4-141.9,259.4-144.7z M267.1-144.7c0-1.7-1.1-2.7-2.5-2.7c-1.3,0-2.4,1.1-2.5,2.4v0.2c0,1.7,1.1,2.7,2.5,2.7
			c1.3,0,2.4-1.1,2.5-2.4V-144.7z"/>
		<path id="Path_846" class="st1" d="M277.9-149.8v2.6h-0.6c-1.5,0-2.6,0.9-2.6,2.7v4.6h-2.9v-9.7h2.7v1.2
			C275.3-149.3,276.6-149.8,277.9-149.8z"/>
		<path id="Path_847" class="st1" d="M289.4-149.6v8.1c0,3.6-2,5.3-5.4,5.3c-1.9,0-3.7-0.5-4.7-1.3l1.1-2c1,0.7,2.2,1.1,3.4,1.1
			c2,0,2.9-1,2.9-2.7v-0.4c-0.8,0.8-1.9,1.3-3,1.2c-2.7,0-4.8-1.9-4.8-4.7c0-2.8,2.2-4.7,4.8-4.7c1.2-0.1,2.4,0.5,3.2,1.4v-1.1h2.7
			V-149.6z M286.7-145c0-1.3-1.1-2.4-2.4-2.4h-0.2c-1.5,0-2.6,1-2.6,2.4c0,1.4,1.1,2.4,2.6,2.4C285.6-142.7,286.7-143.7,286.7-145z"
			/>
	</g>
</g>
<g id="Group_1418" transform="translate(298.669 206.048)">
	<g id="Group_1416">
		<g id="Group_1413" transform="translate(.438 .292)">
			<circle id="Ellipse_169" class="st0" cx="297.7" cy="-131.3" r="31.3"/>
		</g>
		<g id="Group_1415">
			<g id="Group_1414">
				<path id="Path_848" class="st1" d="M329.5-131c0-0.1-0.1-0.3-0.1-0.5c0-0.4-0.1-0.9-0.1-1.5c0-0.3,0-0.7-0.1-1.1
					c0-0.4-0.1-0.9-0.2-1.3c-0.1-1.1-0.4-2.2-0.7-3.2c-1.8-6.8-5.8-12.9-11.4-17.1c-3.9-3-8.4-4.9-13.1-5.8
					c-1.3-0.3-2.6-0.4-3.9-0.5c-0.7,0-1.4-0.1-2.1-0.1c-0.7,0-1.4,0.1-2.1,0.1c-0.3,0-0.7,0-1.1,0.1l-1.2,0.2l-2,0.3
					c-1.4,0.4-2.8,0.7-4.1,1.2c-1.4,0.5-2.7,1.1-4.1,1.8c-0.7,0.4-1.3,0.8-2,1.2c-0.7,0.3-1.3,0.8-1.9,1.3c-1.3,0.9-2.4,2-3.6,3
					c-1.1,1.1-2.1,2.3-3,3.6c-2,2.5-3.5,5.4-4.5,8.5c-1,3.2-1.6,6.5-1.6,9.8s0.5,6.6,1.6,9.8c1,3.1,2.5,6,4.5,8.6
					c0.9,1.3,2,2.4,3,3.6c1.1,1.1,2.3,2.1,3.6,3c0.6,0.5,1.2,0.9,1.9,1.3c0.7,0.4,1.3,0.8,2,1.2c1.3,0.7,2.6,1.3,4.1,1.8
					c1.4,0.5,2.7,0.9,4.1,1.2l2.1,0.3l1,0.2c0.3,0,0.7,0,1.1,0.1c0.7,0,1.4,0.1,2.1,0.1c0.7,0,1.4-0.1,2.1-0.1
					c1.4-0.1,2.6-0.2,3.9-0.5c8.8-1.6,16.4-7,21-14.6c1.6-2.6,2.8-5.3,3.5-8.3c0.3-1.1,0.5-2.2,0.7-3.2c0.1-0.4,0.2-0.9,0.2-1.3
					c0-0.3,0-0.7,0.1-1.1c0-0.6,0.1-1.1,0.1-1.5C329.4-130.8,329.5-130.8,329.5-131v0.5c0,0.5,0,1-0.1,1.5v1.1
					c0,0.4-0.1,0.9-0.2,1.3c-0.1,1.1-0.3,2.2-0.6,3.2c-0.7,3-1.9,5.8-3.5,8.4c-2,3.5-4.7,6.6-8,9c-3.9,3-8.5,5.1-13.3,6
					c-1.3,0.3-2.6,0.4-3.9,0.5c-0.7,0-1.4,0.1-2.1,0.1c-0.7,0-1.4-0.1-2.1-0.1c-0.3,0-0.7,0-1.1-0.1l-1.1-0.2l-2-0.3
					c-1.4-0.4-2.8-0.7-4.3-1.2c-1.4-0.5-2.8-1.2-4.1-1.8c-0.7-0.4-1.3-0.8-2-1.2c-0.7-0.3-1.3-0.8-1.9-1.3c-1.3-0.9-2.4-2-3.6-3
					c-1.1-1.2-2.1-2.4-3-3.7c-2-2.6-3.5-5.5-4.6-8.7c-1-3.2-1.6-6.6-1.6-10c0.1-6.7,2.2-13.3,6.2-18.7c0.9-1.3,2.1-2.5,3-3.7
					c1.1-1.1,2.3-2.1,3.6-3c0.6-0.5,1.2-0.9,1.9-1.3c0.7-0.4,1.3-0.8,2-1.2c1.3-0.7,2.7-1.4,4.1-1.8c1.4-0.5,2.8-0.9,4.3-1.2
					l2.1-0.3l1.1-0.2c0.3,0,0.7,0,1.1-0.1c0.7,0,1.4-0.1,2.1-0.1c0.7,0,1.4,0.1,2.1,0.1c1.4,0.1,2.6,0.2,3.9,0.5
					c4.8,0.9,9.3,3,13.3,5.9c3.2,2.5,5.9,5.5,8,9c1.6,2.6,2.7,5.5,3.5,8.4c0.3,1.1,0.5,2.2,0.6,3.2c0.1,0.5,0.1,0.9,0.2,1.3v1.1
					c0,0.5,0,1,0.1,1.5C329.6-131.3,329.6-131.1,329.5-131z"/>
			</g>
		</g>
	</g>
	<g id="Group_1417" transform="translate(20.019 35.361)">
		<path id="Path_849" class="st1" d="M260-162.8c0-1,0.8-1.9,1.9-1.9s1.9,0.8,1.9,1.9s-0.8,2-1.9,2c-1,0-1.9-0.8-1.9-1.8
			C260-162.6,260-162.8,260-162.8z"/>
		<path id="Path_850" class="st1" d="M276.8-167.1v6.2h-3v-5.6c0-1.7-0.8-2.6-2.2-2.6c-1.5,0-2.6,0.9-2.6,2.8v5.2h-3v-10.7h3v1.3
			c0.9-0.9,2.2-1.4,3.6-1.4C275-171.8,276.8-170.3,276.8-167.1z"/>
		<path id="Path_851" class="st1" d="M290.2-165.4h-8.1c0.3,1.3,1.4,2.2,3,2.2c1,0.1,2-0.3,2.6-1l1.7,1.8c-1.2,1.2-2.8,1.8-4.5,1.7
			c-3.7,0-6.2-2.3-6.2-5.5c0-3,2.4-5.5,5.5-5.5h0.3c3.2,0,5.5,2.1,5.5,5.5C290.3-166,290.2-165.7,290.2-165.4z M282.1-167.2h5.2
			c-0.1-1.4-1.4-2.3-2.6-2.2C283.4-169.5,282.2-168.5,282.1-167.2z"/>
		<path id="Path_852" class="st1" d="M299.2-161.5c-0.7,0.5-1.7,0.7-2.6,0.7c-2.5,0-3.9-1.3-3.9-3.9v-4.3h-1.6v-2.4h1.7v-2.6h3v2.6
			h2.6v2.4h-2.6v4.3c-0.1,0.7,0.4,1.3,1.1,1.4h0.2c0.5,0,0.9-0.1,1.3-0.4C298.4-163.7,299.2-161.5,299.2-161.5z"/>
	</g>
</g>
<g id="Group_1424" transform="translate(251.838 13.08)">
	<g id="Group_1422">
		<g id="Group_1419">
			<circle id="Ellipse_170" class="st0" cx="391.3" cy="176.4" r="45.6"/>
		</g>
		<g id="Group_1421" transform="translate(8.84 8.858)">
			<g id="Group_1420">
				<path id="Path_853" class="st1" d="M428.1,167.6c0-0.2-0.1-0.5-0.1-0.7c0-0.6-0.1-1.2-0.1-2.2c0-0.5,0-1.1-0.1-1.6
					c0-0.6-0.1-1.3-0.3-1.9c-0.2-1.6-0.6-3.1-1-4.7c-1.1-4.3-2.8-8.4-5.1-12.1c-3-5-6.9-9.3-11.5-12.9c-5.6-4.3-12.2-7.2-19.1-8.5
					c-2.2-0.3-4.1-0.6-6-0.7c-1,0-1.9-0.1-2.9-0.1s-2,0.1-3.1,0.1c-0.5,0-1,0-1.5,0.1l-1.4,0.3l-3.1,0.4c-2,0.6-4.1,1-6,1.8
					c-2,0.7-4,1.5-5.8,2.6c-1,0.6-1.9,1.2-2.8,1.8c-1,0.5-1.9,1.2-2.8,1.9c-1.8,1.3-3.5,2.8-5.1,4.4c-1.5,1.8-3.1,3.4-4.4,5.3
					c-2.8,3.8-5,8-6.4,12.4c-3.1,9.3-3.1,19.3,0,28.6c1.5,4.4,3.7,8.6,6.4,12.4c1.3,1.9,2.9,3.5,4.4,5.3c1.8,1.5,3.4,3.1,5.1,4.4
					c0.9,0.7,1.8,1.4,2.8,1.9c0.9,0.6,1.9,1.2,2.8,1.8c1.9,0.9,3.9,1.9,5.8,2.6c2,0.7,4,1.3,6,1.8l3.1,0.4l1.5,0.3
					c0.5,0,1,0,1.5,0.1c1,0,2,0.1,3.1,0.1c1.1,0,2-0.1,2.9-0.1c1.9-0.1,3.8-0.3,5.7-0.7c7-1.3,13.5-4.2,19.1-8.5
					c4.6-3.5,8.5-7.9,11.5-12.9c2.3-3.8,4-7.9,5.1-12.1c0.4-1.5,0.8-3.1,1-4.7c0.2-0.6,0.3-1.3,0.3-1.9c0-0.5,0-1.1,0.1-1.6
					c0-0.9,0.1-1.6,0.1-2.2C428,168.1,428.1,167.8,428.1,167.6l0,4.5c0,0.6-0.1,1.3-0.3,1.9c-0.2,1.6-0.5,3.1-0.9,4.7
					c-1,4.3-2.7,8.5-5,12.3c-3,5-6.9,9.4-11.5,13c-5.6,4.4-12.3,7.4-19.3,8.6c-1.9,0.4-3.9,0.6-5.8,0.7c-1,0-2,0.1-2.9,0.1
					c-1,0-2-0.1-3.1-0.1c-0.5,0-1.1,0-1.6-0.1l-1.5-0.3l-3.1-0.4c-2-0.6-4.1-1-6.1-1.8c-2.1-0.7-4.1-1.6-6-2.6
					c-1-0.6-1.9-1.2-2.9-1.8c-1-0.5-1.9-1.2-2.8-1.9c-1.9-1.3-3.5-2.9-5.3-4.4c-1.6-1.6-3.1-3.4-4.5-5.3c-2.9-3.8-5.1-8.1-6.6-12.7
					c-1.5-4.6-2.3-9.5-2.3-14.4c0-4.9,0.8-9.8,2.3-14.5c1.5-4.6,3.7-8.9,6.6-12.7c1.4-1.9,2.9-3.6,4.5-5.3c1.6-1.6,3.4-3.1,5.3-4.4
					c0.9-0.7,1.8-1.4,2.8-1.9c1-0.6,1.9-1.2,2.9-1.8c1.9-1,3.9-1.9,6-2.6c2-0.7,4.1-1.3,6.1-1.8l3.1-0.4l1.5-0.3
					c0.5,0,1.1,0,1.6-0.1c1,0,2-0.1,3.1-0.1c1.1,0,2,0.1,2.9,0.1c2,0.1,3.9,0.3,5.8,0.7c7,1.3,13.7,4.2,19.3,8.6
					c4.6,3.6,8.5,8,11.5,13c2.3,3.8,4,7.9,5,12.3c0.4,1.5,0.7,3.1,0.9,4.7c0.1,0.7,0.1,1.3,0.3,1.9V167.6z"/>
			</g>
		</g>
	</g>
	<g id="Group_1423" transform="translate(14.1 47.579)">
		<path id="Path_854" class="st1" d="M336.6,135.6c0-1.6,1.3-2.9,2.9-2.9c1.6,0,2.9,1.3,2.9,2.9c0,1.6-1.3,2.9-2.9,2.9
			c-1.5,0-2.9-1.2-2.9-2.8V135.6z"/>
		<path id="Path_855" class="st1" d="M344.3,130.2c0-5,3.8-8.3,9.1-8.3c3.4,0,6.1,1.5,7.3,4.1l-3.7,1.9c-0.7-1.4-2.1-2.2-3.7-2.2
			c-2.3,0-4.2,1.6-4.2,4.5c0,2.9,1.9,4.5,4.2,4.5c1.5,0,2.9-0.8,3.7-2.2l3.7,2c-1.2,2.6-3.9,4.1-7.3,4.1
			C348.1,138.5,344.3,135,344.3,130.2z"/>
		<path id="Path_856" class="st1" d="M362,130.2c0-5,3.8-8.3,8.9-8.3s8.9,3.5,8.9,8.3c0,5-3.8,8.3-8.9,8.3S362,135,362,130.2z
			 M375.2,130.2c0-2.8-1.8-4.5-4.1-4.5c-2.3,0-4.2,1.9-4.2,4.2v0.3c0,2.8,1.8,4.5,4.2,4.5c2.3-0.1,4.2-2,4.1-4.3V130.2z"/>
		<path id="Path_857" class="st1" d="M410.7,129v9.4H406v-8.7c0-2.6-1.2-3.8-3.1-3.8c-2.2,0-3.7,1.3-3.7,4.2v8.2h-4.6v-8.6
			c0-2.6-1.2-3.8-3.1-3.8c-2,0-3.5,1.3-3.5,4.2v8.2h-4.7V122h4.5v1.9c1.3-1.5,3.2-2.3,5.1-2.2c2.1-0.1,4.2,0.9,5.4,2.6
			c1.4-1.7,3.6-2.7,5.8-2.6C407.9,121.7,410.7,124,410.7,129z"/>
	</g>
</g>
<g>
	<g>
		<polyline id="XMLID_203_" class="st2" points="364.4,542.5 288.1,371.7 473,371.7 700.9,522 		"/>
		<polygon id="XMLID_1_" class="st3" points="345.5,535.7 288.1,383.1 288.1,371.7 369.3,550.4 		"/>
		<g id="XMLID_188_">
			<polygon id="XMLID_186_" class="st2" points="393.8,378.7 472.4,470.9 377,493.1 322.8,390.1 			"/>
			<polygon id="XMLID_187_" class="st3" points="377,493.1 377,495.8 470.8,476.9 472.4,470.9 			"/>
			<g id="XMLID_189_">
				<polygon id="XMLID_190_" class="st4" points="390.9,411.9 394.9,417.8 405.1,415.1 400.8,409.3 				"/>
				<polygon id="XMLID_191_" class="st4" points="429.6,448.2 424.7,441.6 413.1,444.8 417.6,451.5 				"/>
				<polygon id="XMLID_192_" class="st4" points="382.5,399.5 385.5,403.9 395.1,401.5 392.1,397.4 				"/>
				<polygon id="XMLID_193_" class="st4" points="401,426.9 406.5,435.1 417.8,432.2 411.7,424 				"/>
				<polygon id="XMLID_245_" class="st4" points="430.2,430.8 420.5,433.2 425.4,439.8 435.2,437.1 				"/>
				<polygon id="XMLID_246_" class="st4" points="407.5,436.5 412.1,443.4 423.7,440.2 418.8,433.7 				"/>
				<polygon id="XMLID_247_" class="st4" points="371.6,401.9 374.6,406.7 383.8,404.4 380.8,399.9 				"/>
				<polygon id="XMLID_248_" class="st4" points="395.8,419.3 400.1,425.5 410.7,422.6 406.2,416.5 				"/>
				<polygon id="XMLID_249_" class="st4" points="386.5,405.4 389.9,410.5 399.8,407.9 396.2,402.9 				"/>
				<polygon id="XMLID_250_" class="st4" points="365.6,416.9 362.6,411.4 351.7,414.2 354.7,419.8 				"/>
				<polygon id="XMLID_251_" class="st4" points="349.9,430 357.4,428 353.9,421.7 346.5,423.6 				"/>
				<polygon id="XMLID_252_" class="st4" points="368.3,396.7 370.7,400.5 379.8,398.5 377.4,394.8 				"/>
				<polygon id="XMLID_253_" class="st4" points="361.8,410 358.9,404.7 347.8,407.2 350.9,412.8 				"/>
				<polygon id="XMLID_254_" class="st4" points="357.5,398.9 359.8,402.9 369,400.8 366.6,397 				"/>
				<polygon id="XMLID_255_" class="st4" points="342,415 349.2,413.2 346.1,407.6 338.9,409.2 				"/>
				<polygon id="XMLID_256_" class="st4" points="344.6,401.5 347,405.7 358.1,403.3 355.9,399.2 				"/>
				<polygon id="XMLID_257_" class="st4" points="379.6,414.9 383.4,420.9 393.2,418.3 389.2,412.3 				"/>
				<polygon id="XMLID_258_" class="st4" points="404.9,435.5 399.4,427.4 389.1,430.2 394.1,438.3 				"/>
				<polygon id="XMLID_259_" class="st4" points="360.6,404.4 363.4,409.6 372.9,407.1 369.9,402.3 				"/>
				<polygon id="XMLID_260_" class="st4" points="362.7,437.5 355,439.6 359,447.2 367,445.2 				"/>
				<polygon id="XMLID_261_" class="st4" points="384.3,422.4 388.2,428.8 398.4,426 394.2,419.7 				"/>
				<polygon id="XMLID_262_" class="st4" points="377.1,413.9 373.8,408.6 364.3,411 367.3,416.5 				"/>
				<polygon id="XMLID_263_" class="st4" points="395,469.9 384.1,472.7 388,479.8 399,477 				"/>
				<polygon id="XMLID_264_" class="st4" points="378.1,393 387.5,391.1 382.4,384.3 373.2,385.8 				"/>
				<polygon id="XMLID_265_" class="st4" points="355,397.7 350.5,389.6 339,391.4 343.8,400 				"/>
				<polygon id="XMLID_266_" class="st4" points="369.9,424.6 366.5,418.3 355.5,421.2 359,427.5 				"/>
				<polygon id="XMLID_267_" class="st4" points="397.8,447.2 393.4,440.1 382,443 386.1,450.4 				"/>
				<polygon id="XMLID_268_" class="st4" points="392.5,438.7 387.5,430.7 376.8,433.6 381.2,441.6 				"/>
				<polygon id="XMLID_269_" class="st4" points="410.5,443.8 405.8,437 395,439.7 399.4,446.8 				"/>
				<polygon id="XMLID_270_" class="st4" points="381.7,421.4 378,415.3 368.1,417.9 371.5,424.1 				"/>
				<polygon id="XMLID_271_" class="st4" points="375.5,408.2 378.7,413.4 388.2,410.9 384.8,405.8 				"/>
				<polygon id="XMLID_272_" class="st4" points="386.6,429.2 382.6,422.8 372.3,425.6 376,432.2 				"/>
				<polygon id="XMLID_273_" class="st4" points="416,452 411.4,445.2 400.3,448.2 404.5,455.1 				"/>
				<polygon id="XMLID_274_" class="st4" points="408.6,464.8 403.8,457 391.6,460.3 395.8,468 				"/>
				<polygon id="XMLID_275_" class="st4" points="372,454.2 367.8,446.6 359.8,448.7 363.9,456.4 				"/>
				<polygon id="XMLID_276_" class="st4" points="358.2,429.4 350.7,431.5 354.2,438.2 361.9,436 				"/>
				<polygon id="XMLID_277_" class="st4" points="394.2,468.5 389.9,460.8 379.1,463.7 383.3,471.2 				"/>
				<polygon id="XMLID_278_" class="st4" points="374.4,432.6 370.7,426 359.8,429 363.5,435.6 				"/>
				<polygon id="XMLID_279_" class="st4" points="379.1,394.5 381.5,398.1 391,396 388.5,392.6 				"/>
				<polygon id="XMLID_280_" class="st4" points="338.1,407.7 345.3,406.1 343,401.9 335.8,403.3 				"/>
				<polygon id="XMLID_281_" class="st4" points="367.4,395.2 376.4,393.4 371.5,386.1 362.7,387.5 				"/>
				<polygon id="XMLID_282_" class="st4" points="356.7,397.4 365.7,395.6 361,387.8 352.2,389.3 				"/>
				<polygon id="XMLID_283_" class="st4" points="353.1,420.2 350,414.6 342.7,416.5 345.7,422.1 				"/>
				<polygon id="XMLID_284_" class="st4" points="389.2,390.8 397.3,389.1 392.2,382.7 384.2,384 				"/>
				<polygon id="XMLID_285_" class="st4" points="342.1,400.4 337.3,391.7 330.3,392.9 335,401.8 				"/>
				<polygon id="XMLID_286_" class="st4" points="382.5,473.1 373.9,475.3 377.6,482.3 386.4,480.2 				"/>
				<polygon id="XMLID_287_" class="st4" points="423.3,462.7 411.2,465.8 415.6,472.9 428.1,469.8 				"/>
				<polygon id="XMLID_288_" class="st4" points="409.5,466.2 396.7,469.5 400.6,476.6 413.9,473.3 				"/>
				<polygon id="XMLID_289_" class="st4" points="437.6,459.1 424.9,462.3 429.8,469.4 442.8,466.2 				"/>
				<polygon id="XMLID_290_" class="st4" points="450,455.9 439.3,458.6 444.5,465.8 455.6,463 				"/>
				<polygon id="XMLID_291_" class="st4" points="377.5,464.2 369.2,466.4 373.1,473.8 381.6,471.7 				"/>
				<polygon id="XMLID_292_" class="st4" points="402.9,455.5 398.7,448.7 386.9,451.9 390.8,458.9 				"/>
				<polygon id="XMLID_293_" class="st4" points="422.3,461.3 416.9,453.4 405.4,456.5 410.3,464.4 				"/>
				<polygon id="XMLID_294_" class="st4" points="389.1,459.3 385.3,452.3 374.4,455.2 378.3,462.3 				"/>
				<polygon id="XMLID_295_" class="st4" points="368.4,465 376.7,462.7 372.8,455.7 364.7,457.9 				"/>
				<polygon id="XMLID_296_" class="st4" points="379.5,442 375.2,434.1 364.3,437.1 368.6,444.8 				"/>
				<polygon id="XMLID_297_" class="st4" points="436.5,457.7 430.6,449.6 418.6,452.9 424,460.9 				"/>
				<polygon id="XMLID_298_" class="st4" points="384.5,450.8 380.4,443.4 369.4,446.2 373.6,453.8 				"/>
				<polygon id="XMLID_299_" class="st4" points="413.4,423.5 419.5,431.8 429.1,429.4 422.5,421 				"/>
				<polygon id="XMLID_300_" class="st4" points="401.5,407.4 410,405.2 406.2,400.4 397.9,402.5 				"/>
				<polygon id="XMLID_301_" class="st4" points="393.8,397 396.8,401.1 405.1,399 402.1,395.2 				"/>
				<polygon id="XMLID_302_" class="st4" points="448.9,454.5 442.5,446.4 432.3,449.2 438.2,457.2 				"/>
				<polygon id="XMLID_303_" class="st4" points="402.5,408.8 406.8,414.6 415.5,412.2 411.1,406.6 				"/>
				<polygon id="XMLID_304_" class="st4" points="426.4,441.2 431.3,447.8 441.4,445 436.3,438.5 				"/>
				<polygon id="XMLID_305_" class="st4" points="392.8,395.6 401,393.8 398.4,390.5 390.3,392.2 				"/>
				<polygon id="XMLID_306_" class="st4" points="412.4,422.1 421.4,419.6 416.6,413.6 407.8,416 				"/>
			</g>
		</g>
		<g>
			<path id="XMLID_195_" class="st2" d="M484.9,389v14.6c0,0-2.2,2.2-4.9,3.8c-2.7,1.6-24.9,5.4-24.9,5.4l28.2,30.9
				c0,0,25.8-2.8,33.1-4.9c7.6-2.2,6-29.8,6-29.8L484.9,389z"/>
			<path class="st3" d="M484.9,389v14.6c0,0-0.4,0.4-1,1l33,34.1c7-3.2,5.5-29.6,5.5-29.6L484.9,389z"/>
			<polygon id="XMLID_183_" class="st2" points="435,202 435,357 553.2,450.3 553.2,210.7 			"/>
			<polygon id="XMLID_184_" class="st5" points="443.2,210.1 443.2,340.8 542.4,402 542.4,218.8 			"/>
			<rect id="XMLID_185_" x="553.2" y="210.7" class="st3" width="11.9" height="239.7"/>
			<polygon id="XMLID_197_" class="st2" points="449.7,218.2 450.2,334.8 533.2,382 533.2,237.6 476.2,229 472.4,221 			"/>
			<polygon id="XMLID_200_" class="st5" points="455.1,232.3 455.1,331.6 528.3,370.6 528.3,245.4 			"/>
			<g id="XMLID_196_">
				<path id="XMLID_194_" class="st4" d="M509.9,308.5c0-14.4-9.2-28.3-20.6-31.2c-11.4-2.8-20.6,6.5-20.6,20.9s9.2,28.3,20.6,31.2
					C500.6,332.2,509.9,322.9,509.9,308.5z"/>
				<path id="XMLID_201_" class="st6" d="M491.4,305l7-7.7c1-1.1,0.9-3.1-0.1-4.6c-1-1.5-2.7-1.8-3.6-0.7l-6.7,7.4l-6.7-10.8
					c-1-1.6-2.6-2-3.6-1.1c-1,1-1.1,3-0.1,4.6l7,11.2l-7,7.7c-1,1.1-0.9,3.1,0.1,4.6c0.5,0.7,1.1,1.2,1.8,1.3c0.7,0.2,1.4,0,1.9-0.6
					l6.7-7.4l6.7,10.8c0.5,0.8,1.2,1.3,1.9,1.5c0.6,0.2,1.3,0,1.8-0.4c1-1,1.1-3,0.1-4.6L491.4,305z"/>
			</g>
			<line id="XMLID_198_" class="st7" x1="468.1" y1="266" x2="509.1" y2="278"/>
			<line id="XMLID_199_" class="st7" x1="466.5" y1="254.6" x2="519.6" y2="269.4"/>
		</g>
		<g>
			<path class="st2" d="M503.1,510.1c0,0-25.9,2.4-35.5,10.1c-9.6,7.7-2.4,11.5,6.7,13.9c9.1,2.4,49.9-1.4,55.2-6.7
				C534.8,522,529.5,509.1,503.1,510.1z"/>
			<path class="st3" d="M529.5,527.3c1-1,1.6-2.3,1.8-3.8c-11.6-0.6-26.8,2.8-40.7,7.1c-5.7,1.8-10.4,3-14.2,3.7
				C488.5,535.9,524.5,532.3,529.5,527.3z"/>
		</g>
		<g>
			<line class="st8" x1="411.2" y1="225.4" x2="430.2" y2="235.3"/>
			<line class="st8" x1="400.4" y1="219.8" x2="406" y2="222.7"/>
			<line class="st8" x1="415.4" y1="275.1" x2="421.8" y2="275.8"/>
			<line class="st8" x1="390.8" y1="272.2" x2="408.1" y2="274.2"/>
			<line class="st8" x1="419.4" y1="321.1" x2="398" y2="327.1"/>
		</g>
	</g>
	<g>
		<path class="st4" d="M391.7,58.9c-28.3,0-51.3,23-51.3,51.3c0,28.3,23,51.3,51.3,51.3c28.3,0,51.3-23,51.3-51.3
			C443.1,81.9,420.1,58.9,391.7,58.9z M391.7,151.5c-22.8,0-41.2-18.5-41.2-41.2c0-22.8,18.5-41.2,41.2-41.2
			c22.8,0,41.2,18.5,41.2,41.2C433,133,414.5,151.5,391.7,151.5z"/>
		<path class="st4" d="M395.4,110.2c0,2-1.6,3.7-3.7,3.7c-2,0-3.7-1.6-3.7-3.7c0-2,1.6-3.7,3.7-3.7
			C393.8,106.5,395.4,108.2,395.4,110.2z"/>
		<polyline class="st8" points="379.4,128.8 391.7,110.2 412.5,127.4 		"/>
	</g>
	<g>
		<g>
			<polyline class="st9" points="119.4,149.6 113.2,132.7 116.5,136.4 116.5,130.6 123.5,141.3 117.3,103.1 125.5,124.1 
				126.4,105.5 127.6,111.7 129.2,90.7 132.1,122.8 136.2,111.7 135.4,126.1 146.5,93.2 141.2,134.3 149,128.6 144.5,136 
				150.2,131.9 143.6,150.8 119.8,151.2 			"/>
			<polygon class="st10" points="145.8,191.1 120,191.1 113.1,146.5 152.7,146.5 			"/>
		</g>
		<g>
			<rect x="86.3" y="190.8" class="st11" width="129.8" height="345.3"/>
			<g>
				<rect x="93.9" y="202.1" class="st8" width="113.4" height="83.2"/>
				<rect x="127.9" y="236.2" class="st4" width="45.4" height="15.1"/>
			</g>
			<g>
				<rect x="93.9" y="299.2" class="st8" width="113.4" height="83.2"/>
				<rect x="127.9" y="333.2" class="st4" width="45.4" height="15.1"/>
			</g>
			<g>
				<rect x="93.9" y="396.2" class="st8" width="113.4" height="83.2"/>
				<rect x="127.9" y="430.3" class="st4" width="45.4" height="15.1"/>
			</g>
		</g>
	</g>
	<g>
		<defs>
			<rect id="SVGID_1_" x="8.1" y="130.4" width="411.3" height="407.8"/>
		</defs>
		<clipPath id="SVGID_00000049182865105695815650000014838642425249725832_">
			<use xlink:href="#SVGID_1_"  style="overflow:visible;"/>
		</clipPath>
		<g style="clip-path:url(#SVGID_00000049182865105695815650000014838642425249725832_);">
			<path id="XMLID_22_" class="st3" d="M230.1,516.4c0,0,65.1-28.7,100-30.9l25.4,56.4H162.9L230.1,516.4z"/>
			<g>
				<g>
					<g>
						<defs>
							<path id="XMLID_21_" d="M309.3,176.7c0,0,45.8,54.4,55.4,64.4c9.6,10,10,17.2,6.9,21.7c-3.1,4.5-26.5,12.7-50.6,28.2
								c-24.1,15.5-92.6,55.4-93.3,56.8c-0.7,1.4-7.2-48.2-7.2-48.2l114.7-47.2l-0.3-3.4l-37.2-68.9L309.3,176.7z"/>
						</defs>
						<use xlink:href="#XMLID_21_"  style="overflow:visible;fill:#FFFFFF;"/>
						<clipPath id="XMLID_00000166677158809752677130000018432504478053960374_">
							<use xlink:href="#XMLID_21_"  style="overflow:visible;"/>
						</clipPath>
						<path style="opacity:0.22;clip-path:url(#XMLID_00000166677158809752677130000018432504478053960374_);fill:#6366F1;" d="
							M353.4,257l-53.2-77.6l-2.6,0.8l37.2,68.9l0.3,3.4l-114.7,47.2c0,0,0.1,0.9,0.3,2.3l7.5,17.1L353.4,257z"/>
						
							<use xlink:href="#XMLID_21_"  style="overflow:visible;fill:none;stroke:#1A2E35;stroke-width:0.75;stroke-linecap:round;stroke-linejoin:round;stroke-miterlimit:10;"/>
					</g>
					<path id="XMLID_20_" class="st2" d="M272.8,152.9c0,0-5.5-4.8-8.3,0c-2.8,4.8-3.1,12.7-1.4,13.4c1.7,0.7,8.6-0.3,9.6-2.4
						C273.8,161.9,272.8,152.9,272.8,152.9z"/>
					<path id="XMLID_19_" class="st2" d="M282.4,150.5c0,0-5.9-6.2-9.6-3.8s-2.8,15.5-1.4,16.5c1.4,1,9.6-1.7,10.7-3.4
						C283.1,158.1,282.4,150.5,282.4,150.5z"/>
					<path id="XMLID_18_" class="st2" d="M295.5,150.9c0,0-5.2-7.2-10-7.2c-4.8,0-8.3,17.2-6.5,18.6c1.7,1.4,13.1-0.3,13.8-1.4
						C293.4,159.8,295.5,150.9,295.5,150.9z"/>
					<path id="XMLID_17_" class="st2" d="M305.5,162.6c0-2.1-1-20-7.2-18.9c-6.2,1-12.7,15.5-12.4,17.9
						C286.2,163.9,305.5,162.6,305.5,162.6z"/>
					<path id="XMLID_16_" class="st2" d="M335.1,252.4c0,0,17.6,6.5,24.1,6.2"/>
				</g>
				<g>
					<defs>
						<path id="XMLID_15_" d="M190.7,542.4c18.7-3.2,42.7-16,49.8-32.2c-5.4-28.1-12.1-67.6-12.1-91.8c0-40.6,10.7-63.7,5.9-91.3
							c-4.8-27.5-15.2-45.5-26.2-52.7c0,0-16.9,4.5-34.1,20.7c-17.2,16.2-32.4,44.1-38.2,70.6c-5.9,26.5-13.8,108.1-13.8,129.5
							s-1.5,47.9-1.5,47.9c20.6,0,41.2,0,61.9,0.1C184.9,543.2,187.7,542.9,190.7,542.4z"/>
					</defs>
					<use xlink:href="#XMLID_15_"  style="overflow:visible;fill:#FFFFFF;"/>
					<clipPath id="XMLID_00000027586563887800481410000005201516786149849234_">
						<use xlink:href="#XMLID_15_"  style="overflow:visible;"/>
					</clipPath>
					<path style="opacity:0.22;clip-path:url(#XMLID_00000027586563887800481410000005201516786149849234_);fill:#6366F1;" d="
						M240.5,510.2c-10.5,8.9-57.7,26.3-64.6,27.8c-6.9,1.5-3.1-13,7.7-27.6c10.7-14.5-13,5.4-16.8,6.9c-3.8,1.5,1.5-28.3,1.5-42.9
						c0-14.5,13.8-138.6,13.8-138.6l26-47.5l8.9-5.4c-2.9-3.7-5.9-6.5-9-8.6c0,0-16.9,4.5-34.1,20.7c-17.2,16.2-32.4,44.1-38.2,70.6
						c-5.9,26.5-13.8,108.1-13.8,129.5s-1.5,47.9-1.5,47.9c20.6,0,41.2,0,61.9,0.1c2.6,0,5.5-0.2,8.4-0.7
						C209.4,539.2,233.3,526.4,240.5,510.2z"/>
					
						<use xlink:href="#XMLID_15_"  style="overflow:visible;fill:none;stroke:#1A2E35;stroke-width:0.75;stroke-linecap:round;stroke-linejoin:round;stroke-miterlimit:10;"/>
				</g>
				<g>
					<path class="st3" d="M207,280.9l29.6,53.9l1.6,29.6c0,0,8.3-21.1,4.6-34.8C239.1,315.7,207,280.9,207,280.9z"/>
					<polygon class="st3" points="238.2,364.3 229.9,489 239.1,514.6 245.5,463.3 240,360.6 					"/>
				</g>
				<g>
					<g>
						<defs>
							<path id="XMLID_11_" d="M230.1,230.4c0,0,1,13.4,2.1,20c1,6.5-15.2,24.8-15.2,24.8l23.4,35.5l26.5-20.7c0,0,37.5-2.8,41-5.9
								c3.4-3.1,3.4-37.2,3.4-37.2l9-5.2c0,0-8.3-35.8-10.3-43.7c-2.1-7.9-2.1-7.9-2.1-7.9s12.1-4.1,9.3-16.2
								c-2.8-12.1-20.3-17.9-37.9-15.2c-17.6,2.8-22,9.3-22,9.3s-24.8-0.3-38.9,11.4c-14.1,11.7-5.5,30.3-1,36.8
								C221.8,222.8,230.1,230.4,230.1,230.4z"/>
						</defs>
						<use xlink:href="#XMLID_11_"  style="overflow:visible;fill:#FFFFFF;"/>
						<clipPath id="XMLID_00000160169362137620386360000005944744663241729929_">
							<use xlink:href="#XMLID_11_"  style="overflow:visible;"/>
						</clipPath>
						<path style="opacity:0.22;clip-path:url(#XMLID_00000160169362137620386360000005944744663241729929_);fill:#6366F1;" d="
							M271.6,278.5c-6.9-8.4,0-40.6,5.4-56.7c5.4-16.1-7.7-23-7.7-23l39.1-6.7c-0.5-2-0.5-2-0.5-2s4-1.4,6.8-4.8l2.1-12.4
							c-3.5-11.3-20.5-16.7-37.5-14.1c-17.6,2.8-22,9.3-22,9.3s-24.8-0.3-38.9,11.4c-14.1,11.7-5.5,30.3-1,36.8
							c4.5,6.5,12.7,14.1,12.7,14.1s1,13.4,2.1,20c1,6.5-15.2,24.8-15.2,24.8l23.4,35.5l26.5-20.7c0,0,28.7-2.1,38.2-4.7l2.8-1.1
							C307.9,284.1,278.5,286.9,271.6,278.5z"/>
						<path id="XMLID_14_" style="clip-path:url(#XMLID_00000160169362137620386360000005944744663241729929_);fill:#1A2E35;" d="
							M291.7,214.6c0,0-0.1-0.5-0.1-1.4c0-2.7,0.4-8.4,4.9-10c5.9-2.1,10.7,3.4,10.7,3.4l0.3,5.5c0,0-2.4-3.4-7.2-2.8
							C295.5,210.1,291.7,214.6,291.7,214.6z"/>
						<path id="XMLID_13_" style="clip-path:url(#XMLID_00000160169362137620386360000005944744663241729929_);fill:#1A2E35;" d="
							M301.7,225.6c0,2.9-0.8,5.2-1.7,5.2c-1,0-1.7-2.3-1.7-5.2s0.8-5.2,1.7-5.2C300.9,220.4,301.7,222.7,301.7,225.6z"/>
						<path id="XMLID_12_" style="clip-path:url(#XMLID_00000160169362137620386360000005944744663241729929_);fill:#1A2E35;" d="
							M290.8,261.6c-1.9,2-4.5,2.6-5.7,1.4c-1.2-1.2-0.7-3.8,1.2-5.7c1.9-2,4.5-2.6,5.7-1.4S292.8,259.7,290.8,261.6z"/>
						
							<use xlink:href="#XMLID_11_"  style="overflow:visible;fill:none;stroke:#1A2E35;stroke-width:0.75;stroke-linecap:round;stroke-linejoin:round;stroke-miterlimit:10;"/>
					</g>
					<g>
						<path id="XMLID_10_" class="st3" d="M263.1,196.7c6.2-4.1,44.8-6.5,44.8-6.5s12.1-4.1,9.3-16.2c-2.8-12.1-20.3-17.9-37.9-15.2
							c-17.6,2.8-22,9.3-22,9.3s-24.8-0.3-38.9,11.4c-14.1,11.7-5.5,30.3-1,36.8c4.5,6.5,12.7,14.1,12.7,14.1s0.6,7.4,1.3,13.8
							l10.8,3l11.7-6.2l11.7-2.8c0,0-8.6-6.5-3.8-12.7c4.8-6.2,13.8-8.3,14.1-13.1C276.2,207.7,256.9,200.8,263.1,196.7z"/>
						<path class="st17" d="M300.7,176.6c0,0-4-7.4,3.4-6.1c7.4,1.3,7.4,14.1,1.3,16.8c-6.1,2.7-39-3.4-57.2,2
							c-18.2,5.4-31,20.2-31,20.2"/>
						<path class="st17" d="M227.3,221.1c0,0,14.1-12.1,25.6-14.1c11.4-2,17.5-2,4.7,5.4c-12.8,7.4-4,6.1,4,3.4"/>
					</g>
					<g>
						<defs>
							<path id="XMLID_8_" d="M256.9,247.6c0,0-2.1-21.7-12.7-22.4c-10.7-0.7-10.3,14.8-7.2,25.5s10.7,14.1,16.9,8.6"/>
						</defs>
						<use xlink:href="#XMLID_8_"  style="overflow:visible;fill:#D7DAFF;"/>
						<clipPath id="XMLID_00000071545457878561589100000017022708249935351685_">
							<use xlink:href="#XMLID_8_"  style="overflow:visible;"/>
						</clipPath>
						
							<use xlink:href="#XMLID_8_"  style="overflow:visible;fill:none;stroke:#1A2E35;stroke-width:0.75;stroke-linecap:round;stroke-linejoin:round;stroke-miterlimit:10;"/>
					</g>
				</g>
				<g>
					<defs>
						<path id="XMLID_7_" d="M218,262.1l34.4,52.3l-15.8,20.3c0,0-12.1-23.4-23.8-39.9c-11.7-16.5-13.1-19.3-13.1-19.3L218,262.1z"
							/>
					</defs>
					<use xlink:href="#XMLID_7_"  style="overflow:visible;fill:#FFFFFF;"/>
					<clipPath id="XMLID_00000182488574185138876920000003449688511670263428_">
						<use xlink:href="#XMLID_7_"  style="overflow:visible;"/>
					</clipPath>
					<path style="opacity:0.22;clip-path:url(#XMLID_00000182488574185138876920000003449688511670263428_);fill:#6366F1;" d="
						M218,262.1l-18.3,13.4c0,0,1,2,8.5,12.8l19.3-11.7L218,262.1z"/>
					
						<use xlink:href="#XMLID_7_"  style="overflow:visible;fill:none;stroke:#1A2E35;stroke-width:0.75;stroke-linecap:round;stroke-linejoin:round;stroke-miterlimit:10;"/>
				</g>
				<g>
					<path id="XMLID_6_" class="st2" d="M306.5,392.3c0,0,5.5-11.4,6.5-18.6c1-7.2,1.4-11.4,5.5-14.8c4.1-3.4,17.6-17.2,19.6-22.4
						c2.1-5.2,3.4-0.3,4.5,3.8c1,4.1,0.7,7.9-2.8,10.3s-6.5,6.2-6.5,6.2l3.1,2.4c0,0,43-16.2,47.5-17.9c4.5-1.7,8.6-0.3,9,3.1
						c0.3,3.4-1,3.8-3.1,4.8c-2.1,1-24.8,9-27.9,10.3c-3.1,1.4-3.1,1.4-3.1,1.4l2.4,2.4c0,0,12.4-0.3,18.6-0.7
						c6.2-0.3,15.5-1.4,16.9,0.7c1.4,2.1,0.7,4.5-1,5.9c-1.7,1.4-2.4,1.7-5.5,1.7s-29.6,2.1-29.6,2.1l0.7,3.8c0,0,28.2,4.5,29.3,5.9
						c1,1.4,1,2.1,0,4.1c-1,2.1-1.7,2.1-4.5,2.1c-2.8,0-25.1-3.4-25.1-3.4s11,6.2,12.4,7.2c1.4,1,6.2,1.7,4.8,4.1
						c-1.4,2.4-2.1,3.1-4.1,2.8c-2.1-0.3-16.9-6.9-16.9-6.9s-14.8,2.1-19.6,2.4c-4.8,0.3-10.7-0.3-10.7-0.3l-13.8,9L306.5,392.3z"/>
					<g>
						<defs>
							<path id="XMLID_5_" d="M208.7,376.8c0,0-10-41.7-14.1-51c-4.1-9.3-27.5-17.9-38.9,2.4c-11.4,20.3-1,43.4,3.1,59.9
								c4.1,16.5,30.3,91.3,34.1,100.6c3.8,9.3,10.7,7.2,14.5,6.2c3.8-1,108.5-85.4,108.5-85.4l-8.3-18.6l-81.3,41.7L208.7,376.8z"
								/>
						</defs>
						<use xlink:href="#XMLID_5_"  style="overflow:visible;fill:#FFFFFF;"/>
						<clipPath id="XMLID_00000123405203503138269430000017872754533304216207_">
							<use xlink:href="#XMLID_5_"  style="overflow:visible;"/>
						</clipPath>
						<path style="opacity:0.22;clip-path:url(#XMLID_00000123405203503138269430000017872754533304216207_);fill:#6366F1;" d="
							M205.8,468.4c0,0,5.4-16.1,9.2-23.7s-18.4,17.6-23,3.8c-4.6-13.8-33.7-82.7-28.3-105.7c3.3-14.2,11.6-22.3,17.5-26.4
							c-8.5-2-19,0.1-25.5,11.7c-11.4,20.3-1,43.4,3.1,59.9s30.3,91.3,34.1,100.6c3.8,9.3,10.7,7.2,14.5,6.2
							c2.8-0.8,59-45.7,89.4-70.1L205.8,468.4z"/>
						
							<use xlink:href="#XMLID_5_"  style="overflow:visible;fill:none;stroke:#1A2E35;stroke-width:0.75;stroke-linecap:round;stroke-linejoin:round;stroke-miterlimit:10;"/>
					</g>
					<line id="XMLID_4_" class="st2" x1="295.5" y1="397.8" x2="304.8" y2="416.7"/>
				</g>
			</g>
			<g>
				<path class="st2" d="M77,302.8l-47.6,33c0,0,23.4,24.8,21,89.8c-1.8,49.7,4.8,106.1,14.3,117.5h50.6c0,0-17.5-96.5-16.2-151.9
					C100.2,349.1,87.6,320,77,302.8z"/>
				<path class="st3" d="M82.8,302.8l-47.6,33c0,0,23.4,24.8,21,89.8c-1.8,49.7,4.8,106.1,14.3,117.5h50.6c0,0-17.5-96.5-16.2-151.9
					C105.9,349.1,93.3,320,82.8,302.8z"/>
				<polygon class="st2" points="77,302.8 82.8,302.8 35.2,335.8 29.5,335.8 				"/>
			</g>
		</g>
	</g>
</g>
</svg>
