<?xml version="1.0" encoding="utf-8"?>
<!-- Generator: Adobe Illustrator 28.0.0, SVG Export Plug-In . SVG Version: 6.00 Build 0)  -->
<svg version="1.1" id="Layer_1" xmlns="http://www.w3.org/2000/svg" xmlns:xlink="http://www.w3.org/1999/xlink" x="0px" y="0px"
	 viewBox="0 0 837 709" style="enable-background:new 0 0 837 709;" xml:space="preserve">
<style type="text/css">
	.st0{opacity:0.23;}
	.st1{fill:#6366F1;}
	.st2{fill:#6366F1;stroke:#1A2E35;stroke-linecap:round;stroke-linejoin:round;stroke-miterlimit:10;}
	.st3{clip-path:url(#XMLID_00000091705349760223827450000012481155338485745588_);}
	.st4{fill:none;stroke:#6366F1;stroke-linecap:round;stroke-linejoin:round;stroke-miterlimit:10;}
	.st5{fill:none;stroke:#FFFFFF;stroke-linecap:round;stroke-linejoin:round;stroke-miterlimit:10;}
	.st6{fill:#FFFFFF;stroke:#FFFFFF;stroke-linecap:round;stroke-linejoin:round;stroke-miterlimit:10;}
	.st7{fill:#FFFFFF;}
	.st8{fill:#1A2E35;stroke:#1A2E35;stroke-linecap:round;stroke-linejoin:round;stroke-miterlimit:10;}
	.st9{fill:none;stroke:#1A2E35;stroke-miterlimit:10;}
	.st10{fill:#1A2E35;}
	.st11{opacity:0.17;clip-path:url(#XMLID_00000109027544966827187930000005486098787569656473_);}
	
		.st12{clip-path:url(#XMLID_00000109027544966827187930000005486098787569656473_);fill:#6366F1;stroke:#1A2E35;stroke-miterlimit:10;}
	.st13{opacity:0.17;}
	.st14{fill:none;stroke:#1A2E35;stroke-width:0.5;stroke-miterlimit:10;}
	.st15{opacity:0.17;clip-path:url(#XMLID_00000138538247505762501350000004835550047041276845_);}
	
		.st16{clip-path:url(#XMLID_00000138538247505762501350000004835550047041276845_);fill:#6366F1;stroke:#1A2E35;stroke-miterlimit:10;}
	.st17{fill:#FFFFFF;stroke:#1A2E35;stroke-linecap:round;stroke-linejoin:round;stroke-miterlimit:10;}
	.st18{fill:none;stroke:#1A2E35;stroke-linecap:round;stroke-linejoin:round;stroke-miterlimit:10;}
	
		.st19{opacity:0.3;clip-path:url(#XMLID_00000044144763076596440110000012216391845121345182_);fill:#FFFFFF;stroke:#1A2E35;stroke-linecap:round;stroke-linejoin:round;stroke-miterlimit:10;}
	
		.st20{clip-path:url(#XMLID_00000044144763076596440110000012216391845121345182_);fill:none;stroke:#1A2E35;stroke-linecap:round;stroke-linejoin:round;stroke-miterlimit:10;}
</style>
<g>
	<g class="st0">
		<path class="st1" d="M538.2,416.4c8.9,13.1,21.2,30.2,27.8,43.9c-2.5-9-4.9-17.6-7.2-25.3c-3.4-6.6-12.4-23.3-22.8-34.5
			c-13.2-14.2-18.9-23.2-11.8-24c4.9-0.5,19.4,18.7,28.4,37.8c-2-6.5-3.5-11.5-4.5-14.4c-0.4-1.3-0.8-2.8-1.3-4.3
			c-4.7-6.5-15.4-22.1-25.5-40.9c-13.4-25-17.7-48.5-8.8-38.4c8.2,9.3,22.5,55.7,33.8,77.5c-1-3.8-1.9-7.9-2.7-12
			c-1.6-4-3.7-8-4.9-11.7c-1.8-5.6-3.5-11.3-4.8-17.1c-2-9-3.4-18.3-3.3-27.6c0.1-11,2.4-21.6,8.5-30.8c1.5-2.3,10.9-16.3,13.8-9.1
			c0.5,1.2,0.3,2.4,0.2,3.7c-1.4,11.9-5.7,22.9-8.4,34.5c-4,17.4-1.3,46.6,0.1,59c0.5,2,1.2,4.4,1.9,7.2
			c-1.9-21.6,7.5-47.3,16.2-51.8c10.7-5.5,0.2,16.2-8.1,35.2c-5.4,12.3-5.8,21.6-5.4,26.7c1.7,6.2,3.6,13.3,5.7,20.4
			c0.4,1,0.8,1.9,1.1,2.9c-0.8-4.7-1.4-9.7-1.1-14.1c0.8-12.4,14.9-37.3,24.2-33.8c9.3,3.5-6.5,16.6-14.9,31.9
			c-5.8,10.4-5.6,21.5-4.9,27.4c0.1,0.6,0.2,1.1,0.3,1.7c1,3.2,1.9,6.4,2.9,9.3c2.2,6.9,4.2,13.5,6.2,19.8
			c-1.9-7.7-3.8-18.4-3.1-28.3c1.2-18.2,11.8-35.4,20.7-37.7c8.9-2.3-8,27.3-13.6,44c-4.3,12.6-2.6,24.8-1.5,30.1
			c2.7,9,5.3,17.9,7.9,27.4c-0.9-10.4-0.3-23.8,0.8-37c1.7-20.3,13.8-33.2,22.1-32.7c8.3,0.5-0.4,12-12.3,36.6
			c-8.6,17.6-8.7,33.9-8.2,41.7c1.1,4,2.2,8.1,3.3,12.3c1.3,4.8,2.3,10.1,3.2,15.5c1.2-4.8,3-11.9,5.1-19.7
			c2.3-8.7,4.3-17.4,5.3-26.3c1.1-10.3,3.8-23.2,14-28.6c3.4-1.8,6.7-1.1,8.5,2.3c1.1,2.1,1,4.7,0.6,7c-1.1,6.9-3.8,13.7-6.9,20.2
			c2.2,3.5,2.8,8.6,2.6,12.4c-0.1,1.6-0.1,3.2-0.2,4.8c0.9-1.6,1.7-3.2,2.5-4.5c1.6-2.6,3.4-4.8,5.3-6.6c-0.5-3.8-0.8-7.7-0.8-11.6
			c0.1-5,5.9-17.8,11.2-8.3c2.1,3.8,1.7,11.2,1.9,16.2c1.5,1.4,1.9,4.2,0.7,8.6c0.8,11.4,1,23.2-1.8,34.3c0.6-1.1,1.2-2.1,1.8-3.2
			c0.8-3.7,4-20.5,4.6-40.2c0.7-22.3-2.9-40.6,3.2-47.4c6.1-6.9,9.5,17.3,6.9,43.6c-1.4,14.6-5.8,26.8-9.5,34.7
			c6-10.7,11.8-21.6,17.4-32.1c2.4-5.6,8-20.8,6.6-36.2c-1.8-19.4-3-35.3,4.3-46.2c7.4-10.9,8.9-3.8,5.3,18.9
			c-2.5,15.6-5.1,36.5-9.7,51c4.3-8.3,8.4-16.2,12-23.4c2.1-7.1,6.9-25.5,6.9-40.7c0-19.4,2.1-29.9,7.8-25.6c4,3,1.4,26.9-5,47
			c3-6.1,5.3-10.8,6.6-13.6c0.6-1.3,1.3-2.6,2-4c1-7.9,3.8-26.7,9.3-47.3c7.3-27.4,20.2-47.5,19.8-34c-0.4,12.4-21.6,56-28.2,79.7
			c1.9-3.4,4-7.1,6.2-10.6c1.5-4,2.8-8.4,4.4-11.9c2.5-5.4,5.2-10.7,8.2-15.8c4.7-8,10-15.7,16.4-22.4c7.6-7.9,16.5-14.1,27.3-16.7
			c2.7-0.6,19.1-4.5,16.3,2.8c-0.5,1.2-1.4,2-2.4,2.8c-9.1,7.8-19.8,12.9-29.7,19.5c-14.8,10-32.8,33.1-40.2,43.2
			c-1,1.8-2.2,4-3.5,6.6c13.4-17.1,37.8-29.4,47.2-26.8c11.6,3.3-10.9,12-30,20.2c-12.3,5.3-19,11.9-22.1,15.8
			c-3,5.7-6.4,12.2-9.8,18.7c-0.4,1-0.8,2-1.2,2.9c2.6-4,5.6-8,8.8-11.1c9.1-8.5,36.3-17.1,40.7-8.2c4.4,8.9-16.1,7.7-32.7,13.1
			c-11.4,3.7-18.7,11.9-22.3,16.7c-0.3,0.5-0.6,0.9-0.9,1.4c-1.5,3-2.9,6-4.3,8.8c-3.1,6.6-6.1,12.7-9,18.7c3.9-6.9,9.8-16,17-22.8
			c13.3-12.5,32.8-17.8,40.9-13.4c8.1,4.4-24.5,14.5-40,22.9c-11.7,6.3-18.8,16.4-21.6,21c-4.2,8.5-8.4,16.7-12.9,25.4
			c6.4-8.2,16-17.6,25.8-26.5c15.1-13.6,32.7-14.9,38.4-8.8c5.7,6-8.5,8.5-34,18.3c-18.3,7-29.5,18.8-34.4,24.9
			c-1.9,3.6-3.9,7.4-6,11.3c-2.4,4.4-5.2,9-8.3,13.5c4.2-2.7,10.3-6.6,17.1-10.9c7.6-4.8,15-9.8,21.8-15.6
			c7.9-6.8,18.7-14.3,29.7-11.4c3.7,1,5.7,3.7,4.6,7.5c-0.6,2.3-2.5,4.1-4.3,5.5c-10.4,8.1-24.5,12-36.7,16.8
			c-15,5.9-28.1,9.4-34.2,10.9c-2.9,4.1-5.9,8.2-8.9,12.1c0.9,0,2.5,0.1,5.5,0.2c6.4,0.2,35.6-13,50.4-17.3
			c14.8-4.3,28.6,3.8,13.1,12.1c-15.5,8.3-57.7,6.5-57.7,6.5l-12.2-0.4c-2.8,3.7-5.7,7.1-8.3,10.3h57.8v16h-11.4l-9.3,57h-76.8
			l-9.3-57h-11.4v-16h38.3c0.3-5.4,0.2-12.3-0.6-20.8c-0.9-1.1-3.2-3.2-8.4-6.8c-16.8-11.6-45.3-12.6-52.9-34.9
			c-1.8-5.4,0.2-12.3,6.7-12c4.6,0.2,9.6,4.3,12.4,7.6c9.6,11.1,16.9,22.6,29.4,31.1c0.6,0.4,8.5,6.7,12.4,10.6
			c-0.4-3.6-1-7.5-1.7-11.7c-3-5.3-6.5-10.5-10.3-15.3c-10.2-12.7-25.8-20.2-36.9-32.3c-3.4-3.7-7.9-17.1,2.5-13.7
			c4.6,1.5,10,8.4,13.6,11.6c10.2,9.1,20.6,18.9,27.3,31c-0.3-1.2-0.6-2.4-0.9-3.6c-2-3.2-11.1-17.7-24.1-32.5
			c-14.7-16.7-29.8-27.7-30.1-36.8c-0.2-9.2,18.7,6.2,34.8,27.2c8.9,11.7,14,23.6,16.8,31.9c-3-11.9-6.1-23.9-9.2-35.4
			c-2.1-5.7-8.4-20.7-19.9-31c-14.5-13-26.3-23.7-28.4-36.7C519.3,393.2,525.3,397.3,538.2,416.4z M619.6,563.8
			c2.2-2.9,4.4-6.2,6.8-9.7c1.4-6,2.4-12.1,2.9-18.2c0.4-5.3,0-10.5-0.7-15.7c-3.8,4.8-8.2,9.6-12.4,13.9c0.1,4.5,0.6,9,1.7,13.6
			C617.9,548.3,619.4,558.3,619.6,563.8z M607.1,578.9c2.9-3.1,6.2-6.9,9.7-11.4c0-1.4-0.1-4.5-1.5-10.8c-1.2-5.3-3.5-10.7-6-16
			c-5.4,5.2-9.4,8.6-9.4,8.6l-9.1,8c0.7,8,1.1,15.5,1.4,21.6H607.1z M590.6,555.8c0.6-0.6,1.8-1.6,4.1-3.6c2.3-2.1,6.4-10,10.9-19.2
			c-1.9-3.9-3.7-7.9-5.1-11.9c-4.8,9-9.2,16-11.7,19.8C589.6,545.9,590.1,550.9,590.6,555.8z"/>
	</g>
	<g class="st0">
		<path class="st1" d="M53.9,416.4c8.9,13.1,21.2,30.2,27.8,43.9c-2.5-9-4.9-17.6-7.2-25.3c-3.4-6.6-12.4-23.3-22.8-34.5
			c-13.2-14.2-18.9-23.2-11.8-24c4.9-0.5,19.4,18.7,28.4,37.8c-2-6.5-3.5-11.5-4.5-14.4c-0.4-1.3-0.8-2.8-1.3-4.3
			c-4.7-6.5-15.4-22.1-25.5-40.9c-13.4-25-17.7-48.5-8.8-38.4c8.2,9.3,22.5,55.7,33.8,77.5c-1-3.8-1.9-7.9-2.7-12
			c-1.6-4-3.7-8-4.9-11.7c-1.8-5.6-3.5-11.3-4.8-17.1c-2-9-3.4-18.3-3.3-27.6c0.1-11,2.4-21.6,8.5-30.8c1.5-2.3,10.9-16.3,13.8-9.1
			c0.5,1.2,0.3,2.4,0.2,3.7c-1.4,11.9-5.7,22.9-8.4,34.5c-4,17.4-1.3,46.6,0.1,59c0.5,2,1.2,4.4,1.9,7.2
			c-1.9-21.6,7.5-47.3,16.2-51.8c10.7-5.5,0.2,16.2-8.1,35.2c-5.4,12.3-5.8,21.6-5.4,26.7c1.7,6.2,3.6,13.3,5.7,20.4
			c0.4,1,0.8,1.9,1.1,2.9c-0.8-4.7-1.4-9.7-1.1-14.1c0.8-12.4,14.9-37.3,24.2-33.8c9.3,3.5-6.5,16.6-14.9,31.9
			c-5.8,10.4-5.6,21.5-4.9,27.4c0.1,0.6,0.2,1.1,0.3,1.7c1,3.2,1.9,6.4,2.9,9.3c2.2,6.9,4.2,13.5,6.2,19.8
			c-1.9-7.7-3.8-18.4-3.1-28.3c1.2-18.2,11.8-35.4,20.7-37.7c8.9-2.3-8,27.3-13.6,44c-4.3,12.6-2.6,24.8-1.5,30.1
			c2.7,9,5.3,17.9,7.9,27.4c-0.9-10.4-0.3-23.8,0.8-37c1.7-20.3,13.8-33.2,22.1-32.7c8.3,0.5-0.4,12-12.3,36.6
			c-8.6,17.6-8.7,33.9-8.2,41.7c1.1,4,2.2,8.1,3.3,12.3c1.3,4.8,2.3,10.1,3.2,15.5c1.2-4.8,3-11.9,5.1-19.7
			c2.3-8.7,4.3-17.4,5.3-26.3c1.1-10.3,3.8-23.2,14-28.6c3.4-1.8,6.7-1.1,8.5,2.3c1.1,2.1,1,4.7,0.6,7c-1.1,6.9-3.8,13.7-6.9,20.2
			c2.2,3.5,2.8,8.6,2.6,12.4c-0.1,1.6-0.1,3.2-0.2,4.8c0.9-1.6,1.7-3.2,2.5-4.5c1.6-2.6,3.4-4.8,5.3-6.6c-0.5-3.8-0.8-7.7-0.8-11.6
			c0.1-5,5.9-17.8,11.2-8.3c2.1,3.8,1.7,11.2,1.9,16.2c1.5,1.4,1.9,4.2,0.7,8.6c0.8,11.4,1,23.2-1.8,34.3c0.6-1.1,1.2-2.1,1.8-3.2
			c0.8-3.7,4-20.5,4.6-40.2c0.7-22.3-2.9-40.6,3.2-47.4c6.1-6.9,9.5,17.3,6.9,43.6c-1.4,14.6-5.8,26.8-9.5,34.7
			c6-10.7,11.8-21.6,17.4-32.1c2.4-5.6,8-20.8,6.6-36.2c-1.8-19.4-3-35.3,4.3-46.2c7.4-10.9,8.9-3.8,5.3,18.9
			c-2.5,15.6-5.1,36.5-9.7,51c4.3-8.3,8.4-16.2,12-23.4c2.1-7.1,6.9-25.5,6.9-40.7c0-19.4,2.1-29.9,7.8-25.6c4,3,1.4,26.9-5,47
			c3-6.1,5.3-10.8,6.6-13.6c0.6-1.3,1.3-2.6,2-4c1-7.9,3.8-26.7,9.3-47.3c7.3-27.4,20.2-47.5,19.8-34c-0.4,12.4-21.6,56-28.2,79.7
			c1.9-3.4,4-7.1,6.2-10.6c1.5-4,2.8-8.4,4.4-11.9c2.5-5.4,5.2-10.7,8.2-15.8c4.7-8,10-15.7,16.4-22.4c7.6-7.9,16.5-14.1,27.3-16.7
			c2.7-0.6,19.1-4.5,16.3,2.8c-0.5,1.2-1.4,2-2.4,2.8c-9.1,7.8-19.8,12.9-29.7,19.5c-14.8,10-32.8,33.1-40.2,43.2
			c-1,1.8-2.2,4-3.5,6.6c13.4-17.1,37.8-29.4,47.2-26.8c11.6,3.3-10.9,12-30,20.2c-12.3,5.3-19,11.9-22.1,15.8
			c-3,5.7-6.4,12.2-9.8,18.7c-0.4,1-0.8,2-1.2,2.9c2.6-4,5.6-8,8.8-11.1c9.1-8.5,36.3-17.1,40.7-8.2c4.4,8.9-16.1,7.7-32.7,13.1
			c-11.4,3.7-18.7,11.9-22.3,16.7c-0.3,0.5-0.6,0.9-0.9,1.4c-1.5,3-2.9,6-4.3,8.8c-3.1,6.6-6.1,12.7-9,18.7c3.9-6.9,9.8-16,17-22.8
			c13.3-12.5,32.8-17.8,40.9-13.4c8.1,4.4-24.5,14.5-40,22.9c-11.7,6.3-18.8,16.4-21.6,21c-4.2,8.5-8.4,16.7-12.9,25.4
			c6.4-8.2,16-17.6,25.8-26.5c15.1-13.6,32.7-14.9,38.4-8.8c5.7,6-8.5,8.5-34,18.3c-18.3,7-29.5,18.8-34.4,24.9
			c-1.9,3.6-3.9,7.4-6,11.3c-2.4,4.4-5.2,9-8.3,13.5c4.2-2.7,10.3-6.6,17.1-10.9c7.6-4.8,15-9.8,21.8-15.6
			c7.9-6.8,18.7-14.3,29.7-11.4c3.7,1,5.7,3.7,4.6,7.5c-0.6,2.3-2.5,4.1-4.3,5.5c-10.4,8.1-24.5,12-36.7,16.8
			c-15,5.9-28.1,9.4-34.2,10.9c-2.9,4.1-5.9,8.2-8.9,12.1c0.9,0,2.5,0.1,5.5,0.2c6.4,0.2,35.6-13,50.4-17.3
			c14.8-4.3,28.6,3.8,13.1,12.1c-15.5,8.3-57.7,6.5-57.7,6.5l-12.2-0.4c-2.8,3.7-5.7,7.1-8.3,10.3h57.8v16H173l-9.3,57H86.9l-9.3-57
			H66.2v-16h38.3c0.3-5.4,0.2-12.3-0.6-20.8c-0.9-1.1-3.2-3.2-8.4-6.8c-16.8-11.6-45.3-12.6-52.9-34.9c-1.8-5.4,0.2-12.3,6.7-12
			c4.6,0.2,9.6,4.3,12.4,7.6c9.6,11.1,16.9,22.6,29.4,31.1c0.6,0.4,8.5,6.7,12.4,10.6c-0.4-3.6-1-7.5-1.7-11.7
			c-3-5.3-6.5-10.5-10.3-15.3c-10.2-12.7-25.8-20.2-36.9-32.3c-3.4-3.7-7.9-17.1,2.5-13.7c4.6,1.5,10,8.4,13.6,11.6
			c10.2,9.1,20.6,18.9,27.3,31c-0.3-1.2-0.6-2.4-0.9-3.6c-2-3.2-11.1-17.7-24.1-32.5c-14.7-16.7-29.8-27.7-30.1-36.8
			c-0.2-9.2,18.7,6.2,34.8,27.2c8.9,11.7,14,23.6,16.8,31.9c-3-11.9-6.1-23.9-9.2-35.4c-2.1-5.7-8.4-20.7-19.9-31
			c-14.5-13-26.3-23.7-28.4-36.7C35,393.2,41,397.3,53.9,416.4z M135.3,563.8c2.2-2.9,4.4-6.2,6.8-9.7c1.4-6,2.4-12.1,2.9-18.2
			c0.4-5.3,0-10.5-0.7-15.7c-3.8,4.8-8.2,9.6-12.4,13.9c0.1,4.5,0.6,9,1.7,13.6C133.6,548.3,135.1,558.3,135.3,563.8z M122.8,578.9
			c2.9-3.1,6.2-6.9,9.7-11.4c0-1.4-0.1-4.5-1.5-10.8c-1.2-5.3-3.5-10.7-6-16c-5.4,5.2-9.4,8.6-9.4,8.6l-9.1,8
			c0.7,8,1.1,15.5,1.4,21.6H122.8z M106.3,555.8c0.6-0.6,1.8-1.6,4.1-3.6c2.3-2.1,6.4-10,10.9-19.2c-1.9-3.9-3.7-7.9-5.1-11.9
			c-4.8,9-9.2,16-11.7,19.8C105.3,545.9,105.8,550.9,106.3,555.8z"/>
	</g>
	<g>
		<rect x="117.1" y="22.4" class="st2" width="302.9" height="629.3"/>
		<g>
			<defs>
				<rect id="XMLID_3_" x="134.2" y="44.9" width="268.7" height="584.3"/>
			</defs>
			<use xlink:href="#XMLID_3_"  style="overflow:visible;fill:#1A2E35;"/>
			<clipPath id="XMLID_00000036967395948277578040000009593783555528098738_">
				<use xlink:href="#XMLID_3_"  style="overflow:visible;"/>
			</clipPath>
			<g style="clip-path:url(#XMLID_00000036967395948277578040000009593783555528098738_);">
				<path class="st4" d="M127.3,631.5c0,0,9.4-4.7,34.7-24.7c25.4-20,49.4-30.7,64.8-30.7c15.4,0,25.4,12,76.8,35.4
					c51.4,23.4,68.8,38.1,114.2-8.7c45.4-46.8,52.1-52.1,52.1-52.1"/>
				<path class="st4" d="M130.7,640.2c0,0,9.4-4.7,34.7-24.7c25.4-20,49.4-30.7,64.8-30.7c15.4,0,25.4,12,76.8,35.4
					c51.4,23.4,68.8,38.1,114.2-8.7c45.4-46.8,52.1-52.1,52.1-52.1"/>
				<path class="st5" d="M126,637.5c0,0,9.4-4.7,34.7-24.7s49.4-30.7,64.8-30.7c15.4,0,25.4,12,76.8,35.4
					c51.4,23.4,68.8,38.1,114.2-8.7c45.4-46.8,52.1-52.1,52.1-52.1"/>
				<path class="st4" d="M120.7,609.5c0,0,10.7-14.7,41.4-2.7c30.7,12,46.1,37.4,81.5,22.7c35.4-14.7,35.4-33.4,83.5-32.7
					c48.1,0.7,91.5,38.7,91.5,38.7"/>
				<path class="st4" d="M120.7,604.1c0,0,10.7-14.7,41.4-2.7c30.7,12,46.1,37.4,81.5,22.7c35.4-14.7,35.4-33.4,83.5-32.7
					c48.1,0.7,91.5,38.7,91.5,38.7"/>
				<path class="st5" d="M120.7,596.8c0,0,10.7-14.7,41.4-2.7c30.7,12,46.1,37.4,81.5,22.7c35.4-14.7,35.4-33.4,83.5-32.7
					c48.1,0.7,91.5,38.7,91.5,38.7"/>
				<path class="st5" d="M120.7,615.5c0,0,10.7-14.7,41.4-2.7s46.1,37.4,81.5,22.7c35.4-14.7,35.4-33.4,83.5-32.7
					c48.1,0.7,91.5,38.7,91.5,38.7"/>
				<path class="st5" d="M166.8,574.7c0,0,38.7,26.7,66.1,46.8c27.4,20,66.8,18,102.9-2.7c36.1-20.7,76.1-30.1,76.1-30.1
					s16-1.3,31.4,4.7"/>
				<path class="st4" d="M184.1,575.4c0,0,38.7,26.7,66.1,46.8c27.4,20,66.8,18,102.9-2.7c36.1-20.7,76.1-30.1,76.1-30.1
					s16-1.3,31.4,4.7"/>
			</g>
			
				<use xlink:href="#XMLID_3_"  style="overflow:visible;fill:none;stroke:#1A2E35;stroke-linecap:round;stroke-linejoin:round;stroke-miterlimit:10;"/>
		</g>
		<rect x="134.2" y="391.6" class="st2" width="268.7" height="45.3"/>
		<rect x="134.2" y="496.8" class="st2" width="268.7" height="18.6"/>
		<rect x="134.2" y="560.8" class="st2" width="268.7" height="18.6"/>
		<g>
			<path class="st5" d="M387.3,84H149c-7.1,0-12.9-5.8-12.9-12.9l0,0c0-7.1,5.8-12.9,12.9-12.9h238.3c7.1,0,12.9,5.8,12.9,12.9l0,0
				C400.1,78.2,394.4,84,387.3,84z"/>
			<rect x="150" y="64.4" class="st5" width="83.3" height="12.1"/>
			<g>
				<path class="st5" d="M250.7,66.5c0,1.5-1.2,2.7-2.7,2.7s-2.7-1.2-2.7-2.7c0-1.5,1.2-2.7,2.7-2.7S250.7,65,250.7,66.5z"/>
				<path class="st5" d="M260.7,66.5c0,1.5-1.2,2.7-2.7,2.7s-2.7-1.2-2.7-2.7c0-1.5,1.2-2.7,2.7-2.7S260.7,65,260.7,66.5z"/>
				<path class="st5" d="M270.6,66.5c0,1.5-1.2,2.7-2.7,2.7s-2.7-1.2-2.7-2.7c0-1.5,1.2-2.7,2.7-2.7S270.6,65,270.6,66.5z"/>
				<path class="st5" d="M280.6,66.5c0,1.5-1.2,2.7-2.7,2.7c-1.5,0-2.7-1.2-2.7-2.7c0-1.5,1.2-2.7,2.7-2.7
					C279.3,63.8,280.6,65,280.6,66.5z"/>
				<path class="st5" d="M290.5,66.5c0,1.5-1.2,2.7-2.7,2.7s-2.7-1.2-2.7-2.7c0-1.5,1.2-2.7,2.7-2.7S290.5,65,290.5,66.5z"/>
				<path class="st5" d="M300.5,66.5c0,1.5-1.2,2.7-2.7,2.7c-1.5,0-2.7-1.2-2.7-2.7c0-1.5,1.2-2.7,2.7-2.7
					C299.2,63.8,300.5,65,300.5,66.5z"/>
				<circle class="st5" cx="248" cy="75.4" r="2.7"/>
				<circle class="st5" cx="258" cy="75.4" r="2.7"/>
				<circle class="st5" cx="267.9" cy="75.4" r="2.7"/>
				<circle class="st5" cx="277.8" cy="75.4" r="2.7"/>
				<path class="st5" d="M290.5,75.4c0,1.5-1.2,2.7-2.7,2.7s-2.7-1.2-2.7-2.7c0-1.5,1.2-2.7,2.7-2.7S290.5,73.9,290.5,75.4z"/>
				<path class="st5" d="M300.5,75.4c0,1.5-1.2,2.7-2.7,2.7c-1.5,0-2.7-1.2-2.7-2.7c0-1.5,1.2-2.7,2.7-2.7
					C299.2,72.7,300.5,73.9,300.5,75.4z"/>
			</g>
			<rect x="153.7" y="67.5" class="st1" width="75.7" height="6"/>
			<rect x="306.4" y="55.2" class="st6" width="7.8" height="31.1"/>
			<rect x="318.8" y="66.5" class="st7" width="66.9" height="8.6"/>
		</g>
		<g>
			<path class="st5" d="M387.3,121H149c-7.1,0-12.9-5.8-12.9-12.9l0,0c0-7.1,5.8-12.9,12.9-12.9h238.3c7.1,0,12.9,5.8,12.9,12.9l0,0
				C400.1,115.2,394.4,121,387.3,121z"/>
			<rect x="150" y="101.4" class="st5" width="83.3" height="12.1"/>
			<g>
				<path class="st5" d="M250.7,103.5c0,1.5-1.2,2.7-2.7,2.7s-2.7-1.2-2.7-2.7s1.2-2.7,2.7-2.7S250.7,102,250.7,103.5z"/>
				<path class="st5" d="M260.7,103.5c0,1.5-1.2,2.7-2.7,2.7s-2.7-1.2-2.7-2.7s1.2-2.7,2.7-2.7S260.7,102,260.7,103.5z"/>
				<path class="st5" d="M270.6,103.5c0,1.5-1.2,2.7-2.7,2.7s-2.7-1.2-2.7-2.7s1.2-2.7,2.7-2.7S270.6,102,270.6,103.5z"/>
				<path class="st5" d="M280.6,103.5c0,1.5-1.2,2.7-2.7,2.7c-1.5,0-2.7-1.2-2.7-2.7s1.2-2.7,2.7-2.7
					C279.3,100.8,280.6,102,280.6,103.5z"/>
				<path class="st5" d="M290.5,103.5c0,1.5-1.2,2.7-2.7,2.7s-2.7-1.2-2.7-2.7s1.2-2.7,2.7-2.7S290.5,102,290.5,103.5z"/>
				<path class="st5" d="M300.5,103.5c0,1.5-1.2,2.7-2.7,2.7c-1.5,0-2.7-1.2-2.7-2.7s1.2-2.7,2.7-2.7
					C299.2,100.8,300.5,102,300.5,103.5z"/>
				<path class="st5" d="M250.7,112.3c0,1.5-1.2,2.7-2.7,2.7s-2.7-1.2-2.7-2.7c0-1.5,1.2-2.7,2.7-2.7S250.7,110.8,250.7,112.3z"/>
				<path class="st5" d="M260.7,112.3c0,1.5-1.2,2.7-2.7,2.7s-2.7-1.2-2.7-2.7c0-1.5,1.2-2.7,2.7-2.7S260.7,110.8,260.7,112.3z"/>
				<path class="st5" d="M270.6,112.3c0,1.5-1.2,2.7-2.7,2.7s-2.7-1.2-2.7-2.7c0-1.5,1.2-2.7,2.7-2.7S270.6,110.8,270.6,112.3z"/>
				<path class="st5" d="M280.6,112.3c0,1.5-1.2,2.7-2.7,2.7c-1.5,0-2.7-1.2-2.7-2.7c0-1.5,1.2-2.7,2.7-2.7
					C279.3,109.6,280.6,110.8,280.6,112.3z"/>
				<path class="st5" d="M290.5,112.3c0,1.5-1.2,2.7-2.7,2.7s-2.7-1.2-2.7-2.7c0-1.5,1.2-2.7,2.7-2.7S290.5,110.8,290.5,112.3z"/>
				<path class="st5" d="M300.5,112.3c0,1.5-1.2,2.7-2.7,2.7c-1.5,0-2.7-1.2-2.7-2.7c0-1.5,1.2-2.7,2.7-2.7
					C299.2,109.6,300.5,110.8,300.5,112.3z"/>
			</g>
			<rect x="153.7" y="104.4" class="st1" width="75.7" height="6"/>
			<rect x="306.4" y="92.2" class="st6" width="7.8" height="31.1"/>
			<path class="st5" d="M387.3,95.2h-80.9V121h80.9c7.1,0,12.9-5.8,12.9-12.9C400.1,101,394.4,95.2,387.3,95.2z"/>
			<rect x="318.8" y="103.4" class="st7" width="66.9" height="8.6"/>
		</g>
		<g>
			<path class="st5" d="M387.3,157.9H149c-7.1,0-12.9-5.8-12.9-12.9l0,0c0-7.1,5.8-12.9,12.9-12.9h238.3c7.1,0,12.9,5.8,12.9,12.9
				l0,0C400.1,152.1,394.4,157.9,387.3,157.9z"/>
			<rect x="150" y="138.4" class="st5" width="83.3" height="12.1"/>
			<g>
				<circle class="st5" cx="248" cy="140.5" r="2.7"/>
				<circle class="st5" cx="258" cy="140.5" r="2.7"/>
				<circle class="st5" cx="267.9" cy="140.5" r="2.7"/>
				<circle class="st5" cx="277.8" cy="140.5" r="2.7"/>
				<path class="st5" d="M290.5,140.5c0,1.5-1.2,2.7-2.7,2.7s-2.7-1.2-2.7-2.7s1.2-2.7,2.7-2.7S290.5,139,290.5,140.5z"/>
				<path class="st5" d="M300.5,140.5c0,1.5-1.2,2.7-2.7,2.7c-1.5,0-2.7-1.2-2.7-2.7s1.2-2.7,2.7-2.7
					C299.2,137.8,300.5,139,300.5,140.5z"/>
				<circle class="st5" cx="248" cy="149.3" r="2.7"/>
				<circle class="st5" cx="258" cy="149.3" r="2.7"/>
				<circle class="st5" cx="267.9" cy="149.3" r="2.7"/>
				<circle class="st5" cx="277.8" cy="149.3" r="2.7"/>
				<path class="st5" d="M290.5,149.3c0,1.5-1.2,2.7-2.7,2.7s-2.7-1.2-2.7-2.7s1.2-2.7,2.7-2.7S290.5,147.8,290.5,149.3z"/>
				<path class="st5" d="M300.5,149.3c0,1.5-1.2,2.7-2.7,2.7c-1.5,0-2.7-1.2-2.7-2.7s1.2-2.7,2.7-2.7
					C299.2,146.6,300.5,147.8,300.5,149.3z"/>
			</g>
			<rect x="153.7" y="141.4" class="st1" width="75.7" height="6"/>
			<rect x="306.4" y="129.1" class="st6" width="7.8" height="31.1"/>
			<rect x="318.8" y="140.4" class="st1" width="66.9" height="8.6"/>
		</g>
		<g>
			<path class="st5" d="M393.5,194.9H142.7c-3.6,0-6.6-3-6.6-6.6v-12.6c0-3.6,3-6.6,6.6-6.6h250.8c3.6,0,6.6,3,6.6,6.6v12.6
				C400.1,191.9,397.2,194.9,393.5,194.9z"/>
			<rect x="150" y="175.3" class="st5" width="83.3" height="12.1"/>
			<g>
				<path class="st5" d="M250.7,177.4c0,1.5-1.2,2.7-2.7,2.7s-2.7-1.2-2.7-2.7c0-1.5,1.2-2.7,2.7-2.7S250.7,175.9,250.7,177.4z"/>
				<path class="st5" d="M260.7,177.4c0,1.5-1.2,2.7-2.7,2.7s-2.7-1.2-2.7-2.7c0-1.5,1.2-2.7,2.7-2.7S260.7,175.9,260.7,177.4z"/>
				<path class="st5" d="M270.6,177.4c0,1.5-1.2,2.7-2.7,2.7s-2.7-1.2-2.7-2.7c0-1.5,1.2-2.7,2.7-2.7S270.6,175.9,270.6,177.4z"/>
				<path class="st5" d="M280.6,177.4c0,1.5-1.2,2.7-2.7,2.7c-1.5,0-2.7-1.2-2.7-2.7c0-1.5,1.2-2.7,2.7-2.7
					C279.3,174.7,280.6,175.9,280.6,177.4z"/>
				<path class="st5" d="M290.5,177.4c0,1.5-1.2,2.7-2.7,2.7s-2.7-1.2-2.7-2.7c0-1.5,1.2-2.7,2.7-2.7S290.5,175.9,290.5,177.4z"/>
				<path class="st5" d="M300.5,177.4c0,1.5-1.2,2.7-2.7,2.7c-1.5,0-2.7-1.2-2.7-2.7c0-1.5,1.2-2.7,2.7-2.7
					C299.2,174.7,300.5,175.9,300.5,177.4z"/>
				<path class="st5" d="M250.7,186.3c0,1.5-1.2,2.7-2.7,2.7s-2.7-1.2-2.7-2.7c0-1.5,1.2-2.7,2.7-2.7S250.7,184.8,250.7,186.3z"/>
				<path class="st5" d="M260.7,186.3c0,1.5-1.2,2.7-2.7,2.7s-2.7-1.2-2.7-2.7c0-1.5,1.2-2.7,2.7-2.7S260.7,184.8,260.7,186.3z"/>
				<path class="st5" d="M270.6,186.3c0,1.5-1.2,2.7-2.7,2.7s-2.7-1.2-2.7-2.7c0-1.5,1.2-2.7,2.7-2.7S270.6,184.8,270.6,186.3z"/>
				<path class="st5" d="M280.6,186.3c0,1.5-1.2,2.7-2.7,2.7c-1.5,0-2.7-1.2-2.7-2.7c0-1.5,1.2-2.7,2.7-2.7
					C279.3,183.5,280.6,184.8,280.6,186.3z"/>
				<path class="st5" d="M290.5,186.3c0,1.5-1.2,2.7-2.7,2.7s-2.7-1.2-2.7-2.7c0-1.5,1.2-2.7,2.7-2.7S290.5,184.8,290.5,186.3z"/>
				<path class="st5" d="M300.5,186.3c0,1.5-1.2,2.7-2.7,2.7c-1.5,0-2.7-1.2-2.7-2.7c0-1.5,1.2-2.7,2.7-2.7
					C299.2,183.5,300.5,184.8,300.5,186.3z"/>
			</g>
			<rect x="153.7" y="178.4" class="st1" width="75.7" height="6"/>
			<rect x="306.4" y="166.1" class="st6" width="7.8" height="31.1"/>
			<rect x="318.8" y="177.4" class="st1" width="66.9" height="8.6"/>
		</g>
		<g>
			<path class="st5" d="M387.3,231.8H149c-7.1,0-12.9-5.8-12.9-12.9l0,0c0-7.1,5.8-12.9,12.9-12.9h238.3c7.1,0,12.9,5.8,12.9,12.9
				l0,0C400.1,226.1,394.4,231.8,387.3,231.8z"/>
			<rect x="150" y="212.3" class="st5" width="83.3" height="12.1"/>
			<g>
				<circle class="st5" cx="248" cy="214.4" r="2.7"/>
				<circle class="st5" cx="258" cy="214.4" r="2.7"/>
				<circle class="st5" cx="267.9" cy="214.4" r="2.7"/>
				<circle class="st5" cx="277.8" cy="214.4" r="2.7"/>
				<path class="st5" d="M290.5,214.4c0,1.5-1.2,2.7-2.7,2.7s-2.7-1.2-2.7-2.7s1.2-2.7,2.7-2.7S290.5,212.9,290.5,214.4z"/>
				<path class="st5" d="M300.5,214.4c0,1.5-1.2,2.7-2.7,2.7c-1.5,0-2.7-1.2-2.7-2.7s1.2-2.7,2.7-2.7
					C299.2,211.7,300.5,212.9,300.5,214.4z"/>
				<circle class="st5" cx="248" cy="223.2" r="2.7"/>
				<circle class="st5" cx="258" cy="223.2" r="2.7"/>
				<circle class="st5" cx="267.9" cy="223.2" r="2.7"/>
				<circle class="st5" cx="277.8" cy="223.2" r="2.7"/>
				<path class="st5" d="M290.5,223.2c0,1.5-1.2,2.7-2.7,2.7s-2.7-1.2-2.7-2.7s1.2-2.7,2.7-2.7S290.5,221.7,290.5,223.2z"/>
				<path class="st5" d="M300.5,223.2c0,1.5-1.2,2.7-2.7,2.7c-1.5,0-2.7-1.2-2.7-2.7s1.2-2.7,2.7-2.7
					C299.2,220.5,300.5,221.7,300.5,223.2z"/>
			</g>
			<rect x="153.7" y="215.3" class="st1" width="75.7" height="6"/>
			<rect x="306.4" y="203.1" class="st6" width="7.8" height="31.1"/>
			<rect x="318.8" y="214.3" class="st7" width="66.9" height="8.6"/>
		</g>
		<g>
			<path class="st5" d="M387.3,551.5H149c-7.1,0-12.9-5.8-12.9-12.9l0,0c0-7.1,5.8-12.9,12.9-12.9h238.3c7.1,0,12.9,5.8,12.9,12.9
				l0,0C400.1,545.8,394.4,551.5,387.3,551.5z"/>
			<rect x="150" y="532" class="st5" width="83.3" height="12.1"/>
			<g>
				<path class="st5" d="M250.7,534.1c0,1.5-1.2,2.7-2.7,2.7s-2.7-1.2-2.7-2.7s1.2-2.7,2.7-2.7S250.7,532.6,250.7,534.1z"/>
				<path class="st5" d="M260.7,534.1c0,1.5-1.2,2.7-2.7,2.7s-2.7-1.2-2.7-2.7s1.2-2.7,2.7-2.7S260.7,532.6,260.7,534.1z"/>
				<path class="st5" d="M270.6,534.1c0,1.5-1.2,2.7-2.7,2.7s-2.7-1.2-2.7-2.7s1.2-2.7,2.7-2.7S270.6,532.6,270.6,534.1z"/>
				<path class="st5" d="M280.6,534.1c0,1.5-1.2,2.7-2.7,2.7c-1.5,0-2.7-1.2-2.7-2.7s1.2-2.7,2.7-2.7
					C279.3,531.4,280.6,532.6,280.6,534.1z"/>
				<path class="st5" d="M290.5,534.1c0,1.5-1.2,2.7-2.7,2.7s-2.7-1.2-2.7-2.7s1.2-2.7,2.7-2.7S290.5,532.6,290.5,534.1z"/>
				<path class="st5" d="M300.5,534.1c0,1.5-1.2,2.7-2.7,2.7c-1.5,0-2.7-1.2-2.7-2.7s1.2-2.7,2.7-2.7
					C299.2,531.4,300.5,532.6,300.5,534.1z"/>
				<path class="st5" d="M250.7,542.9c0,1.5-1.2,2.7-2.7,2.7s-2.7-1.2-2.7-2.7c0-1.5,1.2-2.7,2.7-2.7S250.7,541.4,250.7,542.9z"/>
				<path class="st5" d="M260.7,542.9c0,1.5-1.2,2.7-2.7,2.7s-2.7-1.2-2.7-2.7c0-1.5,1.2-2.7,2.7-2.7S260.7,541.4,260.7,542.9z"/>
				<path class="st5" d="M270.6,542.9c0,1.5-1.2,2.7-2.7,2.7s-2.7-1.2-2.7-2.7c0-1.5,1.2-2.7,2.7-2.7S270.6,541.4,270.6,542.9z"/>
				<path class="st5" d="M280.6,542.9c0,1.5-1.2,2.7-2.7,2.7c-1.5,0-2.7-1.2-2.7-2.7c0-1.5,1.2-2.7,2.7-2.7
					C279.3,540.2,280.6,541.4,280.6,542.9z"/>
				<path class="st5" d="M290.5,542.9c0,1.5-1.2,2.7-2.7,2.7s-2.7-1.2-2.7-2.7c0-1.5,1.2-2.7,2.7-2.7S290.5,541.4,290.5,542.9z"/>
				<path class="st5" d="M300.5,542.9c0,1.5-1.2,2.7-2.7,2.7c-1.5,0-2.7-1.2-2.7-2.7c0-1.5,1.2-2.7,2.7-2.7
					C299.2,540.2,300.5,541.4,300.5,542.9z"/>
			</g>
			<rect x="153.7" y="535" class="st1" width="75.7" height="6"/>
			<rect x="306.4" y="522.8" class="st6" width="7.8" height="31.1"/>
			<path class="st5" d="M387.3,525.8h-80.9v25.8h80.9c7.1,0,12.9-5.8,12.9-12.9C400.1,531.5,394.4,525.8,387.3,525.8z"/>
			<rect x="318.8" y="534" class="st7" width="66.9" height="8.6"/>
		</g>
		<g>
			<path class="st5" d="M387.3,268.8H149c-7.1,0-12.9-5.8-12.9-12.9l0,0c0-7.1,5.8-12.9,12.9-12.9h238.3c7.1,0,12.9,5.8,12.9,12.9
				l0,0C400.1,263,394.4,268.8,387.3,268.8z"/>
			<rect x="150" y="249.3" class="st5" width="83.3" height="12.1"/>
			<g>
				<path class="st5" d="M250.7,251.4c0,1.5-1.2,2.7-2.7,2.7s-2.7-1.2-2.7-2.7c0-1.5,1.2-2.7,2.7-2.7S250.7,249.9,250.7,251.4z"/>
				<path class="st5" d="M260.7,251.4c0,1.5-1.2,2.7-2.7,2.7s-2.7-1.2-2.7-2.7c0-1.5,1.2-2.7,2.7-2.7S260.7,249.9,260.7,251.4z"/>
				<path class="st5" d="M270.6,251.4c0,1.5-1.2,2.7-2.7,2.7s-2.7-1.2-2.7-2.7c0-1.5,1.2-2.7,2.7-2.7S270.6,249.9,270.6,251.4z"/>
				<path class="st5" d="M280.6,251.4c0,1.5-1.2,2.7-2.7,2.7c-1.5,0-2.7-1.2-2.7-2.7c0-1.5,1.2-2.7,2.7-2.7
					C279.3,248.6,280.6,249.9,280.6,251.4z"/>
				<path class="st5" d="M290.5,251.4c0,1.5-1.2,2.7-2.7,2.7s-2.7-1.2-2.7-2.7c0-1.5,1.2-2.7,2.7-2.7S290.5,249.9,290.5,251.4z"/>
				<path class="st5" d="M300.5,251.4c0,1.5-1.2,2.7-2.7,2.7c-1.5,0-2.7-1.2-2.7-2.7c0-1.5,1.2-2.7,2.7-2.7
					C299.2,248.6,300.5,249.9,300.5,251.4z"/>
				<path class="st5" d="M250.7,260.2c0,1.5-1.2,2.7-2.7,2.7s-2.7-1.2-2.7-2.7c0-1.5,1.2-2.7,2.7-2.7S250.7,258.7,250.7,260.2z"/>
				<path class="st5" d="M260.7,260.2c0,1.5-1.2,2.7-2.7,2.7s-2.7-1.2-2.7-2.7c0-1.5,1.2-2.7,2.7-2.7S260.7,258.7,260.7,260.2z"/>
				<path class="st5" d="M270.6,260.2c0,1.5-1.2,2.7-2.7,2.7s-2.7-1.2-2.7-2.7c0-1.5,1.2-2.7,2.7-2.7S270.6,258.7,270.6,260.2z"/>
				<path class="st5" d="M280.6,260.2c0,1.5-1.2,2.7-2.7,2.7c-1.5,0-2.7-1.2-2.7-2.7c0-1.5,1.2-2.7,2.7-2.7
					C279.3,257.5,280.6,258.7,280.6,260.2z"/>
				<path class="st5" d="M290.5,260.2c0,1.5-1.2,2.7-2.7,2.7s-2.7-1.2-2.7-2.7c0-1.5,1.2-2.7,2.7-2.7S290.5,258.7,290.5,260.2z"/>
				<path class="st5" d="M300.5,260.2c0,1.5-1.2,2.7-2.7,2.7c-1.5,0-2.7-1.2-2.7-2.7c0-1.5,1.2-2.7,2.7-2.7
					C299.2,257.5,300.5,258.7,300.5,260.2z"/>
			</g>
			<rect x="153.7" y="252.3" class="st1" width="75.7" height="6"/>
			<rect x="306.4" y="240" class="st6" width="7.8" height="31.1"/>
			<rect x="318.8" y="251.3" class="st7" width="66.9" height="8.6"/>
		</g>
		<g>
			<path class="st5" d="M387.3,305.8H149c-7.1,0-12.9-5.8-12.9-12.9l0,0c0-7.1,5.8-12.9,12.9-12.9h238.3c7.1,0,12.9,5.8,12.9,12.9
				l0,0C400.1,300,394.4,305.8,387.3,305.8z"/>
			<rect x="150" y="286.2" class="st5" width="83.3" height="12.1"/>
			<g>
				<circle class="st5" cx="248" cy="288.3" r="2.7"/>
				<circle class="st5" cx="258" cy="288.3" r="2.7"/>
				<circle class="st5" cx="267.9" cy="288.3" r="2.7"/>
				<circle class="st5" cx="277.8" cy="288.3" r="2.7"/>
				<path class="st5" d="M290.5,288.3c0,1.5-1.2,2.7-2.7,2.7s-2.7-1.2-2.7-2.7s1.2-2.7,2.7-2.7S290.5,286.8,290.5,288.3z"/>
				<path class="st5" d="M300.5,288.3c0,1.5-1.2,2.7-2.7,2.7c-1.5,0-2.7-1.2-2.7-2.7s1.2-2.7,2.7-2.7
					C299.2,285.6,300.5,286.8,300.5,288.3z"/>
				<circle class="st5" cx="248" cy="297.1" r="2.7"/>
				<circle class="st5" cx="258" cy="297.1" r="2.7"/>
				<circle class="st5" cx="267.9" cy="297.1" r="2.7"/>
				<circle class="st5" cx="277.8" cy="297.1" r="2.7"/>
				<path class="st5" d="M290.5,297.1c0,1.5-1.2,2.7-2.7,2.7s-2.7-1.2-2.7-2.7s1.2-2.7,2.7-2.7S290.5,295.6,290.5,297.1z"/>
				<path class="st5" d="M300.5,297.1c0,1.5-1.2,2.7-2.7,2.7c-1.5,0-2.7-1.2-2.7-2.7s1.2-2.7,2.7-2.7
					C299.2,294.4,300.5,295.6,300.5,297.1z"/>
			</g>
			<rect x="153.7" y="289.2" class="st1" width="75.7" height="6"/>
			<rect x="306.4" y="277" class="st6" width="7.8" height="31.1"/>
			<path class="st5" d="M387.3,280h-80.9v25.8h80.9c7.1,0,12.9-5.8,12.9-12.9S394.4,280,387.3,280z"/>
			<rect x="318.8" y="288.2" class="st7" width="66.9" height="8.6"/>
		</g>
		<g>
			<path class="st5" d="M393.5,345.7H142.7c-3.6,0-6.6-3-6.6-6.6v-12.6c0-3.6,3-6.6,6.6-6.6h250.8c3.6,0,6.6,3,6.6,6.6v12.6
				C400.1,342.8,397.2,345.7,393.5,345.7z"/>
			<rect x="150" y="326.2" class="st5" width="83.3" height="12.1"/>
			<g>
				<path class="st5" d="M250.7,328.3c0,1.5-1.2,2.7-2.7,2.7s-2.7-1.2-2.7-2.7c0-1.5,1.2-2.7,2.7-2.7S250.7,326.8,250.7,328.3z"/>
				<path class="st5" d="M260.7,328.3c0,1.5-1.2,2.7-2.7,2.7s-2.7-1.2-2.7-2.7c0-1.5,1.2-2.7,2.7-2.7S260.7,326.8,260.7,328.3z"/>
				<path class="st5" d="M270.6,328.3c0,1.5-1.2,2.7-2.7,2.7s-2.7-1.2-2.7-2.7c0-1.5,1.2-2.7,2.7-2.7S270.6,326.8,270.6,328.3z"/>
				<path class="st5" d="M280.6,328.3c0,1.5-1.2,2.7-2.7,2.7c-1.5,0-2.7-1.2-2.7-2.7c0-1.5,1.2-2.7,2.7-2.7
					C279.3,325.6,280.6,326.8,280.6,328.3z"/>
				<path class="st5" d="M290.5,328.3c0,1.5-1.2,2.7-2.7,2.7s-2.7-1.2-2.7-2.7c0-1.5,1.2-2.7,2.7-2.7S290.5,326.8,290.5,328.3z"/>
				<path class="st5" d="M300.5,328.3c0,1.5-1.2,2.7-2.7,2.7c-1.5,0-2.7-1.2-2.7-2.7c0-1.5,1.2-2.7,2.7-2.7
					C299.2,325.6,300.5,326.8,300.5,328.3z"/>
				<path class="st5" d="M250.7,337.1c0,1.5-1.2,2.7-2.7,2.7s-2.7-1.2-2.7-2.7c0-1.5,1.2-2.7,2.7-2.7S250.7,335.6,250.7,337.1z"/>
				<path class="st5" d="M260.7,337.1c0,1.5-1.2,2.7-2.7,2.7s-2.7-1.2-2.7-2.7c0-1.5,1.2-2.7,2.7-2.7S260.7,335.6,260.7,337.1z"/>
				<path class="st5" d="M270.6,337.1c0,1.5-1.2,2.7-2.7,2.7s-2.7-1.2-2.7-2.7c0-1.5,1.2-2.7,2.7-2.7S270.6,335.6,270.6,337.1z"/>
				<path class="st5" d="M280.6,337.1c0,1.5-1.2,2.7-2.7,2.7c-1.5,0-2.7-1.2-2.7-2.7c0-1.5,1.2-2.7,2.7-2.7
					C279.3,334.4,280.6,335.6,280.6,337.1z"/>
				<path class="st5" d="M290.5,337.1c0,1.5-1.2,2.7-2.7,2.7s-2.7-1.2-2.7-2.7c0-1.5,1.2-2.7,2.7-2.7S290.5,335.6,290.5,337.1z"/>
				<path class="st5" d="M300.5,337.1c0,1.5-1.2,2.7-2.7,2.7c-1.5,0-2.7-1.2-2.7-2.7c0-1.5,1.2-2.7,2.7-2.7
					C299.2,334.4,300.5,335.6,300.5,337.1z"/>
			</g>
			<rect x="153.7" y="329.2" class="st1" width="75.7" height="6"/>
			<rect x="306.4" y="316.9" class="st6" width="7.8" height="31.1"/>
			<path class="st6" d="M387.3,320h-80.9v25.8h80.9c7.1,0,12.9-5.8,12.9-12.9C400.1,325.7,394.4,320,387.3,320z"/>
			<rect x="318.8" y="328.2" class="st8" width="66.9" height="8.6"/>
		</g>
		<g>
			<path class="st5" d="M393.5,381.7H142.7c-3.6,0-6.6-3-6.6-6.6v-12.6c0-3.6,3-6.6,6.6-6.6h250.8c3.6,0,6.6,3,6.6,6.6v12.6
				C400.1,378.7,397.2,381.7,393.5,381.7z"/>
			<rect x="150" y="362.1" class="st5" width="83.3" height="12.1"/>
			<g>
				<path class="st5" d="M250.7,364.3c0,1.5-1.2,2.7-2.7,2.7s-2.7-1.2-2.7-2.7c0-1.5,1.2-2.7,2.7-2.7S250.7,362.8,250.7,364.3z"/>
				<path class="st5" d="M260.7,364.3c0,1.5-1.2,2.7-2.7,2.7s-2.7-1.2-2.7-2.7c0-1.5,1.2-2.7,2.7-2.7S260.7,362.8,260.7,364.3z"/>
				<path class="st5" d="M270.6,364.3c0,1.5-1.2,2.7-2.7,2.7s-2.7-1.2-2.7-2.7c0-1.5,1.2-2.7,2.7-2.7S270.6,362.8,270.6,364.3z"/>
				<path class="st5" d="M280.6,364.3c0,1.5-1.2,2.7-2.7,2.7c-1.5,0-2.7-1.2-2.7-2.7c0-1.5,1.2-2.7,2.7-2.7
					C279.3,361.5,280.6,362.8,280.6,364.3z"/>
				<path class="st5" d="M290.5,364.3c0,1.5-1.2,2.7-2.7,2.7s-2.7-1.2-2.7-2.7c0-1.5,1.2-2.7,2.7-2.7S290.5,362.8,290.5,364.3z"/>
				<path class="st5" d="M300.5,364.3c0,1.5-1.2,2.7-2.7,2.7c-1.5,0-2.7-1.2-2.7-2.7c0-1.5,1.2-2.7,2.7-2.7
					C299.2,361.5,300.5,362.8,300.5,364.3z"/>
				<path class="st5" d="M250.7,373.1c0,1.5-1.2,2.7-2.7,2.7s-2.7-1.2-2.7-2.7c0-1.5,1.2-2.7,2.7-2.7S250.7,371.6,250.7,373.1z"/>
				<path class="st5" d="M260.7,373.1c0,1.5-1.2,2.7-2.7,2.7s-2.7-1.2-2.7-2.7c0-1.5,1.2-2.7,2.7-2.7S260.7,371.6,260.7,373.1z"/>
				<path class="st5" d="M270.6,373.1c0,1.5-1.2,2.7-2.7,2.7s-2.7-1.2-2.7-2.7c0-1.5,1.2-2.7,2.7-2.7S270.6,371.6,270.6,373.1z"/>
				<path class="st5" d="M280.6,373.1c0,1.5-1.2,2.7-2.7,2.7c-1.5,0-2.7-1.2-2.7-2.7c0-1.5,1.2-2.7,2.7-2.7
					C279.3,370.4,280.6,371.6,280.6,373.1z"/>
				<path class="st5" d="M290.5,373.1c0,1.5-1.2,2.7-2.7,2.7s-2.7-1.2-2.7-2.7c0-1.5,1.2-2.7,2.7-2.7S290.5,371.6,290.5,373.1z"/>
				<path class="st5" d="M300.5,373.1c0,1.5-1.2,2.7-2.7,2.7c-1.5,0-2.7-1.2-2.7-2.7c0-1.5,1.2-2.7,2.7-2.7
					C299.2,370.4,300.5,371.6,300.5,373.1z"/>
			</g>
			<rect x="153.7" y="365.2" class="st1" width="75.7" height="6"/>
			<rect x="306.4" y="352.9" class="st6" width="7.8" height="31.1"/>
			<path class="st6" d="M387.3,355.9h-80.9v25.8h80.9c7.1,0,12.9-5.8,12.9-12.9C400.1,361.7,394.4,355.9,387.3,355.9z"/>
			<rect x="318.8" y="364.2" class="st8" width="66.9" height="8.6"/>
		</g>
	</g>
	<line class="st9" x1="17.5" y1="651.9" x2="809.5" y2="651.9"/>
	<g>
		<g>
			<polygon class="st10" points="588,65.6 577.3,48.5 482.8,48.5 482.8,65.6 482.8,71.8 482.8,355.8 762.9,355.8 762.9,65.6 			"/>
			<g>
				<defs>
					<rect id="XMLID_5_" x="485.6" y="73.5" width="274.7" height="276.1"/>
				</defs>
				<use xlink:href="#XMLID_5_"  style="overflow:visible;fill:#FFFFFF;"/>
				<clipPath id="XMLID_00000051350061431333543090000006273196612818290854_">
					<use xlink:href="#XMLID_5_"  style="overflow:visible;"/>
				</clipPath>
				
					<rect x="753.3" y="71.1" style="opacity:0.17;clip-path:url(#XMLID_00000051350061431333543090000006273196612818290854_);" width="8.9" height="280.6"/>
				
					<rect x="753.3" y="241.4" style="opacity:0.17;clip-path:url(#XMLID_00000051350061431333543090000006273196612818290854_);" width="8.9" height="108"/>
				
					<rect x="484.1" y="69.8" style="clip-path:url(#XMLID_00000051350061431333543090000006273196612818290854_);fill:#6366F1;stroke:#1A2E35;stroke-miterlimit:10;" width="276.7" height="15.1"/>
				
					<use xlink:href="#XMLID_5_"  style="overflow:visible;fill:none;stroke:#1A2E35;stroke-linecap:round;stroke-linejoin:round;stroke-miterlimit:10;"/>
			</g>
			<g class="st13">
				<path d="M685.6,99.4h-26.8c-1.3,0-2.4-1.1-2.4-2.4l0,0c0-1.3,1.1-2.4,2.4-2.4h26.8c1.3,0,2.4,1.1,2.4,2.4l0,0
					C687.9,98.3,686.9,99.4,685.6,99.4z"/>
				<path d="M739.3,99.4h-26.8c-1.3,0-2.4-1.1-2.4-2.4l0,0c0-1.3,1.1-2.4,2.4-2.4h26.8c1.3,0,2.4,1.1,2.4,2.4l0,0
					C741.6,98.3,740.6,99.4,739.3,99.4z"/>
			</g>
		</g>
		<g>
			<g>
				<g>
					<path class="st10" d="M555.9,150.3c-0.1-0.1-0.1-0.2-0.1-0.3c0-0.2,0.1-0.4,0.3-0.5c0.2-0.2,0.4-0.3,0.6-0.3
						c0.1,0,0.2,0,0.3,0.1c0.5,0.4,1.1,0.7,1.8,1c0.7,0.3,1.5,0.4,2.3,0.4c1.1,0,2-0.2,2.6-0.7c0.7-0.5,1-1.1,1-1.9
						c0-0.4-0.1-0.8-0.2-1.1c-0.1-0.3-0.3-0.5-0.5-0.8c-0.3-0.2-0.5-0.4-0.8-0.5c-0.3-0.1-0.7-0.3-1.2-0.5l-2.7-0.9
						c-1.1-0.4-1.9-0.8-2.5-1.4c-0.6-0.6-0.8-1.3-0.8-2.3c0-0.8,0.2-1.5,0.7-2.1c0.5-0.6,1.1-1,1.9-1.4c0.8-0.3,1.6-0.5,2.6-0.5
						c1,0,1.9,0.2,2.8,0.5c0.9,0.3,1.5,0.7,2,1.1c0.1,0.1,0.2,0.3,0.2,0.4c0,0.2-0.1,0.3-0.2,0.5c-0.1,0.1-0.3,0.2-0.5,0.2
						c-0.1,0-0.3,0-0.4-0.1c-0.4-0.3-0.9-0.6-1.6-0.8c-0.7-0.3-1.4-0.4-2.2-0.4c-1.1,0-2,0.2-2.7,0.7c-0.7,0.5-1,1.1-1,1.8
						c0,0.6,0.2,1.1,0.6,1.5c0.4,0.4,1,0.7,1.9,1l2.8,0.9c0.6,0.2,1.1,0.4,1.5,0.6c0.4,0.2,0.8,0.5,1.1,0.8c0.3,0.3,0.6,0.7,0.8,1.1
						c0.2,0.4,0.3,0.9,0.3,1.5c0,1.4-0.5,2.4-1.5,3.2c-1,0.7-2.3,1.1-4,1.1C558.9,152.2,557.2,151.6,555.9,150.3z"/>
					<path class="st10" d="M573.7,152.2c-1.4,0-2.6-0.5-3.6-1.5c-1-1-1.5-2.3-1.5-3.9c0-1,0.2-1.9,0.6-2.7c0.4-0.8,1-1.5,1.7-2
						c0.8-0.5,1.7-0.8,2.7-0.8c0.7,0,1.3,0.1,1.8,0.3c0.5,0.2,1,0.4,1.3,0.7s0.6,0.7,0.9,1.1c0.2,0.4,0.4,0.9,0.5,1.4
						c0.1,0.5,0.2,1,0.2,1.6c0,0.2-0.1,0.3-0.2,0.4c-0.1,0.1-0.3,0.2-0.5,0.2h-7.5c0,1.3,0.3,2.3,1,3c0.7,0.7,1.5,1.1,2.6,1.1
						c0.7,0,1.3-0.1,1.9-0.4c0.5-0.2,1-0.6,1.6-1c0.1-0.1,0.3-0.2,0.4-0.2c0.1,0,0.2,0,0.3,0.1c0.1,0.1,0.1,0.2,0.1,0.4
						c0,0.2-0.1,0.4-0.3,0.5c-0.5,0.5-1.1,0.9-1.7,1.2C575.5,152,574.7,152.2,573.7,152.2L573.7,152.2z M577,146
						c-0.1-1.1-0.4-2-0.9-2.7c-0.5-0.7-1.3-1-2.3-1c-1.1,0-1.9,0.4-2.5,1.1c-0.6,0.7-1,1.6-1,2.6H577z"/>
					<path class="st10" d="M581.7,151.8c-0.1-0.1-0.2-0.3-0.2-0.5v-9c0-0.2,0.1-0.4,0.2-0.5c0.2-0.1,0.3-0.2,0.5-0.2
						c0.2,0,0.4,0.1,0.5,0.2c0.2,0.1,0.2,0.3,0.2,0.5v1.2c0.2-0.7,0.5-1.2,1-1.6c0.5-0.4,1.2-0.7,2-0.7c0.2,0,0.3,0.1,0.4,0.2
						c0.1,0.1,0.2,0.3,0.2,0.5c0,0.2-0.1,0.3-0.2,0.4c-0.1,0.1-0.3,0.2-0.5,0.2c-0.5,0-1,0.1-1.4,0.3c-0.4,0.2-0.7,0.4-0.9,0.7
						c-0.2,0.3-0.4,0.6-0.5,0.9c-0.1,0.3-0.2,0.6-0.2,0.9v5.9c0,0.2-0.1,0.4-0.2,0.5c-0.2,0.1-0.3,0.2-0.6,0.2
						C582,152,581.8,151.9,581.7,151.8z"/>
					<path class="st10" d="M591.8,151.7c-0.2-0.2-0.4-0.5-0.5-0.9l-3.5-8.3c0-0.1,0-0.1,0-0.2c0-0.2,0.1-0.4,0.3-0.5
						c0.2-0.2,0.4-0.2,0.6-0.2c0.3,0,0.5,0.2,0.6,0.5l3.4,8.3l3.5-8.3c0.1-0.3,0.3-0.5,0.6-0.5c0.2,0,0.4,0.1,0.6,0.2
						c0.2,0.2,0.3,0.3,0.3,0.5c0,0.1,0,0.2,0,0.2l-3.5,8.3c-0.2,0.4-0.4,0.8-0.6,0.9c-0.2,0.2-0.4,0.3-0.8,0.3
						S592,151.9,591.8,151.7z"/>
					<path class="st10" d="M604,152.2c-1.4,0-2.6-0.5-3.6-1.5s-1.5-2.3-1.5-3.9c0-1,0.2-1.9,0.6-2.7c0.4-0.8,1-1.5,1.7-2
						c0.8-0.5,1.7-0.8,2.7-0.8c0.7,0,1.3,0.1,1.8,0.3c0.5,0.2,1,0.4,1.3,0.7c0.3,0.3,0.6,0.7,0.9,1.1c0.2,0.4,0.4,0.9,0.5,1.4
						c0.1,0.5,0.2,1,0.2,1.6c0,0.2-0.1,0.3-0.2,0.4c-0.1,0.1-0.3,0.2-0.5,0.2h-7.5c0,1.3,0.3,2.3,1,3c0.7,0.7,1.5,1.1,2.6,1.1
						c0.7,0,1.3-0.1,1.9-0.4c0.5-0.2,1-0.6,1.6-1c0.1-0.1,0.3-0.2,0.4-0.2c0.1,0,0.2,0,0.3,0.1c0.1,0.1,0.1,0.2,0.1,0.4
						c0,0.2-0.1,0.4-0.3,0.5c-0.5,0.5-1.1,0.9-1.7,1.2C605.8,152,605,152.2,604,152.2L604,152.2z M607.3,146c-0.1-1.1-0.4-2-0.9-2.7
						c-0.5-0.7-1.3-1-2.3-1c-1.1,0-1.9,0.4-2.5,1.1c-0.6,0.7-1,1.6-1,2.6H607.3z"/>
					<path class="st10" d="M611.9,151.8c-0.1-0.1-0.2-0.3-0.2-0.5v-9c0-0.2,0.1-0.4,0.2-0.5c0.2-0.1,0.3-0.2,0.5-0.2
						c0.2,0,0.4,0.1,0.5,0.2c0.2,0.1,0.2,0.3,0.2,0.5v1.2c0.2-0.7,0.5-1.2,1-1.6c0.5-0.4,1.2-0.7,2-0.7c0.2,0,0.3,0.1,0.4,0.2
						c0.1,0.1,0.2,0.3,0.2,0.5c0,0.2-0.1,0.3-0.2,0.4c-0.1,0.1-0.3,0.2-0.5,0.2c-0.5,0-1,0.1-1.4,0.3c-0.4,0.2-0.7,0.4-0.9,0.7
						c-0.2,0.3-0.4,0.6-0.5,0.9c-0.1,0.3-0.2,0.6-0.2,0.9v5.9c0,0.2-0.1,0.4-0.2,0.5c-0.2,0.1-0.3,0.2-0.6,0.2
						C612.2,152,612.1,151.9,611.9,151.8z"/>
					<path class="st10" d="M629.8,151.8c-0.2-0.1-0.2-0.3-0.2-0.6v-12.4l-2.4,1.6c-0.1,0.1-0.2,0.1-0.3,0.1c-0.2,0-0.3-0.1-0.5-0.2
						c-0.1-0.1-0.2-0.3-0.2-0.5c0-0.2,0.1-0.3,0.3-0.5l3.5-2.3c0.1-0.1,0.3-0.1,0.5-0.1c0.2,0,0.4,0.1,0.6,0.2
						c0.2,0.1,0.2,0.3,0.2,0.6l0,13.4c0,0.3-0.1,0.4-0.2,0.6s-0.4,0.2-0.6,0.2C630.2,152,630,151.9,629.8,151.8z"/>
				</g>
				<g>
					<rect x="500.7" y="135.3" class="st1" width="34.2" height="8.7"/>
					<rect x="500.7" y="145.3" class="st1" width="34.2" height="8.7"/>
					<rect x="536.4" y="135.4" class="st1" width="6.1" height="18.6"/>
				</g>
			</g>
			<g>
				<g>
					<path class="st10" d="M555.9,189.7c-0.1-0.1-0.1-0.2-0.1-0.3c0-0.2,0.1-0.4,0.3-0.5c0.2-0.2,0.4-0.3,0.6-0.3
						c0.1,0,0.2,0,0.3,0.1c0.5,0.4,1.1,0.7,1.8,1c0.7,0.3,1.5,0.4,2.3,0.4c1.1,0,2-0.2,2.6-0.7c0.7-0.5,1-1.1,1-1.9
						c0-0.4-0.1-0.8-0.2-1.1c-0.1-0.3-0.3-0.5-0.5-0.8c-0.3-0.2-0.5-0.4-0.8-0.5c-0.3-0.1-0.7-0.3-1.2-0.5l-2.7-0.9
						c-1.1-0.4-1.9-0.8-2.5-1.4c-0.6-0.6-0.8-1.3-0.8-2.3c0-0.8,0.2-1.5,0.7-2.1c0.5-0.6,1.1-1,1.9-1.4c0.8-0.3,1.6-0.5,2.6-0.5
						c1,0,1.9,0.2,2.8,0.5s1.5,0.7,2,1.1c0.1,0.1,0.2,0.3,0.2,0.4c0,0.2-0.1,0.3-0.2,0.5c-0.1,0.1-0.3,0.2-0.5,0.2
						c-0.1,0-0.3,0-0.4-0.1c-0.4-0.3-0.9-0.6-1.6-0.8c-0.7-0.3-1.4-0.4-2.2-0.4c-1.1,0-2,0.2-2.7,0.7c-0.7,0.5-1,1.1-1,1.8
						c0,0.6,0.2,1.1,0.6,1.5c0.4,0.4,1,0.7,1.9,1l2.8,0.9c0.6,0.2,1.1,0.4,1.5,0.6c0.4,0.2,0.8,0.5,1.1,0.8s0.6,0.7,0.8,1.1
						c0.2,0.4,0.3,0.9,0.3,1.5c0,1.4-0.5,2.4-1.5,3.2c-1,0.7-2.3,1.1-4,1.1C558.9,191.6,557.2,190.9,555.9,189.7z"/>
					<path class="st10" d="M573.7,191.6c-1.4,0-2.6-0.5-3.6-1.5c-1-1-1.5-2.3-1.5-3.9c0-1,0.2-1.9,0.6-2.7c0.4-0.8,1-1.5,1.7-2
						c0.8-0.5,1.7-0.8,2.7-0.8c0.7,0,1.3,0.1,1.8,0.3c0.5,0.2,1,0.4,1.3,0.7c0.3,0.3,0.6,0.7,0.9,1.1c0.2,0.4,0.4,0.9,0.5,1.4
						c0.1,0.5,0.2,1,0.2,1.6c0,0.2-0.1,0.3-0.2,0.4c-0.1,0.1-0.3,0.2-0.5,0.2h-7.5c0,1.3,0.3,2.3,1,3c0.7,0.7,1.5,1.1,2.6,1.1
						c0.7,0,1.3-0.1,1.9-0.4c0.5-0.2,1-0.6,1.6-1c0.1-0.1,0.3-0.2,0.4-0.2c0.1,0,0.2,0,0.3,0.1c0.1,0.1,0.1,0.2,0.1,0.4
						c0,0.2-0.1,0.4-0.3,0.5c-0.5,0.5-1.1,0.9-1.7,1.2C575.5,191.4,574.7,191.6,573.7,191.6L573.7,191.6z M577,185.4
						c-0.1-1.1-0.4-2-0.9-2.7c-0.5-0.7-1.3-1-2.3-1c-1.1,0-1.9,0.4-2.5,1.1c-0.6,0.7-1,1.6-1,2.6H577z"/>
					<path class="st10" d="M581.7,191.1c-0.1-0.1-0.2-0.3-0.2-0.5v-9c0-0.2,0.1-0.4,0.2-0.5c0.2-0.1,0.3-0.2,0.5-0.2
						c0.2,0,0.4,0.1,0.5,0.2c0.2,0.1,0.2,0.3,0.2,0.5v1.2c0.2-0.7,0.5-1.2,1-1.6c0.5-0.4,1.2-0.7,2-0.7c0.2,0,0.3,0.1,0.4,0.2
						c0.1,0.1,0.2,0.3,0.2,0.5c0,0.2-0.1,0.3-0.2,0.4c-0.1,0.1-0.3,0.2-0.5,0.2c-0.5,0-1,0.1-1.4,0.3c-0.4,0.2-0.7,0.4-0.9,0.7
						c-0.2,0.3-0.4,0.6-0.5,0.9c-0.1,0.3-0.2,0.6-0.2,0.9v5.9c0,0.2-0.1,0.4-0.2,0.5c-0.2,0.1-0.3,0.2-0.6,0.2
						C582,191.3,581.8,191.3,581.7,191.1z"/>
					<path class="st10" d="M591.8,191.1c-0.2-0.2-0.4-0.5-0.5-0.9l-3.5-8.3c0-0.1,0-0.1,0-0.2c0-0.2,0.1-0.4,0.3-0.5
						c0.2-0.2,0.4-0.2,0.6-0.2c0.3,0,0.5,0.2,0.6,0.5l3.4,8.3l3.5-8.3c0.1-0.3,0.3-0.5,0.6-0.5c0.2,0,0.4,0.1,0.6,0.2
						c0.2,0.2,0.3,0.3,0.3,0.5c0,0.1,0,0.2,0,0.2l-3.5,8.3c-0.2,0.4-0.4,0.8-0.6,0.9c-0.2,0.2-0.4,0.3-0.8,0.3
						S592,191.2,591.8,191.1z"/>
					<path class="st10" d="M604,191.6c-1.4,0-2.6-0.5-3.6-1.5c-1-1-1.5-2.3-1.5-3.9c0-1,0.2-1.9,0.6-2.7c0.4-0.8,1-1.5,1.7-2
						c0.8-0.5,1.7-0.8,2.7-0.8c0.7,0,1.3,0.1,1.8,0.3c0.5,0.2,1,0.4,1.3,0.7c0.3,0.3,0.6,0.7,0.9,1.1c0.2,0.4,0.4,0.9,0.5,1.4
						c0.1,0.5,0.2,1,0.2,1.6c0,0.2-0.1,0.3-0.2,0.4c-0.1,0.1-0.3,0.2-0.5,0.2h-7.5c0,1.3,0.3,2.3,1,3c0.7,0.7,1.5,1.1,2.6,1.1
						c0.7,0,1.3-0.1,1.9-0.4c0.5-0.2,1-0.6,1.6-1c0.1-0.1,0.3-0.2,0.4-0.2c0.1,0,0.2,0,0.3,0.1c0.1,0.1,0.1,0.2,0.1,0.4
						c0,0.2-0.1,0.4-0.3,0.5c-0.5,0.5-1.1,0.9-1.7,1.2C605.8,191.4,605,191.6,604,191.6L604,191.6z M607.3,185.4
						c-0.1-1.1-0.4-2-0.9-2.7c-0.5-0.7-1.3-1-2.3-1c-1.1,0-1.9,0.4-2.5,1.1c-0.6,0.7-1,1.6-1,2.6H607.3z"/>
					<path class="st10" d="M611.9,191.1c-0.1-0.1-0.2-0.3-0.2-0.5v-9c0-0.2,0.1-0.4,0.2-0.5c0.2-0.1,0.3-0.2,0.5-0.2
						c0.2,0,0.4,0.1,0.5,0.2c0.2,0.1,0.2,0.3,0.2,0.5v1.2c0.2-0.7,0.5-1.2,1-1.6c0.5-0.4,1.2-0.7,2-0.7c0.2,0,0.3,0.1,0.4,0.2
						c0.1,0.1,0.2,0.3,0.2,0.5c0,0.2-0.1,0.3-0.2,0.4c-0.1,0.1-0.3,0.2-0.5,0.2c-0.5,0-1,0.1-1.4,0.3c-0.4,0.2-0.7,0.4-0.9,0.7
						c-0.2,0.3-0.4,0.6-0.5,0.9s-0.2,0.6-0.2,0.9v5.9c0,0.2-0.1,0.4-0.2,0.5c-0.2,0.1-0.3,0.2-0.6,0.2
						C612.2,191.3,612.1,191.3,611.9,191.1z"/>
					<path class="st10" d="M625.4,191.1c-0.3-0.2-0.4-0.4-0.4-0.7c0-0.3,0.2-0.6,0.5-0.9l5.5-5.6c0.6-0.6,1.1-1.2,1.4-1.7
						c0.3-0.5,0.4-1.1,0.4-1.6c0-0.9-0.3-1.6-0.9-2.2c-0.6-0.6-1.3-0.8-2.1-0.8c-0.5,0-1,0-1.4,0.1c-0.4,0.1-0.7,0.2-0.9,0.2
						c-0.2,0.1-0.4,0.2-0.7,0.4c-0.3,0.2-0.5,0.3-0.6,0.3c-0.1,0.1-0.2,0.1-0.3,0.1c-0.2,0-0.3-0.1-0.5-0.2s-0.2-0.3-0.2-0.5
						c0-0.2,0.1-0.4,0.3-0.6c0.5-0.3,0.8-0.5,1.1-0.7c0.3-0.2,0.7-0.3,1.3-0.4c0.6-0.1,1.2-0.2,1.9-0.2c1.3,0,2.3,0.4,3.2,1.2
						c0.9,0.8,1.3,1.8,1.3,3c0,0.8-0.2,1.6-0.6,2.3c-0.4,0.7-1,1.5-1.9,2.4l-5,5h6.6c0.2,0,0.4,0.1,0.6,0.2c0.1,0.1,0.2,0.3,0.2,0.5
						c0,0.2-0.1,0.3-0.2,0.5c-0.1,0.1-0.3,0.2-0.6,0.2h-7.1C626,191.3,625.7,191.2,625.4,191.1z"/>
				</g>
				<g>
					<rect x="500.7" y="174.7" class="st1" width="34.2" height="8.7"/>
					<rect x="500.7" y="184.6" class="st1" width="34.2" height="8.7"/>
					<rect x="536.4" y="174.8" class="st1" width="6.1" height="18.6"/>
				</g>
			</g>
			<g>
				<g>
					<path class="st10" d="M555.9,229.1c-0.1-0.1-0.1-0.2-0.1-0.3c0-0.2,0.1-0.4,0.3-0.5c0.2-0.2,0.4-0.3,0.6-0.3
						c0.1,0,0.2,0,0.3,0.1c0.5,0.4,1.1,0.7,1.8,1c0.7,0.3,1.5,0.4,2.3,0.4c1.1,0,2-0.2,2.6-0.7c0.7-0.5,1-1.1,1-1.9
						c0-0.4-0.1-0.8-0.2-1.1c-0.1-0.3-0.3-0.5-0.5-0.8s-0.5-0.4-0.8-0.5c-0.3-0.1-0.7-0.3-1.2-0.5l-2.7-0.9
						c-1.1-0.4-1.9-0.8-2.5-1.4c-0.6-0.6-0.8-1.3-0.8-2.3c0-0.8,0.2-1.5,0.7-2.1c0.5-0.6,1.1-1,1.9-1.4c0.8-0.3,1.6-0.5,2.6-0.5
						c1,0,1.9,0.2,2.8,0.5s1.5,0.7,2,1.1c0.1,0.1,0.2,0.3,0.2,0.4c0,0.2-0.1,0.3-0.2,0.5c-0.1,0.1-0.3,0.2-0.5,0.2
						c-0.1,0-0.3,0-0.4-0.1c-0.4-0.3-0.9-0.6-1.6-0.8c-0.7-0.3-1.4-0.4-2.2-0.4c-1.1,0-2,0.2-2.7,0.7c-0.7,0.5-1,1.1-1,1.8
						c0,0.6,0.2,1.1,0.6,1.5c0.4,0.4,1,0.7,1.9,1l2.8,0.9c0.6,0.2,1.1,0.4,1.5,0.6c0.4,0.2,0.8,0.5,1.1,0.8c0.3,0.3,0.6,0.7,0.8,1.1
						s0.3,0.9,0.3,1.5c0,1.4-0.5,2.4-1.5,3.2c-1,0.7-2.3,1.1-4,1.1C558.9,230.9,557.2,230.3,555.9,229.1z"/>
					<path class="st10" d="M573.7,230.9c-1.4,0-2.6-0.5-3.6-1.5c-1-1-1.5-2.3-1.5-3.9c0-1,0.2-1.9,0.6-2.7c0.4-0.8,1-1.5,1.7-2
						c0.8-0.5,1.7-0.8,2.7-0.8c0.7,0,1.3,0.1,1.8,0.3c0.5,0.2,1,0.4,1.3,0.7c0.3,0.3,0.6,0.7,0.9,1.1c0.2,0.4,0.4,0.9,0.5,1.4
						c0.1,0.5,0.2,1,0.2,1.6c0,0.2-0.1,0.3-0.2,0.4c-0.1,0.1-0.3,0.2-0.5,0.2h-7.5c0,1.3,0.3,2.3,1,3c0.7,0.7,1.5,1.1,2.6,1.1
						c0.7,0,1.3-0.1,1.9-0.4c0.5-0.2,1-0.6,1.6-1c0.1-0.1,0.3-0.2,0.4-0.2c0.1,0,0.2,0,0.3,0.1c0.1,0.1,0.1,0.2,0.1,0.4
						c0,0.2-0.1,0.4-0.3,0.5c-0.5,0.5-1.1,0.9-1.7,1.2S574.7,230.9,573.7,230.9L573.7,230.9z M577,224.7c-0.1-1.1-0.4-2-0.9-2.7
						c-0.5-0.7-1.3-1-2.3-1c-1.1,0-1.9,0.4-2.5,1.1c-0.6,0.7-1,1.6-1,2.6H577z"/>
					<path class="st10" d="M581.7,230.5c-0.1-0.1-0.2-0.3-0.2-0.5v-9c0-0.2,0.1-0.4,0.2-0.5c0.2-0.1,0.3-0.2,0.5-0.2
						c0.2,0,0.4,0.1,0.5,0.2c0.2,0.1,0.2,0.3,0.2,0.5v1.2c0.2-0.7,0.5-1.2,1-1.6c0.5-0.4,1.2-0.7,2-0.7c0.2,0,0.3,0.1,0.4,0.2
						c0.1,0.1,0.2,0.3,0.2,0.5c0,0.2-0.1,0.3-0.2,0.4c-0.1,0.1-0.3,0.2-0.5,0.2c-0.5,0-1,0.1-1.4,0.3c-0.4,0.2-0.7,0.4-0.9,0.7
						c-0.2,0.3-0.4,0.6-0.5,0.9c-0.1,0.3-0.2,0.6-0.2,0.9v5.9c0,0.2-0.1,0.4-0.2,0.5c-0.2,0.1-0.3,0.2-0.6,0.2
						C582,230.7,581.8,230.6,581.7,230.5z"/>
					<path class="st10" d="M591.8,230.4c-0.2-0.2-0.4-0.5-0.5-0.9l-3.5-8.3c0-0.1,0-0.1,0-0.2c0-0.2,0.1-0.4,0.3-0.5
						c0.2-0.2,0.4-0.2,0.6-0.2c0.3,0,0.5,0.2,0.6,0.5l3.4,8.3l3.5-8.3c0.1-0.3,0.3-0.5,0.6-0.5c0.2,0,0.4,0.1,0.6,0.2
						c0.2,0.2,0.3,0.3,0.3,0.5c0,0.1,0,0.2,0,0.2l-3.5,8.3c-0.2,0.4-0.4,0.8-0.6,0.9c-0.2,0.2-0.4,0.3-0.8,0.3
						S592,230.6,591.8,230.4z"/>
					<path class="st10" d="M604,230.9c-1.4,0-2.6-0.5-3.6-1.5s-1.5-2.3-1.5-3.9c0-1,0.2-1.9,0.6-2.7c0.4-0.8,1-1.5,1.7-2
						c0.8-0.5,1.7-0.8,2.7-0.8c0.7,0,1.3,0.1,1.8,0.3c0.5,0.2,1,0.4,1.3,0.7c0.3,0.3,0.6,0.7,0.9,1.1c0.2,0.4,0.4,0.9,0.5,1.4
						c0.1,0.5,0.2,1,0.2,1.6c0,0.2-0.1,0.3-0.2,0.4c-0.1,0.1-0.3,0.2-0.5,0.2h-7.5c0,1.3,0.3,2.3,1,3c0.7,0.7,1.5,1.1,2.6,1.1
						c0.7,0,1.3-0.1,1.9-0.4c0.5-0.2,1-0.6,1.6-1c0.1-0.1,0.3-0.2,0.4-0.2c0.1,0,0.2,0,0.3,0.1c0.1,0.1,0.1,0.2,0.1,0.4
						c0,0.2-0.1,0.4-0.3,0.5c-0.5,0.5-1.1,0.9-1.7,1.2C605.8,230.8,605,230.9,604,230.9L604,230.9z M607.3,224.7
						c-0.1-1.1-0.4-2-0.9-2.7c-0.5-0.7-1.3-1-2.3-1c-1.1,0-1.9,0.4-2.5,1.1c-0.6,0.7-1,1.6-1,2.6H607.3z"/>
					<path class="st10" d="M611.9,230.5c-0.1-0.1-0.2-0.3-0.2-0.5v-9c0-0.2,0.1-0.4,0.2-0.5c0.2-0.1,0.3-0.2,0.5-0.2
						c0.2,0,0.4,0.1,0.5,0.2c0.2,0.1,0.2,0.3,0.2,0.5v1.2c0.2-0.7,0.5-1.2,1-1.6c0.5-0.4,1.2-0.7,2-0.7c0.2,0,0.3,0.1,0.4,0.2
						c0.1,0.1,0.2,0.3,0.2,0.5c0,0.2-0.1,0.3-0.2,0.4c-0.1,0.1-0.3,0.2-0.5,0.2c-0.5,0-1,0.1-1.4,0.3c-0.4,0.2-0.7,0.4-0.9,0.7
						c-0.2,0.3-0.4,0.6-0.5,0.9s-0.2,0.6-0.2,0.9v5.9c0,0.2-0.1,0.4-0.2,0.5c-0.2,0.1-0.3,0.2-0.6,0.2
						C612.2,230.7,612.1,230.6,611.9,230.5z"/>
					<path class="st10" d="M627.6,230.7c-0.6-0.1-1.1-0.3-1.6-0.5c-0.4-0.2-0.6-0.4-0.6-0.8c0-0.2,0.1-0.3,0.2-0.4
						c0.1-0.1,0.3-0.2,0.5-0.2c0.1,0,0.2,0,0.3,0c1,0.5,2,0.7,3,0.7c1,0,1.8-0.2,2.4-0.7c0.6-0.5,1-1.1,1-2c0-1-0.4-1.8-1.1-2.4
						c-0.7-0.6-1.6-0.9-2.7-0.9h-0.7c-0.2,0-0.4-0.1-0.5-0.2c-0.1-0.1-0.2-0.3-0.2-0.4c0-0.2,0.1-0.4,0.2-0.5
						c0.1-0.1,0.3-0.2,0.5-0.2h0.6c1.1,0,1.9-0.2,2.5-0.7c0.6-0.5,0.9-1.2,0.9-2.1c0-0.8-0.3-1.4-0.9-1.9c-0.6-0.5-1.3-0.7-2.1-0.7
						c-0.4,0-0.9,0-1.3,0.1c-0.4,0.1-0.7,0.1-0.9,0.2c-0.2,0.1-0.4,0.2-0.7,0.3c-0.2,0.1-0.4,0.2-0.4,0.2c-0.1,0-0.1,0-0.2,0
						c-0.2,0-0.3-0.1-0.5-0.2c-0.1-0.2-0.2-0.3-0.2-0.5c0-0.3,0.1-0.4,0.3-0.6c0.2-0.1,0.4-0.2,0.8-0.3c0.3-0.1,0.7-0.2,1.3-0.4
						s1.1-0.2,1.6-0.2c0.7,0,1.3,0.1,1.9,0.2s1.1,0.4,1.5,0.7c0.4,0.3,0.8,0.7,1,1.3s0.4,1.1,0.4,1.8c0,0.9-0.3,1.6-0.8,2.2
						c-0.5,0.6-1.2,1-1.9,1.2c0.9,0.2,1.6,0.6,2.2,1.3c0.6,0.7,0.9,1.5,0.9,2.5c0,0.7-0.1,1.3-0.4,1.9c-0.3,0.5-0.7,1-1.2,1.3
						c-0.5,0.3-1,0.6-1.6,0.7c-0.6,0.2-1.2,0.2-1.9,0.2C628.8,230.9,628.2,230.9,627.6,230.7z"/>
				</g>
				<g>
					<rect x="500.7" y="214.1" class="st10" width="34.2" height="8.7"/>
					<rect x="500.7" y="224" class="st10" width="34.2" height="8.7"/>
					<rect x="536.4" y="214.1" class="st10" width="6.1" height="18.6"/>
				</g>
			</g>
			<g>
				<g>
					<path class="st10" d="M555.9,268.4c-0.1-0.1-0.1-0.2-0.1-0.3c0-0.2,0.1-0.4,0.3-0.5c0.2-0.2,0.4-0.3,0.6-0.3
						c0.1,0,0.2,0,0.3,0.1c0.5,0.4,1.1,0.7,1.8,1c0.7,0.3,1.5,0.4,2.3,0.4c1.1,0,2-0.2,2.6-0.7c0.7-0.5,1-1.1,1-1.9
						c0-0.4-0.1-0.8-0.2-1.1c-0.1-0.3-0.3-0.5-0.5-0.8c-0.3-0.2-0.5-0.4-0.8-0.5c-0.3-0.1-0.7-0.3-1.2-0.5l-2.7-0.9
						c-1.1-0.4-1.9-0.8-2.5-1.4c-0.6-0.6-0.8-1.3-0.8-2.3c0-0.8,0.2-1.5,0.7-2.1c0.5-0.6,1.1-1,1.9-1.4c0.8-0.3,1.6-0.5,2.6-0.5
						c1,0,1.9,0.2,2.8,0.5c0.9,0.3,1.5,0.7,2,1.1c0.1,0.1,0.2,0.3,0.2,0.4c0,0.2-0.1,0.3-0.2,0.5c-0.1,0.1-0.3,0.2-0.5,0.2
						c-0.1,0-0.3,0-0.4-0.1c-0.4-0.3-0.9-0.6-1.6-0.8c-0.7-0.3-1.4-0.4-2.2-0.4c-1.1,0-2,0.2-2.7,0.7c-0.7,0.5-1,1.1-1,1.8
						c0,0.6,0.2,1.1,0.6,1.5c0.4,0.4,1,0.7,1.9,1l2.8,0.9c0.6,0.2,1.1,0.4,1.5,0.6c0.4,0.2,0.8,0.5,1.1,0.8c0.3,0.3,0.6,0.7,0.8,1.1
						c0.2,0.4,0.3,0.9,0.3,1.5c0,1.4-0.5,2.4-1.5,3.2c-1,0.7-2.3,1.1-4,1.1C558.9,270.3,557.2,269.7,555.9,268.4z"/>
					<path class="st10" d="M573.7,270.3c-1.4,0-2.6-0.5-3.6-1.5c-1-1-1.5-2.3-1.5-3.9c0-1,0.2-1.9,0.6-2.7c0.4-0.8,1-1.5,1.7-2
						c0.8-0.5,1.7-0.8,2.7-0.8c0.7,0,1.3,0.1,1.8,0.3c0.5,0.2,1,0.4,1.3,0.7s0.6,0.7,0.9,1.1c0.2,0.4,0.4,0.9,0.5,1.4
						c0.1,0.5,0.2,1,0.2,1.6c0,0.2-0.1,0.3-0.2,0.4c-0.1,0.1-0.3,0.2-0.5,0.2h-7.5c0,1.3,0.3,2.3,1,3c0.7,0.7,1.5,1.1,2.6,1.1
						c0.7,0,1.3-0.1,1.9-0.4c0.5-0.2,1-0.6,1.6-1c0.1-0.1,0.3-0.2,0.4-0.2c0.1,0,0.2,0,0.3,0.1c0.1,0.1,0.1,0.2,0.1,0.4
						c0,0.2-0.1,0.4-0.3,0.5c-0.5,0.5-1.1,0.9-1.7,1.2C575.5,270.1,574.7,270.3,573.7,270.3L573.7,270.3z M577,264.1
						c-0.1-1.1-0.4-2-0.9-2.7c-0.5-0.7-1.3-1-2.3-1c-1.1,0-1.9,0.4-2.5,1.1c-0.6,0.7-1,1.6-1,2.6H577z"/>
					<path class="st10" d="M581.7,269.9c-0.1-0.1-0.2-0.3-0.2-0.5v-9c0-0.2,0.1-0.4,0.2-0.5c0.2-0.1,0.3-0.2,0.5-0.2
						c0.2,0,0.4,0.1,0.5,0.2c0.2,0.1,0.2,0.3,0.2,0.5v1.2c0.2-0.7,0.5-1.2,1-1.6c0.5-0.4,1.2-0.7,2-0.7c0.2,0,0.3,0.1,0.4,0.2
						c0.1,0.1,0.2,0.3,0.2,0.5c0,0.2-0.1,0.3-0.2,0.4c-0.1,0.1-0.3,0.2-0.5,0.2c-0.5,0-1,0.1-1.4,0.3c-0.4,0.2-0.7,0.4-0.9,0.7
						c-0.2,0.3-0.4,0.6-0.5,0.9c-0.1,0.3-0.2,0.6-0.2,0.9v5.9c0,0.2-0.1,0.4-0.2,0.5c-0.2,0.1-0.3,0.2-0.6,0.2
						C582,270.1,581.8,270,581.7,269.9z"/>
					<path class="st10" d="M591.8,269.8c-0.2-0.2-0.4-0.5-0.5-0.9l-3.5-8.3c0-0.1,0-0.1,0-0.2c0-0.2,0.1-0.4,0.3-0.5
						s0.4-0.2,0.6-0.2c0.3,0,0.5,0.2,0.6,0.5l3.4,8.3l3.5-8.3c0.1-0.3,0.3-0.5,0.6-0.5c0.2,0,0.4,0.1,0.6,0.2
						c0.2,0.2,0.3,0.3,0.3,0.5c0,0.1,0,0.2,0,0.2l-3.5,8.3c-0.2,0.4-0.4,0.8-0.6,0.9c-0.2,0.2-0.4,0.3-0.8,0.3S592,270,591.8,269.8z
						"/>
					<path class="st10" d="M604,270.3c-1.4,0-2.6-0.5-3.6-1.5s-1.5-2.3-1.5-3.9c0-1,0.2-1.9,0.6-2.7c0.4-0.8,1-1.5,1.7-2
						c0.8-0.5,1.7-0.8,2.7-0.8c0.7,0,1.3,0.1,1.8,0.3c0.5,0.2,1,0.4,1.3,0.7c0.3,0.3,0.6,0.7,0.9,1.1c0.2,0.4,0.4,0.9,0.5,1.4
						c0.1,0.5,0.2,1,0.2,1.6c0,0.2-0.1,0.3-0.2,0.4c-0.1,0.1-0.3,0.2-0.5,0.2h-7.5c0,1.3,0.3,2.3,1,3c0.7,0.7,1.5,1.1,2.6,1.1
						c0.7,0,1.3-0.1,1.9-0.4c0.5-0.2,1-0.6,1.6-1c0.1-0.1,0.3-0.2,0.4-0.2c0.1,0,0.2,0,0.3,0.1c0.1,0.1,0.1,0.2,0.1,0.4
						c0,0.2-0.1,0.4-0.3,0.5c-0.5,0.5-1.1,0.9-1.7,1.2C605.8,270.1,605,270.3,604,270.3L604,270.3z M607.3,264.1
						c-0.1-1.1-0.4-2-0.9-2.7c-0.5-0.7-1.3-1-2.3-1c-1.1,0-1.9,0.4-2.5,1.1c-0.6,0.7-1,1.6-1,2.6H607.3z"/>
					<path class="st10" d="M611.9,269.9c-0.1-0.1-0.2-0.3-0.2-0.5v-9c0-0.2,0.1-0.4,0.2-0.5c0.2-0.1,0.3-0.2,0.5-0.2
						c0.2,0,0.4,0.1,0.5,0.2c0.2,0.1,0.2,0.3,0.2,0.5v1.2c0.2-0.7,0.5-1.2,1-1.6c0.5-0.4,1.2-0.7,2-0.7c0.2,0,0.3,0.1,0.4,0.2
						c0.1,0.1,0.2,0.3,0.2,0.5c0,0.2-0.1,0.3-0.2,0.4c-0.1,0.1-0.3,0.2-0.5,0.2c-0.5,0-1,0.1-1.4,0.3c-0.4,0.2-0.7,0.4-0.9,0.7
						c-0.2,0.3-0.4,0.6-0.5,0.9c-0.1,0.3-0.2,0.6-0.2,0.9v5.9c0,0.2-0.1,0.4-0.2,0.5c-0.2,0.1-0.3,0.2-0.6,0.2
						C612.2,270.1,612.1,270,611.9,269.9z"/>
					<path class="st10" d="M631.8,269.8c-0.2-0.1-0.3-0.3-0.3-0.6v-2.6h-6.1c-0.3,0-0.5-0.1-0.7-0.3c-0.2-0.2-0.3-0.4-0.3-0.7
						c0-0.2,0.1-0.5,0.2-0.7l6-9.3c0.3-0.5,0.8-0.8,1.4-0.8c0.3,0,0.6,0.1,0.9,0.3c0.2,0.2,0.3,0.5,0.3,0.9v9.2h1.7
						c0.2,0,0.4,0.1,0.5,0.2c0.1,0.1,0.2,0.3,0.2,0.5s-0.1,0.3-0.2,0.5c-0.1,0.1-0.3,0.2-0.5,0.2h-1.7v2.6c0,0.2-0.1,0.4-0.2,0.6
						c-0.2,0.1-0.4,0.2-0.6,0.2C632.2,270,632,270,631.8,269.8z M631.5,265.4v-8.6l-5.5,8.6H631.5z"/>
				</g>
				<g>
					<rect x="500.7" y="253.4" class="st10" width="34.2" height="8.7"/>
					<rect x="500.7" y="263.4" class="st10" width="34.2" height="8.7"/>
					<rect x="536.4" y="253.5" class="st10" width="6.1" height="18.6"/>
				</g>
			</g>
			<line class="st14" x1="500.9" y1="163.3" x2="742.2" y2="163.3"/>
			<line class="st14" x1="500.9" y1="203.4" x2="742.2" y2="203.4"/>
			<line class="st14" x1="500.9" y1="239.6" x2="742.2" y2="239.6"/>
			<line class="st14" x1="500.9" y1="282.1" x2="742.2" y2="282.1"/>
		</g>
		<g>
			<g>
				<polygon class="st10" points="644.6,326.6 633.9,309.4 539.3,309.4 539.3,326.6 539.3,332.7 539.3,527.2 819.5,527.2 
					819.5,326.6 				"/>
				<g>
					<defs>
						<rect id="XMLID_4_" x="542.2" y="334.4" width="274.7" height="186.5"/>
					</defs>
					<use xlink:href="#XMLID_4_"  style="overflow:visible;fill:#FFFFFF;"/>
					<clipPath id="XMLID_00000073704605880982407940000000061987028054736555_">
						<use xlink:href="#XMLID_4_"  style="overflow:visible;"/>
					</clipPath>
					
						<rect x="809.9" y="332.1" style="opacity:0.17;clip-path:url(#XMLID_00000073704605880982407940000000061987028054736555_);" width="8.9" height="191"/>
					
						<rect x="809.9" y="412.7" style="opacity:0.17;clip-path:url(#XMLID_00000073704605880982407940000000061987028054736555_);" width="8.9" height="108"/>
					
						<rect x="540.7" y="330.7" style="clip-path:url(#XMLID_00000073704605880982407940000000061987028054736555_);fill:#6366F1;stroke:#1A2E35;stroke-miterlimit:10;" width="276.7" height="15.1"/>
					
						<use xlink:href="#XMLID_4_"  style="overflow:visible;fill:none;stroke:#1A2E35;stroke-linecap:round;stroke-linejoin:round;stroke-miterlimit:10;"/>
				</g>
				<g class="st13">
					<path d="M742.2,360.3h-26.8c-1.3,0-2.4-1.1-2.4-2.4l0,0c0-1.3,1.1-2.4,2.4-2.4h26.8c1.3,0,2.4,1.1,2.4,2.4l0,0
						C744.5,359.2,743.5,360.3,742.2,360.3z"/>
					<path d="M795.8,360.3H769c-1.3,0-2.4-1.1-2.4-2.4l0,0c0-1.3,1.1-2.4,2.4-2.4h26.8c1.3,0,2.4,1.1,2.4,2.4l0,0
						C798.2,359.2,797.2,360.3,795.8,360.3z"/>
				</g>
			</g>
			<g>
				<polyline class="st14" points="584.5,384.4 633.9,384.4 633.9,431.7 580.3,431.7 				"/>
				<polyline class="st14" points="643.1,481.5 680.5,481.5 680.5,405.6 645.2,405.6 				"/>
				<line class="st14" x1="713" y1="430.3" x2="742" y2="430.3"/>
				<line class="st14" x1="713" y1="438.8" x2="742" y2="438.8"/>
				<line class="st14" x1="713" y1="447.2" x2="742" y2="447.2"/>
				<line class="st14" x1="713" y1="455.7" x2="742" y2="455.7"/>
				<rect x="560.5" y="376.6" class="st1" width="31.1" height="17.7"/>
				<rect x="618.4" y="397.8" class="st1" width="31.1" height="17.7"/>
				<rect x="627.6" y="472.7" class="st1" width="31.1" height="17.7"/>
				<rect x="560.5" y="419" class="st1" width="31.1" height="17.7"/>
			</g>
		</g>
	</g>
	<g>
		<ellipse class="st8" cx="409.7" cy="668.9" rx="89.9" ry="17.7"/>
		<g>
			<g>
				<g>
					<path class="st17" d="M285.8,258.6c0,0-18.1-15.7-20.5-16.3c-2.4-0.6-17.5,1.8-19.3,2.4c-1.8,0.6,1.8,15.1,1.8,15.1
						s-3,1.8-1.8,6c1.2,4.2,9.7,0.6,9.7,0.6s6,6,12.1,6.6c6,0.6,16.3-0.6,16.3-0.6L285.8,258.6z"/>
					<path class="st18" d="M247.7,259.8c0,0,5.4,2.4,14.5-7.2"/>
					<path class="st18" d="M249.5,249.6c0,0,0.9,7.5,7.6,7.5"/>
				</g>
				<path class="st17" d="M299.1,257.4l-16.3-4.8c0,0-1.8-1.2-1.8,4.8c0,6-3,10.3,0,17.5l17.5,4.2L299.1,257.4z"/>
				<path class="st17" d="M357.7,259.1c0,0-57.5-5.3-58.7-1.7c-1.2,3.6-9.1,16.9-6,23.6c3,6.6,62.8,18.1,62.8,18.1L357.7,259.1z"/>
			</g>
			<g>
				<path class="st2" d="M378.8,645.4c0,0-44.7,16.9-44.7,20.5c0,3.6,9.7,4.2,30.2,2.4c20.5-1.8,33.8-1.2,39.3-3.6
					c5.4-2.4,2.4-15.7,2.4-18.7S378.8,645.4,378.8,645.4z"/>
				<path class="st18" d="M334.1,666c0,0,11-1.3,26.1-1.3s34.3-2.9,34.3-2.9"/>
			</g>
			<g>
				<path class="st2" d="M407.8,654.5c0,0-33.2,19.3-29.6,24.8c3.6,5.4,59.2-6,60.4-23C439.8,639.4,407.8,654.5,407.8,654.5z"/>
				<path class="st18" d="M379,676.9c0,0,9.8,2.9,25.7-2.9c15.9-5.7,24.5-10.2,24.5-10.2"/>
			</g>
			<g>
				<g>
					<defs>
						<path id="XMLID_2_" d="M351,311.2c0,0-3.6,50.2-0.6,93.1c3,42.9,3.6,85.8,10.3,113.6c6.6,27.8,13.3,106.4,13.3,111.3
							c0,4.8-6,6-4.2,10.9c1.8,4.8,4.2,8.5,4.2,8.5s7.9,2.4,15.1,3.6c7.2,1.2,14.5,1.2,14.5,1.2l-0.6,4.8c0,0,12.1,0.6,20.5,3.6
							c8.5,3,16.3,3.6,16.3,3.6s9.7-11.5,9.7-18.1s-1.2-18.1,0-27.2c1.2-9.1,3-92.5,3-115.5s2.4-114.2,3-126.3
							c0.6-12.1,2.4-41.8,1.8-54.5c-0.6-12.7-29.6,3-64.6-7.2C357.7,306.3,351,311.2,351,311.2z"/>
					</defs>
					<use xlink:href="#XMLID_2_"  style="overflow:visible;fill:#1A2E35;"/>
					<clipPath id="XMLID_00000081624125054264613420000015866678937646545062_">
						<use xlink:href="#XMLID_2_"  style="overflow:visible;"/>
					</clipPath>
					
						<path style="opacity:0.3;clip-path:url(#XMLID_00000081624125054264613420000015866678937646545062_);fill:#FFFFFF;stroke:#1A2E35;stroke-linecap:round;stroke-linejoin:round;stroke-miterlimit:10;" d="
						M351,311.2c0,0-3.6,50.2-0.6,93.1c3,42.9,3.6,85.8,10.3,113.6c6.6,27.8,13.3,106.4,13.3,111.3c0,4.8-6,6-4.2,10.9
						c1.8,4.8,4.2,8.5,4.2,8.5s7.9,2.4,15.1,3.6c7.2,1.2,14.5,1.2,14.5,1.2l-0.6,4.8c0,0,12.1,0.6,20.5,3.6c8.5,3,16.3,3.6,16.3,3.6
						s9.7-11.5,9.7-18.1s-1.2-18.1,0-27.2c1.2-9.1,3-92.5,3-115.5s2.4-114.2,3-126.3c0.6-12.1,2.4-41.8,1.8-54.5
						c-0.6-12.7-29.6,3-64.6-7.2C357.7,306.3,351,311.2,351,311.2z"/>
					
						<path style="clip-path:url(#XMLID_00000081624125054264613420000015866678937646545062_);fill:none;stroke:#1A2E35;stroke-linecap:round;stroke-linejoin:round;stroke-miterlimit:10;" d="
						M446.9,381.3c0.7,21.4,1.6,52.5,1.2,64.9c-0.7,19.7-6.6,134.5-4.6,154.2c2,19.7-2.6,36.1-2,42.6c0.7,6.6,0.7,13.1-0.7,16.4"/>
					
						<path style="clip-path:url(#XMLID_00000081624125054264613420000015866678937646545062_);fill:none;stroke:#1A2E35;stroke-linecap:round;stroke-linejoin:round;stroke-miterlimit:10;" d="
						M446.1,359.6c0,0,0.1,3.5,0.3,9.1"/>
					
						<use xlink:href="#XMLID_2_"  style="overflow:visible;fill:none;stroke:#1A2E35;stroke-linecap:round;stroke-linejoin:round;stroke-miterlimit:10;"/>
				</g>
				<g>
					<polyline class="st18" points="373.4,367.4 373.4,396.7 378.7,403.6 					"/>
					<polyline class="st18" points="382.7,368.3 382.8,397.6 383.2,398.1 					"/>
					<path class="st18" d="M390.1,436.8c2.6,16.3,6.3,43.9,9.2,80.4c4.8,61,9.7,108.8,9.7,113.7c0,4.8-6.6,17.5-5.4,22.4"/>
					<path class="st18" d="M384.8,405.6c0,0,3,17.1,3.9,22.4"/>
				</g>
			</g>
			<path class="st17" d="M457.3,342.7c-0.6-12.7-29.6,3-64.6-7.2c-35-10.3-41.7-5.4-41.7-5.4s-0.6,5.4-1.1,14.9
				c4.4,3.8,13.8,9.1,33.8,12.3c31.5,5.1,50.4,9.6,73.8-11.2C457.4,344.9,457.4,343.8,457.3,342.7z"/>
			<path class="st17" d="M401.4,178.2c0,0-25.6,4.9-32.9,15.1c-7.2,10.3-17.5,122.1-19.9,133c-2.4,10.9,13.3,15.1,22.4,19.3
				c9.1,4.2,36.8,10.9,56.2,9.1c19.3-1.8,33.2-5.4,35.6-13.9c2.4-8.5,7.2-125.7,6-137.2c-1.2-11.5-36.2-40.5-42.9-42.3
				C419.3,159.5,401.4,178.2,401.4,178.2z"/>
			<path class="st18" d="M396.1,193c0,0-5.4,14.8-8.7,37.9c-3.3,23.1-14.1,113.4-14.1,113.4l2.8,3.3"/>
			<polygon class="st17" points="385.4,175.4 383,192.2 394,182.7 			"/>
			<polygon class="st17" points="394.9,169.6 393.3,170.6 385.4,175.4 396.1,193 412.9,168.4 			"/>
			<g>
				<g>
					<path class="st17" d="M360.8,99.3c0,0-6.5,3.9-5.7,9.1c0.8,5.1,3.1,26,1.9,28.3c-1.2,2.3-5.7,6.4-2.6,8.9
						c3.1,2.5,6.6,3.7,6.6,3.7s4.6,17.1,7.6,19.6c3.1,2.5,9.6,3.6,11.7,4.1c2.1,0.5,12.6,5.7,12.6,5.7l4.1,14.5l32.4-29.1
						l-11.7-20.9c0,0,13.7-17.8,8.2-41.9c-5.6-24.1-24.1-28-47.6-26.5S350.3,89,360.8,99.3z"/>
					<polyline class="st18" points="360.6,130.3 366.6,131.7 362,133.2 					"/>
					<path class="st18" d="M359.2,125.7c0,0,2.3-5.1,9.9-0.3"/>
					<path class="st18" d="M400.6,125c0,0-4.5-1.9-6,0.2c-1.5,2.1-3,6.5-3,6.5s6.9-1,4.3,3.1c-2.6,4.1-2.6,4.1-2.6,4.1"/>
				</g>
				<path class="st8" d="M378.3,74.9c-23.4,1.5-32.8,19-22.3,29.2c0,0,16.8-11.6,15.4-1.5c-1.5,10.1-5.6,11.2,3.5,13.4
					c9.2,2.2,7.7-1.6,8.4,3.2c0.7,4.8-4.2,10.2,1.2,10c5.4-0.1,3.9-10.9,8.5-12.3c4.6-1.4,14.4,1.7,12.4,15
					c-2,13.4-9.3,14.8-9.3,14.8s2,3,22.2-2.6l-0.6-1c0,0,13.7-17.8,8.2-41.9C420.3,77.3,401.7,73.4,378.3,74.9z"/>
			</g>
			<polygon class="st17" points="399.2,185.6 410.9,203.6 436.6,160.3 427.5,149.7 			"/>
			<path class="st8" d="M309.1,237.2l33.7,70.7c0.6,1.2,1.8,2,3.1,2.1l59,3.2c2.7,0.1,4.7-2.6,3.6-5.1l-28.3-68.6
				c-0.5-1.3-1.7-2.2-3.1-2.3l-64.4-5.3C309.9,231.7,307.8,234.7,309.1,237.2z"/>
			<polygon class="st18" points="368.5,345.7 366.7,352.3 383.6,357.2 383,349.9 			"/>
			<path class="st5" d="M255.6,266.5v137.7c0,0-0.2,31.4,37.6,31.4c37.9,0,34.1-36.2,34.1-36.2s0-93.4,0-103.1
				c0-9.7-2.6-12.3,3.2-12.1"/>
			<g>
				<g>
					<path class="st17" d="M380.8,293.6c0,0-6.3-10.5-10.2-16.3c-3.9-5.8-10.5-13.6-12.9-18.2c-2.4-4.6-5.4-0.5-4.4,3.4
						c1,3.9,5.8,11.7,5.8,13.1c0,1.5-0.5,1.5-3.9,0c-3.4-1.5-18.5-6.6-21.4-8.3s-6.6-2.4-7.1,0c-0.5,2.4,2.4,3.2,4.6,4.9
						c2.2,1.7,5.4,5.1,5.4,5.1s-5.4-2.4-6.3-1.9c-1,0.5-0.5,2.9,2.2,4.6c2.7,1.7,3.6,4.4,3.6,4.4s3.6,3.6,10,8
						c6.3,4.4,15.1,8.8,24.6,10.9c9.5,2.2,11.7,2.7,11.7,2.7l0.7-8.8L380.8,293.6z"/>
					<line class="st18" x1="336.8" y1="277.3" x2="351.2" y2="286.1"/>
					<line class="st18" x1="335.8" y1="283.4" x2="348.5" y2="289.7"/>
				</g>
				<polygon class="st17" points="400.5,291.8 381.2,290 380.4,310.1 401.5,309.7 				"/>
				<path class="st17" d="M452.5,200.6c0,0-6,8.5-9.7,23.6c-3.6,15.1-9.1,59.2-9.1,59.2l-34.4,6l-0.9,24.2c0,0,67.4,8.4,72.2,4.2
					c4.8-4.2,12.7-62.2,9.1-87.6c-3.6-25.4-16.9-31.4-16.9-31.4"/>
				<path class="st18" d="M433.8,283.4c0,0,7.9-2.4,23,9.1"/>
				<path class="st18" d="M434.4,281c0,0,14.5-7.2,29.6-3"/>
			</g>
		</g>
	</g>
</g>
</svg>
