<svg version="1.1" id="_1" xmlns="http://www.w3.org/2000/svg" x="0" y="0" viewBox="0 0 2694.1 2100" style="enable-background:new 0 0 2694.1 2100" xml:space="preserve"><style>.st1{fill:#2e2e47}.st2{fill:#eae6e4}.st4{fill:#4e33e6}.st6{fill:#fff}.st7{fill:#9c6f43}.st8{fill:#ffd3b5}.st9{fill:#ffa982}.st10{fill:#fcb659}.st12{fill:#ffc97d}.st13{fill:#ffe2bd}.st15{fill:#f2836d}.st16{fill:#a398ed}</style><ellipse cx="1347" cy="1931.1" rx="1275.5" ry="115.7" style="opacity:.1;fill:#816de2;enable-background:new"/><path class="st1" d="M1875.3 1434.9H1356c-5.5 0-10-4.5-10-10s4.5-10 10-10h519.3c5.5 0 10 4.5 10 10-.1 5.5-4.5 10-10 10z"/><path class="st1" d="M1911.5 1898.4c-5.1 0-9.5-4-9.9-9.2L1777.5 299.7c-.4-5.5 3.7-10.3 9.2-10.7 5.5-.4 10.3 3.7 10.7 9.2l124.1 1589.5c.4 5.5-3.7 10.3-9.2 10.7h-.8zM1392.1 1898.4c-5.1 0-9.5-4-9.9-9.2L1258.1 299.7c-.4-5.5 3.7-10.3 9.2-10.7 5.5-.4 10.3 3.7 10.7 9.2l124.1 1589.5c.4 5.5-3.7 10.3-9.2 10.7h-.8zM1039.1 1898.4h-.8c-5.5-.4-9.6-5.2-9.2-10.7l124.1-1589.5c.4-5.5 5.2-9.6 10.7-9.2s9.6 5.2 9.2 10.7L1049 1889.2c-.4 5.2-4.7 9.2-9.9 9.2zM1636 1898.4h-.8c-5.5-.4-9.6-5.2-9.2-10.7l124.1-1589.5c.4-5.5 5.2-9.6 10.7-9.2s9.6 5.2 9.2 10.7l-124 1589.5c-.5 5.2-4.8 9.2-10 9.2z"/><path class="st2" d="M1739.7 1098.8h-673l64.9-831.9h673z"/><path class="st1" d="M1739.7 1106.7h-673c-2.2 0-4.3-.9-5.8-2.6-1.5-1.6-2.3-3.8-2.1-6l64.9-831.9c.3-4.1 3.8-7.3 7.9-7.3h673c2.2 0 4.3.9 5.8 2.6 1.5 1.6 2.3 3.8 2.1 6l-64.9 831.9c-.3 4.1-3.8 7.3-7.9 7.3zm-664.4-15.9h657l63.7-815.9h-657l-63.7 815.9z"/><path style="fill:#9db4fc" d="M1168.3 564.3 1144 796.6h551.4l8.6-82.3-41.4 16.1-22.3-20.6-19.2 17-24.1-3-31-76.4-28.6 33-14.8-24.2-48.9-5.9-9.5 24.3-47.6-65.5-18.6 38.3-24.7-10.3 3.3-18.4-25 12.5-17.9-22.1-12.1 22.1-28-58.8-23.8 61-31.3-61h-30.6z"/><path class="st4" d="m1151.5 724.5 47.6-22 37.8-43.4h14.2l10.8 56.6 19.4-5.9 17.3 14.7 50.3-27.9 27 35.3 24.5-14.7 88.5 40.4 27.9-26.4 34.2 26.4 40.5-13.9 16.7 19.8 39.6-11.7 47.6 44.8H1144z"/><path style="fill:#d6d3d1" d="M1693.1 817.9h-551.4l.9-8.1H1694z"/><path class="st1" d="M1391.9 614.1c-.3 0-.6-.1-.9-.3-.6-.5-.6-1.3-.1-1.9l57.4-65.9h169.3c.7 0 1.3.6 1.3 1.3s-.6 1.3-1.3 1.3h-168.1l-56.6 65c-.3.4-.7.5-1 .5zM1539 535.2h-.6c-2.1-.2-4.8-1.3-8.1-2.7-2.5-1-5.3-2.2-8.7-3.3-4.2-1.4-11.2 1.3-16.8 3.4-4.3 1.6-7.6 2.9-9.8 2.5-3.6-.6-5.8-2.1-6.6-2.9h-3.4c-1.6.6-6.9 2.6-9.1 2.2-.3-.1-1.3.1-2 .3-3.1.6-8.9 1.7-10.3-4.2-.2-.8-.6-1-.8-1-2-.7-7.3 2.3-10.3 4.7-.6.4-1.4.3-1.9-.2-.5-.6-.3-1.4.2-1.9 1.4-1.1 8.7-6.6 12.9-5.1.9.3 2 1.1 2.5 3 .7 2.9 2.8 3 7.2 2.2 1.2-.2 2.2-.4 2.9-.3 1 .2 4.9-1 7.9-2.1l.2-.1h5.1l.4.5c.1.1 1.7 1.8 5.5 2.5 1.4.2 5-1.1 8.4-2.4 6.3-2.4 13.5-5.1 18.6-3.4 3.4 1.1 6.3 2.3 8.9 3.4 3.1 1.3 5.6 2.3 7.3 2.5 1.5.1 4.4-.6 7.3-1.4 3.2-.8 6.5-1.7 9.3-1.8.7 0 1.3.6 1.3 1.3s-.5 1.3-1.3 1.4c-2.5.1-5.6.9-8.7 1.7-2.9.5-5.6 1.2-7.5 1.2zM1604.9 536.1c-3.7 0-6.9-.3-8-1.3-1.1-.9-3.2-.6-6-.2-2.2.3-4.7.7-7.5.5-6.4-.3-11 0-11 0-.7 0-1.4-.5-1.4-1.2s.5-1.4 1.2-1.4c.2 0 4.7-.3 11.3 0 2.6.1 5-.2 7.1-.5 3.3-.4 6.1-.8 8 .8 1.4 1.1 11.6.7 20.3-.3.7-.1 1.4.4 1.5 1.2.1.7-.4 1.4-1.2 1.5-2.7.3-9 .9-14.3.9zM1486 643.9c-.3 0-.6-.1-.9-.3-.6-.5-.6-1.3-.1-1.9l28.9-33.2h45.6c.7 0 1.3.6 1.3 1.3s-.6 1.3-1.3 1.3h-44.4l-28.1 32.3c-.3.3-.6.5-1 .5zM1550.1 601.5h-.5c-1.3-.3-2.5-1.4-4.1-2.9-1.1-1-2.4-2.2-3.8-3.2-1.3-1-4.7 1.6-6.9 3.4-2.5 1.9-4.2 3.2-5.7 2.7-1.7-.6-2.7-1.9-3.2-2.9h-.7c-2.9 2.2-4.2 2.3-4.8 2.2-.1 0-.3.1-.5.2-.9.4-2.5 1-3.9.1-1.1-.7-1.7-2.2-1.8-4.5 0-.4-.1-.6-.1-.8-.9.5-2.5 2.4-3.9 4.4-.4.6-1.2.8-1.8.4-.6-.4-.8-1.2-.4-1.8 1.9-2.9 4.6-6.3 6.9-5.6 1.2.3 1.8 1.4 1.9 3.4s.6 2.4.6 2.4c.2.2 1.1-.2 1.5-.3.7-.3 1.3-.5 1.9-.3.5-.1 1.9-1 3.1-1.9l.4-.3h3.4l.3.9s.6 1.5 1.9 2.1c.6-.2 2.2-1.4 3.3-2.2 3.2-2.5 7.2-5.5 10.1-3.4 1.6 1.2 3 2.4 4.1 3.4s2.3 2.1 2.8 2.2c.4 0 1.9-.8 2.8-1.3 1.6-.9 3.3-1.8 4.9-1.9.8 0 1.4.5 1.4 1.2.1.7-.5 1.4-1.2 1.4-1 .1-2.5.9-3.8 1.6-1.8.5-3.1 1.3-4.2 1.3zm-20.4-2.7zm-8.7-.7zm-.3-.1zM1620.5 697.3c-.3 0-.6-.1-.9-.3-.6-.5-.6-1.3-.1-1.9l41.1-47.2h64.8c.7 0 1.3.6 1.3 1.3s-.6 1.3-1.3 1.3h-63.6l-40.3 46.3c-.3.3-.6.5-1 .5zM1712 636.6c-.2 0-.4 0-.6-.1-1.7-.3-3.3-1.9-5.6-4-1.6-1.5-3.4-3.1-5.5-4.7-2.2-1.6-7 2.1-10.6 4.8-3.4 2.6-5.7 4.4-7.6 3.7-2.5-.9-3.8-2.9-4.4-4.1h-1.5c-3.1 2.4-5.4 3.4-6.7 3.1-.2 0-.6.2-.9.3-1.3.5-3.3 1.3-5.1.2-1.4-.9-2.2-2.9-2.4-6-.1-1.6-.4-1.9-.4-1.9-.9 0-3.9 3.2-6.3 6.7-.4.6-1.2.8-1.8.4-.6-.4-.8-1.2-.4-1.8 1.7-2.6 6.1-8.7 9.2-7.8 2.1.6 2.3 3.4 2.3 4.3.2 2.9.9 3.7 1.1 3.9.6.4 1.7-.1 2.7-.4.9-.4 1.7-.7 2.5-.4.7-.1 2.9-1.4 4.8-2.9l.4-.3h4.2l.3.9s.9 2.6 3.2 3.4c.7.1 3.3-2 5.1-3.3 4.4-3.4 9.9-7.6 13.8-4.9 2.3 1.6 4.1 3.4 5.8 4.9 1.7 1.6 3.4 3.1 4.3 3.3.7.1 2.9-1.1 4.4-1.9 2.3-1.2 4.7-2.5 6.7-2.7.8 0 1.4.5 1.4 1.2.1.7-.5 1.4-1.2 1.4-1.5.1-3.7 1.3-5.6 2.4-2.1 1.3-4.1 2.3-5.6 2.3zm-41.7-3.7z"/><path class="st6" d="M2356.6 1910c3.4-1 4.4-12.7 17.1-18.6 10.2-4.7 30.2-6.9 44.8-5.3-4.4-7.8-7.4-17.2-9.1-30.9-4.9-40-82.5-21-65.9 7.3 0 0 9.3 29.1 6.8 37-.1.4-.2.8-.4 1.3 2.3 5 5 9.7 6.7 9.2zM2066.2 1889.8c17.9 5.1 21.4 1 26.2-6.4 2.7-4.2 8.4-8.1 13.5-10.9-5.7-8-11.8-17.1-13.8-22.4-3.8-10.2-57.4-10.8-56.3 9.6 0 0-.9 1-2.4 2.5 1.2.2 2.4.5 3.6 1 12.9 5.4 11.3 21.4 29.2 26.6z"/><path class="st7" d="M1930.3 1946.1c13.6 1.5 93.8-9 104.9-10.9s37.3-12.8 40.9-14.5 9-.9 16.4-1.1c5.8-.2 25.7-1.6 34.2-2.3-3.8-12.4-8.6-27.6-9.7-29.5-.9-1.5-5.8-8-11.1-15.4-5.1 2.7-10.8 6.7-13.5 10.9-4.8 7.4-8.3 11.5-26.2 6.4s-16.3-21.1-29.1-26.6c-1.2-.5-2.5-.8-3.6-1-5.9 6.2-20.9 22.1-22.9 24.7-2.5 3.1-55.1 24.3-86.4 43.6 5.6 2.5-5.8 14.4 6.1 15.7z"/><path class="st1" d="M2126.8 1917.3c-8.5.6-28.4 2.1-34.2 2.3-7.5.2-12.8-.6-16.4 1.1-3.6 1.7-29.9 12.6-40.9 14.5s-91.3 12.4-104.9 10.9c-11.8-1.3-.4-13.2-6.1-15.6-1.2.7-2.4 1.5-3.5 2.2-11.3 7.3-20 27.5 39.6 21.1s121-14.1 121-14.1v-10.9l7.9 10.8 42.7-5.7c-.2 0-2.5-7.5-5.2-16.6z"/><path class="st2" d="m2398.6 1661.8.9-75.9-19-98.6-67-517.4-327.9 13.9 24 875.6s20 6.9 55.8 6.5c26.2-.2 56.4-2.8 56.4-2.8s3-21.8 1-28.6c-.9-3-2.7-12.7-3.8-18.7-.6-3.3-.9-6.7-.7-10.1l7.1-207s14.5-27.2 15.4-42.7c1-15.7-10.5-37.1-10.5-37.1l23-390.7c32.8 136.9 78.2 358.6 94.4 422.3 2.7 10.8 20.9 84.3 27.6 106.8 26.7 90.4 51.8 205.8 51.8 205.8s12.3 20.2 57.9 17.4c34.5-2.1 34.5-17.4 34.5-17.4l-20.9-201.3z"/><path class="st7" d="M2456.6 1965.5c9.4 3.4 8.9-7.4 17.9-6.8 3.1.2 6.7 1.4 10.1 2.8-3.7-8-11.6-18.6-24.5-31.8-19.3-19.8-33.1-28.4-41.7-43.5-14.6-1.6-34.5.6-44.8 5.3-12.7 5.9-13.7 17.6-17.1 18.6-1.7.5-4.4-4.2-6.7-9-1.3 4.8-3.2 14.8-3.9 24.4 7.6 4 22.5 11.8 33.8 17.9 15.9 8.4 67.5 18.7 76.9 22.1z"/><path class="st1" d="M2474.5 1958.6c-9-.6-8.5 10.2-17.9 6.8-9.4-3.4-61-13.6-76.8-22.2-11.3-6.1-26.2-13.9-33.8-17.9-.7 10.2.1 19.8 4.7 21.8 9.4 3.9 33.8 9.3 40.6 13.2 6.8 3.9 67.9 21 85 20 10.3-.6 14-6.8 8.4-18.9-3.5-1.4-7.1-2.6-10.2-2.8zM2153.3 1128.9c-.3 0-.6-.2-.6-.5-.1-.7-13.5-65.3-18.9-76.8-5.5-11.6-8.3-32.5-8.3-32.7 0-.3.2-.7.5-.7.3-.1.7.2.7.5 0 .2 2.8 20.9 8.2 32.4 5.5 11.6 18.5 74.4 19 77.1.1.3-.2.7-.6.7zM2139.6 1085.2c-.4 0-10.7-.1-16.4-7.5-5.6-7.2-16.8-52.8-17.3-54.7-.1-.3.1-.7.5-.8.3-.1.7.1.8.5.1.5 11.7 47.2 17.1 54.3 5.3 6.9 15.3 7 15.4 7 .4 0 .6.3.6.6 0 .4-.3.6-.7.6zM2117.6 1139.6c-.2 0-12.2-1.3-24.2-3.3-24.6-4.2-25.2-7.7-25.3-8.8-.2-1.5 1.1-2.8 4.1-4.1 19.7-8.3 71.1 3.7 73.3 4.2.3.1.6.4.5.8-.1.3-.4.6-.8.5-.5-.1-53.1-12.4-72.5-4.3-2.3 1-3.5 1.9-3.3 2.7.7 4.5 30 9.1 48.3 11 .3 0 .6.3.6.7-.1.4-.4.6-.7.6zM2130.2 1519.6c-.1 0-.2 0-.3-.1-1.7-.7-41.3-18.2-53.8-31.5-.2-.3-.2-.7 0-.9.3-.2.7-.2.9 0 12.3 13.1 53 31 53.4 31.2.3.1.5.5.3.8 0 .4-.2.5-.5.5zM2063.3 1616.9c-.2 0-.5-.1-.6-.4s0-.7.3-.8c30-12.4 63.2-25.8 63.5-25.9s.7 0 .8.4c.1.3 0 .7-.4.8-.3.1-33.5 13.5-63.5 25.9h-.1zM2386.1 1604h-.1c-.8-.2-80.5-15.9-105.3-18.5-.3 0-.6-.3-.6-.7 0-.3.3-.6.7-.6 24.8 2.6 104.6 18.3 105.4 18.5.3.1.6.4.5.7-.1.4-.3.6-.6.6z"/><path class="st4" d="M1895.5 557.8s-62.1 127.6-83.7 243.5c-7.2 38.7-5 97.9 19.5 123.6 48 50.3 117.5 9.7 129-49.1 10.7-54.1-64.8-318-64.8-318z"/><path class="st1" d="M1961 850.8c-4.1-60.1-35.7-183.7-53.4-249.5 0 0-10 86.2-9.8 129.1s11.6 120.1 29.4 124.3c6.1 1.5 19.2-.5 33.8-3.9z"/><path class="st4" d="M1892.8 354.2s-8.7 31.5 4.7 39.9c13.4 8.5 25.2-41.7 12.2-40.3-13 1.4-16.9.4-16.9.4zM1897.3 554.2c-24.6 42.4 40.8 221.2 40.8 221.2s40.7 221.4 46.5 244.3c5.4 21.6 383.2-13.9 352.2-110.7-5.1-16.1-24.3-74.3-44.6-129.2-21.4-57.8-66-135.5-95.4-189-23.8-43.3-36.1-82.5-78.3-104.5-61.9-32.3-170.3-19.9-221.2 67.9z"/><path class="st6" d="M2002.2 577c-31.7 7.5-66.8-30.8-71.1-45.5-1.9-6.4-2-12.5-.5-18.3 33-29.4 74.8-42.6 114-43.1 4.4 4.4 9.6 11.3 12.3 20.8 5.3 18.4-23 78.6-54.7 86.1z"/><path class="st8" d="M1979.7 413.8s17.3 35.4 38 65.8c2.5 3.7-17.5 37.6-34.9 40.7-5.1.9-18.5.4-19.7-7.5-3.9-24.9-12.6-48.6-12.6-48.6l29.2-50.4z"/><path class="st1" d="m1950.5 464.3 6.6-11.5 25.9-17.3s1.5 17.7-13.9 32.4c-4.9 4.7-9.6 8.4-13.9 11.3-2.5-9-4.7-14.9-4.7-14.9z"/><path class="st4" d="M2005.3 335.7c6.1 5.9 7.9 25.1 6.9 46.1s-11 39.6-29.1 42.4-22-70.7-12.5-79.3c9.4-8.7 28.6-15.1 34.7-9.2z"/><path class="st8" d="M1926.7 336.6c-19.1 3.7-32.8 20.7-32.9 40.2l-.1 20.4c0 9.6 1.2 27.4 2.9 41.6 1.8 14.1 8.3 27.9 34.7 27.5 26.4-.4 50.8-13 54.9-28s3.1-28.4 3.1-28.4 8 8.3 11.4-10.9c2-11.2 6.5-25.3-3.1-25.8s-11 4.8-13.2 4.3-13.1-32.4-42.5-41c-3.7-1.2-9.2-1.1-15.2.1z"/><path class="st4" d="M1985.3 351s1.7 32.8-1.7 36.4c-3.4 3.6-4.7 1.4-7.7 1.8s-3.9-1.9-5-4.2c-1.1-2.3-10.7-24.5-11-27.5-.2-3.1 23.6-6.6 25.4-6.5z"/><path class="st1" d="M1989.6 522s5.5 11.8 3.2 16.9c-2.3 5.1-13.3 6.8-15.2 4.4-1.9-2.5-8.4-12.3-6-16.7 2.5-4.4 12.7-12.2 18-4.6z"/><path class="st1" d="m1978.4 540.3 11.7-3 20.8 36.4c-2.8 1.5-5.7 2.6-8.6 3.3-7.6 1.8-15.5.9-23-1.6l-.9-35.1z"/><path class="st6" d="M2013 470s-19.2 29.8-24.7 36.8-6.9 8.5-6.9 8.5l-22.5-23.6s-2.4 4.1-2.5 7.8c-.1 3.7 1.8 17.7 1.8 17.7l10.9 18.5 13.2-14.3 21 6.7 20.1-47.9L2013 470z"/><path class="st1" d="M2035.3 1006.4c-3.1 0-5.2-.2-6.2-.5-.3-.1-.5-.5-.4-.8s.5-.5.8-.4c9.1 3 113.9-9.4 158.7-14.7 45.5-5.4 85.4-27 85.8-27.2.3-.2.7-.1.9.3.2.3.1.7-.3.9-.4.2-40.5 21.9-86.3 27.3-40 4.6-127.9 15.1-153 15.1zM2292.2 779.9c-3.3-8.8-7-18.1-11.2-27.6l-273.8 110s98.9 28.8 200.2 12.1c49.8-8.2 84-22.7 105.9-35.3-6.5-18.8-13.7-39.2-21.1-59.2z"/><path class="st4" d="M1969.7 355.7s-39.9 11.4-64.2 10.9-37.2-21.9-34.9-26.9c2.4-5 8.9-4 8.9-4s-5.8-25.2 17-34.1 24.2 4.6 24.2 4.6 3.1-11.7 15.2-12.1 14.4 8.4 18.3 10.2c3.9 1.8 17.7-5.9 27.4-1.6 9.7 4.4 8.2 14.1 8.2 14.1s12.6.7 17.8 15.2c5.4 14.6-19 24.2-37.9 23.7zM1871.3 810.7s165.8-49.5 202.8-57c37-7.4 34.6 44.4 32.9 49.3-1.8 4.9-118.3 121.1-213.2 142.7-38.9 8.8-82-96.2-22.5-135z"/><path class="st8" d="M2108.1 751.8s28.9-34.4 49.4-49.8c1.5 15.8 13.1 40.4 13.1 40.4s-7.4 15.5-13.6 20.7c-6.1 5.2-30.9 28.8-47.5 15.4-16.5-13.4-1.4-26.7-1.4-26.7zM1931.1 770.7s-31.7 7.1-44.9 18.6c-13.1 11.5-22.4 24.1-19.2 29.7 3.2 5.6 54.9-15.7 71.8-19.2 16.9-3.4 16.9-31.7-7.7-29.1z"/><path class="st4" d="M2097.8 486.4c-24.6 10.7 84.9 222.6 90.7 252.8.5 2.8-217.7 18.2-248.8 24.4-9.2 1.8 15.4 94 15.4 94s67.9 9 144.2 5.6c87.4-3.9 185.5-23.9 199-90.9 24.2-120.5-148.9-308.3-200.5-285.9z"/><path class="st1" d="M2184.7 728c-.2 0-.5-.1-.6-.4-.3-.6-27-62.9-40.3-92.8-13.3-29.9-43.4-107.6-43.7-108.4-.1-.3 0-.7.4-.8.3-.1.7 0 .8.4.3.8 30.4 78.5 43.7 108.4s40 92.2 40.3 92.8c.1.3 0 .7-.3.8h-.3z"/><path class="st8" d="M2157.5 702c6.2-4.7 11.6-7.6 15.2-7.4 15.7 1 45.2 21.9 45.8 30.3.6 8.4-17.6-5.1-17.6-5.1s19 19.3 15.6 22.8-11.5-1.1-11.5-1.1 3.4 6.5-.7 7.9c-4.1 1.4-23.9-14.6-23.9-14.6s16.1 15.9 13.8 23.2c-2.3 7.2-27.8-16.4-27.8-16.4s-7.4-23.8-8.9-39.6z"/><path class="st1" d="M2260.3 800.7c-.2 0-.3-.1-.5-.2-.5-.6-1.9-3.5-4.8-9.6-4.3-9.1-10.9-22.9-13.8-25.9-1-1.1-2.6-2.6-4.3-4.2-8-7.6-13.9-13.7-11.5-16.5 1.8-2.1 10 2.4 28.3 13.2 10.2 6 20.7 12.2 26 14 3.3 1.1 5.7.7 6.6-1.1 1.8-3.5-1.8-12.6-11.6-19.6-13.9-9.8-57-16.6-57.5-16.6-.3-.1-.6-.4-.5-.7s.4-.6.7-.5c1.8.3 43.9 6.9 58 16.9 9.9 7 14.2 16.7 12 21.2-.7 1.4-2.7 3.5-8.1 1.7-5.5-1.8-16-8-26.2-14.1-10.1-5.9-25.4-15-26.7-13.5-1.9 2.1 6.8 10.3 11.4 14.7 1.8 1.7 3.3 3.2 4.4 4.3 3 3.2 9.3 16.5 14 26.3 2.2 4.5 4.2 8.8 4.6 9.3.2.3.2.7-.1.9h-.4zM1811.8 893l-.7-4.1c-.1-.8-3.1-20.4 20.3-44.8 11.8-12.4 19.1-18.7 23.4-21.9-9.9 3.6-28.8 11-32.5 16.4-.2.3-.6.4-.9.2s-.4-.6-.2-.9c4.8-7.2 33.9-17.3 38.5-18.8.5-.2.7-.2.7-.2l5.8-.6-5.5 1.8s-.3.1-.8.3c-2 .9-9 5.1-27.7 24.6-12 12.5-16.8 23.7-18.7 31-1 3.7-1.3 6.8-1.4 9 8.2-19.6 54.8-63.4 56.9-65.4.3-.2.7-.2.9 0 .2.3.2.7 0 .9-.6.5-55.4 52-57.7 68.5l-.4 4zM1921.9 416.1c-4.5-.3-7.6-1.5-9.3-3.6-1.3-1.7-1.2-3.4-1.2-3.8-.2-2.1.6-4.4 2.2-6.4 2.1-2.7 6.8-9.6 4.9-17.2-2.5-9.5-6.1-14.1-11.2-14.1h-.3c-7.9.2-12.9 3.9-13 3.9-.3.2-.7.1-.9-.1-.2-.3-.2-.7.1-.9.2-.2 5.4-3.9 13.7-4.2h.3c5.7 0 9.8 4.9 12.4 15.1 2.1 8.1-2.9 15.5-5.1 18.3-1.4 1.8-2.1 3.7-1.9 5.6v.2c0 .1-.2 1.5.9 2.9 1.4 1.8 4.3 2.8 8.3 3.1.4 0 .6.3.6.7.1.2-.2.5-.5.5zM1935.8 378.3h-.2c-.3-.1-.5-.5-.3-.8 2.6-6.1 18.9-9.8 19.6-10 .4-.1.7.1.8.5.1.3-.1.7-.5.8-.2 0-16.3 3.7-18.7 9.2-.2.1-.4.3-.7.3zM1953.3 385.6c-.2 0-.4-.1-.5-.2-.2-.2-4.2-5.1-11.7-3.6-1 .2-3.7 1.2-4.6 1.6-.3.1-.7 0-.8-.3-.1-.3 0-.7.3-.8.1-.1 3.6-1.5 4.8-1.7 8.3-1.7 12.8 3.8 13 4 .2.3.2.7-.1.9-.1 0-.2.1-.4.1z"/><path class="st1" d="M1938.7 383.3c3.4-2.3 8 .7 7.4 4.8-.3 2.1-1.3 4.4-3.9 4.6-5 .4-5.2-5.6-4.8-7.7 0-.6.5-1.2 1.3-1.7zM1896.1 383.7c-.2 0-.5-.1-.6-.4s0-.7.3-.8c7.4-3.2 13.7-.1 14 0 .3.2.4.5.3.9-.2.3-.5.4-.9.3-.1 0-6-2.9-12.9 0h-.2z"/><path class="st1" d="M1902.6 384.9s1.5 6.6-2.1 7.7-4.3-4.9-4.3-7 3.5-4 6.4-.7z"/><path class="st9" d="M1955.5 401.6c0 3.8-4.7 6.9-10.4 6.9s-10.4-3.2-10.3-7c0-3.8 4.7-6.9 10.4-6.9 5.6 0 10.3 3.1 10.3 7zM1908.6 400.3c0 3.8-4.7 6.9-10.4 6.9s-10.4-3.2-10.3-7c0-3.8 4.7-6.9 10.4-6.9s10.3 3.2 10.3 7z"/><path class="st6" d="M1913.1 431.6c3.4.7 20.8-.6 27.2-1.1-3.1-4.1-8.9-9.1-19.3-9.4-5.3-.1-8.4 4-10.2 8.3.3 1 1 1.9 2.3 2.2z"/><path class="st1" d="M1943.3 436s-.8-2.5-3-5.5c-6.4.5-23.9 1.8-27.2 1.1-1.3-.3-2-1.2-2.3-2.2-1.8 4.2-2.3 8.5-2.3 8.5l34.8-1.9zM1939.7 764.3c-.3 0-.6-.2-.6-.5s.2-.7.5-.7c.4-.1 35.8-5.1 49.7-6.1 13.8-1 172.7-14.9 174.3-15 .4 0 .7.2.7.6 0 .3-.2.7-.6.7-1.6.1-160.5 14-174.3 15-13.8.8-49.3 5.9-49.7 6zM1892.5 404.5l-1.5-.1c-2.3-.1-4.3-1.3-5.8-3.5-3.7-5.3-4.2-15.3-2.9-19.6.9-2.9 5.3-4.3 8.8-4.9 6.5-1.1 17.4-.9 20.4 3.1 3.8 5.1 2.2 15.4 2 16.6-.3 5.2-4.2 7.3-8.9 8.1-4 .7-8.5.5-12.1.3zm-1-25.1c-4 .7-6.1 1.9-6.4 2.8-1 3.3-.6 12.5 2.5 17 1 1.4 2.2 2.1 3.5 2.2l1.5.1c9.2.5 17.4.4 17.7-5.6v-.2c.5-2.8 1.2-10.8-1.4-14.3-1.7-2.2-10.2-3.2-17.4-2 .2 0 .1 0 0 0zM1950.6 405.7l-1.7.1c-9.4.5-23.5 1.2-25.1-9-.3-1.3-3.3-12.7.7-18.4 3-4.3 14.5-4.6 21.5-3.8 4.1.5 11.1 1.8 12.6 5.5 1.9 4.7 2.3 15.6-1.5 21.5-1.4 2.2-3.3 3.5-5.6 3.9-.2.2-.5.2-.9.2zm-23.5-25.5c-2.8 3.9-1.1 12.8-.3 15.9v.2c1.1 7.5 13.6 6.9 21.9 6.4l1.7-.1c1.7-.1 3-.9 4.1-2.6 3.1-4.8 2.9-14.7 1.2-18.7-.5-1.2-3.9-2.9-10.1-3.6-4.6-.5-9.4-.4-13 .2-2.7.5-4.8 1.3-5.5 2.3z"/><path class="st1" d="M1924 386.1c.6-.1 1.1-.6 1.2-1.2.2-.8-.4-1.6-1.2-1.8-5.1-1-11.8.8-12.1.9-.8.2-1.3 1.1-1.1 1.9.2.8 1.1 1.3 1.9 1.1.1 0 6.2-1.7 10.6-.8.4-.1.6 0 .7-.1zM1957.3 382.3l30.8-7.3c.7-.2 1.1-1 .9-1.8s-.9-1.4-1.6-1.2l-30.7 7.3c-.7.2-1.1 1-.9 1.8.2.8.8 1.3 1.5 1.2z"/><path class="st10" d="M1905.9 53.3s48.5-3 60 32c8.7 26.5-25.1 52.9-24.5 76 .5 23.1 0 32.8 0 32.8H1906s-12-46.2 5.6-64.1c17.7-17.9 24.1-18.6 19-34.3-1.4-4.4-28.6-8.2-28.6-8.2l3.9-34.2zM1906.3 204.7h34.9v27.6H1908zM2015.8 137s33 6.4 34.6 31.9c1.2 19.2-26 31.1-29.7 46.7s-5.7 22-5.7 22l-23.8-6.2s0-33.1 14.9-42c15-8.9 19.4-8.3 18.7-19.7-.2-3.2-17.8-10.5-17.8-10.5l8.8-22.2zM1989.7 238.6l23.4 6.1-4.8 18.6-22.3-5.8zM1811.1 183.4s21.1-12.7 34.4.3c10.1 9.8 1.2 29.6 6.8 39.9 5.7 10.2 7.7 14.7 7.7 14.7l-15.9 8.3s-16.2-17.9-12.5-30.1c3.7-12.2 6.4-14 .5-19.8-1.7-1.6-14.8 3-14.8 3l-6.2-16.3zM1846.9 251.3l15.6-8.2 6.5 12.4-14.9 7.8z"/><path class="st2" d="M700.6 536.1s12.6-19.2 28.9-22c16.3-2.8 71.4 5.8 80.2 18.1 8.8 12.2 15.3 28.8 13.1 32.4s-122.2-28.5-122.2-28.5z"/><path d="M318 1855s0 .1 0 0c0 .1 0 0 0 0z" style="fill:#cc8b70"/><path class="st9" d="M364.3 1870c-14.1-3.1-35.6-12.7-35.8-11.7.7-2.5 21.9-112.3 31.6-167.7 36.4 2.2 65.9-7.9 97.9-6.8-8 37.1-56.8 164-56.8 164s.3 3.2.7 8.3c-9.6 6-27.6 16.1-37.6 13.9z"/><path class="st1" d="M186.5 1918.9c-1.9-8.8 39-17 75.4-29.4 38.5-13.1 54.6-30.2 56.1-34.4v-.1c.2-1 3.8-15.2 21-9.2 17.9 6.2 11.2 21.1 25.3 24.2 10 2.2 28-7.9 37.5-13.9 1.1 16.7 2.3 54-8.8 69l-36.6 5.2s-1.5-15.5-14.3-11.3c-12.8 4.1-10 16.5-23.2 15.5-13.2-1.1-126.4 12.8-132.4-15.6z"/><path class="st12" d="M255.3 1900.1c-1.6-.8-2.4-2.5-2.3-4.3.8-8 28.3-22 28.5-22.1 8.7-4.2 16.5-1.2 19.8 4 3.1 5 1.9 11.4-3.1 15.9-9.3 8.5-24.1 8.4-25.8 8.4h-2.5c-4.5-.1-11.6-.3-14.6-1.9zm18.3-6.4c3.5.1 13.8-.7 19.5-6 2.3-2.1 1.9-4.1 1.1-5.3-1.4-2.3-5.1-3.7-9.6-1.5-7.5 3.6-15.6 9-20.1 12.6 2.6.2 5.8.3 8.9.2h.2z"/><path class="st9" d="M924.6 1735.6c.1 6.1 3.4 39 3.9 41.8 10.6 53 21.3 80.9 22.3 85.8 0 0-1.7 17.9-14.9 21.4-13.2 3.4-59.1-9-62-13.2s-2.8-17-6.2-19c0 0-17.8-56.4-35-106.7 43.4-2.1 75.3-8.2 91.9-10.1z"/><path class="st1" d="M885.8 1864.3c2.9 4.2 26.3 20.2 39.4 16.8 13.2-3.4 7.3-7.4 10.8-18.4 3.4-11 17.6-10.1 20.4-6.1 12.1 17.3 69.4 62 79.1 83.4s-19.5 18.5-42.9 8.8-71.1-21.4-71.1-21.4-3.1-26.3-9.9-21.4c-6.8 4.9-4.9 16.6-4.9 16.6s-29.2-4.9-31.2-8.8c-1.9-3.9-14.6-52.6-7.8-61.4 3.5 1.9 15.2 7.7 18.1 11.9z"/><path class="st12" d="M967.8 1907.3c-5.5-4.6-8-10.4-6.8-16 .8-3.5 3.8-9.8 15.1-12.8 17.6-4.5 29.5 27.8 30.8 31.5.4 1.2.2 2.5-.5 3.5s-1.9 1.6-3.1 1.7h-1.1c-5.2 0-25.4-.5-34.4-7.9zm10.3-21.3c-5.3 1.4-8.8 3.9-9.5 6.9-.6 2.6 1 5.7 4.1 8.4 5 4.1 16.8 5.6 24.8 6-4.1-9.3-11.4-21.4-18.1-21.4-.4-.1-.9 0-1.3.1z"/><path class="st2" d="M813.9 555.7s-8.5 92.6 30.1 128.9c16.4 15.5 42.7 35.2 74 52.3 27.7-31.1 37.5-77.6 40.7-99.7l-144.8-81.5z"/><path class="st9" d="M1233.5 536.6c-22.9-16.5-203.1 138-203.1 138l-35.6-18.5-36.1-18.8c-3.2 22.1-13 68.6-40.7 99.7 10.7 5.8 21.9 11.4 33.6 16.4 34.3 14.6 71.9 24.2 107.7 21.8 83.6-5.7 213-210.7 174.2-238.6z"/><path class="st13" d="M769.2 341.5s-16.1-2.7-27.9 10.6c-11.8 13.3-34.5 25.7-33 57.9s38 62.1 53.4 72.5c15.5 10.5 68.7-51.4 70.8-57.8 2-6.4 2-52.3-4-62.9-.4-.8-.8-1.5-1.2-2.1-3.3-5.5-8.9-9.3-15.2-10.4l-42.9-7.8z"/><path d="M811.4 816.7c0-1 0-1.9.1-2.8.2-8.3 1.1-15.6 2.6-22.3-17-1.3-39.3-3.5-67.3-7.1-64.3-8.2-145.3-41.8-169.5-52.3-9.3 21.6-18.3 40.2-26.4 52.2-.4.6-79.9 145-91.3 169.4-27.5 58.2-58.8 106.6-72.5 234.9-4 37.4-123.2 619.1-123.2 619.1s36.2 14.3 92.3 20.1c55.1 5.7 108.2-11.2 108.2-11.2l79.3-326.5s26.9-45.7 31.4-63.1c5.1-19.4 2.9-78 2.9-78l62.7-257.9 143.4 725.5s33.3 6.8 88 6.8c46.8 0 94.4-11.1 94.4-11.1s-47.3-294.6-89.6-563.4c-1.8-11.5 3.4-53.1 1.6-64.5-5.1-32.7-17.2-34.7-22-65.6-25.6-162.9-45.3-292.5-45.1-302.2z" style="fill:#816de2"/><path class="st2" d="M814.1 791.5c10.3-46.6 47.1-58.6 49.9-111.1 1.3-25.2-13.5-74.1-28.3-98.5-5.1-8.4-12.2-17.7-21.8-26.2 0 0-80.1-30.3-81.9-30.3-5.8-.1-11.5.3-17.2 1.4-18.7 3.3-36.5 12.5-52.1 24.6-21.8 11.3-55.5 111.4-85.4 180.8 24.2 10.5 105.2 44.1 169.5 52.3 28 3.5 50.3 5.7 67.3 7z"/><path class="st9" d="M782.9 602.9s-66.9-73-63.6-76.8c45.5-10.2 41.9-52.4 41.9-52.4s28.8.1 34.7 20.1c1.9 6.6-4.8 33 18.1 62l-31.1 47.1z"/><path class="st1" d="M790 512.5c2.6 1.6 4.9 2.8 7 3.7-1.3-10.1-.4-17.9-1-21.5-11.4-1.8-25.1-4.5-25.1-4.5s5.4 14 19.1 22.3z"/><path class="st9" d="M836.6 422.4c-.3 3.8 8.2 22.8 6.8 36.8-2.1 20.5-9.2 36.3-38.1 38.9-28.9 2.6-46.8-17.4-53.1-30.6s-3.1-13.7-5.2-16.7-5.6-.3-9.8-6.7c-4.2-6.4-4.4-18.3.7-20.5 5-2.3 13.4 2.9 13.7-.1s-9.2-32.7-.1-42.7c9-10 37-16.1 60.1-11.6s23.4 11.8 25.1 19.9c1 5.3.5 26.4-.1 33.3z"/><path class="st1" d="M810.2 453.8c-1.7 0-3.5-.3-5.5-.8-.6-.2-1-.8-.8-1.4s.8-1 1.4-.8c4.6 1.2 8.2.9 9.8-.9 1.4-1.6 1.4-4.6-.2-8.6-2.8-7.4-7-20.2-2.7-22.7 2.7-1.6 18.5-6.5 20.3-7.1.6-.2 1.3.2 1.5.8.2.6-.2 1.3-.8 1.5-4.8 1.5-17.7 5.6-19.8 6.9-1.2.7-1.3 6.8 3.7 19.8 1.9 5 1.8 8.7-.3 11-1.4 1.5-3.6 2.3-6.6 2.3zM777.6 431.5c-.4 0-.9-.3-1.1-.7-.3-.6 0-1.3.6-1.6 5-2.3 11.9-5.6 17.8-.1.5.4.5 1.2.1 1.7s-1.2.5-1.7.1c-4.4-4-9.3-2.2-15.3.5-.1 0-.3.1-.4.1zM797.8 420.4h-.2l-22.5-3.1c-.6-.1-1.1-.7-1-1.3.1-.6.7-1.1 1.3-1l22.6 3c.6.1 1.1.7 1 1.3-.1.6-.6 1.1-1.2 1.1z"/><path class="st1" d="M818.3 428.7c-.3 0-.7-.2-.9-.4-.4-.5-.3-1.3.2-1.7 7.4-5.9 12.8-2.6 15.4-1 .6.3.7 1.1.4 1.6-.3.6-1.1.7-1.6.4-3.4-2.1-7.1-3.7-12.7.8-.3.2-.5.3-.8.3z"/><path class="st1" d="M825.4 429.8s-.1 3.4 3.8 4c2.5.4 3.5-3.1 3.7-5.2.1-1.3-.6-2.6-1.8-3.2-2.6-1.1-6.6-.4-5.7 4.4zM786.3 432.1s-.1 3.4 3.8 4c2.5.4 3.5-3.1 3.7-5.2.1-1.3-.6-2.6-1.8-3.2-2.6-1.1-6.6-.3-5.7 4.4z"/><ellipse transform="matrix(.995 -.09955 .09955 .995 -40.346 80.61)" class="st15" cx="787.6" cy="444.6" rx="9.5" ry="6"/><path class="st15" d="M824.7 440.9c.3 3.3 4.8 5.5 10 5s9.2-3.6 8.9-6.9-4.8-5.5-10-5c-5.2.6-9.2 3.7-8.9 6.9z"/><path class="st13" d="M795.7 391.7c-9 5.6-28.7 17.7-33.9 33.9-5.3 16.2-10.8 19.6-11.6.9-.8-18.6-12.9-40.8 13.7-59.3 13.9-9.7 32.6-9.8 35.6-5.1 2.9 4.8 21.8 13.5-3.8 29.6z"/><path class="st13" d="M799.2 370.5s27.9 26.6 31.8 32.2c3.9 5.5 8.9 14 8.9 14s4.2-8.6 1.4-22.3c-2.8-13.7-8.4-29-23.5-30-15.2-1-21.5-2-18.6 6.1z"/><path class="st1" d="M661.6 618.6s-20.4 3-40.5 6.2c-7.1 16.9-14.4 35.2-21.6 53.5 28.6-7.3 62.1-59.7 62.1-59.7zM1049.5 739.3c-.6 0-1.1-.5-1.2-1.1-2.2-26.9-7.2-42.5-11-50.9-4.1-9.1-7.6-11.8-7.7-11.8-.5-.4-.6-1.1-.2-1.7.4-.5 1.1-.6 1.6-.3.6.5 15.2 11.7 19.6 64.4.2.8-.3 1.4-1.1 1.4.1 0 .1 0 0 0z"/><path class="st13" d="M736.6 363.9s-26.4-24.1-60.1-11.4c-33.6 12.6-26.7 48.8-39.5 65.3s-70.4 6.1-93.9 30 5 56.4-13 72.5c-18 16.2-46.7 6.4-52.6 27.8-5.9 21.5 55.9 69.3 112.9 23.4 57-45.9 33.9-62.1 40-85 4.6-17.4 40.3-4.3 64.9-24.6 24.6-20.3 27.1-65.9 39.1-71.4 12.1-5.4 6-20.4 2.2-26.6z"/><path class="st9" d="m1219.6 587.7 26.1-26.4s42.6-9.3 45.8-13.1c3.2-3.8 1.4-10.5 1.4-10.5s6.6-7.9 6.1-12.6-3.3-8.9-3.3-8.9 8.8-11.3 3.2-17.4c-5.6-6.1-19.7.9-24.1 1.6-4.4.8.6-11-11.8-12.7-12.5-1.7-42 31.7-46.2 42.4s-5.4 15.2-5.4 15.2-33.3 33.1-25.3 40.3c8.1 7.2 33.5 2.1 33.5 2.1z"/><path class="st1" d="M1270.5 533.7c-2.7 0-6-1.9-8.5-5.1-3.7-4.7-4.5-11.9-4.7-16.3-4.4 6.5-10.7 15.5-14.6 18.7-.5.4-1.2.3-1.7-.2-.4-.5-.3-1.2.2-1.7 3-2.5 8.8-10.1 15.8-20.8.2-.3.3-.4.3-.5.3-.4.8-.6 1.3-.5.9.3.9.9.9 2.2.1 3 .2 12.2 4.3 17.4 2.8 3.6 6.1 4.8 7.8 4 1.6-.7 2.1-3.1 1.4-6.6-2-10.3-.5-24-.5-24.5.1-.6.6-1.1 1.3-1 .6.1 1.1.7 1 1.3 0 .1-1.5 13.9.4 23.8 1.3 6.6-1.5 8.7-2.7 9.2-.6.5-1.3.6-2 .6z"/><path class="st1" d="M1273.2 518.3c-.5 0-.9-.3-1.1-.7-.3-.6 0-1.3.6-1.6l9-3.9c.6-.3 1.3 0 1.6.6.3.6 0 1.3-.6 1.6l-9 3.9c-.1.1-.3.1-.5.1zM1275.3 528.6c-.4 0-.8-.2-1.1-.6-.3-.6-.1-1.3.5-1.6l5.3-2.7c.6-.3 1.3-.1 1.6.5.3.6.1 1.3-.5 1.6l-5.3 2.7c-.2.1-.3.1-.5.1zM1265.8 547.8c-2.7 0-5.1-.5-6.7-1.9-1.3-1.1-1.4-2.3-1.3-3.1.7-4.4 10.9-8.7 12.9-9.5.6-.2 1.3 0 1.5.7.2.6 0 1.3-.7 1.5-4.5 1.8-11.1 5.4-11.4 7.7 0 .2-.1.5.5 1 3.6 3 14.4.1 18.2-1.3.6-.2 1.3.1 1.5.7.2.6-.1 1.3-.7 1.5-1 .3-7.9 2.7-13.8 2.7z"/><path class="st16" d="M925.9 1559c-4.8-30.3-9.9-62.3-15.1-95.2l12.7 355.8c4.1-.5 8-1.1 11.7-1.7l-9.3-258.9zM799.6 790.3c-3.8-.3-7.7-.7-11.9-1.1l72.9 1034c3.7.1 7.4.1 11.3.1h.5l-72.8-1033zM445.5 1821.3l117.9-1059c-4.3 8.6-8.5 16.1-12.5 22 0 .1-.8 1.5-2.2 3.9L433.4 1823.8c4.4-.8 8.5-1.7 12.1-2.5zM715.6 778.9l34.3 865.4 14.7 74.4-37.2-937.3c-3.9-.8-7.8-1.6-11.8-2.5zM349.6 1827l98.2-849.3c-5.2 10.6-10.5 21.3-15.6 32.7L338 1825.5c3.7.5 7.6 1 11.6 1.5zM620.5 1173.6l13.6-56.1 12.1-358.6c-4-1.4-7.8-2.7-11.6-4.1l-14.1 418.8z"/><path class="st9" d="M298.2 881.4s-8.9 16.7-19.3 23.9-22.1 11.2-28.4 15.5c-6.3 4.3-4.7-17.6 9.3-25 13.9-7.4 42.4-28.4 38.4-14.4z"/><path class="st9" d="M319 840.7s-16.5 35.7-20.8 40.7-68.2 34.8-75.1 25.9c-6.9-8.9-1.4-15.3-1.5-17.6s-.3-14.4-.1-15.6c.1-1.2 1.5-5.6 2-8.8.5-3.1-1.6-11.8 0-15.2s28.8-8.1 34.8-12c6.1-3.9 31.2-27.8 36.5-29.9 5.2-2 24.8 22 24.2 32.5z"/><path class="st9" d="M508.6 571.8c-46.1 15.5-89.7 36.4-115.7 64.2-75.8 81.2-160.1 219.8-118 232.9 42.1 13 164.9-179.2 202.4-193.7 10.7-4.2 28.3-8.6 48.5-13.5-.7-33.1-18.6-67.2-17.2-89.9z"/><path class="st2" d="M695.6 532.2s-98.2 9.8-187 39.6c-1.4 22.8 2.6 78 21.1 102.8 50.4-12.1 114-39.8 136-59.2 43.4-38.3 29.9-83.2 29.9-83.2z"/><path class="st1" d="M581.4 738.1s-10.8 19.1-10.3 28.4c.5 9.3 9 8.8 38.3 19.1s41 12.2 65.5 17.6c24.5 5.4 32.4 4.9 44.3 8.3 11.9 3.4 4.1 2.9 27.6 5.9 23.5 2.9 58.7 0 58.7 0l2.4-21.5s-30.8-1.3-58.2-4.3-77.3-18.2-100.8-24.5c-23.5-6.5-67.5-29-67.5-29z"/><path class="st1" d="M670.9 789.2s-25.4 141.7-20.1 144.2c5.4 2.4 22.5-3.4 28.4-9.3s22-130.9 10.3-132.5c-11.7-1.6-18.6-2.4-18.6-2.4z"/><path class="st1" d="M685.1 808.2s12.7 88 26.4 81.6 28.8-9.3 28.6-24.9c-.2-15.7-45.7-82.8-50.6-75.7s-4.4 19-4.4 19zM861.2 700.6c-.1 0-.2 0-.3-.1-.6-.2-1-.8-.8-1.5.1-.3 7.6-25.5 2.9-40.3-2.3-7.2-6.6-19.2-11.1-31.8-4.9-13.7-10-28-12.4-35.8-.2-.6.2-1.3.8-1.5s1.3.2 1.5.8c2.4 7.8 7.5 22 12.4 35.7 4.5 12.7 8.8 24.6 11.1 31.9 5 15.5-2.5 40.6-2.8 41.7-.3.6-.8.9-1.3.9zM778.9 649.6c-.2 0-.5-.1-.7-.2-1.9-1.3-45.4-31.7-48.7-43.4-.5-1.9-.3-3.6.6-5.2 2.8-4.5 11.2-6.1 17.4-7.3 1.3-.2 2.7-.5 3.8-.8-2.9-.9-9.5-1.9-15.9-2.8-11.6-1.7-24.7-3.6-29.2-6.8-1.3-.9-5.3-3.7-1.7-28.1 1.7-11.8 4.4-23.1 4.5-23.2.2-.6.8-1 1.4-.9.6.2 1 .8.9 1.4-4.1 17-8.7 45.4-3.7 48.8 4.1 2.8 17.4 4.8 28.2 6.4 9.9 1.4 16 2.4 18.1 3.7 1 .7 1.1 1.4 1 1.8-.3 1.5-2.2 1.8-6.8 2.7-5.4 1-13.6 2.6-15.8 6.2-.6 1-.7 2-.4 3.3 1.1 3.8 12.5 17.5 47.8 42.1.5.4.7 1.1.3 1.6-.4.5-.8.7-1.1.7zM788.8 647.5c-.3 0-.6-.1-.8-.3-.5-.5-.5-1.2 0-1.7 20.4-20.9 41.4-45.5 39.9-48.9-2.5-2.2-7.1-2.2-10.4-2.2-2.7 0-4.3 0-5-1.1-.2-.3-.4-1 0-1.8.2-.4.7-1.1 1.2-2 2.7-4.4 8.4-13.7 10.1-22.8.1-.6.7-1.1 1.4-.9.6.1 1.1.7.9 1.4-1.8 9.5-7.6 19-10.4 23.6-.3.5-.6.9-.8 1.3.7.1 1.7.1 2.5.1 3.7 0 8.8 0 12 2.8.3.3.8.9.8 1.8.4 8.2-36.4 46.2-40.6 50.5-.2.1-.5.2-.8.2z"/><path class="st1" d="M741.6 779.6c-.1 0-.3 0-.4-.1-.6-.2-.9-.9-.7-1.5.3-.9 32.6-92.4 39.4-116.7 6.7-24.2 3-54.2 2.9-54.5-.1-.6.4-1.2 1-1.3.7-.1 1.2.4 1.3 1 0 .3 3.8 30.7-3 55.4-6.8 24.5-39.1 116-39.4 116.9-.2.5-.7.8-1.1.8z"/><path class="st6" d="M640.6 1092.1c-.7-.1-1.2-.6-1.2-1.3.1-.7 6.2-68.9 35.5-99.1 24.6-25.5 75.9-39.9 98.4-37.1 6 .7 9.9 2.6 11.6 5.5.7 1.2.8 2.5.3 3.9-3.3 9.2-35.1 21.4-73.1 35.3-14.1 5.1-28.6 10.5-31.8 12.7 7.9 2.3 67-3.2 103.9-7.3.7-.1 1.2.4 1.3 1s-.4 1.2-1 1.3c-.3 0-25.7 2.9-51.4 5.1-52.4 4.5-54.3 2.2-55.2 1.1-.4-.5-.5-1-.3-1.6.8-2.4 9.4-5.7 33.8-14.6 27.3-10 68.4-25 71.7-33.9.3-.7.2-1.3-.1-1.9-1.3-2.2-4.7-3.8-9.8-4.4-21.5-2.6-72.7 11.8-96.4 36.4-28.7 29.7-34.8 97-34.9 97.7-.2.8-.7 1.2-1.3 1.2zM752.9 1197h-.9c-2.2-.1-3.5-.9-3.8-2.2-.4-1.9-1.4-6.5 51.7-35.8 25.9-14.3 52.3-27.7 52.6-27.8.6-.3 1.3-.1 1.6.5s.1 1.3-.5 1.6c-.3.1-26.5 13.4-52.2 27.6-48.8 26.9-50.9 32.5-50.9 33.4 0 0 .3.3 1.6.3 21.9 1.2 99.5-47.4 100.3-47.9.6-.3 1.3-.2 1.6.4s.2 1.3-.4 1.6c-3 2.1-77.1 48.3-100.7 48.3zm-2.3-2.7zM843.7 1417.3c-.6 0-1.1-.5-1.2-1.1-3.4-47.6 11.4-130.8 17.7-166.3 1.5-8.3 2.6-14.8 2.6-15.6-.1-.6.3-1.2.9-1.3.6-.1 1.3.3 1.4 1 .2.8-.3 3.6-2.6 16.4-6.3 35.4-21 118.4-17.7 165.7.2.6-.3 1.2-1.1 1.2.1 0 .1 0 0 0zM410.7 1575.8c-.2 0-.4-.1-.6-.2-.6-.3-.7-1.1-.4-1.6 31.2-52.6 125.9-87.2 126.8-87.6.6-.2 1.3.1 1.5.7s-.1 1.3-.7 1.5c-.9.3-94.9 34.7-125.6 86.6-.2.4-.6.6-1 .6zM473 982c-.5 0-.9-.3-1.1-.8-.2-.6.1-1.3.7-1.5 58.3-21.1 103.3-89.5 103.7-90.2.4-.5 1.1-.7 1.6-.3s.7 1.1.3 1.6c-.5.7-45.9 69.7-104.9 91.1-.1 0-.2.1-.3.1z"/><path class="st1" d="M792 466.1s4.8-7.4 19.1-7.4c7 0 11 2.2 13.4 4.6 2.5 2.5 1 5.2.9 5.7-.9 3.2-7.6 4.2-13.5 4.2-6.1.1-26.5-2.1-19.9-7.1z"/><path class="st6" d="M821.7 467c1.9-.8 2.2-2.9 2.1-4.4-2.4-2.1-6.4-4-12.7-4-14.3 0-19.1 7.4-19.1 7.4-.3.2-.5.5-.7.7 5.6 1.6 27.7 1.4 30.4.3z"/><path class="st1" d="M469 675.8c-.2 0-.5-.1-.7-.2-4.5-3.2-44.1-31.5-43.6-41.6.1-1.4.8-2.4 2-3.1 11-6.2 35.9 23.5 38.7 26.9.4.5.3 1.2-.2 1.7-.5.4-1.2.3-1.7-.2-.1-.1-6.7-8.2-14.6-15.4-9.9-9.1-17.4-13-21.1-10.9-.5.3-.7.6-.8 1.2-.2 3.7 11 17.2 42.6 39.6.5.4.7 1.1.3 1.6-.1.2-.5.4-.9.4z"/><path class="st10" d="m917 402.3 113.3 65.3 23.1-53.2zM911.3 351.6l153-62.6-29.7-49.8zM860 304.4l77.7-113.1-55.3-17.3z"/></svg>