<?xml version="1.0" encoding="utf-8"?>
<!-- Generator: Adobe Illustrator 28.0.0, SVG Export Plug-In . SVG Version: 6.00 Build 0)  -->
<svg version="1.1" id="Layer_1" xmlns="http://www.w3.org/2000/svg" xmlns:xlink="http://www.w3.org/1999/xlink" x="0px" y="0px"
	 viewBox="0 0 500 351" style="enable-background:new 0 0 500 351;" xml:space="preserve">
<style type="text/css">
	.st0{fill:#FFFFFF;}
	.st1{fill:url(#SVGID_1_);}
	.st2{fill:url(#SVGID_00000062909898688500462390000009263603676974087560_);}
	.st3{fill:#240028;}
	.st4{fill:#D97044;}
	.st5{fill:url(#SVGID_00000143588355615091541620000003393103597200316058_);}
	.st6{fill:#993B11;}
	.st7{fill:#F99981;}
	.st8{fill:#88220A;}
	.st9{fill:#512B54;}
	.st10{fill:#7703FC;}
	.st11{fill:#89CBFB;}
	.st12{fill:#00459A;}
	.st13{fill:#5F07DD;}
	.st14{fill:#FF7B7A;}
	.st15{fill:#4A04B7;}
	.st16{fill:#6D80F2;}
	.st17{fill:url(#SVGID_00000113316143431291306420000007992211970093755528_);}
</style>
<path class="st0" d="M406.7,189.9c1.4,0.3,2.9,0.7,4.3,1l4.3,1.2c2.9,0.8,5.6,1.6,8.4,2.4l-0.6,0.3c0.5-2.7,0.8-5.2,1.4-7.8
	c0.5-2.7,1-5.2,1.6-7.8c-0.2,2.7-0.6,5.3-0.9,8c-0.3,2.7-0.7,5.3-1.2,7.8l-0.1,0.5l-0.5-0.1c-2.8-0.8-5.6-1.7-8.4-2.5l-4.2-1.4
	C409.5,190.8,408.1,190.3,406.7,189.9L406.7,189.9z M417.6,207.4c2.7,0.1,5.2,0.2,7.8,0.5c2.7,0.2,5.2,0.5,7.8,0.7l-0.5,0.3
	c0.7-3.1,1.5-6.2,2.3-9.3c0.8-3.1,1.6-6.2,2.5-9.3c-0.6,3.2-1.2,6.3-1.8,9.5s-1.4,6.2-2.2,9.5l-0.1,0.3h-0.3
	c-2.7-0.2-5.2-0.6-7.8-0.9C422.8,208.2,420.2,207.7,417.6,207.4L417.6,207.4z"/>
<linearGradient id="SVGID_1_" gradientUnits="userSpaceOnUse" x1="389.8825" y1="35.5434" x2="352.9941" y2="58.1885" gradientTransform="matrix(1 0 0 -1 0 352)">
	<stop  offset="0" style="stop-color:#DDE1EF"/>
	<stop  offset="1" style="stop-color:#FFFFFF"/>
</linearGradient>
<path class="st1" d="M349.4,291.8l-9.1,6.1l34.8,9.9l10-6.1L349.4,291.8z"/>
<linearGradient id="SVGID_00000116934487475311631360000017788143197002282927_" gradientUnits="userSpaceOnUse" x1="200.5978" y1="66.2463" x2="306.7608" y2="33.792" gradientTransform="matrix(1 0 0 -1 0 352)">
	<stop  offset="0" style="stop-color:#DDE1EF"/>
	<stop  offset="1" style="stop-color:#FFFFFF"/>
</linearGradient>
<path style="fill:url(#SVGID_00000116934487475311631360000017788143197002282927_);" d="M257.5,318.9l68.7-9.4L256.1,287l-62.2,6.7
	L257.5,318.9z"/>
<path class="st3" d="M276,120.5c-3.9,6.2-8.1,9.8-15.2,12.2c-6.2,2.1-17.1,3.2-20.3,9.8c-4.3,8.5,0.7,20.1,7.5,25.6
	c10.3,8.1,25.6,4.7,34.8-3.8c8.5-7.7,11.3-18.5,9.9-29.4c-0.3-1.6-0.7-2.8-1.2-4.3c-0.8-1.9-1.2-3.8-2-5.5c-1.1-2.4-3.1-5-5.2-6.4
	c-1.5-1.1-3.6-1.6-5.4-0.9C277.6,118.2,276.7,119.3,276,120.5L276,120.5z"/>
<path class="st4" d="M379,149.3c0,0-6.7,27.4-28.2,44.4c-20.9,16.7-51.8,13.2-68.5-7.8c-8.9-11.1-13.6-24.6-1.9-48.2l42.2-12.8
	l19.2-4.3l8.6,20.4C350.4,141.1,364.2,145.2,379,149.3L379,149.3z"/>
<linearGradient id="SVGID_00000080172309465319896770000013822139269818306724_" gradientUnits="userSpaceOnUse" x1="287.4348" y1="206.9245" x2="361.6175" y2="206.9245" gradientTransform="matrix(1 0 0 -1 0 352)">
	<stop  offset="0" style="stop-color:#993B11"/>
	<stop  offset="1" style="stop-color:#D97044"/>
</linearGradient>
<path style="fill:url(#SVGID_00000080172309465319896770000013822139269818306724_);" d="M353.4,138.2c-0.1,2.1-0.3,4.3-0.5,6.2
	c-3.2,30.2-53.3,43.6-64.7,6.7l-0.7-2.8c5.5,0.7,11.7,2.3,15.8-1.3c7.9-7.1,19.1-17.7,22.2-23.6l18.5-6.6L353.4,138.2L353.4,138.2z"
	/>
<path class="st4" d="M274.8,75.9c0,0-7.3,48.6,13.3,73.3c0,0,15.7,24.2,44-11.3c0,0,16.5-17.3,15.4-46.2c0,0-0.7-40.1-51.8-34.1
	c-9.9,1.2-18.1,8.2-20.8,17.9C274.9,75.6,274.9,75.7,274.8,75.9L274.8,75.9z"/>
<path class="st6" d="M292.1,116c-0.1,3.1-0.5,6-0.9,9.1c-0.1,1.5-0.4,3-0.7,4.6c-0.3,1.5-0.5,3.1-0.8,4.4c-0.1,0.5,0,1.1,0.3,1.6
	c0.3,0.5,0.7,0.9,1.1,1.3c0.5,0.3,1.1,0.5,1.6,0.5h0.9c0.4,0,0.7-0.1,1.1-0.1c1.3-0.3,2.7-0.9,4-1.6s2.6-1.5,4-2.3
	c-1.1,1.2-2.1,2.1-3.4,3.2c-1.2,0.9-2.6,1.9-4.2,2.4c-0.4,0.1-0.8,0.3-1.2,0.3l-0.5,0.1h-0.7c-0.9,0-1.9-0.3-2.7-0.8
	c-0.8-0.5-1.5-1.2-1.9-2.1c-0.4-0.8-0.5-1.9-0.4-2.8c0.3-1.6,0.5-3,0.9-4.6c0.3-1.5,0.7-3,1.1-4.4
	C290.4,121.8,291.2,118.9,292.1,116L292.1,116z"/>
<path class="st7" d="M318.6,124.9c-0.1,1.3-2.3,2.3-5,2c-2.7-0.1-4.7-1.3-4.7-2.7c0.1-1.3,2.3-2.3,5-2
	C316.6,122.3,318.6,123.5,318.6,124.9z M286.6,121.1c-0.3,1.3-2.6,2-5.1,1.6c-2.6-0.4-4.6-1.9-4.4-3.1c0.3-1.3,2.6-2,5.1-1.6
	C284.9,118.4,286.9,119.8,286.6,121.1z"/>
<path class="st3" d="M274.5,103.9c1.5-0.7,3-0.9,4.6-0.9c1.6,0,3.1,0.3,4.7,0.8c0.8,0.3,1.5,0.7,2.1,1.1c0.7,0.5,1.3,0.8,1.9,1.5
	c1.2,1.1,2,2.4,2.7,3.8c-1.1-1.1-2.1-2.1-3.4-3c-0.5-0.4-1.2-0.8-1.9-1.2c-0.7-0.3-1.3-0.7-2-0.8c-1.3-0.5-2.8-0.8-4.2-0.9
	C277.5,103.9,276,103.9,274.5,103.9L274.5,103.9z"/>
<path class="st8" d="M286.6,111.6c0.1-1.3-0.8-2.6-2-2.6c-1.2-0.1-2.1,0.9-2.3,2.3s0.8,2.6,2,2.6S286.5,112.9,286.6,111.6z"/>
<path class="st3" d="M302.2,113.2c1.5-1.6,3.4-2.8,5.4-3.6c2-0.8,4.3-1.3,6.4-1.3c0.5,0,1.1,0,1.6,0.1h0.8c0.3,0,0.5,0.1,0.8,0.1
	c0.5,0.1,1.1,0.3,1.6,0.3c0.5,0.1,1.1,0.3,1.6,0.5l0.8,0.3l0.8,0.4l1.5,0.7c0.9,0.5,1.9,1.2,2.7,1.7c-1.1-0.4-2-0.8-3-1.1l-1.5-0.5
	l-0.8-0.3l-0.8-0.1c-0.5-0.1-1.1-0.3-1.5-0.4l-1.5-0.3c-0.3,0-0.5-0.1-0.8-0.1h-0.8c-0.5,0-1.1-0.1-1.6,0h-1.6l-1.5,0.1
	c-1.1,0.1-2,0.4-3.1,0.7C306,111.2,304.1,112,302.2,113.2L302.2,113.2z"/>
<path class="st8" d="M311.3,116.3c0-1.3-0.9-2.4-2.1-2.4s-2.1,1.1-2.1,2.4c0,1.3,0.9,2.4,2.1,2.4S311.3,117.6,311.3,116.3z
	 M311.7,140.6c-1.7,2-4.6,4.3-8.9,5.5c-6.6,1.9-13.6-1.2-16.2-7.5C287,139,297.9,147.5,311.7,140.6z"/>
<path class="st3" d="M308.2,31.4c-3.9-1.2-8.3,1.5-11.8,3c-3.9,1.7-7.5,3.9-11,6.3c-7.1,5.1-14,11.5-17.2,19.7
	c-3.2,8.1-3.6,17.3-0.8,25.6c0.7,1.9,1.7,4,3.8,4.2c3.8,0.4,6.3-5.4,7.8-8.1c1.9-3.5,4.2-6.6,7.8-8.6c6-3.4,13.2-5,17.9-10.3
	c5.5-6.2,7.4-15.6,7.5-23.6c0-1.7,0-3.6-0.7-5.2C310.9,32.8,309.7,31.8,308.2,31.4L308.2,31.4z"/>
<path class="st3" d="M268.2,92.9c3-0.9,5.6-2.4,8.2-4c2.6-1.7,4.8-3.8,6.8-5.9c0.9-1.2,2-2.3,2.8-3.5l0.7-0.9l0.4-0.5l0.3-0.5
	c0.4-0.7,0.8-1.3,1.2-1.9l1.2-2l1.2-2c0.7-1.3,1.3-2.8,2.1-4.2c-0.3,1.5-0.7,3.1-1.2,4.6l-0.8,2.1c-0.3,0.7-0.5,1.5-0.9,2.1
	c-0.7,1.5-1.5,2.8-2.4,4.2c-0.4,0.7-0.8,1.3-1.3,1.9l-1.5,1.9c-1.1,1.1-2.3,2.3-3.5,3.2l-0.9,0.8l-0.9,0.7l-0.9,0.7
	c-0.4,0.3-0.7,0.4-1.1,0.5C274.5,91.7,271.5,92.8,268.2,92.9L268.2,92.9z M332.4,86c0,4,0.3,8.1,0.7,12.1c0.5,3.9,1.2,7.8,2.6,11.4
	c0.1,0.4,0.3,0.9,0.5,1.3c0.1,0.4,0.4,0.9,0.5,1.3l0.7,1.3l0.7,1.2c0.9,1.6,2.1,3.1,3.5,4.6l1.1,0.9l1.1,0.9l1.2,0.8l1.2,0.8
	l1.3,0.7l1.3,0.5l0.7,0.3l0.7,0.3l1.5,0.5c-0.5,0-1.1-0.1-1.5-0.1l-0.8-0.1l-0.8-0.1c-0.5-0.1-1.1-0.3-1.5-0.3l-1.5-0.5
	c-2-0.8-3.9-1.7-5.5-3.1c-1.6-1.3-3.1-3-4.3-4.7c-1.2-1.7-2.1-3.8-2.8-5.6c-1.5-4-2-8.2-2.1-12.2C330.8,94,331.2,89.8,332.4,86
	L332.4,86z"/>
<path class="st3" d="M295.6,67.4c1.2,5.1,3.2,10.1,5.8,14.5c2.7,4.4,6,8.3,10.2,11.3c1.1,0.8,2.1,1.3,3.2,2l1.7,0.8
	c0.5,0.3,1.2,0.5,1.7,0.8l0.9,0.4c0.3,0.1,0.5,0.3,0.9,0.3c0.5,0.3,1.2,0.4,1.7,0.7c1.2,0.3,2.4,0.7,3.8,0.9
	c5.1,1.1,10.3,1.3,15.6,1.2c-5.1,1.2-10.6,1.6-16,0.9c-1.3-0.1-2.7-0.4-4-0.7c-0.7-0.1-1.3-0.4-2-0.5c-0.3-0.1-0.7-0.1-0.9-0.3
	l-0.9-0.4c-2.6-0.9-5-2.3-7.3-3.9c-2.3-1.6-4.3-3.5-6-5.6c-1.7-2.1-3.2-4.4-4.4-6.8c-1.2-2.4-2.1-5-2.8-7.7
	C296.2,72.8,295.6,70.1,295.6,67.4L295.6,67.4z M318.6,30.4c2.6-0.5,5.2-0.8,7.8-0.7c2.7,0,5.2,0.4,7.8,0.9
	c5.1,1.2,9.9,3.6,14.1,7.1c2,1.7,3.9,3.6,5.5,5.8l1.2,1.6l1.1,1.6l0.9,1.7c0.3,0.5,0.7,1.2,0.9,1.7c2.4,4.7,4.2,9.8,5.4,14.9
	c0.3,1.3,0.7,2.6,0.8,3.9l0.3,2l0.1,0.9c0,0.3,0.1,0.7,0.1,0.8c0.4,1.1,1.2,2.1,2,3.1c0.8,0.9,1.7,1.9,2.7,2.7
	c1.9,1.7,3.9,3.4,6,4.8c1.1,0.8,2.1,1.5,3.2,2.3l1.6,1.1l1.6,1.2c4.2,3.2,7.4,7.8,9.3,12.8c1.7,5,2,10.5,0.7,15.6
	c0.4-2.6,0.7-5.2,0.4-7.8c-0.3-2.6-0.8-5.1-1.7-7.5c-1.9-4.8-5.1-9-9.3-12.1l-1.6-1.1l-1.6-1.1c-1.1-0.7-2.1-1.5-3.2-2.3
	c-2.1-1.6-4.2-3.1-6.2-5l-2.8-2.8c-0.8-1.1-1.7-2-2.3-3.5c-0.1-0.1-0.1-0.5-0.1-0.5l-0.1-0.5l-0.1-0.9l-0.3-1.9
	c-0.1-1.3-0.5-2.6-0.8-3.8c-1.2-5.1-2.8-10.1-5.1-14.6c-2.3-4.7-5.5-8.9-9.3-12.2C339.8,31.7,328.8,28.8,318.6,30.4L318.6,30.4z"/>
<path class="st3" d="M389.9,125.2c-0.4,4-1.9,7.7-4.2,10.7c-5.4,7.5-15.2,11.8-24.7,9.9c-7.7-1.5-16-7-18.4-14.6
	c-0.5-1.6-0.9-3.2-1.2-4.8c-1.1-5.2,0.3-10.5,3.5-14.6l0.1-0.1c5.8-4.3,4-10.9-3-12.2c-2.8-0.5-5.6-1.2-8.3-1.9
	c-1.7-0.7-3.8-1.1-5.4-1.5c-5.1-1.6-9-3-10.2-3.5c-4.3-1.7-8.3-3.8-12.1-6.2c-6.4-4.3-12-10.5-14.6-17.9c-2.8-7.5-3.2-16.7-0.5-24.3
	c1.5-4.2,3.9-7.5,6.7-9.9c7.7-6.6,19.3-7.4,29.9-5.1c5,1.1,9.7,2.8,13.7,5.1c5.9,3.2,11.3,8.1,14.4,14.1c3.6,6.7,3.6,14.5,4.8,21.9
	c0.9,5.1,2.8,10.7,6.8,14.2c4,3.5,8.3,6,11.8,10.2c4.4,5.2,7.9,11.4,9.7,18.1C390,116.7,390.4,121,389.9,125.2L389.9,125.2z"/>
<path class="st9" d="M298.2,47.7c-0.8,3.1-0.7,6.3,0,9.4c0.4,1.5,0.8,3,1.5,4.4c0.5,1.5,1.3,2.8,2.1,4.2c1.6,2.7,3.6,5.1,5.9,7.3
	c2.3,2.1,4.7,4.2,7.3,6c0.7,0.5,1.3,0.9,1.9,1.3c0.7,0.4,1.3,0.9,2,1.3l4,2.4c1.3,0.8,2.7,1.6,4.2,2.3l2.1,1.1l2.1,1.1
	c5.8,2.7,11.7,5,17.6,7.1c-6.2-1.6-12.2-3.6-18-6.2c-5.9-2.6-11.5-5.5-16.8-9.3c-5.1-3.8-9.9-8.2-13.2-13.8c-1.6-2.8-2.8-5.8-3.4-9
	c-0.3-1.6-0.4-3.2-0.3-4.8C297.4,50.8,297.6,49.2,298.2,47.7L298.2,47.7z M302.6,40.3c1.1,3,2.4,5.8,4,8.3l1.2,2l1.3,1.9
	c0.8,1.3,1.7,2.6,2.7,3.8c3.8,5,8.1,9.4,12.6,13.6l3.5,3c0.5,0.5,1.2,0.9,1.9,1.5l1.9,1.3c2.4,2,5.1,3.6,7.7,5.4
	c1.2,0.9,2.7,1.6,3.9,2.4l4,2.4c2.7,1.5,5.5,3,8.2,4.4c-1.5-0.7-2.8-1.2-4.3-1.9c-1.5-0.7-2.8-1.2-4.3-1.9l-4.2-2.1
	c-1.3-0.8-2.8-1.5-4-2.3c-2.7-1.6-5.4-3.4-7.8-5.2l-1.9-1.3c-0.7-0.5-1.2-0.9-1.9-1.5l-3.6-3.1c-4.7-4.2-9-8.9-12.6-14
	c-0.9-1.3-1.9-2.6-2.6-3.9l-1.2-2l-1.1-2C304.6,46.2,303.4,43.3,302.6,40.3z M351.8,117.4c0.1,3.4,0.7,6.7,1.7,9.9
	c1.1,3.1,2.7,6,5.1,8.3c1.2,1.1,2.6,2,4,2.8c0.7,0.4,1.5,0.7,2.3,0.9c0.8,0.3,1.6,0.5,2.4,0.7c3.2,0.7,6.6,0.8,10.1,0.5
	c-3.4,0.8-6.8,1.1-10.2,0.5c-3.5-0.5-6.8-2-9.4-4.4c-1.2-1.2-2.3-2.7-3.2-4.2c-0.8-1.5-1.5-3.2-1.9-4.8
	C351.6,124.2,351.3,120.7,351.8,117.4L351.8,117.4z"/>
<path class="st9" d="M355.5,100.9c0.1,2,0.4,4,0.8,5.9c0.3,2,0.8,3.9,1.2,5.8c1.1,3.8,2.3,7.5,4.3,11c0.9,1.7,2.1,3.4,3.4,4.7
	c1.3,1.5,2.8,2.7,4.4,3.8c3.2,2.1,7.3,3.2,11.1,3.5c-0.9,0-2,0.1-3,0l-1.5-0.1l-1.5-0.3c-2-0.4-3.9-1.1-5.8-2.1
	c-1.7-1.1-3.4-2.3-4.8-3.8c-1.5-1.5-2.6-3.2-3.6-5c-2-3.5-3.4-7.5-4.2-11.4C355.6,108.9,355.2,104.9,355.5,100.9L355.5,100.9z"/>
<path class="st4" d="M351.8,106.5c0,3.6-1.9,6.4-4,6.4c-2.3,0-4-3-4-6.4c0-3.6,1.9-6.4,4-6.4S351.8,103,351.8,106.5z"/>
<path class="st10" d="M484,284.4c-11.3-29.7-47.4-88.2-64.2-114.7c-5.5-8.7-14.2-14.9-24.3-17.2l-18.3-4.2l-8.5-1.9
	c-5.8,35.9-25,47.5-39.7,51c-18.1,4.3-36.8-5-43.6-22.2c-7-17.6-3.5-37.9-3.5-37.9l-10.1,2.8l-16.9,4.7c-9,2.6-16.9,7.8-22.6,15.2
	c-15.8,20.5-49.3,64.7-71.3,98.8c-5.9,9.3-1.7,21.6,8.6,25.5c12.9,4.8,33.4,10.5,63.8,13.6c0,0-1.3-6.3,1.3-14
	c1.3-3.6,3.6-7.7,7.4-11.4l-6.4-1.1c-8.7-1.6-24.8-5.1-36.5-10.1c-2.4-1.1-2.6-4.4-0.3-5.6c9.5-5.4,29.5-19.3,45.7-50.4
	c1.9-3.6,7.3-2.6,7.7,1.5v0.5c-0.5,22.4,0.5,58,9.5,84.9l123.4,7c0,6.2-1.1,11.8-1.1,11.8l2.1-0.3l89-11
	C482.1,298.6,486.7,291.3,484,284.4L484,284.4z M440.2,273.7l-45.1,13.2l-0.5,0.1l4.4-20.7l7.1-33.4c0.5-2.3,3.5-2.7,4.6-0.7
	c5.1,9.7,10.7,16.8,16.1,22.3c5.4,5.5,10.6,9.4,14.8,12.8C443.9,269.1,443.1,272.7,440.2,273.7L440.2,273.7z"/>
<path class="st11" d="M379,149.3c-8.5,70-70.9,59.5-70.9,59.5c-49.3-9.7-36.3-68.7-36.3-68.7l10.1-2.8c0,0-3.5,20.3,3.5,37.9
	c6.8,17.3,25.5,26.6,43.6,22.2c14.8-3.5,34-15.2,39.7-51l8.5,1.9L379,149.3L379,149.3z"/>
<path class="st12" d="M341,168.5c-1.2,4.3-1.8,8.6-2.4,13s-0.8,8.8-0.7,13.1c0,2.2,0.2,4.4,0.5,6.6c0.1,1,0.3,2.2,0.5,3.2
	c0.1,0.6,0.2,1,0.3,1.6c0.1,0.6,0.2,1,0.3,1.6c1,4.3,2.7,8.4,4.6,12.3c-2.7-3.6-4.7-7.6-6-12c-1.4-4.3-2-8.9-2.1-13.4
	c0-2.3,0-4.5,0.2-6.8c0.2-2.2,0.5-4.5,0.9-6.7C338,177,339.3,172.6,341,168.5L341,168.5z"/>
<path class="st13" d="M253.2,248.2c0,0,5.5,22.4,61.8,10.9L256,287.1L253.2,248.2L253.2,248.2z M403.2,246.4
	c0,0-25.6,28.5-88.1,12.5c0,0,30.9,35.3,69.7,31c3-0.3,6.7-2.1,9.8-3L403.2,246.4L403.2,246.4z"/>
<path class="st12" d="M176.7,255.4c1.3-0.4,2.8-0.5,4.2-0.5h2.1c0.7,0,1.5,0.1,2.1,0.1c2.8,0.3,5.6,0.9,8.3,1.7l2,0.7l2,0.8
	c0.7,0.3,1.3,0.5,1.9,0.8c0.7,0.3,1.2,0.7,1.9,0.9c1.2,0.7,2.4,1.3,3.6,2.1s2.3,1.6,3.4,2.6l-4-1.2c-1.3-0.4-2.7-0.9-3.9-1.3
	c-2.6-0.9-5.1-1.7-7.8-2.6c-2.6-0.8-5.2-1.6-7.8-2.3c-1.3-0.3-2.7-0.7-4-0.9C179.5,255.8,178.1,255.7,176.7,255.4L176.7,255.4z"/>
<path class="st13" d="M373.6,255.1c2.5-0.7,3.1-3.9,1.2-5.5c-3.6-2.9-8.1-6.2-12.7-11c-4.6-4.7-9.5-10.7-13.8-19
	c0,0,28,24.8,46.1,24.8C394.3,244.3,398.8,249,373.6,255.1z"/>
<path class="st12" d="M392.3,249.5c-3.7,1.6-7.6,3-11.4,4.3c-3.8,1.3-7.7,2.5-11.5,3.7c-3.9,1.2-7.8,2.2-11.8,3.2
	c-3.9,0.9-7.8,1.8-11.9,2.5c3.7-1.6,7.6-3,11.4-4.4c3.8-1.3,7.7-2.5,11.5-3.7c3.9-1.2,7.8-2.2,11.8-3.2
	C384.4,251.1,388.3,250.2,392.3,249.5L392.3,249.5z"/>
<path class="st13" d="M255.9,176.6c-0.9,4.3-3.8,30.6-3.8,30.6c0.1-4.3-5.6-5.8-7.7-1.9c-6.3-23.9,9.9-47.4,10.5-48.1
	C252.5,166.7,255.9,176.6,255.9,176.6z"/>
<path class="st12" d="M260.2,159.5c-0.8,4-1.6,7.9-2.4,12c-0.4,2-0.8,3.9-1.2,5.9c-0.4,2-0.8,3.9-1.1,5.9c-0.4,2-0.7,3.9-1.1,5.9
	c-0.4,2-0.7,4-0.9,5.9c-0.5,4-1.1,7.9-1.5,12.1c-0.4-4-0.4-8.2-0.1-12.2c0.1-2,0.4-4,0.7-6c0.3-2,0.7-4,0.9-6c0.4-2,0.8-4,1.2-5.9
	c0.4-2,0.9-3.9,1.5-5.9C257.4,167.1,258.6,163.3,260.2,159.5L260.2,159.5z"/>
<path class="st6" d="M262.2,271.4c0,0,15.2-2.3,20.9,6.2c0,0,7,10.6-0.1,11C283,288.7,268.2,277.4,262.2,271.4z"/>
<path class="st14" d="M243.1,249.2l41.8,41.8l6.4,8.5l-0.8,0.7l-8.9-5.8l-41.5-42.4L243.1,249.2z"/>
<path class="st4" d="M241.9,272.5l14.4-2.1c1.2-0.1,2.6-0.1,3.8,0.4l12.8,4.4c1.1,0.4,2,1.1,2.6,2l6.4,9.3c1.5,2.1,1.2,5.4-0.5,7.3
	c-2,2.3-4.4,4-7.1,5.5l-0.8,0.4c-1.6,2-3.8,3.6-6,4.7l-0.7,0.3c-1.2,0.8-2.6,1.3-4,1.3h-4.2c-9,0-17.9-2.7-25.4-7.9
	C233.2,298,227.8,284.1,241.9,272.5L241.9,272.5z"/>
<path class="st6" d="M262.2,282.8c1.9,0.1,3.8,0.5,5.5,1.2c1.7,0.7,3.5,1.3,5.1,2.3c0.4,0.3,0.8,0.5,1.2,0.7l1.2,0.8
	c0.8,0.5,1.5,1.1,2.3,1.7c1.5,1.2,2.7,2.6,3.9,4c-1.5-1.1-3-2.1-4.6-3.2c-1.5-1.1-3.1-2-4.7-2.8c-1.6-0.9-3.2-1.7-4.8-2.6
	C265.7,284.3,263.9,283.5,262.2,282.8z M257.6,291.8c1.5,0.3,3,0.7,4.3,1.1c1.3,0.4,2.8,1.1,4.2,1.6c1.3,0.7,2.7,1.3,3.9,2.1
	c1.2,0.8,2.4,1.7,3.5,2.8l-4-1.9l-3.9-1.9c-1.3-0.7-2.7-1.2-3.9-1.9C260.3,293.3,259,292.6,257.6,291.8L257.6,291.8z M253.7,299.4
	c1.2,0,2.4,0.3,3.5,0.5c1.2,0.3,2.3,0.5,3.4,0.9c1.1,0.4,2.1,0.9,3.2,1.5c1.1,0.5,2,1.2,3,2.1c-1.2-0.3-2.3-0.7-3.4-1.1l-3.2-1.2
	l-3.2-1.2C255.7,300.5,254.7,300.1,253.7,299.4L253.7,299.4z"/>
<path class="st4" d="M383.8,310.9l-11.8,4c0,0-19.1,2.4-19.5,2.1c-0.4-0.3-10.2-4.4-10.2-4.4c-4-2.3-5-6.8-5-6.8s-3-3.8,0-6.8
	c0,0-4.4-1.5-3-6.6c0,0-0.7-0.5-1.1-1.6c-1.2-2.8,0.5-6,3.5-7c5.1-1.5,16.1-4.4,23.8-4.8c0,0,6.2-1.3,10.7,4.3c0,0,8.7,5,13.6,6.6
	C384.8,289.9,385.9,301.5,383.8,310.9L383.8,310.9z"/>
<path class="st6" d="M334.2,292.5c2.3-0.1,4.6-0.3,6.7-0.4c2.3-0.1,4.4-0.4,6.7-0.5c1.1-0.1,2.3-0.3,3.4-0.4l1.6-0.1
	c0.5-0.1,1.1-0.1,1.6-0.1c2.3-0.3,4.4-0.5,6.7-0.7c-2.1,0.8-4.3,1.3-6.6,1.7c-2.1,0.5-4.4,0.8-6.7,1.1c-2.3,0.3-4.6,0.3-6.8,0.3
	C338.7,293,336.4,292.9,334.2,292.5L334.2,292.5z M337.1,299c1.9-0.1,3.8-0.1,5.8,0c1.9,0,3.8,0.3,5.6,0.4c0.9,0.1,1.9,0.3,2.8,0.3
	h2.8c1.9,0,3.8,0,5.8,0.1c-1.9,0.4-3.8,0.7-5.6,0.9c-0.5,0-0.9,0.1-1.5,0.1s-0.9,0.1-1.5,0.1c-0.9,0-2-0.1-3-0.1
	c-1.9-0.1-3.8-0.4-5.6-0.7C340.9,299.9,339,299.6,337.1,299L337.1,299z M337.1,305.9c1.9,0.3,3.8,0.5,5.5,1.1
	c1.9,0.4,3.6,0.9,5.4,1.2c1.7,0.4,3.6,0.7,5.5,0.8s3.8,0.3,5.6,0.5c-1.9,0.3-3.8,0.5-5.6,0.5c-1.9,0-3.8-0.1-5.6-0.5
	c-0.9-0.1-1.9-0.4-2.8-0.7c-0.9-0.3-1.7-0.5-2.7-0.9C340.6,307.4,338.9,306.7,337.1,305.9L337.1,305.9z M371.9,314.9
	c0,0,0.4-8.1-1.3-19.3c0,0,14.2,5.9,13.2,15.2L371.9,314.9z"/>
<path class="st15" d="M179.6,341.1l67.9-20.5v-5.6l-68.7,20.8L179.6,341.1z"/>
<path class="st16" d="M247.6,314.9l-74.1-14.8l5.4,35.6L247.6,314.9z"/>
<path class="st13" d="M179.6,341.1l-58-12.2l-85.3-18L22.9,240l-3-16.2l-2.4-13c-1.3-6.7,4.6-12.6,11.4-11.4l19.1,3.5l54.8,10.2
	l52.2,9.8c4,0.8,7.3,4,7.8,8.1l8.3,53.8L179.6,341.1L179.6,341.1z"/>
<linearGradient id="SVGID_00000027600106149014529980000000640356051595427985_" gradientUnits="userSpaceOnUse" x1="197.2199" y1="20.4822" x2="45.5794" y2="184.8923" gradientTransform="matrix(1 0 0 -1 0 352)">
	<stop  offset="0" style="stop-color:#C9EEF1;stop-opacity:0"/>
	<stop  offset="0.449" style="stop-color:#E3F6F8;stop-opacity:0.4485"/>
	<stop  offset="1" style="stop-color:#FFFFFF"/>
</linearGradient>
<path style="fill:url(#SVGID_00000027600106149014529980000000640356051595427985_);" d="M25.9,202.2L152,225.7c4,0.8,7.3,4,7.8,8.1
	l16.4,106.5l3.5,0.8L162.7,231c-0.7-4-3.8-7.4-7.8-8.1L28.8,199.4c-4.2-0.8-7.9,1.2-9.9,4.3C20.8,202.4,23.3,201.8,25.9,202.2
	L25.9,202.2z"/>
</svg>
