<?xml version="1.0" encoding="UTF-8"?><svg id="_1" xmlns="http://www.w3.org/2000/svg" viewBox="0 0 3300 2100"><path d="m2159.73,923.36c43.09-35.52,78.42-79.26,105.81-127.93,33.05-58.72,80.82-112.46,133.15-140.69,81.41-43.91,184.2-48.01,266.88-6.56,82.68,41.46,141.64,128.8,144.72,221.24,2.71,81.67-35.13,160.18-35.65,241.89-.52,82.14,36.34,159.1,62.18,237.07,25.84,77.97,39.66,168.39-3.11,238.52-31.26,51.26-88.81,82.6-147.95,92.92-59.15,10.31-120.05,1.75-178.4-12.4-67.45-16.35-134.43-40.9-188.44-84.49-54.01-43.59-93.8-108.61-94.41-178.01-.58-65.62,32.45-133.93,6.93-194.39-20.8-49.27-74.67-76.83-101.39-123.16-21.2-36.76-22.68-84.15-3.82-122.16,8.01-16.15,19.59-30.39,33.49-41.85Z" fill="#e7ecf2" opacity=".17" stroke-width="0"/><path d="m2625.15,1304.92c-9.2-30.04-21.57-60.86-16.38-91.84,1.45-8.67,5.1-18.05,13.16-21.56,13.58-5.91,27.61,9.42,30.04,24.03s-1.07,30.16,4.06,44.06c5.12,13.9,26.03,23,34.32,10.73,6.69-9.89-1.2-22.75-7.85-32.67-23.04-34.36-33.14-77.19-27.87-118.22,1.37-10.69,4.06-21.85,11.58-29.56,7.52-7.71,21.21-10.26,28.99-2.81,7.85,7.52,6.15,20.14,5.62,30.99-.53,10.85,3.37,24.67,14.18,25.85,9.04.99,16.23-8.59,16.8-17.67.57-9.08-3.28-17.75-5.82-26.49-9.14-31.52-.16-67.62,22.68-91.19,6.92-7.15,17.29-13.51,26.32-9.34,10.16,4.68,10.88,19.36,6.2,29.52-4.68,10.16-12.99,18.51-16.46,29.15-3.47,10.64,1.2,25.47,12.35,26.4,14.18,1.17,18.89-18.1,21.03-32.16,5.34-34.99,27.32-67.06,58.03-84.65,13.51-7.74,32.59-11.92,43.19-.52,12.56,13.52,2.2,35.31-9.35,49.7-17.94,22.35-38.3,42.76-60.6,60.76-6.35,5.13-13.14,10.42-16.21,17.98-3.07,7.57-.55,18.07,7.22,20.58,11.92,3.85,20.54-12.45,32.59-15.88,12.46-3.55,25.21,9.53,24.54,22.48-.67,12.94-11.18,23.68-23.13,28.7-11.95,5.02-25.23,5.51-38.17,6.23-9.95.55-20.56,1.53-28.37,7.71-7.82,6.18-10.71,19.49-3.11,25.94,8.7,7.39,21.57.66,32.04-3.87,10.47-4.53,27.58-2.28,26.95,9.11-.39,7.19-8.19,11.28-14.89,13.93-30.21,11.96-60.41,23.91-90.62,35.87.32,10.8,13.29,16.89,24.06,16.07,10.77-.82,20.92-5.87,31.72-6.34,10.79-.47,23.5,6.65,22.76,17.43-.79,11.56-15.02,16.24-26.46,18.06-28.55,4.54-57.1,9.09-85.66,13.63-2.36,11.16,12.91,16.9,24.31,17.31,11.4.4,26.7,3.82,26.7,15.22,0,8.9-10.01,13.9-18.42,16.8-34.62,11.93-70.28,28.13-105.98,35.76-9-23.78,11.27-58.93-6.09-85.23Z" fill="#3b4eff" stroke-width="0"/><path d="m2405.75,875.57c-29.78-10-62.05-17.86-84.23-40.11-6.2-6.22-11.71-14.65-9.88-23.25,3.09-14.49,23.73-16.98,37.03-10.45,13.3,6.52,23.91,18.42,38.19,22.33,14.28,3.92,33.85-7.79,28.69-21.67-4.16-11.2-19.2-12.26-31.14-12.62-41.35-1.25-82.06-17.95-112.37-46.11-7.9-7.33-15.41-16.01-17.31-26.62-1.9-10.61,3.99-23.22,14.58-25.21,10.68-2.01,19.96,6.71,28.48,13.46,8.52,6.74,22.03,11.61,29.27,3.51,6.06-6.78,2.46-18.2-4.6-23.94-7.05-5.74-16.35-7.66-24.93-10.68-30.95-10.9-55.09-39.21-60.97-71.5-1.78-9.79-.93-21.92,7.72-26.84,9.72-5.54,22.07,2.41,27.61,12.13,5.54,9.72,7.5,21.34,14.13,30.35,6.63,9.01,21.42,13.84,28.66,5.31,9.2-10.85-3.73-25.89-13.92-35.82-25.35-24.7-38.64-61.24-35.09-96.45,1.56-15.5,9.26-33.44,24.71-35.43,18.3-2.35,30,18.75,34.99,36.52,7.74,27.59,12.5,56.03,14.16,84.64.47,8.15.83,16.75,5.2,23.65,4.37,6.9,14.38,10.96,20.94,6.11,10.07-7.46,1.83-23.95,6.04-35.75,4.36-12.2,22.42-14.96,32.56-6.89,10.14,8.07,12.75,22.87,9.89,35.51-2.86,12.64-10.2,23.73-17.14,34.67-5.34,8.41-10.72,17.61-10.24,27.56.48,9.95,9.62,20.05,19.29,17.62,11.07-2.78,13.09-17.16,15.49-28.31,2.4-11.15,14.19-23.76,23.09-16.62,5.62,4.51,4.41,13.22,2.67,20.21-7.85,31.52-15.7,63.05-23.55,94.57,8.97,6.02,21.47-.98,27.07-10.22,5.6-9.24,7.4-20.43,13.3-29.48,5.9-9.05,19.08-15.24,27.42-8.37,8.94,7.37,4.47,21.67-.71,32.03-12.91,25.87-25.83,51.73-38.74,77.6,7.71,8.41,21.26-.66,28.22-9.7,6.96-9.04,18.64-19.5,27.92-12.86,7.24,5.18,5.48,16.22,2.95,24.76-10.44,35.1-18.01,73.53-32.58,107-24.58-6.51-41.37-43.45-72.86-44.63Z" fill="#3b4eff" stroke-width="0"/><path d="m2187.24,1020.67c37.94,23.55,78.97,26.08,91.65,5.65,12.68-20.43-7.79-56.08-45.73-79.62-37.94-23.55-78.97-26.08-91.65-5.65-12.68,20.43,7.79,56.08,45.73,79.63Z" fill="none" stroke="#2e2e2e" stroke-linecap="round" stroke-linejoin="round" stroke-width=".57"/><path d="m2205.99,1131.86c38.95-3.87,68.83-24.01,66.75-44.98-2.08-20.97-35.35-34.84-74.3-30.97-38.95,3.87-68.83,24.01-66.75,44.98,2.08,20.97,35.35,34.84,74.29,30.97Z" fill="none" stroke="#2e2e2e" stroke-linecap="round" stroke-linejoin="round" stroke-width=".57"/><path d="m2347.21,955.1c5.3-33.73-5.12-63.39-23.28-66.25-18.16-2.86-37.19,22.17-42.49,55.91-5.31,33.73,5.12,63.39,23.28,66.25,18.16,2.86,37.19-22.17,42.49-55.91Z" fill="none" stroke="#2e2e2e" stroke-linecap="round" stroke-linejoin="round" stroke-width=".57"/><path d="m2438.19,1062.47c16.12-22.92,19.18-48.54,6.84-57.22-12.34-8.68-35.42,2.86-51.54,25.79-16.12,22.92-19.18,48.54-6.84,57.22,12.34,8.68,35.42-2.87,51.54-25.79Z" fill="none" stroke="#2e2e2e" stroke-linecap="round" stroke-linejoin="round" stroke-width=".57"/><path d="m2305.43,1184.9c26.31-9.64,43.43-28.94,38.24-43.11-5.19-14.17-30.73-17.84-57.04-8.2-26.31,9.64-43.43,28.95-38.24,43.11,5.19,14.17,30.73,17.84,57.05,8.19Z" fill="none" stroke="#2e2e2e" stroke-linecap="round" stroke-linejoin="round" stroke-width=".57"/><path d="m2467.07,1263.97c-72.2-126.96-176.14-235.7-299.7-313.57" fill="none" stroke="#2e2e2e" stroke-linecap="round" stroke-linejoin="round" stroke-width=".57"/><path d="m2372.32,1128.42c-58.38-48.61-144.54-61.88-215.11-33.76" fill="none" stroke="#2e2e2e" stroke-linecap="round" stroke-linejoin="round" stroke-width=".57"/><path d="m2331.09,1082.86c-20.74-56.51-26.03-117.02-15.85-176.35" fill="none" stroke="#2e2e2e" stroke-linecap="round" stroke-linejoin="round" stroke-width=".57"/><path d="m2390.36,1150.44c-38.77-7.08-79.7-1.82-115.42,14.83" fill="none" stroke="#2e2e2e" stroke-linecap="round" stroke-linejoin="round" stroke-width=".57"/><path d="m2370.99,1128.48c8.87-38.4,29.93-73.89,59.37-100.09" fill="none" stroke="#2e2e2e" stroke-linecap="round" stroke-linejoin="round" stroke-width=".57"/><path d="m2815.35,625.69c-37.94,23.55-78.97,26.08-91.65,5.65-12.68-20.43,7.79-56.08,45.73-79.62,37.94-23.55,78.97-26.08,91.65-5.65,12.68,20.43-7.79,56.08-45.73,79.62Z" fill="none" stroke="#2e2e2e" stroke-linecap="round" stroke-linejoin="round" stroke-width=".57"/><path d="m2796.61,736.87c-38.95-3.87-68.83-24.01-66.75-44.98,2.08-20.97,35.35-34.84,74.3-30.97,38.95,3.87,68.83,24.01,66.75,44.98-2.08,20.97-35.35,34.84-74.29,30.97Z" fill="none" stroke="#2e2e2e" stroke-linecap="round" stroke-linejoin="round" stroke-width=".57"/><path d="m2655.39,560.11c-5.3-33.73,5.12-63.39,23.28-66.25,18.16-2.86,37.19,22.17,42.49,55.91,5.31,33.73-5.12,63.39-23.28,66.25-18.16,2.86-37.19-22.17-42.49-55.91Z" fill="none" stroke="#2e2e2e" stroke-linecap="round" stroke-linejoin="round" stroke-width=".57"/><path d="m2564.41,667.49c-16.12-22.92-19.18-48.54-6.84-57.22,12.35-8.68,35.42,2.86,51.54,25.79,16.12,22.92,19.18,48.54,6.84,57.22-12.34,8.68-35.42-2.87-51.54-25.79Z" fill="none" stroke="#2e2e2e" stroke-linecap="round" stroke-linejoin="round" stroke-width=".57"/><path d="m2697.17,789.92c-26.31-9.64-43.43-28.94-38.24-43.11,5.19-14.17,30.73-17.84,57.04-8.2,26.31,9.64,43.43,28.95,38.24,43.11-5.19,14.17-30.73,17.84-57.05,8.19Z" fill="none" stroke="#2e2e2e" stroke-linecap="round" stroke-linejoin="round" stroke-width=".57"/><path d="m2535.52,868.98c72.2-126.96,176.14-235.7,299.7-313.57" fill="none" stroke="#2e2e2e" stroke-linecap="round" stroke-linejoin="round" stroke-width=".57"/><path d="m2630.28,733.43c58.38-48.61,144.54-61.88,215.11-33.76" fill="none" stroke="#2e2e2e" stroke-linecap="round" stroke-linejoin="round" stroke-width=".57"/><path d="m2671.5,687.88c20.74-56.51,26.03-117.02,15.85-176.35" fill="none" stroke="#2e2e2e" stroke-linecap="round" stroke-linejoin="round" stroke-width=".57"/><path d="m2612.24,755.46c38.77-7.08,79.7-1.82,115.42,14.83" fill="none" stroke="#2e2e2e" stroke-linecap="round" stroke-linejoin="round" stroke-width=".57"/><path d="m2631.61,733.5c-8.87-38.4-29.93-73.89-59.37-100.09" fill="none" stroke="#2e2e2e" stroke-linecap="round" stroke-linejoin="round" stroke-width=".57"/><path d="m2541.79,667.68c.32.58.65,1.17.97,1.75,10.68-.31,21.59-.66,31.57-4.48,9.98-3.82,19.01-11.84,21.06-22.32,7.52.68,13.64.2,18.61-5.49,4.97-5.69,7.03-13.8,5.35-21.17,10.13-1.86,17.64-9.37,18.26-19.65s-6.45-20.53-16.28-23.6c6.02-4.4,9.14-12.38,8.56-19.81-.59-7.43-5.24-14.42-11.88-17.82-.57-12.18-11.18-20.37-23.36-20.1-2.99-11.29-12.29-20.57-23.98-20.51-11.28-9.45-28.62-11.88-42.63-7.37-5.26-5.4-13.25-10.8-19.62-14.82-4.39-2.77-10.71-4.98-14.27-1.21-2.97,3.15-1.59,8.66,1.7,11.47,3.29,2.81,7.78,3.64,12.05,4.36-10.11-1.39-22.94-.61-33.05-2-4.21-.58-9.18-.9-12.02,2.26-3.25,3.61-1.37,9.78,2.53,12.67,3.9,2.89,9.01,3.4,13.85,3.8-7.68-1.44-16.65,2.31-22.88,7.02-2.59,1.96-5.01,5.21-3.74,8.19,1.26,2.95,5.18,3.48,8.39,3.32,8.95-.44,17.79-2.78,25.78-6.82,10.15-5.14,20.88-4.98,32.22-4.03,11.34.94,22.9,5.57,29.67,14.72,9.86,13.32,7.19,31.76,4.36,48.09-5.46,31.49-7.87,61.77-11.21,93.55Z" fill="#2e2e2e" stroke-width="0"/><path d="m2460.31,748.14c-1.11,29.22,21.68,53.57,50.26,53.71,27.98.15,50.66-22.97,50.81-51.47,0-.56,0-1.16-.03-1.72l-5.23-77.19-.67-9.94-3.26-47.96-81.28-.42-3.89,49.72-.85,10.85-5.86,74.42Z" fill="#f5f5ff" stroke="#2e2e2e" stroke-linecap="round" stroke-linejoin="round" stroke-width=".41"/><path d="m2463.33,710.43c25.6,3.27,54.55-8.9,74.24-33.8,8-10.07,13.58-21.17,16.82-32.42l-2.13-31.15-81.26-.42-3.88,49.71-.9,10.86-2.89,37.22Z" fill="#2e2e2e" stroke-width="0"/><path d="m2611.22,572.07c0,41.76-32.52,75.98-73.58,78.73-1.77.13-21.58,11.38-31.47,12.12-19.92,1.48-39.71,2.31-59.42,6.45-9.24,1.92-19.49-3.31-23.32-11.94-3.84-8.63-2.09-21.27,5.54-26.81-2.19-2.12-5.74-4.32-5.3-7.19.48-2.92,3.12-5.32,5.09-7.5-.39-.04-.78-.09-1.18-.13-1.18-2.66-2.4-5.67-1.26-8.33.78-1.87,2.62-3.14,4.14-4.53,1.53-1.35,2.75-4.97,2.35-7.02-1.7-1.96-4.1-3.92-5.8-5.93.22,0-.96-1.31-.74-1.31-.68-.53-1.24-1.21-1.68-1.97-2.38-4.1-.35-9.4,3.84-11.61,8.59-4.54,17.19-9.07,25.79-13.57,1.87-13.99,7.37-26.81,15.61-37.49,14.39-18.79,37.01-30.86,62.51-30.86,43.55,0,78.9,35.31,78.9,78.9Z" fill="#f5f5ff" stroke="#2e2e2e" stroke-linecap="round" stroke-linejoin="round" stroke-width=".53"/><path d="m2611.22,572.07c0,41.76-32.52,75.98-73.58,78.73-.35-4.4.48-9.11,1.22-13.47,4.1-25.46,2.01-51.92-6.1-76.37-2.79-8.37-5.23-19.83,2.48-24.19,3.23-1.79,7.67-1.83,9.68-4.93,1.7-2.62.52-6.32-1.79-8.41-2.31-2.09-5.45-2.92-8.5-3.57-16.17-3.53-33.04-3.71-49.3-.61-3.36.65-9.68,3.01-15.52,4.8,14.39-18.79,37.01-30.86,62.51-30.86,43.55,0,78.9,35.31,78.9,78.9Z" fill="#2e2e2e" stroke-width="0"/><path d="m2538.84,630.97c6.01,5.71,18.55,4.27,30.08-4.02,13.1-9.41,19.95-24.1,15.3-32.8-4.65-8.7-19.05-8.13-32.15,1.29-5.36,3.85-9.68,8.59-12.58,13.44" fill="#f5f5ff" stroke="#2e2e2e" stroke-linecap="round" stroke-linejoin="round" stroke-width=".4"/><path d="m2539.48,608.87c-.34.57-.67,1.15-.97,1.73" fill="#f5f5ff" stroke="#2e2e2e" stroke-linecap="round" stroke-linejoin="round" stroke-width=".4"/><path d="m2575.48,597.67c2.53,2.77,3.21,7.28,1.72,11.39-1.5,4.12-5.11,7.69-9.15,9.03" fill="none" stroke="#2e2e2e" stroke-linecap="round" stroke-linejoin="round" stroke-width=".4"/><path d="m2466.75,549.99c1.92-3.07,5.11-4.92,8.33-6.06,3.27-1.1,6.73-1.46,10.12-1.14,3.39.32,6.74,1.33,9.74,3.06,2.95,1.76,5.73,4.28,6.89,7.71-3.52-.61-6.32-.95-9.17-1.25l-8.29-.85-8.34-.77c-2.87-.28-5.73-.5-9.28-.7Z" fill="#151212" stroke-width="0"/><path d="m2433.93,591.53c2.23-.34,4.61,1.12,5.31,3.26" fill="none" stroke="#2e2e2e" stroke-linecap="round" stroke-linejoin="round" stroke-width=".42"/><path d="m2426.52,606.75c3.17-1.45,6.98-.6,10.03,1.1,3.05,1.7,5.6,4.15,8.45,6.17,2.85,2.02,7.15,4.87,10.63,4.53-4.45,1.62-9.37.2-13.83-1.36-4.46-1.57-9.18-3.32-13.8-2.33" fill="none" stroke="#2e2e2e" stroke-linecap="round" stroke-linejoin="round" stroke-width=".42"/><path d="m2424.6,626.94c3.93,1.55,8.22,2.17,12.42,1.78" fill="none" stroke="#2e2e2e" stroke-linecap="round" stroke-linejoin="round" stroke-width=".42"/><path d="m2469.3,563.47c8.13,4.32,17.82,5.29,26.69,2.92-8.6,3.41-19.06,2.35-26.69-2.92h0Z" fill="#2e2e2e" stroke-width="0"/><path d="m2273.4,713.03c-1.4,9.7-5.3,22.87-11.29,36.84-6.77,15.72-14.61,28.9-21.26,36.44-4.56,5.23-8.58,7.78-11.25,6.7-2.71-1.12-3.65-5.79-3-12.73.9-9.94,5.01-24.51,11.74-40.07,5.83-13.57,12.48-25.26,18.47-33.09,5.75-7.42,10.84-11.37,14.04-10.06,3.12,1.28,3.86,7.22,2.55,15.96Z" fill="#2e2e2e" stroke-width="0"/><path d="m2358.16,739.85l-187.44-68.22-18.12-189.59,6.82-20.68,30.62-32.64,11.4-17.78-.12-.28,20.44-23.29c3.1-3.53,2.75-8.91-.78-12.01-3.53-3.1-8.91-2.75-12.01.78l-17.46,19.9-15.29.19-1.62-5.47-.12-8.51c2.06.54,4.33.18,6.14-1.22,3.09-2.4,3.65-6.84,1.25-9.93l-7.61-9.81,5.32-34.13,1.99-1.18c3.36-1.99,4.47-6.33,2.48-9.7-.61-1.02-1.45-1.81-2.4-2.39l.27-1.72c.6-3.86-2.04-7.48-5.9-8.08-3.86-.6-7.48,2.04-8.08,5.9l-1.31,8.4-22.72,13.47c-.27.16-.42.41-.66.6-.4.31-.78.61-1.1.99-.3.36-.51.75-.73,1.15-.21.38-.42.75-.55,1.17-.16.5-.22,1.01-.27,1.53-.03.28-.15.54-.14.83l.32,12.07-11.14,32.11-9.16,4.47-1.78.87c-2.16,1.06-3.54,3.07-3.88,5.28h0s0,.07,0,.07c0,.03,0,.06,0,.09l-5.62,52.56-14.13,253.41c.14,11.17,4.97,21.16,12.57,28.19,4.59,5.06,10.43,9.37,17.37,12.38l197.95,86.04c28.43,12.36,60.42,1.37,69.62-23.92,8.76-24.08-6.63-51.8-34.39-61.9Zm-194.36-403.32l-2.05,13.12-6.9-2.39-.14-5.34,9.09-5.39Z" fill="#f5f5ff" stroke="#2e2e2e" stroke-linecap="round" stroke-linejoin="round" stroke-width=".57"/><path d="m2154.86,347.26l-.14-5.34,26.86-15.93c3.36-1.99,4.47-6.33,2.48-9.7-1.99-3.36-6.33-4.47-9.7-2.48l-30.45,18.05c-.27.16-.42.41-.66.6-.4.31-.78.61-1.1.99-.3.36-.51.75-.73,1.15-.21.38-.42.75-.55,1.17-.16.5-.22,1.01-.27,1.53-.03.28-.15.54-.14.83l.29,10.6" fill="#f5f5ff" stroke="#2e2e2e" stroke-linecap="round" stroke-linejoin="round" stroke-width=".57"/><path d="m2147.34,374.47l4.59-13.24,5.96,2.07,12.79,16.49c2.4,3.09,6.84,3.65,9.93,1.25,3.09-2.4,3.65-6.84,1.25-9.93-2.25-2.9-4.5-5.8-6.75-8.7-3.83-4.94-6.62-10.41-12.8-12.55-4.06-1.41-8.12-2.82-12.18-4.23-.09-.03-.14-.11-.23-.14-1.87-.65-3.81-.46-5.45.35-1.63.79-2.96,2.2-3.61,4.05-.02.07,0,.13-.03.2l-11.22,32.35" fill="#f5f5ff" stroke="#2e2e2e" stroke-linecap="round" stroke-linejoin="round" stroke-width=".57"/><path d="m2130.23,397.78l14.44-7.05,9.56,19.57c1.71,3.5,5.94,4.96,9.44,3.24h.03c3.5-1.73,4.96-5.95,3.24-9.46l-12.68-25.95c-1.71-3.5-5.94-4.96-9.44-3.24h-.03s-.01.03-.02.03l-15.08,7.37" fill="#f5f5ff" stroke="#2e2e2e" stroke-linecap="round" stroke-linejoin="round" stroke-width=".57"/><path d="m2418.16,791.83c0,5.68-.95,11.35-2.95,16.87-11.08,30.48-49.56,43.7-83.73,28.8l-102.29-44.65c8.5-9.93,18.52-27.27,27.19-47.98,7.67-18.39,12.66-35.74,14.45-48.51l103.08,37.66c27.04,9.9,44.27,33.73,44.25,57.8Z" fill="#ffce33" stroke-width="0"/><path d="m2370.07,842.98c-12.35,1.75-25.77.12-38.59-5.47l-102.29-44.65" fill="none" stroke="#2e2e2e" stroke-linecap="round" stroke-linejoin="round" stroke-width=".42"/><path d="m2632.78,1250.69c5.34-12.39,8.34-26.02,8.34-40.37,0-56.43-45.75-102.18-102.18-102.18-38.87,0-151.19,90.21-151.19,90.21,6.61,14.87,32.42,107.05,32.42,107.05l130.89,40.56,43.67-50.06c6.73-4.4,12.9-9.58,18.4-15.4l2.58,1.42c8.25-9.33,13.85-20.04,17.06-31.24Z" fill="#2e2e2e" stroke-width="0"/><path d="m2945.12,1244.11l23.04-17.97,6.56-16.78c6.3-16.11,19.91-28.25,36.62-32.68l18.57-4.93s21.2-4.61,36.87-14.29c10.16-6.27,27.29-19.33,38.08-27.73,7.05-5.49,15.93-8.19,24.82-7.24,10.18,1.08,22.76,4.06,28.35,11.93.1.14.2.29.3.43,8.23,11.89,7.6,27.78-.75,39.58-8.95,12.65-23.49,31.79-32.27,36.03-13.37,6.45-93.1,47.93-93.1,47.93,0,0-11.98,21.66-34.1,16.59-7.31-1.68-39.17,13.83-39.17,13.83l-13.83-44.71Z" fill="#f5f5ff" stroke="#2e2e2e" stroke-linecap="round" stroke-linejoin="round" stroke-width=".57"/><path d="m2975.02,1229.85c5.89,12.41,20.65,19.91,34.14,17.35" fill="none" stroke="#2e2e2e" stroke-linecap="round" stroke-linejoin="round" stroke-width=".57"/><path d="m2760.65,1442.55c-16.61,25.3-50.8,31.95-75.68,14.71l-247.25-171.32c-42.49-27.45-49.6-86.75-14.81-123.47h0c31.56-33.31,84.49-33.7,116.53-.85l214.18,213.22c18.12,18.04,21.06,46.33,7.03,67.71h0Z" fill="#2e2e2e" stroke-width="0"/><path d="m2986.05,1284.81l-31.77-49.07-29.59,7.54c-92.78,23.63-176.03,75.23-238.46,147.81h0c-12.21,14.2-14.32,34.49-5.29,50.9h0c12.97,23.56,43.62,30.5,65.47,14.81l239.64-172Z" fill="#2e2e2e" stroke-width="0"/><path d="m2223.84,1746.93l-48.85,64.52s1.84,42.4-8.3,53.46c-10.14,11.06-31.34,20.28-39.64,31.34-8.3,11.06-39.64,49.78-55.31,62.68-15.67,12.9-45.17,29.5-65.45,12.9-20.28-16.59-7.37-47.93,5.53-66.37,12.9-18.43,58.07-72.82,70.05-86.65,11.98-13.83,22.12-36.87,35.95-45.17,13.83-8.3,41.48-33.18,41.48-33.18l22.12-30.42,42.4,36.87Z" fill="none" stroke="#2e2e2e" stroke-linecap="round" stroke-linejoin="round" stroke-width=".57"/><path d="m2351.93,1523.31c-26.46-14.69-35.62-48.3-20.27-74.39l152.55-259.24c24.24-44.4,82.84-55.88,122.04-23.9h0c35.56,29.01,39.86,81.76,9.47,116.15l-196.79,229.36c-16.65,19.41-44.65,24.43-67,12.02h0Z" fill="#2e2e2e" stroke-width="0"/><path d="m2612.95,1284.69c-23.11,27.69-49.46,58.4-73.31,85.45,23.11-27.69,49.46-58.4,73.31-85.45h0Z" fill="#f5f5ff" stroke-width="0"/><path d="m2415.06,1305.27c17.98-31.52,38.63-66.61,57.46-97.64-17.98,31.52-38.63,66.61-57.46,97.64h0Z" fill="#f5f5ff" stroke-width="0"/><path d="m2163.82,1727.96l53.1,35.81,26.59-20.31c83.36-63.67,145.1-151.44,176.85-251.42h0c6.21-19.56-.38-40.92-16.53-53.58h0c-23.2-18.18-57.07-12-72.35,13.2l-167.65,276.3Z" fill="#2e2e2e" stroke-width="0"/><path d="m2651.11,878.15c1.48-9.69,5.49-22.82,11.6-36.74,6.9-15.67,14.85-28.77,21.57-36.26,4.6-5.19,8.64-7.71,11.3-6.61,2.7,1.14,3.6,5.82,2.89,12.76-.99,9.93-5.21,24.46-12.08,39.97-5.94,13.52-12.69,25.16-18.75,32.93-5.81,7.37-10.93,11.28-14.12,9.94-3.11-1.3-3.8-7.26-2.41-15.99Z" fill="#2e2e2e" stroke-width="0"/><path d="m3221.15,988.13l-53.74-49.32c-.94-.86-2.01-1.49-3.13-1.94-10.87-7.68-23.56-12.51-36.91-13.85l-64.74-6.51v-.09s-257.85-61.04-257.85-61.04c-1.62-.94-3.28-1.82-5.04-2.61l-197.22-87.69c-28.33-12.59-60.41-1.87-69.82,23.34-8.97,24.01,6.2,51.85,33.87,62.19l202.32,75.56c.1.04.21.06.31.1,3.3,1.68,6.89,2.93,10.73,3.63l277.14,25.16c18.78,11.14,40.42,16.51,62.23,15.42l3.43-.17,34.85,17.89c1.33.68,2.73,1.06,4.13,1.19l12.92,15.24c3.43,4.04,9.49,4.54,13.53,1.11,1.25-1.06,2.11-2.38,2.67-3.8l2.98,2.74c4.16,3.82,10.63,3.54,14.45-.62.03-.03.05-.07.08-.1,4.14,2.95,9.9,2.46,13.43-1.38,3.82-4.16,3.54-10.63-.62-14.45Z" fill="#f5f5ff" stroke="#2e2e2e" stroke-linecap="round" stroke-linejoin="round" stroke-width=".53"/><path d="m3205.04,1006.42c-3.64,1.69-8.09,1.14-11.22-1.74l-20.99-21.38" fill="none" stroke="#2e2e2e" stroke-linecap="round" stroke-linejoin="round" stroke-width=".41"/><path d="m3113.17,943.68c2.76-.89,5.85-.72,8.64.71l46.12,23.68c5.56,2.86,7.76,9.68,4.9,15.24h0c-2.86,5.56-9.68,7.76-15.24,4.9" fill="none" stroke="#2e2e2e" stroke-linecap="round" stroke-linejoin="round" stroke-width=".41"/><path d="m3221.77,1002.58c-3.82,4.16-10.29,4.44-14.45.62l-46.86-43.01" fill="none" stroke="#2e2e2e" stroke-linecap="round" stroke-linejoin="round" stroke-width=".41"/><path d="m2507.02,798.13c.05-5.68,1.05-11.35,3.09-16.85,11.34-30.39,49.93-43.29,83.97-28.1l101.91,45.5c-8.58,9.86-18.75,27.11-27.59,47.75-7.82,18.33-12.96,35.63-14.85,48.39l-102.76-38.52c-26.96-10.13-43.99-34.1-43.77-58.17Z" fill="#ffce33" stroke-width="0"/><path d="m2653.55,894.82l-102.76-38.52c-5.87-2.2-11.26-5.06-16.11-8.44" fill="none" stroke="#2e2e2e" stroke-linecap="round" stroke-linejoin="round" stroke-width=".42"/><path d="m2626.65,882.78c-8.43,16.73-16.92,33.43-25.29,50.18-10.89,21.79-25.51,41.95-32.83,65.4-6.17,19.74-10.87,40.14-16.58,60.07-4.8,16.72-2.99,34.65,5.06,50.08,0,0-34.48,55.37-95.07,74.18-60.6,18.81-74.18,15.67-74.18,15.67,0,0-44.92-119.1-45.97-187.01-1.04-67.91-10.31-173.84-10.31-173.84l49.52-99.91,85.26-1.84,98.63,7.37,85.26,34.57s-23.5,105.08-23.51,105.08Z" fill="#ffce33" stroke-width="0"/><path d="m730.58,1301.3c-17.68-42.16-18.75-94.36,9.13-130.56,22.79-29.61,60.02-43.46,89.98-65.74,85.5-63.57,101.14-186.52,85.83-292.1-16.73-115.4-63.73-229.26-147.92-309.76-84.18-80.5-208.58-122.83-320.94-92.55-88.98,23.98-161.7,89.24-217.36,162.83-105.16,139.04-160.3,315.27-153.17,489.6,7.13,174.32,76.47,345.45,192.63,475.39,100.81,112.78,245.46,196.52,396.21,186.62,76.36-5.01,156.01-38.59,193.19-105.62,71.14-128.26-84.39-215.04-127.6-318.09Z" fill="#e7ecf2" opacity=".17" stroke-width="0"/><path d="m302.68,964.91c-29.94-8.43-62.22-14.62-85.25-35.57-6.44-5.86-12.3-13.94-10.92-22.54,2.34-14.51,22.62-18,36.08-12.19,13.47,5.8,24.55,17.06,38.86,20.24,14.31,3.17,33.07-9.39,27.3-22.9-4.66-10.89-19.59-11.19-31.41-10.96-40.94.81-82.01-13.72-113.36-40.12-8.17-6.87-16.03-15.1-18.42-25.52-2.4-10.42,2.8-23.2,13.17-25.7,10.46-2.52,20.06,5.66,28.82,11.92,8.76,6.26,22.35,10.41,29.11,2.03,5.66-7.02,1.53-18.16-5.73-23.5-7.26-5.34-16.54-6.78-25.17-9.35-31.13-9.27-56.4-36.13-63.81-67.82-2.25-9.61-2-21.67,6.3-26.98,9.33-5.97,21.94,1.3,27.9,10.65,5.96,9.35,8.47,20.77,15.47,29.37,7,8.6,21.86,12.66,28.59,3.84,8.56-11.2-4.97-25.47-15.53-34.8-26.28-23.21-41.23-58.76-39.45-93.83.78-15.43,7.5-33.59,22.67-36.33,17.98-3.24,30.59,17.09,36.39,34.45,9.02,26.96,15.12,54.89,18.18,83.16.87,8.05,1.64,16.56,6.31,23.17,4.66,6.62,14.76,10.15,21,5.01,9.59-7.89.62-23.82,4.21-35.72,3.71-12.31,21.42-15.93,31.85-8.44,10.42,7.5,13.74,22.03,11.53,34.7-2.21,12.67-8.91,24.01-15.23,35.2-4.86,8.6-9.72,17.98-8.76,27.81.96,9.84,10.5,19.39,19.94,16.5,10.8-3.3,12.09-17.65,13.91-28.82,1.82-11.17,12.85-24.24,22.01-17.61,5.78,4.19,5.01,12.88,3.64,19.9-6.2,31.62-12.4,63.25-18.6,94.87,9.16,5.53,21.18-2.04,26.26-11.47,5.08-9.43,6.31-20.61,11.69-29.87,5.38-9.26,18.11-16.05,26.69-9.65,9.2,6.86,5.49,21.24.88,31.77-11.49,26.27-22.98,52.54-34.47,78.8,8.03,7.95,20.98-1.71,27.42-11.01,6.43-9.3,17.46-20.24,26.96-14.13,7.42,4.77,6.22,15.8,4.14,24.39-8.58,35.29-14.17,73.75-26.92,107.63-24.62-5.24-43.04-41-74.24-40.62Z" fill="#3b4eff" stroke-width="0"/><path d="m698.7,1241.35c7.97,43.57,33.4,75.41,56.8,71.11,23.41-4.3,35.93-43.1,27.96-86.67-7.96-43.57-33.39-75.41-56.8-71.11-23.41,4.3-35.93,43.1-27.97,86.67Z" fill="none" stroke="#2e2e2e" stroke-linecap="round" stroke-linejoin="round" stroke-width=".56"/><path d="m629.65,1329.23c28.74,26.04,63.37,34.58,77.37,19.07,13.99-15.51,2.03-49.19-26.7-75.23-28.74-26.04-63.37-34.58-77.36-19.07-13.99,15.51-2.03,49.19,26.7,75.23Z" fill="none" stroke="#2e2e2e" stroke-linecap="round" stroke-linejoin="round" stroke-width=".56"/><path d="m853.15,1315.18c28.26-18.59,43.07-46.01,33.09-61.27-9.99-15.25-40.99-12.55-69.25,6.04-28.26,18.58-43.07,46.01-33.09,61.27,9.99,15.25,40.99,12.55,69.25-6.04Z" fill="none" stroke="#2e2e2e" stroke-linecap="round" stroke-linejoin="round" stroke-width=".56"/><path d="m834.93,1453.6c27.53-3.43,48.34-18.26,46.5-33.11-1.84-14.86-25.65-24.12-53.18-20.68-27.53,3.43-48.35,18.26-46.5,33.12,1.84,14.85,25.65,24.11,53.18,20.68Z" fill="none" stroke="#2e2e2e" stroke-linecap="round" stroke-linejoin="round" stroke-width=".56"/><path d="m656.89,1437.65c24.57,12.91,50.1,12.62,57.04-.64,6.94-13.26-7.36-34.47-31.93-47.38-24.57-12.91-50.1-12.62-57.04.64-6.93,13.26,7.36,34.47,31.93,47.38Z" fill="none" stroke="#2e2e2e" stroke-linecap="round" stroke-linejoin="round" stroke-width=".56"/><path d="m706.42,1609.12c45.06-137.67,55.67-286.52,30.59-429.21" fill="none" stroke="#2e2e2e" stroke-linecap="round" stroke-linejoin="round" stroke-width=".56"/><path d="m742.78,1449.15c-3.18-75.3-50.75-147.45-118.3-180.56" fill="none" stroke="#2e2e2e" stroke-linecap="round" stroke-linejoin="round" stroke-width=".56"/><path d="m748.76,1388.5c27.63-52.91,68.48-97.12,118.75-129.19" fill="none" stroke="#2e2e2e" stroke-linecap="round" stroke-linejoin="round" stroke-width=".56"/><path d="m738.63,1477.09c-20.6-33.21-51.67-59.77-87.63-74.93" fill="none" stroke="#2e2e2e" stroke-linecap="round" stroke-linejoin="round" stroke-width=".56"/><path d="m741.85,1448.22c34.05-19.07,74.07-27.26,112.86-23.08" fill="none" stroke="#2e2e2e" stroke-linecap="round" stroke-linejoin="round" stroke-width=".56"/><path d="m527.42,581.71c-4.47-8.53-5.58-18.79-3.02-28.08,3.37-12.26,8.38-23.05,11.98-35.25,10.21-34.57,42.11-61.64,77.82-66.03,14.03-1.72,28.47-2.08,42.39.34,13.92,2.42,27.7,9.24,35.4,21.12,7.7,11.88,7.65,29.24-2.45,39.15-7.58,7.44-18.9,9.48-29.51,9.86-14.34.51-28.69-1.31-43.02-.71-14.33.61-29.21,3.98-40.06,13.38-8.83,7.65-14.14,18.49-20.86,28.05-6.73,9.56-17,17.52-28.66,18.17Z" fill="#363432" stroke-width="0"/><path d="m527.1,715.96c-18.68,22.15-51.58,24.77-72.58,5.77-20.56-18.6-21.72-50.7-2.82-71.69.37-.41.77-.85,1.17-1.24l55.31-53.08,7.12-6.84,34.38-32.97,59.71,54.03-30.32,39.04-6.61,8.53-45.36,58.46Z" fill="#f5f5ff" stroke="#2e2e2e" stroke-linecap="round" stroke-linejoin="round" stroke-width=".41"/><path d="m550.04,686.31c-20.9-14.72-33.95-42.99-31.74-74.41.87-12.73,4.19-24.6,9.33-35.01l22.34-21.4,59.71,54.02-30.32,39.03-6.59,8.56-22.71,29.21Z" fill="#2e2e2e" stroke-width="0"/><path d="m719.37,536.68c0,8.61-1.21,16.91-3.49,24.78-5.48,19.33-17.26,35.98-32.96,47.74l-2.33,3.63-16.44,13.02c-4.53,10.51-11.43,19.81-20.11,27.24-9.79,8.39-22.13,18.72-26.41,21.45-2.8,1.82-6.21,4.84-9.32,7.91-6.47,6.4-15.83,8.78-24.51,6.1-6.39-1.95-11.69-6.4-14.71-12.37l-30.76-60.72c-4.79-9.43-4.75-20.54.09-29.93l7.29-14.27c-4.4-10.64-6.86-22.31-6.86-34.6v-.26c.13-49.82,40.52-90.17,90.26-90.17s90.26,40.48,90.26,90.43Z" fill="#f5f5ff" stroke="#2e2e2e" stroke-linecap="round" stroke-linejoin="round" stroke-width=".58"/><path d="m719.37,536.68c0,8.61-1.21,16.91-3.49,24.78-10.57-.48-21.1-5.32-30.55-10.68-12.56-7.09-25.41-15.4-39.87-15.7-16.65-.39-32.4,10.03-49.01,8.43-16.18-1.56-30.85-14.36-46.9-11.55-3.88.69-7.46,2.25-10.7,4.45.13-49.82,40.52-90.17,90.26-90.17s90.26,40.48,90.26,90.43Z" fill="#2e2e2e" stroke-width="0"/><path d="m649.25,514.74c5.43,1.75,9.34,6.65,11.57,11.92,2.23,5.26,3.07,10.99,4.42,16.55,3.67,15.21,11.45,29.73,23.56,39.61,12.11,9.88,28.78,14.61,43.86,10.55,4.99-1.34,9.96-3.79,12.86-8.09,2.89-4.29,3.03-10.73-.77-14.25,2.9,3.17,6.46,3.74,9.59.8,3.13-2.94,3.92-7.85,2.6-11.94-1.32-4.09-4.44-7.41-8.02-9.77-3.59-2.36-7.65-3.87-11.67-5.37,2.93,1.88,5.06-.75,5.79-4.16.73-3.41-1.23-6.92-3.91-9.15-2.68-2.23-6-3.49-9.14-5-3.14-1.5-6.29-3.41-8.05-6.42-8.14-13.85-8.79-29.77-21.73-39.27-12.94-9.5-30.28-12.68-45.74-8.4-7.09,1.96-13.94,5.55-18.57,11.28-4.63,5.73-6.72,13.8-4.19,20.73,2.53,6.92,10.38,12.03,17.55,10.37Z" fill="#2e2e2e" stroke-width="0"/><path d="m557.97,574.3c-8.17.77-17.05-8.03-20.96-21.57-4.45-15.37-.8-31.03,8.14-34.96,8.94-3.94,19.8,5.33,24.24,20.71,1.82,6.29,2.28,12.63,1.58,18.19" fill="#f5f5ff" stroke="#2e2e2e" stroke-linecap="round" stroke-linejoin="round" stroke-width=".4"/><path d="m570.97,556.67c-.08.66-.18,1.31-.3,1.94" fill="#f5f5ff" stroke="#2e2e2e" stroke-linecap="round" stroke-linejoin="round" stroke-width=".4"/><path d="m549.8,525.88c-3.67.61-6.95,3.71-8.3,7.84-1.35,4.13-.72,9.13,1.6,12.65" fill="none" stroke="#2e2e2e" stroke-linecap="round" stroke-linejoin="round" stroke-width=".4"/><path d="m621.39,560.82c3.67-1.11,7.28-1.2,10.9-.74,3.6.51,7.21,1.72,10.46,3.73,3.28,2.03,6.1,4.87,7.97,8.31,1.83,3.41,2.75,7.51,1.59,11.23-2.42-2.97-4.6-5.12-6.94-7.05-2.31-1.92-4.69-3.59-7.16-5.14-2.52-1.56-5.18-3.05-8.02-4.64-2.82-1.65-5.83-3.28-8.8-5.71Z" fill="#2e2e2e" stroke-width="0"/><path d="m666.55,597.74c2.37-.97,4.5-.97,6.59-.57,2.06.45,4.02,1.42,5.67,2.94,1.65,1.5,2.96,3.59,3.43,5.95.44,2.35.07,4.88-1.66,6.79-3.7-3.44-5.5-4.37-7.61-6.37-1.03-.95-2.08-2.06-3.18-3.42-1.07-1.41-2.24-2.95-3.24-5.31Z" fill="#2e2e2e" stroke-width="0"/><path d="m656.07,605.92c-2.14,9.79-2.64,19.93-1.48,29.88-1.02,2.12-2.82,4.07-4.97,5.57-4.02,2.82-9.34,2.64-13.31-.26-2.16-1.58-4.2-3.37-5.45-5.25" fill="none" stroke="#2e2e2e" stroke-linecap="round" stroke-linejoin="round" stroke-width=".4"/><path d="m636.58,596.84c-8.67,2.24-15.82-5.5-19.2-12.64-.51-1.05-1.03-2.1-1.49-3.17.66.97,1.26,1.96,1.92,2.93,4.04,6.61,10.25,13.76,18.77,12.88h0Z" fill="#2e2e2e" stroke-width="0"/><path d="m661.28,613.86c.91,3.58,3.97,6.17,7.65,6.47-3.77.93-7.93-2.6-7.65-6.47h0Z" fill="#2e2e2e" stroke-width="0"/><path d="m635.15,660.82c-.49-3.05-3.47-6.34-6.43-5.48-.07-2.45-2.06-4.49-4.31-5.48-2.24-.98-4.74-1.15-7.17-1.51-8.41-1.24-16.43-4.98-22.79-10.62,5.16,8.78,12.56,16.08,21.7,20.55.96,3.18,4.47,7.01,7.58,5.88-.96.71,1.6,3.45,2.79,3.27,2.17-2.34,5.83-5.06,8.62-6.61Z" fill="none" stroke="#2e2e2e" stroke-linecap="round" stroke-linejoin="round" stroke-width=".4"/><path d="m620.35,673.24c-6.08-.27-11.94-3.73-15.12-8.93" fill="none" stroke="#2e2e2e" stroke-linecap="round" stroke-linejoin="round" stroke-width=".4"/><path d="m547.77,114.09c-3.16-4.37-9.25-5.36-13.61-2.19l-12.81,9.28c-.31.11-.62.18-.92.32l-5.06,2.37c-3.03-5.84-1.44-14.6,2.55-19.91l11.43-21.96s-4.46-6.8-10.65-7.14l-62.19,4.15c-16.33-.91-25.73,14.18-25.73,14.18l-17.41,53.29-110.97,210.26c-2.94,7.45-3.41,15.27-1.81,22.55.21,1.9.5,3.81.93,5.73l47.23,208.82c6.78,29.99,34.28,49.13,59.85,41.65,24.35-7.12,37.46-35.7,29.27-63.83l-58.19-199.92,74.75-191.66,23.27-16.46,30.36-13.59c1.92-.86,37.53-22.29,37.53-22.29,4.36-3.16,5.34-9.27,2.19-13.65Z" fill="#f5f5ff" stroke="#2e2e2e" stroke-linecap="round" stroke-linejoin="round" stroke-width=".57"/><path d="m491.44,136.38c5.88-6.99,14.62-11.49,23.71-12.2" fill="none" stroke="#2e2e2e" stroke-linecap="round" stroke-linejoin="round" stroke-width=".57"/><path d="m517.92,103.96l13.04-24.81,17.52-2.6c4.82-.71,8.15-5.21,7.44-10.04-.71-4.83-5.2-8.17-10.02-7.45l-21.73,3.22c-2.57.38-4.68,1.85-6.02,3.85-.44.51-.84,1.05-1.17,1.67l-15.61,23.41" fill="#f5f5ff" stroke="#2e2e2e" stroke-linecap="round" stroke-linejoin="round" stroke-width=".57"/><path d="m491.04,70.03l4.22-10.2c1.87-4.51,7.03-6.65,11.53-4.78h0c4.5,1.87,6.63,7.05,4.76,11.56l-10.19,24.59" fill="#f5f5ff" stroke="#2e2e2e" stroke-linecap="round" stroke-linejoin="round" stroke-width=".57"/><path d="m496.5,58.05c.8-1.18,1.9-2.18,3.26-2.87h0c4.34-2.23,9.65-.51,11.88,3.83l10.02,19.59c2.22,4.35.51,9.68-3.82,11.9h0c-4.34,2.23-9.65.51-11.88-3.83l-6.67-13.03" fill="#f5f5ff" stroke="#2e2e2e" stroke-linecap="round" stroke-linejoin="round" stroke-width=".57"/><path d="m464.3,78.45l6.5-15.68c1.87-4.51,7.03-6.65,11.53-4.78h0c4.5,1.87,6.63,7.05,4.76,11.56l-11.26,27.18" fill="#f5f5ff" stroke="#2e2e2e" stroke-linecap="round" stroke-linejoin="round" stroke-width=".57"/><path d="m431.61,92.54l16.01-25.32c2.48-3.92,7.66-5.08,11.57-2.6h0c3.91,2.48,5.07,7.67,2.59,11.59l-14.88,23.53" fill="#f5f5ff" stroke="#2e2e2e" stroke-linecap="round" stroke-linejoin="round" stroke-width=".57"/><path d="m471.58,61.03c.8-1.18,1.9-2.18,3.26-2.87h0c4.34-2.23,9.65-.51,11.88,3.83l10.02,19.59c2.22,4.35.51,9.68-3.82,11.9h0c-4.34,2.23-9.65.51-11.88-3.83l-6.67-13.03" fill="#f5f5ff" stroke="#2e2e2e" stroke-linecap="round" stroke-linejoin="round" stroke-width=".57"/><path d="m448.47,66.27c.99-1.02,2.24-1.82,3.7-2.28h0c4.65-1.46,9.6,1.14,11.05,5.8l6.55,21.02c1.45,4.66-1.14,9.62-5.79,11.08h0c-4.65,1.46-9.6-1.14-11.05-5.8l-4.36-13.98" fill="#f5f5ff" stroke="#2e2e2e" stroke-linecap="round" stroke-linejoin="round" stroke-width=".57"/><line x1="530.96" y1="79.15" x2="526.61" y2="79.71" fill="none" stroke="#2e2e2e" stroke-linecap="round" stroke-linejoin="round" stroke-width=".57"/><path d="m1172.72,1125.8l-30.1-65.77c-.53-1.15-1.26-2.13-2.11-2.97-6.97-11.2-16.69-20.5-28.36-26.87l-66.6-36.33c-20.94-12.65-41.87-25.3-62.81-37.95-36.93-22.32-73.87-44.64-110.8-66.95-27.43-16.58-53.95-33.47-81.82-49.16-30.97-17.43-61.94-34.87-92.91-52.3l-64.19-36.14c-.33-.19-.66-.37-.99-.56-26.75-15.06-59.36-7.44-70.96,16.59-11.05,22.89,1.32,51.79,27.64,64.56,19.74,9.57,39.48,19.15,59.21,28.73,33.46,16.23,66.91,32.46,100.37,48.69,40.79,19.79,82.75,37.07,124.41,54.93,39.48,16.93,78.96,33.86,118.43,50.8,15.58,6.68,31.15,13.36,46.73,20.04,12.65,16.06,29.48,28.34,48.71,35.34l3.2,1.16,24.93,29.77c.95,1.13,2.08,2.02,3.31,2.67l5.94,18.9c1.58,5.02,6.91,7.8,11.92,6.22,1.54-.49,2.84-1.36,3.9-2.44l1.67,3.65c2.33,5.09,8.34,7.33,13.42,4.99.04-.02.07-.05.11-.06,2.65,4.29,8.09,6.06,12.78,3.91,5.08-2.34,7.31-8.36,4.98-13.45Z" fill="#f5f5ff" stroke="#2e2e2e" stroke-linecap="round" stroke-linejoin="round" stroke-width=".57"/><path d="m1151,1136.32c-3.96.14-7.81-2.07-9.57-5.91l-10.94-27.62" fill="none" stroke="#2e2e2e" stroke-linecap="round" stroke-linejoin="round" stroke-width=".4"/><path d="m1091.26,1043.61c2.86.25,5.62,1.59,7.61,3.97l32.99,39.39c3.98,4.75,3.36,11.84-1.38,15.82h0c-4.74,3.99-11.81,3.37-15.79-1.38" fill="none" stroke="#2e2e2e" stroke-linecap="round" stroke-linejoin="round" stroke-width=".4"/><path d="m1167.74,1139.25c-5.08,2.34-11.09.1-13.42-4.99l-26.25-57.35" fill="none" stroke="#2e2e2e" stroke-linecap="round" stroke-linejoin="round" stroke-width=".4"/><path d="m546.16,1112.25c0-66.59-47.25-120.58-105.53-120.58-2.72,0-5.4.16-8.07.39l-29.52-25.98-132.35,63.2s-12.81,30.51-10.67,100.24c2.14,69.73,14.94,93.71,25.62,141.65,7.05,31.65,98.74-7.93,160.26-38.48,55.84-3.13,100.28-55.85,100.28-120.43Z" fill="#ffce33" stroke-width="0"/><path d="m943.33,1748.55c-2.74-41.15-37.43-77.69-46.53-107.67-4.74-15.61-11.83-34.76-17.78-50.11-6.7-17.29-20.49-30.84-37.89-37.14-14.41-5.21-30.21-5.07-44.52.42l-35.72,13.69-22.43-14.11c-95.25-61.84-207.18-92.81-320.59-88.69-22.19.81-41.54,15.34-48.55,36.46-10.06,30.33,8.58,62.65,39.82,69.05l348.76,62.54.03-.37c19.45,12.94,44.56,30.52,56.08,40.49,15.05,13.03,69.8,41.84,75.27,54.18,5.47,12.34,28.06,48.69,34.9,49.38,6.84.69,21.9,13.03,19.16-28.12Z" fill="#f5f5ff" stroke="#2e2e2e" stroke-linecap="round" stroke-linejoin="round" stroke-width=".63"/><path d="m441.2,1570.34c-31.57,10.65-65.7-6.86-75.54-38.76l-97.74-317.06c-18.14-52.76,15.98-109.07,71.06-117.26h0c49.96-7.43,96.07,28.28,101.5,78.61l40.63,330.91c3.44,28-13.24,54.56-39.92,63.56h0Z" fill="#ffce33" stroke-width="0"/><path d="m347.11,604.6l80.29-77.73,36.49,90.53,36.49,63.1,63.87,40.24h0c39.91,11.52,77.83,29.08,112.43,52.09l16.21,10.78-69.34,61.5-45.62,23.78s-72.99,67.67-83.02,91.44c-10.04,23.78-1.82,45.72-1.82,45.72,0,0-43.79,21.95-114.96,48.46-71.16,26.52-71.16,25.6-87.59,28.35-16.42,2.74-30.11-9.14-30.11-9.14,0,0-22.81-102.42-9.12-200.26,13.69-97.84,52-131.68,60.22-153.63,8.21-21.95,35.58-115.22,35.58-115.22Z" fill="#2e2e2e" stroke-width="0"/><path d="m857.8,1962.53c-2.74-12.34-41.06-58.3-44.48-73.38-3.42-15.09-21.9-41.15-26.69-50.07-2.9-5.39-19.03-22.54-31.35-35.28l-12.01-49.57c-30.4-139.09-64.57-221.11-108.87-302.45l-4.23-7.78c-15-27.54-48.76-38.66-77.13-25.4-29.01,13.56-42.06,47.75-29.48,77.25h0c36.31,85.16,80.56,166.71,132.16,243.54l58.58,92.89s7.64,44.23,11.44,51.37c5.47,10.29,27.37,56.24,31.48,64.47,4.11,8.23,13,69.27,25.32,79.56,12.32,10.29,16.42,22.63,40.37,16.46,23.95-6.17,29.42-24.69,29.42-24.69,0,0,8.21-44.58,5.47-56.92Z" fill="#f5f5ff" stroke="#2e2e2e" stroke-linecap="round" stroke-linejoin="round" stroke-width=".54"/><path d="m605.82,1522.27c-29.12,16.23-65.85,5.22-81.31-24.36l-153.61-293.97c-27.41-48.58-4.06-110.16,48.61-128.25h0c47.78-16.41,99.59,10.31,114.07,58.81l99.97,318c8.46,26.9-3.13,56.06-27.72,69.77h0Z" fill="#ffce33" stroke-width="0"/><line x1="471.82" y1="1397.08" x2="384.93" y2="1230.81" fill="none" stroke="#2e2e2e" stroke-linecap="round" stroke-linejoin="round" stroke-width=".42"/><path d="m1359.07,434.56c38.53-55.47,66.88-118.94,115.34-165.99,42.66-41.42,101.61-68.02,160.93-63.98,59.32,4.04,117.12,41.98,137.14,97.97,27.38,76.55-17.51,160.36-10.71,241.38,10.55,125.77,141.32,218.1,147.08,344.19,7.11,155.54-172.77,254.22-309.98,250.12-83.23-2.49-164.44-38.5-223.97-96.4-31.08-30.23-49.59-65.65-86.48-89.59-41.47-26.9-87.61-43.67-132.55-63.63-57.49-25.54-115.88-59.21-145.08-114.94-28.04-53.52-22.7-122.86,13.22-171.45,43.97-59.49,102.18-62,168.72-61.91,71.75.09,127.13-49.31,166.33-105.75Z" fill="#e7ecf2" opacity=".17" stroke-width="0"/><path d="m1192.3,509.4c37.94,23.55,78.97,26.08,91.65,5.65,12.68-20.43-7.79-56.08-45.73-79.62-37.94-23.55-78.97-26.08-91.65-5.65-12.68,20.43,7.79,56.08,45.73,79.62Z" fill="none" stroke="#2e2e2e" stroke-linecap="round" stroke-linejoin="round" stroke-width=".57"/><path d="m1211.05,620.59c38.95-3.87,68.83-24.01,66.75-44.98-2.08-20.97-35.35-34.84-74.3-30.97-38.95,3.87-68.83,24.01-66.75,44.98,2.08,20.97,35.35,34.84,74.29,30.97Z" fill="none" stroke="#2e2e2e" stroke-linecap="round" stroke-linejoin="round" stroke-width=".57"/><path d="m1352.27,443.83c5.3-33.73-5.12-63.39-23.28-66.25-18.16-2.86-37.19,22.17-42.49,55.91-5.31,33.73,5.12,63.39,23.28,66.25,18.16,2.86,37.19-22.17,42.49-55.91Z" fill="none" stroke="#2e2e2e" stroke-linecap="round" stroke-linejoin="round" stroke-width=".57"/><path d="m1443.25,551.21c16.12-22.92,19.18-48.54,6.84-57.22-12.35-8.68-35.42,2.86-51.54,25.79-16.12,22.92-19.18,48.54-6.84,57.22,12.34,8.68,35.42-2.87,51.54-25.79Z" fill="none" stroke="#2e2e2e" stroke-linecap="round" stroke-linejoin="round" stroke-width=".57"/><path d="m1310.49,673.64c26.31-9.64,43.43-28.94,38.24-43.11-5.19-14.17-30.73-17.84-57.04-8.2-26.31,9.64-43.43,28.95-38.24,43.11,5.19,14.17,30.73,17.84,57.05,8.19Z" fill="none" stroke="#2e2e2e" stroke-linecap="round" stroke-linejoin="round" stroke-width=".57"/><path d="m1472.13,752.7c-72.2-126.96-176.14-235.7-299.7-313.57" fill="none" stroke="#2e2e2e" stroke-linecap="round" stroke-linejoin="round" stroke-width=".57"/><path d="m1377.38,617.15c-58.38-48.61-144.54-61.88-215.11-33.76" fill="none" stroke="#2e2e2e" stroke-linecap="round" stroke-linejoin="round" stroke-width=".57"/><path d="m1336.15,571.6c-20.74-56.51-26.03-117.02-15.85-176.35" fill="none" stroke="#2e2e2e" stroke-linecap="round" stroke-linejoin="round" stroke-width=".57"/><path d="m1395.42,639.18c-38.77-7.08-79.7-1.82-115.42,14.83" fill="none" stroke="#2e2e2e" stroke-linecap="round" stroke-linejoin="round" stroke-width=".57"/><path d="m1376.05,617.22c8.87-38.4,29.93-73.89,59.37-100.09" fill="none" stroke="#2e2e2e" stroke-linecap="round" stroke-linejoin="round" stroke-width=".57"/><path d="m1608.89,824.42c-6.23-12.72-12-26.38-11.03-40.51.96-14.13,10.75-28.63,24.82-30.28,37.21-4.38,43.5,71.12,80.81,67.69,22.53-2.07,29.26-34.9,16.89-53.84-12.37-18.94-34.74-28.14-53.9-40.18-19.15-12.04-37.56-32.13-33.36-54.37,5.38-28.48,45.83-37.23,70.59-22.16,24.76,15.07,37.03,43.82,47.8,70.73,25.75-13.25,32.9-46.88,31.57-75.81-1.33-28.93-7.96-58.9,1.75-86.19,9.71-27.28,45.68-47.67,68.05-29.27,20.64,16.98,13.19,49.53,5.39,75.1-10.54,34.55-18.32,69.94-23.24,105.73-1.94,14.16-1.18,32.45,12.11,37.73,18.75,7.45,32.39-19.83,51.44-26.46,18.83-6.55,39.79,11.3,41.41,31.17,1.62,19.87-11.44,38.54-27.94,49.74-16.49,11.2-36.14,16.52-55.13,22.61-18.99,6.08-38.33,13.51-52.32,27.71,12.39,13.02,33.9,5.48,50.28-1.92,16.38-7.4,39.77-11.85,48.86,3.65,10.11,17.25-9.85,36.39-27.6,45.58-37.6,19.46-122.86,63.89-166.59,52.44-42.4-11.1-82.52-91.84-100.66-128.89Z" fill="#ffce33" stroke-width="0"/><circle cx="1365.68" cy="122.33" r="67.92" fill="#2e2e2e" stroke-width="0"/><circle cx="1471.19" cy="179.28" r="97.72" transform="translate(961.82 1571.07) rotate(-76.85)" fill="#2e2e2e" stroke-width="0"/><circle cx="1520.89" cy="147.05" r="53.07" transform="translate(341.48 1118.5) rotate(-45)" fill="#2e2e2e" stroke-width="0"/><path d="m1535.68,351.97c-1.62,25.13-23.29,43.99-47.79,41.6-23.99-2.34-41.38-24.14-39-48.57.05-.48.1-.99.18-1.47l11.27-65.68,1.45-8.46,7.02-40.81,69.68,6.79-1.04,42.94-.22,9.37-1.53,64.28Z" fill="#f5f5ff" stroke="#2e2e2e" stroke-linecap="round" stroke-linejoin="round" stroke-width=".35"/><path d="m1536.41,319.39c-22.22.55-45.96-12.43-60.64-35.49-5.97-9.33-9.77-19.34-11.56-29.26l4.57-26.5,69.67,6.79-1.05,42.93-.19,9.38-.8,32.14Z" fill="#2e2e2e" stroke-width="0"/><path d="m1581.42,254.62c-.52,5.67-1.48,11.6-5.14,15.91-4.53,5.27-11.99,6.71-18.88,7.58-23.06,2.83-46.51,2.31-69.4-1.53-21.71-3.66-45.29-12.21-54.79-32.08-1.87-3.97-3.01-8.15-3.57-12.38l-.26-.26c-17.18-15.34-27.99-37.62-27.99-62.42,0-46.38,37.58-84,84-84,16.13,0,31.21,4.58,43.98,12.51,21.1,12.99,35.96,35.09,39.23,60.85,2.75,10.46,2.57,25.63,7.45,33.65,9.76,16.04,7.45,40.41,5.36,62.16Z" fill="#f5f5ff" stroke="#2e2e2e" stroke-linecap="round" stroke-linejoin="round" stroke-width=".38"/><path d="m1529.37,97.95c-19.05,1.7-37.66,8.11-53.66,18.66-14.04,9.29-26.98,24.06-25.28,40.8.92,9.15,6.1,17.35,7.85,26.37,2.53,13.08-2.66,26.94-11.94,36.49-4.8,4.97-10.64,8.81-16.96,11.6-17.18-15.34-27.99-37.62-27.99-62.42,0-46.38,37.58-84,84-84,16.13,0,31.21,4.58,43.98,12.51Z" fill="#2e2e2e" stroke-width="0"/><path d="m1524.51,95.34c5.07,1.66,6.32,6.72,6.73,11.53,2.32,27.03-19.15,54.77-47.94,45.06,3,15.71-2.21,34.97-14.66,45.02-12.44,10.05-32.49,10.44-43.79-.87-7.39-7.4-10.27-18.51-9.23-28.91,1.04-10.4,5.63-20.17,11.41-28.88,10.82-16.29,29.02-26.52,46.95-33.16,9.61-3.55,19.57-6.17,29.65-7.97,5.45-.97,14.71-3.83,20.87-1.81Z" fill="#2e2e2e" stroke-width="0"/><path d="m1490.65,168.52c1.32-3.53,3.68-6.19,6.34-8.41,2.7-2.17,5.81-3.79,9.1-4.81,3.29-1.03,6.77-1.45,10.22-1.19,3.45.31,6.9,1.17,9.99,3.33-3.25,1.88-6.16,3.04-9.01,4.18-2.84,1.09-5.59,2.03-8.36,2.88-2.77.85-5.57,1.63-8.52,2.34-2.99.67-6.04,1.38-9.77,1.7Z" fill="#2e2e2e" stroke-width="0"/><path d="m1541.52,148.69c1.32-2.67,3.51-4.37,5.72-5.67,2.25-1.26,4.65-2.03,7.09-2.41,2.44-.38,4.92-.34,7.39.13,2.46.52,4.94,1.36,7.25,3.24-2.37,1.78-4.57,2.76-6.78,3.6-2.2.79-4.37,1.33-6.56,1.65-2.19.33-4.38.46-6.65.4-2.31-.1-4.58-.32-7.47-.93Z" fill="#2e2e2e" stroke-width="0"/><path d="m1545.46,177.41l20.12,16.94c3.41,2.87,3.87,7.95,1.05,11.39l-5.5,6.69" fill="none" stroke="#2e2e2e" stroke-linecap="round" stroke-linejoin="round" stroke-width=".42"/><ellipse cx="1518.24" cy="179.02" rx="4.18" ry="6.42" fill="#2e2e2e" stroke-width="0"/><path d="m1517.76,188.17c-6.33,2.4-13.02-.19-18.73-3.06-.11-.05-.16-.17-.11-.28,1.75-2.39,3.66-4.67,5.89-6.66,4.32-3.93,10.67-6.73,16.46-4.55,2.79,1.05,5.26,3.29,6.11,6.22.03.11-.03.23-.14.26-.11.03-.23-.03-.26-.14-1.89-5.74-9.04-7.71-14.34-5.72-2.74.9-5.21,2.52-7.35,4.46-2.17,1.92-3.91,4.31-6.02,6.34l-.07-.32c5.61,2.82,12.18,5.4,18.41,3.04.25-.1.41.31.14.4h0Z" fill="#2e2e2e" stroke-width="0"/><path d="m1499.12,184.92c1,.48,1.96,1,2.96,1.39-.35.31-.78.44-1.13.52l-.52.04c-2.57.39-4.75-.74-5.88-2.62-.31-.48-.13-1.22.35-1.66.35-.31.74-.39,1.09-.22l.09.04c1.26.61,2.88.31,3.88-.48.7-.57,1.48-.74,2.14-.48-1.05,1.09-2,2.27-2.96,3.44Z" fill="#2e2e2e" stroke-width="0"/><path d="m1565.88,167.26c0,2.88-1.52,5.21-3.4,5.21s-3.4-2.33-3.4-5.21,1.52-5.21,3.4-5.21,3.4,2.33,3.4,5.21Z" fill="#2e2e2e" stroke-width="0"/><path d="m1571.43,167.84c-.77.8-1.48,1.63-2.28,2.35.43.16.89.13,1.24.09l.5-.14c2.55-.54,4.19-2.37,4.59-4.52.12-.56-.31-1.19-.91-1.43-.43-.16-.83-.11-1.1.18l-.07.07c-.97,1.02-2.59,1.3-3.8.92-.85-.29-1.65-.17-2.17.3,1.36.65,2.67,1.42,3.99,2.18Z" fill="#2e2e2e" stroke-width="0"/><path d="m1559.77,174.07c4.34-.02,8.61-2.13,11.51-5.33,0,0,0,.25,0,.25-2.18-2.39-4.28-5.09-7.51-5.85-5.37-.95-10.27,3.96-12.85,8.2-.05.09-.17.12-.26.07-.09-.05-.12-.17-.07-.26,2.56-4.6,7.61-9.64,13.34-8.68,3.39.74,5.85,3.56,7.67,6.28.06.07.06.18,0,.25-2.99,3.28-7.33,5.43-11.8,5.45-.25,0-.25-.39,0-.38h0Z" fill="#2e2e2e" stroke-width="0"/><path d="m1579.18,237.2c-1.06,2.61-4.07,3.78-6.81,4.47-6.76,1.73-13.79,2.35-20.75,1.85" fill="none" stroke="#2e2e2e" stroke-linecap="round" stroke-linejoin="round" stroke-width=".42"/><path d="m1582.2,228.95c-1.86-2.92-3.86-5.96-6.92-7.57-3.06-1.61-6.84-1.2-8.49,1.85-1.66-1.03-3.84-.89-5.62-.11-1.79.78-3.26,2.13-4.66,3.49-4.15,4.04-7.97,8.4-11.42,13.05,4.54-2.53,8.62-3.4,13.68-4.58,7.71-1.79,15.92-3.63,23.44-6.13Z" fill="none" stroke="#2e2e2e" stroke-linecap="round" stroke-linejoin="round" stroke-width=".42"/><path d="m1463.03,258.47c-5.04,7.08-18.23,8.11-31.76,1.89-15.37-7.06-25.36-20.8-22.31-30.69,3.05-9.89,17.98-12.18,33.35-5.11,6.29,2.89,11.68,6.9,15.64,11.31" fill="#f5f5ff" stroke="#2e2e2e" stroke-linecap="round" stroke-linejoin="round" stroke-width=".42"/><path d="m1457.94,235.87c.47.52.92,1.05,1.35,1.58" fill="#f5f5ff" stroke="#2e2e2e" stroke-linecap="round" stroke-linejoin="round" stroke-width=".42"/><path d="m1418.65,231.55c-2.05,3.36-1.85,8.13.52,12.07,2.37,3.94,6.8,6.89,11.22,7.46" fill="none" stroke="#2e2e2e" stroke-linecap="round" stroke-linejoin="round" stroke-width=".42"/><path d="m1489.46,348.19l-184.79-62.81c-1.03-.65-2.11-1.25-3.22-1.81l-131.47-35.2-19.55-18.03-22.17-22.28-29.55-32.6c-3.5-3.86-9.47-4.16-13.34-.66-3.86,3.5-4.16,9.47-.66,13.34l24.18,26.68c-1.73,2.49-2.71,5.4-2.82,8.42-7.28,6.08-15.38,11.39-22.36,14.54l-60.1,3.76c-3.96.25-6.96,3.65-6.71,7.61.07,1.06.38,2.05.85,2.93l-7.27.74c-3.94.4-6.82,3.92-6.42,7.86.4,3.94,3.92,6.82,7.86,6.42l1.64-.17c-.27.88-.37,1.83-.27,2.8h0c.4,3.94,3.92,6.82,7.86,6.42l18.58-1.88c-1.02,1.38-1.57,3.13-1.39,4.97.4,3.94,3.92,6.82,7.86,6.42l43.54-4.41c.62-.06,1.19-.22,1.75-.43l63.56,1.46-.09.55,114.54,65.12c.26.13.53.22.8.35,2.46,1.61,5.12,3.04,7.99,4.21l180.91,74.08c25.98,10.64,54.74.07,62.58-23.01,7.47-21.98-7.01-46.78-32.34-55.39Z" fill="#f5f5ff" stroke="#2e2e2e" stroke-linecap="round" stroke-linejoin="round" stroke-width=".53"/><line x1="1081.95" y1="269.74" x2="1038.45" y2="274.14" fill="none" stroke="#2e2e2e" stroke-linecap="round" stroke-linejoin="round" stroke-width=".42"/><path d="m1075.16,261.57l-60.55,5.25c-.91.09-1.79.09-2.64,0" fill="none" stroke="#2e2e2e" stroke-linecap="round" stroke-linejoin="round" stroke-width=".42"/><path d="m1078.16,252.28l-50.95,3.41c-4.03.25-7.6-1.29-9.28-3.72" fill="none" stroke="#2e2e2e" stroke-linecap="round" stroke-linejoin="round" stroke-width=".42"/><path d="m1631.46,597.12c-3.97,18.13-9.37,35.92-15.95,53.27-25.63,4.4-52,4.32-77.55-.52-36.44-6.89-70.92-23.41-99.43-47.08.44-.13.92-.22,1.39-.31-6.76-50.44-15.2-111.21-16.17-162.86-1.38-73.26,25.58-105.75,25.58-105.75,0,0,11.56,9.34,38.71,10.37,91.25,3.46,110.16,23.15,132,78.16,21.93,55.01,24.06,116.87,11.42,174.72Z" fill="#3b4eff" stroke-width="0"/><path d="m1021.41,488.73l2.07-22.12,6.56-8.84c6-8.08,8.67-18.16,7.47-28.15-1.44-12-8.31-22.67-18.63-28.95l-13.99-5.48c-17.9-7-32.71-20.16-41.78-37.1l-12.22-22.83c-2.33-13.97-15.15-23.7-29.23-22.18,0,0-.49.05-.49.05-3.27.35-9.46,13.22-10.99,16.25-3.32,6.57-5.69,13.62-7.02,20.86-2.79,15.16-.12,29.24,4.42,43.72,5.76,18.41,14.88,35.53,25.16,51.77,8.47,13.37,21,26.36,27.15,40.91l17.28,40.79,44.24-38.71Z" fill="#f5f5ff" stroke="#2e2e2e" stroke-linecap="round" stroke-linejoin="round" stroke-width=".55"/><path d="m1061.02,770.67c-6.18-29.63,13.27-58.53,43.04-63.96l295.91-54.01c49.44-10.68,96.44,26.17,97.86,76.73h0c1.29,45.87-35.82,83.61-81.71,83.09l-302.21,1c-25.57.09-47.67-17.82-52.89-42.85h0Z" fill="#2e2e2e" stroke-width="0"/><path d="m966.11,499.79l54.52-21.08,19.53,23.47c61.24,73.59,98.36,164.24,106.3,259.64h0c1.55,18.67-8.65,36.33-25.6,44.32h0c-24.33,11.46-53.22-.91-61.7-26.44l-93.05-279.92Z" fill="#2e2e2e" stroke-width="0"/><path d="m1137.06,699.48c4.47,15.2,7.66,30.98,7.88,46.86-1.24-15.83-4.39-31.4-7.88-46.86h0Z" fill="#f5f5ff" stroke-width="0"/><path d="m1635.47,405.76c-.94.8-1.97,1.31-3.1,1.55-1.08.19-2.16.14-3.28-.23-8.07-2.39-16.98-18.44-20.97-39.03-3.94-20.31-1.83-38.33,4.64-43.87t.05,0c.94-.89,2.02-1.41,3.19-1.64,1.36-.23,2.77-.05,4.13.56,7.88,3.24,16.23,18.91,20.13,38.71,3.94,20.46,1.74,38.56-4.79,43.96Z" fill="#2e2e2e" stroke-width="0"/><path d="m2119.03,232.75c-.15-3.51-2.47-6.4-5.61-7.46.51-.84.9-1.78,1.08-2.81l.11-.6c.81-4.49-2.17-8.78-6.66-9.59l-40.03-7.22c-1.87-.34-3.69.01-5.25.83-.3.12-.61.22-.91.37l-19.3,10.34c-1.25-.84-2.54-1.61-3.89-2.29l12.13-10.45,39.11-1.59c4.55-.18,8.1-4.03,7.91-8.58l-.04-.93c-.18-4.55-4.03-8.1-8.58-7.91l-41.7,1.69c-1.39.06-2.67.49-3.8,1.14-.91.33-1.78.81-2.56,1.47l-24.64,21.22-.7.6c-.73.13-1.46.23-2.18.41-1.47.35-2.89.82-4.27,1.33l9.75-19.19c2.48-4.89.53-10.86-4.35-13.34-4.89-2.48-10.86-.53-13.34,4.35l-15.38,30.27c-2,1.57-3.49,3.69-4.29,6.09l-15.16,25.75-.27-.83-240.71,66.34c-1.07.08-2.15.17-3.23.33l-193.46,28.13c-27.79,4.04-47.18,27.76-42.21,51.62,4.73,22.73,29.8,36.73,56,31.27l191.4-39.86c2.61-.2,5.24-.67,7.84-1.47l234.22-88.64.12.44,54.5-11.21c5.81-1.4,10.95-4.13,15.2-7.76l18.89-.72c.89.19,1.82.26,2.77.13l33.24-4.43c4.52-.6,7.69-4.75,7.09-9.27l-.15-1.15c-.6-4.52-4.75-7.69-9.27-7.09l-29.91,3.99-11.08.42c.59-2.12.97-4.3,1.17-6.52l13.04-6.99,39.47-1.63c4.55-.19,8.09-4.03,7.9-8.59l-.02-.43Zm-38.79-6.48c-4.34.11-8.82-.96-13.06.38-4,1.26-7.4,3.92-11.05,5.88-.1.05-.2.11-.3.16-.44-1.04-.93-2.04-1.46-3.02l13.47-7.22,19.28,3.48c-2.29.14-4.58.28-6.87.34Z" fill="#f5f5ff" stroke="#2e2e2e" stroke-linecap="round" stroke-linejoin="round" stroke-width=".53"/><line x1="2084.31" y1="225.68" x2="2113.42" y2="225.29" fill="none" stroke="#2e2e2e" stroke-linecap="round" stroke-linejoin="round" stroke-width=".53"/><path d="m1629.09,407.08l-96.51,20.13c-4.13.84-8.21,1.27-12.2,1.27-23.41,0-43.73-14.03-48.09-34.95-5.35-25.66,15.53-51.18,45.46-55.55l95-13.79c-6.47,5.54-8.59,23.55-4.64,43.87,3.99,20.6,12.9,36.64,20.97,39.03Z" fill="#3b4eff" stroke-width="0"/><line x1="1629.09" y1="407.08" x2="1546.54" y2="424.29" fill="none" stroke="#2e2e2e" stroke-linecap="round" stroke-linejoin="round" stroke-width=".42"/><path d="m1615.51,650.39c-14.3,37.97-34.31,73.93-57.63,107.19-21.23,30.25-80.2,127.04-80.2,127.04,0,0-101.83-59.3-108.81-74.69-35.05-76.94-30.34-187.44,69.66-207.15,28.51,23.67,62.99,40.19,99.43,47.08,25.55,4.84,51.92,4.93,77.55.52Z" fill="#2e2e2e" stroke-width="0"/><path d="m1370.76,812.76c-1.36-1.36-2.49-3.94-3.26-5.71,0,0-1.36-3.01-1.36-3.01-11.69-27.29-18.06-57.09-17.13-86.83,0,0,.36-6.59.36-6.59,0,0-.17,6.6-.17,6.6-.18,29.69,6.12,59.23,17.2,86.72,0,0,1.28,3.04,1.28,3.04.7,1.74,1.76,4.38,3.09,5.78h0Z" fill="#f5f5ff" stroke-width="0"/><path d="m1752.35,1265.97l-14.77,82.15-5.33,65.36.97,6.07c2.69,16.8-.1,34.03-7.98,49.11h0c-8.16,15.64-28.48,20.11-42.45,9.33h0c-14.94-36.57-22.05-75.87-20.87-115.35v-.4s-6.32-9.7-6.32-9.7c-6.87-10.53-8.96-23.49-5.73-35.64h0c2.72-10.25,9.02-19.18,17.76-25.18l21.14-14.52,17.92-43.03,45.67,31.81Z" fill="#f5f5ff" stroke="#2e2e2e" stroke-linecap="round" stroke-linejoin="round" stroke-width=".55"/><path d="m1808.5,1003.34c-13.85,26.91-47.15,37.13-73.71,22.61l-263.94-144.27c-45.14-22.82-58.47-81.03-27.75-121.22h0c27.87-36.46,80.46-42.42,115.79-13.14l235.48,189.43c19.92,16.03,25.83,43.85,14.13,66.59h0Z" fill="#2e2e2e" stroke-width="0"/><path d="m1754.21,1283.75l-63.6-13.83-.48-31.39c-15.71-94.44-1.97-191.42,39.35-277.79h0c8.08-16.9,25.81-26.99,44.47-25.33h0c26.79,2.39,45.47,27.66,39.91,53.98l-59.65,294.35Z" fill="#2e2e2e" stroke-width="0"/><path d="m1564.09,752.81c-14.19-9.71-29.49-20.83-43.09-31.34,14.19,9.71,29.48,20.83,43.09,31.34h0Z" fill="#f5f5ff" stroke-width="0"/><path d="m1707.89,1014.48c4.67-16.19,15.72-27.51,31.04-34.11-15.19,7.91-25.05,17.9-31.04,34.11h0Z" fill="#f5f5ff" stroke-width="0"/></svg>