<?xml version="1.0" encoding="UTF-8"?><svg id="Layer_1" xmlns="http://www.w3.org/2000/svg" viewBox="0 0 626.6 831"><circle cx="312.06" cy="358.26" r="238.19" transform="translate(-161.93 325.59) rotate(-45)" fill="#ffce33" stroke-width="0"/><path d="m377.66,284.84c-9.72,15.61-8.78,34.1,2.1,41.3,10.88,7.2,27.58.38,37.3-15.23,9.72-15.61,8.78-34.1-2.1-41.3-10.88-7.2-27.58-.38-37.3,15.23Z" fill="#f5f5ff" stroke="#2e2e2e" stroke-linecap="round" stroke-linejoin="round" stroke-width=".54"/><path d="m406.78,277.1c4.71,1.84,8.29,6.31,9.05,11.31.76,5-1.32,10.34-5.27,13.5" fill="none" stroke="#2e2e2e" stroke-linecap="round" stroke-linejoin="round" stroke-width=".54"/><path d="m246.45,284.84c9.72,15.61,8.78,34.1-2.1,41.3-10.88,7.2-27.58.38-37.3-15.23-9.72-15.61-8.78-34.1,2.1-41.3,10.88-7.2,27.58-.38,37.3,15.23Z" fill="#f5f5ff" stroke="#2e2e2e" stroke-linecap="round" stroke-linejoin="round" stroke-width=".54"/><path d="m217.34,277.1c-4.71,1.84-8.29,6.31-9.05,11.31-.76,5,1.32,10.34,5.27,13.5" fill="none" stroke="#2e2e2e" stroke-linecap="round" stroke-linejoin="round" stroke-width=".54"/><path d="m360.55,465.53c.88,26.4-20.25,48.23-46.64,48.23s-46.69-20.99-46.69-46.64c0-.53,0-1.05.04-1.58l5.18-69.57,1.32-17.61,2.59-34.57h75.06l4.13,54.64,2.94,39.75,2.06,27.36Z" fill="#f5f5ff" stroke="#2e2e2e" stroke-linecap="round" stroke-linejoin="round" stroke-width=".56"/><path d="m358.48,438.16c-24.64,1.76-51.78-10.5-70.41-34.3-6.28-7.99-11.07-16.65-14.32-25.52l2.59-34.57h75.06l4.13,54.64,2.94,39.75Z" fill="#2e2e2e" stroke-width="0"/><path d="m394.91,331.1c-2.92,7.5-7.15,15.34-12.23,22.93-9.79,14.62-22.76,28.33-35.71,37.04-14.2,9.51-32.81,12.62-49.01,7.1-12.74-4.34-23.25-13.46-32.65-23.11-11.72-12.02-22.42-25.48-28.43-41.17-4.66-12.21-6.66-25.78-7.19-39.68-.74-19.26,1.32-39.13,2.97-56.83,2.41-26.08,18.22-50.84,40.75-64.12,22.09-12.99,50.33-14.94,74-5.06,23.65,9.89,42.14,31.33,48.41,56.2,4.48,17.68,2.95,36.04,3.23,54.07.07,5.06.3,10.16.42,15.27.35,12.69.09,25.39-4.55,37.36Z" fill="#f5f5ff" stroke="#2e2e2e" stroke-linecap="round" stroke-linejoin="round" stroke-width=".54"/><path d="m335.18,265.55c1.62-4.96,5.29-8.8,9.46-11.57,4.23-2.75,9.12-4.44,14.16-4.99,5.04-.55,10.17.09,14.87,1.86,4.66,1.81,9.05,4.74,11.75,9.21l-13.49.63c-4.09.23-7.96.53-11.8.93-3.83.41-7.68.91-11.7,1.56-4.07.63-8.19,1.4-13.26,2.36Z" fill="#2e2e2e" stroke-width="0"/><path d="m296.8,265.55c-5.07-.96-9.19-1.73-13.26-2.36-4.03-.65-7.87-1.15-11.7-1.56-3.84-.4-7.71-.7-11.8-.93l-13.49-.63c2.71-4.47,7.09-7.4,11.75-9.21,4.7-1.78,9.83-2.41,14.87-1.86,5.04.54,9.94,2.23,14.16,4.99,4.18,2.77,7.84,6.61,9.46,11.57Z" fill="#2e2e2e" stroke-width="0"/><path d="m332.4,299.6s2.65-5.64,2.68-5.67c6.83-11.79,20.26-15.69,32.74-10.75,3.85,1.55,7.53,3.76,10.37,6.8.09.09.09.23,0,.32-.08.07-.2.08-.28.03-1.74-1.14-3.34-2.35-5.07-3.4-1.72-1.06-3.54-1.95-5.43-2.66-12.2-4.54-24.7-1.03-31.68,10.03,0,0-2.92,5.51-2.92,5.51-.12.25-.53.06-.4-.2h0Z" fill="#2e2e2e" stroke-width="0"/><path d="m370.27,294.56c2.76-.88,5.3-2.36,7.37-4.27" fill="none" stroke="#2e2e2e" stroke-linecap="round" stroke-linejoin="round" stroke-width=".51"/><path d="m345.08,289.49c0-4.32,3.5-7.82,7.82-7.82s7.82,3.5,7.82,7.82-3.5,7.82-7.82,7.82-7.82-3.5-7.82-7.82Z" fill="#2e2e2e" stroke-width="0"/><path d="m330.21,287.46c2.59-5.32,7.26-9.77,12.94-12.31,5.68-2.55,12.33-3.18,18.41-1.74" fill="none" stroke="#2e2e2e" stroke-linecap="round" stroke-linejoin="round" stroke-width=".51"/><path d="m299.17,295.23s-2.97-5.62-2.9-5.48c-7.01-11.15-19.6-14.58-31.7-10.06-3.86,1.38-7.13,3.74-10.5,6.06-.1.07-.24.04-.31-.06-.06-.09-.04-.21.03-.28,2.84-3.03,6.52-5.25,10.37-6.8,12.5-4.94,25.94-1.03,32.76,10.78,0,0,2.66,5.64,2.66,5.64.11.25-.26.46-.4.2h0Z" fill="#2e2e2e" stroke-width="0"/><path d="m261.71,289.98c-2.76-.88-5.3-2.36-7.37-4.27" fill="none" stroke="#2e2e2e" stroke-linecap="round" stroke-linejoin="round" stroke-width=".51"/><path d="m286.9,284.91c0-4.32-3.5-7.82-7.82-7.82s-7.82,3.5-7.82,7.82,3.5,7.82,7.82,7.82,7.82-3.5,7.82-7.82Z" fill="#2e2e2e" stroke-width="0"/><path d="m301.77,282.88c-2.59-5.32-7.26-9.76-12.94-12.31-5.68-2.55-12.33-3.18-18.41-1.74" fill="none" stroke="#2e2e2e" stroke-linecap="round" stroke-linejoin="round" stroke-width=".51"/><path d="m303.8,324.99c-4.16.51-6.54-4.01-4.58-7.72" fill="none" stroke="#2e2e2e" stroke-linecap="round" stroke-linejoin="round" stroke-width=".62"/><path d="m328.17,325.4c4.16.51,6.54-4.01,4.58-7.72" fill="none" stroke="#2e2e2e" stroke-linecap="round" stroke-linejoin="round" stroke-width=".62"/><path d="m303.44,324.37c6.7,6.15,18.06,6.34,24.96.4" fill="none" stroke="#2e2e2e" stroke-linecap="round" stroke-linejoin="round" stroke-width=".62"/><path d="m310.33,351.09c1.5,1.45,3.58,2.28,5.66,2.28,2.09,0,4.16-.84,5.66-2.29,2.35-2.27,6.58-.88,9.81-.41,3.23.47,6.53,1.12,9.72.43" fill="none" stroke="#2e2e2e" stroke-linecap="round" stroke-linejoin="round" stroke-width=".53"/><path d="m310.33,351.09c-2.35-2.27-6.58-.88-9.81-.41-3.23.47-6.53,1.12-9.72.43" fill="none" stroke="#2e2e2e" stroke-linecap="round" stroke-linejoin="round" stroke-width=".53"/><path d="m301.03,360.31c8.29,2.88,17.43,3.27,25.93,1.09" fill="none" stroke="#2e2e2e" stroke-linecap="round" stroke-linejoin="round" stroke-width=".53"/><path d="m315.97,335.48c1.9-3.4,5.71-5.46,9.5-6.35,3.84-.89,7.68-.72,11.17-.16,7.17,1.37,12.31,3.82,16.12,5.18l4.51,1.66c1.18.46,2.4.85,4.44.93,4.05.27,10.01-1.48,17.58-2.07-.73,7.47-3.39,13.92-10.01,19.02-3.24,2.5-7.85,4.21-12.49,4.5-4.65.35-8.95-.66-12.47-2.01-7.11-2.79-11.68-6.96-15.16-10.31-1.83-1.79-3.53-3.55-5.45-5.35-1.95-1.82-4.12-3.58-7.73-5.06Z" fill="#2e2e2e" stroke-width="0"/><path d="m316.01,335.48c-3.61,1.48-5.78,3.23-7.73,5.06-1.92,1.79-3.62,3.56-5.45,5.35-3.48,3.35-8.05,7.52-15.16,10.31-3.52,1.35-7.82,2.36-12.47,2.01-4.64-.29-9.25-2.01-12.49-4.5-6.62-5.1-9.28-11.55-10.01-19.02,7.57.6,13.53,2.34,17.58,2.07,2.04-.08,3.27-.47,4.44-.93l4.51-1.66c3.81-1.36,8.95-3.82,16.12-5.18,3.49-.56,7.33-.73,11.17.16,3.79.89,7.6,2.95,9.5,6.35Z" fill="#2e2e2e" stroke-width="0"/><path d="m493.56,644.51c-35.83,16.17-68.53,21.15-73.05,11.13-4.52-10.02,20.86-31.24,56.68-47.41,35.82-16.17,68.53-21.15,73.05-11.13,4.52,10.02-20.86,31.25-56.68,47.41Z" fill="#2e2e2e" stroke-width="0"/><path d="m477.82,732.5l-16.77-40.74-13.43-32.64-11.32-27.54-24.87-60.43c-13.1-31.8-.22-67.02,28.02-76.7,4.93-1.69,9.98-2.45,14.99-2.41.46,0,.92,0,1.39.05,21.9.79,43.06,17.05,51.54,41.88l20.13,58.84,9.02,26.39,38.94,114.02" fill="#f5f5ff" stroke="#2e2e2e" stroke-linecap="round" stroke-linejoin="round" stroke-width=".54"/><path d="m549.47,595.88c-6.62-8.36-38-3.1-72.26,12.32-35.83,16.18-61.24,37.41-56.68,47.45.11.22.22.38.38.6l-.38.16-39.58-92.79c-15.53-36.43,1.25-77.96,36.54-90.29,6.68-2.33,13.46-3.47,20.25-3.47,24.16,0,47.34,14.33,59.23,37.57l52.5,88.44Z" fill="#2e2e2e" stroke-width="0"/><path d="m131.43,644.51c35.83,16.17,68.53,21.15,73.05,11.13,4.52-10.02-20.86-31.24-56.68-47.41-35.82-16.17-68.53-21.15-73.05-11.13-4.52,10.02,20.86,31.25,56.68,47.41Z" fill="#2e2e2e" stroke-width="0"/><path d="m48.67,732.6l39.77-113.69,9.21-26.36,20.56-58.69c8.83-25.27,30.82-41.54,53.19-41.54h.29c4.92.04,9.84.84,14.67,2.52,28.17,9.88,40.83,45.2,27.5,76.9l-25.31,60.25v.04l-11.52,27.41-12.28,29.22-18.46,43.94" fill="#f5f5ff" stroke="#2e2e2e" stroke-linecap="round" stroke-linejoin="round" stroke-width=".54"/><path d="m75.52,595.88c6.62-8.36,38-3.1,72.26,12.32,35.83,16.18,61.24,37.41,56.68,47.45-.11.22-.22.38-.38.6l.38.16,39.58-92.79c15.53-36.43-1.25-77.96-36.54-90.29-6.68-2.33-13.46-3.47-20.25-3.47-24.16,0-47.34,14.33-59.23,37.57l-52.5,88.44Z" fill="#2e2e2e" stroke-width="0"/><polygon points="461.97 734.48 162.15 734.48 163.7 690.54 164.8 658.84 166.18 619.9 170.64 494.19 171.31 475.48 180.98 471.99 237.2 451.68 248.04 447.77 253.43 445.8 267.47 438.24 271.72 438.24 352.86 438.24 354.54 438.24 370.31 445.5 375.65 447.44 386.5 451.35 444.35 472.24 453.26 475.48 453.9 494.23 456.29 565.03 458.1 619.15 459.4 658.29 459.4 658.5 460.58 693.86 461.97 734.48" fill="#f5f5ff" stroke="#2e2e2e" stroke-linecap="round" stroke-linejoin="round" stroke-width=".5"/><path d="m397.17,620.91h0c-17.79,0-32.2-14.42-32.2-32.2v-55.39h64.41v55.39c0,17.79-14.42,32.2-32.2,32.2Z" fill="#f5f5ff" stroke="#2e2e2e" stroke-linecap="round" stroke-linejoin="round" stroke-width=".5"/><line x1="364.91" y1="548.53" x2="429.44" y2="548.53" fill="none" stroke="#2e2e2e" stroke-linecap="round" stroke-linejoin="round" stroke-width=".5"/><path d="m359.22,437.06l8.99,7.53,5.12,1.85c-3.83,30.54-29.89,54.11-61.49,54.11s-57.48-23.43-61.49-53.79l5.21-1.89,14.59-8.81" fill="#f5f5ff" stroke="#2e2e2e" stroke-linecap="round" stroke-linejoin="round" stroke-width=".5"/><path d="m380.62,449.78c-4.28,34.16-33.44,60.53-68.78,60.53s-64.29-26.21-68.78-60.17" fill="none" stroke="#2e2e2e" stroke-linecap="round" stroke-linejoin="round" stroke-width=".56"/><line x1="211.16" y1="548.27" x2="221.41" y2="536.16" fill="none" stroke="#2e2e2e" stroke-linecap="round" stroke-linejoin="round" stroke-width=".5"/><line x1="205.56" y1="511" x2="212.09" y2="517.52" fill="none" stroke="#2e2e2e" stroke-linecap="round" stroke-linejoin="round" stroke-width=".5"/><line x1="227" y1="504.47" x2="236.32" y2="497.02" fill="none" stroke="#2e2e2e" stroke-linecap="round" stroke-linejoin="round" stroke-width=".5"/><line x1="211.16" y1="481.18" x2="221.41" y2="488.63" fill="none" stroke="#2e2e2e" stroke-linecap="round" stroke-linejoin="round" stroke-width=".5"/><line x1="180.4" y1="530.57" x2="188.79" y2="524.04" fill="none" stroke="#2e2e2e" stroke-linecap="round" stroke-linejoin="round" stroke-width=".5"/><line x1="185.06" y1="492.36" x2="194.38" y2="503.54" fill="none" stroke="#2e2e2e" stroke-linecap="round" stroke-linejoin="round" stroke-width=".5"/><line x1="187.86" y1="587.41" x2="202.77" y2="577.16" fill="none" stroke="#2e2e2e" stroke-linecap="round" stroke-linejoin="round" stroke-width=".5"/><line x1="188.79" y1="557.59" x2="196.25" y2="565.04" fill="none" stroke="#2e2e2e" stroke-linecap="round" stroke-linejoin="round" stroke-width=".5"/><line x1="235.38" y1="564.11" x2="244.7" y2="556.66" fill="none" stroke="#2e2e2e" stroke-linecap="round" stroke-linejoin="round" stroke-width=".5"/><line x1="251.23" y1="521.25" x2="260.54" y2="535.22" fill="none" stroke="#2e2e2e" stroke-linecap="round" stroke-linejoin="round" stroke-width=".5"/><line x1="277.32" y1="558.52" x2="285.7" y2="551.07" fill="none" stroke="#2e2e2e" stroke-linecap="round" stroke-linejoin="round" stroke-width=".5"/><line x1="239.11" y1="593.93" x2="248.43" y2="605.11" fill="none" stroke="#2e2e2e" stroke-linecap="round" stroke-linejoin="round" stroke-width=".5"/><line x1="200.91" y1="618.16" x2="211.16" y2="607.91" fill="none" stroke="#2e2e2e" stroke-linecap="round" stroke-linejoin="round" stroke-width=".5"/><line x1="221.41" y1="644.25" x2="228.86" y2="638.66" fill="none" stroke="#2e2e2e" stroke-linecap="round" stroke-linejoin="round" stroke-width=".5"/><line x1="183.2" y1="652.64" x2="192.52" y2="661.96" fill="none" stroke="#2e2e2e" stroke-linecap="round" stroke-linejoin="round" stroke-width=".5"/><line x1="181.34" y1="624.68" x2="188.79" y2="618.16" fill="none" stroke="#2e2e2e" stroke-linecap="round" stroke-linejoin="round" stroke-width=".5"/><line x1="214.88" y1="661.96" x2="226.07" y2="672.21" fill="none" stroke="#2e2e2e" stroke-linecap="round" stroke-linejoin="round" stroke-width=".5"/><line x1="185.06" y1="695.5" x2="197.18" y2="688.98" fill="none" stroke="#2e2e2e" stroke-linecap="round" stroke-linejoin="round" stroke-width=".5"/><line x1="218.61" y1="699.23" x2="228.86" y2="708.55" fill="none" stroke="#2e2e2e" stroke-linecap="round" stroke-linejoin="round" stroke-width=".5"/><line x1="198.11" y1="721.6" x2="205.56" y2="715.07" fill="none" stroke="#2e2e2e" stroke-linecap="round" stroke-linejoin="round" stroke-width=".5"/><line x1="264.27" y1="712.28" x2="272.66" y2="719.73" fill="none" stroke="#2e2e2e" stroke-linecap="round" stroke-linejoin="round" stroke-width=".5"/><line x1="255.88" y1="685.25" x2="266.13" y2="673.14" fill="none" stroke="#2e2e2e" stroke-linecap="round" stroke-linejoin="round" stroke-width=".5"/><line x1="253.09" y1="641.46" x2="261.48" y2="648.91" fill="none" stroke="#2e2e2e" stroke-linecap="round" stroke-linejoin="round" stroke-width=".5"/><line x1="280.11" y1="623.75" x2="289.43" y2="614.43" fill="none" stroke="#2e2e2e" stroke-linecap="round" stroke-linejoin="round" stroke-width=".5"/><line x1="285.7" y1="584.61" x2="292.23" y2="589.27" fill="none" stroke="#2e2e2e" stroke-linecap="round" stroke-linejoin="round" stroke-width=".5"/><line x1="313.66" y1="565.98" x2="325.77" y2="556.66" fill="none" stroke="#2e2e2e" stroke-linecap="round" stroke-linejoin="round" stroke-width=".5"/><line x1="304.34" y1="534.29" x2="313.66" y2="543.61" fill="none" stroke="#2e2e2e" stroke-linecap="round" stroke-linejoin="round" stroke-width=".5"/><line x1="276.39" y1="520.32" x2="282.91" y2="526.84" fill="none" stroke="#2e2e2e" stroke-linecap="round" stroke-linejoin="round" stroke-width=".5"/><line x1="332.3" y1="528.7" x2="339.75" y2="521.25" fill="none" stroke="#2e2e2e" stroke-linecap="round" stroke-linejoin="round" stroke-width=".5"/><line x1="366.78" y1="505.41" x2="374.23" y2="512.86" fill="none" stroke="#2e2e2e" stroke-linecap="round" stroke-linejoin="round" stroke-width=".5"/><line x1="395.66" y1="506.34" x2="405.91" y2="495.16" fill="none" stroke="#2e2e2e" stroke-linecap="round" stroke-linejoin="round" stroke-width=".5"/><line x1="390.07" y1="475.59" x2="397.53" y2="484.9" fill="none" stroke="#2e2e2e" stroke-linecap="round" stroke-linejoin="round" stroke-width=".5"/><line x1="426.41" y1="503.54" x2="436.66" y2="497.95" fill="none" stroke="#2e2e2e" stroke-linecap="round" stroke-linejoin="round" stroke-width=".5"/><line x1="422.69" y1="480.25" x2="428.28" y2="487.7" fill="none" stroke="#2e2e2e" stroke-linecap="round" stroke-linejoin="round" stroke-width=".5"/><line x1="339.75" y1="582.75" x2="349.07" y2="575.29" fill="none" stroke="#2e2e2e" stroke-linecap="round" stroke-linejoin="round" stroke-width=".5"/><line x1="348.14" y1="554.79" x2="354.66" y2="560.39" fill="none" stroke="#2e2e2e" stroke-linecap="round" stroke-linejoin="round" stroke-width=".5"/><line x1="316.45" y1="613.5" x2="322.05" y2="608.84" fill="none" stroke="#2e2e2e" stroke-linecap="round" stroke-linejoin="round" stroke-width=".5"/><line x1="299.68" y1="647.05" x2="308.07" y2="640.52" fill="none" stroke="#2e2e2e" stroke-linecap="round" stroke-linejoin="round" stroke-width=".5"/><line x1="351.87" y1="628.41" x2="358.39" y2="636.8" fill="none" stroke="#2e2e2e" stroke-linecap="round" stroke-linejoin="round" stroke-width=".5"/><line x1="329.5" y1="657.3" x2="339.75" y2="652.64" fill="none" stroke="#2e2e2e" stroke-linecap="round" stroke-linejoin="round" stroke-width=".5"/><line x1="300.61" y1="674.07" x2="310.86" y2="680.59" fill="none" stroke="#2e2e2e" stroke-linecap="round" stroke-linejoin="round" stroke-width=".5"/><line x1="320.18" y1="708.55" x2="329.5" y2="698.3" fill="none" stroke="#2e2e2e" stroke-linecap="round" stroke-linejoin="round" stroke-width=".5"/><line x1="288.5" y1="695.5" x2="295.95" y2="702.03" fill="none" stroke="#2e2e2e" stroke-linecap="round" stroke-linejoin="round" stroke-width=".5"/><line x1="296.89" y1="717.87" x2="304.34" y2="711.35" fill="none" stroke="#2e2e2e" stroke-linecap="round" stroke-linejoin="round" stroke-width=".5"/><line x1="344.41" y1="688.98" x2="352.8" y2="682.46" fill="none" stroke="#2e2e2e" stroke-linecap="round" stroke-linejoin="round" stroke-width=".5"/><line x1="373.3" y1="667.55" x2="380.75" y2="675" fill="none" stroke="#2e2e2e" stroke-linecap="round" stroke-linejoin="round" stroke-width=".5"/><line x1="389.14" y1="653.57" x2="397.53" y2="647.98" fill="none" stroke="#2e2e2e" stroke-linecap="round" stroke-linejoin="round" stroke-width=".5"/><line x1="377.96" y1="633.07" x2="383.55" y2="637.73" fill="none" stroke="#2e2e2e" stroke-linecap="round" stroke-linejoin="round" stroke-width=".5"/><line x1="363.98" y1="702.03" x2="372.37" y2="696.44" fill="none" stroke="#2e2e2e" stroke-linecap="round" stroke-linejoin="round" stroke-width=".5"/><line x1="391.94" y1="714.14" x2="400.32" y2="706.69" fill="none" stroke="#2e2e2e" stroke-linecap="round" stroke-linejoin="round" stroke-width=".5"/><line x1="415.23" y1="682.46" x2="422.69" y2="675.93" fill="none" stroke="#2e2e2e" stroke-linecap="round" stroke-linejoin="round" stroke-width=".5"/><line x1="399.39" y1="664.75" x2="405.91" y2="670.34" fill="none" stroke="#2e2e2e" stroke-linecap="round" stroke-linejoin="round" stroke-width=".5"/><line x1="429.21" y1="652.64" x2="439.46" y2="643.32" fill="none" stroke="#2e2e2e" stroke-linecap="round" stroke-linejoin="round" stroke-width=".5"/><line x1="419.89" y1="628.41" x2="427.35" y2="635.86" fill="none" stroke="#2e2e2e" stroke-linecap="round" stroke-linejoin="round" stroke-width=".5"/><line x1="438.53" y1="619.09" x2="445.05" y2="612.57" fill="none" stroke="#2e2e2e" stroke-linecap="round" stroke-linejoin="round" stroke-width=".5"/><line x1="442.26" y1="573.43" x2="446.91" y2="580.89" fill="none" stroke="#2e2e2e" stroke-linecap="round" stroke-linejoin="round" stroke-width=".5"/><line x1="437.6" y1="550.13" x2="445.05" y2="542.68" fill="none" stroke="#2e2e2e" stroke-linecap="round" stroke-linejoin="round" stroke-width=".5"/><line x1="436.66" y1="519.38" x2="441.32" y2="526.84" fill="none" stroke="#2e2e2e" stroke-linecap="round" stroke-linejoin="round" stroke-width=".5"/><line x1="414.3" y1="515.66" x2="417.1" y2="520.32" fill="none" stroke="#2e2e2e" stroke-linecap="round" stroke-linejoin="round" stroke-width=".5"/><line x1="428.28" y1="712.28" x2="435.73" y2="705.75" fill="none" stroke="#2e2e2e" stroke-linecap="round" stroke-linejoin="round" stroke-width=".5"/><line x1="432.94" y1="686.19" x2="438.53" y2="691.78" fill="none" stroke="#2e2e2e" stroke-linecap="round" stroke-linejoin="round" stroke-width=".5"/><line x1="445.98" y1="671.28" x2="451.57" y2="678.73" fill="none" stroke="#2e2e2e" stroke-linecap="round" stroke-linejoin="round" stroke-width=".5"/><line x1="347.21" y1="726.25" x2="358.39" y2="719.73" fill="none" stroke="#2e2e2e" stroke-linecap="round" stroke-linejoin="round" stroke-width=".5"/><line x1="343.48" y1="705.75" x2="350.93" y2="709.48" fill="none" stroke="#2e2e2e" stroke-linecap="round" stroke-linejoin="round" stroke-width=".5"/><line x1="443.19" y1="718.8" x2="450.64" y2="725.32" fill="none" stroke="#2e2e2e" stroke-linecap="round" stroke-linejoin="round" stroke-width=".5"/></svg>