<svg id="b0d5250d-e0e5-4ea8-98c7-7110cd9d8b20" data-name="Layer 1" xmlns="http://www.w3.org/2000/svg" viewBox="0 0 456 330"><title>sidebar-panel-dark</title><path d="M32.2,307a12.29,12.29,0,0,1-12.3-12.3V39.3A12.29,12.29,0,0,1,32.2,27H423.8a12.29,12.29,0,0,1,12.3,12.3V294.7A12.29,12.29,0,0,1,423.8,307Z" fill="#333747"/><path d="M423.8,28a11.35,11.35,0,0,1,11.3,11.3V294.7A11.35,11.35,0,0,1,423.8,306H32.2a11.35,11.35,0,0,1-11.3-11.3V39.3A11.35,11.35,0,0,1,32.2,28H423.8" fill="none" stroke="#a2a5b9" stroke-linecap="round" stroke-miterlimit="10" stroke-width="2"/><circle cx="117.6" cy="87.5" r="25" fill="#333747" stroke="#a2a5b9" stroke-linecap="round" stroke-miterlimit="10" stroke-width="2"/><line x1="159.6" y1="75.5" x2="290.6" y2="75.5" fill="none" stroke="#a2a5b9" stroke-linecap="round" stroke-miterlimit="10" stroke-width="2"/><line x1="160.1" y1="88.1" x2="250.1" y2="88.1" fill="none" stroke="#a2a5b9" stroke-linecap="round" stroke-miterlimit="10" stroke-width="2"/><line x1="160.1" y1="100.9" x2="264.1" y2="100.9" fill="none" stroke="#a2a5b9" stroke-linecap="round" stroke-miterlimit="10" stroke-width="2"/><line x1="92.6" y1="164.5" x2="223.6" y2="164.5" fill="none" stroke="#a2a5b9" stroke-linecap="round" stroke-miterlimit="10" stroke-width="2"/><line x1="93.1" y1="177.1" x2="183.1" y2="177.1" fill="none" stroke="#a2a5b9" stroke-linecap="round" stroke-miterlimit="10" stroke-width="2"/><line x1="93.1" y1="189.9" x2="197.1" y2="189.9" fill="none" stroke="#a2a5b9" stroke-linecap="round" stroke-miterlimit="10" stroke-width="2"/><line x1="284.6" y1="164.5" x2="415.6" y2="164.5" fill="none" stroke="#a2a5b9" stroke-linecap="round" stroke-miterlimit="10" stroke-width="2"/><line x1="285.1" y1="177.1" x2="375.1" y2="177.1" fill="none" stroke="#a2a5b9" stroke-linecap="round" stroke-miterlimit="10" stroke-width="2"/><line x1="285.1" y1="189.9" x2="389.1" y2="189.9" fill="none" stroke="#a2a5b9" stroke-linecap="round" stroke-miterlimit="10" stroke-width="2"/><line x1="92.6" y1="230.5" x2="223.6" y2="230.5" fill="none" stroke="#a2a5b9" stroke-linecap="round" stroke-miterlimit="10" stroke-width="2"/><line x1="93.1" y1="243.1" x2="183.1" y2="243.1" fill="none" stroke="#a2a5b9" stroke-linecap="round" stroke-miterlimit="10" stroke-width="2"/><line x1="93.1" y1="255.9" x2="197.1" y2="255.9" fill="none" stroke="#a2a5b9" stroke-linecap="round" stroke-miterlimit="10" stroke-width="2"/><line x1="284.6" y1="230.5" x2="415.6" y2="230.5" fill="none" stroke="#a2a5b9" stroke-linecap="round" stroke-miterlimit="10" stroke-width="2"/><line x1="285.1" y1="243.1" x2="375.1" y2="243.1" fill="none" stroke="#a2a5b9" stroke-linecap="round" stroke-miterlimit="10" stroke-width="2"/><line x1="285.1" y1="255.9" x2="389.1" y2="255.9" fill="none" stroke="#a2a5b9" stroke-linecap="round" stroke-miterlimit="10" stroke-width="2"/><path d="M75.4,306H32.3a11.39,11.39,0,0,1-11.4-11.4V39.4A11.39,11.39,0,0,1,32.3,28H75.4Z" fill="none" stroke="#a2a5b9" stroke-linecap="round" stroke-miterlimit="10" stroke-width="2"/><circle cx="47.5" cy="53.5" r="15" fill="#333747" stroke="#a2a5b9" stroke-linecap="round" stroke-miterlimit="10" stroke-width="2"/><circle cx="47.5" cy="107.5" r="11" fill="#333747" stroke="#a2a5b9" stroke-linecap="round" stroke-miterlimit="10" stroke-width="2"/><circle cx="47.5" cy="145.5" r="11" fill="#333747" stroke="#a2a5b9" stroke-linecap="round" stroke-miterlimit="10" stroke-width="2"/><circle cx="47.5" cy="183.5" r="11" fill="#333747" stroke="#a2a5b9" stroke-linecap="round" stroke-miterlimit="10" stroke-width="2"/><circle cx="47.5" cy="221.5" r="11" fill="#333747" stroke="#a2a5b9" stroke-linecap="round" stroke-miterlimit="10" stroke-width="2"/></svg>