<svg id="b867a667-99d1-4c9c-b754-a226e813c5e6" data-name="Layer 1" xmlns="http://www.w3.org/2000/svg" viewBox="0 0 456 330"><title>sideblock-dark</title><path d="M32.2,307a12.29,12.29,0,0,1-12.3-12.3V39.3A12.29,12.29,0,0,1,32.2,27H423.8a12.29,12.29,0,0,1,12.3,12.3V294.7A12.29,12.29,0,0,1,423.8,307Z" fill="#333747"/><path d="M423.8,28a11.35,11.35,0,0,1,11.3,11.3V294.7A11.35,11.35,0,0,1,423.8,306H32.2a11.35,11.35,0,0,1-11.3-11.3V39.3A11.35,11.35,0,0,1,32.2,28H423.8" fill="#333747" stroke="#a2a5b9" stroke-miterlimit="10" stroke-width="2"/><line x1="70.9" y1="183.5" x2="100.2" y2="183.5" fill="none" stroke="#a2a5b9" stroke-linecap="round" stroke-miterlimit="10" stroke-width="2"/><line x1="70.9" y1="221.5" x2="100.2" y2="221.5" fill="none" stroke="#a2a5b9" stroke-linecap="round" stroke-miterlimit="10" stroke-width="2"/><line x1="70.9" y1="145.5" x2="100.2" y2="145.5" fill="none" stroke="#a2a5b9" stroke-linecap="round" stroke-miterlimit="10" stroke-width="2"/><line x1="70.9" y1="107.5" x2="100.2" y2="107.5" fill="none" stroke="#a2a5b9" stroke-linecap="round" stroke-miterlimit="10" stroke-width="2"/><circle cx="175.4" cy="87.5" r="25" fill="#333747" stroke="#a2a5b9" stroke-linecap="round" stroke-miterlimit="10" stroke-width="2"/><line x1="218.4" y1="75.5" x2="320.2" y2="75.5" fill="none" stroke="#a2a5b9" stroke-linecap="round" stroke-miterlimit="10" stroke-width="2"/><line x1="218.8" y1="88.1" x2="288.7" y2="88.1" fill="none" stroke="#a2a5b9" stroke-linecap="round" stroke-miterlimit="10" stroke-width="2"/><line x1="218.8" y1="100.9" x2="299.6" y2="100.9" fill="none" stroke="#a2a5b9" stroke-linecap="round" stroke-miterlimit="10" stroke-width="2"/><line x1="150.4" y1="164.5" x2="252.2" y2="164.5" fill="none" stroke="#a2a5b9" stroke-linecap="round" stroke-miterlimit="10" stroke-width="2"/><line x1="150.8" y1="177.1" x2="220.8" y2="177.1" fill="none" stroke="#a2a5b9" stroke-linecap="round" stroke-miterlimit="10" stroke-width="2"/><line x1="150.8" y1="189.9" x2="231.6" y2="189.9" fill="none" stroke="#a2a5b9" stroke-linecap="round" stroke-miterlimit="10" stroke-width="2"/><line x1="299.7" y1="164.5" x2="401.5" y2="164.5" fill="none" stroke="#a2a5b9" stroke-linecap="round" stroke-miterlimit="10" stroke-width="2"/><line x1="300" y1="177.1" x2="370" y2="177.1" fill="none" stroke="#a2a5b9" stroke-linecap="round" stroke-miterlimit="10" stroke-width="2"/><line x1="300" y1="189.9" x2="380.9" y2="189.9" fill="none" stroke="#a2a5b9" stroke-linecap="round" stroke-miterlimit="10" stroke-width="2"/><line x1="150.4" y1="230.5" x2="252.2" y2="230.5" fill="none" stroke="#a2a5b9" stroke-linecap="round" stroke-miterlimit="10" stroke-width="2"/><line x1="150.8" y1="243.1" x2="220.8" y2="243.1" fill="none" stroke="#a2a5b9" stroke-linecap="round" stroke-miterlimit="10" stroke-width="2"/><line x1="150.8" y1="255.9" x2="231.6" y2="255.9" fill="none" stroke="#a2a5b9" stroke-linecap="round" stroke-miterlimit="10" stroke-width="2"/><line x1="299.7" y1="230.5" x2="401.5" y2="230.5" fill="none" stroke="#a2a5b9" stroke-linecap="round" stroke-miterlimit="10" stroke-width="2"/><line x1="300" y1="243.1" x2="370" y2="243.1" fill="none" stroke="#a2a5b9" stroke-linecap="round" stroke-miterlimit="10" stroke-width="2"/><line x1="300" y1="255.9" x2="380.9" y2="255.9" fill="none" stroke="#a2a5b9" stroke-linecap="round" stroke-miterlimit="10" stroke-width="2"/><circle cx="47.5" cy="53.5" r="15" fill="#333747" stroke="#a2a5b9" stroke-linecap="round" stroke-miterlimit="10" stroke-width="2"/><circle cx="47.5" cy="107.5" r="11" fill="#333747" stroke="#a2a5b9" stroke-linecap="round" stroke-miterlimit="10" stroke-width="2"/><circle cx="47.5" cy="145.5" r="11" fill="#333747" stroke="#a2a5b9" stroke-linecap="round" stroke-miterlimit="10" stroke-width="2"/><circle cx="47.5" cy="183.5" r="11" fill="#333747" stroke="#a2a5b9" stroke-linecap="round" stroke-miterlimit="10" stroke-width="2"/><circle cx="47.5" cy="221.5" r="11" fill="#333747" stroke="#a2a5b9" stroke-linecap="round" stroke-miterlimit="10" stroke-width="2"/><path d="M125.2,306H32.3a11.39,11.39,0,0,1-11.4-11.4V39.4A11.39,11.39,0,0,1,32.3,28h92.9Z" fill="none" stroke="#a2a5b9" stroke-linecap="round" stroke-miterlimit="10" stroke-width="2"/></svg>