<svg id="aff8ba49-f408-4782-a339-ede5604c7f65" data-name="Layer 1" xmlns="http://www.w3.org/2000/svg" viewBox="0 0 456 330"><title>sidebar-panel-float-dark</title><path d="M32.2,307a12.29,12.29,0,0,1-12.3-12.3V39.3A12.29,12.29,0,0,1,32.2,27H423.8a12.29,12.29,0,0,1,12.3,12.3V294.7A12.29,12.29,0,0,1,423.8,307Z" fill="#333747"/><path d="M423.8,28a11.35,11.35,0,0,1,11.3,11.3V294.7A11.35,11.35,0,0,1,423.8,306H32.2a11.35,11.35,0,0,1-11.3-11.3V39.3A11.35,11.35,0,0,1,32.2,28H423.8" fill="none" stroke="#a2a5b9" stroke-linecap="round" stroke-miterlimit="10" stroke-width="2"/><circle cx="133.53" cy="87.5" r="25" fill="#333747" stroke="#a2a5b9" stroke-linecap="round" stroke-miterlimit="10" stroke-width="2"/><line x1="175.53" y1="75.5" x2="306.53" y2="75.5" fill="none" stroke="#a2a5b9" stroke-linecap="round" stroke-miterlimit="10" stroke-width="2"/><line x1="176.03" y1="88.1" x2="266.03" y2="88.1" fill="none" stroke="#a2a5b9" stroke-linecap="round" stroke-miterlimit="10" stroke-width="2"/><line x1="176.03" y1="100.9" x2="280.03" y2="100.9" fill="none" stroke="#a2a5b9" stroke-linecap="round" stroke-miterlimit="10" stroke-width="2"/><line x1="108.53" y1="164.5" x2="239.53" y2="164.5" fill="none" stroke="#a2a5b9" stroke-linecap="round" stroke-miterlimit="10" stroke-width="2"/><line x1="109.03" y1="177.1" x2="199.03" y2="177.1" fill="none" stroke="#a2a5b9" stroke-linecap="round" stroke-miterlimit="10" stroke-width="2"/><line x1="109.03" y1="189.9" x2="213.03" y2="189.9" fill="none" stroke="#a2a5b9" stroke-linecap="round" stroke-miterlimit="10" stroke-width="2"/><line x1="275.53" y1="164.5" x2="406.53" y2="164.5" fill="none" stroke="#a2a5b9" stroke-linecap="round" stroke-miterlimit="10" stroke-width="2"/><line x1="276.03" y1="177.1" x2="366.03" y2="177.1" fill="none" stroke="#a2a5b9" stroke-linecap="round" stroke-miterlimit="10" stroke-width="2"/><line x1="276.03" y1="189.9" x2="380.03" y2="189.9" fill="none" stroke="#a2a5b9" stroke-linecap="round" stroke-miterlimit="10" stroke-width="2"/><line x1="108.53" y1="230.5" x2="239.53" y2="230.5" fill="none" stroke="#a2a5b9" stroke-linecap="round" stroke-miterlimit="10" stroke-width="2"/><line x1="109.03" y1="243.1" x2="199.03" y2="243.1" fill="none" stroke="#a2a5b9" stroke-linecap="round" stroke-miterlimit="10" stroke-width="2"/><line x1="109.03" y1="255.9" x2="213.03" y2="255.9" fill="none" stroke="#a2a5b9" stroke-linecap="round" stroke-miterlimit="10" stroke-width="2"/><line x1="275.53" y1="230.5" x2="406.53" y2="230.5" fill="none" stroke="#a2a5b9" stroke-linecap="round" stroke-miterlimit="10" stroke-width="2"/><line x1="276.03" y1="243.1" x2="366.03" y2="243.1" fill="none" stroke="#a2a5b9" stroke-linecap="round" stroke-miterlimit="10" stroke-width="2"/><line x1="276.03" y1="255.9" x2="380.03" y2="255.9" fill="none" stroke="#a2a5b9" stroke-linecap="round" stroke-miterlimit="10" stroke-width="2"/><circle cx="57.68" cy="71.01" r="12.66" fill="#333747" stroke="#a2a5b9" stroke-linecap="round" stroke-miterlimit="10" stroke-width="2"/><circle cx="57.68" cy="128.29" r="11" fill="#333747" stroke="#a2a5b9" stroke-linecap="round" stroke-miterlimit="10" stroke-width="2"/><circle cx="57.68" cy="166.29" r="11" fill="#333747" stroke="#a2a5b9" stroke-linecap="round" stroke-miterlimit="10" stroke-width="2"/><circle cx="57.68" cy="204.29" r="11" fill="#333747" stroke="#a2a5b9" stroke-linecap="round" stroke-miterlimit="10" stroke-width="2"/><circle cx="57.68" cy="242.29" r="11" fill="#333747" stroke="#a2a5b9" stroke-linecap="round" stroke-miterlimit="10" stroke-width="2"/><rect x="36.5" y="44.29" width="42.35" height="244.57" rx="11.33" fill="none" stroke="#a2a5b9" stroke-linecap="round" stroke-miterlimit="10" stroke-width="2"/></svg>