<svg id="f80a46bf-c364-4d41-86bd-e59681a4c9e9" data-name="Layer 1" xmlns="http://www.w3.org/2000/svg" viewBox="0 0 456 330"><title>top-navigation-dark</title><path d="M32.2,307a12.29,12.29,0,0,1-12.3-12.3V39.3A12.29,12.29,0,0,1,32.2,27H423.8a12.29,12.29,0,0,1,12.3,12.3V294.7A12.29,12.29,0,0,1,423.8,307Z" fill="#333747"/><path d="M423.8,28a11.35,11.35,0,0,1,11.3,11.3V294.7A11.35,11.35,0,0,1,423.8,306H32.2a11.35,11.35,0,0,1-11.3-11.3V39.3A11.35,11.35,0,0,1,32.2,28H423.8" fill="none" stroke="#a2a5b9" stroke-linecap="round" stroke-miterlimit="10" stroke-width="2"/><path d="M20.9,65.2V35c0-4.4,7.6-8,17-8H418.1c9.4,0,17,3.6,17,8V65.2" fill="none" stroke="#a2a5b9" stroke-linecap="round" stroke-miterlimit="10" stroke-width="2"/><circle cx="45.2" cy="46.1" r="11" fill="#333747" stroke="#a2a5b9" stroke-linecap="round" stroke-miterlimit="10" stroke-width="2"/><circle cx="412" cy="46.1" r="11" fill="#333747" stroke="#a2a5b9" stroke-linecap="round" stroke-miterlimit="10" stroke-width="2"/><circle cx="384.2" cy="46.1" r="5.3" fill="#333747" stroke="#a2a5b9" stroke-linecap="round" stroke-miterlimit="10" stroke-width="2"/><circle cx="361.9" cy="46.1" r="5.3" fill="#333747" stroke="#a2a5b9" stroke-linecap="round" stroke-miterlimit="10" stroke-width="2"/><circle cx="340.6" cy="46.1" r="5.3" fill="#333747" stroke="#a2a5b9" stroke-linecap="round" stroke-miterlimit="10" stroke-width="2"/><line x1="70" y1="46.1" x2="86.3" y2="46.1" fill="none" stroke="#a2a5b9" stroke-linecap="round" stroke-miterlimit="10" stroke-width="2"/><line x1="162.7" y1="46.1" x2="178.9" y2="46.1" fill="none" stroke="#a2a5b9" stroke-linecap="round" stroke-miterlimit="10" stroke-width="2"/><line x1="198.8" y1="46.1" x2="215" y2="46.1" fill="none" stroke="#a2a5b9" stroke-linecap="round" stroke-miterlimit="10" stroke-width="2"/><line x1="233.9" y1="46.1" x2="250.2" y2="46.1" fill="none" stroke="#a2a5b9" stroke-linecap="round" stroke-miterlimit="10" stroke-width="2"/><line x1="269.1" y1="46.1" x2="285.3" y2="46.1" fill="none" stroke="#a2a5b9" stroke-linecap="round" stroke-miterlimit="10" stroke-width="2"/><circle cx="91.5" cy="110.7" r="25" fill="#333747" stroke="#a2a5b9" stroke-linecap="round" stroke-miterlimit="10" stroke-width="2"/><line x1="133.5" y1="98.7" x2="264.5" y2="98.7" fill="none" stroke="#a2a5b9" stroke-linecap="round" stroke-miterlimit="10" stroke-width="2"/><line x1="134" y1="111.3" x2="224" y2="111.3" fill="none" stroke="#a2a5b9" stroke-linecap="round" stroke-miterlimit="10" stroke-width="2"/><line x1="134" y1="124.1" x2="238" y2="124.1" fill="none" stroke="#a2a5b9" stroke-linecap="round" stroke-miterlimit="10" stroke-width="2"/><line x1="66.5" y1="187.7" x2="197.5" y2="187.7" fill="none" stroke="#a2a5b9" stroke-linecap="round" stroke-miterlimit="10" stroke-width="2"/><line x1="67" y1="200.3" x2="157" y2="200.3" fill="none" stroke="#a2a5b9" stroke-linecap="round" stroke-miterlimit="10" stroke-width="2"/><line x1="67" y1="213.1" x2="171" y2="213.1" fill="none" stroke="#a2a5b9" stroke-linecap="round" stroke-miterlimit="10" stroke-width="2"/><line x1="258.5" y1="187.7" x2="389.5" y2="187.7" fill="none" stroke="#a2a5b9" stroke-linecap="round" stroke-miterlimit="10" stroke-width="2"/><line x1="259" y1="200.3" x2="349" y2="200.3" fill="none" stroke="#a2a5b9" stroke-linecap="round" stroke-miterlimit="10" stroke-width="2"/><line x1="259" y1="213.1" x2="363" y2="213.1" fill="none" stroke="#a2a5b9" stroke-linecap="round" stroke-miterlimit="10" stroke-width="2"/><line x1="66.5" y1="253.7" x2="197.5" y2="253.7" fill="none" stroke="#a2a5b9" stroke-linecap="round" stroke-miterlimit="10" stroke-width="2"/><line x1="67" y1="266.3" x2="157" y2="266.3" fill="none" stroke="#a2a5b9" stroke-linecap="round" stroke-miterlimit="10" stroke-width="2"/><line x1="67" y1="279.1" x2="171" y2="279.1" fill="none" stroke="#a2a5b9" stroke-linecap="round" stroke-miterlimit="10" stroke-width="2"/><line x1="258.5" y1="253.7" x2="389.5" y2="253.7" fill="none" stroke="#a2a5b9" stroke-linecap="round" stroke-miterlimit="10" stroke-width="2"/><line x1="259" y1="266.3" x2="349" y2="266.3" fill="none" stroke="#a2a5b9" stroke-linecap="round" stroke-miterlimit="10" stroke-width="2"/><line x1="259" y1="279.1" x2="363" y2="279.1" fill="none" stroke="#a2a5b9" stroke-linecap="round" stroke-miterlimit="10" stroke-width="2"/></svg>